<?xml version="1.0" encoding="utf-8"?>
<!-- Generator: Adobe Illustrator 17.1.0, SVG Export Plug-In . SVG Version: 6.00 Build 0)  -->
<!DOCTYPE svg PUBLIC "-//W3C//DTD SVG 1.1//EN" "http://www.w3.org/Graphics/SVG/1.1/DTD/svg11.dtd">
<svg version="1.1" id="Layer_1" xmlns="http://www.w3.org/2000/svg" xmlns:xlink="http://www.w3.org/1999/xlink" x="0px" y="0px"
	 viewBox="0 0 432 57.8" enable-background="new 0 0 432 57.8" xml:space="preserve">
<path fill="#FFFFFF" d="M260.7,41.8l-0.3,3.4c-0.2,0-1-0.2-2.2-0.6c-1-0.3-1.7-0.4-2.3-0.4c-0.5,0-1,0.1-1.3,0.1
	c-0.3,0-0.6,0.1-0.9,0.2c-0.6,0.1-1.1,0.3-1.7,0.6c-0.5,0.3-1.2,0.7-2,1.3c-0.8,0.6-2,1.6-3.5,2.9c-1.5,1.3-2.5,2.3-3.1,2.7
	c-1.1,0.9-1.9,1.4-2.6,1.5c-1.5,0.3-2.6,0-3.4-0.8c-0.7-0.7-1.1-1.7-1.4-3.1c-0.2-1.2-0.1-2.7,0.5-4.4c0.5-1.6,1.2-2.9,1.9-3.7
	l0.2,1c-0.5,0.7-0.8,1.8-1.2,3.1c-0.4,1.5-0.5,2.8-0.3,3.8c0.1,0.5,0.4,1,0.9,1.4c0.5,0.4,1,0.6,1.6,0.5c0.6-0.1,1.6-0.7,2.8-1.8
	c1.2-1.1,2.5-2.2,3.7-3.3c1.6-1.4,3-2.5,4.2-3.3c0.4-0.3,0.9-0.5,1.4-0.7c0.5-0.2,1-0.3,1.5-0.4c0.6-0.1,1.1-0.2,1.6-0.2
	c0.2,0,0.4,0,0.7,0c-0.3-0.1-0.6-0.3-0.9-0.5c-0.7-0.3-1.3-0.4-1.7-0.3c-0.1,0-0.2,0.1-0.2,0.1c0-0.2,0.1-0.5,0.5-1
	c0.2-0.3,0.4-0.6,0.7-0.8c0.1-0.2,0.3-0.3,0.5-0.4c0.2-0.1,0.4-0.2,0.7-0.2c0.3-0.1,0.5-0.1,0.8-0.1c0.3,0,0.5-0.1,0.8-0.1
	c0.3-0.1,0.6-0.2,0.8-0.3c0.2-0.1,0.4-0.3,0.6-0.5c1.5-2.5,6.5-4.4,6.5-3.4c0.1,2.4,0,0-0.6,3.8c-0.1,0.5-5,0.1-5.2,0.5
	c-0.2,0.5-0.5,0.9-0.7,1.4c0.6,0.4,1.1,0.6,1.4,0.9C260.2,41.1,260.7,41.6,260.7,41.8L260.7,41.8L260.7,41.8z M344.2,30.4
	c0.8,0.7,2.1,1.9,3.7,3.5c2.9,2.7,4.6,4.5,5.1,5.3c1.2,2.2,1.8,3.3,1.9,3.4c0.3,0.7,0.4,1.3,0.4,2c0,0.4-0.1,0.7-0.4,1.1
	c-0.1,0.1-0.3,0.4-0.7,0.8c-0.6,0.8-1.4,1.6-2.3,2.4c-0.7,0.6-1.6,1.3-2.8,2.1c-1.1,0.7-2.5,1.5-4.3,2.3c-0.6,0.3-1.4,0.6-2.5,1V55
	c1-0.1,1.8-0.3,2.4-0.4c1.8-0.3,3.2-0.7,4.2-1.1c1.5-0.6,2.5-1.1,3-1.4c0.9-0.5,1.7-1.2,2.5-2c0.8-0.8,1.4-1.6,1.8-2.3
	c0.4-0.7,0.8-1.6,1.2-2.8c0.1-0.4,0.3-0.9,0.4-1.6c0-0.2,0.1-0.5,0.2-0.8h0.2c0.5,3.6,2,6.1,4.3,7.4c1.6,0.8,4,1.3,7.2,1.3
	c0.4,0,0.9,0,1.3,0c0.4,0,0.9,0,1.3,0c4.9,0,9.4-0.6,13.4-1.7c2.8-0.8,5.3-1.9,7.4-3.1c0.7-0.5,1.5-1.1,2.2-1.7
	c0,1.3,0.2,2.3,0.6,3.2c0.6,1.4,1.7,2.1,3.1,2.1c1.3,0,2.7-0.8,4.3-2.4c0.5-0.5,1.2-1.3,2-2.3c0,1,0.3,1.9,1,2.6
	c0.7,0.7,1.5,1,2.5,1c1,0,1.9-0.6,2.9-2c0.3-0.4,0.7-1.1,1.2-1.9c0.2,1,0.5,1.8,0.8,2.3c0.9,1.5,2.5,2.3,4.6,2.3
	c1.5,0,2.7-0.6,3.8-1.8c0.8-1,1.5-2.4,2.1-4.1c0.1-0.5,0.2-1,0.3-1.6c0.1-0.6,0.1-1.2,0.1-1.8c0-0.3,0-0.5,0-0.7c0-0.2,0-0.3,0-0.5
	l-3.9-26.4l-0.2-1.2l0.1-0.2l1.8,1.8v-0.6l-3.4-8l-1.5,3.7l0.9,3.2l0.4,2.5c0.2,1.7,0.4,3.3,0.6,4.9c0.4,3.1,0.9,6.1,1.6,10.4
	c0.8,5.1,1.5,9.1,2.1,12.1l0.4,1.7c-0.5,1-1.2,1.8-2,2.3c-0.8,0.5-1.7,0.8-2.8,0.8c-1,0-1.9-0.4-2.7-1.1c-0.5-0.4-0.8-0.9-0.9-1.6
	c-0.2-0.7-0.2-1.4-0.2-2.3c0-0.3,0-0.5,0-0.7c0-0.2,0-0.4,0.1-0.6H414c-0.5,1.2-0.9,2.1-1.3,2.7c-1,1.8-2,2.7-2.9,2.7
	c-0.2,0-0.5-0.1-0.7-0.2c-0.8-0.3-1.3-1.2-1.6-2.6c-0.1-0.5-0.2-1.1-0.2-2h-0.6c-0.9,1.2-1.7,2.2-2.3,2.8c-1.8,1.8-3.4,2.7-4.7,2.7
	c-0.7,0-1.2-0.6-1.5-1.7c-0.2-0.7-0.3-1.6-0.3-2.7c0-0.2,0-0.4,0-0.6h-0.5c-0.9,0.6-1.8,1.1-2.7,1.7c-2.4,1.3-5.2,2.3-8.4,3.2
	c-4.4,1.1-9.2,1.7-14.5,1.7c-3.2,0-5.5-0.2-6.8-0.5c-1.3-0.4-2.3-0.9-3.1-1.7c-0.7-0.7-1.3-1.6-1.7-2.5c-0.4-0.9-0.6-2.1-0.8-3.5
	c-0.4-2.5-0.7-5.7-1.1-9.6c-0.3-3.9-0.7-7.6-1-11.2c0.1,1.7-0.1-1.3-0.3-2.2l-0.6-6.5c-0.1-0.4-0.1-0.8-0.1-1
	c-0.1-0.8-0.3-1.5-0.4-1.9c-0.1-0.4-0.3-0.9-0.6-1.3c-0.2-0.4-0.5-0.8-0.6-0.9L354,7.9c-0.1,0.4,0.1,1,0.2,1.4
	c0.2,2.1,0.4,4.1,0.7,6.2c0.4,3.5,0.8,7,1.2,10.5c0.3,2.7,0.7,5.4,0.9,8.2c0.2,2.3,0.3,4.9,0,7.2c-0.1,1-0.5,1.9-0.8,2.9
	c-0.2-2.1,0.1-4.2-1.1-6c-0.6-0.9-1.3-1.8-2-2.6c-0.8-0.9-1.8-1.9-2.6-2.8c-0.7-0.7-1.5-1.5-2.2-2.2c-2.3-2.2-4.8-4.3-7-6.5
	c-1.2-1.2-2.2-2.2-3.1-3.1c-0.4-0.4-0.9-0.9-1.3-1.3l-0.2-0.2l2.8,0.9l-0.2-0.8c-1.5-1-2.6-1.8-3.3-2.3c-2.3-1.6-3.5-2.4-3.7-2.4
	l1.2,4.6c0.2,0.2,0.4,0.3,0.5,0.4c0.4,0.3,0.6,0.6,0.7,0.8c1.1,1.2,2,2.2,2.7,2.8c2.1,2.2,3.8,3.8,5,5
	C344.2,30.4,342.7,28.9,344.2,30.4L344.2,30.4z M431,51.8L431,51.8l0.5-2c0.2-1.1,0.3-1.8,0.4-2.3c0-0.5,0-1.2,0-2.1
	c0-0.5,0-0.9,0-1.4c0-0.5,0-1,0-1.6c0-1-0.1-1.9-0.1-2.6c-0.2-1.5-0.4-3-0.6-4.5c-0.6-4.5-1-7.8-1.3-10.2c-0.6-4.6-1.1-7.6-1.5-10.3
	l-0.2-1.1l-0.2-1.6l0-0.2l1.8,1.9v-0.6l-3.4-8.9l-1.3,4.1l0.7,2.7l0.5,2.9l3.6,26.2c0.1,0.9,0.2,1.7,0.2,2.3
	c0.1,0.7,0.1,1.4,0.1,2.1c0.2,1.8,0.3,3.5,0.3,4.9l-0.1,2H431L431,51.8z M322.9,22.1L322.9,22.1l1.3,0.2c-0.6,0.2-0.9,0.4-1,0.5
	c-0.1,0.1-0.4,0.2-0.7,0.5c-0.4,0.2-0.6,0.7-0.8,1.5c0,0.2-0.1,0.5-0.1,1c0.8,2.3,1.5,4.8,2,7.5c0.2,1,0.3,2.2,0.5,3.7l0.3-4.2
	c-0.2-1.3-0.4-2.4-0.5-3.1c-0.4-2.2-0.8-3.8-1.1-4.8c1.1-0.7,2.5-1,4.2-1l0.8-1.5c-0.6-0.5-1-0.8-1.3-1c-1-0.7-1.7-1-2.2-1
	c-0.4,0.2-0.7,0.6-1.1,1.1C323.2,21.6,323.1,21.8,322.9,22.1L322.9,22.1z M393.7,50.8L393.7,50.8l-0.5,0.4c-0.1,0.5-0.3,0.9-0.4,1.1
	c-0.1,0.2-0.3,0.3-0.6,0.3c-0.2,0-0.5-0.1-0.7-0.3c-0.1-0.1-0.2-0.2-0.3-0.3l-0.6,0.6c-0.5,0.5-1,0.7-1.4,0.7c-0.3,0-0.6-0.1-1-0.3
	c-0.1-0.1-0.3-0.1-0.5-0.3c-0.7,0.4-1.3,0.6-1.7,0.8c-1.2,0.5-2.4,0.9-3.5,1.2c-2.3,0.5-4.7,1-7.2,1.4c-2.5,0.4-4.4,0.6-5.7,0.6
	c0.4,0.1,0.9,0.2,1.3,0.3c0.4,0.1,1.1,0.1,1.9,0.2h0.4c1,0,2.5-0.1,4.4-0.3c1.9-0.2,3.5-0.6,4.8-1c0.7-0.3,1.6-0.6,2.7-1.1
	c0.3-0.2,0.8-0.4,1.4-0.7c0.3,0.2,0.5,0.3,0.6,0.4c0.4,0.2,0.8,0.3,1.1,0.3c0.5,0,1-0.2,1.6-0.7c0.2-0.2,0.4-0.4,0.7-0.7
	c0.2,0.2,0.4,0.4,0.7,0.6c0.2,0.1,0.4,0.2,0.6,0.2c0.4,0,0.8-0.2,1-0.5c0.1-0.2,0.3-0.5,0.6-1.1c0.1-0.3,0.2-0.6,0.2-0.8
	C393.7,51.2,393.7,51,393.7,50.8L393.7,50.8z M409.4,0L409.4,0l-3.5,2.2c-2.7,1.6-6.5,3.2-11.2,4.9c-1,0.4-5,1.7-11.9,3.9
	c-4.2,1.4-7,2.4-8.3,3.2c-1,0.5-1.7,1.3-2.3,2.2c-0.1,0.3-0.3,0.7-0.4,1.2c1-0.4,1.8-0.6,2.3-0.8c1.6-0.6,2.7-1.2,3.2-1.6l0.6-0.7
	c5.4-1.8,10.7-3.6,16.1-5.4c5.4-2,9.1-3.5,11-4.7c1-0.7,2.1-1.6,3.2-2.8C408.5,1.2,408.9,0.7,409.4,0L409.4,0z M409.4,32.2
	L409.4,32.2c0-0.8-0.1-1.6-0.4-2.4c-0.2-0.8-0.5-1.6-0.7-2.3c-0.1,0.1-0.3,0.3-0.6,0.8c-0.1,0.1-0.2,0.3-0.3,0.5
	c0.2,0.6,0.4,1.3,0.6,2c0.2,0.7,0.4,1.3,0.4,1.7c0,0.2-0.1,0.4-0.3,0.5c-0.2,0.1-0.3,0.2-0.5,0.3c-0.7-0.3-1.2-1.1-1.3-2.5
	c-0.1-1.4-0.4-2.4-0.8-3c-0.2,0.2-0.3,0.4-0.4,0.5c-0.3,0.3-0.4,0.6-0.4,0.8c0.2,0.6,0.3,1,0.4,1.2c0.2,0.8,0.3,1.4,0.3,1.8
	c0,0.3-0.2,0.6-0.5,1c-0.4,0.3-0.7,0.5-1.1,0.5c-0.4,0-0.7-0.2-0.9-0.7c-0.2-0.5-0.2-1.2-0.2-2.1c0-0.4,0-0.8,0-1.2
	c0-0.4,0-0.8,0-1.3c-0.6,0.4-1,0.7-1.3,1.1c-0.2,0.4-0.4,0.7-0.6,1v0.9c0.1-0.2,0.4-0.4,0.8-0.8c0,0.2,0,0.5,0,0.8
	c0,0.3,0,0.6,0,0.9c0,1.2,0.1,2.1,0.5,2.6c0.3,0.4,0.7,0.7,1.3,0.7c1.1,0,1.8-0.7,2.2-2c0.1,0.2,0.3,0.5,0.6,0.9
	c0.4,0.4,0.7,0.6,1.1,0.6c0.5,0,0.9-0.1,1.2-0.3C409.1,34.2,409.4,33.4,409.4,32.2L409.4,32.2z M339,34.9c0.2,0.1,0.4,0.2,0.7,0.4
	c0.5,0.3,0.9,0.6,1.2,0.9l0,0c-0.5,0.1-0.8,0.1-0.9,0.2l-1,0.2v5.8c0.1-0.2,0.1-0.5,0.2-0.8c0.1-0.7,0.2-1.1,0.2-1.1
	c0.3-0.2,1-0.4,2.2-0.7c1.1-0.3,1.8-0.5,2-0.7c0.2-0.3,0.3-0.9,0.5-1.8c0.2-0.9,0.2-1.8,0.2-2.6c-0.4-0.6-1.3-1.4-2.7-2.5
	c-1.2-1-2.1-1.5-2.6-1.6V34.9z M333.7,42.7c1-0.6,0.6-0.3,1-0.6c1.6-0.8,2.7-1.1,3.3-1.1c0.1,0.3,0.2,0.7,0.3,1
	c0.1,0.3,0.2,0.7,0.3,1.2c0.2-0.2,0.3-0.5,0.4-0.8v-5.8c-0.3,0.1-0.5,0.1-0.6,0.1l-1.3-1.8c0.1-0.1,0.3-0.1,0.4-0.2
	c0.1,0,0.3-0.1,0.5-0.1c0,0,0.1,0,0.2,0c0.1,0,0.2,0,0.5,0.1c0.1,0,0.2,0.1,0.3,0.2v-4.4c-0.1,0-0.1,0-0.2,0c-0.8,0-1.5,0.4-2.1,1.2
	c-0.5,0.8-0.8,1.8-0.8,3.1c0,0.3,0,0.6,0,1c0,0.5,0.1,1,0.4,1.6c-1.3,0.6-2.5,1.1-3.8,1.7c-1.2,0.6-2.4,1.4-3.6,2.3
	c-4.4,3.3-7,4.9-7.8,4.9c-0.7,0-1.2-0.4-1.7-1.1c-0.4-0.7-0.6-1.4-0.6-2.1c0-1.5,0.3-3,1-4.7c0.6-1.4,1.4-2.7,2.4-3.9v-1.2
	c-1.3,1.2-2.4,2.7-3.3,4.7c-0.9,1.9-1.3,3.6-1.3,5.1c0,2.2,0.2,3.8,0.7,4.8c0.7,1.4,2,2.2,3.9,2.2c0.9,0,2.1-0.7,3.7-2
	c2.3-1.9,3.8-3.1,4.5-3.6c0.4-0.2,0.9-0.6,1.6-1C332.7,43.2,333.3,42.9,333.7,42.7L333.7,42.7z M321.7,14.9L321.7,14.9
	c-0.3,0.2-0.5,0.4-0.7,0.8c-0.2,0.3-0.3,0.7-0.3,1.1c0,0.6,0.2,0.9,0.6,1c0.2,0.1,0.4,0,0.7-0.1c0.3-0.1,0.5-0.2,0.6-0.2
	c0.8,0,1.4,0.9,1.7,2.7c0,0.3,0.1,0.7,0.1,1.2h0.6c0.3-1,0.5-1.8,0.6-2.3c0.5-1.6,0.9-2.7,1.3-3.3c0.2-0.2,0.3-0.4,0.6-0.4
	c0.2,0,0.3,0.1,0.6,0.4c0.1,0.1,0.1,0.2,0.3,0.4c0.4-0.6,0.6-1.3,0.6-2.2c0-0.4,0-0.7-0.1-0.9c-0.2-0.5-0.4-0.7-0.6-0.7
	c-0.5,0-1.2,1.2-2.2,3.6c-0.3,0.8-0.7,2-1.2,3.6c-0.2-1.5-0.4-2.5-0.7-3.2c-0.4-1.2-1-1.8-1.7-1.8c-0.1,0-0.2,0.1-0.4,0.1
	C322,14.8,321.9,14.9,321.7,14.9L321.7,14.9z M360.1,9.7L360.1,9.7c-0.3,0.2-0.5,0.4-0.7,0.8c-0.2,0.4-0.3,0.7-0.3,1.1
	c0,0.6,0.2,0.9,0.6,1c0.2,0.1,0.4,0,0.7-0.1c0.3-0.1,0.5-0.2,0.6-0.2c0.8,0,1.4,0.9,1.7,2.7c0,0.3,0.1,0.7,0.1,1.2h0.6
	c0.3-1,0.5-1.8,0.6-2.3c0.5-1.6,0.9-2.7,1.3-3.3c0.2-0.2,0.3-0.4,0.6-0.4c0.2,0,0.3,0.1,0.6,0.4c0.1,0.1,0.1,0.2,0.2,0.4
	c0.4-0.6,0.6-1.3,0.6-2.2c0-0.4,0-0.7-0.1-0.9c-0.2-0.5-0.4-0.7-0.6-0.7c-0.5,0-1.2,1.2-2.2,3.6c-0.3,0.8-0.7,2-1.2,3.6
	c-0.2-1.5-0.4-2.5-0.7-3.2c-0.4-1.2-1-1.8-1.7-1.8c-0.1,0-0.2,0.1-0.4,0.1C360.3,9.6,360.2,9.7,360.1,9.7L360.1,9.7z M367.1,38.9
	L367.1,38.9c-0.1,0.4-0.2,0.6-0.3,0.8c-0.3,0.5-0.6,0.8-1,0.8c-0.2,0-0.3-0.1-0.3-0.3c-0.1-0.2-0.1-0.4-0.1-0.6
	c0-0.4,0.3-1.4,0.8-2.9c0.1-0.5,0.4-1.2,0.7-2c-0.4,0.6-0.9,1.4-1.4,2.7c-0.6,1.3-0.9,2.2-0.9,2.7c0,1.2,0.4,1.8,1.2,1.8
	c0.3,0,0.6-0.1,0.8-0.3c0.2-0.2,0.4-0.5,0.5-0.9c0.1-0.2,0.1-0.4,0.2-0.7C367,39.5,367.1,39.2,367.1,38.9L367.1,38.9z M322.4,31.9
	L322.4,31.9c-0.1,0.4-0.3,0.7-0.3,0.8c-0.3,0.5-0.6,0.8-1.1,0.8c-0.2,0-0.3-0.1-0.4-0.4c-0.1-0.2-0.1-0.4-0.1-0.6
	c0-0.5,0.3-1.5,0.8-3c0.2-0.5,0.4-1.2,0.8-2.1c-0.4,0.6-0.9,1.5-1.5,2.8c-0.6,1.4-1,2.3-1,2.8c0,1.2,0.4,1.9,1.3,1.9
	c0.3,0,0.6-0.1,0.8-0.3c0.2-0.2,0.4-0.5,0.5-0.9c0.1-0.2,0.1-0.4,0.2-0.8C322.4,32.5,322.4,32.2,322.4,31.9L322.4,31.9z M408.9,22
	L408.9,22c0-0.6-0.2-1.3-0.4-2c-0.4-1.1-1.1-1.9-1.9-2.5c0,0.1-0.1,0.4-0.3,1c0,0.1-0.1,0.2-0.1,0.3c0,0.1,0.2,0.2,0.5,0.5
	c0.3,0.2,0.5,0.4,0.7,0.7c0.4,0.5,0.7,0.9,0.8,1.3c0.2,0.4,0.3,0.8,0.3,1.2l-0.1,1.6v0.7c0.3-0.5,0.4-0.9,0.5-1.3
	C408.9,22.9,408.9,22.5,408.9,22L408.9,22z M351.4,8.8L351.4,8.8c-0.1,0.4-0.2,0.6-0.3,0.8c-0.3,0.5-0.6,0.7-1,0.7
	c-0.2,0-0.3-0.1-0.3-0.3c-0.1-0.2-0.1-0.4-0.1-0.6c0-0.4,0.2-1.4,0.7-2.8c0.1-0.4,0.4-1.1,0.7-2c-0.4,0.5-0.8,1.4-1.4,2.6
	c-0.6,1.3-0.9,2.1-0.9,2.5c0,1.2,0.4,1.7,1.2,1.7c0.3,0,0.6-0.1,0.7-0.3c0.2-0.2,0.3-0.5,0.5-0.9c0.1-0.2,0.1-0.4,0.1-0.7
	C351.4,9.3,351.4,9,351.4,8.8L351.4,8.8z M89.8,31.8L89.8,31.8c-1.8,4.2,0,0-1.8,4.2c0.6,1.5,1.2,2.7,2,3.4c0.8,0.8,1.6,1.2,2.5,1.2
	c1.8,0,3.4-0.5,4.8-1.6c1.5-1.2,2.3-2.8,2.3-4.6c0-0.2,0-0.5,0-1c0-0.7-0.1-1.4-0.4-2.1c-0.4-0.8-1.2-1.9-2.3-3.2
	c0-0.2,0-0.3-0.1-0.4c0-0.1,0-0.2,0-0.2c0.1,0,0.3,0.1,0.7,0.3c0.1,0.1,0.3,0.2,0.6,0.3v-0.7c-0.5-0.7-1-1.3-1.3-1.7
	c-0.9-1.2-1.6-2-2.1-2.4c-0.1,0.4-0.2,1.1-0.2,2c-0.1,0.9-0.1,1.5-0.1,1.8c0.1,0.1,0.2,0.2,0.2,0.2c0.2,0.3,0.4,0.7,0.7,1.2
	c0.3,0.9,0.8,1.9,1.5,3.1c0.8,1.4,1.6,2.4,2.1,3c-0.7,0.7-1.5,1.2-2.3,1.6c-1.1,0.5-2.1,0.7-3.1,0.7c-1.1,0-2-0.7-2.7-2
	C90.1,33.9,89.8,32.9,89.8,31.8L89.8,31.8z M25,32L25,32l2.6,1.9l1.8-2.8L26.5,29l-1.9,2.8l-2.5-1.9l-1.8,2.8l2.9,2.2L25,32L25,32z
	 M270.6,51.3L270.6,51.3h0.4c1.5,0,3.2-0.9,5.1-2.6c0.6-0.6,1.4-1.4,2.4-2.5c0.1,1.2,0.3,2.1,0.5,2.6c0.7,1.8,2.1,2.6,4.2,2.6
	c1.3,0,2.4-0.2,3.2-0.6c0.9-0.4,1.7-1.1,2.4-2.1c0.8-1,1.4-2.1,1.9-3.3c0.5-1.2,0.8-2.4,1-3.6c0,1.4,0.2,3,0.6,4.7
	c0.4,1.7,1.2,2.9,2.3,3.7c0.8,0.5,1.5,0.8,2.4,0.8c1.1,0,2.4-0.2,4.2-0.7c1.7-0.4,3.3-1,4.8-1.6c2.7-1.2,4.6-2.3,5.9-3.1
	c1.9-1.2,3.3-2.6,4.2-4l1.1-3.1c-1.3,1.1-2.4,1.9-3.2,2.4c-2.6,1.6-5,2.5-7.2,2.5c-0.9,0-1.7-0.1-2.5-0.4c-0.7-0.3-1.5-0.7-2.3-1.3
	c-1.4-1-2.5-2-3.2-3c-0.8-1.1-1.2-2.2-1.2-3.2l0.1-0.1c0.5-0.2,0.8-0.4,1.1-0.6c1.5-0.7,2.7-1.2,3.5-1.4c1-0.3,1.8-0.5,2.5-0.6
	c0.7-0.1,1.6-0.2,2.5-0.2c0.9,0,2.1,0.2,3.5,0.6c0.5,0.1,1.1,0.4,1.9,0.6v-0.5c-2.7-2.6-6-3.9-10-3.9c-1.5,0-2.9,0.6-4,1.9
	c-1.2,1.3-2,2.8-2.4,4.7c-0.1,0.9-0.2,1.6-0.2,2.2c0,2,0.7,3.8,2.1,5.6c0.4,0.6,1.1,1.1,1.9,1.8c0.3,0.2,0.7,0.5,1.2,0.8
	c-0.3,0.2-0.7,0.4-1.1,0.5c-0.4,0.1-0.9,0.2-1.4,0.2c-0.4,0-0.8-0.1-1.3-0.2c-0.4-0.1-0.8-0.3-1.1-0.6c-0.6-0.5-1.1-1.2-1.5-1.9
	c-0.4-0.7-0.6-1.7-0.8-2.8c-0.4-2.8-0.8-5.8-1-9c-0.3-3.2-0.6-6.4-0.9-9.7c0-0.1-0.2-1.9-0.5-5.6c-0.2-1.9-0.4-3.8-0.7-5.5l-0.4-1.8
	l-1.4-3.5l-1.1,4.3c0.2,1.9,0.5,3.8,0.7,5.7c0.8,6.1,1.2,9.8,1.4,11.1c0.5,4,0.7,6.6,0.7,7.8c0,0.1,0,0.3,0,0.5v0.8
	c0,1-0.1,1.9-0.2,2.8c-0.2,0.8-0.3,1.5-0.6,2.1c-0.7,1.8-1.5,3.2-2.6,4.1c-1.1,0.9-2.4,1.4-4.1,1.4c-1.3,0-2.2-1-2.7-3
	c-0.2-0.7-0.3-1.7-0.5-3c-1.1,1.3-2.1,2.2-2.8,2.8c-2.2,1.8-4.1,2.8-5.7,2.8c-1.7,0-3-0.7-3.9-2.1c-0.9-1.4-1.7-3.7-2.4-6.7
	c-0.2-0.8-0.3-1.5-0.4-2.1c-0.1-0.6-0.3-1.5-0.5-2.6c-0.8-4.4,0,0-0.5-2.9l-1-6.8l-1.2,4l0.5,4.2c0.5,3.7,0.4,2.7,1.7,9.8
	c0.3,1.1,0.5,1.9,0.6,2.5c0.5,1.8,0.9,3.1,1.3,3.7c0.7,1.3,1.3,2.2,1.9,2.7C268.6,50.9,269.5,51.3,270.6,51.3L270.6,51.3z M311.6,12
	L311.6,12l-1.9,1.9c-1.5,1.3-3.4,2.3-5.8,3.2c-0.5,0.2-2.5,0.8-6,1.8c-2.1,0.6-3.6,1.2-4.3,1.8c-0.5,0.4-1,1.1-1.3,2.2
	c-0.1,0.3-0.2,0.8-0.3,1.4c0.5-0.2,0.9-0.3,1.2-0.4c0.8-0.4,1.4-0.8,1.7-1.2l0.4-0.8c2.7-0.8,5.5-1.7,8.2-2.5c2.8-1,4.7-2.1,5.7-3
	c0.5-0.6,1.2-1.5,1.8-2.8C311,13.3,311.3,12.8,311.6,12L311.6,12z M30.9,42.5L30.9,42.5c2.5,8.1,3.2,9.1,1.5,1.2
	c-0.1-0.5,0.1-1,0.1-1.5c0-0.9,0-1.7,0-2.4c-0.1-1.4-0.2-2.8-0.4-4.2c-0.4-4.2-0.6-7.3-0.8-9.5c-0.4-4.3-0.7-9.4-1-11.9l-0.1-1
	L30,11.8l0-0.2l1.5,1.9l0-0.5l-2.7-8.3l-1.3,3.8l0.6,2.6l0.4,2.7l2.3,26.7C30.9,41.2,30.8,41.9,30.9,42.5L30.9,42.5z M283.2,5
	L283.2,5c-0.2,0.1-0.5,0.4-0.6,0.7c-0.2,0.3-0.2,0.6-0.2,1c0,0.5,0.2,0.8,0.5,0.9c0.2,0.1,0.4,0,0.6-0.1c0.2-0.1,0.4-0.1,0.5-0.1
	c0.7,0,1.2,0.8,1.5,2.3c0,0.3,0.1,0.6,0.1,1h0.5c0.2-0.9,0.4-1.5,0.5-2c0.4-1.4,0.8-2.3,1.1-2.8c0.1-0.2,0.3-0.3,0.5-0.3
	c0.1,0,0.3,0.1,0.5,0.3c0,0.1,0.1,0.2,0.2,0.3c0.3-0.5,0.5-1.2,0.5-1.9c0-0.4,0-0.6-0.1-0.7c-0.1-0.4-0.3-0.6-0.5-0.6
	c-0.4,0-1.1,1-1.9,3.1c-0.3,0.7-0.6,1.7-1,3.1c-0.2-1.3-0.4-2.2-0.6-2.8c-0.4-1-0.8-1.5-1.5-1.5c-0.1,0-0.2,0-0.3,0
	C283.5,4.9,283.4,5,283.2,5L283.2,5z M264.4,21.9L264.4,21.9c-6,7.5,0.5,6.5-0.1,4.3c0.5-0.8,1.4-1.8,2.7-3.2
	c1.3-1.4,2.4-2.5,3.4-3.5c2-2,3.9-3.7,5.7-5.1c1.8-1.4,2.9-2.1,3.5-2.3c0.2-0.1,0.5,0,0.8,0.1c0,0.9-0.2,2.5-0.7,4.9
	c-0.4,1.8-0.4,3.4-0.1,4.8l0.3,0.9c0-0.7,0.2-2.2,0.7-4.4c0.9-3.8,1.1-6.5,0.7-8.1c-0.2-0.9-0.5-1.4-0.9-1.6c-0.4-0.2-0.9-0.2-1.5,0
	c-0.8,0.2-2,1.1-3.9,2.6c-1.8,1.5-3.7,3.2-5.6,5.1C266.6,19.4,264.9,21.2,264.4,21.9L264.4,21.9z M237,37.4c-0.3-2,0-2.3-0.5-4
	c-0.5-1.7-1.2-3.1-2.2-4.1c-0.8-0.9-1.7-1.3-2.6-1.4v4c0.2,0.1,0.5,0.2,0.8,0.4c0.5,0.3,0.8,0.7,1.1,1.2l0,0h-1.9v4h3.5
	c0.1,0.2,0.3,0.5,0.5,1.1c0.1,0.2,0.1,0.4,0.3,0.8c-0.9,1.4-1.9,2.6-3.1,3.6c-0.4,0.3-0.7,0.7-1.1,1v3.9l0.4-0.3
	c1.6-1.4,2.7-2.7,3.5-3.8c0.5-0.8,1-1.7,1.2-2.8c0.1-0.2,0.1-0.8,0.2-1.8C237,38.2,237,37.6,237,37.4L237,37.4z M231.7,47.8v-3.9
	c-0.7,0.5-1.4,1.1-2.2,1.5c-1.4,1-2.7,1.7-4,2.2c-1.3,0.5-2.3,0.7-3.3,0.7c-1.5,0-2.7-0.5-3.7-1.4c-1.1-1.1-1.6-2.4-1.6-3.9
	c0-0.3,0.1-1.3,0.2-2.9c0-0.5,0.1-1.3,0.2-2.3l-0.8,0c-0.2,1-0.3,1.8-0.3,2.3c-0.2,1.6-0.3,2.8-0.3,3.6c0,2.3,0.5,4.2,1.4,5.8
	c1.1,1.9,2.7,2.9,4.9,2.9c1.8,0,3.5-0.5,5.3-1.4C228.7,50.3,230.1,49.2,231.7,47.8L231.7,47.8z M231.7,33.5h-1.9
	c0.1-0.4,0.2-0.8,0.5-1.1c0.2-0.3,0.5-0.5,0.8-0.5c0.2,0,0.3,0,0.5,0.1v-4h0c-0.9,0-1.7,0.6-2.4,1.8c-0.7,1.2-1,2.5-1,3.8
	c0,1.4,0.2,2.4,0.6,3c0.4,0.6,1,0.9,1.8,0.9h1.1V33.5z M210.8,44.2L210.8,44.2c0.8-0.7,0.5-0.4,0.8-0.7c1.3-1,2.2-1.6,2.8-1.8
	c1.2-0.8,0.5,0.1,1.2-0.8c0.3-0.2,1-0.4,1.9-1.1c1.1-1,1.6-0.9,1.7-1.1c1.9-1.8,4.2-3.4,3.7-3.5c-0.9-0.1-4-0.4-4.3-0.4
	c-0.9,0.2-2.1,1.4-6.4,4.3c-1.1,0.8-2.1,1.6-3.1,2.4c-1,0.8-2,1.8-2.9,2.8c-3.4,3.9-5.5,5.9-6.2,6.1c-0.6,0.2-1.2,0-1.8-0.5
	c-0.5-0.5-0.9-1-1-1.6c-0.3-1.3-0.3-2.7,0-4.2c0.3-1.3,0.7-2.7,1.4-3.9l-0.2-1c-1,1.3-1.6,2.9-2.1,4.8c-0.4,1.9-0.5,3.4-0.2,4.7
	c0.4,1.9,1,3.2,1.7,3.9c0.9,1.1,2.3,1.4,4.1,0.9c0.8-0.2,1.8-1.1,3-2.6c1.7-2.2,2.8-3.6,3.4-4.1c0.3-0.3,0.7-0.7,1.2-1.2
	C210,44.9,210.4,44.5,210.8,44.2L210.8,44.2z M29,42.8L29,42.8c0.9-5.6,1-5.8,0.9-5.6c-0.5,1-1.2,2.4-2.1,4.1
	c-0.7,0.9-1.5,1.6-2.6,2.1c-1,0.6-2,0.8-3.1,0.8c-0.1,0-0.4,0-0.8,0c-1,0-2-1.6-2.8-4.7c-0.9-3.1-1.6-4.7-2.2-4.7
	c-1,0-2.1,0.7-3.3,2.1c-1,1.1-1.7,2.3-2.2,3.4c-0.5,1.2-0.9,2.4-1.4,3.6c-0.9,2.2-1.7,3.3-2.6,3.3c-0.3,0-0.6-0.2-1.1-0.7
	c-0.6-0.6-1.1-1.4-1.6-2.5c-0.2-0.5-0.4-1.7-0.6-3.7c0-0.7-0.1-1.7-0.1-3H2.6c0.1,1.7,0.1,3.4,0.2,5.2c0.1,1.8,0.2,3,0.3,3.7
	c0.3,1.5,0.9,2.8,1.6,3.8c0.7,1,1.5,1.6,2.2,1.6c1.3,0,2.5-1.8,3.6-5.3c0.7-2.3,1.2-3.7,1.6-4.4c0.4-0.6,0.9-1.2,1.5-1.7
	c0.6-0.5,1.2-0.8,1.6-0.8c0.8,0,1.7,1.4,2.7,4.2c1,2.8,2,4.3,3.1,4.5c0.4,0.1,0.7,0.1,0.8,0.1c0.6,0,1.3-0.1,1.9-0.4
	c0.6-0.2,1.3-0.6,2-1c0.9-0.6,1.6-1.3,2.2-2.2C27.9,44.7,28.3,44,29,42.8L29,42.8z M194.9,45.1c0.7-1.5,0,0,0.7-1.5
	c0.3-0.7,0.2-1.7,0.2-2.7c0-1.7-0.4-3-1.1-4.1c-0.7-1.1-1.5-1.6-2.3-1.6l-0.1,0v4.2c0.3,0.1,0.6,0.3,0.8,0.5c0.5,0.4,0.8,1.1,1,2
	l0,0c-0.7-0.1-1.3-0.3-1.9-0.5v4.1c0.3,0.1,0.6,0.1,0.9,0.1c0.2,0,0.5,0,0.8-0.1C194.5,45.3,194.7,45.2,194.9,45.1L194.9,45.1z
	 M192.4,41.4L192.4,41.4c-0.7-0.4-1.3-0.7-1.9-1.1c0.1-0.1,0.3-0.3,0.6-0.6c0.2-0.2,0.4-0.3,0.6-0.3c0.2,0,0.4,0,0.7,0.1v-4.2
	c-1,0-2,1-3,2.8c-0.5,1-1.2,2.3-2,3.9c-0.7,0.8-1.5,1.5-2.4,2c-0.9,0.5-1.9,0.8-3,0.8c-0.1,0-0.4,0-0.8,0c-1,0-1.9-1.5-2.7-4.5
	c-0.8-3-1.5-4.5-2.1-4.5c-0.9,0-2,0.7-3.1,2c-1,1.1-1.6,2.2-2.1,3.3c-0.4,1.1-0.9,2.3-1.3,3.5c-0.8,2.1-1.7,3.2-2.5,3.2
	c-0.3,0-0.6-0.2-1-0.6c-0.5-0.6-1-1.4-1.5-2.4c-0.2-0.5-0.4-1.7-0.5-3.6c0-0.6-0.1-1.6-0.1-2.8h-0.8c0.1,1.6,0.1,3.2,0.2,4.9
	c0.1,1.7,0.2,2.9,0.3,3.5c0.3,1.4,0.8,2.7,1.5,3.6c0.7,1,1.4,1.5,2.1,1.5c1.2,0,2.3-1.7,3.4-5.1c0.7-2.2,1.2-3.6,1.5-4.2
	c0.4-0.6,0.8-1.2,1.4-1.7c0.6-0.5,1.1-0.7,1.5-0.7c0.8,0,1.6,1.3,2.6,4c0.9,2.7,1.9,4.1,2.9,4.2c0.4,0.1,0.6,0.1,0.8,0.1
	c0.6,0,1.2-0.1,1.8-0.4c0.6-0.2,1.2-0.6,1.9-1c0.9-0.6,1.6-1.3,2.1-2.1c0-0.1,0.4-0.7,1.1-1.9c0.2,0.1,0.8,0.6,1.8,1.3
	c0.7,0.4,1.4,0.7,2,0.9V41.4z M183.8,22.7L183.8,22.7c-1.3,0.7-0.9,3.1-1.6,4.9c3.8-2.4,7.9-6.4,16.7-4c-5,1.7-22.4,6.6-11.4,18.2
	l1.6-3.2c-10.2-5.7,9.1-16.9,19.7-14.7l0-2.3c-1.6-0.2-3.1,0.5-4.6,0.3C186.4,20.1,189.1,20.7,183.8,22.7L183.8,22.7z M123.7,40.8
	L123.7,40.8c0-0.1,0-0.3,0-0.4c0-0.2,0-0.4-0.1-0.5c-0.2,0.7-0.5,1-0.7,1c-0.1,0-0.3-0.1-0.3-0.3c-0.1-0.2-0.1-0.4-0.1-0.6
	c0-0.3,0.1-0.7,0.2-1.2c0.3-1,0.4-1.7,0.4-1.9c-0.3,0.5-0.6,1.1-0.9,1.8c-0.2,0.8-0.4,1.4-0.4,1.9c0,0.4,0.1,0.7,0.2,1
	c0.2,0.3,0.4,0.4,0.7,0.4c0.3,0,0.5-0.2,0.7-0.4C123.6,41.3,123.7,41,123.7,40.8L123.7,40.8z M136.1,40.2L136.1,40.2
	c0-0.1,0-0.2,0-0.4c0-0.2-0.1-0.4-0.2-0.5c-0.2,0.7-0.5,1-0.7,1c-0.1,0-0.3-0.1-0.3-0.3c-0.1-0.2-0.1-0.4-0.1-0.6
	c0-0.3,0.1-0.7,0.2-1.2c0.3-1,0.4-1.7,0.4-1.9c-0.3,0.5-0.6,1.1-0.9,1.8c-0.2,0.8-0.4,1.4-0.4,1.9c0,0.4,0.1,0.7,0.2,1
	c0.2,0.3,0.4,0.4,0.7,0.4c0.3,0,0.5-0.1,0.7-0.4C136.1,40.7,136.1,40.5,136.1,40.2L136.1,40.2z M146.4,38.5L146.4,38.5
	c0-0.1,0-0.3,0-0.4c0-0.2,0-0.4-0.1-0.5c-0.2,0.7-0.5,1-0.7,1c-0.1,0-0.3-0.1-0.3-0.3c-0.1-0.2-0.1-0.4-0.1-0.6
	c0-0.3,0.1-0.7,0.2-1.2c0.3-1,0.4-1.7,0.4-1.9c-0.3,0.5-0.6,1.1-0.9,1.8c-0.2,0.8-0.4,1.4-0.4,1.9c0,0.4,0.1,0.7,0.2,1
	c0.2,0.3,0.4,0.4,0.7,0.4c0.3,0,0.5-0.2,0.7-0.4C146.4,39,146.4,38.7,146.4,38.5L146.4,38.5z M146.7,12.1L146.7,12.1
	c-0.2,0.2-0.3,0.4-0.5,0.5c-0.3,0.3-0.4,0.5-0.5,0.5l-16.1,5.9c-0.2,0.1-0.5,0.4-0.9,0.9c-0.4,0.5-0.6,0.9-0.7,1.3
	c0.1,0,0.3-0.2,0.6-0.5c0.3-0.3,0.6-0.5,0.7-0.6l16.2-6c0.3-0.1,0.6-0.4,0.8-0.9C146.5,12.9,146.6,12.5,146.7,12.1L146.7,12.1z
	 M151.7,17.4L151.7,17.4l0-0.9c-0.1-0.2-0.3-0.4-0.4-0.5c-0.1-0.1-0.2-0.1-0.3-0.1c-0.4,0-0.7,0.5-1,1.4c-0.1,0.4-0.3,1.1-0.4,1.8
	c-0.6-1.2-0.9-1.8-1-1.9c-0.3-0.4-0.6-0.5-1-0.5c-0.4,0-0.6,0.2-0.6,0.7c0,0.3,0.1,0.6,0.4,0.8c0.2,0.2,0.5,0.3,0.8,0.2
	c0.3,0,0.5,0.1,0.7,0.5c0.2,0.3,0.4,0.8,0.5,1.5h0.3c0.3-1.4,0.5-2.4,0.7-2.9c0.1-0.3,0.3-0.5,0.5-0.5c0.1,0,0.2,0.1,0.2,0.2
	c0.1,0.1,0.1,0.2,0.2,0.4C151.4,17.5,151.5,17.5,151.7,17.4L151.7,17.4z M154.7,36.7L154.7,36.7c0-0.1,0-0.2,0-0.4
	c0-0.2-0.1-0.4-0.2-0.5c-0.2,0.7-0.5,1-0.7,1c-0.1,0-0.3-0.1-0.3-0.3c-0.1-0.2-0.1-0.4-0.1-0.6c0-0.3,0.1-0.7,0.2-1.2
	c0.3-1,0.4-1.7,0.4-1.9c-0.3,0.5-0.6,1.1-0.9,1.8c-0.2,0.8-0.4,1.4-0.4,1.9c0,0.4,0.1,0.7,0.2,1c0.2,0.3,0.4,0.4,0.7,0.4
	c0.3,0,0.5-0.2,0.7-0.4C154.6,37.2,154.7,36.9,154.7,36.7L154.7,36.7z M127.6,13.6L127.6,13.6c0-0.1,0-0.3,0-0.4
	c0-0.1,0-0.2-0.1-0.3h-2.8c-0.2,0-0.4,0.1-0.6,0.3c0,0-0.1,0.2-0.4,0.6v0.6c0.2-0.1,0.3-0.3,0.5-0.4c0,0,0.1,0,0.2,0h2.3
	c-0.5,0.5-1.3,1-2.2,1.5c-0.3,0.2-0.7,0.3-1.2,0.5h1c1.1-0.4,1.7-0.6,1.8-0.7C127.1,14.9,127.6,14.3,127.6,13.6L127.6,13.6z
	 M152.4,43.1L152.4,43.1c0-1.7-0.2-3.4-0.6-4.9c-0.2-0.7-0.5-1.5-0.8-2.4c-0.7-1.9-1.1-2.9-1.2-3.1c-0.1-0.3-0.2-0.6-0.3-0.9
	c-0.1-0.3-0.1-0.5-0.1-0.7l1.7,1.5v-1.1l-3.6-6.8l-0.9,3.9l1,3.2c0.1,0.9,0.2,1.6,0.3,2.1c0.3,1.6,0.6,3.1,1,4.4
	c0.7,2.3,1.4,4.2,2.2,5.9c-0.3,0.6-0.7,1.1-1.3,1.4c-0.6,0.4-1.3,0.7-2.1,0.8c-0.2,0-0.4,0.1-0.6,0.1c-1.1,0-2.2-0.7-3.1-2.1
	c-0.7-1-1.3-2.2-1.7-3.4c-0.3-1-0.7-2.9-1-5.6c-0.1-0.9-0.3-2.2-0.5-3.8c-0.2-1-0.4-1.9-0.7-2.7c-0.3-0.8-0.8-1.7-1.4-2.4l-0.6,4
	l1.6,9.5c0,0.1,0,0.2,0.1,0.4c0,0.2,0,0.4,0,0.6c0,0.7-0.1,1.5-0.4,2.3c-0.2,0.6-0.5,1.3-0.9,1.9c-0.5,0.8-1,1.5-1.6,1.9
	c-0.7,0.5-1.5,0.8-2.3,0.8c-0.2,0-0.3,0-0.5,0c-1.4-0.2-2.4-0.9-3.1-2.1c-0.3-0.6-0.6-1.3-0.8-2c-0.2-0.7-0.3-1.4-0.3-2.1
	c0-0.4,0.1-1.5,0.3-3c0.1-1.1,0.3-2.3,0.5-3.8c0.1-0.6,0.2-1.2,0.3-1.9l0-3.8c-2,0.8-3.5,2.9-4.5,6.2c-0.3,1.1-0.9,3.9-1.7,8.5
	c-0.5,2.8-1.1,4.2-1.9,4.2c-1.1,0-2-0.7-2.6-2.2c-0.5-1.1-0.8-2.7-1-4.7c-0.1-1.2-0.2-2.6-0.2-4.3c0-0.3,0-0.5,0-0.7
	c0-0.2,0-0.3,0-0.5l-0.6,0.1c-0.1,0.9-0.1,1.6-0.2,2.1c-0.1,1.6-0.2,2.9-0.2,3.9c0,2.4,0.4,4.7,1.3,6.8c0.9,2.1,1.9,3.1,3,3.1
	c0.9,0,1.6-0.6,2.2-1.9c0.3-0.6,0.6-1.4,0.9-2.6c0.2-0.6,0.4-2.1,0.8-4.5c0.3-2.4,0.7-4.1,0.9-5.3c0.5-1.8,1-3,1.7-3.6
	c0,0.1,0,0.2,0.1,0.5c0,0.3,0,0.5,0,0.8c0,0.8-0.2,2.4-0.6,4.8c-0.2,1-0.3,1.8-0.3,2.3c0,1.1,0.1,2.1,0.2,3c0.1,1,0.3,1.8,0.6,2.6
	c0.4,1.1,1,2,1.7,2.7c0.8,0.7,1.7,1.2,2.8,1.3c0.1,0,0.2,0,0.4,0c1,0,1.9-0.3,2.9-1c0.8-0.6,1.4-1.3,2-2.1c0.5-0.8,0.9-1.8,1.2-2.9
	c0.2-0.9,0.4-1.8,0.5-2.7c0.1,0.3,0.3,1,0.5,2c0.3,1.1,0.8,1.9,1.3,2.6c0.5,0.7,1.2,1.3,2,1.7c0.9,0.5,1.8,0.8,2.7,0.8
	c0.9,0,1.7-0.3,2.4-0.8c0.6-0.4,1.2-1.1,1.6-1.9c0.4-0.7,0.7-1.4,0.9-2.2C152.3,44.7,152.4,43.9,152.4,43.1L152.4,43.1z M142.4,22
	L142.4,22c0-0.8-0.1-1.5-0.2-2.1c-0.1-0.6-0.4-1.3-0.7-2l-0.7,1.7c0.2,0.4,0.3,0.6,0.4,0.8c0.2,0.6,0.3,1.1,0.3,1.5
	c0,0.3-0.1,0.6-0.2,0.8c-0.1,0.2-0.3,0.4-0.5,0.4c-0.1,0-0.2,0-0.2,0c-0.3,0-0.5-0.2-0.7-0.5c-0.1-0.2-0.3-0.5-0.4-0.8
	c-0.1-0.7-0.2-1.4-0.3-2.2c-0.1-0.6-0.3-1.2-0.6-1.6l-0.7,1.5c0.1,0.2,0.2,0.6,0.4,1.2c0.2,0.6,0.2,1.1,0.2,1.4c0,0.4-0.2,0.7-0.5,1
	c-0.3,0.3-0.8,0.4-1.3,0.4c-0.3,0-0.5-0.2-0.6-0.5c-0.1-0.3-0.2-0.8-0.2-1.4c0-0.6,0.1-1.3,0.2-2c0-0.3,0.1-0.6,0.2-1
	c-0.5,0.3-1,0.9-1.4,1.6c-0.2,0.4-0.4,0.9-0.7,1.5l0.1,0.5l1-1.7c0,0.1,0,0.4,0,0.8c0,0.4,0,0.8,0,1.1c0,0.8,0.1,1.4,0.3,1.8
	c0.2,0.5,0.6,0.8,1.1,0.8c0.1,0,0.1,0,0.2,0c0.6,0,1.1-0.2,1.4-0.6c0.3-0.3,0.5-0.8,0.7-1.5c0.2,0.5,0.4,0.9,0.6,1.2
	c0.2,0.3,0.5,0.4,0.9,0.4h0.2c0.4,0,0.8-0.1,1-0.4C142.1,23.8,142.4,23,142.4,22L142.4,22z M159.2,43.9L159.2,43.9l-0.9-7.1
	l-3.2-21.8l-0.1-1.6l2.1,2.2v-1.4l-4.3-9.1L152,9.3c0.2,0.6,0.3,1.1,0.4,1.4c0.3,1,0.5,1.7,0.5,2.3l1.7,11.4l3,21.2
	c0.2,1.1,0.3,2.2,0.3,3.3c0.1,1.1,0.1,2.2,0.1,3.3c0.4-0.7,0.7-1.6,0.9-2.6c0.2-1.1,0.3-2.2,0.3-3.4
	C159.3,45.4,159.3,44.6,159.2,43.9L159.2,43.9z M138.7,9.7L138.7,9.7c-0.1-0.7-0.4-1.5-0.8-2.2c-0.5-0.8-1.3-1.5-2.3-2.1l0,1.9
	c0.4,0.3,0.6,0.5,0.8,0.7c0.6,0.6,1,1.2,1.1,1.9c0.1,0.4,0.2,0.8,0.2,1.1c0,0.4,0.1,0.8,0.1,1.1c0,0.3,0,0.8-0.1,1.6
	c-0.1,0.7-0.1,1.2-0.1,1.2c0.3-0.6,0.6-1.2,0.8-1.9c0.2-0.7,0.3-1.4,0.3-2.2C138.8,10.5,138.8,10.1,138.7,9.7L138.7,9.7z
	 M117.9,37.6c-0.3-2,0-2.3-0.5-4c-0.5-1.7-1.2-3.1-2.2-4.1c-0.8-0.9-1.7-1.3-2.6-1.4v4c0.2,0.1,0.5,0.2,0.8,0.4
	c0.5,0.3,0.8,0.7,1.1,1.2l0,0h-1.9v4h3.5c0.2,0.2,0.3,0.5,0.5,1.1c0.1,0.2,0.1,0.4,0.3,0.8c-0.9,1.4-2,2.6-3.1,3.6
	c-0.4,0.3-0.7,0.7-1.1,1V48l0.4-0.3c1.6-1.4,2.7-2.7,3.5-3.8c0.5-0.8,1-1.7,1.2-2.8c0.1-0.2,0.1-0.8,0.2-1.8
	C117.8,38.4,117.9,37.8,117.9,37.6L117.9,37.6z M112.6,48v-3.9c-0.7,0.5-1.4,1.1-2.2,1.5c-1.4,1-2.7,1.7-4,2.2
	c-1.3,0.5-2.3,0.7-3.3,0.7c-1.5,0-2.7-0.5-3.7-1.4c-1.1-1.1-1.6-2.4-1.6-3.9c0-0.4,0.1-1.3,0.2-2.9c0-0.5,0.1-1.3,0.2-2.3l-0.8,0
	c-0.2,1-0.3,1.8-0.3,2.3c-0.2,1.6-0.3,2.8-0.3,3.6c0,2.3,0.5,4.2,1.4,5.8c1.1,1.9,2.7,2.9,4.9,2.9c1.8,0,3.5-0.5,5.3-1.4
	C109.5,50.5,111,49.5,112.6,48L112.6,48z M112.6,33.7h-1.9c0.1-0.4,0.2-0.8,0.5-1.1c0.2-0.3,0.5-0.5,0.8-0.5c0.2,0,0.3,0,0.5,0.1v-4
	l0,0c-0.9,0-1.7,0.6-2.4,1.8c-0.7,1.2-1,2.5-1,3.8c0,1.4,0.2,2.4,0.6,3c0.4,0.6,1,0.9,1.8,0.9h1.1V33.7z M226.7,5.4L226.7,5.4
	l-1.9,1.9c-1.5,1.3-3.4,2.3-5.8,3.2c-0.5,0.2-2.5,0.8-6,1.8c-2.1,0.6-3.6,1.2-4.3,1.8c-0.5,0.4-0.9,1.1-1.3,2.2
	c-0.1,0.3-0.2,0.8-0.3,1.4c0.5-0.2,0.9-0.3,1.2-0.4c0.8-0.4,1.4-0.8,1.7-1.2l0.4-0.8c2.7-0.8,5.4-1.7,8.2-2.6c2.8-1,4.7-2.1,5.7-3
	c0.6-0.6,1.2-1.5,1.8-2.8C226.1,6.7,226.4,6.2,226.7,5.4L226.7,5.4z M246,5.9L246,5.9l-1.9,1.9c-1.5,1.3-3.4,2.3-5.8,3.2
	c-0.5,0.2-2.5,0.8-6,1.8c-2.1,0.6-3.6,1.2-4.3,1.8c-0.5,0.4-1,1.1-1.3,2.2c-0.1,0.3-0.2,0.8-0.3,1.4c0.5-0.2,0.9-0.3,1.2-0.4
	c0.8-0.4,1.4-0.8,1.7-1.2l0.4-0.8c2.7-0.8,5.4-1.7,8.2-2.6c2.8-1,4.7-2.1,5.7-3c0.6-0.6,1.2-1.5,1.8-2.8
	C245.4,7.2,245.7,6.6,246,5.9L246,5.9z M241.1,19.5L241.1,19.5c-0.3,0.2-0.5,0.4-0.7,0.8c-0.2,0.3-0.3,0.7-0.3,1.1
	c0,0.6,0.2,0.9,0.6,1c0.2,0.1,0.4,0,0.7-0.1c0.3-0.1,0.5-0.2,0.6-0.2c0.8,0,1.4,0.9,1.7,2.6c0,0.3,0.1,0.7,0.1,1.2h0.6
	c0.3-1,0.5-1.8,0.6-2.3c0.5-1.6,0.9-2.7,1.3-3.3c0.2-0.2,0.3-0.4,0.6-0.4c0.2,0,0.3,0.1,0.6,0.4c0.1,0.1,0.1,0.2,0.3,0.4
	c0.4-0.6,0.6-1.3,0.6-2.2c0-0.4,0-0.7-0.1-0.9c-0.2-0.5-0.4-0.7-0.6-0.7c-0.5,0-1.2,1.2-2.2,3.6c-0.3,0.8-0.7,2-1.2,3.6
	c-0.2-1.5-0.4-2.5-0.7-3.2c-0.4-1.2-1-1.8-1.7-1.8c-0.1,0-0.2,0.1-0.4,0.1C241.4,19.4,241.2,19.4,241.1,19.5L241.1,19.5z
	 M251.9,35.1L251.9,35.1c-0.1,0.4-0.2,0.7-0.3,0.8c-0.3,0.5-0.6,0.8-1,0.8c-0.2,0-0.3-0.1-0.4-0.4c-0.1-0.2-0.1-0.4-0.1-0.6
	c0-0.5,0.3-1.5,0.8-3c0.2-0.5,0.4-1.2,0.8-2.1c-0.4,0.6-0.9,1.5-1.5,2.8c-0.6,1.4-1,2.3-1,2.8c0,1.2,0.4,1.9,1.3,1.9
	c0.3,0,0.6-0.1,0.8-0.3c0.2-0.2,0.4-0.5,0.5-0.9c0.1-0.2,0.1-0.4,0.2-0.7C251.9,35.8,251.9,35.4,251.9,35.1L251.9,35.1z M242.1,27.7
	L242.1,27.7l1.3,0.2c-0.6,0.3-0.9,0.4-1,0.5c-0.1,0.1-0.4,0.2-0.7,0.5c-0.4,0.2-0.6,0.7-0.8,1.5c0,0.2-0.1,0.5-0.1,1
	c0.8,2.3,1.5,4.8,2,7.5c0.2,1,0.3,2.2,0.5,3.7l0.3-4.2c-0.2-1.3-0.4-2.4-0.5-3.1c-0.4-2.2-0.8-3.8-1.1-4.8c1.1-0.7,2.5-1,4.2-1
	l0.8-1.5c-0.6-0.5-1-0.8-1.3-1c-1-0.7-1.7-1-2.2-1c-0.4,0.2-0.7,0.6-1.1,1.1C242.4,27.2,242.2,27.4,242.1,27.7L242.1,27.7z
	 M200.2,16.7L200.2,16.7c-0.1,0.4-0.2,0.6-0.3,0.8c-0.3,0.5-0.6,0.7-1,0.7c-0.1,0-0.3-0.1-0.3-0.3c-0.1-0.2-0.1-0.4-0.1-0.6
	c0-0.4,0.2-1.4,0.7-2.8c0.1-0.4,0.4-1.1,0.7-2c-0.4,0.5-0.8,1.4-1.4,2.6c-0.6,1.3-0.9,2.1-0.9,2.5c0,1.1,0.4,1.7,1.2,1.7
	c0.3,0,0.6-0.1,0.7-0.3c0.2-0.2,0.3-0.5,0.5-0.9c0.1-0.2,0.1-0.4,0.1-0.7C200.2,17.2,200.2,17,200.2,16.7L200.2,16.7z M122.2,6.1
	L122.2,6.1l-2.3,2.3c-1.8,1.5-4.1,2.8-7,3.9c-0.6,0.2-3.1,0.9-7.3,2.2c-2.6,0.7-4.3,1.5-5.2,2.2c-0.6,0.5-1.2,1.4-1.6,2.7
	c-0.1,0.4-0.2,1-0.4,1.7c0.6-0.2,1.1-0.4,1.4-0.5c1-0.4,1.7-0.9,2-1.4l0.4-1c3.3-1,6.6-2,9.9-3.1c3.4-1.3,5.7-2.5,6.9-3.6
	c0.7-0.7,1.4-1.8,2.2-3.4C121.6,7.6,121.9,6.9,122.2,6.1L122.2,6.1z M170.7,16.5c-0.3-0.1-0.5-0.2-0.7-0.2c-0.2-0.1-0.3-0.1-0.3-0.2
	c0.1-0.2,0.1-0.4,0.2-0.6c0-0.3,0.1-0.7,0.1-1.3c0-0.7-0.1-1.3-0.3-1.7c-0.2-0.4-0.6-0.7-1.1-0.7c-0.2,0-0.3,0-0.5,0.1v1.9
	c0,0,0.1,0,0.1,0c0.4,0,0.6,0.4,0.6,1.1v0.6l0,0c-0.2-0.2-0.5-0.3-0.7-0.5V17l0.3,0.1c-0.1,0.1-0.2,0.2-0.3,0.4v2l0.1-0.2
	c0.3-0.5,0.6-1.2,0.8-1.8c0.5,0.3,0.8,0.4,1,0.4C170.2,17.9,170.5,17.5,170.7,16.5L170.7,16.5z M168,19.5v-2
	c-1.9,2.4-4.3,4.2-7.2,5.6c-0.5,0.2-1.1,0.5-1.9,0.8l0.9,0.2c1.3-0.2,2.7-0.6,4.1-1.2c1.1-0.4,1.8-0.9,2.4-1.3
	C166.9,21,167.5,20.3,168,19.5L168,19.5z M168,14.9l-0.7-0.5c0.2-0.4,0.4-0.7,0.7-0.7v-1.9c-0.5,0.1-1,0.5-1.4,1
	c-0.5,0.7-0.8,1.3-0.8,1.9c0,0.7,0.3,1.2,0.8,1.6c0.4,0.2,0.9,0.5,1.4,0.7V14.9z M91.5,40.3L91.5,40.3c0-1.5-0.2-2.7-0.7-3.6
	c-0.6-0.9-1.2-1.9-1.8-2.8c0.2,0,0.5,0,1.1,0.1c0.2,0,0.4,0.1,0.7,0.2v-0.6l-3.4-3.5H87c-0.1,0.5-0.2,0.9-0.3,1.2
	c-0.2,0.8-0.2,1.3-0.2,1.5l0.7,2c0.2,0.7,1,2.2,2.3,4.3c0.5,0.9,0.8,1.4,0.8,1.7c0,0.3-0.5,1-1.5,2.1c-1.2,1.3-2.7,2.6-4.4,3.8
	c-1,0.7-1.8,1.1-2.5,1.4c-1.3,0.5-2.6,0.8-3.9,0.8c-1.4,0-2.5-0.5-3.5-1.5c-1-1-1.5-2.2-1.5-3.6c0-0.5,0-1,0.1-1.3
	c0-0.3,0.1-0.6,0.2-0.9v-1.2c-0.4,0.6-0.6,1.3-0.8,2.1c-0.2,0.8-0.2,1.7-0.2,2.6c0,2.2,0.4,3.9,1.3,5.3c1,1.7,2.5,2.5,4.5,2.5
	c1.6,0,3.2-0.4,4.7-1.1c1.1-0.5,2.4-1.5,3.9-2.8c1.9-1.6,3.1-3,3.8-4.1C91.1,43.6,91.5,42.1,91.5,40.3L91.5,40.3z M96.4,46.9
	L96.4,46.9l-3-3.2l-2.7,2.8l3.1,3.2L96.4,46.9L96.4,46.9z M70.2,47.6c0-0.1,0.1-0.3,0.1-0.5c0.1-0.6,0-1.1-0.2-1.6
	c-0.2-0.5-0.4-0.9-0.7-1.3c-0.8-1.1-1.8-1.8-2.9-2.3c-0.8-0.3-1.8-0.6-3.1-0.7c-1.8-0.1,0,0-1.8-0.1l-5.4,0.1c-2.4,0.1,0,0-1.9,0
	l-13.1,0.2c-1.8-0.2-3.1-0.5-3.8-0.8c-0.5-0.3-0.7-0.5-0.7-0.9c0-0.3,0.5-0.9,1.4-1.7c1.2-1,2.8-2,4.8-3.1c1.5-0.8,2.9-1.4,4.1-1.9
	c1.2-0.4,2.1-0.6,2.5-0.6c0.3,0,0.4,0.2,0.5,0.4c0.1,0.2,0.1,0.6,0,1.1c0,0.3-0.1,0.7-0.2,1.1c-0.1,0.4-0.2,0.7-0.2,0.9
	c0.5-0.7,0.9-1.2,1.2-1.6c0.8-1.2,1.3-2.1,1.3-2.8c0.1-0.6,0-1.1-0.3-1.5c-0.2-0.4-0.6-0.6-1.2-0.7c-0.9-0.1-2.5,0.3-4.6,1.2
	c-1.4,0.6-2.9,1.3-4.4,2.2c-2.3,1.4-3.9,2.8-4.9,4.4c-0.7,1-1.1,2.2-1.2,3.5c-0.1,1.1,0.1,1.9,0.5,2.4c0.5,0.5,1.3,0.9,2.6,1
	c0.5,0,1.1,0.1,1.7,0.1l13.8-0.4c0.4,0,0.9,0,1.3,0c2.5,0,5-0.1,7.4,0.1c1.2,0.1,2.3,0.7,3.3,1.4c0.7,0.5,1.7,1.8,1.8,2.8
	c-1.4,0.4-3.1,0.1-4.5,0L54.5,48l-6.7,0.1c-2.1,0-4.1,0-6.2,0.1c-2.1,0-3.9,0-5.4-0.2c-2.1-0.5-3.3-2.1-3.4-5.1
	c-0.1-2.1-4.1-18.9-0.9,4.7c0.3,2.2,1.9,3.4,4.2,3.7c0.4,0,1,0.1,1.5,0c0.9-0.1,1.6-0.1,2.1-0.1c2.2-0.1,4.8-0.2,7.8-0.2l7.3-0.1
	c1.9-0.1,0,0,1.9-0.1l5.1,0.2c1.8,0-1.5-0.1,1.8,0c0.6,0,1.1,0,1.4,0c0.9-0.1,1.8-0.1,2.8-0.2L70.2,47.6L70.2,47.6z M46.9,39.4
	L46.9,39.4l0-0.4c0-0.3,0-0.5-0.1-0.6c-0.3,0.7-0.6,1-0.8,1c-0.2,0-0.3-0.1-0.3-0.4c-0.1-0.2-0.1-0.4-0.1-0.6c0-0.3,0.1-0.7,0.3-1.2
	c0.4-1.1,0.6-1.7,0.6-1.9c-0.4,0.4-0.7,1-1.1,1.8c-0.3,0.8-0.5,1.4-0.6,1.9c0,0.4,0,0.7,0.2,1.1c0.2,0.3,0.4,0.5,0.7,0.5
	c0.3,0,0.5-0.1,0.8-0.4C46.8,39.9,46.9,39.6,46.9,39.4L46.9,39.4z M275.3,55.1L275.3,55.1l2.6,1.9l1.8-2.8l-2.9-2.1l-1.9,2.8
	l-2.5-1.9l-1.8,2.8l2.9,2.2L275.3,55.1L275.3,55.1z M170.5,30.5L170.5,30.5l1.8-2.6l-2.6-1.8l-2,2.9l2.6,1.9l-1.8,2.5l2.6,1.8
	l2.1-2.9L170.5,30.5L170.5,30.5z M4.3,36.2L4.3,36.2C4.2,36.6,4.1,36.9,4,37c-0.3,0.6-0.6,0.8-1.1,0.8c-0.2,0-0.3-0.1-0.4-0.4
	c-0.1-0.2-0.1-0.4-0.1-0.6c0-0.5,0.3-1.5,0.8-3.2c0.2-0.5,0.4-1.3,0.8-2.2c-0.4,0.6-0.9,1.6-1.5,2.9c-0.6,1.5-1,2.4-1,2.9
	c0,1.3,0.4,2,1.3,2c0.3,0,0.6-0.1,0.8-0.3c0.2-0.2,0.4-0.6,0.5-1c0.1-0.2,0.1-0.4,0.2-0.8C4.3,36.8,4.3,36.5,4.3,36.2L4.3,36.2z
	 M0.8,26.6L0.8,26.6c-0.2,0.1-0.5,0.4-0.6,0.7C0.1,27.6,0,28,0,28.4c0,0.5,0.2,0.8,0.5,0.9c0.2,0.1,0.4,0,0.6-0.1
	c0.2-0.1,0.4-0.1,0.5-0.1c0.7,0,1.2,0.8,1.5,2.4c0,0.3,0.1,0.6,0.1,1.1h0.5c0.2-0.9,0.4-1.6,0.5-2.1c0.4-1.5,0.8-2.5,1.1-3
	c0.1-0.2,0.3-0.3,0.5-0.3c0.1,0,0.3,0.1,0.5,0.4c0,0.1,0.1,0.2,0.2,0.3c0.3-0.5,0.5-1.2,0.5-2c0-0.4,0-0.6-0.1-0.8
	c-0.1-0.4-0.3-0.7-0.5-0.7c-0.4,0-1.1,1.1-1.9,3.3c-0.2,0.7-0.6,1.8-1,3.2c-0.2-1.3-0.4-2.3-0.6-2.9c-0.4-1.1-0.9-1.6-1.5-1.6
	c-0.1,0-0.2,0-0.3,0C1.1,26.5,1,26.5,0.8,26.6L0.8,26.6z M128.1,24.5c0-0.5-0.3-1-0.8-1.5c-0.1-0.1-0.2-0.2-0.3-0.2v1.1
	c0.1,0.1,0.2,0.1,0.2,0.2c0,0.1,0.1,0.2,0.2,0.6l0,0l-0.4,0v0.9c0.1,0,0.2,0,0.2,0c0.2,0,0.4-0.1,0.6-0.2
	C128,25.2,128.1,24.9,128.1,24.5L128.1,24.5z M127,24.7l-0.4,0c0-0.3,0.1-0.6,0.1-0.9c0.1,0.1,0.2,0.1,0.3,0.2v-1.1
	c-0.3-0.3-0.7-0.4-1-0.4c-0.1,0-0.1,0-0.2,0v1.2l0.1-0.1c0.2,0.1,0.2,0.3,0.2,0.5c0,0.1,0,0.2,0,0.4l0,0l-0.3-0.1v1.7
	c0.2-0.2,0.4-0.4,0.5-0.6c0,0,0.1,0,0.4,0c0.1,0,0.2,0,0.3,0.1V24.7z M125.8,24.3l-0.4-0.2c0.1-0.2,0.2-0.3,0.2-0.4
	c0,0,0.1-0.1,0.1-0.1v-1.2c-0.1,0-0.3,0.1-0.4,0.1c-0.2,0.1-0.2,0.2-0.2,0.3c0.1,0.1,0,0.3-0.1,0.7c-0.1,0.3-0.2,0.6-0.2,0.9
	c0,0.4,0,0.6,0.1,0.6c0.1,0.1,0.3,0.2,0.7,0.3c-0.6,0.6-1.6,1.2-2.8,2c-1.2,0.7-2.1,1.1-2.7,1.2c0.1,0.1,0.1,0.1,0.2,0.1
	c0,0,0.2,0,0.4-0.1c0.6,0,1.4-0.2,2.4-0.7c0.8-0.4,1.3-0.7,1.7-0.9c0.4-0.3,0.7-0.5,0.9-0.8l0.1-0.1V24.3z M285.8,10.8L285.8,10.8
	l0.4,2.5c0.2,1.9,0.3,4.1,0.1,6.6c0,0.5-0.2,2.6-0.6,6.2c-0.2,2.2-0.3,3.7-0.2,4.6c0.1,0.7,0.3,1.4,0.7,2.2c0.1,0.2,0.3,0.5,0.6,0.9
	c0-0.6,0.1-1,0.1-1.2c0-0.9,0-1.6-0.1-2l-0.3-0.7c0.2-2.8,0.5-5.6,0.7-8.4c0.2-2.9,0.1-5.1,0-6.4c-0.1-0.7-0.4-1.7-0.8-2.9
	C286.3,11.8,286.1,11.4,285.8,10.8L285.8,10.8z M273.8,36.7L273.8,36.7c-0.1,0.4-0.2,0.6-0.3,0.8c-0.3,0.5-0.6,0.7-1,0.7
	c-0.2,0-0.3-0.1-0.3-0.3c-0.1-0.2-0.1-0.4-0.1-0.6c0-0.4,0.2-1.3,0.7-2.8c0.1-0.5,0.4-1.1,0.7-2c-0.4,0.5-0.8,1.4-1.4,2.6
	c-0.6,1.3-0.9,2.1-0.9,2.5c0,1.1,0.4,1.7,1.2,1.7c0.3,0,0.6-0.1,0.7-0.3c0.2-0.2,0.4-0.5,0.5-0.9c0.1-0.2,0.1-0.4,0.1-0.7
	C273.8,37.3,273.8,37,273.8,36.7L273.8,36.7z M265,13.5c-0.3-0.1-0.5-0.2-0.7-0.2c-0.2-0.1-0.3-0.1-0.3-0.3c0.1-0.1,0.1-0.4,0.2-0.6
	c0-0.3,0.1-0.7,0.1-1.3c0-0.7-0.1-1.3-0.3-1.7c-0.2-0.4-0.6-0.7-1.1-0.7c-0.2,0-0.3,0-0.5,0.1v1.9c0,0,0.1,0,0.1,0
	c0.4,0,0.6,0.4,0.6,1.1v0.6l0,0c-0.2-0.2-0.5-0.3-0.7-0.5v2.2l0.3,0.1l-0.3,0.4v2l0.1-0.2c0.3-0.5,0.6-1.2,0.8-1.8
	c0.5,0.3,0.8,0.4,1,0.4C264.5,15,264.8,14.5,265,13.5L265,13.5z M262.3,16.6v-2c-1.9,2.4-4.3,4.2-7.2,5.6c-0.5,0.2-1.1,0.5-1.9,0.8
	l0.9,0.2c1.3-0.2,2.7-0.6,4.1-1.2c1.1-0.4,1.8-0.9,2.4-1.3C261.2,18.1,261.8,17.4,262.3,16.6L262.3,16.6z M262.3,12
	c-0.2-0.2-0.5-0.3-0.7-0.5c0.2-0.4,0.4-0.7,0.7-0.7V8.9c-0.5,0.1-1,0.5-1.4,1c-0.5,0.7-0.8,1.3-0.8,1.9c0,0.7,0.3,1.2,0.8,1.6
	c0.4,0.2,0.9,0.5,1.4,0.7V12z M194.9,8.4L194.9,8.4l-2.3,2.3c-1.8,1.5-4.1,2.8-7,3.9c-0.6,0.2-3.1,0.9-7.3,2.2
	c-2.6,0.7-4.3,1.5-5.2,2.2c-0.6,0.5-1.2,1.4-1.6,2.7c-0.1,0.4-0.2,1-0.4,1.7c0.6-0.2,1.1-0.4,1.4-0.5c1-0.4,1.7-0.9,2-1.4l0.4-1
	c3.3-1,6.6-2,9.9-3.1c3.3-1.3,5.7-2.5,6.9-3.6c0.7-0.7,1.4-1.8,2.2-3.4C194.3,10,194.6,9.3,194.9,8.4L194.9,8.4z M210.9,34.4
	L210.9,34.4c-0.1,0.4-0.2,0.6-0.3,0.8c-0.3,0.5-0.6,0.7-1,0.7c-0.1,0-0.3-0.1-0.3-0.3c-0.1-0.2-0.1-0.4-0.1-0.6
	c0-0.4,0.2-1.3,0.7-2.8c0.1-0.5,0.4-1.1,0.7-2c-0.4,0.5-0.8,1.4-1.4,2.6c-0.6,1.3-0.9,2.1-0.9,2.5c0,1.1,0.4,1.7,1.2,1.7
	c0.3,0,0.6-0.1,0.7-0.3c0.2-0.2,0.3-0.5,0.5-0.9c0.1-0.2,0.1-0.4,0.2-0.7C210.8,35,210.9,34.7,210.9,34.4L210.9,34.4z M101.6,7.2
	L101.6,7.2l-2.3,2.3c-1.8,1.5-4.1,2.8-7,3.9c-0.6,0.2-3.1,0.9-7.3,2.2c-2.6,0.7-4.3,1.5-5.2,2.2c-0.6,0.5-1.2,1.4-1.6,2.7
	c-0.1,0.4-0.2,1-0.4,1.7c0.6-0.2,1.1-0.4,1.4-0.5c1-0.4,1.7-0.9,2-1.4l0.4-1c3.3-1,6.6-2,9.9-3.1c3.4-1.3,5.7-2.5,6.9-3.6
	c0.7-0.7,1.4-1.8,2.2-3.4C100.9,8.8,101.2,8.1,101.6,7.2L101.6,7.2z M61.2,12.7L61.2,12.7l-2.3,2.4c-1.8,1.6-4.1,3-7,4.1
	c-0.6,0.2-3.1,1-7.3,2.3c-2.6,0.8-4.3,1.5-5.2,2.3c-0.6,0.5-1.2,1.4-1.6,2.8c-0.1,0.4-0.2,1-0.4,1.8c0.6-0.2,1.1-0.4,1.4-0.5
	c1-0.5,1.7-1,2-1.5l0.4-1c3.3-1.1,6.6-2.1,9.9-3.2c3.4-1.3,5.7-2.6,6.9-3.8c0.7-0.7,1.4-1.9,2.2-3.5C60.5,14.3,60.8,13.6,61.2,12.7
	L61.2,12.7z M60,32L60,32c-0.1-0.8-0.4-1.5-0.8-2.3c-0.5-0.8-1.3-1.6-2.2-2.2l0,2c0.4,0.3,0.6,0.6,0.8,0.8c0.6,0.6,1,1.3,1.1,1.9
	c0.1,0.4,0.2,0.8,0.2,1.2c0,0.4,0.1,0.8,0.1,1.2c0,0.3,0,0.9-0.1,1.6C59,36.9,59,37.3,59,37.4c0.3-0.6,0.6-1.3,0.8-2
	c0.2-0.7,0.3-1.5,0.3-2.3C60,32.7,60,32.3,60,32L60,32z M76.3,34.3L76.3,34.3c-0.1,0.4-0.2,0.6-0.3,0.8c-0.3,0.5-0.6,0.7-1,0.7
	c-0.1,0-0.3-0.1-0.3-0.3c-0.1-0.2-0.1-0.4-0.1-0.6c0-0.4,0.2-1.4,0.7-2.8c0.1-0.5,0.4-1.1,0.7-2c-0.4,0.5-0.8,1.4-1.4,2.6
	c-0.6,1.3-0.9,2.1-0.9,2.5c0,1.1,0.4,1.7,1.2,1.7c0.3,0,0.6-0.1,0.7-0.3c0.2-0.2,0.3-0.5,0.5-0.9c0.1-0.2,0.1-0.4,0.1-0.7
	C76.3,34.9,76.3,34.6,76.3,34.3L76.3,34.3z M25.8,20.3c-0.3-0.1-0.5-0.2-0.7-0.3c-0.2-0.1-0.3-0.1-0.3-0.3c0.1-0.2,0.1-0.4,0.2-0.6
	c0-0.3,0.1-0.7,0.1-1.3c0-0.7-0.1-1.3-0.3-1.8c-0.2-0.4-0.6-0.7-1.1-0.7c-0.2,0-0.3,0-0.5,0.1v2c0,0,0.1,0,0.1,0
	c0.4,0,0.6,0.4,0.6,1.2v0.6l0,0c-0.2-0.2-0.5-0.4-0.7-0.5v2.3l0.3,0.2L23,21.4v2.1l0.1-0.2c0.3-0.6,0.6-1.2,0.8-1.9
	c0.5,0.3,0.8,0.4,1,0.4C25.3,21.8,25.6,21.3,25.8,20.3L25.8,20.3z M23,23.5v-2.1c-1.9,2.5-4.3,4.4-7.2,5.9c-0.5,0.2-1.1,0.5-1.9,0.8
	l0.9,0.2c1.3-0.2,2.7-0.6,4.1-1.2c1.1-0.5,1.9-0.9,2.4-1.4C21.9,25,22.5,24.3,23,23.5L23,23.5z M23,18.6l-0.7-0.5
	c0.2-0.5,0.4-0.7,0.7-0.7v-2c-0.5,0.1-1,0.5-1.4,1.1c-0.5,0.7-0.8,1.4-0.8,2c0,0.7,0.3,1.3,0.8,1.7c0.5,0.3,0.9,0.5,1.4,0.8V18.6z
	 M29.1,50.4L29.1,50.4l0-0.4c0-0.3,0-0.5-0.1-0.6c-0.3,0.7-0.6,1-0.8,1c-0.2,0-0.3-0.1-0.3-0.4c-0.1-0.2-0.1-0.4-0.1-0.6
	c0-0.3,0.1-0.7,0.3-1.2c0.4-1.1,0.6-1.7,0.6-1.9c-0.4,0.4-0.7,1-1.1,1.8c-0.3,0.8-0.5,1.4-0.6,1.9c0,0.4,0,0.7,0.2,1.1
	c0.2,0.3,0.4,0.5,0.7,0.5c0.3,0,0.5-0.1,0.8-0.3C28.9,50.9,29,50.7,29.1,50.4L29.1,50.4z M107.5,38.8L107.5,38.8
	c-0.1,0.4-0.2,0.6-0.3,0.8c-0.3,0.5-0.6,0.8-1,0.8c-0.2,0-0.3-0.1-0.3-0.3c-0.1-0.2-0.1-0.4-0.1-0.6c0-0.4,0.2-1.4,0.7-2.9
	c0.1-0.5,0.4-1.2,0.7-2.1c-0.4,0.6-0.8,1.5-1.4,2.7c-0.6,1.3-0.9,2.2-0.9,2.7c0,1.2,0.4,1.8,1.2,1.8c0.3,0,0.6-0.1,0.7-0.3
	c0.2-0.2,0.3-0.5,0.5-0.9c0.1-0.2,0.1-0.4,0.2-0.7C107.5,39.4,107.5,39.1,107.5,38.8L107.5,38.8z M163.2,29L163.2,29
	c-0.1,0.4-0.2,0.6-0.3,0.8c-0.3,0.5-0.6,0.7-1,0.7c-0.2,0-0.3-0.1-0.3-0.3c-0.1-0.2-0.1-0.4-0.1-0.6c0-0.4,0.2-1.3,0.7-2.8
	c0.1-0.5,0.4-1.1,0.7-2c-0.4,0.5-0.8,1.4-1.4,2.6c-0.6,1.3-0.9,2.1-0.9,2.5c0,1.1,0.4,1.7,1.2,1.7c0.3,0,0.6-0.1,0.7-0.3
	c0.2-0.2,0.3-0.5,0.5-0.9c0.1-0.2,0.1-0.4,0.1-0.7C163.2,29.6,163.2,29.3,163.2,29L163.2,29z"/>
</svg>
