<svg xmlns="http://www.w3.org/2000/svg" viewBox="0 0 432 57.8"><path fill="#FFF" d="M260.7 41.8l-.3 3.4c-.2 0-1-.2-2.2-.6-1-.3-1.7-.4-2.3-.4-.5 0-1 .1-1.3.1-.3 0-.6.1-.9.2-.6.1-1.1.3-1.7.6-.5.3-1.2.7-2 1.3-.8.6-2 1.6-3.5 2.9-1.5 1.3-2.5 2.3-3.1 2.7-1.1.9-1.9 1.4-2.6 1.5-1.5.3-2.6 0-3.4-.8-.7-.7-1.1-1.7-1.4-3.1-.2-1.2-.1-2.7.5-4.4.5-1.6 1.2-2.9 1.9-3.7l.2 1c-.5.7-.8 1.8-1.2 3.1-.4 1.5-.5 2.8-.3 3.8.1.5.4 1 .9 1.4.5.4 1 .6 1.6.5.6-.1 1.6-.7 2.8-1.8 1.2-1.1 2.5-2.2 3.7-3.3 1.6-1.4 3-2.5 4.2-3.3.4-.3.9-.5 1.4-.7.5-.2 1-.3 1.5-.4.6-.1 1.1-.2 1.6-.2h.7c-.3-.1-.6-.3-.9-.5-.7-.3-1.3-.4-1.7-.3-.1 0-.2.1-.2.1 0-.2.1-.5.5-1 .2-.3.4-.6.7-.8.1-.2.3-.3.5-.4.2-.1.4-.2.7-.2.3-.1.5-.1.8-.1.3 0 .5-.1.8-.1.3-.1.6-.2.8-.3.2-.1.4-.3.6-.5 1.5-2.5 6.5-4.4 6.5-3.4.1 2.4 0 0-.6 3.8-.1.5-5 .1-5.2.5-.2.5-.5.9-.7 1.4.6.4 1.1.6 1.4.9.7.4 1.2.9 1.2 1.1zm83.5-11.4c.8.7 2.1 1.9 3.7 3.5 2.9 2.7 4.6 4.5 5.1 5.3 1.2 2.2 1.8 3.3 1.9 3.4.3.7.4 1.3.4 2 0 .4-.1.7-.4 1.1-.1.1-.3.4-.7.8-.6.8-1.4 1.6-2.3 2.4-.7.6-1.6 1.3-2.8 2.1-1.1.7-2.5 1.5-4.3 2.3-.6.3-1.4.6-2.5 1v.7c1-.1 1.8-.3 2.4-.4 1.8-.3 3.2-.7 4.2-1.1 1.5-.6 2.5-1.1 3-1.4.9-.5 1.7-1.2 2.5-2s1.4-1.6 1.8-2.3c.4-.7.8-1.6 1.2-2.8.1-.4.3-.9.4-1.6 0-.2.1-.5.2-.8h.2c.5 3.6 2 6.1 4.3 7.4 1.6.8 4 1.3 7.2 1.3h2.6c4.9 0 9.4-.6 13.4-1.7 2.8-.8 5.3-1.9 7.4-3.1.7-.5 1.5-1.1 2.2-1.7 0 1.3.2 2.3.6 3.2.6 1.4 1.7 2.1 3.1 2.1 1.3 0 2.7-.8 4.3-2.4.5-.5 1.2-1.3 2-2.3 0 1 .3 1.9 1 2.6.7.7 1.5 1 2.5 1s1.9-.6 2.9-2c.3-.4.7-1.1 1.2-1.9.2 1 .5 1.8.8 2.3.9 1.5 2.5 2.3 4.6 2.3 1.5 0 2.7-.6 3.8-1.8.8-1 1.5-2.4 2.1-4.1.1-.5.2-1 .3-1.6.1-.6.1-1.2.1-1.8v-.7-.5l-3.9-26.4-.2-1.2.1-.2 1.8 1.8v-.6l-3.4-8-1.5 3.7.9 3.2.4 2.5c.2 1.7.4 3.3.6 4.9.4 3.1.9 6.1 1.6 10.4.8 5.1 1.5 9.1 2.1 12.1l.4 1.7c-.5 1-1.2 1.8-2 2.3-.8.5-1.7.8-2.8.8-1 0-1.9-.4-2.7-1.1-.5-.4-.8-.9-.9-1.6-.2-.7-.2-1.4-.2-2.3v-.7c0-.2 0-.4.1-.6h-1c-.5 1.2-.9 2.1-1.3 2.7-1 1.8-2 2.7-2.9 2.7-.2 0-.5-.1-.7-.2-.8-.3-1.3-1.2-1.6-2.6-.1-.5-.2-1.1-.2-2h-.6c-.9 1.2-1.7 2.2-2.3 2.8-1.8 1.8-3.4 2.7-4.7 2.7-.7 0-1.2-.6-1.5-1.7-.2-.7-.3-1.6-.3-2.7V41h-.5c-.9.6-1.8 1.1-2.7 1.7-2.4 1.3-5.2 2.3-8.4 3.2-4.4 1.1-9.2 1.7-14.5 1.7-3.2 0-5.5-.2-6.8-.5-1.3-.4-2.3-.9-3.1-1.7-.7-.7-1.3-1.6-1.7-2.5-.4-.9-.6-2.1-.8-3.5-.4-2.5-.7-5.7-1.1-9.6-.3-3.9-.7-7.6-1-11.2.1 1.7-.1-1.3-.3-2.2l-.6-6.5c-.1-.4-.1-.8-.1-1-.1-.8-.3-1.5-.4-1.9-.1-.4-.3-.9-.6-1.3-.2-.4-.5-.8-.6-.9l-.7 3.1c-.1.4.1 1 .2 1.4.2 2.1.4 4.1.7 6.2l1.2 10.5c.3 2.7.7 5.4.9 8.2.2 2.3.3 4.9 0 7.2-.1 1-.5 1.9-.8 2.9-.2-2.1.1-4.2-1.1-6-.6-.9-1.3-1.8-2-2.6-.8-.9-1.8-1.9-2.6-2.8l-2.2-2.2c-2.3-2.2-4.8-4.3-7-6.5l-3.1-3.1-1.3-1.3-.2-.2 2.8.9-.2-.8c-1.5-1-2.6-1.8-3.3-2.3-2.3-1.6-3.5-2.4-3.7-2.4l1.2 4.6c.2.2.4.3.5.4.4.3.6.6.7.8 1.1 1.2 2 2.2 2.7 2.8 2.1 2.2 3.8 3.8 5 5l1.8 1.8zM431 51.8l.5-2c.2-1.1.3-1.8.4-2.3v-2.1V44v-1.6c0-1-.1-1.9-.1-2.6l-.6-4.5c-.6-4.5-1-7.8-1.3-10.2-.6-4.6-1.1-7.6-1.5-10.3l-.2-1.1-.2-1.6v-.2l1.8 1.9v-.6l-3.4-8.9-1.3 4.1.7 2.7.5 2.9 3.6 26.2c.1.9.2 1.7.2 2.3.1.7.1 1.4.1 2.1.2 1.8.3 3.5.3 4.9l-.1 2h.6v.3zM322.9 22.1l1.3.2c-.6.2-.9.4-1 .5-.1.1-.4.2-.7.5-.4.2-.6.7-.8 1.5 0 .2-.1.5-.1 1 .8 2.3 1.5 4.8 2 7.5.2 1 .3 2.2.5 3.7l.3-4.2c-.2-1.3-.4-2.4-.5-3.1-.4-2.2-.8-3.8-1.1-4.8 1.1-.7 2.5-1 4.2-1l.8-1.5c-.6-.5-1-.8-1.3-1-1-.7-1.7-1-2.2-1-.4.2-.7.6-1.1 1.1 0 .1-.1.3-.3.6zm70.8 28.7l-.5.4c-.1.5-.3.9-.4 1.1-.1.2-.3.3-.6.3-.2 0-.5-.1-.7-.3l-.3-.3-.6.6c-.5.5-1 .7-1.4.7-.3 0-.6-.1-1-.3-.1-.1-.3-.1-.5-.3-.7.4-1.3.6-1.7.8-1.2.5-2.4.9-3.5 1.2-2.3.5-4.7 1-7.2 1.4-2.5.4-4.4.6-5.7.6.4.1.9.2 1.3.3.4.1 1.1.1 1.9.2h.4c1 0 2.5-.1 4.4-.3 1.9-.2 3.5-.6 4.8-1 .7-.3 1.6-.6 2.7-1.1.3-.2.8-.4 1.4-.7.3.2.5.3.6.4.4.2.8.3 1.1.3.5 0 1-.2 1.6-.7l.7-.7c.2.2.4.4.7.6.2.1.4.2.6.2.4 0 .8-.2 1-.5.1-.2.3-.5.6-1.1.1-.3.2-.6.2-.8.1-.6.1-.8.1-1zM409.4 0l-3.5 2.2c-2.7 1.6-6.5 3.2-11.2 4.9-1 .4-5 1.7-11.9 3.9-4.2 1.4-7 2.4-8.3 3.2-1 .5-1.7 1.3-2.3 2.2-.1.3-.3.7-.4 1.2 1-.4 1.8-.6 2.3-.8 1.6-.6 2.7-1.2 3.2-1.6l.6-.7c5.4-1.8 10.7-3.6 16.1-5.4 5.4-2 9.1-3.5 11-4.7 1-.7 2.1-1.6 3.2-2.8.3-.4.7-.9 1.2-1.6zm0 32.2c0-.8-.1-1.6-.4-2.4-.2-.8-.5-1.6-.7-2.3-.1.1-.3.3-.6.8-.1.1-.2.3-.3.5.2.6.4 1.3.6 2 .2.7.4 1.3.4 1.7 0 .2-.1.4-.3.5-.2.1-.3.2-.5.3-.7-.3-1.2-1.1-1.3-2.5-.1-1.4-.4-2.4-.8-3-.2.2-.3.4-.4.5-.3.3-.4.6-.4.8.2.6.3 1 .4 1.2.2.8.3 1.4.3 1.8 0 .3-.2.6-.5 1-.4.3-.7.5-1.1.5-.4 0-.7-.2-.9-.7-.2-.5-.2-1.2-.2-2.1v-1.2-1.3c-.6.4-1 .7-1.3 1.1-.2.4-.4.7-.6 1v.9c.1-.2.4-.4.8-.8V32.2c0 1.2.1 2.1.5 2.6.3.4.7.7 1.3.7 1.1 0 1.8-.7 2.2-2 .1.2.3.5.6.9.4.4.7.6 1.1.6.5 0 .9-.1 1.2-.3.6-.5.9-1.3.9-2.5zM339 34.9c.2.1.4.2.7.4.5.3.9.6 1.2.9-.5.1-.8.1-.9.2l-1 .2v5.8c.1-.2.1-.5.2-.8.1-.7.2-1.1.2-1.1.3-.2 1-.4 2.2-.7 1.1-.3 1.8-.5 2-.7.2-.3.3-.9.5-1.8s.2-1.8.2-2.6c-.4-.6-1.3-1.4-2.7-2.5-1.2-1-2.1-1.5-2.6-1.6v4.3zm-5.3 7.8c1-.6.6-.3 1-.6 1.6-.8 2.7-1.1 3.3-1.1.1.3.2.7.3 1 .1.3.2.7.3 1.2.2-.2.3-.5.4-.8v-5.8c-.3.1-.5.1-.6.1l-1.3-1.8c.1-.1.3-.1.4-.2.1 0 .3-.1.5-.1h.2c.1 0 .2 0 .5.1.1 0 .2.1.3.2v-4.4h-.2c-.8 0-1.5.4-2.1 1.2-.5.8-.8 1.8-.8 3.1v1c0 .5.1 1 .4 1.6-1.3.6-2.5 1.1-3.8 1.7-1.2.6-2.4 1.4-3.6 2.3-4.4 3.3-7 4.9-7.8 4.9-.7 0-1.2-.4-1.7-1.1-.4-.7-.6-1.4-.6-2.1 0-1.5.3-3 1-4.7.6-1.4 1.4-2.7 2.4-3.9v-1.2c-1.3 1.2-2.4 2.7-3.3 4.7-.9 1.9-1.3 3.6-1.3 5.1 0 2.2.2 3.8.7 4.8.7 1.4 2 2.2 3.9 2.2.9 0 2.1-.7 3.7-2 2.3-1.9 3.8-3.1 4.5-3.6.4-.2.9-.6 1.6-1 .7-.3 1.3-.6 1.7-.8zm-12-27.8c-.3.2-.5.4-.7.8-.2.3-.3.7-.3 1.1 0 .6.2.9.6 1 .2.1.4 0 .7-.1.3-.1.5-.2.6-.2.8 0 1.4.9 1.7 2.7 0 .3.1.7.1 1.2h.6c.3-1 .5-1.8.6-2.3.5-1.6.9-2.7 1.3-3.3.2-.2.3-.4.6-.4.2 0 .3.1.6.4.1.1.1.2.3.4.4-.6.6-1.3.6-2.2 0-.4 0-.7-.1-.9-.2-.5-.4-.7-.6-.7-.5 0-1.2 1.2-2.2 3.6-.3.8-.7 2-1.2 3.6-.2-1.5-.4-2.5-.7-3.2-.4-1.2-1-1.8-1.7-1.8-.1 0-.2.1-.4.1-.1.1-.2.2-.4.2zm38.4-5.2c-.3.2-.5.4-.7.8-.2.4-.3.7-.3 1.1 0 .6.2.9.6 1 .2.1.4 0 .7-.1.3-.1.5-.2.6-.2.8 0 1.4.9 1.7 2.7 0 .3.1.7.1 1.2h.6c.3-1 .5-1.8.6-2.3.5-1.6.9-2.7 1.3-3.3.2-.2.3-.4.6-.4.2 0 .3.1.6.4.1.1.1.2.2.4.4-.6.6-1.3.6-2.2 0-.4 0-.7-.1-.9-.2-.5-.4-.7-.6-.7-.5 0-1.2 1.2-2.2 3.6-.3.8-.7 2-1.2 3.6-.2-1.5-.4-2.5-.7-3.2-.4-1.2-1-1.8-1.7-1.8-.1 0-.2.1-.4.1-.1.1-.2.2-.3.2zm7 29.2c-.1.4-.2.6-.3.8-.3.5-.6.8-1 .8-.2 0-.3-.1-.3-.3-.1-.2-.1-.4-.1-.6 0-.4.3-1.4.8-2.9.1-.5.4-1.2.7-2-.4.6-.9 1.4-1.4 2.7-.6 1.3-.9 2.2-.9 2.7 0 1.2.4 1.8 1.2 1.8.3 0 .6-.1.8-.3.2-.2.4-.5.5-.9.1-.2.1-.4.2-.7-.3-.5-.2-.8-.2-1.1zm-44.7-7c-.1.4-.3.7-.3.8-.3.5-.6.8-1.1.8-.2 0-.3-.1-.4-.4-.1-.2-.1-.4-.1-.6 0-.5.3-1.5.8-3 .2-.5.4-1.2.8-2.1-.4.6-.9 1.5-1.5 2.8-.6 1.4-1 2.3-1 2.8 0 1.2.4 1.9 1.3 1.9.3 0 .6-.1.8-.3.2-.2.4-.5.5-.9.1-.2.1-.4.2-.8v-1zm86.5-9.9c0-.6-.2-1.3-.4-2-.4-1.1-1.1-1.9-1.9-2.5 0 .1-.1.4-.3 1 0 .1-.1.2-.1.3 0 .1.2.2.5.5.3.2.5.4.7.7.4.5.7.9.8 1.3.2.4.3.8.3 1.2l-.1 1.6v.7c.3-.5.4-.9.5-1.3V22zM351.4 8.8c-.1.4-.2.6-.3.8-.3.5-.6.7-1 .7-.2 0-.3-.1-.3-.3-.1-.2-.1-.4-.1-.6 0-.4.2-1.4.7-2.8.1-.4.4-1.1.7-2-.4.5-.8 1.4-1.4 2.6-.6 1.3-.9 2.1-.9 2.5 0 1.2.4 1.7 1.2 1.7.3 0 .6-.1.7-.3.2-.2.3-.5.5-.9.1-.2.1-.4.1-.7.1-.2.1-.5.1-.7zm-261.6 23L88 36c.6 1.5 1.2 2.7 2 3.4.8.8 1.6 1.2 2.5 1.2 1.8 0 3.4-.5 4.8-1.6 1.5-1.2 2.3-2.8 2.3-4.6v-1c0-.7-.1-1.4-.4-2.1-.4-.8-1.2-1.9-2.3-3.2 0-.2 0-.3-.1-.4v-.2c.1 0 .3.1.7.3.1.1.3.2.6.3v-.7c-.5-.7-1-1.3-1.3-1.7-.9-1.2-1.6-2-2.1-2.4-.1.4-.2 1.1-.2 2-.1.9-.1 1.5-.1 1.8l.2.2c.2.3.4.7.7 1.2.3.9.8 1.9 1.5 3.1.8 1.4 1.6 2.4 2.1 3-.7.7-1.5 1.2-2.3 1.6-1.1.5-2.1.7-3.1.7-1.1 0-2-.7-2.7-2-.7-1-1-2-1-3.1zM25 32l2.6 1.9 1.8-2.8-2.9-2.1-1.9 2.8-2.5-1.9-1.8 2.8 2.9 2.2L25 32zm245.6 19.3h.4c1.5 0 3.2-.9 5.1-2.6.6-.6 1.4-1.4 2.4-2.5.1 1.2.3 2.1.5 2.6.7 1.8 2.1 2.6 4.2 2.6 1.3 0 2.4-.2 3.2-.6.9-.4 1.7-1.1 2.4-2.1.8-1 1.4-2.1 1.9-3.3.5-1.2.8-2.4 1-3.6 0 1.4.2 3 .6 4.7.4 1.7 1.2 2.9 2.3 3.7.8.5 1.5.8 2.4.8 1.1 0 2.4-.2 4.2-.7 1.7-.4 3.3-1 4.8-1.6 2.7-1.2 4.6-2.3 5.9-3.1 1.9-1.2 3.3-2.6 4.2-4l1.1-3.1c-1.3 1.1-2.4 1.9-3.2 2.4-2.6 1.6-5 2.5-7.2 2.5-.9 0-1.7-.1-2.5-.4-.7-.3-1.5-.7-2.3-1.3-1.4-1-2.5-2-3.2-3-.8-1.1-1.2-2.2-1.2-3.2l.1-.1c.5-.2.8-.4 1.1-.6 1.5-.7 2.7-1.2 3.5-1.4 1-.3 1.8-.5 2.5-.6.7-.1 1.6-.2 2.5-.2.9 0 2.1.2 3.5.6.5.1 1.1.4 1.9.6v-.5c-2.7-2.6-6-3.9-10-3.9-1.5 0-2.9.6-4 1.9-1.2 1.3-2 2.8-2.4 4.7-.1.9-.2 1.6-.2 2.2 0 2 .7 3.8 2.1 5.6.4.6 1.1 1.1 1.9 1.8.3.2.7.5 1.2.8-.3.2-.7.4-1.1.5-.4.1-.9.2-1.4.2-.4 0-.8-.1-1.3-.2-.4-.1-.8-.3-1.1-.6-.6-.5-1.1-1.2-1.5-1.9-.4-.7-.6-1.7-.8-2.8-.4-2.8-.8-5.8-1-9-.3-3.2-.6-6.4-.9-9.7 0-.1-.2-1.9-.5-5.6-.2-1.9-.4-3.8-.7-5.5l-.4-1.8-1.4-3.5-1.1 4.3c.2 1.9.5 3.8.7 5.7.8 6.1 1.2 9.8 1.4 11.1.5 4 .7 6.6.7 7.8v1.3c0 1-.1 1.9-.2 2.8-.2.8-.3 1.5-.6 2.1-.7 1.8-1.5 3.2-2.6 4.1-1.1.9-2.4 1.4-4.1 1.4-1.3 0-2.2-1-2.7-3-.2-.7-.3-1.7-.5-3-1.1 1.3-2.1 2.2-2.8 2.8-2.2 1.8-4.1 2.8-5.7 2.8-1.7 0-3-.7-3.9-2.1-.9-1.4-1.7-3.7-2.4-6.7-.2-.8-.3-1.5-.4-2.1-.1-.6-.3-1.5-.5-2.6-.8-4.4 0 0-.5-2.9l-1-6.8-1.2 4 .5 4.2c.5 3.7.4 2.7 1.7 9.8.3 1.1.5 1.9.6 2.5.5 1.8.9 3.1 1.3 3.7.7 1.3 1.3 2.2 1.9 2.7.8.5 1.7.9 2.8.9zm41-39.3l-1.9 1.9c-1.5 1.3-3.4 2.3-5.8 3.2-.5.2-2.5.8-6 1.8-2.1.6-3.6 1.2-4.3 1.8-.5.4-1 1.1-1.3 2.2-.1.3-.2.8-.3 1.4.5-.2.9-.3 1.2-.4.8-.4 1.4-.8 1.7-1.2l.4-.8c2.7-.8 5.5-1.7 8.2-2.5 2.8-1 4.7-2.1 5.7-3 .5-.6 1.2-1.5 1.8-2.8 0-.3.3-.8.6-1.6zM30.9 42.5c2.5 8.1 3.2 9.1 1.5 1.2-.1-.5.1-1 .1-1.5v-2.4c-.1-1.4-.2-2.8-.4-4.2-.4-4.2-.6-7.3-.8-9.5-.4-4.3-.7-9.4-1-11.9l-.1-1-.2-1.4v-.2l1.5 1.9V13l-2.7-8.3-1.3 3.8.6 2.6.4 2.7 2.3 26.7c.1.7 0 1.4.1 2zM283.2 5c-.2.1-.5.4-.6.7-.2.3-.2.6-.2 1 0 .5.2.8.5.9.2.1.4 0 .6-.1.2-.1.4-.1.5-.1.7 0 1.2.8 1.5 2.3 0 .3.1.6.1 1h.5c.2-.9.4-1.5.5-2 .4-1.4.8-2.3 1.1-2.8.1-.2.3-.3.5-.3.1 0 .3.1.5.3 0 .1.1.2.2.3.3-.5.5-1.2.5-1.9 0-.4 0-.6-.1-.7-.1-.4-.3-.6-.5-.6-.4 0-1.1 1-1.9 3.1-.3.7-.6 1.7-1 3.1-.2-1.3-.4-2.2-.6-2.8-.4-1-.8-1.5-1.5-1.5h-.3s-.1.1-.3.1zm-18.8 16.9c-6 7.5.5 6.5-.1 4.3.5-.8 1.4-1.8 2.7-3.2 1.3-1.4 2.4-2.5 3.4-3.5 2-2 3.9-3.7 5.7-5.1 1.8-1.4 2.9-2.1 3.5-2.3.2-.1.5 0 .8.1 0 .9-.2 2.5-.7 4.9-.4 1.8-.4 3.4-.1 4.8l.3.9c0-.7.2-2.2.7-4.4.9-3.8 1.1-6.5.7-8.1-.2-.9-.5-1.4-.9-1.6-.4-.2-.9-.2-1.5 0-.8.2-2 1.1-3.9 2.6-1.8 1.5-3.7 3.2-5.6 5.1-2.8 3-4.5 4.8-5 5.5zM237 37.4c-.3-2 0-2.3-.5-4-.5-1.7-1.2-3.1-2.2-4.1-.8-.9-1.7-1.3-2.6-1.4v4c.2.1.5.2.8.4.5.3.8.7 1.1 1.2h-1.9v4h3.5c.1.2.3.5.5 1.1.1.2.1.4.3.8-.9 1.4-1.9 2.6-3.1 3.6-.4.3-.7.7-1.1 1v3.9l.4-.3c1.6-1.4 2.7-2.7 3.5-3.8.5-.8 1-1.7 1.2-2.8.1-.2.1-.8.2-1.8-.1-1-.1-1.6-.1-1.8zm-5.3 10.4v-3.9c-.7.5-1.4 1.1-2.2 1.5-1.4 1-2.7 1.7-4 2.2-1.3.5-2.3.7-3.3.7-1.5 0-2.7-.5-3.7-1.4-1.1-1.1-1.6-2.4-1.6-3.9 0-.3.1-1.3.2-2.9 0-.5.1-1.3.2-2.3h-.8c-.2 1-.3 1.8-.3 2.3-.2 1.6-.3 2.8-.3 3.6 0 2.3.5 4.2 1.4 5.8 1.1 1.9 2.7 2.9 4.9 2.9 1.8 0 3.5-.5 5.3-1.4 1.2-.7 2.6-1.8 4.2-3.2zm0-14.3h-1.9c.1-.4.2-.8.5-1.1.2-.3.5-.5.8-.5.2 0 .3 0 .5.1v-4c-.9 0-1.7.6-2.4 1.8-.7 1.2-1 2.5-1 3.8 0 1.4.2 2.4.6 3 .4.6 1 .9 1.8.9h1.1v-4zm-20.9 10.7c.8-.7.5-.4.8-.7 1.3-1 2.2-1.6 2.8-1.8 1.2-.8.5.1 1.2-.8.3-.2 1-.4 1.9-1.1 1.1-1 1.6-.9 1.7-1.1 1.9-1.8 4.2-3.4 3.7-3.5-.9-.1-4-.4-4.3-.4-.9.2-2.1 1.4-6.4 4.3-1.1.8-2.1 1.6-3.1 2.4-1 .8-2 1.8-2.9 2.8-3.4 3.9-5.5 5.9-6.2 6.1-.6.2-1.2 0-1.8-.5-.5-.5-.9-1-1-1.6-.3-1.3-.3-2.7 0-4.2.3-1.3.7-2.7 1.4-3.9l-.2-1c-1 1.3-1.6 2.9-2.1 4.8-.4 1.9-.5 3.4-.2 4.7.4 1.9 1 3.2 1.7 3.9.9 1.1 2.3 1.4 4.1.9.8-.2 1.8-1.1 3-2.6 1.7-2.2 2.8-3.6 3.4-4.1l1.2-1.2c.5-.7.9-1.1 1.3-1.4zM29 42.8c.9-5.6 1-5.8.9-5.6-.5 1-1.2 2.4-2.1 4.1-.7.9-1.5 1.6-2.6 2.1-1 .6-2 .8-3.1.8h-.8c-1 0-2-1.6-2.8-4.7-.9-3.1-1.6-4.7-2.2-4.7-1 0-2.1.7-3.3 2.1-1 1.1-1.7 2.3-2.2 3.4-.5 1.2-.9 2.4-1.4 3.6-.9 2.2-1.7 3.3-2.6 3.3-.3 0-.6-.2-1.1-.7-.6-.6-1.1-1.4-1.6-2.5-.2-.5-.4-1.7-.6-3.7 0-.7-.1-1.7-.1-3h-.8c.1 1.7.1 3.4.2 5.2.1 1.8.2 3 .3 3.7.3 1.5.9 2.8 1.6 3.8.7 1 1.5 1.6 2.2 1.6 1.3 0 2.5-1.8 3.6-5.3.7-2.3 1.2-3.7 1.6-4.4.4-.6.9-1.2 1.5-1.7s1.2-.8 1.6-.8c.8 0 1.7 1.4 2.7 4.2 1 2.8 2 4.3 3.1 4.5.4.1.7.1.8.1.6 0 1.3-.1 1.9-.4.6-.2 1.3-.6 2-1 .9-.6 1.6-1.3 2.2-2.2 0 .1.4-.6 1.1-1.8zm165.9 2.3l.7-1.5c.3-.7.2-1.7.2-2.7 0-1.7-.4-3-1.1-4.1-.7-1.1-1.5-1.6-2.3-1.6h-.1v4.2c.3.1.6.3.8.5.5.4.8 1.1 1 2-.7-.1-1.3-.3-1.9-.5v4.1c.3.1.6.1.9.1.2 0 .5 0 .8-.1.6-.2.8-.3 1-.4zm-2.5-3.7c-.7-.4-1.3-.7-1.9-1.1l.6-.6c.2-.2.4-.3.6-.3.2 0 .4 0 .7.1v-4.2c-1 0-2 1-3 2.8-.5 1-1.2 2.3-2 3.9-.7.8-1.5 1.5-2.4 2-.9.5-1.9.8-3 .8h-.8c-1 0-1.9-1.5-2.7-4.5-.8-3-1.5-4.5-2.1-4.5-.9 0-2 .7-3.1 2-1 1.1-1.6 2.2-2.1 3.3-.4 1.1-.9 2.3-1.3 3.5-.8 2.1-1.7 3.2-2.5 3.2-.3 0-.6-.2-1-.6-.5-.6-1-1.4-1.5-2.4-.2-.5-.4-1.7-.5-3.6 0-.6-.1-1.6-.1-2.8h-.8c.1 1.6.1 3.2.2 4.9.1 1.7.2 2.9.3 3.5.3 1.4.8 2.7 1.5 3.6.7 1 1.4 1.5 2.1 1.5 1.2 0 2.3-1.7 3.4-5.1.7-2.2 1.2-3.6 1.5-4.2.4-.6.8-1.2 1.4-1.7.6-.5 1.1-.7 1.5-.7.8 0 1.6 1.3 2.6 4 .9 2.7 1.9 4.1 2.9 4.2.4.1.6.1.8.1.6 0 1.2-.1 1.8-.4.6-.2 1.2-.6 1.9-1 .9-.6 1.6-1.3 2.1-2.1 0-.1.4-.7 1.1-1.9.2.1.8.6 1.8 1.3.7.4 1.4.7 2 .9v-3.9zm-8.6-18.7c-1.3.7-.9 3.1-1.6 4.9 3.8-2.4 7.9-6.4 16.7-4-5 1.7-22.4 6.6-11.4 18.2l1.6-3.2c-10.2-5.7 9.1-16.9 19.7-14.7v-2.3c-1.6-.2-3.1.5-4.6.3-17.8-1.8-15.1-1.2-20.4.8zm-60.1 18.1v-.4c0-.2 0-.4-.1-.5-.2.7-.5 1-.7 1-.1 0-.3-.1-.3-.3-.1-.2-.1-.4-.1-.6 0-.3.1-.7.2-1.2.3-1 .4-1.7.4-1.9-.3.5-.6 1.1-.9 1.8-.2.8-.4 1.4-.4 1.9 0 .4.1.7.2 1 .2.3.4.4.7.4.3 0 .5-.2.7-.4.2-.3.3-.6.3-.8zm12.4-.6v-.4c0-.2-.1-.4-.2-.5-.2.7-.5 1-.7 1-.1 0-.3-.1-.3-.3-.1-.2-.1-.4-.1-.6 0-.3.1-.7.2-1.2.3-1 .4-1.7.4-1.9-.3.5-.6 1.1-.9 1.8-.2.8-.4 1.4-.4 1.9 0 .4.1.7.2 1 .2.3.4.4.7.4.3 0 .5-.1.7-.4.4-.3.4-.5.4-.8zm10.3-1.7v-.4c0-.2 0-.4-.1-.5-.2.7-.5 1-.7 1-.1 0-.3-.1-.3-.3-.1-.2-.1-.4-.1-.6 0-.3.1-.7.2-1.2.3-1 .4-1.7.4-1.9-.3.5-.6 1.1-.9 1.8-.2.8-.4 1.4-.4 1.9 0 .4.1.7.2 1 .2.3.4.4.7.4.3 0 .5-.2.7-.4.3-.3.3-.6.3-.8zm.3-26.4c-.2.2-.3.4-.5.5-.3.3-.4.5-.5.5L129.6 19c-.2.1-.5.4-.9.9s-.6.9-.7 1.3c.1 0 .3-.2.6-.5s.6-.5.7-.6l16.2-6c.3-.1.6-.4.8-.9.2-.3.3-.7.4-1.1zm5 5.3v-.9c-.1-.2-.3-.4-.4-.5-.1-.1-.2-.1-.3-.1-.4 0-.7.5-1 1.4-.1.4-.3 1.1-.4 1.8-.6-1.2-.9-1.8-1-1.9-.3-.4-.6-.5-1-.5s-.6.2-.6.7c0 .3.1.6.4.8.2.2.5.3.8.2.3 0 .5.1.7.5.2.3.4.8.5 1.5h.3c.3-1.4.5-2.4.7-2.9.1-.3.3-.5.5-.5.1 0 .2.1.2.2.1.1.1.2.2.4.1-.1.2-.1.4-.2zm3 19.3v-.4c0-.2-.1-.4-.2-.5-.2.7-.5 1-.7 1-.1 0-.3-.1-.3-.3-.1-.2-.1-.4-.1-.6 0-.3.1-.7.2-1.2.3-1 .4-1.7.4-1.9-.3.5-.6 1.1-.9 1.8-.2.8-.4 1.4-.4 1.9 0 .4.1.7.2 1 .2.3.4.4.7.4.3 0 .5-.2.7-.4.3-.3.4-.6.4-.8zm-27.1-23.1v-.4c0-.1 0-.2-.1-.3h-2.8c-.2 0-.4.1-.6.3 0 0-.1.2-.4.6v.6c.2-.1.3-.3.5-.4h2.5c-.5.5-1.3 1-2.2 1.5-.3.2-.7.3-1.2.5h1c1.1-.4 1.7-.6 1.8-.7 1-.4 1.5-1 1.5-1.7zm24.8 29.5c0-1.7-.2-3.4-.6-4.9-.2-.7-.5-1.5-.8-2.4-.7-1.9-1.1-2.9-1.2-3.1l-.3-.9c-.1-.3-.1-.5-.1-.7l1.7 1.5v-1.1l-3.6-6.8-.9 3.9 1 3.2c.1.9.2 1.6.3 2.1.3 1.6.6 3.1 1 4.4.7 2.3 1.4 4.2 2.2 5.9-.3.6-.7 1.1-1.3 1.4-.6.4-1.3.7-2.1.8-.2 0-.4.1-.6.1-1.1 0-2.2-.7-3.1-2.1-.7-1-1.3-2.2-1.7-3.4-.3-1-.7-2.9-1-5.6-.1-.9-.3-2.2-.5-3.8-.2-1-.4-1.9-.7-2.7-.3-.8-.8-1.7-1.4-2.4l-.6 4 1.6 9.5c0 .1 0 .2.1.4v.6c0 .7-.1 1.5-.4 2.3-.2.6-.5 1.3-.9 1.9-.5.8-1 1.5-1.6 1.9-.7.5-1.5.8-2.3.8h-.5c-1.4-.2-2.4-.9-3.1-2.1-.3-.6-.6-1.3-.8-2-.2-.7-.3-1.4-.3-2.1 0-.4.1-1.5.3-3 .1-1.1.3-2.3.5-3.8.1-.6.2-1.2.3-1.9v-3.8c-2 .8-3.5 2.9-4.5 6.2-.3 1.1-.9 3.9-1.7 8.5-.5 2.8-1.1 4.2-1.9 4.2-1.1 0-2-.7-2.6-2.2-.5-1.1-.8-2.7-1-4.7-.1-1.2-.2-2.6-.2-4.3v-.7-.5l-.6.1c-.1.9-.1 1.6-.2 2.1-.1 1.6-.2 2.9-.2 3.9 0 2.4.4 4.7 1.3 6.8.9 2.1 1.9 3.1 3 3.1.9 0 1.6-.6 2.2-1.9.3-.6.6-1.4.9-2.6.2-.6.4-2.1.8-4.5.3-2.4.7-4.1.9-5.3.5-1.8 1-3 1.7-3.6 0 .1 0 .2.1.5v.8c0 .8-.2 2.4-.6 4.8-.2 1-.3 1.8-.3 2.3 0 1.1.1 2.1.2 3 .1 1 .3 1.8.6 2.6.4 1.1 1 2 1.7 2.7.8.7 1.7 1.2 2.8 1.3h.4c1 0 1.9-.3 2.9-1 .8-.6 1.4-1.3 2-2.1.5-.8.9-1.8 1.2-2.9.2-.9.4-1.8.5-2.7.1.3.3 1 .5 2 .3 1.1.8 1.9 1.3 2.6.5.7 1.2 1.3 2 1.7.9.5 1.8.8 2.7.8.9 0 1.7-.3 2.4-.8.6-.4 1.2-1.1 1.6-1.9.4-.7.7-1.4.9-2.2.5-.6.6-1.4.6-2.2zm-10-21.1c0-.8-.1-1.5-.2-2.1-.1-.6-.4-1.3-.7-2l-.7 1.7.4.8c.2.6.3 1.1.3 1.5 0 .3-.1.6-.2.8-.1.2-.3.4-.5.4h-.2c-.3 0-.5-.2-.7-.5-.1-.2-.3-.5-.4-.8-.1-.7-.2-1.4-.3-2.2-.1-.6-.3-1.2-.6-1.6l-.7 1.5c.1.2.2.6.4 1.2s.2 1.1.2 1.4c0 .4-.2.7-.5 1-.3.3-.8.4-1.3.4-.3 0-.5-.2-.6-.5-.1-.3-.2-.8-.2-1.4 0-.6.1-1.3.2-2 0-.3.1-.6.2-1-.5.3-1 .9-1.4 1.6-.2.4-.4.9-.7 1.5l.1.5 1-1.7V22.4c0 .8.1 1.4.3 1.8.2.5.6.8 1.1.8h.2c.6 0 1.1-.2 1.4-.6.3-.3.5-.8.7-1.5.2.5.4.9.6 1.2.2.3.5.4.9.4h.2c.4 0 .8-.1 1-.4.4-.3.7-1.1.7-2.1zm16.8 21.9l-.9-7.1-3.2-21.8-.1-1.6 2.1 2.2v-1.4l-4.3-9.1-.8 4.2c.2.6.3 1.1.4 1.4.3 1 .5 1.7.5 2.3l1.7 11.4 3 21.2c.2 1.1.3 2.2.3 3.3.1 1.1.1 2.2.1 3.3.4-.7.7-1.6.9-2.6.2-1.1.3-2.2.3-3.4.1-.8.1-1.6 0-2.3zM138.7 9.7c-.1-.7-.4-1.5-.8-2.2-.5-.8-1.3-1.5-2.3-2.1v1.9c.4.3.6.5.8.7.6.6 1 1.2 1.1 1.9.1.4.2.8.2 1.1 0 .4.1.8.1 1.1 0 .3 0 .8-.1 1.6-.1.7-.1 1.2-.1 1.2.3-.6.6-1.2.8-1.9.2-.7.3-1.4.3-2.2.1-.3.1-.7 0-1.1zm-20.8 27.9c-.3-2 0-2.3-.5-4-.5-1.7-1.2-3.1-2.2-4.1-.8-.9-1.7-1.3-2.6-1.4v4c.2.1.5.2.8.4.5.3.8.7 1.1 1.2h-1.9v4h3.5c.2.2.3.5.5 1.1.1.2.1.4.3.8-.9 1.4-2 2.6-3.1 3.6-.4.3-.7.7-1.1 1V48l.4-.3c1.6-1.4 2.7-2.7 3.5-3.8.5-.8 1-1.7 1.2-2.8.1-.2.1-.8.2-1.8-.2-.9-.1-1.5-.1-1.7zM112.6 48v-3.9c-.7.5-1.4 1.1-2.2 1.5-1.4 1-2.7 1.7-4 2.2-1.3.5-2.3.7-3.3.7-1.5 0-2.7-.5-3.7-1.4-1.1-1.1-1.6-2.4-1.6-3.9 0-.4.1-1.3.2-2.9 0-.5.1-1.3.2-2.3h-.8c-.2 1-.3 1.8-.3 2.3-.2 1.6-.3 2.8-.3 3.6 0 2.3.5 4.2 1.4 5.8 1.1 1.9 2.7 2.9 4.9 2.9 1.8 0 3.5-.5 5.3-1.4 1.1-.7 2.6-1.7 4.2-3.2zm0-14.3h-1.9c.1-.4.2-.8.5-1.1.2-.3.5-.5.8-.5.2 0 .3 0 .5.1v-4c-.9 0-1.7.6-2.4 1.8-.7 1.2-1 2.5-1 3.8 0 1.4.2 2.4.6 3 .4.6 1 .9 1.8.9h1.1v-4zM226.7 5.4l-1.9 1.9c-1.5 1.3-3.4 2.3-5.8 3.2-.5.2-2.5.8-6 1.8-2.1.6-3.6 1.2-4.3 1.8-.5.4-.9 1.1-1.3 2.2-.1.3-.2.8-.3 1.4.5-.2.9-.3 1.2-.4.8-.4 1.4-.8 1.7-1.2l.4-.8c2.7-.8 5.4-1.7 8.2-2.6 2.8-1 4.7-2.1 5.7-3 .6-.6 1.2-1.5 1.8-2.8 0-.2.3-.7.6-1.5zm19.3.5l-1.9 1.9c-1.5 1.3-3.4 2.3-5.8 3.2-.5.2-2.5.8-6 1.8-2.1.6-3.6 1.2-4.3 1.8-.5.4-1 1.1-1.3 2.2-.1.3-.2.8-.3 1.4.5-.2.9-.3 1.2-.4.8-.4 1.4-.8 1.7-1.2l.4-.8c2.7-.8 5.4-1.7 8.2-2.6 2.8-1 4.7-2.1 5.7-3 .6-.6 1.2-1.5 1.8-2.8 0-.2.3-.8.6-1.5zm-4.9 13.6c-.3.2-.5.4-.7.8-.2.3-.3.7-.3 1.1 0 .6.2.9.6 1 .2.1.4 0 .7-.1.3-.1.5-.2.6-.2.8 0 1.4.9 1.7 2.6 0 .3.1.7.1 1.2h.6c.3-1 .5-1.8.6-2.3.5-1.6.9-2.7 1.3-3.3.2-.2.3-.4.6-.4.2 0 .3.1.6.4.1.1.1.2.3.4.4-.6.6-1.3.6-2.2 0-.4 0-.7-.1-.9-.2-.5-.4-.7-.6-.7-.5 0-1.2 1.2-2.2 3.6-.3.8-.7 2-1.2 3.6-.2-1.5-.4-2.5-.7-3.2-.4-1.2-1-1.8-1.7-1.8-.1 0-.2.1-.4.1-.1.2-.3.2-.4.3zm10.8 15.6c-.1.4-.2.7-.3.8-.3.5-.6.8-1 .8-.2 0-.3-.1-.4-.4-.1-.2-.1-.4-.1-.6 0-.5.3-1.5.8-3 .2-.5.4-1.2.8-2.1-.4.6-.9 1.5-1.5 2.8-.6 1.4-1 2.3-1 2.8 0 1.2.4 1.9 1.3 1.9.3 0 .6-.1.8-.3.2-.2.4-.5.5-.9.1-.2.1-.4.2-.7-.1-.4-.1-.8-.1-1.1zm-9.8-7.4l1.3.2c-.6.3-.9.4-1 .5-.1.1-.4.2-.7.5-.4.2-.6.7-.8 1.5 0 .2-.1.5-.1 1 .8 2.3 1.5 4.8 2 7.5.2 1 .3 2.2.5 3.7l.3-4.2c-.2-1.3-.4-2.4-.5-3.1-.4-2.2-.8-3.8-1.1-4.8 1.1-.7 2.5-1 4.2-1l.8-1.5c-.6-.5-1-.8-1.3-1-1-.7-1.7-1-2.2-1-.4.2-.7.6-1.1 1.1 0 .1-.2.3-.3.6zm-41.9-11c-.1.4-.2.6-.3.8-.3.5-.6.7-1 .7-.1 0-.3-.1-.3-.3-.1-.2-.1-.4-.1-.6 0-.4.2-1.4.7-2.8.1-.4.4-1.1.7-2-.4.5-.8 1.4-1.4 2.6-.6 1.3-.9 2.1-.9 2.5 0 1.1.4 1.7 1.2 1.7.3 0 .6-.1.7-.3.2-.2.3-.5.5-.9.1-.2.1-.4.1-.7.1-.2.1-.4.1-.7zm-78-10.6l-2.3 2.3c-1.8 1.5-4.1 2.8-7 3.9-.6.2-3.1.9-7.3 2.2-2.6.7-4.3 1.5-5.2 2.2-.6.5-1.2 1.4-1.6 2.7-.1.4-.2 1-.4 1.7.6-.2 1.1-.4 1.4-.5 1-.4 1.7-.9 2-1.4l.4-1c3.3-1 6.6-2 9.9-3.1 3.4-1.3 5.7-2.5 6.9-3.6.7-.7 1.4-1.8 2.2-3.4.4-.5.7-1.2 1-2zm48.5 10.4c-.3-.1-.5-.2-.7-.2-.2-.1-.3-.1-.3-.2.1-.2.1-.4.2-.6 0-.3.1-.7.1-1.3 0-.7-.1-1.3-.3-1.7-.2-.4-.6-.7-1.1-.7-.2 0-.3 0-.5.1v1.9h.1c.4 0 .6.4.6 1.1v.6c-.2-.2-.5-.3-.7-.5v2l.3.1c-.1.1-.2.2-.3.4v2l.1-.2c.3-.5.6-1.2.8-1.8.5.3.8.4 1 .4.2 0 .5-.4.7-1.4zm-2.7 3v-2c-1.9 2.4-4.3 4.2-7.2 5.6-.5.2-1.1.5-1.9.8l.9.2c1.3-.2 2.7-.6 4.1-1.2 1.1-.4 1.8-.9 2.4-1.3.6-.6 1.2-1.3 1.7-2.1zm0-4.6l-.7-.5c.2-.4.4-.7.7-.7v-1.9c-.5.1-1 .5-1.4 1-.5.7-.8 1.3-.8 1.9 0 .7.3 1.2.8 1.6.4.2.9.5 1.4.7v-2.1zM91.5 40.3c0-1.5-.2-2.7-.7-3.6-.6-.9-1.2-1.9-1.8-2.8.2 0 .5 0 1.1.1.2 0 .4.1.7.2v-.6l-3.4-3.5H87c-.1.5-.2.9-.3 1.2-.2.8-.2 1.3-.2 1.5l.7 2c.2.7 1 2.2 2.3 4.3.5.9.8 1.4.8 1.7 0 .3-.5 1-1.5 2.1-1.2 1.3-2.7 2.6-4.4 3.8-1 .7-1.8 1.1-2.5 1.4-1.3.5-2.6.8-3.9.8-1.4 0-2.5-.5-3.5-1.5S73 45.2 73 43.8c0-.5 0-1 .1-1.3 0-.3.1-.6.2-.9v-1.2c-.4.6-.6 1.3-.8 2.1-.2.8-.2 1.7-.2 2.6 0 2.2.4 3.9 1.3 5.3 1 1.7 2.5 2.5 4.5 2.5 1.6 0 3.2-.4 4.7-1.1 1.1-.5 2.4-1.5 3.9-2.8 1.9-1.6 3.1-3 3.8-4.1.6-1.3 1-2.8 1-4.6zm4.9 6.6l-3-3.2-2.7 2.8 3.1 3.2 2.6-2.8zm-26.2.7c0-.1.1-.3.1-.5.1-.6 0-1.1-.2-1.6s-.4-.9-.7-1.3c-.8-1.1-1.8-1.8-2.9-2.3-.8-.3-1.8-.6-3.1-.7l-1.8-.1-5.4.1c-2.4.1 0 0-1.9 0l-13.1.2c-1.8-.2-3.1-.5-3.8-.8-.5-.3-.7-.5-.7-.9 0-.3.5-.9 1.4-1.7 1.2-1 2.8-2 4.8-3.1 1.5-.8 2.9-1.4 4.1-1.9 1.2-.4 2.1-.6 2.5-.6.3 0 .4.2.5.4.1.2.1.6 0 1.1 0 .3-.1.7-.2 1.1-.1.4-.2.7-.2.9.5-.7.9-1.2 1.2-1.6.8-1.2 1.3-2.1 1.3-2.8.1-.6 0-1.1-.3-1.5-.2-.4-.6-.6-1.2-.7-.9-.1-2.5.3-4.6 1.2-1.4.6-2.9 1.3-4.4 2.2-2.3 1.4-3.9 2.8-4.9 4.4-.7 1-1.1 2.2-1.2 3.5-.1 1.1.1 1.9.5 2.4.5.5 1.3.9 2.6 1 .5 0 1.1.1 1.7.1l13.8-.4h1.3c2.5 0 5-.1 7.4.1 1.2.1 2.3.7 3.3 1.4.7.5 1.7 1.8 1.8 2.8-1.4.4-3.1.1-4.5 0h-8.9l-6.7.1c-2.1 0-4.1 0-6.2.1-2.1 0-3.9 0-5.4-.2-2.1-.5-3.3-2.1-3.4-5.1-.1-2.1-4.1-18.9-.9 4.7.3 2.2 1.9 3.4 4.2 3.7.4 0 1 .1 1.5 0 .9-.1 1.6-.1 2.1-.1 2.2-.1 4.8-.2 7.8-.2l7.3-.1 1.9-.1 5.1.2c1.8 0-1.5-.1 1.8 0H65c.9-.1 1.8-.1 2.8-.2l2.4-3.2zm-23.3-8.2V39c0-.3 0-.5-.1-.6-.3.7-.6 1-.8 1-.2 0-.3-.1-.3-.4-.1-.2-.1-.4-.1-.6 0-.3.1-.7.3-1.2.4-1.1.6-1.7.6-1.9-.4.4-.7 1-1.1 1.8-.3.8-.5 1.4-.6 1.9 0 .4 0 .7.2 1.1.2.3.4.5.7.5.3 0 .5-.1.8-.4.3-.3.4-.6.4-.8zm228.4 15.7l2.6 1.9 1.8-2.8-2.9-2.1-1.9 2.8-2.5-1.9-1.8 2.8 2.9 2.2 1.8-2.9zM170.5 30.5l1.8-2.6-2.6-1.8-2 2.9 2.6 1.9-1.8 2.5 2.6 1.8 2.1-2.9-2.7-1.8zM4.3 36.2c-.1.4-.2.7-.3.8-.3.6-.6.8-1.1.8-.2 0-.3-.1-.4-.4-.1-.2-.1-.4-.1-.6 0-.5.3-1.5.8-3.2.2-.5.4-1.3.8-2.2-.4.6-.9 1.6-1.5 2.9-.6 1.5-1 2.4-1 2.9 0 1.3.4 2 1.3 2 .3 0 .6-.1.8-.3.2-.2.4-.6.5-1 .1-.2.1-.4.2-.8v-.9zM.8 26.6c-.2.1-.5.4-.6.7-.1.3-.2.7-.2 1.1 0 .5.2.8.5.9.2.1.4 0 .6-.1.2-.1.4-.1.5-.1.7 0 1.2.8 1.5 2.4 0 .3.1.6.1 1.1h.5c.2-.9.4-1.6.5-2.1.4-1.5.8-2.5 1.1-3 .1-.2.3-.3.5-.3.1 0 .3.1.5.4 0 .1.1.2.2.3.3-.5.5-1.2.5-2 0-.4 0-.6-.1-.8-.1-.4-.3-.7-.5-.7-.4 0-1.1 1.1-1.9 3.3-.2.7-.6 1.8-1 3.2-.2-1.3-.4-2.3-.6-2.9-.4-1.1-.9-1.6-1.5-1.6h-.3c0 .1-.1.1-.3.2zm127.3-2.1c0-.5-.3-1-.8-1.5-.1-.1-.2-.2-.3-.2v1.1c.1.1.2.1.2.2s.1.2.2.6h-.4v.9h.2c.2 0 .4-.1.6-.2.2-.2.3-.5.3-.9zm-1.1.2h-.4c0-.3.1-.6.1-.9.1.1.2.1.3.2v-1.1c-.3-.3-.7-.4-1-.4h-.2v1.2l.1-.1c.2.1.2.3.2.5v.4l-.3-.1v1.7c.2-.2.4-.4.5-.6h.4c.1 0 .2 0 .3.1v-.9zm-1.2-.4l-.4-.2c.1-.2.2-.3.2-.4l.1-.1v-1.2c-.1 0-.3.1-.4.1-.2.1-.2.2-.2.3.1.1 0 .3-.1.7-.1.3-.2.6-.2.9 0 .4 0 .6.1.6.1.1.3.2.7.3-.6.6-1.6 1.2-2.8 2-1.2.7-2.1 1.1-2.7 1.2.1.1.1.1.2.1 0 0 .2 0 .4-.1.6 0 1.4-.2 2.4-.7.8-.4 1.3-.7 1.7-.9.4-.3.7-.5.9-.8l.1-.1v-1.7zm160-13.5l.4 2.5c.2 1.9.3 4.1.1 6.6 0 .5-.2 2.6-.6 6.2-.2 2.2-.3 3.7-.2 4.6.1.7.3 1.4.7 2.2.1.2.3.5.6.9 0-.6.1-1 .1-1.2 0-.9 0-1.6-.1-2l-.3-.7c.2-2.8.5-5.6.7-8.4.2-2.9.1-5.1 0-6.4-.1-.7-.4-1.7-.8-2.9-.1-.4-.3-.8-.6-1.4zm-12 25.9c-.1.4-.2.6-.3.8-.3.5-.6.7-1 .7-.2 0-.3-.1-.3-.3-.1-.2-.1-.4-.1-.6 0-.4.2-1.3.7-2.8.1-.5.4-1.1.7-2-.4.5-.8 1.4-1.4 2.6-.6 1.3-.9 2.1-.9 2.5 0 1.1.4 1.7 1.2 1.7.3 0 .6-.1.7-.3.2-.2.4-.5.5-.9.1-.2.1-.4.1-.7.1-.1.1-.4.1-.7zM265 13.5c-.3-.1-.5-.2-.7-.2-.2-.1-.3-.1-.3-.3.1-.1.1-.4.2-.6 0-.3.1-.7.1-1.3 0-.7-.1-1.3-.3-1.7-.2-.4-.6-.7-1.1-.7-.2 0-.3 0-.5.1v1.9h.1c.4 0 .6.4.6 1.1v.6c-.2-.2-.5-.3-.7-.5v2.2l.3.1-.3.4v2l.1-.2c.3-.5.6-1.2.8-1.8.5.3.8.4 1 .4.2 0 .5-.5.7-1.5zm-2.7 3.1v-2c-1.9 2.4-4.3 4.2-7.2 5.6-.5.2-1.1.5-1.9.8l.9.2c1.3-.2 2.7-.6 4.1-1.2 1.1-.4 1.8-.9 2.4-1.3.6-.6 1.2-1.3 1.7-2.1zm0-4.6c-.2-.2-.5-.3-.7-.5.2-.4.4-.7.7-.7V8.9c-.5.1-1 .5-1.4 1-.5.7-.8 1.3-.8 1.9 0 .7.3 1.2.8 1.6.4.2.9.5 1.4.7V12zm-67.4-3.6l-2.3 2.3c-1.8 1.5-4.1 2.8-7 3.9-.6.2-3.1.9-7.3 2.2-2.6.7-4.3 1.5-5.2 2.2-.6.5-1.2 1.4-1.6 2.7-.1.4-.2 1-.4 1.7.6-.2 1.1-.4 1.4-.5 1-.4 1.7-.9 2-1.4l.4-1c3.3-1 6.6-2 9.9-3.1 3.3-1.3 5.7-2.5 6.9-3.6.7-.7 1.4-1.8 2.2-3.4.4-.4.7-1.1 1-2zm16 26c-.1.4-.2.6-.3.8-.3.5-.6.7-1 .7-.1 0-.3-.1-.3-.3-.1-.2-.1-.4-.1-.6 0-.4.2-1.3.7-2.8.1-.5.4-1.1.7-2-.4.5-.8 1.4-1.4 2.6-.6 1.3-.9 2.1-.9 2.5 0 1.1.4 1.7 1.2 1.7.3 0 .6-.1.7-.3.2-.2.3-.5.5-.9.1-.2.1-.4.2-.7-.1-.1 0-.4 0-.7zM101.6 7.2l-2.3 2.3c-1.8 1.5-4.1 2.8-7 3.9-.6.2-3.1.9-7.3 2.2-2.6.7-4.3 1.5-5.2 2.2-.6.5-1.2 1.4-1.6 2.7-.1.4-.2 1-.4 1.7.6-.2 1.1-.4 1.4-.5 1-.4 1.7-.9 2-1.4l.4-1c3.3-1 6.6-2 9.9-3.1 3.4-1.3 5.7-2.5 6.9-3.6.7-.7 1.4-1.8 2.2-3.4.3-.4.6-1.1 1-2zm-40.4 5.5l-2.3 2.4c-1.8 1.6-4.1 3-7 4.1-.6.2-3.1 1-7.3 2.3-2.6.8-4.3 1.5-5.2 2.3-.6.5-1.2 1.4-1.6 2.8-.1.4-.2 1-.4 1.8.6-.2 1.1-.4 1.4-.5 1-.5 1.7-1 2-1.5l.4-1c3.3-1.1 6.6-2.1 9.9-3.2 3.4-1.3 5.7-2.6 6.9-3.8.7-.7 1.4-1.9 2.2-3.5.3-.6.6-1.3 1-2.2zM60 32c-.1-.8-.4-1.5-.8-2.3-.5-.8-1.3-1.6-2.2-2.2v2c.4.3.6.6.8.8.6.6 1 1.3 1.1 1.9.1.4.2.8.2 1.2 0 .4.1.8.1 1.2 0 .3 0 .9-.1 1.6-.1.7-.1 1.1-.1 1.2.3-.6.6-1.3.8-2 .2-.7.3-1.5.3-2.3-.1-.4-.1-.8-.1-1.1zm16.3 2.3c-.1.4-.2.6-.3.8-.3.5-.6.7-1 .7-.1 0-.3-.1-.3-.3-.1-.2-.1-.4-.1-.6 0-.4.2-1.4.7-2.8.1-.5.4-1.1.7-2-.4.5-.8 1.4-1.4 2.6-.6 1.3-.9 2.1-.9 2.5 0 1.1.4 1.7 1.2 1.7.3 0 .6-.1.7-.3.2-.2.3-.5.5-.9.1-.2.1-.4.1-.7.1-.1.1-.4.1-.7zm-50.5-14c-.3-.1-.5-.2-.7-.3-.2-.1-.3-.1-.3-.3.1-.2.1-.4.2-.6 0-.3.1-.7.1-1.3 0-.7-.1-1.3-.3-1.8-.2-.4-.6-.7-1.1-.7-.2 0-.3 0-.5.1v2h.1c.4 0 .6.4.6 1.2v.6c-.2-.2-.5-.4-.7-.5V21l.3.2-.5.2v2.1l.1-.2c.3-.6.6-1.2.8-1.9.5.3.8.4 1 .4.4 0 .7-.5.9-1.5zM23 23.5v-2.1c-1.9 2.5-4.3 4.4-7.2 5.9-.5.2-1.1.5-1.9.8l.9.2c1.3-.2 2.7-.6 4.1-1.2 1.1-.5 1.9-.9 2.4-1.4.6-.7 1.2-1.4 1.7-2.2zm0-4.9l-.7-.5c.2-.5.4-.7.7-.7v-2c-.5.1-1 .5-1.4 1.1-.5.7-.8 1.4-.8 2 0 .7.3 1.3.8 1.7.5.3.9.5 1.4.8v-2.4zm6.1 31.8V50c0-.3 0-.5-.1-.6-.3.7-.6 1-.8 1-.2 0-.3-.1-.3-.4-.1-.2-.1-.4-.1-.6 0-.3.1-.7.3-1.2.4-1.1.6-1.7.6-1.9-.4.4-.7 1-1.1 1.8-.3.8-.5 1.4-.6 1.9 0 .4 0 .7.2 1.1.2.3.4.5.7.5.3 0 .5-.1.8-.3.2-.4.3-.6.4-.9zm78.4-11.6c-.1.4-.2.6-.3.8-.3.5-.6.8-1 .8-.2 0-.3-.1-.3-.3-.1-.2-.1-.4-.1-.6 0-.4.2-1.4.7-2.9.1-.5.4-1.2.7-2.1-.4.6-.8 1.5-1.4 2.7-.6 1.3-.9 2.2-.9 2.7 0 1.2.4 1.8 1.2 1.8.3 0 .6-.1.7-.3.2-.2.3-.5.5-.9.1-.2.1-.4.2-.7v-1zm55.7-9.8c-.1.4-.2.6-.3.8-.3.5-.6.7-1 .7-.2 0-.3-.1-.3-.3-.1-.2-.1-.4-.1-.6 0-.4.2-1.3.7-2.8.1-.5.4-1.1.7-2-.4.5-.8 1.4-1.4 2.6-.6 1.3-.9 2.1-.9 2.5 0 1.1.4 1.7 1.2 1.7.3 0 .6-.1.7-.3.2-.2.3-.5.5-.9.1-.2.1-.4.1-.7.1-.1.1-.4.1-.7z"/></svg>