<svg xmlns="http://www.w3.org/2000/svg" viewBox="0 0 26.619 22.29" enable-background="new 0 0 26.619 22.29"><path fill="#fff" d="M.148 17.625c-.1-.077-.148-.148-.148-.215 0-.043.015-.082.048-.115.055-.065.12-.1.197-.1.066 0 .14.024.215.07 1.847 1.046 3.88 1.865 6.11 2.456 2.225.593 4.532.888 6.915.888 1.516 0 3.06-.135 4.635-.405 1.574-.27 3.147-.684 4.715-1.244.11-.044.22-.084.33-.116.11-.035.23-.077.35-.13.11-.047.22-.058.33-.036.11.022.19.07.234.148.03.056.05.117.062.182 0 .13-.063.236-.197.313-.18.13-.364.25-.555.354-.195.106-.38.212-.555.323-1.422.766-2.983 1.34-4.688 1.72-1.704.38-3.356.57-4.96.57-2.537 0-4.914-.413-7.12-1.236-2.21-.82-4.18-1.964-5.92-3.425zM15.62 5.34c0-.323-.003-.656-.016-1-.012-.345-.115-.652-.312-.918-.18-.256-.41-.44-.698-.55-.288-.11-.572-.168-.86-.168h-.215c-.496.044-.947.198-1.35.458-.404.263-.664.655-.786 1.177-.02.11-.07.213-.146.308-.076.095-.176.163-.306.21L8.22 4.512c-.11-.022-.214-.072-.317-.147-.103-.076-.132-.202-.09-.376.154-.72.423-1.326.806-1.815.384-.49.84-.892 1.366-1.202.528-.31 1.1-.54 1.72-.687C12.323.14 12.947.044 13.572 0h.576c.69 0 1.43.096 2.22.286.79.19 1.475.53 2.056 1.02.34.293.595.614.768.956.17.343.285.703.352 1.078.066.375.1.77.1 1.183v5.455c0 .636.11 1.124.327 1.47.218.345.464.672.73.982.085.108.128.222.128.343 0 .12-.054.222-.16.306-.273.24-.625.52-1.058.842s-.794.602-1.082.843c-.2.125-.443.136-.73.03-.456-.365-.77-.65-.95-.85l-.68-.788c-.454.43-.893.775-1.324 1.033-.43.255-.873.448-1.328.575-.604.125-1.28.19-2.02.19-1.173 0-2.156-.332-2.95-.99-.792-.66-1.188-1.65-1.188-2.97 0-1.088.272-1.998.818-2.728.546-.728 1.273-1.275 2.19-1.643.47-.2.97-.353 1.503-.458.534-.106 1.093-.193 1.668-.26.382-.043.746-.077 1.095-.1.348-.022.68-.056.985-.1V5.34h.002zm0 2.52c-.36 0-.725.01-1.083.03-.357.024-.697.07-1.018.136-.586.177-1.086.455-1.508.833-.418.377-.628.933-.628 1.67 0 .586.154 1.06.464 1.416.31.356.734.534 1.274.534.087 0 .167-.008.23-.024.067-.017.122-.026.167-.026.696-.154 1.218-.55 1.572-1.184.32-.48.488-.94.503-1.385.018-.443.024-.927.024-1.45v-.55zm9.125 13.31c-.115.108-.22.142-.316.098-.092-.044-.12-.132-.073-.263l.315-.758c.12-.31.23-.614.336-.916s.176-.575.206-.824c.033-.247.006-.425-.082-.535-.134-.175-.43-.273-.892-.296h-.282c-.376 0-.75.016-1.125.05-.2.043-.39.065-.58.065-.184 0-.356.022-.512.066-.13 0-.208-.04-.23-.116-.02-.077.032-.16.165-.25.343-.22.728-.4 1.158-.543.385-.086.773-.146 1.158-.18.243-.02.467-.034.68-.034.15 0 .306.006.458.017.367.023.667.06.904.115.236.057.394.117.48.182.02.044.044.102.068.173.024.07.037.162.037.27v.135c0 .218-.045.488-.133.807-.085.317-.2.64-.34.963-.14.326-.33.647-.566.966-.242.32-.518.59-.833.81z"/></svg>