<svg xmlns="http://www.w3.org/2000/svg" viewBox="0 0 26.619 22.29" enable-background="new 0 0 26.619 22.29"><path fill="#fff" d="M.148 17.625c-.1-.077-.148-.148-.148-.215 0-.043.015-.082.048-.115.055-.065.12-.1.197-.1.066 0 .14.024.215.07 1.847 1.046 3.88 1.865 6.11 2.456 2.225.595 4.532.89 6.915.89 1.516 0 3.06-.135 4.635-.405 1.574-.27 3.147-.684 4.715-1.244.11-.043.22-.083.33-.115.11-.035.23-.077.35-.13.11-.047.22-.058.33-.036.11.02.19.07.234.147.03.056.05.117.06.182 0 .13-.063.235-.197.312-.18.13-.364.25-.555.355-.196.106-.38.212-.556.323-1.422.766-2.983 1.34-4.688 1.72-1.704.38-3.356.57-4.96.57-2.537 0-4.914-.413-7.12-1.236-2.21-.82-4.18-1.964-5.92-3.425zM15.62 5.34c0-.323-.003-.656-.016-1-.012-.345-.115-.652-.312-.918-.18-.256-.41-.44-.698-.55-.288-.11-.572-.168-.86-.168h-.215c-.498.044-.95.198-1.35.458-.406.263-.666.655-.788 1.177-.02.11-.07.21-.146.306-.076.095-.176.163-.306.21L8.22 4.51c-.11-.02-.214-.07-.317-.146-.103-.076-.132-.202-.09-.376.154-.72.423-1.327.806-1.816C9 1.682 9.46 1.28 9.983.97c.528-.31 1.1-.54 1.72-.687.618-.145 1.242-.24 1.867-.285h.577c.69 0 1.43.096 2.22.286.79.19 1.475.53 2.056 1.02.34.293.595.614.768.956.17.343.286.703.353 1.078.066.375.1.77.1 1.183v5.456c0 .636.11 1.124.327 1.47.22.345.465.672.73.982.086.108.13.222.13.343 0 .12-.055.223-.16.307-.274.24-.626.52-1.06.84s-.793.603-1.08.844c-.2.126-.444.137-.73.03-.457-.364-.77-.65-.95-.85l-.68-.787c-.455.43-.894.775-1.325 1.033-.43.254-.873.447-1.328.574-.604.125-1.28.19-2.02.19-1.173 0-2.156-.332-2.95-.99-.792-.66-1.188-1.65-1.188-2.97 0-1.088.27-1.998.816-2.728.546-.728 1.273-1.275 2.19-1.643.47-.2.97-.354 1.503-.46.533-.105 1.092-.192 1.667-.26.382-.042.746-.076 1.095-.1.348-.02.68-.055.985-.1v-.36h.002zm0 2.52c-.36 0-.725.01-1.083.03-.357.024-.697.07-1.018.136-.588.177-1.088.455-1.51.833-.418.375-.628.93-.628 1.67 0 .584.154 1.06.464 1.414.31.356.734.534 1.274.534.088 0 .168-.01.23-.025.068-.017.123-.026.168-.026.696-.155 1.218-.55 1.572-1.185.32-.48.488-.94.503-1.385.018-.443.024-.927.024-1.45v-.55zm9.125 13.31c-.115.108-.22.142-.316.098-.094-.044-.12-.132-.075-.263l.315-.758c.12-.31.23-.614.337-.916s.176-.573.206-.822c.033-.247.006-.425-.082-.535-.132-.175-.43-.273-.89-.296h-.282c-.376 0-.75.016-1.125.05-.2.043-.39.065-.58.065-.184 0-.356.023-.512.067-.13 0-.207-.04-.23-.117-.02-.076.033-.16.166-.25.343-.22.728-.4 1.158-.542.385-.085.773-.145 1.158-.18.244-.02.468-.033.68-.033.15 0 .307.006.46.017.366.024.666.06.903.116.236.057.394.117.48.182.02.044.044.102.068.173.025.07.038.163.038.27v.136c0 .22-.044.49-.132.808-.085.317-.2.64-.34.963-.14.327-.33.648-.566.967-.243.32-.52.59-.834.81z"/></svg>