<?xml version="1.0" encoding="utf-8"?>
<!-- Generator: Adobe Illustrator 17.1.0, SVG Export Plug-In . SVG Version: 6.00 Build 0)  -->
<!DOCTYPE svg PUBLIC "-//W3C//DTD SVG 1.1//EN" "http://www.w3.org/Graphics/SVG/1.1/DTD/svg11.dtd">
<svg version="1.1" id="Capa_1" xmlns="http://www.w3.org/2000/svg" xmlns:xlink="http://www.w3.org/1999/xlink" x="0px" y="0px"
	 viewBox="0 0 26.619 22.29" enable-background="new 0 0 26.619 22.29" xml:space="preserve">
<path fill="#FFFFFF" d="M0.148,17.625C0.048,17.548,0,17.477,0,17.41c0-0.043,0.015-0.082,0.048-0.115
	c0.055-0.065,0.121-0.099,0.197-0.099c0.066,0,0.139,0.023,0.215,0.068c1.847,1.047,3.881,1.866,6.109,2.457
	c2.226,0.592,4.533,0.887,6.916,0.887c1.516,0,3.059-0.135,4.635-0.405c1.574-0.269,3.147-0.684,4.715-1.244
	c0.109-0.043,0.221-0.083,0.331-0.115c0.109-0.035,0.228-0.077,0.349-0.131c0.109-0.046,0.221-0.057,0.331-0.035
	c0.109,0.022,0.188,0.07,0.233,0.148c0.03,0.056,0.051,0.117,0.063,0.182c0,0.131-0.063,0.236-0.197,0.313
	c-0.179,0.129-0.364,0.25-0.555,0.353c-0.195,0.106-0.379,0.212-0.555,0.323c-1.422,0.766-2.983,1.34-4.688,1.72
	c-1.704,0.381-3.356,0.57-4.959,0.57c-2.538,0-4.915-0.413-7.122-1.236C3.856,20.229,1.886,19.086,0.148,17.625z M15.62,5.341
	c0-0.324-0.003-0.657-0.016-1.002c-0.012-0.344-0.115-0.651-0.312-0.917c-0.179-0.256-0.41-0.44-0.698-0.551
	c-0.288-0.11-0.572-0.167-0.861-0.167h-0.214c-0.495,0.044-0.946,0.198-1.35,0.458c-0.403,0.263-0.663,0.655-0.785,1.177
	c-0.021,0.112-0.069,0.214-0.146,0.309c-0.076,0.095-0.176,0.163-0.306,0.209L8.219,4.513C8.11,4.491,8.006,4.441,7.903,4.366
	C7.8,4.29,7.771,4.164,7.812,3.99c0.155-0.719,0.424-1.326,0.807-1.815c0.385-0.491,0.84-0.892,1.367-1.202
	c0.528-0.311,1.1-0.539,1.719-0.687C12.324,0.139,12.948,0.044,13.573,0h0.576c0.691,0,1.431,0.096,2.222,0.286
	c0.789,0.19,1.474,0.531,2.055,1.021c0.34,0.292,0.595,0.613,0.768,0.955c0.17,0.343,0.285,0.703,0.352,1.078
	c0.066,0.375,0.099,0.77,0.099,1.183v1.285v4.171c0,0.635,0.11,1.123,0.328,1.468c0.218,0.346,0.464,0.673,0.73,0.983
	c0.085,0.108,0.128,0.222,0.128,0.343c0,0.119-0.055,0.222-0.161,0.306c-0.273,0.241-0.625,0.522-1.058,0.843
	s-0.794,0.602-1.082,0.843c-0.2,0.125-0.443,0.136-0.731,0.031c-0.455-0.366-0.77-0.652-0.949-0.852l-0.679-0.787
	c-0.455,0.431-0.894,0.775-1.325,1.033c-0.431,0.255-0.873,0.448-1.328,0.575c-0.604,0.125-1.279,0.189-2.02,0.189
	c-1.173,0-2.156-0.331-2.95-0.99c-0.792-0.66-1.188-1.649-1.188-2.968c0-1.089,0.272-1.999,0.818-2.729
	c0.546-0.728,1.273-1.275,2.189-1.643c0.47-0.2,0.97-0.353,1.504-0.458c0.533-0.106,1.092-0.193,1.667-0.26
	c0.382-0.043,0.746-0.077,1.095-0.1c0.348-0.022,0.679-0.056,0.985-0.1V5.341H15.62z M15.62,7.859c-0.361,0-0.725,0.011-1.083,0.032
	c-0.357,0.023-0.697,0.068-1.018,0.135c-0.585,0.177-1.085,0.455-1.507,0.833c-0.418,0.378-0.628,0.934-0.628,1.67
	c0,0.587,0.154,1.061,0.464,1.417c0.31,0.356,0.734,0.534,1.274,0.534c0.087,0,0.167-0.008,0.23-0.024
	c0.067-0.017,0.122-0.026,0.167-0.026c0.697-0.154,1.219-0.549,1.573-1.184c0.319-0.479,0.488-0.94,0.503-1.385
	c0.018-0.444,0.024-0.928,0.024-1.451V7.859H15.62z M24.745,21.169c-0.115,0.109-0.221,0.143-0.316,0.099
	c-0.091-0.044-0.118-0.132-0.072-0.263l0.315-0.758c0.121-0.309,0.23-0.614,0.336-0.916s0.176-0.576,0.206-0.825
	c0.033-0.247,0.006-0.425-0.082-0.535c-0.134-0.176-0.431-0.274-0.892-0.297c-0.088,0-0.182,0-0.282,0
	c-0.376,0-0.751,0.016-1.125,0.05c-0.2,0.043-0.391,0.065-0.579,0.065c-0.185,0-0.357,0.023-0.513,0.067
	c-0.13,0-0.209-0.04-0.23-0.116c-0.021-0.077,0.031-0.161,0.164-0.249c0.343-0.22,0.728-0.4,1.158-0.544
	c0.385-0.086,0.773-0.146,1.158-0.18c0.242-0.021,0.466-0.034,0.679-0.034c0.151,0,0.306,0.006,0.458,0.017
	c0.367,0.023,0.667,0.061,0.904,0.115c0.236,0.057,0.394,0.117,0.479,0.182c0.021,0.044,0.045,0.102,0.069,0.173
	c0.024,0.071,0.037,0.162,0.037,0.271v0.134c0,0.218-0.045,0.488-0.133,0.807c-0.085,0.317-0.2,0.639-0.34,0.963
	c-0.139,0.326-0.33,0.647-0.566,0.966C25.336,20.679,25.06,20.95,24.745,21.169z"/>
</svg>
