<?xml version="1.0" encoding="utf-8"?>
<!-- Generator: Adobe Illustrator 17.1.0, SVG Export Plug-In . SVG Version: 6.00 Build 0)  -->
<!DOCTYPE svg PUBLIC "-//W3C//DTD SVG 1.1//EN" "http://www.w3.org/Graphics/SVG/1.1/DTD/svg11.dtd">
<svg version="1.1" id="Layer_1" xmlns="http://www.w3.org/2000/svg" xmlns:xlink="http://www.w3.org/1999/xlink" x="0px" y="0px"
	 viewBox="280 80 400 400" enable-background="new 280 80 400 400" xml:space="preserve">
<path fill="#FFFFFF" d="M589.177,292.535c-0.506-50.656,41.311-74.951,43.18-76.158c-23.496-34.383-60.098-39.094-73.14-39.637
	c-31.148-3.154-60.779,18.339-76.588,18.339c-15.769,0-40.164-17.872-65.997-17.402c-33.951,0.505-65.256,19.742-82.738,50.148
	c-35.275,61.211-9.034,151.89,25.348,201.533c16.8,24.299,36.833,51.592,63.135,50.617c25.328-1.011,34.906-16.391,65.529-16.391
	c30.623,0,39.23,16.391,66.035,15.887c27.256-0.506,44.523-24.766,61.208-49.139c19.292-28.191,27.236-55.484,27.705-56.884
	C642.248,373.172,589.705,353.042,589.177,292.535L589.177,292.535z M538.81,143.875c13.961-16.935,23.383-40.433,20.812-63.875
	c-20.108,0.819-44.482,13.394-58.909,30.293c-12.945,14.991-24.277,38.916-21.24,61.889
	C501.92,173.933,524.835,160.774,538.81,143.875L538.81,143.875z"/>
</svg>
