<svg xmlns="http://www.w3.org/2000/svg" viewBox="280 80 400 400" enable-background="new 280 80 400 400"><path fill="#fff" d="M589.177 292.535c-.506-50.656 41.31-74.95 43.18-76.158-23.496-34.383-60.098-39.094-73.14-39.637-31.148-3.154-60.78 18.34-76.588 18.34-15.77 0-40.166-17.873-66-17.403-33.95.505-65.255 19.742-82.737 50.148-35.275 61.21-9.034 151.89 25.348 201.533 16.8 24.3 36.834 51.592 63.136 50.617 25.328-1.01 34.906-16.39 65.53-16.39 30.622 0 39.23 16.39 66.034 15.886 27.257-.504 44.524-24.764 61.21-49.137 19.29-28.19 27.235-55.484 27.704-56.884-.606-.277-53.15-20.407-53.677-80.914zm-50.367-148.66c13.96-16.935 23.383-40.433 20.812-63.875-20.108.82-44.482 13.394-58.91 30.293-12.944 14.99-24.276 38.916-21.24 61.89 22.448 1.75 45.363-11.41 59.338-28.308z"/></svg>