<?xml version="1.0" encoding="utf-8"?>
<!-- Generator: Adobe Illustrator 17.1.0, SVG Export Plug-In . SVG Version: 6.00 Build 0)  -->
<!DOCTYPE svg PUBLIC "-//W3C//DTD SVG 1.1//EN" "http://www.w3.org/Graphics/SVG/1.1/DTD/svg11.dtd">
<svg version="1.1" id="Layer_1" xmlns="http://www.w3.org/2000/svg" xmlns:xlink="http://www.w3.org/1999/xlink" x="0px" y="0px"
	 viewBox="0 0 400 400" enable-background="new 0 0 400 400" xml:space="preserve">
<g>
	<polygon fill="#FFFFFF" points="72.912,311.586 0,311.586 0,289.493 72.912,289.493 72.912,311.586 	"/>
	<polygon fill="#FFFFFF" points="72.912,282.87 0,282.87 0,260.767 72.912,260.767 72.912,282.876 	"/>
	<polygon fill="#FFFFFF" points="72.912,254.15 0,254.15 0,232.03 72.912,232.03 72.912,254.144 	"/>
	<polygon fill="#FFFFFF" points="72.912,225.412 0,225.412 0,203.325 72.912,203.325 72.912,225.418 	"/>
	<rect x="0" y="174.593" fill="#FFFFFF" width="72.912" height="22.093"/>
	<polygon fill="#FFFFFF" points="154.697,311.597 81.758,311.597 81.758,289.493 154.697,289.493 154.697,311.586 	"/>
	<polygon fill="#FFFFFF" points="154.697,282.881 81.758,282.881 81.758,260.778 154.697,260.778 154.697,282.887 	"/>
	<polygon fill="#FFFFFF" points="154.697,254.161 81.758,254.161 81.758,232.03 154.697,232.03 154.697,254.144 	"/>
	<polygon fill="#FFFFFF" points="236.461,311.602 163.539,311.602 163.539,289.493 236.467,289.493 236.467,311.586 	"/>
	<polygon fill="#FFFFFF" points="236.461,282.887 163.539,282.887 163.539,260.783 236.467,260.783 236.467,282.892 	"/>
	<polygon fill="#FFFFFF" points="236.461,254.166 163.539,254.166 163.539,232.03 236.467,232.03 236.467,254.144 	"/>
	<polygon fill="#FFFFFF" points="236.461,225.429 163.539,225.429 163.539,203.325 236.467,203.325 236.467,225.418 	"/>
	<polygon fill="#FFFFFF" points="236.461,196.702 163.539,196.702 163.539,174.61 236.467,174.61 236.467,196.702 	"/>
	<polygon fill="#FFFFFF" points="236.461,167.97 163.539,167.97 163.539,145.878 236.467,145.878 236.467,167.976 	"/>
	<polygon fill="#FFFFFF" points="236.461,139.255 163.539,139.255 163.539,117.152 236.467,117.152 236.467,139.255 	"/>
	<polygon fill="#FFFFFF" points="318.225,311.619 245.303,311.619 245.303,289.493 318.231,289.493 318.231,311.586 	"/>
	<polygon fill="#FFFFFF" points="318.225,282.903 245.303,282.903 245.303,260.8 318.231,260.8 318.231,282.909 	"/>
	<polygon fill="#FFFFFF" points="318.225,254.182 245.303,254.182 245.303,232.03 318.231,232.03 318.231,254.144 	"/>
	<polygon fill="#FFFFFF" points="318.225,225.445 245.303,225.445 245.303,203.325 318.231,203.325 318.231,225.418 	"/>
	<polygon fill="#FFFFFF" points="318.225,196.719 245.303,196.719 245.303,174.626 318.231,174.626 318.231,196.719 	"/>
	<polygon fill="#FFFFFF" points="400,311.586 327.072,311.586 327.072,289.493 400,289.493 400,311.586 	"/>
	<polygon fill="#FFFFFF" points="400,282.87 327.072,282.87 327.072,260.767 400,260.767 400,282.876 	"/>
	<polygon fill="#FFFFFF" points="400,254.133 327.072,254.133 327.072,232.03 400,232.03 400,254.128 	"/>
	<polygon fill="#FFFFFF" points="400,225.412 327.072,225.412 327.072,203.314 400,203.314 400,225.418 	"/>
	<polygon fill="#FFFFFF" points="400,196.686 327.072,196.686 327.072,174.566 400,174.566 400,196.675 	"/>
	<rect x="327.072" y="145.856" fill="#FFFFFF" width="72.928" height="22.093"/>
	<rect x="327.072" y="117.124" fill="#FFFFFF" width="72.928" height="22.093"/>
	<polygon fill="#FFFFFF" points="327.072,110.474 327.072,88.381 400,88.381 400,110.479 327.072,110.479 	"/>
</g>
</svg>
