<svg xmlns="http://www.w3.org/2000/svg" viewBox="1191.5 225.6 385 108.9" enable-background="new 1191.5 225.6 385 108.9"><path fill="#fff" d="M1191.5 252h7.5v7.5h-7.5V252zm0 10h7.5v27.5h-7.5V262zm36.3 27.5h-7.5v-18.8s0-2.4-2.6-2.4h-8.7v21.2h-7.5V262h18.8c7.5 0 7.5 7.5 7.5 7.5v20zm16.2 0h-6.3c-7.5 0-7.5-7.5-7.5-7.5v-30h7.5v9.9h7.5l-3.8 6.3h-3.8v12.5s0 2.6 2.6 2.6h3.8v6.2zm2.6-27.5h18.8c7.5 0 7.5 7.5 7.5 7.5v8.7h-18.8v2.6s0 2.6 2.6 2.6h12.5l3.8 6.3h-18.8c-7.5 0-7.5-7.5-7.5-7.5V262zm7.5 6.3v3.8h11.3v-1.2c0-2.4-2.6-2.4-2.6-2.4h-8.7v-.2zm47.6 21.2h-18.8c-7.5 0-7.5-7.5-7.5-7.5v-10h18.8v-1.2s0-2.4-2.6-2.4h-12.5l-3.8-6.3h18.8c7.5 0 7.5 7.5 7.5 7.5v19.9h.1zm-7.6-6.3v-5h-11.3v2.6c0 2.6 2.6 2.6 2.6 2.6h8.7v-.2zm47.4 6.3h-7.5v-18.8s0-2.4-2.6-2.4h-5v21.2h-7.5v-21.2h-7.4v21.2h-7.5V262h29.9c7.5 0 7.5 7.5 7.5 7.5v20zm-74.4 14.9h-1.9s-.2 0-.2-.2l-1.5-4.4s0-.2-.2-.2h-1.5c-.2 0-.2 0-.2.2v4.3c0 .2 0 .2-.2.2h-1.7c-.2 0-.2 0-.2-.2v-10.8c0-.2 0-.2.2-.2h3.9c2.1 0 3.3 1.4 3.3 3.3v.2c0 .9-.7 1.9-1.4 2.4v.2s0 .2.2.3l1.5 4.4c0 .2.2.2.2.3-.1 0-.3.2-.3.2zm-2-8.1c0-.7-.5-1.2-1.2-1.2h-1.9c-.2 0-.2 0-.2.2v2.2c0 .2 0 .2.2.2h1.9c.5 0 1.2-.5 1.2-1.4zm13.8 8.1h-6.2c-.2 0-.2 0-.2-.2v-10.8c0-.2 0-.2.2-.2h6.2c.2 0 .2 0 .2.2v1.5c0 .2 0 .2-.2.2h-4.1c-.2 0-.2 0-.2.2v2.2c0 .2 0 .2.2.2h3.4c.2 0 .2 0 .2.2v1.5c0 .2 0 .2-.2.2h-3.4c-.2 0-.2 0-.2.2v2.6c0 .2 0 .2.2.2h4.1c.2 0 .2 0 .2.2v1.5l-.2.1zm12.2-1.4c-.5.9-1.4 1.4-2.7 1.4h-.9c-2.1 0-3.3-1.4-3.3-3.1V296c0-1.9 1.2-3.1 3.3-3.1h.9c1.5 0 2.2.7 2.7 1.5.2.3.3.5.3.7 0 0 0 .2-.2.2l-1.4.7-.2.2s-.2 0-.2-.2c-.3-.7-.7-1-1.2-1h-.9c-.7 0-1.2.5-1.2 1.2v5.3c0 .7.5 1.2 1.2 1.2h.9c.5 0 .9-.3 1.2-1 0 0 0-.2.2-.2 0 0 .2 0 .2.2l1.4.7s.2 0 .2.2c0-.1-.2.2-.3.4zm9.2 1.5h-.9c-2.1 0-3.3-1.4-3.3-3.1v-5.3c0-1.9 1.2-3.1 3.3-3.1h.9c2.1 0 3.3 1.4 3.3 3.1v5.3c.1 1.8-1.2 3.1-3.3 3.1zm1.4-8.3c0-.7-.5-1.2-1.2-1.2h-.9c-.7 0-1.2.5-1.2 1.2v5.3c0 .7.5 1.2 1.2 1.2h.9c.7 0 1.2-.5 1.2-1.2v-5.3zm14.9 8.2h-1.9s-.2 0-.2-.2l-1.5-4.4s0-.2-.2-.2h-1.5c-.2 0-.2 0-.2.2v4.3c0 .2 0 .2-.2.2h-1.7c-.2 0-.2 0-.2-.2v-10.8c0-.2 0-.2.2-.2h3.9c2.1 0 3.3 1.4 3.3 3.3v.2c0 .9-.7 1.9-1.4 2.4v.2s0 .2.2.3l1.5 4.4c0 .2.2.2.2.3 0 0-.2.2-.3.2zm-1.9-8.1c0-.7-.5-1.2-1.2-1.2h-1.9c-.2 0-.2 0-.2.2v2.2c0 .2 0 .2.2.2h1.9c.5 0 1.2-.5 1.2-1.4zm11.4 8.1h-3.9c-.2 0-.2 0-.2-.2v-10.8c0-.2 0-.2.2-.2h3.9c2.1 0 3.3 1.4 3.3 3.3v4.4c0 2.1-1.2 3.5-3.3 3.5zm1.4-8.1c0-.7-.5-1.2-1.2-1.2h-1.9c-.2 0-.2 0-.2.2v7c0 .2 0 .2.2.2h1.9c.7 0 1.2-.5 1.2-1.2v-5zm10.8 8.2h-.7c-1.5 0-2.2-.7-2.7-1.4-.2-.2-.3-.5-.3-.7l.2-.2 1.4-.7.2-.2s.2 0 .2.2c.3.7.7 1 1.2 1h.7c.7 0 1.2-.5 1.2-1.2 0-1-.9-1.4-1.9-1.7-1.4-.7-2.9-1.4-2.9-3.4 0-1.9 1.2-3.1 3.3-3.1h.3c1.5 0 2.2.7 2.7 1.5.2.3.3.5.3.7 0 0 0 .2-.2.2l-1.4.7-.2.2s-.2 0-.2-.2c-.3-.7-.7-1-1.2-1h-.3c-.7 0-1.2.5-1.2 1.2 0 .9 1 1.2 2.1 1.7 1.4.7 2.7 1.4 2.7 3.6-.1 1.5-1.3 2.8-3.3 2.8zM1398.4 273.3c-3.3 0-6.2-.8-8.3-2.9-1.7-1.2-2.5-3.3-2.5-5 0-2.1.8-3.7 2.5-5 2.1-1.7 5.4-2.9 8.3-2.9 3.3 0 6.2.8 8.3 2.9 1.7 1.2 2.1 3.3 2.1 5 0 1.7-.8 3.7-2.1 5-1.7 2.1-5 2.9-8.3 2.9v-2.1c1.7 0 3.3-.4 4.5-1.7 1.2-1.2 1.7-2.5 1.7-4.1 0-1.7-.4-3.3-1.7-4.1-1.2-1.2-2.9-1.7-4.5-1.7-1.7 0-3.3.4-4.5 1.7-1.2 1.2-1.7 2.5-1.7 4.1 0 1.7.4 2.9 1.7 4.1 1.2 1.2 2.9 1.7 4.5 1.7v2.1zm-24-16.1c-1.7 0-3.7.4-5.4 1.2-1.7.8-2.9 1.7-2.9 3.7 0 1.7 1.2 2.5 1.2 2.5.4.4 1.2 1.2 2.9 1.7.8 0 2.5.4 4.5.8 1.7 0 3.7.4 4.1.4s1.7.4 1.7 1.2c0 1.2-.8 1.2-1.2 1.7 0 0-1.2.8-3.7.8-1.7 0-3.7-.4-4.1-.8-.8-.4-1.7-.8-2.5-1.7 0-.4-.4-.8-.4-1.7h-2.1v5.8h2.1v-.8s0-.4.4-.4 1.7.8 3.3 1.2c1.2.4 2.1.4 3.3.4 2.5 0 3.7-.4 4.5-.4l2.5-1.2c.4-.4 1.2-1.2 1.2-2.9s-.8-2.5-1.2-2.9c-.4-.4-.8-.8-1.2-.8-.4 0-1.2-.4-1.7-.4-1.2-.4-3.7-.8-5-.8s-3.7-.4-4.5-.4c-.4 0-.8-.4-.8-.8s.4-.8.8-1.2c.8-.4 2.5-.8 4.1-.8 2.1 0 3.7.4 4.5.8.4 0 .8.4 1.2.8.4.4.8.8 1.2 1.7h1.7v-5h-2.1v.4s0 .4-.4.4c-.2-1.3-2.7-2.1-6-2.5zm36.8 1.2v1.7h1.7c1.2 0 1.2.4 1.2 1.2v8.3c0 .4 0 1.2-.8 1.2h-2.1v1.7h8.3v-1.7h-2.1c-.8 0-.8-.4-.8-1.2v-7l11.2 9.9h2.9v-11.2c0-.8 0-1.2.8-1.2h1.7v-1.7h-8.3v1.7h1.7c.8 0 .8.4.8 1.2v5.8l-9.5-8.7h-6.7zm29.7 12.4v1.7h9.5v-1.7h-2.1s-.4 0-.4-.4v-3.7s5-5.8 5.4-6.2c.4-.4.8-.8 1.2-.8h1.7V258h-7.9v1.7h1.2c.4 0 .4.4.4.4l-3.3 4.1-3.3-4.1c-.4-.4 0-.4.4-.4h1.2V258h-9.9v1.7h1.7c.8 0 1.2.4 1.7.8.4.4 5.4 5.8 5.4 6.2v3.7s0 .4-.4.4h-2.5zm132.7-3.3c-.4 1.2-1.2 2.5-2.5 2.9-.8.4-2.1.8-4.1.8h-1.2c-1.2-.4-2.1-.8-2.9-1.7-1.2-1.2-1.7-2.5-1.7-4.1 0-1.7.4-2.9 1.7-4.1 1.2-1.2 2.9-1.7 4.5-1.7h.4c1.7 0 2.9.4 4.1.8.8.4 2.1 1.7 2.5 2.9h2.1V258h-2.1v.8h-.4c-.8-.4-3.3-1.7-6.2-1.7h-.4c-2.9 0-6.2 1.2-7.9 2.9l-1.2 1.2c-.8 1.2-1.2 2.5-1.2 3.7v.4c0 1.7.8 3.3 2.1 4.5 1.7 1.7 4.1 2.5 6.6 2.9s5 0 7-1.2c1.7-.8 2.9-2.5 3.3-4.5h-2.5v.5zm-88.8-9.1l-4.1 9.1-4.1-9.1h-9.1v1.7h1.7c1.2 0 1.2.4 1.2 1.2v8.3c0 .4 0 1.2-.8 1.2h-2.1v1.7h7.9v-1.7h-1.7c-.8 0-.8-.4-.8-1.2v-9.1l5.4 12h2.9l5.4-12v9.1c0 .8 0 1.2-.8 1.2h-1.7v1.7h9.5v-1.7h-2.1c-.8 0-.8-.8-.8-1.2v-8.3c0-.4 0-1.2 1.2-1.2h1.7v-1.7h-8.8zm25.6 1.7h1.7c.8 0 .8.4.8.8v7c0 1.7-.4 3.3-5 3.3-4.1 0-4.1-2.9-4.1-3.3v-7c0-.8 0-.8.8-.8h1.7v-1.7h-9.9v1.7h1.7c.8 0 .8.4.8 1.2v7c0 4.5 4.5 5.4 8.7 5.4s8.3-.8 8.3-5.4v-7.4c0-.4 0-.8.8-.8h1.7v-1.7h-8.3v1.7h.3zm40.5 10.3s-.4 0 0 0l-.4-.8v-9.5s0-.4.4-.4h2.1V258h-9.9v1.7h2.1s.4 0 .4.4v9.9s0 .4-.4.4h-2.1v1.7h9.9v-1.7h-2.1zm-12.4-4.9c-.4-.4-.8-.8-1.2-.8-.4-.4-1.2-.4-1.7-.4-1.2-.4-3.7-.8-5-.8-1.2 0-3.7-.4-4.5-.8-.4 0-.8-.4-.8-1.2 0-.4.4-.8.8-1.2.8-.4 2.5-.8 4.1-.8 2.1 0 3.7.4 4.5.8.4 0 .8.4 1.2.8.4.4.8.8 1.2 1.7h1.7v-5h-2.1v.4s0 .4-.4.4c-.8-.4-3.3-1.7-6.6-1.7-1.7 0-3.7.4-5.4 1.2-1.7.8-2.9 1.7-2.9 3.7 0 1.7 1.2 2.5.8 2.5.4.4 1.2 1.2 3.3 1.7.8.4 2.9.4 4.5.8 1.7 0 3.7.4 4.1.4s1.7.4 1.7 1.7c0 1.2-.8 1.2-1.2 1.7 0 0-1.2.8-3.7.8-1.7 0-3.7-.4-4.1-.8-.8-.4-1.7-.8-2.5-1.7-.4-.4-.4-.8-.4-1.7h-2.1v5.8h2.1v-.8s0-.4.4-.4 1.7.8 3.3 1.2c1.2.4 2.1.4 3.3.4 2.5 0 3.7-.4 4.5-.4l2.5-1.2c.4-.4 1.2-1.2 1.2-2.9.6-2.2-.2-3-.6-3.4zM1377.7 284.1h2.1v2.1c.8-1.7 2.5-2.5 4.1-2.5 2.1 0 3.7.8 5 2.5l.4.4s0-.4.4-.4c1.2-1.7 2.9-2.5 5-2.5 1.7 0 3.3.8 4.5 2.5 1.2 1.2 1.2 2.9 1.2 4.5v8.7h-2.1v-8.7c0-1.2 0-2.5-.8-3.3-.8-1.2-2.1-1.7-3.3-1.7s-2.5.8-3.3 1.7c-.8.8-.8 2.1-.8 3.3v8.7h-2.1v-8.7c0-1.2 0-2.1-.8-2.9-.8-1.2-2.1-1.7-3.3-1.7s-2.5.4-3.3 1.7c-.8.8-.8 2.1-.8 3.3v8.7h-2.1v-15.7zm41.7 14.9h-2.1v-2.9c-1.2 2.1-3.3 3.3-5.8 3.3s-5-.8-6.6-3.3c-.4-.4-1.7-2.5-1.7-5 0-2.1.8-4.1 1.7-4.5 2.5-2.5 4.5-3.3 6.6-3.3 2.5 0 5 1.2 5.8 3.3v-2.9h2.1V299zm-14-7.5c0 3.3 2.9 5.8 6.2 5.8 3.3 0 5.8-2.9 5.8-5.8 0-3.3-2.5-6.2-5.8-6.2-3.7 0-6.2 2.9-6.2 6.2zm18.2-12.8h2.1v14.5l7-9.1h2.5l-5.8 7.9 6.2 7.4h-2.5l-5-6.2-2.5 3.3v2.9h-2.1v-20.7zm14.4 13.6c0 2.9 2.9 5.4 5.8 5.4 2.1 0 4.5-1.2 5.4-3.3h2.1c-1.2 2.9-4.1 5.4-7.4 5.4-4.5 0-7.9-3.7-7.9-7.9 0-4.5 3.3-7.9 7.9-7.9 2.5 0 4.5 1.2 6.2 2.9 1.2 1.7 1.7 3.7 1.7 5.8H1438v-.4zm11.6-2c-.4-2.9-2.9-5-5.8-5s-5.4 2.1-5.8 5h11.6zM1467.8 278.7h2.1v8.3c.8-2.1 3.7-3.3 5.8-3.3 4.5 0 8.3 3.3 8.3 7.9 0 2.1-.8 4.1-1.7 5-2.1 2.5-4.1 2.9-6.2 2.9s-5-.8-6.2-2.9v2.5h-2.1v-20.4zm3.3 8.7c-1.2 1.2-1.7 2.5-1.7 4.1 0 3.3 2.9 5.8 6.2 5.8s5.8-2.9 5.8-6.2-2.9-5.8-6.2-5.8c-1.2 0-2.8.8-4.1 2.1zm17.4 4.9c0 2.9 2.9 5.4 5.8 5.4 2.1 0 4.5-1.2 5.4-3.3h2.1c-1.2 2.9-4.1 5.4-7.4 5.4-4.5 0-7.9-3.7-7.9-7.9 0-4.5 3.3-7.9 7.9-7.9 2.5 0 4.5 1.2 6.2 2.9 1.2 1.7 1.7 3.7 1.7 5.8h-13.6v-.4zm11.6-2c-.4-2.9-2.9-5-5.8-5s-5.4 2.1-5.8 5h11.6zm5.3-11.6h2.1v20.7h-2.1v-20.7zm6.2 0h2.1v3.7h-2.1v-3.7zm0 5.4h2.1v15.3h-2.1v-15.3zm7.5 8.2c0 2.9 2.9 5.4 5.8 5.4 2.1 0 4.5-1.2 5.4-3.3h2.1c-1.2 2.9-4.1 5.4-7.4 5.4-4.5 0-7.9-3.7-7.9-7.9 0-4.5 3.3-7.9 7.9-7.9 2.5 0 4.5 1.2 6.2 2.9 1.2 1.7 1.7 3.7 1.7 5.8h-13.6l-.2-.4zm11.5-2c-.4-2.9-2.9-5-5.8-5s-5.4 2.1-5.8 5h11.6zm2.9-6.2h2.1l5.4 12.8 5.4-12.8h2.1l-6.6 15.3h-2.1l-6.3-15.3zm17.8 8.2c0 2.9 2.9 5.4 5.8 5.4 2.1 0 4.5-1.2 5.4-3.3h2.1c-1.2 2.9-4.1 5.4-7.4 5.4-4.5 0-7.9-3.7-7.9-7.9 0-4.5 3.3-7.9 7.9-7.9 2.5 0 4.5 1.2 6.2 2.9 1.2 1.7 1.7 3.7 1.7 5.8h-13.6l-.2-.4zm11.6-2c-.4-2.9-2.9-5-5.8-5s-5.4 2.1-5.8 5h11.6zM1462 296.5c0 1.7-1.2 2.9-2.9 2.9s-2.9-1.2-2.9-2.9 1.2-2.9 2.9-2.9 2.9 1.2 2.9 2.9z"/></svg>