<svg xmlns="http://www.w3.org/2000/svg" viewBox="1206.6 225.6 68.2 109.9" enable-background="new 1206.6 225.6 68.2 109.9"><path d="M1274.7 293.7c-9.8 5.1-19.6 10.1-29.7 15.3-1.4.7-3.2 2.1-4.4 2.1-1.2 0-3.1-1.4-4.4-2.1-9.9-5.3-19.9-10.1-29.7-15.3.8-1 2-1.7 3.2-2.5 2.2-1.5 4.6-2.7 6.6-4.6 1-.9 2-1.9 2.3-3.2.6-2.5-.5-5.2-1.5-7-1-1.9-2.4-3.7-3.4-5.2-2.5-3.6-4.2-7.4-3.7-13.5.3-3.7 2.5-7 4.6-9.4 2.3-2.5 4.9-4.5 7.5-6.3 5.5-4.1 11.2-7.2 17.7-10 1.4-.6 3.4.9 4.5 1.4 3.8 1.8 7.5 3.8 10.8 5.9 4.1 2.5 8.4 5.4 12.2 9.9 1.8 2.1 3.2 4.5 3.8 7.4.6 3.2.1 7.2-.9 9.8-1 2.6-2.7 4.8-4.2 6.9-1.6 2.2-3.3 4.5-3.5 7.6-.2 2.5.5 3.7 1.6 5 2.6 2.9 7.2 4.7 10.2 7.4.2 0 .6.1.4.4zm-12.6-9.3c-.9-2-.5-5.1.3-7 1.3-3.2 3.5-5.3 5.5-8.3 1.8-2.8 2.8-6.8 2.5-11.4-.5-6.8-7.9-12.3-12.1-15.3-4.3-3-10-6.2-15.3-8.6-.9-.4-2.1-1.2-3-.8-6.4 2.8-11.7 5.6-17.2 9.5-2.4 1.7-5 3.7-7.2 6.1-2 2.3-4.3 5.4-4.6 8.8-.5 5.9 1.1 9.8 3.5 13.3 1 1.5 2.3 3.1 3.4 5 1 1.7 2 4.1 1.8 6.7-.3 3.6-3.3 5.5-5.7 7-2 1.3-4.1 2.7-5.9 4.1 9.3 4.7 18.8 9.9 28.2 14.7 1 .5 3.4 2 4.3 1.9.5 0 1.2-.6 2-1 10.3-5.2 20.5-10.5 30.3-15.8-3-2.8-8.9-4.7-10.8-8.9zm6.3 9.1c-8 3.9-16 7.8-24.1 11.8-1 .5-2.7 1.6-3.5 1.7-.9 0-2.5-1.1-3.6-1.7-8-4-16.2-8-24.1-11.8 0-.3.4-.7.6-.9.8-.7 1.8-1.4 2.8-2.1 3-2.1 6.4-3.9 6.5-9.1.1-3.9-1.8-6.7-3.5-9.2-2.4-3.7-4.2-6.9-3.6-13.3.3-3.1 2.1-5.8 3.8-7.9 1.8-2.2 4-4 6-5.6 4.5-3.5 9.1-6.4 14.5-8.7 1.1-.5 3.3.9 4.6 1.7 3.9 2.1 7.8 4.4 11 6.9 2 1.7 4.2 3.6 6.1 5.9 1.7 2.1 3.6 5 3.8 8.1.3 3.1-.1 6.4-1.1 8.7-1.4 3.5-4.4 5.9-5.5 9.6-1.4 4.2-.1 8.3 2.3 10.3 2 2.1 5.3 3.4 7 5.6zm-42.2-46.7c-1.9 1.4-4.1 3.4-5.8 5.5-1.8 2.1-3.3 4.8-3.4 8-.1 2.4.1 4.6.8 6.6 1.6 4.9 6.5 8.3 6.5 14.7 0 3.2-1.6 6.3-4 8.2-1.7 1.4-3.4 1.9-4.9 3.6 8.5 4.1 16.8 8.3 25.3 12.4 8.4-4.1 16.7-8.3 25.2-12.4-1.6-1.7-4.2-2.7-6-4.5-1.6-1.7-2.8-4.1-2.9-6.9-.3-8.1 6.6-11 7.2-18.7.4-5.9-1.4-8.5-4.1-11.6-5.2-6.1-12.3-9.9-19.3-13.6h-.2c-5.1 2.5-9.9 5.2-14.4 8.7zm10 13.1c1.4 3.4 2.9 6.8 4.3 10.3.7-.7.8-1.7 1.2-2.6 1-2.4 2.3-5.1 3.3-7.8 3.5.1 7.2-.1 10.4.1-.1.6-1 .3-1.3.8-.5 8.1-.1 17.2-.1 25.3.3.3 1.2.2 1.4.6-.1.6-.8.3-1.2.3-3.2.1-7.2 0-10.4-.1-.1-.8.9-.5 1.3-.8v-10c-1.1 2.6-2.5 5.5-3.6 8.4-.3.7-.7 2.6-1.4 2.6s-1.1-1.9-1.4-2.6c-1.2-2.8-2.5-5.6-3.5-8.4-.3 3.1-.1 6.7-.1 9.9.1.6 1.3.1 1.3.8-.2.4-.8.2-1.2.2-2.9.1-6.5.1-9.4-.1-.1-.8 1.1-.4 1.4-.8v-25.3c-.2-.5-1.2-.2-1.4-.8 0-.1 0-.2.1-.2 3.5.2 6.9.2 10.3.2zm-7.7 1v25.3c1.2.8 4.3.8 5.6 0-.1-3.9.1-8-.1-11.6-.4-.3-1.3-.2-1.4-.9.9-.1 2.7.2 3.8-.1 1.5 3.5 2.8 7.2 4.5 10.5 1-2.7 2.3-5.4 3.3-7.9.3-.9.5-1.9 1.2-2.6.5.2 1.1.1 1.8.1.6 0 1.5-.3 1.6.2-.2.5-1 .3-1.4.6-.2 3.7-.2 8.1 0 11.8 1.4.6 4.2.6 5.5 0V271c0-3.7.3-7.3-.3-10.5-1.4-.3-4.2-.4-5.3.2-.2 3.7-.2 8.1 0 11.8.4.3 1.4.1 1.4.8-1 .1-2.6.1-3.6.1-.3 0-1 .2-1.1-.2.1-.6 1.2-.3 1.3-.8-.1-3.3.1-6.8-.1-9.9-1.3 3.2-2.7 6.7-4.1 9.9-.3.6-.4 1.2-1 1.1-.4-.1-.5-.6-.8-1.2-1.4-3.4-2.7-6.8-4.1-9.8v10.1c.3.5 1.3.1 1.3.9-.5.2-1.3.1-2 .1s-1.7.2-1.9-.3c.3-.4 1.2-.3 1.5-.6v-11.6c-1-1-5-1.1-5.6-.2zm-7.3 62.7v-3.9c0-.8-.5-.9-.8-.9-.3 0-.8.1-.8.9v3.9h-2v-3.9c0-.8-.5-.9-.8-.9-.3 0-.8.1-.8.9v3.9h-2v-6.5h1.9v.6c.4-.4 1-.6 1.5-.6.6 0 1.2.2 1.6.7.5-.5 1.1-.7 1.8-.7.6 0 1.2.2 1.6.6.5.6.7 1.2.7 1.9v4.1h-1.9zm6.4 0v-.6c-.4.4-.8.6-1.4.6-.6 0-1.2-.2-1.5-.6s-.5-.9-.5-1.5c0-1 .7-1.9 2.2-1.9h1.3v-.1c0-.6-.3-.8-1-.8-.5 0-.7.1-1 .4l-1.2-1.2c.7-.7 1.2-.9 2.3-.9 1.8 0 2.8.8 2.8 2.3v4.2h-2zm0-2.6h-1c-.4 0-.6.2-.6.5s.2.6.6.6c.4 0 .5-.1.8-.3.1-.1.2-.3.2-.6v-.2zm6.7 2.6v-.6c-.4.4-.8.6-1.5.6-.6 0-1.2-.2-1.6-.6-.6-.6-.6-1.8-.6-2.7 0-1 0-2.1.6-2.7.3-.3 1-.6 1.6-.6.6 0 1.1.2 1.4.6v-2.5h2v8.5h-1.9zm-.9-4.7c-.8 0-.8.6-.8 1.5s.1 1.5.8 1.5c.8 0 .8-.6.8-1.5s-.1-1.5-.8-1.5zm7.6.3c-.2-.2-.3-.3-.7-.3-.3 0-.8.1-.8.9v3.9h-2v-6.5h1.9v.6c.3-.3.8-.6 1.5-.6.6 0 1 .1 1.5.6l-1.4 1.4zm5.2 4.4v-.6c-.4.4-.8.6-1.4.6-.6 0-1.2-.2-1.6-.6-.3-.3-.5-.9-.5-1.5 0-1 .7-1.9 2.2-1.9h1.3v-.1c0-.6-.3-.8-1-.8-.5 0-.7.1-1 .4l-1.2-1.2c.7-.7 1.2-.9 2.3-.9 1.8 0 2.8.8 2.8 2.3v4.2h-1.9zm0-2.6h-1c-.4 0-.6.2-.6.5s.2.6.6.6c.4 0 .5-.1.8-.3.1-.1.2-.3.2-.6v-.2zm5.5 2.7c-1 0-1.9-.1-2.8-1l1.2-1.2c.5.6 1.2.6 1.6.6.3 0 .8-.1.8-.4 0-.2-.1-.3-.5-.4l-1-.1c-1.1-.1-1.8-.6-1.8-1.9 0-1.4 1.3-2.1 2.5-2.1 1 0 1.9.1 2.5.8l-1.2 1.2c-.3-.3-.9-.3-1.4-.3-.5 0-.6.2-.6.3 0 .1 0 .3.4.3l1 .1c1.4.1 1.9 1 1.9 2 .1 1.4-1.1 2.1-2.6 2.1zm6.8-.1v-.6c-.4.4-.8.6-1.4.6-.6 0-1.2-.2-1.5-.6s-.5-.9-.5-1.5c0-1 .7-1.9 2.2-1.9h1.3v-.1c0-.6-.3-.8-1-.8-.5 0-.7.1-1 .4l-1.2-1.2c.7-.7 1.2-.9 2.3-.9 1.8 0 2.8.8 2.8 2.3v4.2h-2v.1zm0-2.6h-1c-.4 0-.6.2-.6.5s.2.6.6.6c.4 0 .5-.1.8-.3.1-.1.2-.3.2-.6v-.2zm6.8 2.6v-3.9c0-.7-.5-.8-.8-.8-.3 0-.8.1-.8.8v3.9h-2v-8.5h2v2.6c.4-.4.9-.6 1.4-.6 1.4 0 2 1 2 2.3v4.2h-1.8zm-45.2 10v-3.9c0-.8-.5-.9-.8-.9-.3 0-.8.1-.8.9v3.9h-2v-3.9c0-.8-.5-.9-.8-.9-.3 0-.8.1-.8.9v3.9h-1.9v-6.5h1.9v.6c.4-.4 1-.6 1.5-.6.6 0 1.2.2 1.6.7.5-.5 1.1-.7 1.8-.7.6 0 1.2.2 1.5.6.5.6.7 1.2.7 1.9v4.1l-1.9-.1zm6.5 0v-.6c-.4.4-.8.6-1.4.6s-1.2-.2-1.6-.6c-.3-.3-.5-.9-.5-1.5 0-1 .7-1.9 2.2-1.9h1.3v-.2c0-.6-.3-.8-1-.8-.5 0-.7.1-1 .4l-1.2-1.2c.7-.7 1.2-.8 2.3-.8 1.8 0 2.8.8 2.8 2.3v4.2h-1.9zm0-2.6h-1c-.4 0-.6.2-.6.6 0 .3.2.6.6.6s.5-.1.8-.3c.1-.1.2-.3.2-.6v-.3zm6.7 2.6v-3.9c0-.7-.5-.8-.8-.8-.3 0-.8.1-.8.8v3.9h-2v-8.5h2v2.6c.4-.4.9-.6 1.4-.6 1.4 0 2 1 2 2.3v4.2h-1.8zm6.4 0v-.6c-.4.4-.8.6-1.4.6-.6 0-1.2-.2-1.5-.6s-.5-.9-.5-1.5c0-1 .7-1.9 2.2-1.9h1.3v-.2c0-.6-.3-.8-1-.8-.5 0-.7.1-1 .4l-1.2-1.2c.7-.7 1.2-.8 2.3-.8 1.8 0 2.8.8 2.8 2.3v4.2h-2v.1zm0-2.6h-1c-.4 0-.6.2-.6.6 0 .3.2.6.6.6.4 0 .5-.1.8-.3.1-.1.2-.3.2-.6v-.3zm8.2 2.1c-.3.3-1 .6-1.6.6-.7 0-1.1-.2-1.5-.6v.6h-1.9v-8.5h2v2.5c.3-.3.8-.6 1.4-.6.6 0 1.2.2 1.6.6.6.6.6 1.8.6 2.7 0 .9 0 2.1-.6 2.7zm-2.2-4.2c-.8 0-.8.6-.8 1.5 0 1 .1 1.5.8 1.5.8 0 .8-.6.8-1.5 0-1 0-1.5-.8-1.5zm9 4.2c-.3.3-1 .6-1.6.6-.7 0-1.1-.2-1.5-.6v.6h-1.9v-8.5h2v2.5c.3-.3.8-.6 1.4-.6.6 0 1.2.2 1.6.6.6.6.6 1.8.6 2.7 0 .9 0 2.1-.6 2.7zm-2.2-4.2c-.8 0-.8.6-.8 1.5 0 1 .1 1.5.8 1.5s.8-.6.8-1.5c0-1-.1-1.5-.8-1.5zm7.1 4.7v-.6c-.4.4-.8.6-1.4.6-.6 0-1.2-.2-1.5-.6s-.5-.9-.5-1.5c0-1 .7-1.9 2.2-1.9h1.3v-.2c0-.6-.3-.8-1-.8-.5 0-.7.1-1 .4l-1.2-1.2c.6-.7 1.2-.8 2.3-.8 1.8 0 2.8.8 2.8 2.3v4.2h-2v.1zm0-2.6h-1c-.4 0-.6.2-.6.6 0 .3.2.6.6.6s.5-.1.8-.3c.1-.1.2-.3.2-.6v-.3zm6.7 2.6v-3.9c0-.7-.5-.8-.8-.8-.3 0-.8.1-.8.8v3.9h-2v-8.5h2v2.6c.4-.4.9-.6 1.4-.6 1.4 0 2 1 2 2.3v4.2h-1.8z" fill="#fff"/></svg>