<svg xmlns="http://www.w3.org/2000/svg" viewBox="-0.3 225.6 259.5 109.9" enable-background="new -0.3 225.6 259.5 109.9"><path d="M258.8 279.7v1l-.1 1-.1 1-.2 1-.4 1-.4.9-.5.9-.5.9c-.4.6-.9 1.1-1.3 1.6s-.9.9-1.5 1.4l-1.5 1.2c-.5.4-1.1.8-1.6 1.1-1.1.6-2.2 1.2-3.5 1.8-.6.3-1.1.5-1.7.8-.6.2-1.2.5-1.8.7-1.2.5-2.4 1-3.6 1.4-1.2.4-2.4.8-3.6 1.1-5.5 1.6-11.5 2.9-18 4.1-6.5 1.2-13.3 2.2-20.4 3.1-7.1.9-14.4 1.8-21.9 2.5-7.5.7-15 1.5-22.6 2.2-7.6.7-15 1.5-22.5 2.3-7.4.8-14.6 1.7-21.6 2.6-7 1-13.6 2.1-19.9 3.3-6.3 1.2-12 2.7-17.3 4.3-.6.2-1.2.3-1.7.5-.6.1-1.1.3-1.7.4l-.9.2-.9.3-1.7.5c-.6.1-1.2.3-1.7.5-.6.2-1.1.4-1.7.5-.6.1-1.1.3-1.7.5-.5.2-1.1.4-1.7.5-.6.2-1.1.4-1.7.6-.5.2-1.1.4-1.6.6l-.8.3-.8.3-.8.3-.8.3c-.5.2-1.1.4-1.6.6l-1.5.6c-1 .4-2 .9-2.9 1.3l-1.4.7c-.2-3.7-1.1-7.2-2.5-10.4-1.5-3.2-3.4-6-5.8-8.4-2.4-2.4-5.2-4.3-8.4-5.7-3.2-1.4-6.6-2.1-10.1-2.1-2 0-3.9.2-5.8.7-1.9.5-3.7 1.1-5.4 1.9l1.4-1.2 1.4-1c1-.7 2-1.4 3-2 1-.6 2-1.1 2.9-1.5l2.7-1.2c.9-.3 1.8-.7 2.6-1 .8-.3 1.7-.6 2.5-.8.8-.3 1.6-.5 2.4-.7.8-.2 1.6-.4 2.3-.6.8-.2 1.5-.4 2.3-.5.7-.2 1.5-.3 2.2-.4.7-.1 1.5-.3 2.2-.4.7-.1 1.4-.2 2.2-.3l2.1-.3c.7-.1 1.4-.2 2.1-.2 1.4-.2 2.8-.3 4.1-.4l1-.1 1-.1 1-.1 1-.1c.7-.1 1.4-.1 2-.1.7 0 1.3-.1 2-.1s1.4-.1 2-.1c.7 0 1.3 0 2-.1l3.9-.1h25.7c5.3 0 11.6.1 19.1.1 7.4.1 15.8.1 25.2.2 9.4.1 19.8.2 31.1.3 11.3.1 23.5.3 36.5.5 2.5-.1 4.9-.1 7.4-.2 2.4 0 4.9-.1 7.4-.3 2.4-.1 4.9-.2 7.3-.4 1.2-.1 2.4-.1 3.6-.3 1.2-.1 2.4-.2 3.6-.4 1.2-.1 2.4-.3 3.6-.4 1.2-.2 2.4-.3 3.6-.6 1.2-.2 2.4-.4 3.5-.7 1.2-.2 2.3-.5 3.5-.9.6-.2 1.2-.3 1.7-.5.6-.2 1.1-.4 1.7-.5.5-.2 1.1-.4 1.6-.7.6-.2 1.1-.5 1.6-.7 1.1-.6 2.1-1.1 2.9-1.7l1.3-1 1.1-1.2 1-1.3c.3-.5.5-.9.7-1.5l.2-.7v-.8l.1-.8.1-.8c.1-1.2 0-2.3-.3-3.3l-.3-.8-.4-.7-.5-.7-.5-.6-.7-.5-.7-.4c-.4-.2-.9-.4-1.5-.5l-.8-.1h-.8c-.5 0-1.1.2-1.6.4-1.1.4-2 1-2.8 1.8l-.3.3-.3.3-.3.4-.2.4-.2.4-.2.4-.2.4v.2l-.1.1v.1l-.9.4-.4-.4v-.6l.1-.1.1-.2.1-.2.1-.2.2-.4.2-.4.3-.4.3-.4.3-.4.3-.4c.9-1 2-1.7 3.3-2.2l.9-.3 1-.2c.7-.1 1.4-.1 2.1 0 .7.1 1.3.3 2 .5l1 .5.9.6c.6.5 1 1 1.4 1.5l.5.9.4 1c.3.6.5 1.3.6 2 .6.4.6 1.1.6 1.8zm0 0v1l-.1 1-.1 1-.2 1-.4 1-.4.9-.5.9-.5.9c-.4.6-.9 1.1-1.3 1.6s-.9.9-1.5 1.4l-1.5 1.2c-.5.4-1.1.8-1.6 1.1-1.1.6-2.2 1.2-3.5 1.8-.6.3-1.1.5-1.7.8-.6.2-1.2.5-1.8.7-1.2.5-2.4 1-3.6 1.4-1.2.4-2.4.8-3.6 1.1-5.5 1.6-11.5 2.9-18 4.1-6.5 1.2-13.3 2.2-20.4 3.1-7.1.9-14.4 1.8-21.9 2.5-7.5.7-15 1.5-22.6 2.2-7.6.7-15 1.5-22.5 2.3-7.4.8-14.6 1.7-21.6 2.6-7 1-13.6 2.1-19.9 3.3-6.3 1.2-12 2.7-17.3 4.3-.6.2-1.2.3-1.7.5-.6.1-1.1.3-1.7.4l-.9.2-.9.3-1.7.5c-.6.1-1.2.3-1.7.5-.6.2-1.1.4-1.7.5-.6.1-1.1.3-1.7.5-.5.2-1.1.4-1.7.5-.6.2-1.1.4-1.7.6-.5.2-1.1.4-1.6.6l-.8.3-.8.3-.8.3-.8.3c-.5.2-1.1.4-1.6.6l-1.5.6c-1 .4-2 .9-2.9 1.3l-1.4.7c-.2-3.7-1.1-7.2-2.5-10.4-1.5-3.2-3.4-6-5.8-8.4-2.4-2.4-5.2-4.3-8.4-5.7-3.2-1.4-6.6-2.1-10.1-2.1-2 0-3.9.2-5.8.7-1.9.5-3.7 1.1-5.4 1.9l1.4-1.2 1.4-1c1-.7 2-1.4 3-2 1-.6 2-1.1 2.9-1.5l2.7-1.2c.9-.3 1.8-.7 2.6-1 .8-.3 1.7-.6 2.5-.8.8-.3 1.6-.5 2.4-.7.8-.2 1.6-.4 2.3-.6.8-.2 1.5-.4 2.3-.5.7-.2 1.5-.3 2.2-.4.7-.1 1.5-.3 2.2-.4.7-.1 1.4-.2 2.2-.3l2.1-.3c.7-.1 1.4-.2 2.1-.2 1.4-.2 2.8-.3 4.1-.4l1-.1 1-.1 1-.1 1-.1c.7-.1 1.4-.1 2-.1.7 0 1.3-.1 2-.1s1.4-.1 2-.1c.7 0 1.3 0 2-.1l3.9-.1h25.7c5.3 0 11.6.1 19.1.1 7.4.1 15.8.1 25.2.2 9.4.1 19.8.2 31.1.3 11.3.1 23.5.3 36.5.5 2.5-.1 4.9-.1 7.4-.2 2.4 0 4.9-.1 7.4-.3 2.4-.1 4.9-.2 7.3-.4 1.2-.1 2.4-.1 3.6-.3 1.2-.1 2.4-.2 3.6-.4 1.2-.1 2.4-.3 3.6-.4 1.2-.2 2.4-.3 3.6-.6 1.2-.2 2.4-.4 3.5-.7 1.2-.2 2.3-.5 3.5-.9.6-.2 1.2-.3 1.7-.5.6-.2 1.1-.4 1.7-.5.5-.2 1.1-.4 1.6-.7.6-.2 1.1-.5 1.6-.7 1.1-.6 2.1-1.1 2.9-1.7l1.3-1 1.1-1.2 1-1.3c.3-.5.5-.9.7-1.5l.2-.7v-.8l.1-.8.1-.8c.1-1.2 0-2.3-.3-3.3l-.3-.8-.4-.7-.5-.7-.5-.6-.7-.5-.7-.4c-.4-.2-.9-.4-1.5-.5l-.8-.1h-.8c-.5 0-1.1.2-1.6.4-1.1.4-2 1-2.8 1.8l-.3.3-.3.3-.3.4-.2.4-.2.4-.2.4-.2.4v.2l-.1.1v.1l-.9.4-.4-.4v-.6l.1-.1.1-.2.1-.2.1-.2.2-.4.2-.4.3-.4.3-.4.3-.4.3-.4c.9-1 2-1.7 3.3-2.2l.9-.3 1-.2c.7-.1 1.4-.1 2.1 0 .7.1 1.3.3 2 .5l1 .5.9.6c.6.5 1 1 1.4 1.5l.5.9.4 1c.3.6.5 1.3.6 2 .6.4.6 1.1.6 1.8zm-203.5-1.2c-4.1 4.4-7.8 6.6-11.2 6.6-2 0-3.6-1-4.7-3s-1.6-4.6-1.6-7.9c0-2.6.5-6.1 1.6-10.6 1-4.5 2.4-8.2 4.1-11.3l1.6-2.9c-2.2 2.3-4 4.7-5.3 7.4-1.4 2.7-3.1 6.5-5 11.3-1.9 4.8-3.4 8.1-4.4 9.9-1 1.8-1.9 3.2-2.8 4.3-.9 1.1-1.7 1.8-2.4 2.2-.7.3-1.9.5-3.7.5-.7 0-1-.2-1-.5 0 0 .1-.6.4-1.7.2-1.1.5-2.9.7-5.4.2-2.5.4-6.6.5-12.5.1-5.9 1-10.9 2.6-15.1-1.7 2-3.5 6.5-5.3 13.7l-.7 2.7c-1.9 7.4-4 12.5-6.5 15.1-2.4 2.6-4.8 3.9-7.2 3.9-1.4 0-2.7-.4-3.8-1.4-1.1-.9-1.6-2-1.6-3.1 0-.9.7-1.9 2-3.1 1.3-1.1 2.1-1.7 2.5-1.7l.8.4c.1.3.3 1 .5 2.3.2 1.2.5 2 .9 2.4.4.4.9.6 1.6.6 1.4 0 3-1.4 4.7-4.2 1.7-2.8 3.3-7.2 4.7-13.1l.8-3.3c.6-2.7 1.3-4.9 1.9-6.5.6-1.6 1.4-3.2 2.5-4.8 1.5-2.3 2.4-3.5 2.7-3.7.3-.1 1-.3 1.9-.4.9-.1 1.9-.2 2.8-.2l.5.6c0 .2-.1.6-.2 1.2-.4 2.6-.5 5.1-.5 7.7l.1 7.4c0 6.4-.5 11.5-1.5 15.5 1-1.2 2.4-4.2 4.2-9 2.7-6.9 5.1-12.1 7.3-15.5 1-1.7 2.3-3.3 3.8-4.8s2.5-2.3 3.1-2.5c1.9-.4 3.6-.5 4.9-.5l.7.4c0 .4-.3 1.2-.9 2.6-1.4 3.2-2.7 7.6-4 13-1.2 5.5-1.9 9.9-1.9 13.1 0 3.7 1.1 5.5 3.4 5.5 1.8 0 4-1.6 6.5-4.7l-.1 3.1zm29.3 0c-2.4 2.3-4.4 4-6.1 5.1-1.6 1.1-3.1 1.6-4.4 1.6-1.4 0-2.6-.6-3.3-1.7-.8-1.2-1.2-2.7-1.2-4.7-2 2.2-3.8 3.8-5.4 4.9-1.6 1-3.1 1.6-4.7 1.6-1.4 0-2.5-.6-3.3-1.7-.8-1.1-1.3-2.7-1.3-4.7 0-3.8 1.3-9.2 3.8-16.1l7.3-1.5c-3 8.8-4.5 14.4-4.5 16.9 0 1.7.7 2.6 2 2.6.9 0 2.1-.8 3.5-2.3 1.4-1.5 2.3-2.9 2.6-4l3.6-11.7 7.5-1.5c-1.7 5.5-2.9 9.4-3.5 11.6-.6 2.2-1 3.8-1 4.7 0 1.7.6 2.6 1.8 2.6 1 0 2.4-.9 4.2-2.6l2.3-2.2v3.1zm26.9 0c-4.3 4.5-7.9 6.8-10.7 6.8-1.2 0-2.3-.4-3.1-1.3-.8-.9-1.2-1.9-1.2-3.2 0-2.2.8-5.3 2.5-9.3.9-2.1 1.3-3.6 1.3-4.2 0-.7-.4-1.1-1.1-1.1-.7 0-1.8.5-3.2 1.5-1.4 1-2.9 2.4-4.4 4.1-.6 3.4-1 7.4-1 12.1l-6.1 1.4c-.2-1.9-.4-4-.4-6.3 0-5.4.8-10.5 2.3-15.2 1.5-4.7 3.9-9.7 7.1-14.9 2.4-1 4.5-1.8 6.3-2.4 1.8-.6 2.8-.9 3.1-.9.5 0 .9.4 1.2 1.1.3.8.5 1.7.5 2.9 0 1.9-.6 4.1-1.8 6.4-1.2 2.4-3 5.2-5.6 8.5 2.4-1.4 4-2.3 4.9-2.7.8-.4 1.6-.5 2.5-.5.9 0 1.7.3 2.3 1 .6.7.9 1.6.9 2.6 0 1.6-.7 4.2-2 7.6-1.3 3.5-2 5.6-2 6.5l.4 1.1.9.5c1.2 0 3.3-1.8 6.5-5.3v3.2zm-19-11.3c6.5-7.6 9.8-13.2 9.8-16.8 0-1.1-.3-1.6-.9-1.6-1 0-2.4 1.8-4.3 5.4-1.9 3.6-3.4 7.9-4.6 13zm32.4 11.3c-4.3 4.5-7.5 6.7-9.6 6.7-1.2 0-2.2-.6-3-1.8-.8-1.2-1.2-2.7-1.2-4.5 0-3.9 1.3-9.3 3.9-16.2l7-1.5h.3l-2.7 8.6c-1.1 3.5-1.7 6.1-1.7 7.6 0 .6.1 1.1.4 1.5l1 .6c.7 0 1.4-.3 2.2-.8.7-.5 1.9-1.7 3.4-3.4v3.2zm-.5-27.9c0 4.4-1.6 6.6-4.8 6.6-1.6 0-2.9-.5-4-1.4 1.1-1.6 1.9-3.4 2.5-5.4 1.4.9 2.6 1.3 3.5 1.3.8-.1 1.8-.4 2.8-1.1zm25.1 27.9c-1.3 1.4-2.8 2-4.6 2-1.4 0-2.9-.7-4.5-2-2 2.2-3.7 3.9-5.2 5s-3.1 1.6-4.9 1.6c-1.6 0-2.9-.7-4-2s-1.6-3-1.6-4.9c0-3.8 1.1-9 3.3-15.4 2.2-6.5 4.4-11.4 6.5-14.7 2.4-.8 4.5-1.4 6.4-1.9 1.8-.5 2.9-.7 3.2-.7.5 0 1 .4 1.4 1.1.4.7.6 1.5.6 2.5 0 2-.9 4.4-2.6 7.2-1.7 2.8-3.9 5.5-6.6 8.2l-3.6 3.6c-1.1 4-1.7 6.9-1.7 8.8 0 1 .2 1.9.7 2.5.5.6 1.1.9 1.9.9.9 0 1.7-.3 2.4-.9.7-.6 1.5-1.4 2.4-2.6-.9-1.6-1.4-3.2-1.4-4.8 0-2.6.7-5.1 2.1-7.3 1.4-2.3 3-3.4 4.6-3.4.6 0 1.2.3 1.6.9.4.6.6 1.3.6 2.2 0 3-1.7 7.1-5 12.3 1 1.2 2.1 1.9 3.4 1.9.8 0 1.5-.2 2.1-.6.6-.4 1.4-1.2 2.5-2.6v3.1zm-14.8-14.7c3-2.9 5.2-5.6 6.7-8 1.5-2.5 2.3-4.3 2.3-5.6 0-.5-.1-.9-.3-1.3l-.8-.5c-2.2 0-4.9 5.1-7.9 15.4zm39.4 14.7c-1.3 1.4-2.8 2-4.6 2-1.4 0-2.9-.7-4.5-2-2 2.2-3.7 3.9-5.2 5s-3.1 1.6-4.9 1.6c-1.6 0-2.9-.7-4-2s-1.6-3-1.6-4.9c0-3.8 1.1-9 3.3-15.5 2.2-6.5 4.4-11.4 6.5-14.7 2.4-.8 4.5-1.4 6.4-1.9 1.8-.5 2.9-.7 3.2-.7.5 0 1 .4 1.4 1.1.4.7.6 1.5.6 2.5 0 2-.8 4.4-2.5 7.2-1.7 2.7-3.9 5.5-6.6 8.2L158 268c-1.1 4-1.7 6.9-1.7 8.8 0 1 .2 1.9.7 2.5.5.6 1.1.9 1.9.9.9 0 1.7-.3 2.4-.9.7-.6 1.5-1.4 2.4-2.6-.9-1.6-1.4-3.2-1.4-4.8 0-2.6.7-5.1 2.1-7.4 1.4-2.2 3-3.4 4.6-3.4.6 0 1.2.3 1.6.8.4.6.6 1.3.6 2.2 0 3-1.7 7.1-5 12.3 1 1.2 2.1 1.9 3.4 1.9.8 0 1.5-.2 2.1-.6.6-.4 1.4-1.2 2.5-2.6l-.1 3.4zm-14.9-14.7c3-2.9 5.2-5.6 6.7-8 1.5-2.5 2.3-4.3 2.3-5.6 0-.5-.1-.9-.3-1.3l-.8-.5c-2.2 0-4.8 5.1-7.9 15.4zm44.1 14.7c-2.9 2.8-5 4.6-6.3 5.4-1.3.8-2.5 1.3-3.6 1.3-2.9 0-4.2-2.5-4.1-7.6-1.8 2.6-3.5 4.5-5.1 5.8-1.5 1.2-3.1 1.9-4.8 1.9-1.6 0-3-.8-4.1-2.3-1.1-1.5-1.7-3.4-1.7-5.6 0-2.7.8-5.4 2.3-7.8 1.5-2.5 3.4-4.5 5.8-6s4.4-2.3 6.3-2.3c2.3 0 3.9 1 4.8 3.1l5.6-3.1h1.5l-2.4 8c-1.3 4-1.9 6.8-1.9 8.3 0 1.6.6 2.4 1.7 2.4.7 0 1.5-.4 2.4-1.1.9-.8 2.1-1.9 3.6-3.5v3.1zm-20 1.5c1.8 0 3.5-1.6 5.2-4.7 1.6-3.1 2.4-6 2.4-8.6 0-1-.2-1.8-.7-2.4-.5-.6-1.1-.9-1.8-.9-1.8 0-3.6 1.5-5.2 4.7-1.6 3.1-2.5 6-2.4 8.6 0 1 .2 1.8.7 2.4.4.6 1 .9 1.8.9zm33.5-1.5c-4.3 4.5-7.5 6.7-9.6 6.8-1.2 0-2.2-.6-3-1.8-.8-1.2-1.2-2.7-1.2-4.5 0-3.9 1.3-9.3 3.9-16.2l7-1.5h.3l-2.7 8.6c-1.1 3.5-1.7 6.1-1.7 7.6 0 .6.1 1.1.4 1.5l1 .6c.7 0 1.4-.3 2.2-.8.7-.5 1.9-1.6 3.4-3.4v3.1zm-.5-27.9c0 4.4-1.6 6.6-4.9 6.6-1.6 0-2.9-.5-4-1.4 1.1-1.6 1.9-3.4 2.5-5.4 1.4.9 2.6 1.3 3.5 1.3.9-.1 1.9-.4 2.9-1.1zm27.4 27.9c-4.2 4.5-7.8 6.7-10.9 6.7-1.2 0-2.2-.4-3-1.3-.8-.9-1.1-2-1.1-3.5 0-1.9.8-4.9 2.4-9 .9-2.2 1.3-3.5 1.3-4.1 0-.6-.2-.9-.7-.9l-1 .4c-.4.3-.8.6-1.3 1.1-.5.4-1 .9-1.5 1.5-.5.5-1 1.1-1.6 1.8l-1.5 1.8c-.7.8-1.1 1.7-1.3 2.6-.3 1.5-.5 3-.6 4.3-.1 1-.1 2.3-.1 3.9l-6.1 1.4c-.2-2.5-.3-4.3-.3-5.5 0-2.9.3-5.7 1-8.4.7-2.6 1.8-5.6 3.3-8.9l6.7-1.3c-1.4 3.8-2.3 6.8-2.8 8.9 3-3.3 5.4-5.7 7.1-6.9 1.8-1.3 3.3-1.9 4.7-1.9.9 0 1.7.4 2.3 1.1.6.7.9 1.6.9 2.6 0 1.7-.8 4.6-2.4 8.7-1.1 2.8-1.6 4.5-1.6 5.4 0 1.1.4 1.6 1.3 1.6 1.3 0 3.5-1.8 6.5-5.3l.3 3.2zM68.8 242.4c-1.2 0-2.6.1-4.2.2-1.7 3.4-4.3 8.6-4.3 10.8 0 .6.2.9.7.9 1.1 0 2.8-1.1 4.1-3.9h.1l.3.1.1.1s-1.1 5-4.8 5c-.9 0-2.4-.5-2.4-2.7 0-2.6 1.6-6.9 2.9-10-.6.2-1.1.3-1.6.3-1.8 0-2.9-1-2.9-2.1 0-.7.5-1.3 1.4-1.8.6 0 .8.2.8.4l-.1.1-.4-.1c-.3 0-.8.2-.8.9 0 .6.4.9 1.2.9.9 0 1.8-.3 3.5-.7.7-1.6 1.8-4.6 1.8-4.6.5 0 2.5 1.1 2.5 2.4 0 .5-.2.9-.5 1.4 2.2-.4 4.2-.5 5.8-.5 2.2 0 3.6.3 4.1.4l.8.5c.4.4.9.9.9 1.8l-.3 1.3c-.4 0-1-.7-4.5-1-1.3 0-2.6-.1-4.2-.1zm7.3 7.5c0 .4-1.8 5.2-4.3 5.2-1.4 0-2.5-1.6-2.5-3.6 0-1.1.1-1.8.5-2.8-1.3 2.4-3.2 5.9-3.5 7.3-.2.7-.9 1.2-1.6 1.2-.7 0-1.5-.5-1.5-2.1 0-4.5 4.6-15.8 5.2-17.3l.3-1c.2-.6.4-1.1.4-1.5.1.1 2.6.8 2.6 2.2l-.2 1.2c-.9 1.8-6.2 12.7-6.2 16 5.1-9.2 7.3-10.7 7-11.5.1 0 2.1 1.2 2.1 2.3l-.1.6c-.7 2-2.6 4-2.6 6.4 0 .7.1 1.4.7 1.4.9 0 2.2-1.2 3.5-4h.3-.1zm9.1 1.1c-.5.9-1 1.6-1.6 2.2-1.1 1.1-2.6 2.2-4.8 2.2-3.2 0-4.3-3.1-4.3-4.9 0-4.1 3-8.1 6.1-8.1 2 0 3.1 1.3 3.1 2.6 0 2.6-2.4 4.8-5.2 4.8-1 0-1.6-.2-2-.5-.2.5-.3 1.1-.3 1.6 0 1.7 1.1 3.3 2.9 3.3 1.3 0 2.9-1 3.7-1.5 1.8-1.4 1.8-2 2.1-2h.2l.1.3zm-8.5-2.4h.6c1.8 0 3.5-2 3.5-3l-.6-.6c-.6 0-1.5.4-2.3 1.5-.4.7-.9 1.4-1.2 2.1z" fill="#BF2645"/></svg>