<svg xmlns="http://www.w3.org/2000/svg" viewBox="1104 225.6 62 109.9" enable-background="new 1104 225.6 62 109.9"><path d="M1130.5 235.3c.1 8.7.5 17 .6 25.7-6.8-.2-13.7-.2-20.4-.4-1.1-6.5-2-13.2-3.1-19.8 1.4.4 2.6.2 4 .6.8.3 1.6 1.3 2.3 1.4.6.1 2.3-.4 3-.5 2.9-.5 5.9-1.2 8.9-1.7.2-.5.4-1.1.5-1.7.8-.9 2-2.3 2.8-3.3.1-.3.5-.3 1.4-.3zm.3 0c1.3-.2 2.4 1.5 3.2 2.4 1.4 1.5 2.8 2.4 3.3 4.4 2.7.3 6.3.8 9.4 1.1 1.2.1 2.3.5 3.1.3 1.2-.2 1.8-1.3 2.7-1.7 1.2-.1 2.8-.2 3.7-.1-1.1 6.4-2.3 12.7-3.3 19.3-7.3-.1-14.4.1-21.5.1-.2-8.5-.5-16.9-.8-25.4 0-.1 0-.3.2-.4zm-19.4 25.8c13.3 0 27.2.4 41 .2-.9.2-1.7.5-2.6.6.5.8 1.9 1.2 2.2 1.9-3.5.1-7 .3-10.4.5-3.5.2-6.9.5-10.3.5-1.6 0-3.4-.2-5.1-.3-4.9-.3-9.9-.7-15-.9.8-.7 1.8-1.2 2.6-1.9-.9-.3-1.5-.6-2.4-.6zm38.2 4.8c.9.2 1.7.5 2.7.5-3.3.4-6.8.4-10.3.5s-6.8.5-10.3.4c-6.8-.1-13.6-1-20.2-1.3.8-.3 1.7-.5 2.5-.8-.9-.5-1.8-1.1-2.7-1.6 3.5 0 7.1.5 10.7.6 3.6.2 7.2.6 10.8.5 6.4-.3 12.8-.4 19.3-.8-.7.9-1.8 1.2-2.5 2zm2.8 1c-1.3 9.5-.5 20.8-.5 31.4 0 .6.2 1.7 0 2.3-.2.7-.5.8-1.2 1.1v-33.3c-6.2.1-12.6.9-19 1.1-3.1.1-6.2-.3-9.3-.5-3.2-.2-6.3-.3-9.4-.6.6 11.1 1.2 22.2 1.8 33.2-.7-.1-1.2-.4-1.9-.5-.5-11.5-1.2-23.3-1.5-34.5 5 .3 10.1.6 15.2.9 8.3.5 17.1-.5 25.8-.6zm-22.6 2.6v38.7c-1-.5-2.2-.9-3.1-1.5-.2-3.3-.9-7.3-3-9.1-.4-.3-1.2-.9-1.7-.9-1.8-.5-3.7.2-4.4 1.5-.5 1-.5 2.4-.5 3.9-.6.2-1.4-.4-2-.5-.5-11-1.2-21.7-1.6-32.8-.2 0 0-.4.1-.3 5.3.3 10.7.7 16.2 1zm-6.2 5.5c-.2-1.6-1.9-2.2-3.3-1.6-.7.5-.9 1.2-1 2.2-.2 3.1 1 7.5 1.6 9.9.7-2.2 3.3-7 2.7-10.5zm-6.3 4.9c-2.1-1.7-2.9 3-2 4.2.7 1 1.9.6 3 .9.5.1 1.2.8 1.3.5-.6-1.7-1.1-4.6-2.3-5.6zm10.4 2.3c-1.5-1.4-3.4.5-4.2 1.5-.7.9-1.6 1.7-1.6 2.4 2.6-.9 2.7 2.3 5.4 1.9 1.5-.9 1.6-4.7.4-5.8zm-6.3 11.2c.3.6 1.5 1.6 2.5 1.3 1.8-.4 1-4.3.1-5.2-1.4-1.4-5.2-1.3-6.3-.2-1 1.1-.9 5 1.6 4.5.4-.1.5-.4.9-.8.2-.2.3-.9.9-.9.2.5 0 1 .3 1.3zm28.7-25c.4.4.2 1.2.2 1.9 0 10.2-.1 21.1.1 31.2-1.5 1.2-4.8 2.2-7 .9.2-1.8.1-3.8-.5-5 3 .1 4.3 1.9 4.2 5.3.4-.3.3-1.3.2-1.9-.3-2-2-3.9-4.7-3.6-1.6.2-3.3 1.7-4.2 3.1-1 1.7-1.3 3.7-1.5 5.7-1.4.6-2.6 1.5-4.1 1.9v-38.6c5.9-.1 11.6-.4 17.3-.9zm-9.6 6.5c-.6 3.5 1.9 8.6 2.7 10.7.5-2.6 1.6-6.1 1.5-9.2 0-1.1-.2-2.3-1-3-1.7-.4-3 .2-3.2 1.5zm8.5 8.8c.5-1.5-.2-4.2-1.5-4.1-1.8.1-2.7 5-3 6.1 1.3-1.2 3.9-.3 4.5-2zm-12.5 4.5c2.1.3 2.7-3.1 5.2-2.2-1.5-1.7-2.2-4.1-5.4-4.1-1.7 1.1-1.9 6.1.2 6.3zm7.2 4.9c.4.4.5.7.9.8 2.4.4 2.4-3.3 1.6-4.3-1-1.4-4.6-1.3-6.1-.3-1.1.8-2.2 4.5-.5 5.4 1.2.6 2.3-.6 2.7-1.2.2-.3.2-.9.5-1.2.6-.1.5.6.9.8zm-13.5-23.6c.8.2 2 0 2.6.1v38.6h-2.7v-38.4c-.1 0-.1-.2.1-.3zm21.5 14.6c.1-4.7.3-9.2.4-13.7 0-.2.1-.3.2-.3 4.6-.1 8.3.3 9.6 3.3 1.9 4.3.5 11.1-4.5 11.6-1.7.2-3.3-.4-4.7-1.1-.5-.2-.7.5-1 .2zm-30 12.8c0 1.5-.3 2.6-.3 4-1.4.3-2.6.8-4.1 1.1-.3-3.4.7-5.5 4.4-5.1z"/><path fill="#00ADEE" d="M1137.9 239.7c2.9.2 5.4.7 8.1 1.1.9.1 1.9.5 2.7.3.9-.2 2-1.6 3-1.9.6-.2 1.6-.1 2.3-.1 1.7 0 3.3 0 5-.1-1.2 8-2.7 15.6-3.9 23.6-.5 0-.9-.2-1.3-.2-.1.4 1 .5 1.1 1.1-1 .4-1.7 1.2-2.7 1.6.7.4 1.7.5 2.6.6 0 .8-.2 1.2-.3 1.9 4 .2 8.2.1 10.1 2.6 1.6 2 1.9 5.7 1.6 8.9-.3 4.7-2.8 9-7.5 8.6-1.6-.1-3.1-.9-4.7-1.1-.4.6-.2 1.5-.2 2.2 0 4.6.3 9.6.3 14.3-3 1.6-8.2 4.1-12 1.9.2-1.5.2-3.7-.2-4.9-1.5 2.6-2.5 5.6-3.3 8.9-2.7.9-5.5 3-9.6 2.3-.8-.2-1.6-.8-2.3-1.2-.8-.4-1.6-.7-2.2-1.2.1-3.5-.2-6.7-1.2-9.1-.5.9-.3 2.5-.5 3.6-1.9.3-4 .7-6.1 1.1-.7.1-1.5.3-2 .3-.9 0-1.6-.5-2.4-.8-.8-.2-1.6-.4-2.4-.8-.3-12.7-1.1-25.2-1.6-37.9.8-.2 1.4-.5 2.3-.5-.9-.7-2-1.2-3-1.9.9-.6 1.7-1.3 2.7-1.9-.7-.4-1.9-.3-2.7-.5-1.1-7.5-2.4-14.9-3.6-22.4 2.6.3 5 .6 7.7.8.8.2 1.6 1.4 2.5 1.6.6.1 1.7-.3 2.6-.5 2.3-.5 5.4-1.2 7.5-1.7.2-1.7 1-2.5 2-3.7.7-.9 1.3-1.6 2-2.2.9.2 1.9-.2 2.8 0 .8.2 2.3 2.3 3 3 1.7 1.3 3.3 2.2 3.8 4.3zm15.3 23.6c-.6-.4-1.3-.8-1.9-1.3.9-.3 1.8-.9 3-.4 1.1-7.3 2.5-14.3 3.6-21.5-2.2.4-3.8-.4-5.8.1-1 .2-2.2 1.8-3.1 1.9-.9.1-1.9-.3-2.8-.5-3.2-.4-5.7-.7-8.9-1.1-.2-.8-.6-1.2-.8-2-.9-.7-1.7-1.7-2.7-2.7-.5-.5-2.1-2.4-2.8-2.6-.7-.2-1.4.2-2.2 0-.9 1.2-2.5 2.2-3.1 3.7-.2.6-.2 1.2-.5 1.9-2.8.7-5.4 1.2-8.2 1.9-.9.2-2 .8-2.8.6-.9-.1-1.8-1.2-2.7-1.5-1-.3-2.1-.2-3-.4-1-.1-2-.2-3.2-.3 1 7 2.2 13.7 3.3 20.7.6 0 1.1.2 1.6.2.2.7.5 1.2 1.2 1.4-.5.6-1.4.9-1.9 1.5 1.3.6 2.6 1.3 3.7 2.2-1.3.2-2.3.7-3.7.9.5 12.3 1.1 24.5 1.7 36.7 1.3.2 2.4 1.1 3.8 1.2 1.1.1 2.4-.4 3.6-.6 1.2-.2 2.5-.4 3.7-.5.2-1.6.3-3.3.5-4.9 2.9 1.6 2.9 6.2 3 10.6.5.4 1.2.7 1.9 1.1.6.3 1.3.9 1.9 1 3.4.6 5.9-1.4 8.3-2 1.2-3.5 1.9-7.5 4.2-9.9 1.2 1.2 1.4 3.8 1.1 6.1 3.7 1.2 7.5-.7 10-1.9-.1-5.4-.3-10.7-.3-16.2.5-.2.9-.6 1.4-.9 2.7 1.5 6.2 1.9 8.3.1 1.5-1.3 2.3-3.9 2.6-6.6.3-2.8-.1-6.1-1.2-7.9-1.6-2.6-7.1-2.6-10.7-2.5.2-.7.4-1.4.5-2.2-.9-.2-2-.5-2.8-.6-.3-.1-.8 0-.9-.3h.2c.8-1.1 2.1-1.6 2.9-2.5z"/><path fill="#231F20" d="M1114.5 324v-3.9c0-.8-.5-.9-.8-.9s-.8.2-.8.9v3.9h-2v-3.9c0-.8-.5-.9-.8-.9s-.8.2-.8.9v3.9h-2v-6.4h1.9v.5c.4-.4 1-.6 1.5-.6.6 0 1.2.2 1.6.7.5-.5 1.1-.7 1.8-.7.6 0 1.2.2 1.6.5.5.5.7 1.2.7 1.9v4.1h-1.9zm6.4 0v-.5c-.4.4-.8.6-1.4.6s-1.2-.2-1.6-.5c-.4-.4-.5-.9-.5-1.5 0-.9.6-1.9 2.2-1.9h1.3v-.3c0-.6-.3-.8-1-.8-.5 0-.7.2-1 .5l-1.2-1.2c.6-.7 1.2-.9 2.3-.9 1.9 0 2.9.8 2.9 2.3v4.2h-2zm0-2.6h-1c-.4 0-.6.2-.6.5s.2.5.6.5c.4 0 .5 0 .8-.2.2-.2.2-.3.2-.6v-.2zm8.3 2.1c-.4.4-.9.6-1.6.6-.7 0-1.1-.2-1.5-.6v.5h-1.9v-8.5h1.9v2.6c.4-.4.8-.5 1.5-.5.6 0 1.2.2 1.6.6.6.6.6 1.8.6 2.7 0 .8 0 2-.6 2.6zm-2.2-4.3c-.7 0-.9.6-.9 1.6 0 .9.1 1.6.9 1.6s.9-.6.9-1.6c0-.9-.2-1.6-.9-1.6zm7.7 4.8l-1.3-2.3-.4.4v1.9h-1.9v-8.5h1.9v4.3l1.7-2.3h2.4l-2.4 2.7 2.4 3.8h-2.4zm6.7 0v-3.9c0-.7-.5-.9-.8-.9s-.8.2-.8.9v3.9h-1.9v-8.5h1.9v2.6c.4-.4.9-.6 1.4-.6 1.4 0 2.1 1 2.1 2.3v4.2h-1.9zm8-.7c-.4.4-1 .9-2.1.9-1 0-1.7-.4-2.1-.9-.5-.6-.7-1.2-.7-2.5 0-1.2.2-1.9.7-2.5.4-.4 1-.9 2.1-.9 1 0 1.7.4 2.1.9.5.6.7 1.2.7 2.5s-.1 1.8-.7 2.5zm-1.5-3.8c-.2-.1-.3-.2-.5-.2s-.4.1-.5.2c-.2.2-.3.7-.3 1.3 0 .6 0 1.1.3 1.3.2.1.3.2.5.2s.4-.1.5-.2c.2-.2.3-.7.3-1.3 0-.6-.1-1.1-.3-1.3zm8.1 3.8c-.4.4-1 .9-2.1.9-1 0-1.7-.4-2.1-.9-.5-.6-.7-1.2-.7-2.5 0-1.2.2-1.9.7-2.5.4-.4 1-.9 2.1-.9 1 0 1.7.4 2.1.9.5.6.7 1.2.7 2.5s-.1 1.8-.7 2.5zm-1.5-3.8c-.2-.1-.3-.2-.5-.2s-.4.1-.5.2c-.2.2-.3.7-.3 1.3 0 .6 0 1.1.3 1.3.1.1.3.2.5.2s.4-.1.5-.2c.2-.2.3-.7.3-1.3 0-.6-.1-1.1-.3-1.3zm7 .1c-.2-.2-.4-.3-.7-.3-.2 0-.8.2-.8.9v3.9h-1.9v-6.4h1.9v.5c.3-.3.9-.6 1.6-.6.6 0 1.1.2 1.5.6l-1.6 1.4z"/><path fill="#00ADEE" d="M1126.3 334v-3.9c0-.8-.5-.9-.8-.9s-.8.2-.8.9v3.9h-1.9v-3.9c0-.8-.5-.9-.8-.9-.2 0-.8.2-.8.9v3.9h-1.9v-6.4h1.9v.5c.4-.4 1-.6 1.5-.6.6 0 1.2.2 1.6.7.5-.5 1.1-.7 1.8-.7.6 0 1.2.2 1.6.5.5.5.7 1.2.7 1.9v4.1h-2.1zm6.9 0v-.5c-.4.4-1 .6-1.5.6-.6 0-1.1-.2-1.5-.5-.5-.5-.6-1.2-.6-1.9v-4.1h1.9v3.9c0 .8.5.9.8.9s.8-.2.8-.9v-3.9h2v6.4h-1.9zm5.6.1c-.9 0-1.9-.1-2.8-.9l1.2-1.2c.5.5 1.2.5 1.6.5s.9-.1.9-.4c0-.2-.1-.4-.5-.4l-1-.1c-1.1-.1-1.9-.6-1.9-1.9 0-1.4 1.3-2.2 2.6-2.2 1.1 0 1.9.2 2.6.8l-1.2 1.2c-.3-.3-.9-.4-1.4-.4-.5 0-.6.2-.6.4 0 .1 0 .3.4.4l1 .1c1.3.2 1.9.9 1.9 1.9 0 1.5-1.3 2.2-2.8 2.2zm3.9-7.2v-1.6h1.9v1.5l-1.9.1zm0 7.1v-6.2h1.9v6.2h-1.9zm6 .1c-1.1 0-2.9-.5-2.9-3.3s1.8-3.3 2.9-3.3c.9 0 1.6.3 2.1.9l-1.3 1.3c-.2-.2-.5-.4-.8-.4-.2 0-.5.1-.6.2-.2.2-.3.6-.3 1.2s.1 1 .3 1.2c.2.2.3.2.6.2s.5-.2.8-.4l1.3 1.3c-.5.8-1.2 1.1-2.1 1.1z"/></svg>