<svg xmlns="http://www.w3.org/2000/svg" viewBox="2118.5 225.6 150 108.9" enable-background="new 2118.5 225.6 150 108.9"><path fill="#fff" d="M2118.5 252h7.5v7.5h-7.5V252zm0 10h7.5v27.5h-7.5V262zm36.3 27.5h-7.5v-18.8s0-2.4-2.6-2.4h-8.7v21.2h-7.5V262h18.8c7.5 0 7.5 7.5 7.5 7.5v20zm16.2 0h-6.3c-7.5 0-7.5-7.5-7.5-7.5v-30h7.5v9.9h7.5l-3.8 6.3h-3.8v12.5s0 2.6 2.6 2.6h3.8v6.2zm2.6-27.5h18.8c7.5 0 7.5 7.5 7.5 7.5v8.7h-18.8v2.6s0 2.6 2.6 2.6h12.5l3.8 6.3h-18.8c-7.5 0-7.5-7.5-7.5-7.5V262zm7.5 6.3v3.8h11.3v-1.2c0-2.4-2.6-2.4-2.6-2.4h-8.7v-.2zm47.6 21.2h-18.8c-7.5 0-7.5-7.5-7.5-7.5v-10h18.8v-1.2s0-2.4-2.6-2.4h-12.5l-3.8-6.3h18.8c7.5 0 7.5 7.5 7.5 7.5l.1 19.9zm-7.6-6.3v-5h-11.3v2.6c0 2.6 2.6 2.6 2.6 2.6h8.7v-.2zm47.4 6.3h-7.5v-18.8s0-2.4-2.6-2.4h-5v21.2h-7.5v-21.2h-7.4v21.2h-7.5V262h29.9c7.5 0 7.5 7.5 7.5 7.5v20zm-74.4 14.9h-1.9s-.2 0-.2-.2l-1.5-4.4s0-.2-.2-.2h-1.5c-.2 0-.2 0-.2.2v4.3c0 .2 0 .2-.2.2h-1.7c-.2 0-.2 0-.2-.2v-10.8c0-.2 0-.2.2-.2h3.9c2.1 0 3.2 1.4 3.2 3.3v.2c0 .9-.7 1.9-1.4 2.4v.2s0 .2.2.3l1.5 4.4c0 .2.2.2.2.3l-.2.2zm-2-8.1c0-.7-.5-1.2-1.2-1.2h-1.9c-.2 0-.2 0-.2.2v2.2c0 .2 0 .2.2.2h1.9c.5 0 1.2-.5 1.2-1.4zm13.8 8.1h-6.2c-.2 0-.2 0-.2-.2v-10.8c0-.2 0-.2.2-.2h6.2c.2 0 .2 0 .2.2v1.5c0 .2 0 .2-.2.2h-4.1c-.2 0-.2 0-.2.2v2.2c0 .2 0 .2.2.2h3.4c.2 0 .2 0 .2.2v1.5c0 .2 0 .2-.2.2h-3.4c-.2 0-.2 0-.2.2v2.6c0 .2 0 .2.2.2h4.1c.2 0 .2 0 .2.2v1.5l-.2.1zm12.2-1.4c-.5.9-1.4 1.4-2.7 1.4h-.9c-2.1 0-3.3-1.4-3.3-3.1V296c0-1.9 1.2-3.1 3.3-3.1h.9c1.5 0 2.2.7 2.7 1.5.2.3.3.5.3.7 0 0 0 .2-.2.2l-1.4.7-.2.2s-.2 0-.2-.2c-.3-.7-.7-1-1.2-1h-.9c-.7 0-1.2.5-1.2 1.2v5.3c0 .7.5 1.2 1.2 1.2h.9c.5 0 .9-.3 1.2-1 0 0 0-.2.2-.2 0 0 .2 0 .2.2l1.4.7s.2 0 .2.2c0-.1-.2.2-.3.4zm9.2 1.5h-.9c-2.1 0-3.3-1.4-3.3-3.1v-5.3c0-1.9 1.2-3.1 3.3-3.1h.9c2.1 0 3.3 1.4 3.3 3.1v5.3c.1 1.8-1.2 3.1-3.3 3.1zm1.4-8.3c0-.7-.5-1.2-1.2-1.2h-.9c-.7 0-1.2.5-1.2 1.2v5.3c0 .7.5 1.2 1.2 1.2h.9c.7 0 1.2-.5 1.2-1.2v-5.3zm14.9 8.2h-1.9s-.2 0-.2-.2l-1.5-4.4s0-.2-.2-.2h-1.5c-.2 0-.2 0-.2.2v4.3c0 .2 0 .2-.2.2h-1.7c-.2 0-.2 0-.2-.2v-10.8c0-.2 0-.2.2-.2h3.9c2.1 0 3.3 1.4 3.3 3.3v.2c0 .9-.7 1.9-1.4 2.4v.2s0 .2.2.3l1.5 4.4c0 .2.2.2.2.3 0 0-.2.2-.3.2zm-1.9-8.1c0-.7-.5-1.2-1.2-1.2h-1.9c-.2 0-.2 0-.2.2v2.2c0 .2 0 .2.2.2h1.9c.5 0 1.2-.5 1.2-1.4zm11.4 8.1h-3.9c-.2 0-.2 0-.2-.2v-10.8c0-.2 0-.2.2-.2h3.9c2.1 0 3.3 1.4 3.3 3.3v4.4c0 2.1-1.2 3.5-3.3 3.5zm1.4-8.1c0-.7-.5-1.2-1.2-1.2h-1.9c-.2 0-.2 0-.2.2v7c0 .2 0 .2.2.2h1.9c.7 0 1.2-.5 1.2-1.2v-5zm10.8 8.2h-.7c-1.5 0-2.2-.7-2.7-1.4-.2-.2-.3-.5-.3-.7l.2-.2 1.4-.7.2-.2s.2 0 .2.2c.3.7.7 1 1.2 1h.7c.7 0 1.2-.5 1.2-1.2 0-1-.9-1.4-1.9-1.7-1.4-.7-2.9-1.4-2.9-3.4 0-1.9 1.2-3.1 3.3-3.1h.3c1.5 0 2.2.7 2.7 1.5.2.3.3.5.3.7 0 0 0 .2-.2.2l-1.4.7-.2.2s-.2 0-.2-.2c-.3-.7-.7-1-1.2-1h-.3c-.7 0-1.2.5-1.2 1.2 0 .9 1 1.2 2.1 1.7 1.4.7 2.7 1.4 2.7 3.6-.1 1.5-1.3 2.8-3.3 2.8z"/></svg>