<svg xmlns="http://www.w3.org/2000/svg" viewBox="295.3 225.6 371.4 108.9" enable-background="new 295.3 225.6 371.4 108.9"><path fill="#fff" d="M307.2 272.2l-.9 6.3h2.9v2.1h-3.1l-1.2 8.9h-2.2l1.2-8.9H300l-1.2 8.9h-2.1l1.2-8.9h-2.7v-2.1h3.1l.9-6.3h-2.9v-1.9h3.1l1-8.4h2.1l-1 8.4h3.9l1-8.4h2.1l-1 8.4h2.7v1.9h-3zm-6.1 0l-.9 6.3h3.9l.9-6.3h-3.9zm17.9 17.3V262h1.5v26.2h7.4v1.4H319zm25-1c-.9.9-2.2 1.4-3.8 1.4s-2.9-.5-3.8-1.4c-1.7-1.7-1.9-3.3-1.9-12.8s.3-11.1 1.9-12.8c.9-.9 2.2-1.4 3.8-1.4s2.9.5 3.8 1.4c1.7 1.7 1.9 3.3 1.9 12.8s-.4 11.1-1.9 12.8zm-1.2-24.5c-.5-.7-1.5-1-2.6-1-1.2 0-2.1.3-2.6 1-1.2 1.4-1.5 2.6-1.5 11.8 0 9.2.2 10.4 1.5 11.8.5.7 1.5 1 2.6 1 1.2 0 2.1-.3 2.6-1 1.2-1.4 1.5-2.6 1.5-11.8 0-9.2-.1-10.4-1.5-11.8zm16.8 25.5H358l-5.6-27.5h1.7l4.8 24.5 4.8-24.5h1.7l-5.8 27.5zm12.6 0V262h8.9v1.4h-7.4V275h6.3v1.4h-6.3V288h7.4v1.4h-8.9v.1zm27.6-1.2c-1 1-2.4 1.5-4.3 1.5-2.2 0-3.8-.9-4.8-2.1-1.9-2.1-2.1-5.3-2.1-12.1s.2-10.1 2.1-12.1c1-1.2 2.6-2.1 4.8-2.1 1.9 0 3.3.5 4.4 1.7 1.4 1.2 1.9 3.3 2.1 5.5h-3.4c0-1.2-.2-2.4-.9-3.3-.5-.5-1.2-1-2.2-1-1 0-1.7.3-2.2 1-1 1.4-1.2 3.6-1.2 10.1s.2 8.7 1.2 10.1c.5.7 1.2 1 2.2 1 1 0 1.7-.3 2.2-1 .7-.9.9-1.9.9-3.1h3.3c.1 2.6-.8 4.7-2.1 5.9zm9.9 1.2V262h3.4v27.7h-3.4v-.2zm22.7 0l-7.2-18.8v18.8H422V262h3.1l7.2 18.8V262h3.3v27.7h-3.1v-.2zm18.3-24.6v24.6h-3.4v-24.6h-4.6V262h12.7v2.9h-4.7zm20.2 24.6l-1.4-6.5h-6.3l-1.4 6.5h-3.4l6.5-27.7h3.3l6.3 27.7h-3.6zm-4.4-22.2l-2.6 12.7h5.1l-2.5-12.7zm28.6 22.2v-14.4l-3.1 9.4h-2.7l-2.9-9.4v14.4h-5.6V262h4.8l5 13.5 5-13.5h5v27.7h-5.3l-.2-.2zm25.6 0l-.9-4.3h-6.3l-.9 4.3h-5.8l7.2-27.7h5.5l7.2 27.7h-6zm-4.1-19.5l-2.2 10.3h4.3l-2.1-10.3zm26.2 19.5v-11.6h-4.6v11.6h-5.5V262h5.5v11.1h4.6V262h5.5v27.7h-5.5v-.2zm25.6 0l-.9-4.3H561l-.9 4.3h-5.8l7.2-27.7h5.5l7 27.7h-5.6zm-4.1-19.5l-2.2 10.3h4.3l-2.1-10.3zm29.8 17.8c-1.2 1.2-2.9 1.9-5.8 1.9h-8V262h8c2.7 0 4.6.7 5.8 1.7 1.4 1.4 1.9 3.3 1.9 6 0 1.7-.2 3.3-1.4 4.4-.3.3-.7.7-1.2.9.5.3.9.7 1.2 1 1.2 1.4 1.4 3.4 1.4 5 0 3-.5 5.2-1.9 6.8zm-6.5-20.9h-1.7v5.8h1.7c2.2 0 2.9-.9 2.9-2.9s-.7-2.9-2.9-2.9zm0 10.4h-1.7v7.2h1.7c2.2 0 2.9-1 2.9-3.6 0-2.4-.7-3.6-2.9-3.6zm29.9 10.5c-1.2 1.2-2.9 1.9-5.8 1.9h-7.9V262h8c2.7 0 4.6.7 5.8 1.7 1.4 1.4 1.9 3.3 1.9 6 0 1.7-.2 3.3-1.4 4.4-.3.3-.7.7-1.4.9.5.3.9.7 1.2 1 1.2 1.4 1.4 3.4 1.4 5 .1 3-.4 5.2-1.8 6.8zm-6.5-20.9h-1.7v5.8h1.7c2.2 0 2.9-.9 2.9-2.9s-.8-2.9-2.9-2.9zm0 10.4h-1.7v7.2h1.7c2.2 0 2.9-1 2.9-3.6 0-2.4-.8-3.6-2.9-3.6zm28.1 12.2l-.9-4.3h-6.3l-.9 4.3h-5.8l7.2-27.7h5.5l7.2 27.7h-6zm-3.9-19.5l-2.1 10.3h4.3l-2.2-10.3zm26 19.5v-11.6h-4.6v11.6h-5.5V262h5.5v11.1h4.6V262h5.5v27.7h-5.5v-.2z"/></svg>