<svg xmlns="http://www.w3.org/2000/svg" viewBox="789.5 225.6 150 109.9" enable-background="new 789.5 225.6 150 109.9"><g fill="#BF2645"><path d="M789.5 249.8h7.5v7.5h-7.5zM789.5 259.8h7.5v27.5h-7.5zM825.8 287.3h-7.5v-18.8s0-2.5-2.5-2.5H807v21.2h-7.5v-27.5h18.8c7.5 0 7.5 7.5 7.5 7.5v20.1zM842 287.3h-6.3c-7.5 0-7.5-7.5-7.5-7.5v-30h7.5v10h7.5l-3.8 6.3h-3.7v12.5s0 2.5 2.5 2.5h3.8v6.2zM844.5 259.8h18.7c7.5 0 7.5 7.5 7.5 7.5v8.7H852v2.5s.1 2.5 2.5 2.5H867l3.7 6.3H852c-7.5 0-7.5-7.5-7.5-7.5v-20zm7.5 6.2v3.7h11.3v-1.3c0-2.5-2.5-2.5-2.5-2.5H852zM899.5 287.3h-18.7c-7.5 0-7.5-7.5-7.5-7.5v-10H892v-1.3s0-2.5-2.5-2.5H877l-3.8-6.3H892c7.5 0 7.5 7.5 7.5 7.5v20.1zM892 281v-5h-11.2v2.5c0 2.5 2.5 2.5 2.5 2.5h8.7zM939.5 287.3H932v-18.8s0-2.5-2.5-2.5h-5v21.2H917V266h-7.5v21.2H902v-27.5h30c7.5 0 7.5 7.5 7.5 7.5v20.1z"/></g><g fill="#808184"><path d="M865 302.1h-1.8c-.1 0-.1 0-.1-.1l-1.6-4.5c0-.1-.1-.1-.2-.1h-1.6c-.1 0-.2.1-.2.2v4.3c0 .1 0 .2-.2.2h-1.7c-.1 0-.2 0-.2-.2v-10.8c0-.1.1-.2.2-.2h4c2 0 3.3 1.3 3.3 3.3v.2c0 .9-.7 1.9-1.4 2.4l-.1.1s0 .1.1.3l1.5 4.4c0 .1.1.2.1.3.1.2 0 .2-.1.2zm-2-8c0-.7-.6-1.3-1.3-1.3h-1.9c-.1 0-.2 0-.2.2v2.3c0 .1.1.2.2.2h1.9c.7 0 1.3-.6 1.3-1.3v-.1zM876.8 302.1h-6.2c-.1 0-.2 0-.2-.2v-10.8c0-.1.1-.2.2-.2h6.2c.1 0 .2.1.2.2v1.5c0 .1-.1.2-.2.2h-4.2c-.1 0-.2 0-.2.2v2.3c0 .1 0 .2.2.2h3.4c.1 0 .2 0 .2.1v1.5c0 .1-.1.2-.2.2h-3.4c-.1 0-.2.1-.2.2v2.5c0 .1 0 .2.2.2h4.2c.1 0 .2.1.2.2v1.5c0 .2-.1.2-.2.2zM889 300.9c-.5.8-1.3 1.4-2.8 1.4h-.9c-2 0-3.3-1.3-3.3-3.1V294c0-1.8 1.3-3.1 3.3-3.1h.9c1.5 0 2.3.6 2.8 1.5.1.3.3.5.3.6 0 0 0 .1-.1.1l-1.4.7c-.1 0-.1.1-.2.1 0 0-.1 0-.1-.2-.3-.7-.8-1-1.3-1h-.9c-.7 0-1.3.6-1.3 1.3v5.2c0 .7.6 1.3 1.3 1.3h.9c.5 0 .9-.3 1.3-1 0-.1.1-.1.1-.1.1 0 .1 0 .2.1l1.4.7c.1 0 .1.1.1.1.1 0-.1.3-.3.6zM898.3 302.3h-.9c-2 0-3.3-1.3-3.3-3.1V294c0-1.8 1.3-3.1 3.3-3.1h.9c2 0 3.3 1.3 3.3 3.1v5.2c0 1.8-1.3 3.1-3.3 3.1zm1.3-8.3c0-.7-.6-1.3-1.3-1.3h-.9c-.7 0-1.3.6-1.3 1.3v5.2c0 .7.6 1.3 1.3 1.3h.9c.7 0 1.3-.6 1.3-1.3V294zM914.6 302.1h-1.8c-.1 0-.1 0-.1-.1l-1.6-4.5c0-.1-.1-.1-.1-.1h-1.6c-.1 0-.2.1-.2.2v4.3c0 .1 0 .2-.2.2h-1.7c-.1 0-.2 0-.2-.2v-10.8c0-.1.1-.2.2-.2h3.9c2 0 3.3 1.3 3.3 3.3v.2c0 .9-.8 1.9-1.4 2.4l-.1.1s0 .1.1.3l1.5 4.4c.1.1.1.2.1.3 0 .2 0 .2-.1.2zm-2.1-8c0-.7-.6-1.3-1.3-1.3h-1.9c-.1 0-.2 0-.2.2v2.3c0 .1.1.2.2.2h1.9c.7 0 1.3-.6 1.3-1.3v-.1zM924.1 302.1h-4c-.1 0-.2 0-.2-.2v-10.8c0-.1.1-.2.2-.2h4c2 0 3.3 1.3 3.3 3.3v4.5c0 2.1-1.3 3.4-3.3 3.4zm1.2-8c0-.7-.6-1.3-1.3-1.3h-1.9c-.1 0-.2 0-.2.2v7c0 .1.1.2.2.2h1.9c.7 0 1.3-.6 1.3-1.3v-4.8zM936.3 302.3h-.7c-1.5 0-2.3-.6-2.8-1.4-.2-.2-.3-.5-.3-.7 0-.1 0-.1.1-.1l1.4-.7c.1 0 .1-.1.2-.1 0 0 .1 0 .2.1.3.8.8 1 1.2 1h.7c.7 0 1.3-.6 1.3-1.3 0-1-.9-1.3-1.9-1.7-1.4-.7-2.9-1.4-2.9-3.5 0-1.8 1.3-3.1 3.3-3.1h.3c1.5 0 2.3.6 2.8 1.5.2.3.3.5.3.6l-.1.1-1.4.7c-.1 0-.1.1-.2.1s-.1 0-.1-.2c-.3-.7-.8-1-1.3-1h-.4c-.7 0-1.3.6-1.3 1.3 0 .9 1 1.2 2.1 1.6 1.3.6 2.8 1.4 2.8 3.6-.1 1.9-1.3 3.2-3.3 3.2z"/></g></svg>