<svg xmlns="http://www.w3.org/2000/svg" viewBox="297.7 225.6 455.8 109.9" enable-background="new 297.7 225.6 455.8 109.9"><path fill="#BF2645" d="M315.2 267.5l-.9 6.9h3.4v3.6h-4l-1.4 10.2h-3.9l1.4-10.2h-5l-1.4 10.2h-3.9l1.4-10.2h-3.3v-3.6h3.9l.9-6.9H299v-3.6h4l1.3-9.5h3.9l-1.3 9.5h4.9l1.3-9.5h3.9l-1.3 9.5h3.3v3.6h-3.8zm-8.8 0l-.9 6.9h4.9l.9-6.9h-4.9z"/><path fill="#808184" d="M329.6 288.1v-33.7h1.9v32h9v1.7h-10.9zM360 286.8c-1 1.1-2.7 1.7-4.5 1.7-1.8 0-3.5-.6-4.5-1.7-2-2-2.4-3.9-2.4-15.6 0-11.6.4-13.5 2.4-15.6 1-1.1 2.7-1.7 4.5-1.7 1.8 0 3.5.6 4.5 1.7 2 2 2.4 3.9 2.4 15.6-.1 11.7-.5 13.6-2.4 15.6zm-1.4-29.9c-.7-.8-1.8-1.2-3.2-1.2-1.4 0-2.5.4-3.2 1.2-1.5 1.7-1.8 3.1-1.8 14.3 0 11.2.3 12.7 1.8 14.3.7.8 1.8 1.2 3.2 1.2 1.4 0 2.5-.4 3.2-1.2 1.5-1.7 1.8-3.1 1.8-14.3 0-11.2-.3-12.6-1.8-14.3zM379.1 288.1h-1.8l-7.1-33.7h2.1l5.9 29.8 5.9-29.8h2.1l-7.1 33.7zM394.5 288.1v-33.7h10.9v1.7h-9v14.3h7.8v1.7h-7.8v14.3h9v1.7h-10.9zM428.1 286.6c-1.3 1.2-2.9 1.8-5.2 1.8-2.7 0-4.5-1-5.8-2.4-2.3-2.6-2.5-6.4-2.5-14.8s.1-12.3 2.5-14.8c1.3-1.4 3.1-2.4 5.8-2.4 2.3 0 4 .7 5.3 2 1.6 1.5 2.4 3.9 2.4 6.7h-4.1c0-1.5-.3-2.9-1-3.9-.6-.7-1.4-1.2-2.6-1.2-1.3 0-2.2.5-2.7 1.3-1.2 1.6-1.4 4.3-1.4 12.3s.2 10.7 1.4 12.3c.6.8 1.4 1.3 2.7 1.3 1.3 0 2.1-.5 2.6-1.2.8-.9 1.1-2.4 1.1-3.8h4.1c0 2.8-.9 5.3-2.6 6.8zM440.2 288.1v-33.7h4.1v33.7h-4.1zM467.9 288.1l-8.7-23v23h-4.1v-33.7h3.8l8.7 23v-23h4.1v33.7h-3.8zM490.1 258.1v30H486v-30h-5.7v-3.6h15.4v3.6h-5.6zM514.9 288.1l-1.6-8h-7.8l-1.6 8h-4.3l7.9-33.7h3.9l7.8 33.7h-4.3zm-5.5-27.1l-3.2 15.5h6.3l-3.1-15.5zM544.2 288.1v-17.6l-3.7 11.5H537l-3.6-11.5V288h-6.7v-33.7h5.9l6.1 16.5 6.2-16.5h6V288h-6.7zM575.5 288.1l-1.1-5.3h-7.8l-1.1 5.3h-7l8.7-33.7h6.6l8.7 33.7h-7zm-5-23.8l-2.6 12.5h5.2l-2.6-12.5zM602.4 288.1V274h-5.6v14.1h-6.7v-33.7h6.7v13.5h5.6v-13.5h6.7v33.7h-6.7zM633.7 288.1l-1.1-5.3h-7.8l-1.1 5.3h-7l8.7-33.7h6.6l8.7 33.7h-7zm-5-23.8l-2.6 12.5h5.2l-2.6-12.5zM665 285.9c-1.4 1.5-3.6 2.2-7 2.2h-9.8v-33.7h9.8c3.4 0 5.6.8 7 2.2 1.6 1.6 2.2 4 2.2 7.2 0 2.2-.2 4-1.6 5.4-.4.4-.9.8-1.6 1.1.6.3 1.1.8 1.5 1.2 1.6 1.7 1.7 4.3 1.7 6.1.1 3.8-.5 6.5-2.2 8.3zm-8-25.4h-2v7.2h2c2.6 0 3.5-1.1 3.5-3.6.1-2.6-.8-3.6-3.5-3.6zm.1 12.8H655v8.7h2.1c2.7 0 3.5-1.3 3.5-4.4 0-3-.9-4.3-3.5-4.3zM693.6 285.9c-1.4 1.5-3.6 2.2-7 2.2h-9.7v-33.7h9.7c3.4 0 5.6.8 7 2.2 1.6 1.6 2.2 4 2.2 7.2 0 2.2-.2 4-1.6 5.4-.4.4-.9.8-1.6 1.1.6.3 1.1.8 1.5 1.2 1.6 1.7 1.7 4.3 1.7 6.1 0 3.8-.5 6.5-2.2 8.3zm-8-25.4h-2v7.2h2c2.7 0 3.6-1.1 3.6-3.6-.1-2.6-.9-3.6-3.6-3.6zm.1 12.8h-2.1v8.7h2.1c2.7 0 3.5-1.3 3.5-4.4-.1-3-.9-4.3-3.5-4.3zM719.9 288.1l-1.1-5.3H711l-1.1 5.3h-7l8.7-33.7h6.6l8.7 33.7h-7zm-4.9-23.8l-2.6 12.5h5.2l-2.6-12.5zM746.9 288.1V274h-5.6v14.1h-6.7v-33.7h6.7v13.5h5.6v-13.5h6.7v33.7h-6.7z"/></svg>