<svg xmlns="http://www.w3.org/2000/svg" viewBox="1206.6 225.6 68.2 109.9" enable-background="new 1206.6 225.6 68.2 109.9"><path fill="#009345" d="M1274.6 294.5c-9.7 5-19.6 10-29.6 15.1-1.4.7-3.2 2-4.4 2s-3.1-1.4-4.4-2c-9.9-5.2-19.9-10-29.7-15.1.8-1 2-1.7 3.2-2.4 2.2-1.5 4.6-2.7 6.6-4.6 1-.9 2-1.9 2.3-3.2.6-2.4-.5-5.2-1.5-6.9-1-1.9-2.4-3.7-3.4-5.1-2.4-3.5-4.1-7.3-3.7-13.3.3-3.7 2.4-6.9 4.6-9.3 2.2-2.5 4.9-4.5 7.5-6.3 5.5-4 11.2-7.1 17.7-9.9 1.4-.5 3.4.9 4.5 1.4 3.8 1.8 7.5 3.7 10.7 5.8 4.1 2.5 8.4 5.3 12.2 9.8 1.8 2.1 3.2 4.4 3.7 7.3.6 3.2.1 7.1-.9 9.7-1 2.6-2.7 4.7-4.1 6.8-1.6 2.2-3.3 4.4-3.5 7.5-.2 2.4.5 3.7 1.6 4.9 2.6 2.9 7.2 4.6 10.2 7.3.2.1.6.3.4.5zm-12.5-9.1c-.9-2-.5-5 .3-6.9 1.3-3.1 3.5-5.2 5.4-8.2 1.8-2.8 2.8-6.7 2.4-11.3-.5-6.7-7.9-12.2-12-15.1-4.3-3-9.9-6.1-15.2-8.5-.9-.4-2.1-1.2-3-.7-6.4 2.8-11.7 5.6-17.1 9.4-2.4 1.6-5 3.7-7.1 6.1-2 2.2-4.3 5.3-4.6 8.7-.5 5.8 1.1 9.7 3.5 13.1 1 1.5 2.3 3.1 3.4 4.9 1 1.7 2 4.1 1.8 6.6-.3 3.5-3.3 5.4-5.6 6.9-2 1.3-4.1 2.7-5.8 4.1 9.3 4.6 18.8 9.8 28.2 14.5 1 .5 3.4 2 4.3 1.9.5 0 1.2-.5 2-1 10.3-5.2 20.4-10.4 30.3-15.6-3.5-2.9-9.3-4.7-11.2-8.9z"/><path d="M1268.4 294.4c-8 3.8-15.9 7.7-24.1 11.7-1 .5-2.7 1.6-3.5 1.6-.9 0-2.5-1.1-3.6-1.6-8-3.9-16.1-7.9-24.1-11.7 0-.3.4-.7.6-.9.8-.7 1.8-1.4 2.8-2 3-2.1 6.4-3.8 6.5-9 .1-3.9-1.8-6.6-3.5-9-2.4-3.6-4.2-6.8-3.6-13.1.3-3.1 2.1-5.7 3.8-7.8 1.8-2.2 3.9-3.9 6-5.5 4.5-3.5 9-6.3 14.5-8.6 1.1-.5 3.3.9 4.6 1.6 3.9 2 7.8 4.4 11 6.8 2 1.6 4.2 3.5 6.1 5.8 1.7 2 3.6 5 3.8 8 .3 3.1-.1 6.3-1.1 8.6-1.4 3.5-4.4 5.8-5.5 9.5-1.4 4.1-.1 8.2 2.2 10.2 2.1 1.9 5.3 3.2 7.1 5.4zm-42.1-46.2c-1.9 1.4-4.1 3.3-5.8 5.4-1.8 2.1-3.3 4.7-3.4 7.9-.1 2.4.1 4.6.7 6.5 1.6 4.8 6.5 8.2 6.5 14.5 0 3.2-1.6 6.2-3.9 8.1-1.7 1.4-3.4 1.9-4.9 3.5 8.5 4 16.7 8.2 25.2 12.2 8.4-4.1 16.7-8.2 25.2-12.2-1.6-1.7-4.2-2.7-6-4.5-1.6-1.6-2.8-4-2.9-6.8-.3-8 6.6-10.8 7.1-18.4.4-5.8-1.4-8.4-4.1-11.4-5.2-6-12.3-9.8-19.2-13.4h-.2c-5.1 2.5-9.8 5.2-14.3 8.6zm10 13c1.4 3.4 2.9 6.7 4.3 10.2.7-.7.8-1.7 1.2-2.6 1-2.4 2.3-5 3.3-7.7 3.5.1 7.1-.1 10.4.1-.1.6-1 .3-1.3.7-.5 8-.1 16.9-.1 25 .3.3 1.2.2 1.4.6-.1.5-.8.3-1.2.3-3.2.1-7.2 0-10.3-.1-.1-.7.9-.5 1.3-.7v-10c-1.1 2.6-2.4 5.4-3.6 8.3-.3.7-.7 2.6-1.4 2.6s-1.1-1.9-1.4-2.6c-1.2-2.8-2.4-5.6-3.5-8.3-.3 3.1-.1 6.6-.1 9.8.1.6 1.3.1 1.3.8-.2.4-.8.2-1.2.2-2.9.1-6.5.1-9.4-.1-.1-.8 1.1-.4 1.4-.8v-25c-.2-.5-1.2-.2-1.4-.7 0-.1 0-.2.1-.2 3.4.2 6.8.2 10.2.2zm-7.8 1v25c1.2.7 4.3.7 5.6 0-.1-3.8.1-7.9-.1-11.5-.4-.3-1.3-.2-1.4-.9.9-.1 2.7.2 3.7-.1 1.5 3.5 2.8 7.1 4.5 10.3 1-2.7 2.3-5.3 3.3-7.8.3-.9.5-1.8 1.2-2.6.5.2 1.1.1 1.8.1.6 0 1.5-.3 1.6.2-.2.5-1 .3-1.4.6-.2 3.6-.2 8 0 11.6 1.4.5 4.1.6 5.5 0v-15c0-3.7.3-7.2-.3-10.3-1.4-.3-4.1-.4-5.3.2-.2 3.7-.2 8 0 11.6.4.3 1.4.1 1.4.7-1 .1-2.6.1-3.6.1-.3 0-1 .2-1.1-.2.1-.6 1.2-.3 1.3-.8-.1-3.3.1-6.7-.1-9.8-1.3 3.1-2.7 6.6-4.1 9.8-.3.6-.4 1.2-1 1.1-.4-.1-.5-.6-.7-1.2-1.4-3.4-2.7-6.7-4.1-9.7v9.9c.3.5 1.3.1 1.3.9-.5.2-1.3.1-2 .1s-1.7.2-1.9-.3c.3-.4 1.2-.3 1.5-.6v-11.4c-.9-.8-5-.9-5.6 0z"/><path fill="#231F20" d="M1221.3 324.1v-3.8c0-.7-.5-.9-.7-.9-.3 0-.8.1-.8.9v3.8h-2v-3.8c0-.7-.5-.9-.8-.9s-.7.1-.7.9v3.8h-2v-6.4h1.9v.5c.4-.4 1-.6 1.5-.6.6 0 1.2.2 1.6.7.5-.5 1.1-.7 1.8-.7.6 0 1.2.2 1.6.5.5.5.7 1.2.7 1.8v4.1h-2.1zm6.4 0v-.5c-.4.4-.7.6-1.4.6-.6 0-1.2-.2-1.5-.5-.3-.3-.5-.9-.5-1.5 0-1 .7-1.8 2.2-1.8h1.3v-.1c0-.6-.3-.8-1-.8-.5 0-.7.1-1 .4l-1.2-1.2c.7-.7 1.2-.9 2.3-.9 1.8 0 2.8.7 2.8 2.3v4.1h-2zm-.1-2.5h-1c-.4 0-.6.2-.6.5s.2.5.6.5.5-.1.7-.3c.1-.1.2-.3.2-.6v-.1h.1zm6.7 2.5v-.5c-.4.4-.8.6-1.5.6-.6 0-1.2-.2-1.6-.6-.6-.6-.6-1.8-.6-2.7 0-1 0-2 .6-2.7.3-.3 1-.6 1.6-.6.6 0 1.1.2 1.4.5v-2.5h2v8.4h-1.9zm-.9-4.7c-.7 0-.8.6-.8 1.5s.1 1.5.8 1.5.8-.6.8-1.5 0-1.5-.8-1.5zm7.6.4c-.2-.2-.3-.3-.7-.3-.3 0-.8.1-.8.9v3.8h-2v-6.4h1.9v.5c.3-.3.8-.6 1.5-.6.6 0 1 .1 1.5.6l-1.4 1.5zm5.2 4.3v-.5c-.4.4-.7.6-1.4.6-.6 0-1.2-.2-1.6-.5-.3-.3-.5-.9-.5-1.5 0-1 .7-1.8 2.2-1.8h1.3v-.1c0-.6-.3-.8-1-.8-.5 0-.7.1-1 .4l-1.2-1.2c.7-.7 1.2-.9 2.3-.9 1.8 0 2.8.7 2.8 2.3v4.1h-1.9zm0-2.5h-1c-.4 0-.6.2-.6.5s.2.5.6.5.5-.1.7-.3c.1-.1.2-.3.2-.6v-.1h.1zm5.5 2.6c-1 0-1.9-.1-2.8-1l1.2-1.2c.5.5 1.2.5 1.6.5.3 0 .8-.1.8-.4 0-.2-.1-.3-.5-.4l-1-.1c-1.1-.1-1.8-.6-1.8-1.8 0-1.4 1.3-2.1 2.5-2.1 1 0 1.9.1 2.5.8l-1.2 1.2c-.3-.3-.9-.3-1.4-.3s-.6.2-.6.3c0 .1 0 .3.4.3l1 .1c1.4.1 1.9 1 1.9 2 .1 1.4-1.1 2.1-2.6 2.1zm6.8-.1v-.5c-.4.4-.7.6-1.4.6-.6 0-1.2-.2-1.5-.5s-.5-.9-.5-1.5c0-1 .7-1.8 2.2-1.8h1.3v-.1c0-.6-.3-.8-1-.8-.5 0-.7.1-1 .4l-1.2-1.2c.7-.7 1.2-.9 2.3-.9 1.8 0 2.8.7 2.8 2.3v4.1h-2v-.1zm0-2.5h-1c-.4 0-.6.2-.6.5s.2.5.6.5.5-.1.7-.3c.1-.1.2-.3.2-.6v-.1h.1zm6.8 2.5v-3.9c0-.7-.5-.8-.7-.8-.3 0-.7.1-.7.8v3.9h-2v-8.4h2v2.6c.4-.4.9-.6 1.4-.6 1.4 0 2 1 2 2.3v4.1h-2z"/><path fill="#009345" d="M1220.2 334v-3.8c0-.7-.5-.9-.8-.9s-.7.1-.7.9v3.8h-2v-3.8c0-.7-.5-.9-.7-.9-.3 0-.8.1-.8.9v3.8h-1.9v-6.4h1.9v.5c.4-.4 1-.6 1.5-.6.6 0 1.2.2 1.6.7.5-.5 1.1-.7 1.8-.7.6 0 1.2.2 1.5.5.5.5.7 1.2.7 1.8v4.1l-2.1.1zm6.4 0v-.5c-.4.4-.7.6-1.4.6s-1.2-.2-1.6-.5c-.3-.3-.5-.9-.5-1.5 0-1 .7-1.8 2.2-1.8h1.3v-.3c0-.6-.3-.8-1-.8-.5 0-.7.1-1 .4l-1.2-1.2c.7-.7 1.2-.8 2.3-.8 1.8 0 2.8.7 2.8 2.3v4.1h-1.9zm0-2.6h-1c-.4 0-.6.2-.6.5s.2.5.6.5.5-.1.7-.3c.1-.1.2-.3.2-.6l.1-.1zm6.8 2.6v-3.9c0-.7-.5-.8-.7-.8s-.7.1-.7.8v3.9h-2v-8.4h2v2.6c.4-.4.9-.6 1.4-.6 1.4 0 2 1 2 2.3v4.1h-2zm6.4 0v-.5c-.4.4-.7.6-1.4.6-.6 0-1.2-.2-1.5-.5s-.5-.9-.5-1.5c0-1 .7-1.8 2.2-1.8h1.3v-.3c0-.6-.3-.8-1-.8-.5 0-.7.1-1 .4l-1.2-1.2c.7-.7 1.2-.8 2.3-.8 1.8 0 2.8.7 2.8 2.3v4.1h-2zm0-2.6h-1c-.4 0-.6.2-.6.5s.2.5.6.5.5-.1.7-.3c.1-.1.2-.3.2-.6v-.1h.1zm8.1 2.1c-.3.3-1 .6-1.6.6-.7 0-1.1-.2-1.5-.6v.5h-1.9v-8.4h2v2.5c.3-.3.8-.5 1.4-.5.6 0 1.2.2 1.6.6.6.6.6 1.8.6 2.7 0 .8 0 1.9-.6 2.6zm-2.2-4.2c-.7 0-.8.6-.8 1.5 0 1 .1 1.5.8 1.5s.8-.6.8-1.5c.1-.9 0-1.5-.8-1.5zm8.9 4.2c-.3.3-1 .6-1.6.6-.7 0-1.1-.2-1.5-.6v.5h-1.9v-8.4h2v2.5c.3-.3.8-.5 1.4-.5s1.2.2 1.6.6c.6.6.6 1.8.6 2.7.1.8.1 1.9-.6 2.6zm-2.1-4.2c-.7 0-.8.6-.8 1.5 0 1 .1 1.5.8 1.5s.8-.6.8-1.5-.1-1.5-.8-1.5zm7 4.7v-.5c-.4.4-.7.6-1.4.6-.6 0-1.2-.2-1.5-.5-.3-.3-.5-.9-.5-1.5 0-1 .7-1.8 2.2-1.8h1.3v-.3c0-.6-.3-.8-1-.8-.5 0-.7.1-1 .4l-1.2-1.2c.6-.7 1.2-.8 2.3-.8 1.8 0 2.8.7 2.8 2.3v4.1h-2zm0-2.6h-1c-.4 0-.6.2-.6.5s.2.5.6.5.5-.1.7-.3c.1-.1.2-.3.2-.6l.1-.1zm6.8 2.6v-3.9c0-.7-.5-.8-.7-.8s-.7.1-.7.8v3.9h-2v-8.4h2v2.6c.4-.4.9-.6 1.4-.6 1.4 0 2 1 2 2.3v4.1h-2z"/></svg>