<svg xmlns="http://www.w3.org/2000/svg" viewBox="979.3 225.6 84.7 109.9" enable-background="new 979.3 225.6 84.7 109.9"><path fill="#fff" d="M992.3 323.4c-1.3 0-2.5-.3-3.3-1.2-.7-.5-1-1.3-1-2 0-.8.3-1.5 1-2 .8-.7 2.2-1.2 3.3-1.2 1.3 0 2.5.3 3.3 1.2.7.5.8 1.3.8 2s-.3 1.5-.8 2c-.6.9-2 1.2-3.3 1.2v-.8c.7 0 1.3-.2 1.8-.7s.7-1 .7-1.7-.2-1.3-.7-1.7c-.5-.5-1.2-.7-1.8-.7-.7 0-1.3.2-1.8.7-.5.5-.7 1-.7 1.7s.2 1.2.7 1.7c.5.5 1.2.7 1.8.7v.8zm-9.7-6.5c-.7 0-1.5.2-2.2.5-.7.3-1.2.7-1.2 1.5 0 .7.5 1 .5 1 .2.2.5.5 1.2.7.3 0 1 .2 1.8.3.7 0 1.5.2 1.7.2s.7.2.7.5c0 .5-.3.5-.5.7 0 0-.5.3-1.5.3-.7 0-1.5-.2-1.7-.3-.3-.2-.7-.3-1-.7 0-.2-.2-.3-.2-.7h-.8v2.3h.8v-.3s0-.2.2-.2.7.3 1.3.5c.5.2.8.2 1.3.2 1 0 1.5-.2 1.8-.2l1-.5c.2-.2.5-.5.5-1.2s-.3-1-.5-1.2c-.2-.2-.3-.3-.5-.3s-.5-.2-.7-.2c-.5-.2-1.5-.3-2-.3s-1.5-.2-1.8-.2c-.2 0-.3-.2-.3-.3 0-.2.2-.3.3-.5.3-.2 1-.3 1.7-.3.8 0 1.5.2 1.8.3.2 0 .3.2.5.3.2.2.3.3.5.7h.7v-2h-.8v.2s0 .2-.2.2c0-.5-1-.8-2.4-1zm14.9.5v.7h.7c.5 0 .5.2.5.5v3.3c0 .2 0 .5-.3.5h-.8v.7h3.3v-.7h-.8c-.3 0-.3-.2-.3-.5v-2.8l4.5 4h1.2v-4.5c0-.3 0-.5.3-.5h.7v-.7h-3.3v.7h.7c.3 0 .3.2.3.5v2.3l-3.8-3.5h-2.9zm11.9 5v.7h3.8v-.7h-.8s-.2 0-.2-.2v-1.5s2-2.3 2.2-2.5c.2-.2.3-.3.5-.3h.7v-.7h-3.2v.7h.5c.2 0 .2.2.2.2l-1.3 1.7-1.3-1.7c-.2-.2 0-.2.2-.2h.5v-.7h-4v.7h.7c.3 0 .5.2.7.3.2.2 2.2 2.3 2.2 2.5v1.5s0 .2-.2.2h-1.2zm53.5-1.3c-.2.5-.5 1-1 1.2-.3.2-.8.3-1.7.3h-.5c-.5-.2-.8-.3-1.2-.7-.5-.5-.7-1-.7-1.7s.2-1.2.7-1.7c.5-.5 1.2-.7 1.8-.7h.2c.7 0 1.2.2 1.7.3.3.2.8.7 1 1.2h.8v-2.2h-.8v.3h-.2c-.3-.2-1.3-.7-2.5-.7h-.2c-1.2 0-2.5.5-3.2 1.2l-.5.5c-.3.5-.5 1-.5 1.5v.2c0 .7.3 1.3.8 1.8.7.7 1.7 1 2.7 1.2 1 .2 2 0 2.8-.5.7-.3 1.2-1 1.3-1.8h-1l.2.3zm-35.8-3.7l-1.7 3.7-1.7-3.7h-3.7v.7h.7c.5 0 .5.2.5.5v3.3c0 .2 0 .5-.3.5h-.8v.7h3.2v-.7h-.7c-.3 0-.3-.2-.3-.5v-3.7l2.2 4.8h1.2l2.2-4.8v3.7c0 .3 0 .5-.3.5h-.7v.7h3.8v-.7h-.8c-.3 0-.3-.3-.3-.5v-3.3c0-.2 0-.5.5-.5h.7v-.7h-3.7zm10.3.7h.7c.3 0 .3.2.3.3v2.8c0 .7-.2 1.3-2 1.3-1.7 0-1.7-1.2-1.7-1.3v-2.8c0-.3 0-.3.3-.3h.7v-.7h-4v.7h.7c.3 0 .3.2.3.5v2.8c0 1.8 1.8 2.2 3.5 2.2s3.3-.3 3.3-2.2v-3c0-.2 0-.3.3-.3h.7v-.7h-3.3v.7h.2zm16.3 4.1s-.1 0 0 0l-.2-.3v-3.8s0-.2.2-.2h.8v-.7h-4v.7h.8s.2 0 .2.2v4s0 .2-.2.2h-.8v.7h4v-.7h-.8zm-5-1.9c-.2-.2-.3-.3-.5-.3-.2-.2-.5-.2-.7-.2-.5-.2-1.5-.3-2-.3s-1.5-.2-1.8-.3c-.2 0-.3-.2-.3-.5 0-.2.2-.3.3-.5.3-.2 1-.3 1.7-.3.8 0 1.5.2 1.8.3.2 0 .3.2.5.3.2.2.3.3.5.7h.7v-2h-.8v.2s0 .2-.2.2c-.3-.2-1.3-.7-2.7-.7-.7 0-1.5.2-2.2.5-.7.3-1.2.7-1.2 1.5 0 .7.5 1 .3 1 .2.2.5.5 1.3.7.3.2 1.2.2 1.8.3.7 0 1.5.2 1.7.2.2 0 .7.2.7.7s-.3.5-.5.7c0 0-.5.3-1.5.3-.7 0-1.5-.2-1.7-.3-.3-.2-.7-.3-1-.7-.2-.2-.2-.3-.2-.7h-.8v2.3h.8v-.3s0-.2.2-.2.7.3 1.3.5c.5.2.8.2 1.3.2 1 0 1.5-.2 1.8-.2l1-.5c.2-.2.5-.5.5-1.2.4-.9.1-1.3-.1-1.4zm-64.7 7.4h.8v.8c.3-.7 1-1 1.7-1 .8 0 1.5.3 2 1l.2.2s0-.2.2-.2c.5-.7 1.2-1 2-1 .7 0 1.3.3 1.8 1 .5.5.5 1.2.5 1.8v3.5h-.8v-3.5c0-.5 0-1-.3-1.3-.3-.5-.8-.7-1.3-.7s-1 .3-1.3.7-.3.8-.3 1.3v3.5h-.8v-3.5c0-.5 0-.8-.3-1.2-.3-.5-.8-.7-1.3-.7s-1 .2-1.3.7c-.3.3-.3.8-.3 1.3v3.5H984v-6.2zm16.8 6h-.8v-1.2c-.5.8-1.3 1.3-2.3 1.3-1 0-2-.3-2.7-1.3-.2-.2-.7-1-.7-2 0-.8.3-1.7.7-1.8 1-1 1.8-1.3 2.7-1.3 1 0 2 .5 2.3 1.3v-1.2h.8v6.2zm-5.7-3c0 1.3 1.2 2.3 2.5 2.3s2.3-1.2 2.3-2.3c0-1.3-1-2.5-2.3-2.5-1.5 0-2.5 1.2-2.5 2.5zm7.4-5.1h.8v5.8l2.8-3.7h1l-2.3 3.2 2.5 3h-1l-2-2.5-1 1.3v1.2h-.8v-8.3zm5.8 5.5c0 1.2 1.2 2.2 2.3 2.2.8 0 1.8-.5 2.2-1.3h.8c-.5 1.2-1.7 2.2-3 2.2-1.8 0-3.2-1.5-3.2-3.2 0-1.8 1.3-3.2 3.2-3.2 1 0 1.8.5 2.5 1.2.5.7.7 1.5.7 2.3h-5.5v-.2zm4.6-.9c-.2-1.2-1.2-2-2.3-2-1.2 0-2.2.8-2.3 2h4.6zm7.4-4.6h.8v3.3c.3-.8 1.5-1.3 2.3-1.3 1.8 0 3.3 1.3 3.3 3.2 0 .8-.3 1.7-.7 2-.8 1-1.7 1.2-2.5 1.2s-2-.3-2.5-1.2v1h-.8v-8.2zm1.3 3.5c-.5.5-.7 1-.7 1.7 0 1.3 1.2 2.3 2.5 2.3s2.3-1.2 2.3-2.5-1.2-2.3-2.5-2.3c-.4-.1-1.1.3-1.6.8zm7 2c0 1.2 1.2 2.2 2.3 2.2.8 0 1.8-.5 2.2-1.3h.8c-.5 1.2-1.7 2.2-3 2.2-1.8 0-3.2-1.5-3.2-3.2 0-1.8 1.3-3.2 3.2-3.2 1 0 1.8.5 2.5 1.2.5.7.7 1.5.7 2.3h-5.5v-.2zm4.7-.9c-.2-1.2-1.2-2-2.3-2s-2.2.8-2.3 2h4.6zm2.1-4.6h.8v8.3h-.8v-8.3zm2.5 0h.8v1.5h-.8v-1.5zm0 2.1h.8v6.2h-.8v-6.2zm3 3.4c0 1.2 1.2 2.2 2.3 2.2.8 0 1.8-.5 2.2-1.3h.8c-.5 1.2-1.7 2.2-3 2.2-1.8 0-3.2-1.5-3.2-3.2 0-1.8 1.3-3.2 3.2-3.2 1 0 1.8.5 2.5 1.2.5.7.7 1.5.7 2.3h-5.5v-.2zm4.7-.9c-.2-1.2-1.2-2-2.3-2s-2.2.8-2.3 2h4.6zm1.1-2.5h.8l2.2 5.2 2.2-5.2h.8l-2.7 6.2h-.8l-2.5-6.2zm7.2 3.4c0 1.2 1.2 2.2 2.3 2.2.8 0 1.8-.5 2.2-1.3h.8c-.5 1.2-1.7 2.2-3 2.2-1.8 0-3.2-1.5-3.2-3.2 0-1.8 1.3-3.2 3.2-3.2 1 0 1.8.5 2.5 1.2.5.7.7 1.5.7 2.3h-5.5v-.2zm4.7-.9c-.2-1.2-1.2-2-2.3-2s-2.2.8-2.3 2h4.6zm-40.7 2.5c0 .7-.5 1.2-1.2 1.2s-1.2-.5-1.2-1.2.5-1.2 1.2-1.2c.7.1 1.2.6 1.2 1.2zm25.3-43.1c.5.2 0 .3-.2.5-.6-.1.2-.3.2-.5zm-10.2 6.8l-1.6.7c.5-.2 1.2-.5 1.7-.7-1.2 1-2.5 1.8-3.8 2.5-.8-.3 1.7-1.5 1.8-1.7m-4.6 2.4c.5.2-.5.5-.5.7-.3-.2-.8 0-1 .3h-.7c.4-.5 1.6-.5 2.2-1m-11.3-1c.2 0 .2 0 0 0 .3.2-1 .7-1.2.8-.2 0-.8.2-.8.3 0 .2.3.3.2.5-.5.3-1.2 0-1.8.2-.3.2-.3.2-.3.5 0 .2-.7.3-1 .5-.5.3-1 .2-1.7.3-.3.2-.8.2-1.2.3l-2.5.5c-.7.2-2.5.7-3 .3 0 0 .2-.3.2-.5-.8 0-2 .2-2.8.2.2-.3 3.7-1.2 3.8-1 .5.2 1-.2 1.3-.2.8-.3 1.7 0 2.5-.2.3-.2.7-.2 1 0 .2-.2.7-.2.8-.3.5-.2 1.3-.5 2-.5.5 0 .5-.2.5-.3.2-.3.8-.2 1.2-.3 1.2-.4 2-.8 2.8-1.1m-15.8.3c.2.5-1.8.7-2.2.5.3-.3-.3-.3-.3-.3-.2-.2.3-.3.8-.2.9-.3 1.7-.3 1.7 0m-5.7-2c-.3-.2.2-.5.7-.3.5-.2 1.5-.3 1.8-.2-.6.4-1.5.5-2.5.5zm-1.5 0c0 .5-1.5.2-1.5.2-.1 0 1-.2 1.5-.2m65.5-33.6c.2-.5.2-1.2-.2-1.5.2.5-.3 1.4.2 1.5zm0-2.5c0-.3 0-.7-.2-.8-.2.3-.2.7.2.8zm-.7 0c0-.3 0-.5-.2-.8-.2-.5-.2-1-.3-1.5-.2-1-.3-1.8-.5-2.8-.2-.3-.2-.8-.3-1.2-.2-.5-.2-1-.3-1.5-.3-.5-.3-1.5-1-2.3 0 .5 1 1.5.3 2-.2 0-.3 0-.8-1.7-.2-.5-.7-1-.8-1.5-.5-.2-.5-.8-.8-1-.2-.2-.5-.3-.5-.7 0 0 .3 0 .2-.2-.3 0-.7.2-.5-.5.2-.3-1.3-.5-.8-1 .2-.2.3.2.3 0-.3-.3-.7-.3-.8-.7-.3-.3-.2-.5-.5-.7-.2-.2-.5 0-.3-.3-.2-.2-.7-.8-.3-.7 1 .5 1.8 1.7 2.5 2.3.3.3.2.3.5.7.3.2.5.5.7.8.2.3.5 1.2.8 1 0 0 0-.2-.2-.3-.2.2-.3-.8-.8-1.2-.8-.5-1-1.5-1.8-1.8-.3-.7-1-1.3-1.5-1.8-.3-.3-.8-.8-1.2-1 .2-.3.2-.3-.2-.3 0 .3-.7-.2-.7-.3-.2 0 .2-.7-.3-.5-.3 0-.5-.7-.8-.8-.3-.2-1.2.2-1.3-.5s.7.2.8-.3c-.3-.2-.7-.3-1-.7-.3-.5-.3-.7-1-.8-.3-.2-.5-.3-.8-.7-.3-.3-.7-.5-1-.7-.3-.2-.5-.3-.8-.5-.2 0-.2.7-.5.2-.3-.5-.3-.5-.8-.8-.3-.2-.7-.5-1-.5.3.5 1 .5 1.3 1.2-.3 0-.7-.2-.7.2-.3-.3-.8-.5-1.3-.5-.3-.5-.2-.3-.7-.2-.5-.5-.8-1.5-1.5-.8-.2-.3-.3-.3-.5-.2 0-.3-.3-.3-.5-.5 0 .2.3.5 0 .7-.2 0-.3 0-.5-.3s-.2-1.2-.7-1.2c.2.2.2.3-.2.3-.3.2-.2.2-.2.5s-.5.2-.5 0c0-.3.2-.5 0-.8.7 0 .5-.5-.2-.5.2 0-.5.3-.5.2.2 0 .2 0 .2.2-.3.2 0 .3 0 .5-.2-.2-.7-.2-.7-.5 0 0 .3-1.3 0-.8 0 .2-.2.2-.2.3 0 .3-.2 0-.3.3-.2.3 0 .5 0 .8-.3-.2-.7-.3-1-.2 0 .3-.2.3-.3.2-.2 0-.7 0-.7-.3.2 0 .7 0 .8-.2.3-.3-.2-.3-.3-.3-.5.2-1 .5-1.3 0 .5 0 .2-.2.5-.5.2-.3.5.2.5-.2 0-.2-.5 0-.5-.2s.3 0 .3-.2c.3-.3-.7-.2-.7-.2v.2c-.5.3-1.2-1-1.8-.5.3 0 .8.2.8.5-.3 0-1-.3-1.2.2.7.2 1.5 0 2 .5-.3.3-1 0-1.3.2 0 .2.2.3.2.3-.8 0-1.2.3-2 .2-.8-.2-1.7-.3-2.5-.3-.2.5 1.8.3 2 .7-.3.2-.7 0-1-.2 0 .5.7.5.8.8-.3 0-.7 0-1-.2-.5 0-1.3-.5-2-.3.5.2 1 .5 1.7.7-.7-.2-1.7-.2-2.3-.5-.3-.2-.5-.3-.8-.2-.2 0-.7-.2-.7 0 0 0 1.7.5 2 .5.5.2 2.2.2 1.8.8.3 0 .8.2 1.2.2-.3.5 1.2.3 1.5.3.7.2 1.3.3 2 .7-.5 0-.3.3-.8.2-.5-.2-.3-.2-.7 0 0 0-1-.3-1.2-.3-.5 0-1-.2-1.3 0 .3.2 1.2 0 1.3.5h-.8c.3.5-.3.2-.5.5 0 0 .3 0 .2.2-.3 0-.8 0-1.2.2 0-.2-.5-.5-.7-.5-.2.2-1.5.2-1.7 0-.5-.5-.3.2-.5.3-.3.3-.5.3-.8.2-.5-.2-1 .2-1.5 0-.7 0-1.2-.3-1.8-.2.7.3 1.5.5 2.2.7-.3.3-.7-.2-1 0-.3.3.5.3.5.5 0 0-1.5-.2-1.8-.2-.5-.2-1-.8-1.7-.5 0 .3 1.2.5 1.5.8-.2 0-.5-.3-.5 0 .7.2 1.3.3 1.8.7-.3 0-.5-.2-.8-.2-.2.7 2.5.3 2.3 1.2-.3 0-2.3-.2-2.3-.3 0 .2.7 0 .8.3-.2 0-.2 0-.2.2.2 0 1 .8 1 .7 0 0-1.3-.2-1.5-.2-.3-.2-.3 0-.7-.2-.2-.2-.7-.3-1-.2.5 0 .5.5 1 .5.5.2 1 .3 1.3.7-.2 0-.5 0-.5.2.2 0 1 .3.8.5-.3-.3-.3.2-.2.2-.7 0-1.2-.3-1.7-.3-.7 0-1.3-.8-2.2-.7.2 0 .3.2.3.3 0 0-1.5-.3-1.8-.2.3.3 1 .5 1.3.8-.5 0-1.5-.7-1.8-.3.3 0 .7.2 1.3.3 1 .2 2 .5 2 1-.5 0-1.2-.5-1.7-.2 1 .5 2.7.7 2.2.8-.2.2-.7 0-.8 0-.7-.2 0 .3-.7.3-.2 0-1.2-.5-1.2 0-.3 0-1-.5-1.2-.2.2 0 .3 0 .3.2s-2.2-.3-.8.5c.7.5 1.8.5 2 .8-1 0-1.8-.8-2.8-.5 0 .3.5.3.5.7-.3 0-1-.5-1.3-.2.5.3.8.5 1.3.7-.7 0 1 .8 1.2.8 0 .5-.8 0-1 .3-.2.7 3 .7 1.7 1.7.3 0 .5 0 .7.2-1-.2-2-.7-3.2-.7.3.3.8.3 1 .7-.2 0-.7-.2-.5.2.3.2.8.3 1.2.5-.2 0-.5-.2-.5.2.3.2 1 .3 1.3.7-.3.2-.8-.3-1 0 .3.3.8.2 1.2.5-.2.2-.3.2-.2.5h-.3l-.3.3c.7.2 1.2.7 1.8.7.7.2 1.2.7 1.8.8 1.2.3 2.3.5 3.5.8.5.2.8.5 1.2.7.7.3 1.5.5 2.2.7.3.2.8.3 1.2.5.5 0 .7 0 1.2.2.7.3 1.5.7 2.2 1 .7.3 1.2.7 1.8 1 2 .8 3.7 2.8 4.2 4.8.3 1.3.3 3-.2 4.3-.5 1.2-1.3 2.3-1.8 3.3-.3.5-.7.8-1 1.3-.3.3-.5 1.2-.8 1.3-.2 0-.5.7-.7.7-.5.3-1 1-1.5 1.3-.3.3-.8.7-1.3 1-.3.2-.5.2-.8.5l-.7.7c-1.2.8-2.5 1.5-3.8 2.2-1.7.8-3.7 1.3-5.5 1.7 0 .3-.5 0-.8.2-.5 0-.8 0-1.3.2-1.7 0-3.3.2-5 .2h-2.2c-.7.3-1.7-.3-2.3.2.7 0 1.5.2 2.2.3 1 .2 2 0 3 0 .8 0 1.7 0 2.5.2.5 0 1.3-.3 1.7.2-.3 0-.5.2-.7.3-.3.2-.7.2-1 .2-.8 0-1.5 0-2.3.2-1.5.2-3 .3-4.5.3-1.3 0-2.7.2-4 .2-.7 0-3-.3-3.5 0 .3 0 1-.2 1.3.2-1 0-2 .2-3 .5.8.3.5.5-.3.7-.3 0-2.5.5-2.7.3.2.2 1 0 1.3 0 .5-.2 1 .2 1.5 0 0 .7 1.3.3 1.7.5l-1.2.3c.8.7 2.3-.5 2.8.2-.5.3-1.2-.2-1.7.2 2.3.2 4.5.2 6.8.2.5 0 .7-.2 1 .2.2.2.7.2.8 0 .2-.2.5-.2.7-.2.7 0 1-.3 1 .3.2 0 .7-.3.8.2-.7.2-1.5.2-2.2.2-.2 0-.2 0-.2.2h1c.5 0 1.2-.2 1.7-.2s.2.2.3.2c2 0 4.3-.7 6.5-.3-.5 1.2-3.3.8-4.3.8-.5 0-1 .2-1.5.2-.3 0-.7-.2-1-.2s-.7.3-1 .3c-.3 0-1-.2-1.2.2.7-.3.5.2 2.2 0 .7-.3 1.5 0 2.2.2-.8.3-1.5.8-2.5 1-.8.2-1.7.5-2.5.7-1.8.3-6.8 1-6 .3.3-.2.3-.2.5-.2-.8.2-1.8.3-2.7.3-.3.3-1.2 0-1.7.2-.8.3-3.2.2-3.8.3 0 .2.8 0 .8.2-1 .2-1.8 0-2.8.2-1.2.2.3.2 0 .5-.2 0-1.5 0-1.5.2 1.2-.2 2.3-.2 3.3.2-.2.2-.5.2-.8.3-.5.2 0 .5-.3.5s-.8.3-1.2.5c-.3 0-.7 0-1 .2.3.2-.3.2-.3.3.2 0 .8-.2.8.2 0 0-.2.2-.3.2.2.3-.5.2-.8.3 0 .5-.8 0-.8.5.5.2 1-.3 1.5 0s-.7.3-.7.5c1 .2-.2.2 0 .7.2 0 .5-.3.7 0-.2.2-.5 0-.7.3.2 0 .3 0 .3.2-.3 0-.8 0-.8.3 1.8-.2 3.7-.2 5.5-.3 1.7-.2 3.5-.5 5.2-.5.2 0 .3 0 .2.2.5.2-1.5 0-2 .5.5 0 1.2-.3 1.7 0-.7.2-1.2.7-1.8.5-.8-.2-1.7-.2-2.5 0s-1.7 0-2.5.2-1.8.2-2.7.2c.2.7.8 0 1.2.3l-1 .5c.8 0 1.7-.5 2.5-.2-.3.7-1.3.3-1.7.8.3 0 .8-.2 1.2 0 0 .3-.5.2-.7.5.5.2 1 0 .3.5.5.2 2.2-.5 2.3.3-.3-.2-.8 0-1.2 0-.7 0-.3.2 0 .2s.2.3-.2.3c-.3.2-1 0-1.2.3.3 0 .3-.2.7-.2-.2.3-.2.5.3.3h1c.8 0 1.7.2 2.5.2 1.3 0 2.5-.2 3.8-.2 1.2 0 2.5 0 3.8-.2.5 0 3-.7 3.2.3-.2.2-.7-.2-.8.2-.3.3-1 .2-1.5 0-.3 0-2.5.2-2.5.7 1.2-.2 2.2 0 3.3-.3.7-.2.2.2.7.2.5 0 .8-.2 1.3-.3.5-.2 1-.2 1.7-.2.3 0 1.2-.5 1.5-.2h.7c.7 0 1.5-.2 1.7-.3-.5-.3-1 .2-1.7 0-.5.2-.7.7-1 .2 0 0-.2-.3 0-.3.3 0 .5 0 .7-.3.2-.7.3 0 .8 0 0-.2 0-.7.5-.3.5-.2 1.3-.2 1.7-.5.3-.2.8 0 1.2-.3.5-.3 1.2-.3 1.7-.5s.8-.5 1.3-.5c.7 0 .8-.5 1.7-.5 1.2.2 1.7-.8 2.7-1.2.5-.3 1.8-.7 2.7-.8 1.2-.3 2-1 3.2-1.3.5-.2.7-.2 1-.5.2-.3.5-.3.8-.5.2-.2.5-.3.8-.3.3 0 1.2-.5 1.5-.3-.5.7-1.3 1-2 1.3-1 .5-1.8 1.2-2.8 1.5-.7.2-1.3.7-1.8 1-.8.5-1.8.8-2.8 1 0-.2.7-.7.3-.7-.3.3-.7.5-1.2.7-1 .3-2 .5-3 1-.3.2-.8.3-1.2.5-.2.2-.3.2-.5.3-.3.3-.7.2-1 .3-.3.2-.7.2-1.2.2-.3.2-1.3.3-1.7.5.5 0 1-.2 1.7-.2h1.3c.7-.2 2-.8 2.5-.3-.3 1.5-2 1.5-2 2.2.7-.3 1.5-.3 2.2-.7.5 0 1.7-.7 2-.5.3.2 1-.5 2.2-.5.7 0 1.7-.8 2.2-.5-.2 0-.8.5-.8.5-.2.3 1.5-.5 1.7-.5.7-.2 1.8-.8 2.2-.7 0 .3-.3.2-.5.5 1-.3 1.8-1 2.7-1.5.8-.5 1.8-.8 2.7-1.2.8-.5 1.5-1 2.3-1.5.3-.2 2.2-1.3 2.7-1.2-.2.5-.8 1-1.3 1.2-.3.2-.8.5-1.2.8-.2.2-2 1-1.8 1.3.2-.3.5-.3.8-.5.3-.2.7-.5 1-.7.8-.3 1.8-1 2.7-1.5 1.3-.8 2.5-2 3.5-3 .2-.2.5-.3.7-.7l1.8-1.8c.5-.5.7-.7.8-1.2.2-.3.7 0 .5.2-.2.3-.3.3-.3.7-.3.2-1.7 1.2-1.2 1.7.2-.8.8-1.2 1.3-1.7.2-.3.5-.5.7-.7 0-.3 0-.8.3-.8.7 0 .7 0 .5-.3 0 0-.2 0 0-.2.2-.3.8-.7.7-1-.2 0-.2.2-.3.2-.7-.2.2-.3.2-.5.3-.2.3-.2.3-.7s.8-1.2.8-1.7c.2 0 .3.2.3.3 0-.2 0-.5.2-.5.7-1.2 1.2-2 1.8-3 .2-.3.5-.8.7-1 0-.2.2-.3.3-.3v-.5c0-.2.5-1.3.7-1 .5.8-.8 2.7-1.2 3.3-.2.3-1.8 2.7-1.7 2.8 0-.2 0-.2.2 0-.2.2-1.2.5-1 1 0 .2-1 1-.3 1 0-.3.7-.7.5-1 .7-.5 1-1 1.5-1.7.3-.5.5-1.3 1-2 .2-.2.2-.3.2-.5.3-.7.8-1.5 1.2-2.2 0 .3-.3 1.2 0 1.3.3-.5.3-1.5 1-1.8.2-.7 1-1.5 1-2.2 0 .2 0 .3-.2.3-.3 0-.2-.7 0-.7.3-.7.3-1.3 1-1.7 0-.7.5-.8.7-1.3.3-.7.8-1 .8-1.8.2 0 .5-.8.5-.2 0 .7-.3 1.7-.7 2.3-.3.7-.5 1.2-.8 1.8-.3.7-1 1.3-.7 2.2 0-.5.3-1.5.8-1.8.2-.2.2 0 .3 0 0 .2-.3.5-.2.7.5-.8.3-1.7 1-2.2.2-.8.3-1.8.8-2.5-.3 0-.5 1.8-1 1.5.2-1.2.5-2.5 1-3.7 0-.2 0-.5.2-.7-.2-.3 0-.7 0-1 .2-.7.5-1.3.5-2-.2.2-.2.5-.5.5 0-.5.3-1.2.2-1.8 0-.2-.2-1 .5-1 0 .2 0 .2.2.2-.3-2 .1-3-.1-4.4m0-4c0-.7 0-.8-.2-1-.3.4-.1.7.2 1zm-.3-1.8c0-.3-.2-.8-.3-1.2-.2-.5 0-.7-.3-1.2.1.7.2 2.1.6 2.4m-16.5 39.6c-.2-.3.3-.3.5-.7-.3 0-1.5 1.2-1.5 1.5 0 .5-1.7 1.2-1.8 1.7l.2-.2s-.5.8-.7.7c-.2 0-.7.2-1 .7-.3.2-.5.2-.5.3.3 0 .5-.2.7-.3.3-.2.2-.3.3-.3 0 0 .5-.2.7-.3.5-.5.8-.5 1.2-1 .2-.2.7-.5.7-.7.2-.7.7-1.1 1.2-1.4M1038 235c-.5 0-.8-.5-1.2-.3.6 0 .9.7 1.2.3zm-8 64.9c.3-.2.7-.2.8-.5-.7.2-1.5.5-2 1 .6 0 .9-.3 1.2-.5m-1.8 1.2c0-.2.2-.2.2-.5-.2 0-.5.3-.2.5zm-2.7-68.2c-.3 0-1.2-.5-1.3 0 .7 0 .8.3 1.3 0zm-1.6 4c-.3 0-.5 0-.5.2.1.1.5.1.5-.2zm-1.5-4c.7-.2 1 .3 1.3-.2-.5 0-1.2-.2-1.3.2zm.8 4.3c0-.3-.7-.5-.8-.2.3 0 .3.4.8.2zm-1.7-4.7s-.7 0-.7.2c.2-.2.7 0 .7-.2m-1.8 4.5c.5 0 1.5.5 1.7.2-.2-.2-.8-.5-1.3-.3-.5-.2-.8-.2-.8.2h.4m1.2 62.8c0-.2.2-.2.2-.3-.2 0-.3 0-.3.3h.1m-1 3.2c.3-.3 1.2 0 1.3-.5-.5 0-1.5.2-1.3.5zm-.5-65.9c-.2 0-.5-.3-.5 0 0 .2.5.3.5 0zm-1 66.4c.2-.3 1 0 .8-.5-.3.2-1.2.3-.8.5zm-4.7.3c-.3 0-.5 0-.5.2.4 0 .5 0 .5-.2zm-.1-65.7c-.3 0-.5-.3-.7.2.2-.2.7 0 .7-.2zm-.9 65.9c-.5.2-1.2 0-1.3.5.3 0 1.3-.2 1.3-.5zm-1.1-61.1c-.3 0-.7-.3-.8.2.3 0 .6.3.8-.2zm-1 60.6c-.3 0-.8.2-.5.3 0-.1.3-.1.5-.3zm-.9-52.3c0 .3.7.7.8.3-.3 0-1-.8-1.8-.7.4.3.7.4 1 .4m-5.5 38.3c-.2-.2-.2-.3-.7-.3-.2 0-.3-.2-.5-.2s-.3 0-.5.2c-.3 0-.7.2-.8.2.5 0 .8.2 1.2 0 .7 0 1.2-.2 1.3.1m-3.6 0c.3-.2 1 .2.8-.2-.3-.1-.7.1-.8.2zm-6.2-1.6c0-.8-1.2-.2-1-.2 0 .2.8.2 1 .2m-2.3-1.9h-2.5c-.3.3 1 .3 1 .3.5-.1 1.3.1 1.5-.3m-4.5 7.4c.5.2 1.3-.2.3-.2.2-.2-.1 0-.3.2z"/></svg>