<svg xmlns="http://www.w3.org/2000/svg" viewBox="297.7 225.6 455.8 108.9" enable-background="new 297.7 225.6 455.8 108.9"><path fill="#fff" d="M312.4 267.3l-1 7.8h3.6v2.5h-3.8l-1.5 10.9H307l1.5-10.9h-4.8l-1.5 10.9h-2.5l1.5-10.9h-3.4V275h3.8l1-7.8H299v-2.3h3.8l1.3-10.3h2.5l-1.3 10.3h4.8l1.3-10.3h2.5l-1.3 10.3h3.4v2.3h-3.6zm-7.6 0l-1 7.8h4.8l1-7.8h-4.8zm22.1 21.2v-33.8h1.9v32.1h9v1.7h-10.9zm30.6-1.3c-1 1-2.7 1.7-4.6 1.7-1.9 0-3.6-.6-4.6-1.7-2.1-2.1-2.3-4-2.3-15.7 0-11.8.4-13.6 2.3-15.7 1-1 2.7-1.7 4.6-1.7 1.9 0 3.6.6 4.6 1.7 2.1 2.1 2.3 4 2.3 15.7s-.4 13.6-2.3 15.7zm-1.4-30c-.6-.8-1.9-1.3-3.1-1.3-1.5 0-2.5.4-3.1 1.3-1.5 1.7-1.9 3.1-1.9 14.5 0 11.3.2 12.8 1.9 14.5.6.8 1.9 1.3 3.1 1.3 1.5 0 2.5-.4 3.1-1.3 1.5-1.7 1.9-3.1 1.9-14.5s-.3-12.8-1.9-14.5zm20.5 31.3h-1.9l-6.9-33.8h2.1l5.9 30 5.9-30h2.1l-7.2 33.8zm15.6 0v-33.8h10.9v1.7h-9v14.3h7.8v1.7h-7.8v14.3h9v1.7h-10.9v.1zM426 287c-1.3 1.3-2.9 1.9-5.2 1.9-2.7 0-4.6-1-5.9-2.5-2.3-2.5-2.5-6.5-2.5-14.9s.2-12.4 2.5-14.9c1.3-1.5 3.1-2.5 5.9-2.5 2.3 0 4 .6 5.5 2.1 1.7 1.5 2.3 4 2.5 6.7h-4.2c0-1.5-.2-2.9-1-4-.6-.6-1.5-1.3-2.7-1.3-1.3 0-2.1.4-2.7 1.3-1.3 1.7-1.5 4.4-1.5 12.4s.2 10.7 1.5 12.4c.6.8 1.5 1.3 2.7 1.3 1.3 0 2.1-.4 2.7-1.3.8-1 1-2.3 1-3.8h4c.1 3.1-.9 5.6-2.6 7.1zm12.2 1.5v-33.8h4.2v34h-4.2v-.2zm27.9 0l-8.8-23.1v23.1h-4v-33.8h3.8l8.8 23.1v-23.1h4v34h-3.8v-.2zm22.4-30.3v30.2h-4.2v-30.2h-5.7v-3.6h15.5v3.6h-5.6zm24.8 30.3l-1.7-8h-7.8l-1.7 8H498l8-34h4l7.8 34h-4.5zm-5.4-27.3l-3.1 15.5h6.3l-3.2-15.5zm35 27.3v-17.6l-3.8 11.5h-3.4l-3.6-11.5v17.6h-6.9v-33.8h5.9l6.1 16.6 6.1-16.6h6.1v34h-6.5v-.2zm31.5 0l-1-5.2h-7.8l-1 5.2h-7.1l8.8-34h6.7l8.8 34h-7.4zm-5-24l-2.7 12.6h5.2l-2.5-12.6zm32.1 24v-14.3h-5.7v14.3h-6.7v-33.8h6.7v13.6h5.7v-13.6h6.7v34h-6.7v-.2zm31.5 0l-1-5.2h-8l-1 5.2h-7.1l8.8-34h6.7l8.6 34h-7zm-5.1-24l-2.7 12.6h5.2l-2.5-12.6zm36.6 21.9c-1.5 1.5-3.6 2.3-7.1 2.3h-9.9v-34h9.9c3.4 0 5.7.8 7.1 2.1 1.7 1.7 2.3 4 2.3 7.3 0 2.1-.2 4-1.7 5.5-.4.4-.8.8-1.5 1 .6.4 1 .8 1.5 1.3 1.5 1.7 1.7 4.2 1.7 6.1 0 3.7-.7 6.5-2.3 8.4zm-8-25.7h-2.1v7.1h2.1c2.7 0 3.6-1 3.6-3.6s-.9-3.5-3.6-3.5zm0 12.9h-2.1v8.8h2.1c2.7 0 3.6-1.3 3.6-4.4 0-3-.9-4.4-3.6-4.4zm36.7 12.8c-1.5 1.5-3.6 2.3-7.1 2.3h-9.7v-34h9.9c3.4 0 5.7.8 7.1 2.1 1.7 1.7 2.3 4 2.3 7.3 0 2.1-.2 4-1.7 5.5-.4.4-.8.8-1.7 1 .6.4 1 .8 1.5 1.3 1.5 1.7 1.7 4.2 1.7 6.1 0 3.7-.6 6.5-2.3 8.4zm-8-25.7h-2.1v7.1h2.1c2.7 0 3.6-1 3.6-3.6s-1-3.5-3.6-3.5zm0 12.9h-2.1v8.8h2.1c2.7 0 3.6-1.3 3.6-4.4 0-3-1-4.4-3.6-4.4zm34.5 14.9l-1-5.2h-7.8l-1 5.2h-7.1l8.8-34h6.7l8.8 34h-7.4zm-4.9-24l-2.5 12.6h5.2l-2.7-12.6zm32 24v-14.3h-5.7v14.3h-6.7v-33.8h6.7v13.6h5.7v-13.6h6.7v34h-6.7v-.2z"/></svg>