<svg xmlns="http://www.w3.org/2000/svg" viewBox="1974.1 225.6 87.1 108.9" enable-background="new 1974.1 225.6 87.1 108.9"><path fill="#fff" d="M1987.5 319.9c-1.4 0-2.6-.3-3.4-1.2-.7-.5-1-1.4-1-2.1 0-.9.3-1.5 1-2.1.9-.7 2.2-1.2 3.4-1.2 1.4 0 2.6.3 3.4 1.2.7.5.9 1.4.9 2.1 0 .7-.3 1.5-.9 2.1-.7.9-2 1.2-3.4 1.2v-.9c.7 0 1.4-.2 1.9-.7s.7-1 .7-1.7-.2-1.4-.7-1.7c-.5-.5-1.2-.7-1.9-.7s-1.4.2-1.9.7c-.5.5-.7 1-.7 1.7s.2 1.2.7 1.7c.5.5 1.2.7 1.9.7v.9zm-9.9-6.6c-.7 0-1.5.2-2.2.5-.7.3-1.2.7-1.2 1.5 0 .7.5 1 .5 1 .2.2.5.5 1.2.7.3 0 1 .2 1.9.3.7 0 1.5.2 1.7.2s.7.2.7.5c0 .5-.3.5-.5.7 0 0-.5.3-1.5.3-.7 0-1.5-.2-1.7-.3-.3-.2-.7-.3-1-.7 0-.2-.2-.3-.2-.7h-.9v2.4h.9v-.3s0-.2.2-.2.7.3 1.4.5c.5.2.9.2 1.4.2 1 0 1.5-.2 1.9-.2l1-.5c.2-.2.5-.5.5-1.2s-.3-1-.5-1.2-.3-.3-.5-.3-.5-.2-.7-.2c-.5-.2-1.5-.3-2.1-.3s-1.5-.2-1.9-.2c-.2 0-.3-.2-.3-.3 0-.2.2-.3.3-.5.3-.2 1-.3 1.7-.3.9 0 1.5.2 1.9.3.2 0 .3.2.5.3.2.2.3.3.5.7h.7v-2h-.9v.2s0 .2-.2.2c-.2-.6-1.3-1-2.6-1.1zm15.2.5v.7h.7c.5 0 .5.2.5.5v3.4c0 .2 0 .5-.3.5h-.9v.7h3.4v-.7h-.9c-.3 0-.3-.2-.3-.5v-2.9l4.6 4.1h1.2V315c0-.3 0-.5.3-.5h.7v-.7h-3.4v.7h.7c.3 0 .3.2.3.5v2.4l-3.9-3.6h-2.7zm12.3 5.1v.7h3.9v-.7h-.9s-.2 0-.2-.2v-1.5s2.1-2.4 2.2-2.6.3-.3.5-.3h.7v-.7h-3.3v.7h.5c.2 0 .2.2.2.2l-1.4 1.7-1.4-1.7c-.2-.2 0-.2.2-.2h.5v-.7h-4.1v.7h.7c.3 0 .5.2.7.3s2.2 2.4 2.2 2.6v1.5s0 .2-.2.2h-.8zm54.9-1.4c-.2.5-.5 1-1 1.2-.3.2-.9.3-1.7.3h-.5c-.5-.2-.9-.3-1.2-.7-.5-.5-.7-1-.7-1.7s.2-1.2.7-1.7c.5-.5 1.2-.7 1.9-.7h.2c.7 0 1.2.2 1.7.3.3.2.9.7 1 1.2h.9v-2.2h-.9v.3h-.2c-.3-.2-1.4-.7-2.6-.7h-.2c-1.2 0-2.6.5-3.3 1.2l-.5.5c-.3.5-.5 1-.5 1.5v.2c0 .7.3 1.4.9 1.9.7.7 1.7 1 2.7 1.2 1 .2 2.1 0 2.9-.5.7-.3 1.2-1 1.4-1.9h-1v.3zm-36.8-3.7l-1.7 3.8-1.7-3.8h-3.8v.7h.7c.5 0 .5.2.5.5v3.4c0 .2 0 .5-.3.5h-.9v.7h3.3v-.7h-.7c-.3 0-.3-.2-.3-.5v-3.8l2.2 5h1.2l2.2-5v3.8c0 .3 0 .5-.3.5h-.7v.7h3.9v-.7h-.9c-.3 0-.3-.3-.3-.5V315c0-.2 0-.5.5-.5h.7v-.7h-3.6zm10.6.7h.7c.3 0 .3.2.3.3v2.9c0 .7-.2 1.4-2.1 1.4-1.7 0-1.7-1.2-1.7-1.4v-2.9c0-.3 0-.3.3-.3h.7v-.7h-4.1v.7h.7c.3 0 .3.2.3.5v2.9c0 1.9 1.9 2.2 3.6 2.2 1.7 0 3.4-.3 3.4-2.2v-3.1c0-.2 0-.3.3-.3h.7v-.7h-3.4v.7h.3zm16.8 4.2s-.2 0 0 0l-.2-.3v-3.9s0-.2.2-.2h.9v-.7h-4.1v.7h.9s.2 0 .2.2v4.1s0 .2-.2.2h-.9v.7h4.1v-.7h-.9zm-5.1-2c-.2-.2-.3-.3-.5-.3-.2-.2-.5-.2-.7-.2-.5-.2-1.5-.3-2.1-.3s-1.5-.2-1.9-.3c-.2 0-.3-.2-.3-.5 0-.2.2-.3.3-.5.3-.2 1-.3 1.7-.3.9 0 1.5.2 1.9.3.2 0 .3.2.5.3.2.2.3.3.5.7h.7v-2.1h-.9v.2s0 .2-.2.2c-.3-.2-1.4-.7-2.7-.7-.7 0-1.5.2-2.2.5-.7.3-1.2.7-1.2 1.5 0 .7.5 1 .3 1 .2.2.5.5 1.4.7.3.2 1.2.2 1.9.3.7 0 1.5.2 1.7.2s.7.2.7.7-.3.5-.5.7c0 0-.5.3-1.5.3-.7 0-1.5-.2-1.7-.3-.3-.2-.7-.3-1-.7-.2-.2-.2-.3-.2-.7h-.9v2.4h.9v-.3s0-.2.2-.2.7.3 1.4.5c.5.2.9.2 1.4.2 1 0 1.5-.2 1.9-.2l1-.5c.2-.2.5-.5.5-1.2.1-.9-.2-1.2-.4-1.4zm-66.6 7.7h.9v.9c.3-.7 1-1 1.7-1 .9 0 1.5.3 2.1 1l.2.2s0-.2.2-.2c.5-.7 1.2-1 2.1-1 .7 0 1.4.3 1.9 1 .5.5.5 1.2.5 1.9v3.6h-.9v-3.6c0-.5 0-1-.3-1.4-.3-.5-.9-.7-1.4-.7s-1 .3-1.4.7c-.3.3-.3.9-.3 1.4v3.6h-.9v-3.6c0-.5 0-.9-.3-1.2-.3-.5-.9-.7-1.4-.7s-1 .2-1.4.7c-.3.3-.3.9-.3 1.4v3.6h-.9l-.1-6.6zm17.3 6.1h-.9v-1.2c-.5.9-1.4 1.4-2.4 1.4s-2.1-.3-2.7-1.4c-.2-.2-.7-1-.7-2.1 0-.9.3-1.7.7-1.9 1-1 1.9-1.4 2.7-1.4 1 0 2.1.5 2.4 1.4v-1.2h.9v6.4zm-5.8-3c0 1.4 1.2 2.4 2.6 2.4 1.4 0 2.4-1.2 2.4-2.4 0-1.4-1-2.6-2.4-2.6-1.6 0-2.6 1.2-2.6 2.6zm7.5-5.3h.9v6l2.9-3.8h1l-2.4 3.3 2.6 3.1h-1l-2.1-2.6-1 1.4v1.2h-.9v-8.6zm6 5.6c0 1.2 1.2 2.2 2.4 2.2.9 0 1.9-.5 2.2-1.4h.9c-.5 1.2-1.7 2.2-3.1 2.2-1.9 0-3.3-1.5-3.3-3.3 0-1.9 1.4-3.3 3.3-3.3 1 0 1.9.5 2.6 1.2.5.7.7 1.5.7 2.4h-5.7zm4.8-.8c-.2-1.2-1.2-2.1-2.4-2.1s-2.2.9-2.4 2.1h4.8zm7.5-4.8h.9v3.4c.3-.9 1.5-1.4 2.4-1.4 1.9 0 3.4 1.4 3.4 3.3 0 .9-.3 1.7-.7 2.1-.9 1-1.7 1.2-2.6 1.2-.9 0-2.1-.3-2.6-1.2v1h-.9v-8.4zm1.4 3.6c-.5.5-.7 1-.7 1.7 0 1.4 1.2 2.4 2.6 2.4 1.4 0 2.4-1.2 2.4-2.6s-1.2-2.4-2.6-2.4c-.5 0-1.2.3-1.7.9zm7.2 2c0 1.2 1.2 2.2 2.4 2.2.9 0 1.9-.5 2.2-1.4h.9c-.5 1.2-1.7 2.2-3.1 2.2-1.9 0-3.3-1.5-3.3-3.3 0-1.9 1.4-3.3 3.3-3.3 1 0 1.9.5 2.6 1.2.5.7.7 1.5.7 2.4h-5.6zm4.8-.8c-.2-1.2-1.2-2.1-2.4-2.1s-2.2.9-2.4 2.1h4.8zm2.2-4.8h.9v8.6h-.9v-8.6zm2.6 0h.9v1.5h-.9v-1.5zm0 2.2h.9v6.3h-.9v-6.3zm3 3.4c0 1.2 1.2 2.2 2.4 2.2.9 0 1.9-.5 2.2-1.4h.9c-.5 1.2-1.7 2.2-3.1 2.2-1.9 0-3.3-1.5-3.3-3.3 0-1.9 1.4-3.3 3.3-3.3 1 0 1.9.5 2.6 1.2.5.7.7 1.5.7 2.4h-5.7zm4.8-.8c-.2-1.2-1.2-2.1-2.4-2.1s-2.2.9-2.4 2.1h4.8zm1.2-2.6h.9l2.2 5.3 2.2-5.3h.9l-2.7 6.3h-.9l-2.6-6.3zm7.4 3.4c0 1.2 1.2 2.2 2.4 2.2.9 0 1.9-.5 2.2-1.4h.9c-.5 1.2-1.7 2.2-3.1 2.2-1.9 0-3.3-1.5-3.3-3.3 0-1.9 1.4-3.3 3.3-3.3 1 0 1.9.5 2.6 1.2.5.7.7 1.5.7 2.4h-5.6zm4.8-.8c-.2-1.2-1.2-2.1-2.4-2.1s-2.2.9-2.4 2.1h4.8zm-41.8 2.5c0 .7-.5 1.2-1.2 1.2s-1.2-.5-1.2-1.2.5-1.2 1.2-1.2 1.2.5 1.2 1.2zm26-44.3c.5.2 0 .3-.2.5-.7-.1.2-.3.2-.5zm-10.5 7l-1.7.7c.5-.2 1.2-.5 1.7-.7-1.2 1-2.6 1.9-3.9 2.6-.9-.3 1.7-1.5 1.9-1.7m-4.6 2.4c.5.2-.5.5-.5.7-.3-.2-.9 0-1 .3h-.7c.3-.5 1.5-.5 2.2-1m-11.7-1c.2 0 .2 0 0 0 .3.2-1 .7-1.2.9-.2 0-.9.2-.9.3 0 .2.3.3.2.5-.5.3-1.2 0-1.9.2-.3.2-.3.2-.3.5 0 .2-.7.3-1 .5-.5.3-1 .2-1.7.3-.3.2-.9.2-1.2.3l-2.6.5c-.7.2-2.6.7-3.1.3 0 0 .2-.3.2-.5-.9 0-2.1.2-2.9.2.2-.3 3.8-1.2 3.9-1 .5.2 1-.2 1.4-.2.9-.3 1.7 0 2.6-.2.3-.2.7-.2 1 0 .2-.2.7-.2.9-.3.5-.2 1.4-.5 2.1-.5.5 0 .5-.2.5-.3.2-.3.9-.2 1.2-.3 1.1-.6 2-.9 2.8-1.2m-16.2.3c.2.5-1.9.7-2.2.5.3-.3-.3-.3-.3-.3-.2-.2.3-.3.9-.2.7-.3 1.6-.3 1.6 0m-5.8-2.1c-.3-.2.2-.5.7-.3.5-.2 1.5-.3 1.9-.2-.7.4-1.6.5-2.6.5zm-1.6 0c0 .5-1.5.2-1.5.2-.2 0 1-.2 1.5-.2m67.3-34.5c.2-.5.2-1.2-.2-1.5.2.5-.4 1.3.2 1.5zm0-2.6c0-.3 0-.7-.2-.9-.2.4-.2.8.2.9zm-.7 0c0-.3 0-.5-.2-.9-.2-.5-.2-1-.3-1.5-.2-1-.3-1.9-.5-2.9-.2-.3-.2-.9-.3-1.2-.2-.5-.2-1-.3-1.5-.3-.5-.3-1.5-1-2.4 0 .5 1 1.5.3 2.1-.2 0-.3 0-.9-1.7-.2-.5-.7-1-.9-1.5-.5-.2-.5-.9-.9-1-.2-.2-.5-.3-.5-.7 0 0 .3 0 .2-.2-.3 0-.7.2-.5-.5.2-.3-1.4-.5-.9-1 .2-.2.3.2.3 0-.3-.3-.7-.3-.9-.7-.3-.3-.2-.5-.5-.7-.2-.2-.5 0-.3-.3-.2-.2-.7-.9-.3-.7 1 .5 1.9 1.7 2.6 2.4.3.3.2.3.5.7.3.2.5.5.7.9.2.3.5 1.2.9 1 0 0 0-.2-.2-.3-.2.2-.3-.9-.9-1.2-.9-.5-1-1.5-1.9-1.9-.3-.7-1-1.4-1.5-1.9-.3-.3-.9-.9-1.2-1 .2-.3.2-.3-.2-.3 0 .3-.7-.2-.7-.3-.2 0 .2-.7-.3-.5-.3 0-.5-.7-.9-.9-.3-.2-1.2.2-1.4-.5s.7.2.9-.3c-.3-.2-.7-.3-1-.7-.3-.5-.3-.7-1-.9-.3-.2-.5-.3-.9-.7-.3-.3-.7-.5-1-.7-.3-.2-.5-.3-.9-.5-.2 0-.2.7-.5.2s-.3-.5-.9-.9c-.3-.2-.7-.5-1-.5.3.5 1 .5 1.4 1.2-.3 0-.7-.2-.7.2-.3-.3-.9-.5-1.4-.5-.3-.5-.2-.3-.7-.2-.5-.5-.9-1.5-1.5-.9-.2-.3-.3-.3-.5-.2 0-.3-.3-.3-.5-.5 0 .2.3.5 0 .7-.2 0-.3 0-.5-.3s-.2-1.2-.7-1.2c.2.2.2.3-.2.3-.3.2-.2.2-.2.5s-.5.2-.5 0c0-.3.2-.5 0-.9.7 0 .5-.5-.2-.5.2 0-.5.3-.5.2.2 0 .2 0 .2.2-.3.2 0 .3 0 .5-.2-.2-.7-.2-.7-.5 0 0 .3-1.4 0-.9 0 .2-.2.2-.2.3 0 .3-.2 0-.3.3-.2.3 0 .5 0 .9-.3-.2-.7-.3-1-.2 0 .3-.2.3-.3.2-.2 0-.7 0-.7-.3.2 0 .7 0 .9-.2.3-.3-.2-.3-.3-.3-.5.2-1 .5-1.4 0 .5 0 .2-.2.5-.5.2-.3.5.2.5-.2 0-.2-.5 0-.5-.2s.3 0 .3-.2c.3-.3-.7-.2-.7-.2v.2c-.5.3-1.2-1-1.9-.5.3 0 .9.2.9.5-.3 0-1-.3-1.2.2.7.2 1.5 0 2.1.5-.3.3-1 0-1.4.2 0 .2.2.3.2.3-.9 0-1.2.3-2.1.2-.9-.2-1.7-.3-2.6-.3-.2.5 1.9.3 2.1.7-.3.2-.7 0-1-.2 0 .5.7.5.9.9-.3 0-.7 0-1-.2-.5 0-1.4-.5-2.1-.3.5.2 1 .5 1.7.7-.7-.2-1.7-.2-2.4-.5-.3-.2-.5-.3-.9-.2-.2 0-.7-.2-.7 0 0 0 1.7.5 2.1.5.5.2 2.2.2 1.9.9.3 0 .9.2 1.2.2-.3.5 1.2.3 1.5.3.7.2 1.4.3 2.1.7-.5 0-.3.3-.9.2-.5-.2-.3-.2-.7 0 0 0-1-.3-1.2-.3-.5 0-1-.2-1.4 0 .3.2 1.2 0 1.4.5h-.9c.3.5-.3.2-.5.5 0 0 .3 0 .2.2-.3 0-.9 0-1.2.2 0-.2-.5-.5-.7-.5-.2.2-1.5.2-1.7 0-.5-.5-.3.2-.5.3-.3.3-.5.3-.9.2-.5-.2-1 .2-1.5 0-.7 0-1.2-.3-1.9-.2.7.3 1.5.5 2.2.7-.3.3-.7-.2-1 0-.3.3.5.3.5.5 0 0-1.5-.2-1.9-.2-.5-.2-1-.9-1.7-.5 0 .3 1.2.5 1.5.9-.2 0-.5-.3-.5 0 .7.2 1.4.3 1.9.7-.3 0-.5-.2-.9-.2-.2.7 2.6.3 2.4 1.2-.3 0-2.4-.2-2.4-.3 0 .2.7 0 .9.3-.2 0-.2 0-.2.2.2 0 1 .9 1 .7 0 0-1.4-.2-1.5-.2-.3-.2-.3 0-.7-.2-.2-.2-.7-.3-1-.2.5 0 .5.5 1 .5.5.2 1 .3 1.4.7-.2 0-.5 0-.5.2.2 0 1 .3.9.5-.3-.3-.3.2-.2.2-.7 0-1.2-.3-1.7-.3-.7 0-1.4-.9-2.2-.7.2 0 .3.2.3.3 0 0-1.5-.3-1.9-.2.3.3 1 .5 1.4.9-.5 0-1.5-.7-1.9-.3.3 0 .7.2 1.4.3 1 .2 2.1.5 2.1 1-.5 0-1.2-.5-1.7-.2 1 .5 2.7.7 2.2.9-.2.2-.7 0-.9 0-.7-.2 0 .3-.7.3-.2 0-1.2-.5-1.2 0-.3 0-1-.5-1.2-.2.2 0 .3 0 .3.2s-2.2-.3-.9.5c.7.5 1.9.5 2.1.9-1 0-1.9-.9-2.9-.5 0 .3.5.3.5.7-.3 0-1-.5-1.4-.2.5.3.9.5 1.4.7-.7 0 1 .9 1.2.9 0 .5-.9 0-1 .3-.2.7 3.1.7 1.7 1.7.3 0 .5 0 .7.2-1-.2-2.1-.7-3.3-.7.3.3.9.3 1 .7-.2 0-.7-.2-.5.2.3.2.9.3 1.2.5-.2 0-.5-.2-.5.2.3.2 1 .3 1.4.7-.3.2-.9-.3-1 0 .3.3.9.2 1.2.5-.2.2-.3.2-.2.5h-.3l-.3.3c.7.2 1.2.7 1.9.7.7.2 1.2.7 1.9.9 1.2.3 2.4.5 3.6.9.5.2.9.5 1.2.7.7.3 1.5.5 2.2.7.3.2.9.3 1.2.5.5 0 .7 0 1.2.2.7.3 1.5.7 2.2 1 .7.3 1.2.7 1.9 1 2.1.9 3.8 2.9 4.3 5 .3 1.4.3 3.1-.2 4.4-.5 1.2-1.4 2.4-1.9 3.4-.3.5-.7.9-1 1.4-.3.3-.5 1.2-.9 1.4-.2 0-.5.7-.7.7-.5.3-1 1-1.5 1.4-.3.3-.9.7-1.4 1-.3.2-.5.2-.9.5l-.7.7c-1.2.9-2.6 1.5-3.9 2.2-1.7.9-3.8 1.4-5.6 1.7 0 .3-.5 0-.9.2-.5 0-.9 0-1.4.2-1.7 0-3.4.2-5.1.2h-2.2c-.7.3-1.7-.3-2.4.2.7 0 1.5.2 2.2.3 1 .2 2.1 0 3.1 0 .9 0 1.7 0 2.6.2.5 0 1.4-.3 1.7.2-.3 0-.5.2-.7.3-.3.2-.7.2-1 .2-.9 0-1.5 0-2.4.2-1.5.2-3.1.3-4.6.3-1.4 0-2.7.2-4.1.2-.7 0-3.1-.3-3.6 0 .3 0 1-.2 1.4.2-1 0-2.1.2-3.1.5.9.3.5.5-.3.7-.3 0-2.6.5-2.7.3.2.2 1 0 1.4 0 .5-.2 1 .2 1.5 0 0 .7 1.4.3 1.7.5l-1.2.3c.9.7 2.4-.5 2.9.2-.5.3-1.2-.2-1.7.2 2.4.2 4.6.2 7 .2.5 0 .7-.2 1 .2.2.2.7.2.9 0 .2-.2.5-.2.7-.2.7 0 1-.3 1 .3.2 0 .7-.3.9.2-.7.2-1.5.2-2.2.2-.2 0-.2 0-.2.2h1c.5 0 1.2-.2 1.7-.2s.2.2.3.2c2.1 0 4.4-.7 6.7-.3-.5 1.2-3.4.9-4.4.9-.5 0-1 .2-1.5.2-.3 0-.7-.2-1-.2-.3 0-.7.3-1 .3-.3 0-1-.2-1.2.2.7-.3.5.2 2.2 0 .7-.3 1.5 0 2.2.2-.9.3-1.5.9-2.6 1-.9.2-1.7.5-2.6.7-1.9.3-7 1-6.2.3.3-.2.3-.2.5-.2-.9.2-1.9.3-2.7.3-.3.3-1.2 0-1.7.2-.9.3-3.3.2-3.9.3 0 .2.9 0 .9.2-1 .2-1.9 0-2.9.2-1.2.2.3.2 0 .5-.2 0-1.5 0-1.5.2 1.2-.2 2.4-.2 3.4.2-.2.2-.5.2-.9.3-.5.2 0 .5-.3.5s-.9.3-1.2.5c-.3 0-.7 0-1 .2.3.2-.3.2-.3.3.2 0 .9-.2.9.2 0 0-.2.2-.3.2.2.3-.5.2-.9.3 0 .5-.9 0-.9.5.5.2 1-.3 1.5 0s-.7.3-.7.5c1 .2-.2.2 0 .7.2 0 .5-.3.7 0-.2.2-.5 0-.7.3.2 0 .3 0 .3.2-.3 0-.9 0-.9.3 1.9-.2 3.8-.2 5.6-.3 1.7-.2 3.6-.5 5.3-.5.2 0 .3 0 .2.2.5.2-1.5 0-2.1.5.5 0 1.2-.3 1.7 0-.7.2-1.2.7-1.9.5-.9-.2-1.7-.2-2.6 0-.9.2-1.7 0-2.6.2-.9.2-1.9.2-2.7.2.2.7.9 0 1.2.3l-1 .5c.9 0 1.7-.5 2.6-.2-.3.7-1.4.3-1.7.9.3 0 .9-.2 1.2 0 0 .3-.5.2-.7.5.5.2 1 0 .3.5.5.2 2.2-.5 2.4.3-.3-.2-.9 0-1.2 0-.7 0-.3.2 0 .2s.2.3-.2.3c-.3.2-1 0-1.2.3.3 0 .3-.2.7-.2-.2.3-.2.5.3.3h1c.9 0 1.7.2 2.6.2 1.4 0 2.6-.2 3.9-.2 1.2 0 2.6 0 3.9-.2.5 0 3.1-.7 3.3.3-.2.2-.7-.2-.9.2-.3.3-1 .2-1.5 0-.3 0-2.6.2-2.6.7 1.2-.2 2.2 0 3.4-.3.7-.2.2.2.7.2.5 0 .9-.2 1.4-.3.5-.2 1-.2 1.7-.2.3 0 1.2-.5 1.5-.2h.7c.7 0 1.5-.2 1.7-.3-.5-.3-1 .2-1.7 0-.5.2-.7.7-1 .2 0 0-.2-.3 0-.3.3 0 .5 0 .7-.3.2-.7.3 0 .9 0 0-.2 0-.7.5-.3.5-.2 1.4-.2 1.7-.5.3-.2.9 0 1.2-.3.5-.3 1.2-.3 1.7-.5s.9-.5 1.4-.5c.7 0 .9-.5 1.7-.5 1.2.2 1.7-.9 2.7-1.2.5-.3 1.9-.7 2.7-.9 1.2-.3 2.1-1 3.3-1.4.5-.2.7-.2 1-.5.2-.3.5-.3.9-.5.2-.2.5-.3.9-.3s1.2-.5 1.5-.3c-.5.7-1.4 1-2.1 1.4-1 .5-1.9 1.2-2.9 1.5-.7.2-1.4.7-1.9 1-.9.5-1.9.9-2.9 1 0-.2.7-.7.3-.7-.3.3-.7.5-1.2.7-1 .3-2.1.5-3.1 1-.3.2-.9.3-1.2.5-.2.2-.3.2-.5.3-.3.3-.7.2-1 .3-.3.2-.7.2-1.2.2-.3.2-1.4.3-1.7.5.5 0 1-.2 1.7-.2h1.4c.7-.2 2.1-.9 2.6-.3-.3 1.5-2.1 1.5-2.1 2.2.7-.3 1.5-.3 2.2-.7.5 0 1.7-.7 2.1-.5.3.2 1-.5 2.2-.5.7 0 1.7-.9 2.2-.5-.2 0-.9.5-.9.5-.2.3 1.5-.5 1.7-.5.7-.2 1.9-.9 2.2-.7 0 .3-.3.2-.5.5 1-.3 1.9-1 2.7-1.5.9-.5 1.9-.9 2.7-1.2.9-.5 1.5-1 2.4-1.5.3-.2 2.2-1.4 2.7-1.2-.2.5-.9 1-1.4 1.2-.3.2-.9.5-1.2.9-.2.2-2.1 1-1.9 1.4.2-.3.5-.3.9-.5.3-.2.7-.5 1-.7.9-.3 1.9-1 2.7-1.5 1.4-.9 2.6-2.1 3.6-3.1.2-.2.5-.3.7-.7l1.9-1.9c.5-.5.7-.7.9-1.2.2-.3.7 0 .5.2-.2.3-.3.3-.3.7-.3.2-1.7 1.2-1.2 1.7.2-.9.9-1.2 1.4-1.7.2-.3.5-.5.7-.7 0-.3 0-.9.3-.9.7 0 .7 0 .5-.3 0 0-.2 0 0-.2.2-.3.9-.7.7-1-.2 0-.2.2-.3.2-.7-.2.2-.3.2-.5.3-.2.3-.2.3-.7s.9-1.2.9-1.7c.2 0 .3.2.3.3 0-.2 0-.5.2-.5.7-1.2 1.2-2.1 1.9-3.1.2-.3.5-.9.7-1 0-.2.2-.3.3-.3v-.5c0-.2.5-1.4.7-1 .5.9-.9 2.7-1.2 3.4-.2.3-1.9 2.7-1.7 2.9 0-.2 0-.2.2 0-.2.2-1.2.5-1 1 0 .2-1 1-.3 1 0-.3.7-.7.5-1 .7-.5 1-1 1.5-1.7.3-.5.5-1.4 1-2.1.2-.2.2-.3.2-.5.3-.7.9-1.5 1.2-2.2 0 .3-.3 1.2 0 1.4.3-.5.3-1.5 1-1.9.2-.7 1-1.5 1-2.2 0 .2 0 .3-.2.3-.3 0-.2-.7 0-.7.3-.7.3-1.4 1-1.7 0-.7.5-.9.7-1.4.3-.7.9-1 .9-1.9.2 0 .5-.9.5-.2s-.3 1.7-.7 2.4c-.3.7-.5 1.2-.9 1.9-.3.7-1 1.4-.7 2.2 0-.5.3-1.5.9-1.9.2-.2.2 0 .3 0 0 .2-.3.5-.2.7.5-.9.3-1.7 1-2.2.2-.9.3-1.9.9-2.6-.3 0-.5 1.9-1 1.5.2-1.2.5-2.6 1-3.8 0-.2 0-.5.2-.7-.2-.3 0-.7 0-1 .2-.7.5-1.4.5-2.1-.2.2-.2.5-.5.5 0-.5.3-1.2.2-1.9 0-.2-.2-1 .5-1 0 .2 0 .2.2.2.3-2.4.6-3.4.5-4.8m0-4.1c0-.7 0-.9-.2-1-.3.3-.2.7.2 1zm-.4-1.9c0-.3-.2-.9-.3-1.2-.2-.5 0-.7-.3-1.2.1.7.3 2.1.6 2.4m-16.9 40.7c-.2-.3.3-.3.5-.7-.3 0-1.5 1.2-1.5 1.5 0 .5-1.7 1.2-1.9 1.7l.2-.2s-.5.9-.7.7c-.2 0-.7.2-1 .7-.3.2-.5.2-.5.3.3 0 .5-.2.7-.3.3-.2.2-.3.3-.3 0 0 .5-.2.7-.3.5-.5.9-.5 1.2-1 .2-.2.7-.5.7-.7.3-.7.8-1 1.3-1.4m-2.2-61.2c-.5 0-.9-.5-1.2-.3.5 0 .8.7 1.2.3zm-8.2 66.7c.3-.2.7-.2.9-.5-.7.2-1.5.5-2.1 1 .5 0 .8-.3 1.2-.5m-1.9 1.2c0-.2.2-.2.2-.5-.2 0-.6.3-.2.5zm-2.8-70.1c-.3 0-1.2-.5-1.4 0 .8 0 .9.3 1.4 0zm-1.7 4.1c-.3 0-.5 0-.5.2.2.1.5.1.5-.2zm-1.5-4.1c.7-.2 1 .3 1.4-.2-.5 0-1.2-.2-1.4.2zm.9 4.4c0-.3-.7-.5-.9-.2.3.1.3.4.9.2zm-1.8-4.8s-.7 0-.7.2c.2-.2.7 0 .7-.2m-1.8 4.7c.5 0 1.5.5 1.7.2-.2-.2-.9-.5-1.4-.3-.5-.2-.9-.2-.9.2h.6m1.2 64.5c0-.2.2-.2.2-.3-.2 0-.3 0-.3.3h.1m-1.1 3.3c.3-.3 1.2 0 1.4-.5-.5 0-1.5.1-1.4.5zm-.5-67.8c-.2 0-.5-.3-.5 0 0 .2.5.4.5 0zm-1 68.3c.2-.3 1 0 .9-.5-.4.1-1.3.3-.9.5zm-4.8.3c-.3 0-.5 0-.5.2.3 0 .5 0 .5-.2zm-.2-67.5c-.3 0-.5-.3-.7.2.2-.2.7-.1.7-.2zm-.8 67.7c-.5.2-1.2 0-1.4.5.3 0 1.4-.2 1.4-.5zm-1.2-62.8c-.3 0-.7-.3-.9.2.4 0 .7.3.9-.2zm-1.1 62.3c-.3 0-.9.2-.5.3 0-.1.4-.1.5-.3zm-.8-53.7c0 .3.7.7.9.3-.3 0-1-.9-1.9-.7.3.2.7.4 1 .4m-5.7 39.3c-.2-.2-.2-.3-.7-.3-.2 0-.3-.2-.5-.2s-.3 0-.5.2c-.3 0-.7.2-.9.2.5 0 .9.2 1.2 0 .8-.1 1.3-.2 1.4.1m-3.7 0c.3-.2 1 .2.9-.2-.4-.1-.7 0-.9.2zm-6.3-1.7c0-.9-1.2-.2-1-.2-.1.2.8.2 1 .2m-2.4-1.9h-2.6c-.3.3 1 .3 1 .3.5-.1 1.4.1 1.6-.3m-4.7 7.6c.5.2 1.4-.2.3-.2.3-.2-.1 0-.3.2z"/></svg>