<svg xmlns="http://www.w3.org/2000/svg" viewBox="0 0 283.5 283.5" enable-background="new 0 0 283.5 283.5"><path fill="#fff" d="M0 0h283.5v283.5H0z"/><path fill="#C02646" d="M0 92.1h283.5v99.2H0zM33.7 41.3l-.5 3.5H35v1.8h-2l-.7 5.2h-2l.7-5.2h-2.5l-.7 5.2h-2l.7-5.2h-1.7v-1.8h2l.5-3.5h-1.7v-1.8h2l.6-4.8h2l-.6 4.8H32l.6-4.8h2l-.6 4.7h1.7v1.8h-2zm-4.5 0l-.5 3.5h2.5l.5-3.5h-2.5z"/><path fill="#808285" d="M41 51.7V34.6h1v16.2h4.6v.9H41zM56.4 51.1c-.5.6-1.3.8-2.3.8s-1.8-.3-2.3-.8c-1-1-1.2-2-1.2-7.9s.2-6.9 1.2-7.9c.5-.6 1.3-.8 2.3-.8s1.8.3 2.3.8c1 1 1.2 2 1.2 7.9s-.2 6.8-1.2 7.9zm-.7-15.2c-.4-.4-.9-.6-1.6-.6s-1.2.2-1.6.6c-.8.8-.9 1.6-.9 7.3s.1 6.4.9 7.3c.4.4.9.6 1.6.6s1.2-.2 1.6-.6c.8-.8.9-1.6.9-7.3s-.1-6.5-.9-7.3zM66.1 51.7h-.9l-3.6-17.1h1.1l3 15.1 3-15.1h1.1l-3.7 17.1zM73.9 51.7V34.6h5.5v.9h-4.6v7.2h3.9v.9h-3.9v7.2h4.6v.9h-5.5zM91 51c-.7.6-1.5.9-2.6.9-1.4 0-2.3-.5-2.9-1.2-1.2-1.3-1.2-3.2-1.2-7.5s.1-6.2 1.2-7.5c.6-.7 1.6-1.2 2.9-1.2 1.2 0 2 .4 2.7 1 .8.8 1.2 2 1.2 3.4h-2.1c0-.7-.1-1.5-.5-2-.3-.4-.7-.6-1.3-.6-.7 0-1.1.3-1.4.6-.6.8-.7 2.2-.7 6.2s.1 5.4.7 6.2c.3.4.7.6 1.4.6.6 0 1.1-.3 1.3-.6.4-.5.6-1.2.6-1.9h2.1c-.1 1.5-.6 2.8-1.4 3.6zM97.1 51.7V34.6h2.1v17.1h-2.1zM111.2 51.7L106.8 40v11.7h-2.1V34.6h1.9l4.4 11.7V34.6h2.1v17.1h-1.9zM122.5 36.5v15.2h-2.1V36.5h-2.9v-1.8h7.8v1.8h-2.8zM135 51.7l-.8-4h-4l-.8 4h-2.2l4-17.1h2l4 17.1H135zM132.3 38l-1.6 7.9h3.2l-1.6-7.9zM149.9 51.7v-8.9l-1.9 5.9h-1.8l-1.8-5.8v8.9H141V34.6h3l3.1 8.4 3.1-8.4h3v17.1h-3.3zM165.8 51.7l-.6-2.7h-3.9l-.6 2.7h-3.6l4.4-17.1h3.4l4.4 17.1h-3.5zm-2.5-12L162 46h2.6l-1.3-6.3zM179.4 51.7v-7.2h-2.8v7.2h-3.4V34.6h3.4v6.9h2.8v-6.9h3.4v17.1h-3.4zM195.3 51.7l-.6-2.7h-3.9l-.6 2.7h-3.6l4.4-17.1h3.4l4.4 17.1h-3.5zm-2.5-12l-1.3 6.3h2.6l-1.3-6.3zM211.2 50.6c-.7.7-1.8 1.1-3.6 1.1h-4.9V34.6h4.9c1.7 0 2.8.4 3.6 1.1.8.8 1.1 2 1.1 3.7 0 1.1-.1 2-.8 2.8-.2.2-.5.4-.8.6.3.2.6.4.8.6.8.9.8 2.2.8 3.1.1 1.8-.2 3.2-1.1 4.1zm-4-12.9h-1v3.6h1c1.3 0 1.8-.6 1.8-1.8 0-1.3-.5-1.8-1.8-1.8zm0 6.5h-1.1v4.4h1.1c1.4 0 1.8-.6 1.8-2.2 0-1.5-.5-2.2-1.8-2.2zM225.7 50.6c-.7.7-1.8 1.1-3.6 1.1h-4.9V34.6h4.9c1.7 0 2.8.4 3.6 1.1.8.8 1.1 2 1.1 3.7 0 1.1-.1 2-.8 2.8-.2.2-.5.4-.8.6.3.2.6.4.8.6.8.9.8 2.2.8 3.1 0 1.8-.3 3.2-1.1 4.1zm-4.1-12.9h-1v3.6h1c1.3 0 1.8-.6 1.8-1.8 0-1.3-.4-1.8-1.8-1.8zm.1 6.5h-1.1v4.4h1.1c1.4 0 1.8-.6 1.8-2.2-.1-1.5-.5-2.2-1.8-2.2zM239.1 51.7l-.6-2.7h-3.9l-.6 2.7h-3.6l4.4-17.1h3.4l4.4 17.1h-3.5zm-2.5-12l-1.3 6.3h2.6l-1.3-6.3zM252.7 51.7v-7.2h-2.8v7.2h-3.4V34.6h3.4v6.9h2.8v-6.9h3.4v17.1h-3.4zM25.4 66.2c-.6 0-1.1-.5-1.1-1.1s.5-1.1 1.1-1.1 1.1.5 1.1 1.1-.6 1.1-1.1 1.1zM32.2 66.2c-.6 0-1.1-.5-1.1-1.1s.5-1.1 1.1-1.1c.6 0 1.1.5 1.1 1.1s-.5 1.1-1.1 1.1zM39.1 66.2c-.6 0-1.1-.5-1.1-1.1s.5-1.1 1.1-1.1c.6 0 1.1.5 1.1 1.1s-.5 1.1-1.1 1.1zM46 66.2c-.6 0-1.1-.5-1.1-1.1S45.4 64 46 64c.6 0 1.1.5 1.1 1.1s-.6 1.1-1.1 1.1zM52.8 66.2c-.6 0-1.1-.5-1.1-1.1s.5-1.1 1.1-1.1 1.1.5 1.1 1.1-.5 1.1-1.1 1.1zM59.7 66.2c-.6 0-1.1-.5-1.1-1.1s.5-1.1 1.1-1.1 1.1.5 1.1 1.1-.5 1.1-1.1 1.1zM66.6 66.2c-.6 0-1.1-.5-1.1-1.1S66 64 66.6 64s1.1.5 1.1 1.1-.5 1.1-1.1 1.1zM73.4 66.2c-.6 0-1.1-.5-1.1-1.1s.5-1.1 1.1-1.1c.6 0 1.1.5 1.1 1.1s-.5 1.1-1.1 1.1zM80.3 66.2c-.6 0-1.1-.5-1.1-1.1s.5-1.1 1.1-1.1c.6 0 1.1.5 1.1 1.1s-.5 1.1-1.1 1.1zM87.2 66.2c-.6 0-1.1-.5-1.1-1.1s.5-1.1 1.1-1.1c.6 0 1.1.5 1.1 1.1s-.5 1.1-1.1 1.1zM94.1 66.2c-.6 0-1.1-.5-1.1-1.1s.5-1.1 1.1-1.1 1.1.5 1.1 1.1-.6 1.1-1.1 1.1zM100.9 66.2c-.6 0-1.1-.5-1.1-1.1s.5-1.1 1.1-1.1 1.1.5 1.1 1.1-.5 1.1-1.1 1.1zM112.3 69.7v-7.6l-1.7 5h-.8l-1.7-4.9v7.5h-1.3V59h1.2l2.2 5.9 2.1-5.9h1.2v10.7h-1.2zM118.5 69.7V59h4.1v1.2h-2.8v3.6h2.4V65h-2.4v3.6h2.8v1.2h-4.1zM131.1 69.7l-.5-2.5h-2.5l-.5 2.5h-1.3l2.5-10.7h1.2l2.5 10.7h-1.4zm-1.7-8.6l-1 4.9h2l-1-4.9zM140.6 69.7l-2.8-7.3v7.3h-1.3V59h1.2l2.7 7.3V59h1.3v10.7h-1.1zM150.7 69.2c-.4.4-1 .6-1.9.6-.8 0-1.5-.2-1.9-.6-.5-.5-.7-1.1-.7-2.2h1.3c0 .7.1 1.1.4 1.4.2.2.5.3.9.3s.7-.1.9-.3c.3-.3.3-.7.3-1.4 0-1.2-.2-1.6-1.1-2l-1.2-.5c-1.1-.5-1.5-1-1.5-2.7 0-.9.3-1.7.8-2.2.4-.4 1-.6 1.7-.6.8 0 1.4.2 1.8.6.5.5.7 1.2.7 2.2h-1.3c0-.6-.1-1-.3-1.3-.2-.2-.5-.4-.9-.4s-.6.1-.8.3c-.3.3-.4.7-.4 1.3 0 1 .2 1.4 1 1.7l1.2.5c1.2.5 1.5 1.2 1.5 2.9.2 1.2 0 1.9-.5 2.4zM164.3 60.2v9.5H163v-9.5h-1.8V59h4.9v1.2h-1.8zM174.3 69.1c-.4.4-1 .8-1.8.8-.9 0-1.4-.3-1.8-.8-.7-.8-.8-2-.8-4.7s0-3.9.8-4.7c.4-.5 1-.8 1.8-.8.9 0 1.4.3 1.8.8.7.8.8 2 .8 4.7s0 3.9-.8 4.7zm-.9-8.6c-.2-.2-.5-.4-.9-.4s-.7.2-.9.4c-.4.5-.5 1.4-.5 3.9s.1 3.4.5 3.9c.2.2.4.4.9.4s.7-.2.9-.4c.4-.5.4-1.4.4-3.9s-.1-3.4-.4-3.9zM180.7 66.2c-.6 0-1.1-.5-1.1-1.1s.5-1.1 1.1-1.1c.6 0 1.1.5 1.1 1.1s-.5 1.1-1.1 1.1zM187.6 66.2c-.6 0-1.1-.5-1.1-1.1s.5-1.1 1.1-1.1c.6 0 1.1.5 1.1 1.1s-.5 1.1-1.1 1.1zM194.5 66.2c-.6 0-1.1-.5-1.1-1.1s.5-1.1 1.1-1.1 1.1.5 1.1 1.1-.5 1.1-1.1 1.1zM201.3 66.2c-.6 0-1.1-.5-1.1-1.1s.5-1.1 1.1-1.1 1.1.5 1.1 1.1-.5 1.1-1.1 1.1zM208.2 66.2c-.6 0-1.1-.5-1.1-1.1s.5-1.1 1.1-1.1 1.1.5 1.1 1.1-.5 1.1-1.1 1.1zM215.1 66.2c-.6 0-1.1-.5-1.1-1.1s.5-1.1 1.1-1.1c.6 0 1.1.5 1.1 1.1s-.5 1.1-1.1 1.1zM222 66.2c-.6 0-1.1-.5-1.1-1.1s.5-1.1 1.1-1.1c.6 0 1.1.5 1.1 1.1s-.6 1.1-1.1 1.1zM228.8 66.2c-.6 0-1.1-.5-1.1-1.1s.5-1.1 1.1-1.1 1.1.5 1.1 1.1-.5 1.1-1.1 1.1zM235.7 66.2c-.6 0-1.1-.5-1.1-1.1s.5-1.1 1.1-1.1 1.1.5 1.1 1.1-.5 1.1-1.1 1.1zM242.6 66.2c-.6 0-1.1-.5-1.1-1.1s.5-1.1 1.1-1.1 1.1.5 1.1 1.1-.5 1.1-1.1 1.1zM249.4 66.2c-.6 0-1.1-.5-1.1-1.1s.5-1.1 1.1-1.1c.6 0 1.1.5 1.1 1.1s-.5 1.1-1.1 1.1zM256.3 66.2c-.6 0-1.1-.5-1.1-1.1s.5-1.1 1.1-1.1c.6 0 1.1.5 1.1 1.1s-.5 1.1-1.1 1.1z"/><g fill="#C02646"><path d="M190.8 230.7l.1.4V232.3l-.1.4-.1.4-.1.4-.1.4c-.1.3-.3.5-.4.7-.1.2-.3.4-.5.6-.2.2-.3.4-.5.6-.2.2-.4.4-.6.5l-1.2.9c-.2.1-.4.3-.6.4-.2.1-.4.3-.6.4-.4.3-.8.5-1.3.8-.4.2-.9.5-1.3.7-2 1-4.2 1.9-6.6 2.7-2.4.9-4.9 1.7-7.5 2.5-2.6.8-5.3 1.6-8.1 2.4-2.8.8-5.6 1.6-8.4 2.3l-8.4 2.4c-2.8.8-5.4 1.6-8 2.4-2.6.8-5 1.7-7.3 2.6-2.3.9-4.4 1.8-6.3 2.8l-.6.3-.6.3-.3.1-.3.2-.6.3-.6.3-.6.3-.6.3-.6.3-.6.3-.6.3-.3.2-.3.2-.3.2-.3.2c-.2.1-.4.2-.5.3-.2.1-.4.2-.5.3-.4.2-.7.5-1 .7l-.5.4c-.3-1.4-.9-2.7-1.7-3.8-.8-1.1-1.7-2.1-2.8-2.8-1.1-.8-2.3-1.3-3.6-1.6-1.3-.3-2.6-.4-4-.1-.8.1-1.5.3-2.2.6-.7.3-1.3.7-1.9 1.1l.5-.5.5-.5c.3-.3.7-.6 1-.9.3-.3.7-.6 1-.8.3-.2.6-.4 1-.6.3-.2.6-.4.9-.5.3-.2.6-.3.9-.5.3-.2.6-.3.9-.4.3-.1.6-.3.8-.4.3-.1.6-.2.8-.3.3-.1.5-.2.8-.3.3-.1.5-.2.8-.3.3-.1.5-.2.8-.3.3-.1.5-.2.8-.3.3-.1.5-.2.8-.2.5-.2 1-.3 1.5-.4l.4-.1.4-.1.4-.1.4-.1c.3-.1.5-.1.8-.2.2 0 .5-.1.7-.2.3-.1.5-.1.8-.2.2-.1.5-.1.7-.2l1.5-.3.7-.1.7-.1c.2 0 .5-.1.7-.1.2 0 .5-.1.7-.1.2 0 .9-.2 2.1-.4 1.2-.2 2.7-.5 4.7-.8 2-.3 4.4-.8 7.2-1.2 2.8-.5 6-1 9.6-1.6 3.6-.6 7.5-1.3 11.8-2 4.3-.7 8.9-1.5 13.9-2.2.9-.2 1.9-.4 2.8-.6.9-.2 1.9-.4 2.8-.6l2.7-.6c.5-.1.9-.2 1.4-.3.5-.1.9-.3 1.4-.4.4-.1.9-.3 1.3-.4.4-.1.9-.3 1.3-.4.4-.2.9-.3 1.3-.5s.9-.3 1.3-.6l.6-.3.6-.3c.2-.1.4-.2.6-.4.2-.1.4-.2.6-.4.4-.3.7-.6 1-.9l.4-.5.4-.5.3-.5c.1-.2.1-.4.2-.6v-1.1c0-.5-.2-.9-.3-1.2l-.2-.3-.2-.2-.2-.2-.2-.2-.3-.1-.3-.1c-.2-.1-.4-.1-.6-.1h-.3l-.3.1c-.2 0-.4.1-.6.3-.4.2-.7.5-.9.9l-.1.1-.1.1-.1.2-.1.1-.1.2-.1.2v.2l-.3.2-.2-.1v-.6l.1-.2.1-.2.1-.2.1-.2.1-.2.1-.2c.3-.4.6-.8 1.1-1.1l.3-.2.4-.1c.3-.1.5-.1.8-.1.3 0 .5 0 .8.1l.4.1.4.2c.2.1.5.3.7.5l.3.3.2.3c.2.2.3.5.3.7-.1-.1 0 .2 0 .4zM113.5 243.9c-1.3 1.9-2.5 3-3.8 3.3-.8.1-1.4-.1-2-.8-.5-.7-.9-1.6-1.1-2.9-.2-1-.2-2.3-.1-4.1.1-1.8.4-3.3.8-4.5l.4-1.2c-.7 1-1.2 2.1-1.5 3.2-.3 1.1-.7 2.7-1.1 4.6-.4 2-.7 3.3-1 4.1-.3.7-.5 1.3-.8 1.8-.3.5-.5.8-.8 1-.2.2-.7.3-1.4.4-.3.1-.4 0-.4-.1v-.7c0-.4 0-1.1-.1-2.1s-.3-2.5-.6-4.8c-.4-2.2-.4-4.2 0-5.9-.5.9-.9 2.7-1.1 5.5l-.1 1.1c-.2 2.9-.7 5-1.4 6.1-.7 1.2-1.6 1.8-2.5 2-.5.1-1.1 0-1.5-.3-.5-.3-.8-.6-.8-1.1-.1-.3.1-.8.5-1.3s.7-.8.8-.8l.3.1c.1.1.2.4.3.8.2.5.3.7.5.9.2.1.4.2.6.1.5-.1 1-.7 1.5-1.9s.8-2.9.9-5.3l.1-1.3c.1-1.1.2-1.9.3-2.6.1-.7.3-1.3.6-2 .4-1 .7-1.5.8-1.6.1-.1.4-.2.7-.3.3-.1.7-.2 1-.2l.3.2v.5c0 1 .1 2 .3 3l.5 2.8c.4 2.4.6 4.4.5 6 .3-.5.6-1.7 1-3.7.5-2.8 1.1-4.9 1.7-6.4.3-.7.7-1.4 1.1-2.1.5-.7.8-1 1-1.1.7-.3 1.3-.4 1.8-.5l.3.1c0 .1 0 .5-.2 1-.3 1.3-.5 3.1-.6 5.2-.1 2.2 0 3.9.2 5.1.2 1.4.8 2 1.6 1.9.7-.1 1.4-.9 2.2-2.2l.3 1zM124.6 241.9c-.8 1-1.4 1.8-2 2.3-.5.5-1.1.8-1.6.9-.5.1-1 0-1.4-.4-.4-.4-.6-1-.8-1.7-.6 1-1.2 1.7-1.7 2.2-.5.5-1.1.8-1.7.9-.5.1-1-.1-1.4-.4-.4-.4-.7-.9-.8-1.7-.3-1.4-.1-3.6.4-6.4l2.7-1c-.6 3.5-.7 5.8-.6 6.7.1.7.4 1 .9.9.4-.1.8-.4 1.2-1.1.4-.7.7-1.3.7-1.7l.6-4.7 2.7-1.1c-.3 2.2-.5 3.7-.6 4.6-.1.9-.1 1.5-.1 1.8.1.7.4.9.8.9.4-.1.8-.5 1.4-1.3l.7-1 .6 1.3zM134.8 240.1c-1.3 2-2.5 3.1-3.6 3.3-.5.1-.9 0-1.3-.3s-.6-.6-.7-1.1c-.1-.8 0-2.1.3-3.7.2-.9.3-1.4.2-1.7-.1-.3-.2-.4-.5-.4-.3.1-.6.3-1.1.8-.5.5-.9 1.1-1.4 1.8 0 1.3.1 2.9.4 4.7l-2.2 1c-.2-.7-.4-1.5-.6-2.4-.4-2.1-.4-4-.2-5.9.3-1.9.8-3.9 1.7-6.1.8-.5 1.6-1 2.2-1.3.6-.4 1-.5 1.1-.5.2 0 .4.1.5.4.2.3.3.6.4 1.1.1.7.1 1.6-.2 2.6-.3 1-.8 2.2-1.6 3.6.8-.7 1.4-1.1 1.7-1.3.3-.2.6-.3.9-.4.4-.1.7 0 .9.2.3.2.4.5.5 1 .1.6 0 1.6-.2 3-.3 1.4-.4 2.3-.3 2.6l.2.4.4.1c.4-.1 1.1-.9 2.1-2.4l.4.9zm-7.9-3c2-3.3 2.8-5.7 2.6-7-.1-.4-.2-.6-.5-.6-.4.1-.8.8-1.3 2.3-.4 1.6-.7 3.3-.8 5.3zM139.9 239.2c-1.3 2-2.4 3.1-3.2 3.2-.5.1-.9-.1-1.2-.5-.4-.4-.6-.9-.8-1.6-.3-1.5-.1-3.6.4-6.4l2.5-1h.1l-.5 3.4c-.2 1.4-.2 2.4-.1 3 0 .2.1.4.3.5l.4.1c.3-.1.5-.2.8-.4.2-.2.6-.7 1.1-1.5l.2 1.2zm-2-10.5c.3 1.7-.2 2.6-1.4 2.8-.6.1-1.1 0-1.6-.3.3-.7.5-1.4.6-2.2.6.2 1.1.3 1.4.3.3-.1.6-.3 1-.6zM149.3 237.6c-.4.6-.9 1-1.6 1.1-.5.1-1.2-.1-1.9-.5-.6 1-1.1 1.7-1.6 2.2-.5.5-1.1.8-1.8.9-.6.1-1.2-.1-1.7-.5s-.8-1-.9-1.7c-.3-1.4-.2-3.5.2-6.1.4-2.6.9-4.6 1.5-6 .9-.5 1.6-.8 2.3-1.1.7-.3 1.1-.5 1.1-.5.2 0 .4.1.6.3.2.2.3.5.4.9.1.8 0 1.7-.5 2.9s-1.1 2.3-2 3.5l-1.1 1.6c-.2 1.6-.2 2.7-.1 3.5.1.4.2.7.4.9.2.2.5.3.8.2.3-.1.6-.2.9-.5.2-.3.5-.6.7-1.2-.5-.5-.7-1.1-.8-1.7-.2-1-.1-2 .3-2.9.4-1 .9-1.5 1.5-1.6.2 0 .5 0 .7.2.2.2.3.5.4.8.2 1.1-.2 2.8-1.1 5 .5.4.9.6 1.4.5.3-.1.6-.2.8-.4.2-.2.5-.6.8-1.1l.3 1.3zm-6.7-4.6c.9-1.3 1.6-2.5 2-3.5.4-1 .6-1.8.5-2.3 0-.2-.1-.3-.2-.5l-.4-.1c-.7.2-1.4 2.3-1.9 6.4zM158.6 235.9c-.4.6-.9 1-1.6 1.1-.5.1-1.2-.1-1.9-.5-.6 1-1.1 1.7-1.6 2.2-.5.5-1.1.8-1.8.9-.6.1-1.1-.1-1.6-.5s-.8-1-.9-1.8c-.3-1.5-.2-3.5.2-6.1.4-2.6.9-4.6 1.5-6 .9-.5 1.6-.8 2.3-1.1.7-.3 1-.5 1.2-.5.2 0 .4.1.6.3.2.2.3.5.4.9.1.8 0 1.7-.5 2.9s-1.1 2.3-2 3.5l-1.1 1.6c-.2 1.6-.2 2.7 0 3.5.1.4.2.7.4.9.2.2.5.3.8.2.3-.1.6-.2.9-.5.2-.3.5-.6.7-1.2-.4-.5-.7-1.1-.8-1.7-.2-1-.1-2 .3-2.9.4-.9.9-1.5 1.5-1.6.2 0 .5 0 .7.2.2.2.3.5.4.8.2 1.1-.2 2.8-1.1 5 .5.4.9.6 1.4.5.3-.1.6-.2.7-.4.2-.2.5-.6.8-1.1l.1 1.4zm-6.6-4.6c.9-1.3 1.6-2.5 2-3.5.4-1 .6-1.8.5-2.3 0-.2-.1-.3-.2-.5l-.3-.1c-.9.2-1.5 2.4-2 6.4zM169.7 234c-.9 1.2-1.6 2.1-2 2.5-.4.4-.9.7-1.3.7-1.1.2-1.8-.7-2.1-2.6-.5 1.1-1 2-1.5 2.5-.5.6-1.1.9-1.7 1-.6.1-1.2-.1-1.7-.6s-.9-1.2-1-2c-.2-1-.1-2.1.3-3.1s1-1.9 1.8-2.7c.8-.7 1.5-1.2 2.2-1.3.9-.2 1.5.1 2 .9l1.9-1.6.6-.1-.4 3.2c-.2 1.6-.3 2.7-.2 3.3.1.6.4.9.8.8.3 0 .5-.2.8-.6.3-.3.7-.9 1.1-1.6l.4 1.3zm-7.5 1.9c.7-.1 1.2-.8 1.6-2.1.4-1.3.5-2.4.3-3.4-.1-.4-.2-.7-.4-.9-.2-.2-.5-.2-.8-.2-.7.1-1.2.8-1.7 2.1-.4 1.3-.5 2.4-.4 3.4.1.4.2.7.4.9.4.2.7.2 1 .2zM174.8 233.1c-1.3 2-2.4 3.1-3.2 3.2-.4.1-.9-.1-1.2-.5-.4-.4-.6-.9-.8-1.6-.3-1.5-.1-3.6.4-6.4l2.5-1h.1l-.5 3.4c-.2 1.4-.2 2.4-.1 3 0 .2.1.4.3.5l.4.1c.3 0 .5-.2.8-.4.2-.2.6-.7 1.1-1.5l.2 1.2zm-2.1-10.6c.3 1.7-.2 2.6-1.4 2.8-.6.1-1.1 0-1.6-.3.3-.7.5-1.4.6-2.2.6.2 1.1.3 1.4.3.3 0 .7-.2 1-.6zM185 231.3c-1.3 2-2.5 3.1-3.7 3.3-.5.1-.9 0-1.2-.3-.3-.3-.6-.7-.7-1.2-.1-.7 0-1.9.3-3.6.2-.9.3-1.4.2-1.6 0-.2-.1-.3-.3-.3l-.4.2c-.1.1-.3.3-.4.5-.1.2-.3.4-.5.7-.2.2-.3.5-.5.8l-.5.8c-.2.4-.3.7-.3 1.1 0 .6 0 1.2.1 1.7 0 .4.1.9.2 1.5l-2.2.9c-.2-.9-.4-1.6-.5-2.1-.2-1.1-.3-2.2-.2-3.2.1-1 .3-2.2.7-3.6l2.5-.9c-.3 1.5-.4 2.7-.5 3.6.9-1.5 1.7-2.5 2.2-3.1.6-.6 1.1-1 1.6-1 .4-.1.7 0 1 .2.3.2.5.5.5.9.1.7 0 1.8-.3 3.4-.2 1.1-.3 1.8-.3 2.1.1.4.3.6.6.5.5-.1 1.2-.9 2.1-2.4l.5 1.1zM116.2 229.3c-.5.1-1 .2-1.6.4-.4 1.4-1 3.5-.9 4.4 0 .2.1.3.3.3.4-.1 1-.6 1.3-1.7h.1s-.1 2-1.5 2.2c-.3.1-1 0-1.1-.9-.2-1 .1-2.7.4-4-.2.1-.4.2-.6.2-.7.1-1.2-.2-1.2-.6 0-.3.1-.5.4-.8.2 0 .3 0 .3.1v.1h-.2c-.1 0-.3.1-.2.4 0 .2.2.3.5.3.3-.1.7-.2 1.3-.5.2-.7.4-1.9.4-1.9.2 0 1 .3 1.1.7 0 .2 0 .3-.1.6.8-.3 1.5-.5 2.2-.6.8-.1 1.4-.1 1.6-.1l.3.1c.2.1.4.3.5.6v.5c-.1 0-.4-.2-1.8-.1-.4.1-.9.2-1.5.3zM119.5 231.6c0 .1-.3 2.1-1.3 2.3-.5.1-1.1-.5-1.2-1.2-.1-.4-.1-.7 0-1.1-.3 1-.8 2.4-.9 3 0 .3-.2.5-.5.6-.3.1-.6-.1-.7-.7-.3-1.7.7-6.3.8-6.9l.1-.4c0-.2.1-.5 0-.6.1 0 1 .1 1.1.7v.5c-.2.7-1.5 5.2-1.3 6.5 1.3-3.8 2.1-4.5 1.9-4.8.1 0 .9.3 1 .7v.3c-.1.8-.7 1.7-.6 2.6 0 .3.1.5.4.5.3-.1.8-.6 1.1-1.7h.1v-.3zM123 231.5c-.1.4-.3.7-.5 1-.3.5-.9 1-1.7 1.1-1.2.2-1.8-.9-1.9-1.6-.3-1.6.6-3.3 1.8-3.5.7-.1 1.3.3 1.3.8.2 1-.6 2-1.7 2.2-.4.1-.6 0-.8-.1v.6c.1.6.7 1.2 1.3 1.1.5-.1 1-.6 1.3-.8.6-.7.6-.9.7-.9l.2.1zm-3.4-.4h.2c.7-.1 1.2-1 1.1-1.4l-.3-.2c-.2 0-.5.3-.8.7 0 .3-.1.6-.2.9z"/></g><g fill="#fff"><path d="M28.9 141.6h-1.8v6.9h-.8v-14.9h2.6c1.5 0 3 .4 3 4 0 3.1-1.2 4-3 4zm0-7.3H27v6.6h1.9c1.6 0 2.1-1.1 2.1-3.3s-.5-3.3-2.1-3.3zM41.8 148.5l-2.2-6.9h-2.1v6.9h-.8v-14.9h2.6c1.5 0 3 .4 3 4 0 2.5-.7 3.5-1.9 3.9l2.4 7h-1zm-2.5-14.2h-1.9v6.6h1.9c1.6 0 2.1-1.1 2.1-3.3s-.6-3.3-2.1-3.3zM52 147.9c-.5.5-1.2.7-2 .7s-1.5-.3-2-.7c-.9-.9-1-1.7-1-6.9s.2-6 1-6.9c.5-.5 1.2-.7 2-.7s1.5.3 2 .7c.9.9 1 1.7 1 6.9 0 5.1-.1 6-1 6.9zm-.6-13.3c-.3-.3-.8-.5-1.4-.5s-1.1.2-1.4.5c-.7.7-.8 1.4-.8 6.4s.1 5.6.8 6.4c.3.3.8.5 1.4.5s1.1-.2 1.4-.5c.7-.7.8-1.4.8-6.4s-.1-5.6-.8-6.4zM65.4 148.5v-13l-3 8.5h-.8l-2.9-8.2v12.7h-.8v-14.9h.9l3.3 9.1 3.3-9.1h.9v14.9h-.9zM71.4 148.5v-14.9h.8v14.9h-.8zM81.8 147.8c-.5.5-1.2.7-2.1.7-.9 0-1.6-.2-2.1-.7-.7-.7-.9-1.4-.9-3h.8c0 1.3.1 1.9.7 2.4.3.3.8.5 1.5.5s1.2-.2 1.5-.5c.6-.6.7-1.3.7-2.6 0-2-.3-2.7-1.6-3.3l-1.5-.6c-1.5-.6-1.9-1.5-1.9-3.7 0-1.3.3-2.2.9-2.9.5-.5 1.2-.8 2.1-.8s1.6.3 2.1.8c.7.7.8 1.5.8 2.8H82c0-1-.1-1.7-.6-2.2-.3-.4-.8-.6-1.5-.6-.6 0-1.1.2-1.4.5-.5.5-.7 1.4-.7 2.4 0 1.9.3 2.5 1.7 3.1l1.5.6c1.6.6 1.8 1.9 1.8 3.9 0 1.6-.3 2.6-1 3.2zM87.4 148.5v-14.9h4.8v.8h-4v6.3h3.4v.8h-3.4v6.3h4v.8h-4.8zM107.5 148.5H105l-2.1-11.4-2.1 11.4h-2.5l-2.8-14.9h2.6l1.5 11.3 2.1-11.3h2.6l2.1 11.3 1.4-11.3h2.6l-2.9 14.9zM113.7 148.5v-14.9h2.4v14.9h-2.4zM124.7 135.6v12.8h-2.4v-12.8h-2.5v-2.1h7.4v2.1h-2.5zM136.3 148.5v-6.6h-2.9v6.6H131v-14.9h2.4v6.3h2.9v-6.3h2.4v14.9h-2.4zM149.8 147.4c-.6.7-1.5 1.3-2.9 1.3s-2.3-.5-2.9-1.3c-1.1-1.3-1.1-3.4-1.1-6.4 0-2.9 0-5.1 1.1-6.4.6-.7 1.5-1.3 2.9-1.3s2.3.5 2.9 1.3c1.1 1.3 1.1 3.4 1.1 6.4 0 2.9 0 5.1-1.1 6.4zM148 136c-.2-.3-.6-.6-1.1-.6-.6 0-.9.2-1.1.6-.4.7-.5 2.2-.5 5 0 2.7.1 4.2.5 5 .2.3.5.6 1.1.6.6 0 .9-.2 1.1-.6.4-.7.5-2.2.5-5s0-4.3-.5-5zM161.6 147.5c-.7.7-1.7 1.1-2.8 1.1s-2.1-.4-2.8-1.1c-.7-.7-1-1.6-1-2.8v-11.3h2.4v11.4c0 1.1.7 1.6 1.5 1.6s1.4-.5 1.4-1.6v-11.4h2.4v11.3c-.1 1.2-.5 2.2-1.1 2.8zM171.1 135.6v12.8h-2.4v-12.8h-2.5v-2.1h7.4v2.1h-2.5zM178.5 134.3v6.3h3.4v.8h-3.4v7.1h-.8v-14.9h4.8v.8h-4zM191.4 147.9c-.5.5-1.2.7-2 .7s-1.5-.3-2-.7c-.9-.9-1-1.7-1-6.9s.2-6 1-6.9c.5-.5 1.2-.7 2-.7s1.5.3 2 .7c.9.9 1 1.7 1 6.9.1 5.1-.1 6-1 6.9zm-.6-13.3c-.3-.3-.8-.5-1.4-.5s-1.1.2-1.4.5c-.7.7-.8 1.4-.8 6.4s.1 5.6.8 6.4c.3.3.8.5 1.4.5s1.1-.2 1.4-.5c.7-.7.8-1.4.8-6.4s-.1-5.6-.8-6.4zM202.5 148.5l-2.2-6.9h-2.1v6.9h-.8v-14.9h2.6c1.5 0 3 .4 3 4 0 2.5-.7 3.5-1.9 3.9l2.4 7h-1zm-2.5-14.2h-1.9v6.6h1.9c1.6 0 2.1-1.1 2.1-3.3s-.5-3.3-2.1-3.3zM210.8 148.6c-.8 0-1.5-.3-2-.7-.9-.9-1-1.7-1-6.9s.2-6 1-6.9c.5-.5 1.2-.7 2-.7.9 0 1.6.3 2 .8.6.6.8 1.6.8 2.6h-.8c0-1.3-.4-2.6-2-2.6-.6 0-1.1.2-1.4.5-.7.7-.8 1.4-.8 6.4s.1 5.6.8 6.4c.3.3.8.5 1.4.5 1.1 0 2-.8 2-2.4v-4.2h-2v-.8h2.8v5c0 2-1.4 3-2.8 3zM218.4 148.5v-14.9h4.8v.8h-4v6.3h3.4v.8h-3.4v6.3h4v.8h-4.8zM230.2 134.3v14.2h-.8v-14.2h-2.5v-.8h5.8v.8h-2.5zM236.8 148.5v-14.9h.8v14.9h-.8zM248 148.5l-4.4-12.6v12.6h-.8v-14.9h.9l4.4 12.6v-12.6h.8v14.9h-.9zM256.8 148.6c-.8 0-1.5-.3-2-.7-.9-.9-1-1.7-1-6.9s.2-6 1-6.9c.5-.5 1.2-.7 2-.7.9 0 1.6.3 2 .8.6.6.8 1.6.8 2.6h-.8c0-1.3-.4-2.6-2-2.6-.6 0-1.1.2-1.4.5-.7.7-.8 1.4-.8 6.4s.1 5.6.8 6.4c.3.3.8.5 1.4.5 1.1 0 2-.8 2-2.4v-4.2h-2v-.8h2.8v5c0 2-1.3 3-2.8 3z"/></g><g fill="#808285"><path d="M121.8 216.9v-10.7h1.3v9.5h2.8v1.2h-4.1zM134.2 216.3c-.4.5-1 .8-1.8.8-.9 0-1.4-.3-1.8-.8-.7-.8-.8-2-.8-4.7s0-3.9.8-4.7c.4-.5 1-.8 1.8-.8.9 0 1.4.3 1.8.8.7.8.8 2 .8 4.7s0 3.9-.8 4.7zm-.9-8.6c-.2-.2-.5-.4-.9-.4s-.7.2-.9.4c-.4.5-.5 1.4-.5 3.9s.1 3.4.5 3.9c.2.2.4.4.9.4s.7-.2.9-.4c.4-.5.4-1.4.4-3.9s-.1-3.4-.4-3.9zM142.4 216.9h-1.3l-2.3-10.7h1.4l1.5 8.6 1.6-8.6h1.4l-2.3 10.7zM148.8 216.9v-10.7h4.1v1.2H150v3.6h2.4v1.2H150v3.6h2.8v1.2h-4zM157.3 218.8v-3.4h1.4v2.3l-1.4 1.1z"/></g></svg>