<?xml version="1.0" encoding="utf-8"?>
<!-- Generator: Adobe Illustrator 17.1.0, SVG Export Plug-In . SVG Version: 6.00 Build 0)  -->
<!DOCTYPE svg PUBLIC "-//W3C//DTD SVG 1.1//EN" "http://www.w3.org/Graphics/SVG/1.1/DTD/svg11.dtd">
<svg version="1.1" id="Layer_1" xmlns="http://www.w3.org/2000/svg" xmlns:xlink="http://www.w3.org/1999/xlink" x="0px" y="0px"
	 viewBox="200 0 560 560" enable-background="new 200 0 560 560" xml:space="preserve">
<g>
	<path fill="#FFFFFF" d="M479.9,0C325.3,0,200,125.3,200,279.9C200,434.7,325.3,560,479.9,560C634.7,560,760,434.7,760,279.9
		C760,125.3,634.7,0,479.9,0L479.9,0z M623.4,413.1c0,5.8-4.5,10.5-10.3,10.5H346.8c-5.6,0-10.3-4.7-10.3-10.5V146.8
		c0-5.6,4.7-10.3,10.3-10.3h266.3c5.8,0,10.3,4.7,10.3,10.3V413.1z M422.6,279.9c0-31.6,25.6-57.3,57.3-57.3
		c31.8,0,57.5,25.6,57.5,57.3c0,31.8-25.8,57.5-57.5,57.5C448.2,337.4,422.6,311.7,422.6,279.9L422.6,279.9z M537.4,165.2h57.5v57.5
		h-57.5V165.2z M563.4,265.7h31.5v129H365.2v-129h31.3c-1.2,5.8-1.8,8.2-1.8,14.2c0,47.1,38.3,85.5,85.3,85.5
		c47.1,0,85.5-38.3,85.5-85.5C565.4,273.9,564.5,271.4,563.4,265.7L563.4,265.7z"/>
</g>
</svg>
