<svg xmlns="http://www.w3.org/2000/svg" viewBox="0 0 191.33 55.327" enable-background="new 0 0 191.33 55.327"><g fill-rule="evenodd" clip-rule="evenodd"><path d="M47.556 40.59c-1.3 2.88-1.922 4.166-3.595 6.71-2.333 3.556-5.624 7.98-9.702 8.02-3.625.032-4.555-2.36-9.473-2.333-4.917.027-5.944 2.373-9.568 2.34-4.078-.037-7.197-4.033-9.532-7.586-6.53-9.937-7.212-21.6-3.185-27.798 2.862-4.406 7.376-6.984 11.622-6.984 4.323 0 7.04 2.37 10.613 2.37 3.467 0 5.58-2.374 10.576-2.374 3.778 0 7.78 2.057 10.632 5.61-9.345 5.12-7.826 18.46 1.614 22.026zM31.52 8.982c1.814-2.33 3.193-5.62 2.693-8.982-2.966.205-6.435 2.092-8.46 4.55-1.838 2.233-3.356 5.544-2.765 8.763 3.237.1 6.588-1.835 8.53-4.33z"/></g><path d="M64.13 24.795c0 2.017-1.536 3.65-3.936 3.65-2.304 0-3.84-1.633-3.792-3.65-.048-2.112 1.488-3.696 3.84-3.696s3.84 1.583 3.888 3.695zm-7.536 30.003V31.324h7.297v23.474h-7.296zM76.225 28.588h-8.688v-6.145h24.866v6.145H83.57v26.21h-7.345v-26.21zM115.587 47.26c0 3.073.096 5.57.19 7.538h-6.335l-.336-3.312h-.145c-.91 1.44-3.12 3.84-7.344 3.84-4.753 0-8.257-2.976-8.257-10.225V31.325h7.344V43.95c0 3.407 1.104 5.47 3.648 5.47 2.017 0 3.17-1.39 3.648-2.543.192-.432.24-1.008.24-1.584v-13.97h7.345v15.938zM121.44 38.812c0-2.93-.095-5.425-.19-7.488h6.336l.336 3.216h.145c.96-1.488 3.36-3.744 7.248-3.744 4.8 0 8.4 3.168 8.4 10.08V54.8h-7.296v-13.01c0-3.023-1.057-5.088-3.697-5.088-2.017 0-3.217 1.393-3.697 2.736-.19.48-.287 1.152-.287 1.824v13.537h-7.298V38.812zM155.185 45.39c.24 3.023 3.217 4.464 6.625 4.464 2.496 0 4.512-.336 6.48-.96l.96 4.944c-2.4.96-5.327 1.488-8.496 1.488-7.97 0-12.53-4.656-12.53-12 0-5.954 3.698-12.53 11.858-12.53 7.585 0 10.465 5.904 10.465 11.713 0 1.247-.144 2.35-.24 2.88h-15.122zm8.594-4.994c0-1.776-.77-4.752-4.13-4.752-3.072 0-4.32 2.784-4.513 4.752h8.642zM174.865 48.413c1.345.816 4.13 1.776 6.29 1.776 2.207 0 3.12-.77 3.12-1.97s-.72-1.775-3.457-2.687c-4.85-1.632-6.72-4.272-6.673-7.01 0-4.415 3.744-7.728 9.553-7.728 2.736 0 5.185.624 6.625 1.344l-1.297 5.04c-1.056-.576-3.072-1.345-5.088-1.345-1.776 0-2.784.72-2.784 1.92 0 1.105.912 1.68 3.792 2.69 4.465 1.535 6.337 3.792 6.385 7.248 0 4.368-3.455 7.633-10.176 7.633-3.072 0-5.81-.72-7.585-1.68l1.295-5.233z"/></svg>