<svg xmlns="http://www.w3.org/2000/svg" viewBox="0 0 527.7 217.5" enable-background="new 0 0 527.7 217.5"><g fill="#808184"><path d="M10.9 53.5v11.8H9.3V53.5H7.1v-1.4h6v1.4h-2.2zM18.4 65.3v-7.1c0-.9-.5-1.3-1.2-1.3-.6 0-1.1.4-1.1 1.3v7.1h-1.5V52.1h1.5v4.3c.1-.2.4-.4.5-.5.3-.2.6-.3 1-.3.7 0 1.2.2 1.6.7.4.4.6.9.6 2v7.1h-1.4zM23.1 60.8c0 1.5.1 2.4.4 2.8.2.2.4.4.8.4s.6-.1.9-.4c.2-.2.3-.6.3-1.1H27c0 .9-.2 1.6-.8 2.1-.5.5-1.2.7-1.9.7-.8 0-1.4-.2-1.9-.7-.7-.8-.9-2.2-.9-4.2s.1-3.5.8-4.2c.5-.5 1.1-.7 1.9-.7.8 0 1.4.2 1.9.7.8.9.8 2.5.8 4.6h-3.8zm2.1-3.5c-.2-.2-.5-.4-.9-.4s-.6.2-.8.4c-.3.4-.4 1.1-.4 2.4h2.4c.1-1.3 0-2.1-.3-2.4zM31.8 65.3v-1.2l3.7-10.6H32v-1.4h5.1v1.2l-3.7 10.6h3.7v1.4h-5.3zM39.5 53.9c-.6 0-1-.4-1-1s.4-1 1-1 1 .4 1 1c0 .5-.4 1-1 1zm-.7 11.4v-9.6h1.5v9.6h-1.5zM46.8 65.3L45 60.8l-1 1.7v2.9h-1.5V52.1H44v8.2l2.7-4.6h1.6L46 59.4l2.6 5.9h-1.8zM50.5 53.9c-.6 0-1-.4-1-1s.4-1 1-1 1 .4 1 1c-.1.5-.5 1-1 1zm-.8 11.4v-9.6h1.5v9.6h-1.5zM56.6 57c-1 0-1.7.7-1.7 1.8v6.6h-1.5v-9.6h1.4v1c.1-.3.4-.5.7-.7.4-.3 1-.5 1.6-.5V57h-.5zM61.6 59.7v5.6h-1v-5.6h-.7v-.8h.7v-.6c0-.7.2-1.1.6-1.4.4-.3.9-.4 1.4-.4v.9c-.7 0-1 .3-1 1v.6h1v.8h-1zM64.1 62.3c0 1 0 1.6.3 1.9.1.1.3.3.6.3.2 0 .4-.1.6-.2.1-.2.2-.4.2-.7h1c0 .6-.2 1-.5 1.4-.3.3-.8.5-1.3.5-.6 0-.9-.1-1.3-.5-.5-.5-.6-1.5-.6-2.8 0-1.3.1-2.3.6-2.8.3-.3.8-.5 1.3-.5s.9.1 1.3.5c.5.6.6 1.7.6 3h-2.8zm1.4-2.3c-.1-.1-.3-.3-.6-.3s-.4.1-.6.3c-.2.2-.3.8-.3 1.6h1.6c.2-.9.1-1.4-.1-1.6zM70.3 65.3v-.6c-.1.2-.2.3-.4.4-.2.1-.4.2-.8.2-.5 0-.8-.1-1.1-.5-.2-.3-.4-.8-.4-1.4 0-.6.2-1.1.6-1.4.3-.3.7-.4 1.4-.4h.7v-1c0-.6-.3-.9-.8-.9-.2 0-.4.1-.5.2-.2.2-.2.4-.2.7h-1c0-.5.1-1 .5-1.4.3-.3.7-.5 1.2-.5s1 .1 1.2.4c.3.3.5.8.5 1.4v4.7h-.9zm-.1-3h-.6c-.3 0-.5 0-.7.2-.2.2-.3.5-.3.9 0 .7.3 1.1.8 1.1s.8-.4.8-1v-1.2zM73.4 64.9c-.4-.3-.6-.8-.6-1.4v-3.8h-.7v-.8h.7v-1.8h1v1.8h1v.8h-1v3.8c0 .7.4 1 1 1v.9c-.5-.1-1-.2-1.4-.5zM78.3 65.3v-.5l-.4.4c-.2.1-.4.2-.7.2-.5 0-.8-.2-1.1-.5-.3-.3-.4-.6-.4-1.3v-4.7h1v4.7c0 .6.3.9.8.9.4 0 .8-.3.8-.9v-4.7h1v6.4h-1zM82.9 59.8c-.7 0-1.2.4-1.2 1.2v4.4h-1V59h1v.7c.1-.2.3-.3.4-.5.3-.2.6-.3 1.1-.3v1h-.3zM84.6 57.7c-.4 0-.7-.3-.7-.7 0-.4.3-.7.7-.7s.7.3.7.7c-.1.4-.4.7-.7.7zm-.6 7.6v-6.4h1v6.4h-1zM89 65.3v-4.7c0-.6-.3-.9-.8-.9-.4 0-.8.3-.8.9v4.7h-1v-6.4h1v.5l.4-.4c.2-.1.4-.2.7-.2.5 0 .8.2 1.1.5.3.3.4.6.4 1.3v4.7h-1zM94.2 67.3c-.3.3-.8.5-1.3.5s-1-.1-1.3-.5c-.4-.4-.5-.8-.5-1.4h1c0 .3 0 .6.2.8.1.1.3.2.5.2s.4-.1.5-.2c.2-.2.2-.5.2-1.1v-1c-.1.1-.2.3-.4.4-.2.1-.4.2-.7.2-.5 0-.8-.1-1.1-.5-.4-.5-.5-1.2-.5-2.7 0-1.5.1-2.2.5-2.7.3-.3.6-.5 1.1-.5.3 0 .5.1.7.2.1.1.3.2.4.4v-.5h1v6.6c.2.9.1 1.4-.3 1.8zm-.5-6.7c0-.3-.1-.6-.2-.7-.1-.1-.3-.2-.5-.2s-.4.1-.5.3c-.2.3-.3.9-.3 2s0 1.7.3 2c.1.2.3.3.5.3s.4-.1.5-.2c.1-.2.2-.4.2-.7v-2.8zM100.5 57.4v7.9h-1.1v-7.9H98v-1h4v1h-1.5zM105.5 65.3v-4.7c0-.6-.3-.9-.8-.9-.4 0-.8.3-.8.9v4.7h-1v-8.8h1v2.9c.1-.1.2-.3.4-.4.2-.1.4-.2.7-.2.5 0 .8.2 1.1.5.3.3.4.6.4 1.3v4.7h-1zM108.6 62.3c0 1 0 1.6.3 1.9.1.1.3.3.6.3.2 0 .4-.1.6-.2.1-.2.2-.4.2-.7h1c0 .6-.2 1-.5 1.4-.3.3-.8.5-1.3.5-.6 0-.9-.1-1.3-.5-.5-.5-.6-1.5-.6-2.8 0-1.3.1-2.3.6-2.8.3-.3.8-.5 1.3-.5s.9.1 1.3.5c.5.6.6 1.7.6 3h-2.8zM110 60c-.1-.1-.3-.3-.6-.3s-.4.1-.6.3c-.2.2-.3.8-.3 1.6h1.6c.2-.9.1-1.4-.1-1.6zM117.9 65.3v-4h-2v4h-1.1v-8.8h1.1v3.8h2v-3.8h1.1v8.8h-1.1zM122.8 65.3v-.6c-.1.2-.2.3-.4.4-.2.1-.4.2-.8.2-.5 0-.8-.1-1.1-.5-.2-.3-.4-.8-.4-1.4 0-.6.2-1.1.6-1.4.3-.3.7-.4 1.4-.4h.7v-1c0-.6-.3-.9-.8-.9-.2 0-.4.1-.5.2-.2.2-.2.4-.2.7h-1c0-.5.1-1 .5-1.4.3-.3.7-.5 1.2-.5s1 .1 1.2.4c.3.3.5.8.5 1.4v4.7h-.9zm-.1-3h-.6c-.3 0-.5 0-.7.2-.2.2-.3.5-.3.9 0 .7.3 1.1.8 1.1s.8-.4.8-1v-1.2zM128.2 64.9c-.3.3-.6.5-1.1.5-.3 0-.5-.1-.7-.2l-.4-.4v.5h-1v-8.8h1v2.8c.1-.1.2-.3.4-.4.2-.1.4-.2.7-.2.5 0 .8.2 1.1.5.4.5.5 1.3.5 2.8-.1 1.6-.1 2.4-.5 2.9zm-.8-4.9c-.1-.2-.3-.3-.6-.3-.2 0-.4.1-.5.2-.2.2-.2.4-.2.7v2.9c0 .3.1.6.2.8.1.1.3.2.5.2s.4-.1.6-.3c.2-.3.2-1 .2-2.1 0-1.2 0-1.8-.2-2.1zM132.7 64.9c-.3.4-.8.5-1.3.5s-1-.2-1.3-.5c-.4-.4-.5-.8-.5-1.4h1c0 .3.1.6.3.8.1.1.4.2.6.2.3 0 .4-.1.6-.2.1-.1.2-.4.2-.6 0-.2 0-.4-.2-.6-.1-.2-.3-.3-.6-.5l-.8-.4c-.4-.2-.7-.5-.9-.7-.1-.2-.2-.5-.2-.8 0-.6.2-1 .5-1.3.3-.3.8-.5 1.3-.5s.9.1 1.3.5c.3.3.5.8.5 1.4h-1c0-.4-.1-.6-.2-.8-.1-.2-.3-.2-.5-.2s-.4.1-.6.2c-.2.2-.2.4-.2.6 0 .2 0 .3.1.5.1.1.3.3.5.4l.8.4c.4.2.7.4.9.7.2.3.3.6.3 1-.1.5-.3 1-.6 1.3zM136 66.3c-.3 1.2-1.1 1.4-2.1 1.4v-.9c.6 0 1-.2 1.2-.7l.2-.8-1.6-6.4h1.1l1 4.8 1-4.8h1.1l-1.9 7.4zM139.1 57.7c-.4 0-.7-.3-.7-.7 0-.4.3-.7.7-.7s.7.3.7.7c-.1.4-.4.7-.7.7zm-.5 7.6v-6.4h1v6.4h-1zM147.6 65.3l-.6-.9c-.5.6-1 1-1.9 1-1.1 0-2-.8-2-2.2 0-1 .5-1.8 1.4-2.7-.7-1-1-1.5-1-2.2 0-1.1.7-1.9 1.7-1.9 1.2 0 1.7.8 1.7 1.8s-.4 1.7-1.2 2.5l1.3 2c.2-.5.4-1.2.5-1.9h.9c-.1 1-.4 2-.8 2.7l1.1 1.7h-1.1zm-2.7-4c-.7.7-1 1.2-1 1.8 0 .8.4 1.4 1.1 1.4.5 0 .9-.3 1.3-.9l-1.4-2.3zm.2-4c-.5 0-.8.5-.8.9s.2.8.7 1.6c.5-.5.8-.9.8-1.6.1-.5-.2-.9-.7-.9zM153.8 57.4v7.9h-1.1v-7.9h-1.5v-1h4v1h-1.4zM158.7 65.3v-4.7c0-.6-.3-.9-.8-.9-.4 0-.8.3-.8.9v4.7h-1v-8.8h1v2.9c.1-.1.2-.3.4-.4.2-.1.4-.2.7-.2.5 0 .8.2 1.1.5.3.3.4.6.4 1.3v4.7h-1zM161.9 62.3c0 1 0 1.6.3 1.9.1.1.3.3.6.3.2 0 .4-.1.6-.2.1-.2.2-.4.2-.7h1c0 .6-.2 1-.5 1.4-.3.3-.8.5-1.3.5-.6 0-.9-.1-1.3-.5-.5-.5-.6-1.5-.6-2.8 0-1.3.1-2.3.6-2.8.3-.3.8-.5 1.3-.5s.9.1 1.3.5c.5.6.6 1.7.6 3h-2.8zm1.4-2.3c-.1-.1-.3-.3-.6-.3s-.4.1-.6.3c-.2.2-.3.8-.3 1.6h1.6c.1-.9.1-1.4-.1-1.6zM168.1 65.3v-8.8h1.1v7.9h2.3v1h-3.4zM175 65.3v-.5l-.4.4c-.2.1-.4.2-.7.2-.5 0-.8-.2-1.1-.5-.3-.3-.4-.6-.4-1.3v-4.7h1v4.7c0 .6.3.9.8.9.4 0 .8-.3.8-.9v-4.7h1v6.4h-1zM179.8 67.7v-2.8c-.1.1-.2.3-.4.4-.2.1-.4.2-.7.2-.5 0-.8-.2-1.1-.5-.4-.5-.5-1.3-.5-2.8 0-1.5.1-2.4.5-2.8.3-.3.6-.5 1.1-.5.3 0 .5.1.7.2l.4.4V59h1v8.8h-1zm0-7.1c0-.3-.1-.6-.3-.7-.1-.1-.3-.2-.5-.2s-.4.1-.5.3c-.2.3-.3 1-.3 2.1 0 1.2 0 1.8.3 2.1.1.2.3.3.5.3s.4 0 .5-.2c.2-.2.3-.4.3-.8v-2.9zM187.2 65.3v-4.7c0-.6-.3-.9-.8-.9-.4 0-.8.3-.8.9v4.7h-1v-4.7c0-.6-.3-.9-.8-.9-.4 0-.8.3-.8.9v4.7h-1v-6.4h1v.5l.4-.4c.2-.1.4-.2.7-.2.5 0 1 .3 1.2.7.1-.2.3-.4.5-.5.2-.1.5-.2.7-.2.6 0 .9.2 1.2.5.3.3.4.6.4 1.3v4.7h-.9zM191.9 65.3v-.6c-.1.2-.2.3-.4.4-.2.1-.4.2-.8.2-.5 0-.8-.1-1.1-.5-.2-.3-.4-.8-.4-1.4 0-.6.2-1.1.6-1.4.3-.3.7-.4 1.4-.4h.7v-1c0-.6-.3-.9-.8-.9-.2 0-.4.1-.5.2-.2.2-.2.4-.2.7h-1c0-.5.1-1 .5-1.4.3-.3.7-.5 1.2-.5s1 .1 1.2.4c.3.3.5.8.5 1.4v4.7h-.9zm0-3h-.6c-.3 0-.5 0-.7.2-.2.2-.3.5-.3.9 0 .7.3 1.1.8 1.1s.8-.4.8-1v-1.2zM196.8 65.3v-4.7c0-.6-.3-.9-.8-.9-.4 0-.8.3-.8.9v4.7h-1v-6.4h1v.5l.4-.4c.2-.1.4-.2.7-.2.5 0 .8.2 1.1.5.3.3.4.6.4 1.3v4.7h-1zM3.8 78.2V90H2.2V78.2H0v-1.4h6v1.4H3.8zM11.3 90v-7c0-.9-.5-1.3-1.2-1.3-.6-.1-1.1.4-1.1 1.3v7H7.5V76.8H9v4.3c.1-.2.4-.4.5-.5.3-.2.6-.3 1-.3.7 0 1.2.2 1.6.7.4.4.6.9.6 2v7h-1.4zM16 85.6c0 1.5.1 2.4.4 2.8.2.2.4.4.8.4s.6-.1.9-.4c.2-.2.3-.6.3-1.1h1.5c0 .9-.2 1.6-.8 2.1-.5.5-1.2.7-1.9.7-.8 0-1.4-.2-1.9-.7-.7-.8-.9-2.2-.9-4.2s.1-3.5.8-4.2c.5-.5 1.1-.7 1.9-.7.8 0 1.4.2 1.9.7.8.9.8 2.5.8 4.6H16zm2.1-3.6c-.2-.2-.5-.4-.9-.4s-.6.2-.8.4c-.3.4-.4 1.1-.4 2.4h2.4c0-1.3 0-2-.3-2.4zM28.3 84.5h-1.4V90h-1.6V76.8h3c2 0 3.1.9 3.1 3.8 0 2.8-.9 3.9-3.1 3.9zm0-6.3h-1.4v4.9h1.4c1.2 0 1.5-1 1.5-2.4 0-1.5-.3-2.5-1.5-2.5zM34.1 85.6c0 1.5.1 2.4.4 2.8.2.2.4.4.8.4s.6-.1.9-.4c.2-.2.3-.6.3-1.1H38c0 .9-.2 1.6-.8 2.1-.5.5-1.2.7-1.9.7-.8 0-1.4-.2-1.9-.7-.7-.8-.9-2.2-.9-4.2s.1-3.5.8-4.2c.5-.5 1.1-.7 1.9-.7.8 0 1.4.2 1.9.7.8.9.8 2.5.8 4.6h-3.8zm2.1-3.6c-.2-.2-.5-.4-.9-.4s-.6.2-.8.4c-.3.4-.4 1.1-.4 2.4h2.4c.1-1.3 0-2-.3-2.4zM43.1 81.7c-1 0-1.7.7-1.7 1.8V90h-1.5v-9.6h1.4v1c.1-.3.4-.5.7-.7.4-.3 1-.5 1.6-.5v1.4h-.5zM46.7 81.6V90h-1.5v-8.4h-1.1v-1.2h1.1v-.9c0-1 .3-1.7.8-2.1.6-.5 1.3-.6 2.2-.6v1.4c-1 0-1.5.5-1.5 1.4v.9h1.5v1.2h-1.5zM50.6 85.6c0 1.5.1 2.4.4 2.8.2.2.4.4.8.4s.6-.1.9-.4c.2-.2.3-.6.3-1.1h1.5c0 .9-.2 1.6-.8 2.1-.5.5-1.2.7-1.9.7-.8 0-1.4-.2-1.9-.7-.7-.8-.9-2.2-.9-4.2s.1-3.5.8-4.2c.5-.5 1.1-.7 1.9-.7.8 0 1.4.2 1.9.7.8.9.8 2.5.8 4.6h-3.8zm2.1-3.6c-.2-.2-.5-.4-.9-.4s-.6.2-.8.4c-.3.4-.4 1.1-.4 2.4H53c.1-1.3 0-2-.3-2.4zM60.6 89.5c-.4.5-1.1.7-1.9.7-.8 0-1.5-.2-2-.9-.6-.8-.7-2.1-.7-4.1 0-1.9.1-3.3.7-4.1.5-.6 1.2-.9 2-.9s1.4.1 1.9.6c.6.6.7 1.4.8 2.2h-1.5c0-.4 0-.8-.3-1.1-.2-.2-.5-.4-.8-.4-.4 0-.7.1-.9.4-.4.5-.4 1.5-.4 3.2 0 1.7 0 2.7.4 3.2.2.3.5.4.9.4s.6-.1.8-.4c.3-.3.3-.7.3-1.1h1.5c0 1.1-.3 1.8-.8 2.3zM64.2 89.4c-.5-.4-.8-1.2-.8-2.2v-5.7h-1.1v-1.2h1.1v-2.6h1.5v2.6h1.5v1.2h-1.5v5.6c0 1 .5 1.4 1.5 1.4V90c-.8 0-1.6-.1-2.2-.6zM68.6 78.6c-.6 0-1-.4-1-1s.4-1 1-1 1 .4 1 1-.4 1-1 1zM67.9 90v-9.6h1.5V90h-1.5zM75.9 89.3c-.5.6-1.2.9-2 .9-.9 0-1.5-.2-2-.9-.6-.8-.7-2.1-.7-4.1 0-1.9.1-3.3.7-4.1.5-.6 1.2-.9 2-.9.9 0 1.6.2 2 .9.6.8.7 2.1.7 4.1 0 2-.1 3.3-.7 4.1zM74.7 82c-.2-.3-.5-.4-.9-.4s-.6.1-.8.4c-.4.5-.4 1.5-.4 3.2 0 1.7 0 2.7.4 3.2.2.3.5.4.8.4.4 0 .7-.1.9-.4.4-.5.4-1.5.4-3.2 0-1.7 0-2.7-.4-3.2zM82.2 90v-7c0-.9-.5-1.3-1.2-1.3-.6 0-1.1.4-1.1 1.3v7h-1.5v-9.6h1.4v.7c.1-.2.4-.5.6-.6.3-.2.6-.3 1-.3.7 0 1.2.2 1.6.7.4.4.6.9.6 2V90h-1.4zM93.7 89.3c-.5.6-1.2.9-2 .9-.9 0-1.5-.2-2-.9-.6-.8-.7-2.1-.7-4.1 0-1.9.1-3.3.7-4.1.5-.6 1.2-.9 2-.9.9 0 1.6.2 2 .9.6.8.7 2.1.7 4.1 0 2-.1 3.3-.7 4.1zM92.5 82c-.2-.3-.5-.4-.9-.4s-.6.1-.8.4c-.4.5-.4 1.5-.4 3.2 0 1.7 0 2.7.4 3.2.2.3.5.4.8.4.4 0 .7-.1.9-.4.4-.5.4-1.5.4-3.2 0-1.7-.1-2.7-.4-3.2zM98 81.6V90h-1.5v-8.4h-1.1v-1.2h1.1v-.9c0-1 .3-1.7.8-2.1.6-.5 1.3-.6 2.2-.6v1.4c-1 0-1.5.5-1.5 1.4v.9h1.5v1.2H98zM104.5 90V76.8h1.6v11.8h3.5V90h-5.1zM115.5 89.3c-.5.6-1.2.9-2 .9-.9 0-1.5-.2-2-.9-.6-.8-.7-2.1-.7-4.1 0-1.9.1-3.3.7-4.1.5-.6 1.2-.9 2-.9.9 0 1.6.2 2 .9.6.8.7 2.1.7 4.1 0 2-.1 3.3-.7 4.1zm-1.2-7.3c-.2-.3-.5-.4-.9-.4s-.6.1-.8.4c-.4.5-.4 1.5-.4 3.2 0 1.7 0 2.7.4 3.2.2.3.5.4.8.4.4 0 .7-.1.9-.4.4-.5.4-1.5.4-3.2 0-1.7 0-2.7-.4-3.2zM120.9 90h-1.6l-2.3-9.6h1.7l1.5 7.2 1.4-7.2h1.7l-2.4 9.6zM125.5 85.6c0 1.5.1 2.4.4 2.8.2.2.4.4.8.4s.6-.1.9-.4c.2-.2.3-.6.3-1.1h1.5c0 .9-.2 1.6-.8 2.1-.5.5-1.2.7-1.9.7-.8 0-1.4-.2-1.9-.7-.7-.8-.9-2.2-.9-4.2s.1-3.5.8-4.2c.5-.5 1.1-.7 1.9-.7.8 0 1.4.2 1.9.7.8.9.8 2.5.8 4.6h-3.8zm2.1-3.6c-.2-.2-.5-.4-.9-.4s-.6.2-.8.4c-.3.4-.4 1.1-.4 2.4h2.4c.1-1.3 0-2-.3-2.4zM136.3 89.7c-.3.3-.6.5-1.1.5-.3 0-.5-.1-.7-.2l-.4-.4v.4h-1v-8.8h1V84c.1-.1.2-.3.4-.4.2-.1.4-.2.7-.2.5 0 .8.2 1.1.5.4.5.5 1.3.5 2.8 0 1.6-.1 2.5-.5 3zm-.8-5c-.1-.2-.3-.3-.6-.3-.2 0-.4.1-.5.2-.2.2-.2.4-.2.7v2.9c0 .3.1.6.2.8.1.1.3.2.5.2s.4-.1.6-.3c.2-.3.2-1 .2-2.1s0-1.8-.2-2.1zM139.7 91c-.3 1.2-1.1 1.4-2.1 1.4v-.9c.6 0 1-.2 1.2-.7l.2-.8-1.6-6.4h1.1l1 4.8 1-4.8h1.1l-1.9 7.4zM146.7 82.2V90h-1.1v-7.9h-1.5v-1h4v1h-1.4zM151.6 90v-4.7c0-.6-.3-.9-.8-.9-.4 0-.8.3-.8.9V90h-1v-8.8h1v2.9c.1-.1.2-.3.4-.4.2-.1.4-.2.7-.2.5 0 .8.2 1.1.5.3.3.4.6.4 1.3V90h-1zM154.8 87.1c0 1 0 1.6.3 1.9.1.1.3.3.6.3.2 0 .4-.1.6-.2.1-.2.2-.4.2-.7h1c0 .6-.2 1-.5 1.4-.3.3-.8.5-1.3.5-.6 0-.9-.1-1.3-.5-.5-.5-.6-1.5-.6-2.8 0-1.3.1-2.3.6-2.8.3-.3.8-.5 1.3-.5s.9.1 1.3.5c.5.6.6 1.7.6 3h-2.8zm1.4-2.4c-.1-.1-.3-.3-.6-.3s-.4.1-.6.3c-.2.2-.3.8-.3 1.6h1.6c.1-.9.1-1.4-.1-1.6zM161 90v-8.8h1.1V90H161zM165.9 92.4v-2.8c-.1.1-.2.3-.4.4-.2.1-.4.2-.7.2-.5 0-.8-.2-1.1-.5-.4-.5-.5-1.3-.5-2.8 0-1.5.1-2.4.5-2.8.3-.3.6-.5 1.1-.5.3 0 .5.1.7.2l.4.4v-.5h1v8.8h-1zm0-7.1c0-.3-.1-.6-.3-.7-.1-.1-.3-.2-.5-.2s-.4.1-.5.3c-.2.3-.3 1-.3 2.1s0 1.8.3 2.1c.1.2.3.3.5.3s.4 0 .5-.2c.2-.2.3-.4.3-.8v-2.9zM171.4 89.7c-.3.3-.6.5-1.1.5-.3 0-.5-.1-.7-.2l-.4-.4v.4h-1v-8.8h1V84c.1-.1.2-.3.4-.4.2-.1.4-.2.7-.2.5 0 .8.2 1.1.5.4.5.5 1.3.5 2.8 0 1.6 0 2.5-.5 3zm-.7-5c-.1-.2-.3-.3-.6-.3-.2 0-.4.1-.5.2-.2.2-.2.4-.2.7v2.9c0 .3.1.6.2.8.1.1.3.2.5.2s.4-.1.6-.3c.2-.3.2-1 .2-2.1s0-1.8-.2-2.1zM175.4 90v-.6c-.1.2-.2.3-.4.4-.2.1-.4.2-.8.2-.5 0-.8-.1-1.1-.5-.2-.3-.4-.8-.4-1.4 0-.6.2-1.1.6-1.4.3-.3.7-.4 1.4-.4h.7v-1c0-.6-.3-.9-.8-.9-.2 0-.4.1-.5.2-.2.2-.2.4-.2.7h-1c0-.5.1-1 .5-1.4.3-.3.7-.5 1.2-.5s1 .1 1.2.4c.3.3.5.8.5 1.4V90h-.9zm0-2.9h-.6c-.3 0-.5 0-.7.2-.2.2-.3.5-.3.9 0 .7.3 1.1.8 1.1s.8-.4.8-1v-1.2zM178.3 89.6c-.3-.3-.6-.7-.6-1.4v-7h1v6.9c0 .6.3 1 1 1v.9c-.6 0-1-.1-1.4-.4zM182.6 90v-.8l2.5-7.1h-2.3v-1h3.4v.9l-2.4 7.1h2.4v1h-3.6zM189.5 90v-.6c-.1.2-.2.3-.4.4-.2.1-.4.2-.8.2-.5 0-.8-.1-1.1-.5-.2-.3-.4-.8-.4-1.4 0-.6.2-1.1.6-1.4.3-.3.7-.4 1.4-.4h.7v-1c0-.6-.3-.9-.8-.9-.2 0-.4.1-.5.2-.2.2-.2.4-.2.7h-1c0-.5.1-1 .5-1.4.3-.3.7-.5 1.2-.5s1 .1 1.2.4c.3.3.5.8.5 1.4V90h-.9zm0-2.9h-.6c-.3 0-.5 0-.7.2-.2.2-.3.5-.3.9 0 .7.3 1.1.8 1.1s.8-.4.8-1v-1.2zM192.3 82.4c-.4 0-.7-.3-.7-.7s.3-.7.7-.7c.4 0 .7.3.7.7s-.3.7-.7.7zm-.5 7.6v-6.4h1V90h-1zM196.8 90v-4.7c0-.6-.3-.9-.8-.9-.4 0-.8.3-.8.9V90h-1v-6.4h1v.5l.4-.4c.2-.1.4-.2.7-.2.5 0 .8.2 1.1.5.3.3.4.6.4 1.3V90h-1zM97.5 114.7l-2.3-6L94 111v3.7h-1.6v-13.2H94v6.7l3.2-6.7h1.6l-2.7 5.5 3.1 7.8h-1.7zM104.2 114.7v-.7c-.1.2-.4.5-.6.6-.3.2-.6.3-1 .3-.7 0-1.2-.2-1.6-.7-.4-.4-.6-.9-.6-2v-7.1h1.5v7.1c0 .9.5 1.3 1.2 1.3.6 0 1.1-.4 1.1-1.3v-7.1h1.5v9.6h-1.5zM111.5 114.7v-7.1c0-.9-.5-1.3-1.2-1.3-.6 0-1.1.4-1.1 1.3v7.1h-1.5v-9.6h1.4v.7c.1-.2.4-.5.6-.6.3-.2.6-.3 1-.3.7 0 1.2.2 1.6.7.4.4.6.9.6 2v7.1h-1.4zM119.4 114.2c-.4.5-1.1.7-1.9.7-.8 0-1.5-.2-2-.9-.6-.8-.7-2.1-.7-4.1 0-1.9.1-3.3.7-4.1.5-.6 1.2-.9 2-.9s1.4.1 1.9.6c.6.6.7 1.4.8 2.2h-1.5c0-.4 0-.8-.3-1.1-.2-.2-.5-.4-.8-.4-.4 0-.7.1-.9.4-.4.5-.4 1.5-.4 3.2 0 1.7 0 2.7.4 3.2.2.3.5.4.9.4s.6-.1.8-.4c.3-.3.3-.7.3-1.1h1.5c-.1 1.1-.3 1.8-.8 2.3zM122.5 103.3c-.6 0-1-.4-1-1s.4-1 1-1 1 .4 1 1-.4 1-1 1zm-.7 11.4v-9.6h1.5v9.6h-1.5zM134 114.1c-.5.5-1.3.8-2.3.8-1 0-1.8-.3-2.3-.8-.6-.6-.8-1.4-.8-2.8h1.6c0 .9.1 1.4.4 1.7.2.2.6.4 1.1.4.5 0 .9-.2 1.1-.4.4-.4.4-.9.4-1.8 0-1.5-.2-2-1.3-2.4l-1.5-.6c-1.4-.6-1.8-1.3-1.8-3.3 0-1.2.3-2.1 1-2.7.5-.5 1.2-.8 2.1-.8 1 0 1.7.3 2.2.8.7.6.9 1.5.9 2.7h-1.6c0-.7-.1-1.2-.4-1.6-.2-.3-.6-.4-1.1-.4-.5 0-.8.2-1 .4-.3.4-.5.9-.5 1.6 0 1.3.2 1.7 1.3 2.1l1.5.6c1.5.6 1.9 1.5 1.9 3.6-.1 1.4-.3 2.2-.9 2.9zM139.2 116.3c-.4 1.7-1.6 2.1-3.2 2.1V117c.9 0 1.5-.2 1.7-1.1l.3-1.2-2.3-9.6h1.7l1.5 7.2 1.4-7.2h1.7l-2.8 11.2zM146.8 114.7v-.7c-.1.2-.4.5-.6.6-.3.2-.6.3-1 .3-.7 0-1.2-.2-1.6-.7-.4-.4-.6-.9-.6-2v-7.1h1.5v7.1c0 .9.5 1.3 1.2 1.3.6 0 1.1-.4 1.1-1.3v-7.1h1.5v9.6h-1.5zM153.6 106.4c-1 0-1.7.7-1.7 1.8v6.6h-1.5v-9.6h1.4v1c.1-.3.4-.5.7-.7.4-.3 1-.5 1.6-.5v1.4h-.5zM159.6 117.7c-.4.5-1.2.7-1.9.7s-1.4-.2-1.9-.7c-.5-.5-.7-1.2-.7-2.1h1.5c0 .5.1.9.3 1.2.2.2.5.3.8.3.4 0 .6-.1.8-.4.3-.3.4-.8.4-1.7v-1.4c-.1.2-.4.4-.5.6-.3.2-.6.3-1 .3-.7 0-1.2-.2-1.6-.7-.6-.7-.8-1.8-.8-4s.2-3.4.8-4c.4-.5.8-.7 1.6-.7.4 0 .7.1 1 .3.2.1.4.3.5.5v-.7h1.5v9.9c-.1 1.3-.3 2-.8 2.6zm-.8-10c0-.5-.1-.9-.4-1.1-.2-.2-.5-.3-.8-.3-.4 0-.6.2-.8.4-.4.4-.4 1.4-.4 3s0 2.5.4 3c.2.2.4.4.8.4.3 0 .6-.1.8-.3.2-.2.4-.6.4-1.1v-4zM165.9 114.7v-.9c-.1.3-.4.5-.6.6-.3.2-.6.4-1.1.4-.7 0-1.2-.2-1.7-.7-.4-.4-.6-1.2-.6-2.2 0-.9.3-1.7.9-2.2.5-.4 1-.6 2-.6h1v-1.5c0-.9-.4-1.4-1.1-1.4-.3 0-.6.1-.7.3-.3.3-.4.6-.4 1.1h-1.5c0-.7.2-1.5.7-2 .4-.4 1.1-.7 1.9-.7.8 0 1.4.2 1.9.7.5.5.8 1.1.8 2.1v7h-1.5zm0-4.4h-.9c-.5 0-.8.1-1.1.4-.3.3-.4.8-.4 1.3 0 1 .4 1.6 1.2 1.6.7 0 1.2-.6 1.2-1.5v-1.8zM172.5 114.7v-1.3l3.2-4.8c.6-.9.7-1.4.7-2.4 0-.9-.5-1.3-1.1-1.3s-1.1.4-1.1 1.3v.8h-1.5v-.8c0-1 .3-1.6.7-2 .5-.4 1.2-.7 1.9-.7s1.4.2 1.9.7c.5.4.8 1.1.8 2.1 0 1.3-.3 2-1 3l-2.7 4h3.7v1.4h-5.5zM183.9 114.2c-.5.4-1.2.7-1.9.7s-1.4-.3-1.9-.7c-.5-.5-.7-1.1-.7-2v-5.8c0-1 .3-1.6.7-2 .5-.4 1.2-.7 1.9-.7s1.4.3 1.9.7c.5.5.7 1.1.7 2v5.8c.1.9-.2 1.5-.7 2zm-.7-8c0-.9-.5-1.3-1.2-1.3-.6 0-1.1.4-1.1 1.3v6c0 .9.5 1.3 1.1 1.3.6 0 1.2-.4 1.2-1.3v-6zM188.2 114.7v-9.3l-1.9 1.6v-1.7l1.9-1.6h1.5v11.1h-1.5zM196.8 114.2v2.8h-1.5v-2.8h-3.6v-1.4l3.4-9.8h1.5l-3.3 9.8h2v-3h1.5v3h1v1.4h-1zM25.1 139.5l-2.3-6-1.2 2.3v3.7H20v-13.2h1.6v6.7l3.2-6.7h1.6l-2.7 5.5 3.1 7.8h-1.7zM31.5 139.5v-.9c-.1.3-.4.5-.6.6-.3.2-.6.4-1.1.4-.7 0-1.2-.2-1.7-.7-.4-.4-.6-1.2-.6-2.2 0-.9.3-1.7.9-2.2.5-.4 1-.6 2-.6h1v-1.5c0-.9-.4-1.4-1.1-1.4-.3 0-.6.1-.7.3-.3.3-.4.6-.4 1.1h-1.5c0-.7.2-1.5.7-2 .4-.4 1.1-.7 1.9-.7.8 0 1.4.2 1.9.7.5.5.8 1.1.8 2.1v7h-1.5zm-.1-4.5h-.9c-.5 0-.8.1-1.1.4-.3.3-.4.8-.4 1.3 0 1 .4 1.6 1.2 1.6.7 0 1.2-.6 1.2-1.5V135zM39.3 139c-.4.5-1.1.7-1.9.7-.8 0-1.5-.2-2-.9-.6-.8-.7-2.1-.7-4.1 0-1.9.1-3.3.7-4.1.5-.6 1.2-.9 2-.9s1.4.1 1.9.6c.6.6.7 1.4.8 2.2h-1.5c0-.4 0-.8-.3-1.1-.2-.2-.5-.4-.8-.4-.4 0-.7.1-.9.4-.4.5-.4 1.5-.4 3.2 0 1.7 0 2.7.4 3.2.2.3.5.4.9.4s.6-.1.8-.4c.3-.3.3-.7.3-1.1H40c0 1-.2 1.7-.7 2.3zM45.2 139.5v-.9c-.1.3-.4.5-.6.6-.3.2-.6.4-1.1.4-.7 0-1.2-.2-1.7-.7-.4-.4-.6-1.2-.6-2.2 0-.9.3-1.7.9-2.2.5-.4 1-.6 2-.6h1v-1.5c0-.9-.4-1.4-1.1-1.4-.3 0-.6.1-.7.3-.3.3-.4.6-.4 1.1h-1.5c0-.7.2-1.5.7-2 .4-.4 1.1-.7 1.9-.7.8 0 1.4.2 1.9.7.5.5.8 1.1.8 2.1v7h-1.5zm-.1-4.5h-.9c-.5 0-.8.1-1.1.4-.3.3-.4.8-.4 1.3 0 1 .4 1.6 1.2 1.6.7 0 1.2-.6 1.2-1.5V135zM59 139.5v-9.4l-2.1 6.2h-1l-2.1-6v9.3h-1.6v-13.2h1.5l2.7 7.3 2.7-7.3h1.5v13.2H59zM66.3 139.5v-.9c-.1.3-.4.5-.6.6-.3.2-.6.4-1.1.4-.7 0-1.2-.2-1.7-.7-.4-.4-.6-1.2-.6-2.2 0-.9.3-1.7.9-2.2.5-.4 1-.6 2-.6h1v-1.5c0-.9-.4-1.4-1.1-1.4-.3 0-.6.1-.7.3-.3.3-.4.6-.4 1.1h-1.5c0-.7.2-1.5.7-2 .4-.4 1.1-.7 1.9-.7.8 0 1.4.2 1.9.7.5.5.8 1.1.8 2.1v7h-1.5zm-.1-4.5h-.9c-.5 0-.8.1-1.1.4-.3.3-.4.8-.4 1.3 0 1 .4 1.6 1.2 1.6.7 0 1.2-.6 1.2-1.5V135zM71 138.9c-.5-.4-.8-1.2-.8-2.2V131H69v-1.2h1.1v-2.6h1.5v2.6h1.5v1.2h-1.5v5.6c0 1 .5 1.4 1.5 1.4v1.4c-.8.1-1.5 0-2.1-.5zM78.1 139.5v-.9c-.1.3-.4.5-.6.6-.3.2-.6.4-1.1.4-.7 0-1.2-.2-1.7-.7-.4-.4-.6-1.2-.6-2.2 0-.9.3-1.7.9-2.2.5-.4 1-.6 2-.6h1v-1.5c0-.9-.4-1.4-1.1-1.4-.3 0-.6.1-.7.3-.3.3-.4.6-.4 1.1h-1.5c0-.7.2-1.5.7-2 .4-.4 1.1-.7 1.9-.7.8 0 1.4.2 1.9.7.5.5.8 1.1.8 2.1v7h-1.5zM78 135h-.9c-.5 0-.8.1-1.1.4-.3.3-.4.8-.4 1.3 0 1 .4 1.6 1.2 1.6.7 0 1.2-.6 1.2-1.5V135zM90.1 138.9c-.5.5-1.2.7-2 .7-1.1 0-1.8-.4-2.3-.9-.9-1-1-2.5-1-5.8s.1-4.8 1-5.8c.5-.6 1.2-.9 2.3-.9.9 0 1.6.3 2.1.8.6.6.9 1.5.9 2.6h-1.6c0-.6-.1-1.2-.4-1.5-.2-.3-.5-.5-1-.5s-.9.2-1.1.5c-.5.6-.6 1.7-.6 4.8 0 3.1.1 4.2.6 4.8.2.3.6.5 1.1.5.5 0 .8-.2 1-.5.3-.4.4-.9.4-1.5h1.6c0 1.1-.3 2.1-1 2.7zM93.6 128.1c-.6 0-1-.4-1-1s.4-1 1-1 1 .4 1 1-.4 1-1 1zm-.7 11.4v-9.6h1.5v9.6h-1.5zM100.3 139.5v-7.1c0-.9-.5-1.3-1.2-1.3-.6 0-1.1.4-1.1 1.3v7.1h-1.5v-9.6h1.4v.7c.1-.2.4-.5.6-.6.3-.2.6-.3 1-.3.7 0 1.2.2 1.6.7.4.4.6.9.6 2v7.1h-1.4zM105 138.9c-.5-.4-.8-1.2-.8-2.2V131h-1.1v-1.2h1.1v-2.6h1.5v2.6h1.5v1.2h-1.5v5.6c0 1 .5 1.4 1.5 1.4v1.4c-.8.1-1.6 0-2.2-.5zM112.1 139.5v-.9c-.1.3-.4.5-.6.6-.3.2-.6.4-1.1.4-.7 0-1.2-.2-1.7-.7-.4-.4-.6-1.2-.6-2.2 0-.9.3-1.7.9-2.2.5-.4 1-.6 2-.6h1v-1.5c0-.9-.4-1.4-1.1-1.4-.3 0-.6.1-.7.3-.3.3-.4.6-.4 1.1h-1.5c0-.7.2-1.5.7-2 .4-.4 1.1-.7 1.9-.7.8 0 1.4.2 1.9.7.5.5.8 1.1.8 2.1v7h-1.5zm0-4.5h-.9c-.5 0-.8.1-1.1.4-.3.3-.4.8-.4 1.3 0 1 .4 1.6 1.2 1.6.7 0 1.2-.6 1.2-1.5V135zM118.8 133.8v5.6h-1v-5.6h-.7v-.8h.7v-.6c0-.7.2-1.1.6-1.4.4-.3.9-.4 1.4-.4v.9c-.7 0-1 .3-1 1v.6h1v.8h-1zM121.4 136.5c0 1 0 1.6.3 1.9.1.1.3.3.6.3.2 0 .4-.1.6-.2.1-.2.2-.4.2-.7h1c0 .6-.2 1-.5 1.4-.3.3-.8.5-1.3.5-.6 0-.9-.1-1.3-.5-.5-.5-.6-1.5-.6-2.8 0-1.3.1-2.3.6-2.8.3-.3.8-.5 1.3-.5s.9.1 1.3.5c.5.6.6 1.7.6 3h-2.8zm1.4-2.4c-.1-.1-.3-.3-.6-.3s-.4.1-.6.3c-.2.2-.3.8-.3 1.6h1.6c.1-.8.1-1.3-.1-1.6zM127.5 139.5v-.6c-.1.2-.2.3-.4.4-.2.1-.4.2-.8.2-.5 0-.8-.1-1.1-.5-.2-.3-.4-.8-.4-1.4 0-.6.2-1.1.6-1.4.3-.3.7-.4 1.4-.4h.7v-1c0-.6-.3-.9-.8-.9-.2 0-.4.1-.5.2-.2.2-.2.4-.2.7h-1c0-.5.1-1 .5-1.4.3-.3.7-.5 1.2-.5s1 .1 1.2.4c.3.3.5.8.5 1.4v4.7h-.9zm0-3h-.6c-.3 0-.5 0-.7.2-.2.2-.3.5-.3.9 0 .7.3 1.1.8 1.1s.8-.4.8-1v-1.2zM130.6 139.1c-.4-.3-.6-.8-.6-1.4v-3.8h-.7v-.8h.7v-1.8h1v1.8h1v.8h-1v3.8c0 .7.4 1 1 1v.9c-.5-.1-1-.2-1.4-.5zM135.5 139.5v-.5l-.4.4c-.2.1-.4.2-.7.2-.5 0-.8-.2-1.1-.5-.3-.3-.4-.6-.4-1.3v-4.7h1v4.7c0 .6.3.9.8.9s.8-.3.8-.9v-4.7h1v6.4h-1zM140.1 133.9c-.7 0-1.2.4-1.2 1.2v4.4h-1v-6.4h1v.7c.1-.2.3-.3.4-.5.3-.2.6-.3 1.1-.3v1h-.3zM141.8 131.9c-.4 0-.7-.3-.7-.7s.3-.7.7-.7c.4 0 .7.3.7.7s-.3.7-.7.7zm-.5 7.6v-6.4h1v6.4h-1zM146.2 139.5v-4.7c0-.6-.3-.9-.8-.9-.4 0-.8.3-.8.9v4.7h-1v-6.4h1v.5l.4-.4c.2-.1.4-.2.7-.2.5 0 .8.2 1.1.5.3.3.4.6.4 1.3v4.7h-1zM151.4 141.4c-.3.3-.8.5-1.3.5s-1-.1-1.3-.5c-.4-.4-.5-.8-.5-1.4h1c0 .3 0 .6.2.8.1.1.3.2.5.2s.4-.1.5-.2c.2-.2.2-.5.2-1.1v-1c-.1.1-.2.3-.4.4-.2.1-.4.2-.7.2-.5 0-.8-.1-1.1-.5-.4-.5-.5-1.2-.5-2.7 0-1.5.1-2.2.5-2.7.3-.3.6-.5 1.1-.5.3 0 .5.1.7.2.1.1.3.2.4.4v-.5h1v6.6c.3 1 .1 1.5-.3 1.8zm-.4-6.6c0-.3-.1-.6-.2-.7-.1-.1-.3-.2-.5-.2s-.4.1-.5.3c-.2.3-.3.9-.3 2s0 1.7.3 2c.1.2.3.3.5.3s.4-.1.5-.2c.1-.2.2-.4.2-.7v-2.8zM155.3 139.5v-.8l2.5-7.1h-2.3v-1h3.4v.8l-2.4 7.1h2.4v1h-3.6zM162.3 139.5v-.6c-.1.2-.2.3-.4.4-.2.1-.4.2-.8.2-.5 0-.8-.1-1.1-.5-.2-.3-.4-.8-.4-1.4 0-.6.2-1.1.6-1.4.3-.3.7-.4 1.4-.4h.7v-1c0-.6-.3-.9-.8-.9-.2 0-.4.1-.5.2-.2.2-.2.4-.2.7h-1c0-.5.1-1 .5-1.4.3-.3.7-.5 1.2-.5s1 .1 1.2.4c.3.3.5.8.5 1.4v4.7h-.9zm0-3h-.6c-.3 0-.5 0-.7.2-.2.2-.3.5-.3.9 0 .7.3 1.1.8 1.1s.8-.4.8-1v-1.2zM165.1 131.9c-.4 0-.7-.3-.7-.7s.3-.7.7-.7c.4 0 .7.3.7.7s-.3.7-.7.7zm-.5 7.6v-6.4h1v6.4h-1zM169.6 139.5v-4.7c0-.6-.3-.9-.8-.9-.4 0-.8.3-.8.9v4.7h-1v-6.4h1v.5l.4-.4c.2-.1.4-.2.7-.2.5 0 .8.2 1.1.5.3.3.4.6.4 1.3v4.7h-1zM177.3 139.5v-4h-2v4h-1.1v-8.8h1.1v3.8h2v-3.8h1.1v8.8h-1.1zM182.2 139.5v-.6c-.1.2-.2.3-.4.4-.2.1-.4.2-.8.2-.5 0-.8-.1-1.1-.5-.2-.3-.4-.8-.4-1.4 0-.6.2-1.1.6-1.4.3-.3.7-.4 1.4-.4h.7v-1c0-.6-.3-.9-.8-.9-.2 0-.4.1-.5.2-.2.2-.2.4-.2.7h-1c0-.5.1-1 .5-1.4.3-.3.7-.5 1.2-.5s1 .1 1.2.4c.3.3.5.8.5 1.4v4.7h-.9zm0-3h-.6c-.3 0-.5 0-.7.2-.2.2-.3.5-.3.9 0 .7.3 1.1.8 1.1s.8-.4.8-1v-1.2zM189.6 139.5v-4.7c0-.6-.3-.9-.8-.9-.4 0-.8.3-.8.9v4.7h-1v-4.7c0-.6-.3-.9-.8-.9-.4 0-.8.3-.8.9v4.7h-1v-6.4h1v.5l.4-.4c.2-.1.4-.2.7-.2.5 0 1 .3 1.2.7.1-.2.3-.4.5-.5.2-.1.5-.2.7-.2.6 0 .9.2 1.2.5.3.3.4.6.4 1.3v4.7h-.9zM192.4 131.9c-.4 0-.7-.3-.7-.7s.3-.7.7-.7.7.3.7.7-.3.7-.7.7zm-.5 7.6v-6.4h1v6.4h-1zM196.7 139.5v-.5l-.4.4c-.2.1-.4.2-.7.2-.4 0-.8-.1-1.1-.5-.4-.5-.5-1.3-.5-2.8 0-1.5.1-2.4.5-2.8.3-.3.6-.5 1.1-.5.3 0 .5.1.7.2.1.1.3.2.4.4v-2.8h1v8.8h-1zm0-4.7c0-.3-.1-.6-.3-.7-.1-.1-.3-.2-.5-.2s-.4.1-.5.3c-.2.3-.3 1-.3 2.1s0 1.8.3 2.1c.1.2.3.3.5.3s.4 0 .5-.2c.2-.2.3-.4.3-.8v-2.9zM35.3 158.7h-1.4v5.5h-1.6V151h3c2 0 3.1.9 3.1 3.8 0 2.7-1 3.9-3.1 3.9zm0-6.3h-1.4v4.9h1.4c1.2 0 1.5-1 1.5-2.4 0-1.5-.3-2.5-1.5-2.5zM41.1 159.7c0 1.5.1 2.4.4 2.8.2.2.4.4.8.4s.6-.1.9-.4c.2-.2.3-.6.3-1.1H45c0 .9-.2 1.6-.8 2.1-.5.5-1.2.7-1.9.7-.8 0-1.4-.2-1.9-.7-.7-.8-.9-2.2-.9-4.2s.1-3.5.8-4.2c.5-.5 1.1-.7 1.9-.7.8 0 1.4.2 1.9.7.8.9.8 2.5.8 4.6h-3.8zm2.1-3.5c-.2-.2-.5-.4-.9-.4s-.6.2-.8.4c-.3.4-.4 1.1-.4 2.4h2.4c.1-1.3 0-2.1-.3-2.4zM50.6 164.2v-7.1c0-.9-.5-1.3-1.2-1.3-.6 0-1.1.4-1.1 1.3v7.1h-1.5v-9.6h1.4v.7c.1-.2.4-.5.6-.6.3-.2.6-.3 1-.3.7 0 1.2.2 1.6.7.4.4.6.9.6 2v7.1h-1.4zM58.4 167.1c-.4.5-1.2.7-1.9.7s-1.4-.2-1.9-.7c-.5-.5-.7-1.2-.7-2.1h1.5c0 .5.1.9.3 1.2.2.2.5.3.8.3.4 0 .6-.1.8-.4.3-.3.4-.8.4-1.7V163c-.1.2-.4.4-.5.6-.3.2-.6.3-1 .3-.7 0-1.2-.2-1.6-.7-.6-.7-.8-1.8-.8-4s.2-3.4.8-4c.4-.5.8-.7 1.6-.7.4 0 .7.1 1 .3.2.1.4.3.5.5v-.7h1.5v9.9c0 1.3-.2 2.1-.8 2.6zm-.7-9.9c0-.5-.1-.9-.4-1.1-.2-.2-.5-.3-.8-.3-.4 0-.6.2-.8.4-.4.4-.4 1.4-.4 3s0 2.5.4 3c.2.2.4.4.8.4.3 0 .6-.1.8-.3.2-.2.4-.6.4-1.1v-4zM64.8 164.2v-.9c-.1.3-.4.5-.6.6-.3.2-.6.4-1.1.4-.7 0-1.2-.2-1.7-.7-.4-.4-.6-1.2-.6-2.2 0-.9.3-1.7.9-2.2.5-.4 1-.6 2-.6h1v-1.5c0-.9-.4-1.4-1.1-1.4-.3 0-.6.1-.7.3-.3.3-.4.6-.4 1.1H61c0-.7.2-1.5.7-2 .4-.4 1.1-.7 1.9-.7.8 0 1.4.2 1.9.7.5.5.8 1.1.8 2.1v7h-1.5zm-.1-4.5h-.9c-.5 0-.8.1-1.1.4-.3.3-.4.8-.4 1.3 0 1 .4 1.6 1.2 1.6.7 0 1.2-.6 1.2-1.5v-1.8zM72.7 164.2l-1.8-4.5-1 1.7v2.9h-1.5V151h1.5v8.2l2.7-4.6h1.6l-2.3 3.7 2.6 5.9h-1.8zM79.4 164.2v-.7c-.1.2-.4.5-.6.6-.3.2-.6.3-1 .3-.7 0-1.2-.2-1.6-.7-.4-.4-.6-.9-.6-2v-7.1H77v7.1c0 .9.5 1.3 1.2 1.3.6 0 1.1-.4 1.1-1.3v-7.1h1.5v9.6h-1.4zM86.4 164.2v-.9c-.1.3-.4.5-.6.6-.3.2-.6.4-1.1.4-.7 0-1.2-.2-1.7-.7-.4-.4-.6-1.2-.6-2.2 0-.9.3-1.7.9-2.2.5-.4 1-.6 2-.6h1v-1.5c0-.9-.4-1.4-1.1-1.4-.3 0-.6.1-.7.3-.3.3-.4.6-.4 1.1h-1.5c0-.7.2-1.5.7-2 .4-.4 1.1-.7 1.9-.7.8 0 1.4.2 1.9.7.5.5.8 1.1.8 2.1v7h-1.5zm-.1-4.5h-.9c-.5 0-.8.1-1.1.4-.3.3-.4.8-.4 1.3 0 1 .4 1.6 1.2 1.6.7 0 1.2-.6 1.2-1.5v-1.8zM93.7 164.2v-7.1c0-.9-.5-1.3-1.2-1.3-.6 0-1.1.4-1.1 1.3v7.1h-1.5v-9.6h1.4v.7c.1-.2.4-.5.6-.6.3-.2.6-.3 1-.3.7 0 1.2.2 1.6.7.4.4.6.9.6 2v7.1h-1.4zM105.8 163.6c-.5.5-1.2.7-2 .7-1.1 0-1.8-.4-2.3-.9-.9-1-1-2.5-1-5.8s.1-4.8 1-5.8c.5-.6 1.2-.9 2.3-.9.9 0 1.6.3 2.1.8.6.6.9 1.5.9 2.6h-1.6c0-.6-.1-1.2-.4-1.5-.2-.3-.5-.5-1-.5s-.9.2-1.1.5c-.5.6-.6 1.7-.6 4.8 0 3.1.1 4.2.6 4.8.2.3.6.5 1.1.5.5 0 .8-.2 1-.5.3-.4.4-.9.4-1.5h1.6c0 1.1-.4 2.1-1 2.7zM109.3 152.8c-.6 0-1-.4-1-1s.4-1 1-1 1 .4 1 1c0 .5-.5 1-1 1zm-.8 11.4v-9.6h1.5v9.6h-1.5zM115.9 164.2v-7.1c0-.9-.5-1.3-1.2-1.3-.6 0-1.1.4-1.1 1.3v7.1h-1.5v-9.6h1.4v.7c.1-.2.4-.5.6-.6.3-.2.6-.3 1-.3.7 0 1.2.2 1.6.7.4.4.6.9.6 2v7.1h-1.4zM120.6 163.6c-.5-.4-.8-1.2-.8-2.2v-5.7h-1.1v-1.2h1.1v-2.6h1.5v2.6h1.5v1.2h-1.5v5.6c0 1 .5 1.4 1.5 1.4v1.4c-.8.1-1.5 0-2.2-.5zM127.8 164.2v-.9c-.1.3-.4.5-.6.6-.3.2-.6.4-1.1.4-.7 0-1.2-.2-1.7-.7-.4-.4-.6-1.2-.6-2.2 0-.9.3-1.7.9-2.2.5-.4 1-.6 2-.6h1v-1.5c0-.9-.4-1.4-1.1-1.4-.3 0-.6.1-.7.3-.3.3-.4.6-.4 1.1H124c0-.7.2-1.5.7-2 .4-.4 1.1-.7 1.9-.7.8 0 1.4.2 1.9.7.5.5.8 1.1.8 2.1v7h-1.5zm-.1-4.5h-.9c-.5 0-.8.1-1.1.4-.3.3-.4.8-.4 1.3 0 1 .4 1.6 1.2 1.6.7 0 1.2-.6 1.2-1.5v-1.8zM136.3 163.8c-.3.3-.6.5-1.1.5-.3 0-.5-.1-.7-.2l-.4-.4v.5h-1v-8.8h1v2.8c.1-.1.2-.3.4-.4.2-.1.4-.2.7-.2.5 0 .8.2 1.1.5.4.5.5 1.3.5 2.8 0 1.6-.1 2.4-.5 2.9zm-.8-5c-.1-.2-.3-.3-.6-.3-.2 0-.4.1-.5.2-.2.2-.2.4-.2.7v2.9c0 .3.1.6.2.8.1.1.3.2.5.2s.4-.1.6-.3c.2-.3.2-1 .2-2.1.1-1.1 0-1.7-.2-2.1zM139.7 165.2c-.3 1.2-1.1 1.4-2.1 1.4v-.9c.6 0 1-.2 1.2-.7l.2-.8-1.6-6.4h1.1l1 4.8 1-4.8h1.1l-1.9 7.4zM146.7 156.3v7.9h-1.1v-7.9h-1.5v-1h4v1h-1.4zM151.6 164.2v-4.7c0-.6-.3-.9-.8-.9-.4 0-.8.3-.8.9v4.7h-1v-8.8h1v2.9c.1-.1.2-.3.4-.4.2-.1.4-.2.7-.2.5 0 .8.2 1.1.5.3.3.4.6.4 1.3v4.7h-1zM154.8 161.2c0 1 0 1.6.3 1.9.1.1.3.3.6.3.2 0 .4-.1.6-.2.1-.2.2-.4.2-.7h1c0 .6-.2 1-.5 1.4-.3.3-.8.5-1.3.5-.6 0-.9-.1-1.3-.5-.5-.5-.6-1.5-.6-2.8 0-1.3.1-2.3.6-2.8.3-.3.8-.5 1.3-.5s.9.1 1.3.5c.5.6.6 1.7.6 3h-2.8zm1.4-2.4c-.1-.1-.3-.3-.6-.3s-.4.1-.6.3c-.2.2-.3.8-.3 1.6h1.6c.1-.8.1-1.3-.1-1.6zM161 164.2v-8.8h1.1v8.8H161zM165.9 166.6v-2.8c-.1.1-.2.3-.4.4-.2.1-.4.2-.7.2-.5 0-.8-.2-1.1-.5-.4-.5-.5-1.3-.5-2.8 0-1.5.1-2.4.5-2.8.3-.3.6-.5 1.1-.5.3 0 .5.1.7.2l.4.4v-.5h1v8.8h-1zm0-7.1c0-.3-.1-.6-.3-.7-.1-.1-.3-.2-.5-.2s-.4.1-.5.3c-.2.3-.3 1-.3 2.1 0 1.2 0 1.8.3 2.1.1.2.3.3.5.3s.4 0 .5-.2c.2-.2.3-.4.3-.8v-2.9zM171.4 163.8c-.3.3-.6.5-1.1.5-.3 0-.5-.1-.7-.2l-.4-.4v.5h-1v-8.8h1v2.8c.1-.1.2-.3.4-.4.2-.1.4-.2.7-.2.5 0 .8.2 1.1.5.4.5.5 1.3.5 2.8 0 1.6 0 2.4-.5 2.9zm-.7-5c-.1-.2-.3-.3-.6-.3-.2 0-.4.1-.5.2-.2.2-.2.4-.2.7v2.9c0 .3.1.6.2.8.1.1.3.2.5.2s.4-.1.6-.3c.2-.3.2-1 .2-2.1s0-1.7-.2-2.1zM175.4 164.2v-.6c-.1.2-.2.3-.4.4-.2.1-.4.2-.8.2-.5 0-.8-.1-1.1-.5-.2-.3-.4-.8-.4-1.4 0-.6.2-1.1.6-1.4.3-.3.7-.4 1.4-.4h.7v-1c0-.6-.3-.9-.8-.9-.2 0-.4.1-.5.2-.2.2-.2.4-.2.7h-1c0-.5.1-1 .5-1.4.3-.3.7-.5 1.2-.5s1 .1 1.2.4c.3.3.5.8.5 1.4v4.7h-.9zm0-3h-.6c-.3 0-.5 0-.7.2-.2.2-.3.5-.3.9 0 .7.3 1.1.8 1.1s.8-.4.8-1v-1.2zM178.3 163.8c-.3-.3-.6-.7-.6-1.4v-7h1v6.9c0 .6.3 1 1 1v.9c-.6 0-1-.1-1.4-.4zM182.6 164.2v-.8l2.5-7.1h-2.3v-1h3.4v.8l-2.4 7.1h2.4v1h-3.6zM189.5 164.2v-.6c-.1.2-.2.3-.4.4-.2.1-.4.2-.8.2-.5 0-.8-.1-1.1-.5-.2-.3-.4-.8-.4-1.4 0-.6.2-1.1.6-1.4.3-.3.7-.4 1.4-.4h.7v-1c0-.6-.3-.9-.8-.9-.2 0-.4.1-.5.2-.2.2-.2.4-.2.7h-1c0-.5.1-1 .5-1.4.3-.3.7-.5 1.2-.5s1 .1 1.2.4c.3.3.5.8.5 1.4v4.7h-.9zm0-3h-.6c-.3 0-.5 0-.7.2-.2.2-.3.5-.3.9 0 .7.3 1.1.8 1.1s.8-.4.8-1v-1.2zM192.3 156.6c-.4 0-.7-.3-.7-.7 0-.4.3-.7.7-.7.4 0 .7.3.7.7 0 .4-.3.7-.7.7zm-.5 7.6v-6.4h1v6.4h-1zM196.8 164.2v-4.7c0-.6-.3-.9-.8-.9-.4 0-.8.3-.8.9v4.7h-1v-6.4h1v.5l.4-.4c.2-.1.4-.2.7-.2.5 0 .8.2 1.1.5.3.3.4.6.4 1.3v4.7h-1zM73.6 188.2c-.5.5-1.3.8-2.3.8-1 0-1.8-.3-2.3-.8-.6-.6-.8-1.4-.8-2.8h1.6c0 .9.1 1.4.4 1.7.2.2.6.4 1.1.4.5 0 .9-.2 1.1-.4.4-.4.4-.9.4-1.8 0-1.5-.2-2-1.3-2.4l-1.5-.6c-1.4-.6-1.8-1.3-1.8-3.3 0-1.2.3-2.1 1-2.7.5-.5 1.2-.8 2.1-.8 1 0 1.7.3 2.2.8.7.6.9 1.5.9 2.7h-1.6c0-.7-.1-1.2-.4-1.6-.2-.3-.6-.4-1.1-.4-.5 0-.8.2-1 .4-.3.4-.5.9-.5 1.6 0 1.3.2 1.7 1.3 2.1l1.5.6c1.5.6 1.9 1.5 1.9 3.6-.1 1.4-.3 2.3-.9 2.9zM77.4 184.5c0 1.5.1 2.4.4 2.8.2.2.4.4.8.4s.6-.1.9-.4c.2-.2.3-.6.3-1.1h1.5c0 .9-.2 1.6-.8 2.1-.5.5-1.2.7-1.9.7-.8 0-1.4-.2-1.9-.7-.7-.8-.9-2.2-.9-4.2s.1-3.5.8-4.2c.5-.5 1.1-.7 1.9-.7.8 0 1.4.2 1.9.7.8.9.8 2.5.8 4.6h-3.8zm2.1-3.6c-.2-.2-.5-.4-.9-.4s-.6.2-.8.4c-.3.4-.4 1.1-.4 2.4h2.4c.1-1.3 0-2-.3-2.4zM87.4 191.8c-.4.5-1.2.7-1.9.7s-1.4-.2-1.9-.7c-.5-.5-.7-1.2-.7-2.1h1.5c0 .5.1.9.3 1.2.2.2.5.3.8.3.4 0 .6-.1.8-.4.3-.3.4-.8.4-1.7v-1.4c-.1.2-.4.4-.5.6-.3.2-.6.3-1 .3-.7 0-1.2-.2-1.6-.7-.6-.7-.8-1.8-.8-4s.2-3.4.8-4c.4-.5.8-.7 1.6-.7.4 0 .7.1 1 .3.2.1.4.3.5.5v-.7h1.5v9.9c0 1.4-.3 2.1-.8 2.6zm-.7-9.9c0-.5-.1-.9-.4-1.1-.2-.2-.5-.3-.8-.3-.4 0-.6.2-.8.4-.4.4-.4 1.4-.4 3s0 2.5.4 3c.2.2.4.4.8.4.3 0 .6-.1.8-.3.2-.2.4-.6.4-1.1v-4zM93.8 188.9v-.9c-.1.3-.4.5-.6.6-.3.2-.6.4-1.1.4-.7 0-1.2-.2-1.7-.7-.4-.4-.6-1.2-.6-2.2 0-.9.3-1.7.9-2.2.5-.4 1-.6 2-.6h1v-1.5c0-.9-.4-1.4-1.1-1.4-.3 0-.6.1-.7.3-.3.3-.4.6-.4 1.1H90c0-.7.2-1.5.7-2 .4-.4 1.1-.7 1.9-.7.8 0 1.4.2 1.9.7.5.5.8 1.1.8 2.1v7h-1.5zm-.1-4.4h-.9c-.5 0-.8.1-1.1.4-.3.3-.4.8-.4 1.3 0 1 .4 1.6 1.2 1.6.7 0 1.2-.6 1.2-1.5v-1.8zM98 188.3c-.5-.4-.9-1.1-.9-2.2v-10.5h1.5V186c0 .9.4 1.4 1.4 1.4v1.4c-.7.1-1.4 0-2-.5zM105 188.9v-.9c-.1.3-.4.5-.6.6-.3.2-.6.4-1.1.4-.7 0-1.2-.2-1.7-.7-.4-.4-.6-1.2-.6-2.2 0-.9.3-1.7.9-2.2.5-.4 1-.6 2-.6h1v-1.5c0-.9-.4-1.4-1.1-1.4-.3 0-.6.1-.7.3-.3.3-.4.6-.4 1.1h-1.5c0-.7.2-1.5.7-2 .4-.4 1.1-.7 1.9-.7.8 0 1.4.2 1.9.7.5.5.8 1.1.8 2.1v7H105zm-.1-4.4h-.9c-.5 0-.8.1-1.1.4-.3.3-.4.8-.4 1.3 0 1 .4 1.6 1.2 1.6.7 0 1.2-.6 1.2-1.5v-1.8zM112.2 188.9v-7.1c0-.9-.5-1.3-1.2-1.3-.6 0-1.1.4-1.1 1.3v7.1h-1.5v-9.6h1.4v.7c.1-.2.4-.5.6-.6.3-.2.6-.3 1-.3.7 0 1.2.2 1.6.7.4.4.6.9.6 2v7.1h-1.4zM118.3 190.5c-.4 1.7-1.6 2.1-3.2 2.1v-1.3c.9 0 1.5-.2 1.7-1.1l.3-1.2-2.3-9.6h1.7l1.5 7.2 1.4-7.2h1.7l-2.8 11.1zM125.7 188.9v-.9c-.1.3-.4.5-.6.6-.3.2-.6.4-1.1.4-.7 0-1.2-.2-1.7-.7-.4-.4-.6-1.2-.6-2.2 0-.9.3-1.7.9-2.2.5-.4 1-.6 2-.6h1v-1.5c0-.9-.4-1.4-1.1-1.4-.3 0-.6.1-.7.3-.3.3-.4.6-.4 1.1h-1.5c0-.7.2-1.5.7-2 .4-.4 1.1-.7 1.9-.7.8 0 1.4.2 1.9.7.5.5.8 1.1.8 2.1v7h-1.5zm-.1-4.4h-.9c-.5 0-.8.1-1.1.4-.3.3-.4.8-.4 1.3 0 1 .4 1.6 1.2 1.6.7 0 1.2-.6 1.2-1.5v-1.8zM137.8 188.9l-2.3-6-1.2 2.3v3.7h-1.6v-13.2h1.6v6.7l3.2-6.7h1.6l-2.7 5.5 3.1 7.8h-1.7zM141.9 184.5c0 1.5.1 2.4.4 2.8.2.2.4.4.8.4s.6-.1.9-.4c.2-.2.3-.6.3-1.1h1.5c0 .9-.2 1.6-.8 2.1-.5.5-1.2.7-1.9.7-.8 0-1.4-.2-1.9-.7-.7-.8-.9-2.2-.9-4.2s.1-3.5.8-4.2c.5-.5 1.1-.7 1.9-.7.8 0 1.4.2 1.9.7.8.9.8 2.5.8 4.6h-3.8zm2.1-3.6c-.2-.2-.5-.4-.9-.4s-.6.2-.8.4c-.3.4-.4 1.1-.4 2.4h2.4c.1-1.3 0-2-.3-2.4zM152.3 188.4c-.4.5-.9.7-1.6.7-.4 0-.7-.1-1-.3-.2-.1-.4-.3-.5-.5v4.3h-1.5v-13.2h1.4v.7c.1-.2.4-.5.6-.6.3-.2.6-.3 1-.3.6 0 1.2.2 1.6.7.6.7.7 2 .7 4.2s-.1 3.5-.7 4.3zm-1.2-7.5c-.2-.3-.5-.4-.8-.4-.3 0-.6.1-.8.3-.2.2-.4.6-.4 1.1v4.4c0 .5.1.9.4 1.1.2.2.5.3.8.3.3 0 .6-.1.8-.4.4-.5.4-1.5.4-3.2 0-1.7 0-2.7-.4-3.2zM158.3 188.9v-.9c-.1.3-.4.5-.6.6-.3.2-.6.4-1.1.4-.7 0-1.2-.2-1.7-.7-.4-.4-.6-1.2-.6-2.2 0-.9.3-1.7.9-2.2.5-.4 1-.6 2-.6h1v-1.5c0-.9-.4-1.4-1.1-1.4-.3 0-.6.1-.7.3-.3.3-.4.6-.4 1.1h-1.5c0-.7.2-1.5.7-2 .4-.4 1.1-.7 1.9-.7.8 0 1.4.2 1.9.7.5.5.8 1.1.8 2.1v7h-1.5zm-.1-4.4h-.9c-.5 0-.8.1-1.1.4-.3.3-.4.8-.4 1.3 0 1 .4 1.6 1.2 1.6.7 0 1.2-.6 1.2-1.5v-1.8zM165.4 188.9v-.7c-.1.2-.4.5-.6.6-.3.2-.6.3-1 .3-.6 0-1.2-.2-1.6-.7-.6-.7-.7-2-.7-4.3 0-2.2.1-3.5.7-4.2.4-.5.9-.7 1.6-.7.4 0 .7.1 1 .3.2.1.4.3.5.5v-4.3h1.5v13.2h-1.4zm-.1-7c0-.5-.1-.9-.4-1.1-.2-.2-.5-.3-.8-.3-.3 0-.6.1-.8.4-.4.5-.4 1.5-.4 3.2 0 1.7 0 2.7.4 3.2.2.3.5.4.8.4.3 0 .6-.1.8-.3.2-.2.4-.6.4-1.1v-4.4zM172.4 188.9v-.9c-.1.3-.4.5-.6.6-.3.2-.6.4-1.1.4-.7 0-1.2-.2-1.7-.7-.4-.4-.6-1.2-.6-2.2 0-.9.3-1.7.9-2.2.5-.4 1-.6 2-.6h1v-1.5c0-.9-.4-1.4-1.1-1.4-.3 0-.6.1-.7.3-.3.3-.4.6-.4 1.1h-1.5c0-.7.2-1.5.7-2 .4-.4 1.1-.7 1.9-.7.8 0 1.4.2 1.9.7.5.5.8 1.1.8 2.1v7h-1.5zm0-4.4h-.9c-.5 0-.8.1-1.1.4-.3.3-.4.8-.4 1.3 0 1 .4 1.6 1.2 1.6.7 0 1.2-.6 1.2-1.5v-1.8zM175.8 184.4V183h3.6v1.4h-3.6zM188.3 188.9v-9.4l-2.1 6.2h-1l-2.1-6v9.3h-1.6v-13.2h1.5l2.7 7.3 2.7-7.3h1.5V189h-1.6zM195.9 188.9v-.7c-.1.2-.4.5-.6.6-.3.2-.6.3-1 .3-.7 0-1.2-.2-1.6-.7-.4-.4-.6-.9-.6-2v-7.1h1.5v7.1c0 .9.5 1.3 1.2 1.3.6 0 1.1-.4 1.1-1.3v-7.1h1.5v9.6h-1.5zM110.9 213.6l-1.8-5.7h-1.4v5.7H106v-13.2h3c2 0 3.1.9 3.1 3.8 0 1.8-.4 2.9-1.6 3.5l2 6h-1.6zm-1.9-11.7h-1.4v4.7h1.4c1.2 0 1.5-.9 1.5-2.4 0-1.4-.2-2.3-1.5-2.3zM115.1 202.2c-.6 0-1-.4-1-1s.4-1 1-1 1 .4 1 1-.4 1-1 1zm-.8 11.4V204h1.5v9.6h-1.5zM121.7 213.6v-7.1c0-.9-.5-1.3-1.2-1.3-.6 0-1.1.4-1.1 1.3v7.1H118V204h1.4v.7c.1-.2.4-.5.6-.6.3-.2.6-.3 1-.3.7 0 1.2.2 1.6.7.4.4.6.9.6 2v7.1h-1.5zM126.5 213c-.5-.4-.8-1.2-.8-2.2v-5.7h-1.1V204h1.1v-2.6h1.5v2.6h1.5v1.2h-1.5v5.6c0 1 .5 1.4 1.5 1.4v1.4c-.9 0-1.6 0-2.2-.6zM130.9 202.2c-.6 0-1-.4-1-1s.4-1 1-1 1 .4 1 1-.5 1-1 1zm-.8 11.4V204h1.5v9.6h-1.5zM137.5 213.6v-7.1c0-.9-.5-1.3-1.2-1.3-.6 0-1.1.4-1.1 1.3v7.1h-1.5v-13.2h1.5v4.3c.1-.2.4-.4.5-.5.3-.2.6-.3 1-.3.7 0 1.2.2 1.6.7.4.4.6.9.6 2v7.1h-1.4zM144.5 213.6v-.9c-.1.3-.4.5-.6.6-.3.2-.6.4-1.1.4-.7 0-1.2-.2-1.7-.7-.4-.4-.6-1.2-.6-2.2 0-.9.3-1.7.9-2.2.5-.4 1-.6 2-.6h1v-1.5c0-.9-.4-1.4-1.1-1.4-.3 0-.6.1-.7.3-.3.3-.4.6-.4 1.1h-1.5c0-.7.2-1.5.7-2 .4-.4 1.1-.7 1.9-.7.8 0 1.4.2 1.9.7.5.5.8 1.1.8 2.1v7h-1.5zm0-4.4h-.9c-.5 0-.8.1-1.1.4-.3.3-.4.8-.4 1.3 0 1 .4 1.6 1.2 1.6.7 0 1.2-.6 1.2-1.5v-1.8zM151.8 213.6v-7.1c0-.9-.5-1.3-1.2-1.3-.6 0-1.1.4-1.1 1.3v7.1H148V204h1.4v.7c.1-.2.4-.5.6-.6.3-.2.6-.3 1-.3.7 0 1.2.2 1.6.7.4.4.6.9.6 2v7.1h-1.4zM163.5 213.6v-6h-2.9v6H159v-13.2h1.6v5.8h2.9v-5.8h1.6v13.2h-1.6zM170.8 213.6v-.9c-.1.3-.4.5-.6.6-.3.2-.6.4-1.1.4-.7 0-1.2-.2-1.7-.7-.4-.4-.6-1.2-.6-2.2 0-.9.3-1.7.9-2.2.5-.4 1-.6 2-.6h1v-1.5c0-.9-.4-1.4-1.1-1.4-.3 0-.6.1-.7.3-.3.3-.4.6-.4 1.1H167c0-.7.2-1.5.7-2 .4-.4 1.1-.7 1.9-.7.8 0 1.4.2 1.9.7.5.5.8 1.1.8 2.1v7h-1.5zm-.1-4.4h-.9c-.5 0-.8.1-1.1.4-.3.3-.4.8-.4 1.3 0 1 .4 1.6 1.2 1.6.7 0 1.2-.6 1.2-1.5v-1.8zM181.8 213.6v-7.1c0-.9-.5-1.3-1.1-1.3-.6 0-1.1.4-1.1 1.3v7.1H178v-7.1c0-.9-.5-1.3-1.2-1.3-.6 0-1.1.4-1.1 1.3v7.1h-1.5V204h1.4v.7c.1-.2.4-.5.6-.6.3-.2.6-.3 1-.3.7 0 1.4.4 1.8 1 .2-.3.5-.5.8-.7.3-.2.7-.3 1.1-.3.8 0 1.3.2 1.7.7.4.4.6.9.6 2v7.1h-1.4zM190 213.1c-.4.5-.9.7-1.6.7-.4 0-.7-.1-1-.3-.2-.1-.5-.4-.6-.6v.7h-1.4v-13.2h1.5v4.3c.1-.2.4-.4.5-.5.3-.2.6-.3 1-.3.7 0 1.2.2 1.6.7.6.7.7 2 .7 4.2 0 2.3-.1 3.6-.7 4.3zm-1.2-7.5c-.2-.3-.5-.4-.8-.4-.3 0-.6.1-.8.3-.2.2-.4.6-.4 1.1v4.4c0 .5.1.9.4 1.1.2.2.5.3.8.3.3 0 .6-.1.8-.4.4-.5.4-1.5.4-3.2 0-1.7 0-2.7-.4-3.2zM196 213.6v-.9c-.1.3-.4.5-.6.6-.3.2-.6.4-1.1.4-.7 0-1.2-.2-1.7-.7-.4-.4-.6-1.2-.6-2.2 0-.9.3-1.7.9-2.2.5-.4 1-.6 2-.6h1v-1.5c0-.9-.4-1.4-1.1-1.4-.3 0-.6.1-.7.3-.3.3-.4.6-.4 1.1h-1.5c0-.7.2-1.5.7-2 .4-.4 1.1-.7 1.9-.7.8 0 1.4.2 1.9.7.5.5.8 1.1.8 2.1v7H196zm-.1-4.4h-.9c-.5 0-.8.1-1.1.4-.3.3-.4.8-.4 1.3 0 1 .4 1.6 1.2 1.6.7 0 1.2-.6 1.2-1.5v-1.8z"/></g><g fill="#BF2645"><path d="M210.3 64.8c-.4.3-.9.5-1.5.5s-1.1-.2-1.5-.5c-.4-.4-.6-.8-.6-1.6v-4.5c0-.8.2-1.2.6-1.6.4-.3.9-.5 1.5-.5s1.1.2 1.5.5c.4.4.6.8.6 1.6v4.5c0 .8-.3 1.3-.6 1.6zm-.6-6.2c0-.7-.4-1-.9-1s-.9.3-.9 1v4.6c0 .7.4 1 .9 1s.9-.3.9-1v-4.6zM213.6 65.3V58l-1.5 1.2v-1.4l1.5-1.2h1.2v8.6h-1.2zM209.5 89.6c-.4.3-.9.5-1.5.5s-1.1-.2-1.5-.5c-.4-.4-.6-.8-.6-1.6v-4.5c0-.8.2-1.2.6-1.6.4-.3.9-.5 1.5-.5s1.1.2 1.5.5c.4.4.6.8.6 1.6V88c0 .7-.3 1.2-.6 1.6zm-.6-6.2c0-.7-.4-1-.9-1s-.9.3-.9 1V88c0 .7.4 1 .9 1s.9-.3.9-1v-4.6zM211.2 90v-1l2.5-3.7c.5-.7.5-1.1.5-1.9 0-.7-.4-1-.9-1s-.9.3-.9 1v.6h-1.2v-.6c0-.7.2-1.2.6-1.6.4-.3.9-.5 1.5-.5s1.1.2 1.4.5c.4.3.6.8.6 1.6 0 1-.2 1.6-.7 2.3l-2.1 3.1h2.9V90h-4.2zM209.5 114.3c-.4.3-.9.5-1.5.5s-1.1-.2-1.5-.5c-.4-.4-.6-.8-.6-1.6v-4.5c0-.8.2-1.2.6-1.6.4-.3.9-.5 1.5-.5s1.1.2 1.5.5c.4.4.6.8.6 1.6v4.5c0 .8-.2 1.2-.6 1.6zm-.6-6.2c0-.7-.4-1-.9-1s-.9.3-.9 1v4.6c0 .7.4 1 .9 1s.9-.3.9-1v-4.6zM214.7 116c-.3.3-.9.5-1.5.5s-1.1-.2-1.5-.5c-.4-.4-.6-.8-.6-1.6v-.7h1.2v.7c0 .7.4 1 .9 1 .3 0 .5-.1.6-.3.2-.3.3-.8.3-1.7 0-1-.1-1.4-.3-1.7-.1-.2-.4-.3-.6-.3h-.5v-1h.5c.2 0 .4-.1.6-.2.2-.3.3-.7.3-1.5 0-.7 0-1.2-.3-1.4-.1-.2-.3-.2-.6-.2-.5 0-.8.3-.8 1v.7h-1.2v-.7c0-.8.2-1.2.6-1.6.4-.3.9-.5 1.4-.5.6 0 1.1.2 1.4.5.4.4.6 1 .6 2.1 0 .9-.1 1.3-.3 1.7-.1.2-.3.4-.6.6.2.2.4.3.6.6.3.5.3.9.3 2 .1 1.3.1 1.9-.5 2.5zM209.1 139c-.4.3-.9.5-1.5.5s-1.1-.2-1.5-.5c-.4-.4-.6-.8-.6-1.6v-4.5c0-.8.2-1.2.6-1.6.4-.3.9-.5 1.5-.5s1.1.2 1.5.5c.4.4.6.8.6 1.6v4.5c0 .8-.2 1.2-.6 1.6zm-.6-6.2c0-.7-.4-1-.9-1s-.9.3-.9 1v4.6c0 .7.4 1 .9 1s.9-.3.9-1v-4.6zM214.7 139v2.2h-1.2V139h-2.8v-1l2.6-7.6h1.1l-2.6 7.6h1.6v-2.3h1.2v2.3h.8v1.1h-.7zM209.4 163.7c-.4.3-.9.5-1.5.5s-1.1-.2-1.5-.5c-.4-.4-.6-.8-.6-1.6v-4.5c0-.8.2-1.2.6-1.6.4-.3.9-.5 1.5-.5s1.1.2 1.5.5c.4.4.6.8.6 1.6v4.5c-.1.8-.3 1.3-.6 1.6zm-.6-6.2c0-.7-.4-1-.9-1s-.9.3-.9 1v4.6c0 .7.4 1 .9 1s.9-.3.9-1v-4.6zM214.7 165.3c-.3.4-.9.6-1.5.6s-1.1-.2-1.5-.5c-.4-.4-.6-.8-.6-1.6v-.6h1.2v.7c0 .7.4 1.1.9 1.1.3 0 .5-.1.6-.3.2-.3.3-1 .3-2.1s0-1.7-.3-2c-.2-.2-.4-.3-.7-.3-.5 0-.9.4-.9 1v.3h-1.1v-6h4v1.1h-2.9v3.2c.1-.2.3-.4.5-.5.2-.1.5-.2.8-.2.6 0 1 .2 1.3.6.4.5.5 1.3.5 2.8.1 1.3 0 2.1-.6 2.7zM209.4 188.4c-.4.3-.9.5-1.5.5s-1.1-.2-1.5-.5c-.4-.4-.6-.8-.6-1.6v-4.5c0-.8.2-1.2.6-1.6.4-.3.9-.5 1.5-.5s1.1.2 1.5.5c.4.4.6.8.6 1.6v4.5c0 .8-.2 1.3-.6 1.6zm-.6-6.1c0-.7-.4-1-.9-1s-.9.3-.9 1v4.6c0 .7.4 1 .9 1s.9-.3.9-1v-4.6zM214.9 188.3c-.4.5-1 .7-1.6.7-.7 0-1.2-.3-1.6-.7-.4-.5-.5-1.1-.5-2.5 0-1 .1-1.9.4-2.6l1.7-4.6h1.2l-1.7 4.3c.2-.2.5-.2.7-.2.5 0 1 .2 1.3.6.4.4.5.9.5 2.6.1 1.4-.1 1.9-.4 2.4zm-1-4.4c-.2-.2-.4-.3-.6-.3-.2 0-.5.1-.6.3-.3.3-.3 1-.3 1.9 0 .9 0 1.5.3 1.9.2.2.4.3.6.3.3 0 .5-.1.6-.3.3-.3.3-1 .3-1.9 0-.9 0-1.5-.3-1.9zM209.5 213.2c-.4.3-.9.5-1.5.5s-1.1-.2-1.5-.5c-.4-.4-.6-.8-.6-1.6V207c0-.8.2-1.2.6-1.6.4-.3.9-.5 1.5-.5s1.1.2 1.5.5c.4.4.6.8.6 1.6v4.5c0 .9-.2 1.3-.6 1.7zm-.6-6.2c0-.7-.4-1-.9-1s-.9.3-.9 1v4.6c0 .7.4 1 .9 1s.9-.3.9-1V207zM212.8 215.3h-1.2l2.7-9.2h-2v1.5h-1.1V205h4.3v1l-2.7 9.3z"/></g><g fill="#808184"><path d="M263.3 14.9c-.5.5-1.2.9-2.3.9h-3V2.7h3.1c1.1 0 1.8.4 2.3.9.9 1 .9 2.4.9 5.7 0 3.2-.1 4.7-1 5.6zm-1.2-10.3c-.2-.3-.6-.5-1.1-.5h-1.4v10.4h1.4c.5 0 .9-.2 1.1-.5.5-.6.5-1.7.5-4.7.1-3.1 0-4.1-.5-4.7zM267.4 11.4c0 1.5.1 2.4.4 2.8.2.2.4.4.8.4s.6-.1.9-.4c.2-.2.3-.6.3-1.1h1.5c0 .9-.2 1.6-.8 2.1-.5.5-1.1.7-1.9.7-.8 0-1.4-.2-1.9-.7-.7-.8-.9-2.2-.9-4.2s.1-3.5.8-4.2c.5-.5 1.1-.7 1.9-.7.8 0 1.4.2 1.9.7.8.9.8 2.5.8 4.6h-3.8zm2-3.5c-.2-.2-.5-.4-.9-.4s-.6.2-.8.4c-.3.4-.4 1.1-.4 2.4h2.5c0-1.3-.1-2.1-.4-2.4zM276.9 15.9V8.8c0-.9-.5-1.3-1.2-1.3-.6 0-1.1.4-1.1 1.3v7.1h-1.5V6.3h1.4V7c.1-.2.4-.5.6-.6.3-.2.6-.3 1-.3.7 0 1.2.2 1.6.7.4.4.6.9.6 2v7.1h-1.4zM284.7 18.8c-.4.5-1.1.7-1.9.7-.7 0-1.4-.2-1.9-.7-.5-.5-.7-1.2-.7-2.1h1.5c0 .5.1.9.3 1.2.2.2.5.3.8.3.4 0 .6-.1.8-.4.3-.3.4-.8.4-1.7v-1.4c-.1.2-.4.4-.5.6-.3.2-.6.3-1 .3-.7 0-1.2-.2-1.6-.7-.6-.7-.8-1.8-.8-4s.2-3.4.8-4c.4-.5.8-.7 1.6-.7.4 0 .7.1 1 .3.2.1.4.3.5.5v-.7h1.5v9.9c0 1.3-.3 2.1-.8 2.6zm-.7-9.9c0-.5-.1-.9-.4-1.1-.2-.2-.5-.3-.8-.3-.4 0-.6.2-.8.4-.4.4-.4 1.4-.4 3s0 2.5.4 3c.2.2.4.4.8.4.3 0 .6-.1.8-.3.2-.2.4-.6.4-1.1v-4zM291.1 15.9V15c-.1.3-.4.5-.6.6-.3.2-.6.4-1.1.4-.7 0-1.2-.2-1.7-.7-.4-.4-.6-1.2-.6-2.2 0-.9.3-1.7.9-2.2.5-.4 1-.6 2-.6h1V8.8c0-.9-.4-1.4-1.1-1.4-.3 0-.6.1-.7.3-.3.3-.4.6-.4 1.1h-1.5c0-.7.2-1.5.7-2 .4-.4 1.1-.7 1.9-.7.8 0 1.4.2 1.9.7.5.5.8 1.1.8 2.1v7h-1.5zm-.1-4.5h-.9c-.5 0-.8.1-1.1.4-.3.3-.4.8-.4 1.3 0 1 .4 1.6 1.2 1.6.7 0 1.2-.6 1.2-1.5v-1.8zM298.3 15.9V8.8c0-.9-.5-1.3-1.2-1.3-.6 0-1.1.4-1.1 1.3v7.1h-1.5V6.3h1.4V7c.1-.2.4-.5.6-.6.3-.2.6-.3 1-.3.7 0 1.2.2 1.6.7.4.4.6.9.6 2v7.1h-1.4zM304.9 15.9v-1.3l3.2-4.8c.6-.9.7-1.4.7-2.4 0-.9-.5-1.3-1.1-1.3-.6 0-1.1.4-1.1 1.3v.8H305v-.7c0-1 .3-1.6.7-2 .5-.4 1.2-.7 1.9-.7s1.4.2 1.9.7c.5.4.8 1.1.8 2.1 0 1.3-.3 2-1 3l-2.7 4h3.7V16h-5.4zM316.4 15.3c-.5.4-1.2.7-1.9.7s-1.4-.3-1.9-.7c-.5-.5-.7-1.1-.7-2V7.4c0-1 .3-1.6.7-2 .5-.4 1.2-.7 1.9-.7s1.4.3 1.9.7c.5.5.7 1.1.7 2v5.8c0 1.1-.3 1.7-.7 2.1zm-.8-7.9c0-.9-.5-1.3-1.2-1.3-.6 0-1.1.4-1.1 1.3v6c0 .9.5 1.3 1.1 1.3.6 0 1.2-.4 1.2-1.3v-6zM320.6 15.9V6.6l-1.9 1.6V6.4l1.9-1.6h1.5v11.1h-1.5zM329.3 15.3v2.8h-1.5v-2.8h-3.6V14l3.4-9.8h1.5l-3.3 9.8h2v-3h1.5v3h1v1.4h-1zM335.1 10.2v5.6h-1v-5.6h-.7v-.7h.7v-.7c0-.7.2-1.1.6-1.4.4-.3.9-.4 1.4-.4v.9c-.7 0-1 .3-1 1v.6h1v.8h-1zM337.7 12.9c0 1 0 1.6.3 1.9.1.1.3.3.6.3.2 0 .4-.1.6-.2.1-.2.2-.4.2-.7h1c0 .6-.2 1-.5 1.4-.3.3-.8.5-1.3.5-.6 0-.9-.1-1.3-.5-.5-.5-.6-1.5-.6-2.8s.1-2.3.6-2.8c.3-.3.8-.5 1.3-.5s.9.1 1.3.5c.5.6.6 1.7.6 3h-2.8zm1.4-2.4c-.1-.1-.3-.3-.6-.3s-.4.1-.6.3c-.2.2-.3.8-.3 1.6h1.6c.2-.8.1-1.3-.1-1.6zM343.9 15.9v-.6c-.1.2-.2.3-.4.4-.2.1-.4.2-.8.2-.5 0-.8-.1-1.1-.5-.2-.3-.4-.8-.4-1.4 0-.6.2-1.1.6-1.4.3-.3.7-.4 1.4-.4h.7v-1c0-.6-.3-.9-.8-.9-.2 0-.4.1-.5.2-.2.2-.2.4-.2.7h-1c0-.5.1-1 .5-1.4.3-.3.7-.5 1.2-.5s1 .1 1.2.4c.3.3.5.8.5 1.4v4.7h-.9zm-.1-3h-.6c-.3 0-.5 0-.7.2-.2.2-.3.5-.3.9 0 .7.3 1.1.8 1.1s.8-.4.8-1v-1.2zM347 15.5c-.4-.3-.6-.8-.6-1.4v-3.8h-.7v-.8h.7V7.7h1v1.8h1v.8h-1V14c0 .7.4 1 1 1v.9c-.5 0-1-.1-1.4-.4zM351.9 15.9v-.5l-.4.4c-.2.1-.4.2-.7.2-.5 0-.8-.2-1.1-.5-.3-.3-.4-.6-.4-1.3V9.5h1v4.7c0 .6.3.9.8.9.4 0 .8-.3.8-.9V9.5h1v6.4h-1zM356.4 10.3c-.7 0-1.2.4-1.2 1.2v4.4h-1V9.5h1v.7c.1-.2.3-.3.4-.5.3-.2.6-.3 1.1-.3v1h-.3zM358.1 8.3c-.4 0-.7-.3-.7-.7 0-.4.3-.7.7-.7.4 0 .7.3.7.7 0 .4-.3.7-.7.7zm-.5 7.6V9.5h1v6.4h-1zM362.6 15.9v-4.7c0-.6-.3-.9-.8-.9-.4 0-.8.3-.8.9v4.7h-1V9.5h1v.5l.4-.4c.2-.1.4-.2.7-.2.5 0 .8.2 1.1.5.3.3.4.6.4 1.3v4.7h-1zM367.8 17.8c-.3.3-.8.5-1.3.5s-1-.1-1.3-.5c-.4-.4-.5-.8-.5-1.4h1c0 .3 0 .6.2.8.1.1.3.2.5.2s.4-.1.5-.2c.2-.2.2-.5.2-1.1v-1c-.1.1-.2.3-.4.4-.2.1-.4.2-.7.2-.5 0-.8-.1-1.1-.5-.4-.5-.5-1.2-.5-2.7 0-1.5.1-2.2.5-2.7.3-.3.6-.5 1.1-.5.3 0 .5.1.7.2.1.1.3.2.4.4v-.4h1V16c.2 1 0 1.5-.3 1.8zm-.5-6.6c0-.3-.1-.6-.2-.7-.1-.1-.3-.2-.5-.2s-.4.1-.5.3c-.2.3-.3.9-.3 2s0 1.7.3 2c.1.2.3.3.5.3s.4-.1.5-.2c.1-.2.2-.4.2-.7v-2.8zM375.7 15.3c-.3.4-.8.6-1.5.6h-2V7.1h2c.7 0 1.2.3 1.5.6.6.7.6 1.6.6 3.8 0 2.1 0 3.1-.6 3.8zm-.9-6.9c-.1-.2-.4-.3-.7-.3h-.9V15h.9c.3 0 .6-.1.7-.3.3-.4.4-1.1.4-3.1s0-2.8-.4-3.2zM379.7 15.4c-.4.4-.9.6-1.6.6-.7 0-1.2-.2-1.6-.7l.8-.7c.2.2.5.4.8.4.6 0 1.1-.4 1.1-1.2V7.1h1.1v6.7c0 .6-.2 1.2-.6 1.6zM385.2 8v3h2v1h-2v3.9h-1.1V7.1h3.4v1h-2.3zM390.8 15.9v-.5l-.4.4c-.2.1-.4.2-.7.2-.5 0-.8-.2-1.1-.5-.3-.3-.4-.6-.4-1.3V9.5h1v4.7c0 .6.3.9.8.9.4 0 .8-.3.8-.9V9.5h1v6.4h-1zM392.8 15.9v-.8l2-4.8h-1.9v-.8h3v.8l-2 4.7h2v.9h-3.1zM396.5 15.9v-.8l2-4.8h-1.9v-.8h3v.8l-2 4.7h2v.9h-3.1zM407.2 15.9l-.6-.9c-.5.6-1 1-1.9 1-1.1 0-2-.8-2-2.2 0-1 .5-1.8 1.4-2.7-.7-1-1-1.5-1-2.2 0-1.1.7-1.9 1.7-1.9 1.2 0 1.7.8 1.7 1.8s-.4 1.7-1.2 2.5l1.3 2c.2-.5.4-1.2.5-1.9h.9c-.1 1-.4 2-.8 2.7l1.1 1.7h-1.1zm-2.6-4c-.7.7-1 1.2-1 1.8 0 .8.4 1.4 1.1 1.4.5 0 .9-.3 1.3-.9l-1.4-2.3zm.2-4c-.5 0-.8.5-.8.9s.2.8.7 1.6c.5-.5.8-.9.8-1.6.1-.6-.2-.9-.7-.9zM415 15.3c-.3.4-.8.6-1.5.6h-2V7.1h2c.7 0 1.2.3 1.5.6.6.7.6 1.6.6 3.8 0 2.1 0 3.1-.6 3.8zm-.8-6.9c-.2-.2-.4-.4-.8-.4h-.9v6.9h.9c.3 0 .6-.1.7-.3.3-.4.4-1.1.4-3.1s0-2.7-.3-3.1zM417.7 12.9c0 1 0 1.6.3 1.9.1.1.3.3.6.3.2 0 .4-.1.6-.2.1-.2.2-.4.2-.7h1c0 .6-.2 1-.5 1.4-.3.3-.8.5-1.3.5-.6 0-.9-.1-1.3-.5-.5-.5-.6-1.5-.6-2.8s.1-2.3.6-2.8c.3-.3.8-.5 1.3-.5s.9.1 1.3.5c.5.6.6 1.7.6 3h-2.8zm1.4-2.4c-.1-.1-.3-.3-.6-.3s-.4.1-.6.3c-.2.2-.3.8-.3 1.6h1.6c.1-.8.1-1.3-.1-1.6zM422.3 12.9c0 1 0 1.6.3 1.9.1.1.3.3.6.3.2 0 .4-.1.6-.2.1-.2.2-.4.2-.7h1c0 .6-.2 1-.5 1.4-.3.3-.8.5-1.3.5-.6 0-.9-.1-1.3-.5-.5-.5-.6-1.5-.6-2.8s.1-2.3.6-2.8c.3-.3.8-.5 1.3-.5s.9.1 1.3.5c.5.6.6 1.7.6 3h-2.8zm1.4-2.4c-.1-.1-.3-.3-.6-.3s-.4.1-.6.3c-.2.2-.3.8-.3 1.6h1.6c.1-.8.1-1.3-.1-1.6zM428.6 15.9v-4.7c0-.6-.3-.9-.8-.9-.4 0-.8.3-.8.9v4.7h-1V9.5h1v.5l.4-.4c.2-.1.4-.2.7-.2.5 0 .8.2 1.1.5.3.3.4.6.4 1.3v4.7h-1zM263 39.9c-.5.5-1.3.8-2.3.8-1 0-1.8-.3-2.3-.8-.6-.6-.8-1.4-.8-2.8h1.6c0 .9.1 1.4.4 1.7.2.2.6.4 1.1.4.5 0 .9-.2 1.1-.4.4-.4.4-.9.4-1.8 0-1.5-.2-2-1.3-2.4l-1.5-.6c-1.4-.6-1.8-1.3-1.8-3.3 0-1.2.3-2.1 1-2.7.5-.5 1.2-.8 2.1-.8 1 0 1.7.3 2.2.8.7.6.9 1.5.9 2.7h-1.6c0-.7-.1-1.2-.4-1.6-.2-.3-.6-.4-1.1-.4-.5 0-.8.2-1 .4-.3.4-.5.9-.5 1.6 0 1.3.2 1.7 1.3 2.1l1.5.6c1.5.6 1.9 1.5 1.9 3.6-.1 1.4-.3 2.3-.9 2.9zM270.1 39.9c-.5.6-1.2.9-2 .9-.9 0-1.5-.2-2-.9-.6-.8-.7-2.1-.7-4.1 0-1.9.1-3.3.7-4.1.5-.6 1.2-.9 2-.9.9 0 1.6.2 2 .9.6.8.7 2.1.7 4.1 0 1.9-.1 3.3-.7 4.1zm-1.2-7.3c-.2-.3-.5-.4-.9-.4s-.6.1-.8.4c-.4.5-.4 1.5-.4 3.2 0 1.7 0 2.7.4 3.2.2.3.5.4.8.4.4 0 .7-.1.9-.4.4-.5.4-1.5.4-3.2 0-1.7 0-2.7-.4-3.2zM276.1 40.6v-.9c-.1.3-.4.5-.6.6-.3.2-.6.4-1.1.4-.7 0-1.2-.2-1.7-.7-.4-.4-.6-1.2-.6-2.2 0-.9.3-1.7.9-2.2.5-.4 1-.6 2-.6h1v-1.5c0-.9-.4-1.4-1.1-1.4-.3 0-.6.1-.7.3-.3.3-.4.6-.4 1.1h-1.5c0-.7.2-1.5.7-2 .4-.4 1.1-.7 1.9-.7.8 0 1.4.2 1.9.7.5.5.8 1.1.8 2.1v7h-1.5zm-.1-4.5h-.9c-.5 0-.8.1-1.1.4-.3.3-.4.8-.4 1.3 0 1 .4 1.6 1.2 1.6.7 0 1.2-.6 1.2-1.5v-1.8zM280.3 40c-.5-.4-.9-1.1-.9-2.2V27.4h1.5v10.4c0 .9.4 1.4 1.4 1.4v1.4c-.7 0-1.4-.1-2-.6zM291 39.9c-.6.6-1.4.9-2.3.9-1 0-1.8-.4-2.4-1l1.1-1.1c.3.4.7.6 1.2.6.9 0 1.6-.6 1.6-1.9v-10h1.6v10.1c0 .9-.2 1.8-.8 2.4zM297.4 40.6v-.9c-.1.3-.4.5-.6.6-.3.2-.6.4-1.1.4-.7 0-1.2-.2-1.7-.7-.4-.4-.6-1.2-.6-2.2 0-.9.3-1.7.9-2.2.5-.4 1-.6 2-.6h1v-1.5c0-.9-.4-1.4-1.1-1.4-.3 0-.6.1-.7.3-.3.3-.4.6-.4 1.1h-1.5c0-.7.2-1.5.7-2 .4-.4 1.1-.7 1.9-.7.8 0 1.4.2 1.9.7.5.5.8 1.1.8 2.1v7h-1.5zm0-4.5h-.9c-.5 0-.8.1-1.1.4-.3.3-.4.8-.4 1.3 0 1 .4 1.6 1.2 1.6.7 0 1.2-.6 1.2-1.5v-1.8zM307.5 40.6H306l-1.3-7-1.3 7h-1.5l-2-9.6h1.7l1.1 7.2L304 31h1.4l1.4 7.2 1.1-7.2h1.7l-2.1 9.6zM314.2 40.6v-.9c-.1.3-.4.5-.6.6-.3.2-.6.4-1.1.4-.7 0-1.2-.2-1.7-.7-.4-.4-.6-1.2-.6-2.2 0-.9.3-1.7.9-2.2.5-.4 1-.6 2-.6h1v-1.5c0-.9-.4-1.4-1.1-1.4-.3 0-.6.1-.7.3-.3.3-.4.6-.4 1.1h-1.5c0-.7.2-1.5.7-2 .4-.4 1.1-.7 1.9-.7.8 0 1.4.2 1.9.7.5.5.8 1.1.8 2.1v7h-1.5zm-.1-4.5h-.9c-.5 0-.8.1-1.1.4-.3.3-.4.8-.4 1.3 0 1 .4 1.6 1.2 1.6.7 0 1.2-.6 1.2-1.5v-1.8zM322.3 40c-.4.5-.9.7-1.6.7-.4 0-.7-.1-1-.3-.2-.1-.5-.4-.6-.6v.7h-1.4V27.4h1.5v4.3c.1-.2.4-.4.5-.5.3-.2.7-.3 1-.3.7 0 1.2.2 1.6.7.6.7.7 2 .7 4.2s-.1 3.5-.7 4.2zm-1.2-7.4c-.2-.3-.5-.4-.8-.4-.3 0-.6.1-.8.3-.2.2-.4.6-.4 1.1V38c0 .5.1.9.4 1.1.2.2.5.3.8.3.3 0 .7-.1.8-.4.4-.5.4-1.5.4-3.2 0-1.7 0-2.7-.4-3.2zM335.1 40.6v-9.4l-2.1 6.2h-1l-2.1-6v9.3h-1.6V27.4h1.5l2.7 7.3 2.7-7.3h1.5v13.2h-1.6zM342.5 40.6v-.9c-.1.3-.4.5-.6.6-.3.2-.6.4-1.1.4-.7 0-1.2-.2-1.7-.7-.4-.4-.6-1.2-.6-2.2 0-.9.3-1.7.9-2.2.5-.4 1-.6 2-.6h1v-1.5c0-.9-.4-1.4-1.1-1.4-.3 0-.6.1-.7.3-.3.3-.4.6-.4 1.1h-1.5c0-.7.2-1.5.7-2 .4-.4 1.1-.7 1.9-.7.8 0 1.4.2 1.9.7.5.5.8 1.1.8 2.1v7h-1.5zm-.1-4.5h-.9c-.5 0-.8.1-1.1.4-.3.3-.4.8-.4 1.3 0 1 .4 1.6 1.2 1.6.7 0 1.2-.6 1.2-1.5v-1.8zM349.7 40.6v-7.1c0-.9-.5-1.3-1.2-1.3-.6 0-1.1.4-1.1 1.3v7.1h-1.5V27.4h1.5v4.3c.1-.2.4-.4.5-.5.3-.2.7-.3 1-.3.7 0 1.2.2 1.6.7.4.4.6.9.6 2v7.1h-1.4zM356.7 40.6v-.9c-.1.3-.4.5-.6.6-.3.2-.6.4-1.1.4-.7 0-1.2-.2-1.7-.7-.4-.4-.6-1.2-.6-2.2 0-.9.3-1.7.9-2.2.5-.4 1-.6 2-.6h1v-1.5c0-.9-.4-1.4-1.1-1.4-.3 0-.6.1-.7.3-.3.3-.4.6-.4 1.1h-1.5c0-.7.2-1.5.7-2 .4-.4 1.1-.7 1.9-.7.8 0 1.4.2 1.9.7.5.5.8 1.1.8 2.1v7h-1.5zm0-4.5h-.9c-.5 0-.8.1-1.1.4-.3.3-.4.8-.4 1.3 0 1 .4 1.6 1.2 1.6.7 0 1.2-.6 1.2-1.5v-1.8zM364.9 40c-.4.5-.9.7-1.6.7-.4 0-.7-.1-1-.3-.2-.1-.5-.4-.6-.6v.7h-1.4V27.4h1.5v4.3c.1-.2.4-.4.5-.5.3-.2.7-.3 1-.3.7 0 1.2.2 1.6.7.6.7.7 2 .7 4.2s-.1 3.5-.7 4.2zm-1.2-7.4c-.2-.3-.5-.4-.8-.4-.3 0-.6.1-.8.3-.2.2-.4.6-.4 1.1V38c0 .5.1.9.4 1.1.2.2.5.3.8.3.3 0 .6-.1.8-.4.4-.5.4-1.5.4-3.2 0-1.7 0-2.7-.4-3.2zM372.1 40c-.4.5-.9.7-1.6.7-.4 0-.7-.1-1-.3-.2-.1-.5-.4-.6-.6v.7h-1.4V27.4h1.5v4.3c.1-.2.4-.4.5-.5.3-.2.7-.3 1-.3.7 0 1.2.2 1.6.7.6.7.7 2 .7 4.2s-.1 3.5-.7 4.2zm-1.2-7.4c-.2-.3-.5-.4-.8-.4-.3 0-.6.1-.8.3-.2.2-.4.6-.4 1.1V38c0 .5.1.9.4 1.1.2.2.5.3.8.3.3 0 .6-.1.8-.4.4-.5.4-1.5.4-3.2-.1-1.7-.1-2.7-.4-3.2zM378.1 40.6v-.9c-.1.3-.4.5-.6.6-.3.2-.6.4-1.1.4-.7 0-1.2-.2-1.7-.7-.4-.4-.6-1.2-.6-2.2 0-.9.3-1.7.9-2.2.5-.4 1-.6 2-.6h1v-1.5c0-.9-.4-1.4-1.1-1.4-.3 0-.6.1-.7.3-.3.3-.4.6-.4 1.1h-1.5c0-.7.2-1.5.7-2 .4-.4 1.1-.7 1.9-.7.8 0 1.4.2 1.9.7.5.5.8 1.1.8 2.1v7h-1.5zm-.1-4.5h-.9c-.5 0-.8.1-1.1.4-.3.3-.4.8-.4 1.3 0 1 .4 1.6 1.2 1.6.7 0 1.2-.6 1.2-1.5v-1.8zM385.3 40.6v-7.1c0-.9-.5-1.3-1.2-1.3-.6 0-1.1.4-1.1 1.3v7.1h-1.5V27.4h1.5v4.3c.1-.2.4-.4.5-.5.3-.2.7-.3 1-.3.7 0 1.2.2 1.6.7.4.4.6.9.6 2v7.1h-1.4zM393.9 40.2c-.3.3-.6.5-1.1.5-.3 0-.5-.1-.7-.2l-.4-.4v.5h-1v-8.8h1v2.8c.1-.1.2-.3.4-.4.2-.1.4-.2.7-.2.5 0 .8.2 1.1.5.4.5.5 1.3.5 2.8 0 1.6-.1 2.4-.5 2.9zm-.8-4.9c-.1-.2-.3-.3-.6-.3-.2 0-.4.1-.5.2-.2.2-.2.4-.2.7v2.9c0 .3.1.6.2.8.1.1.3.2.5.2s.4-.1.6-.3c.2-.3.2-1 .2-2.1.1-1.2.1-1.8-.2-2.1zM397.3 41.6c-.3 1.2-1.1 1.4-2.1 1.4v-.9c.6 0 1-.2 1.2-.7l.2-.8-1.6-6.4h1.1l1 4.8 1-4.8h1.1l-1.9 7.4zM404.3 32.7v7.9h-1.1v-7.9h-1.5v-1h4v1h-1.4zM409.2 40.6v-4.7c0-.6-.3-.9-.8-.9-.4 0-.8.3-.8.9v4.7h-1v-8.8h1v2.9c.1-.1.2-.3.4-.4.2-.1.4-.2.7-.2.5 0 .8.2 1.1.5.3.3.4.6.4 1.3v4.7h-1zM412.4 37.6c0 1 0 1.6.3 1.9.1.1.3.3.6.3.2 0 .4-.1.6-.2.1-.2.2-.4.2-.7h1c0 .6-.2 1-.5 1.4-.3.3-.8.5-1.3.5-.6 0-.9-.1-1.3-.5-.5-.5-.6-1.5-.6-2.8 0-1.3.1-2.3.6-2.8.3-.3.8-.5 1.3-.5s.9.1 1.3.5c.5.6.6 1.7.6 3h-2.8zm1.4-2.3c-.1-.1-.3-.3-.6-.3s-.4.1-.6.3c-.2.2-.3.8-.3 1.6h1.6c.1-.9.1-1.4-.1-1.6zM418.6 40.6v-8.8h1.1v8.8h-1.1zM423.5 43v-2.8c-.1.1-.2.3-.4.4-.2.1-.4.2-.7.2-.5 0-.8-.2-1.1-.5-.4-.5-.5-1.3-.5-2.8 0-1.5.1-2.4.5-2.8.3-.3.6-.5 1.1-.5.3 0 .5.1.7.2l.4.4v-.5h1V43h-1zm0-7.1c0-.3-.1-.6-.3-.7-.1-.1-.3-.2-.5-.2s-.4.1-.5.3c-.2.3-.3 1-.3 2.1 0 1.2 0 1.8.3 2.1.1.2.3.3.5.3s.4 0 .5-.2c.2-.2.3-.4.3-.8v-2.9zM429.1 40.2c-.3.3-.6.5-1.1.5-.3 0-.5-.1-.7-.2l-.4-.4v.5h-1v-8.8h1v2.8c.1-.1.2-.3.4-.4.2-.1.4-.2.7-.2.5 0 .8.2 1.1.5.4.5.5 1.3.5 2.8-.1 1.6-.1 2.4-.5 2.9zm-.8-4.9c-.1-.2-.3-.3-.6-.3-.2 0-.4.1-.5.2-.2.2-.2.4-.2.7v2.9c0 .3.1.6.2.8.1.1.3.2.5.2s.4-.1.6-.3c.2-.3.2-1 .2-2.1 0-1.2 0-1.8-.2-2.1zM433.1 40.6V40c-.1.2-.2.3-.4.4-.2.1-.4.2-.8.2-.5 0-.8-.1-1.1-.5-.2-.3-.4-.8-.4-1.4 0-.6.2-1.1.6-1.4.3-.3.7-.4 1.4-.4h.7v-1c0-.6-.3-.9-.8-.9-.2 0-.4.1-.5.2-.2.2-.2.4-.2.7h-1c0-.5.1-1 .5-1.4.3-.3.7-.5 1.2-.5s1 .1 1.3.4c.3.3.5.8.5 1.4v4.7h-1zm-.1-3h-.6c-.3 0-.5 0-.7.2-.2.2-.3.5-.3.9 0 .7.3 1.1.8 1.1s.8-.4.8-1v-1.2zM435.9 40.2c-.3-.3-.6-.7-.6-1.4v-7h1v6.9c0 .6.3 1 1 1v.9c-.6 0-1-.1-1.4-.4zM440.2 40.6v-.8l2.5-7.1h-2.3v-1h3.4v.8l-2.4 7.1h2.4v1h-3.6zM447.1 40.6V40c-.1.2-.2.3-.4.4-.2.1-.4.2-.8.2-.5 0-.8-.1-1.1-.5-.2-.3-.4-.8-.4-1.4 0-.6.2-1.1.6-1.4.3-.3.7-.4 1.4-.4h.7v-1c0-.6-.3-.9-.8-.9-.2 0-.4.1-.5.2-.2.2-.2.4-.2.7h-1c0-.5.1-1 .5-1.4.3-.3.7-.5 1.2-.5s1 .1 1.3.4c.3.3.5.8.5 1.4v4.7h-1zm0-3h-.6c-.3 0-.5 0-.7.2-.2.2-.3.5-.3.9 0 .7.3 1.1.8 1.1s.8-.4.8-1v-1.2zM450 33c-.4 0-.7-.3-.7-.7 0-.4.3-.7.7-.7s.7.3.7.7c-.1.4-.4.7-.7.7zm-.6 7.6v-6.4h1v6.4h-1zM454.4 40.6v-4.7c0-.6-.3-.9-.8-.9-.4 0-.8.3-.8.9v4.7h-1v-6.4h1v.5l.4-.4c.2-.1.4-.2.7-.2.5 0 .8.2 1.1.5.3.3.4.6.4 1.3v4.7h-1zM263.9 65.8l-1.1-.9c-.5.4-1.1.6-1.9.6-1.1 0-1.8-.4-2.3-.9-.9-1-1-2.5-1-5.8s.1-4.8 1-5.8c.5-.6 1.2-.9 2.3-.9 1.1 0 1.8.4 2.3.9.9 1 .9 2.5.9 5.8 0 2.8 0 4.3-.6 5.3l1.1.9-.7.8zM262 53.9c-.2-.3-.6-.5-1.1-.5-.5 0-.9.2-1.1.5-.5.6-.6 1.7-.6 4.8 0 3.1.1 4.2.6 4.8.2.3.6.5 1.1.5.3 0 .5-.1.7-.2l-.9-.7.8-.9.8.6c.2-.7.3-1.7.3-4.2 0-3-.1-4.1-.6-4.7zM269.6 65.3v-.9c-.1.3-.4.5-.6.6-.3.2-.6.4-1.1.4-.7 0-1.2-.2-1.7-.7-.4-.4-.6-1.2-.6-2.2 0-.9.3-1.7.9-2.2.5-.4 1-.6 2-.6h1v-1.5c0-.9-.4-1.4-1.1-1.4-.3 0-.6.1-.7.3-.3.3-.4.6-.4 1.1h-1.5c0-.7.2-1.5.7-2 .4-.4 1.1-.7 1.9-.7.8 0 1.4.2 1.9.7.5.5.8 1.1.8 2.1v7h-1.5zm-.1-4.4h-.9c-.5 0-.8.1-1.1.4-.3.3-.4.8-.4 1.3 0 1 .4 1.6 1.2 1.6.7 0 1.2-.6 1.2-1.5v-1.8zM276.6 65.3v-.7c-.1.2-.4.5-.6.6-.3.2-.7.3-1 .3-.6 0-1.2-.2-1.6-.7-.6-.7-.7-2-.7-4.3 0-2.2.1-3.5.7-4.2.4-.5.9-.7 1.6-.7.4 0 .7.1 1 .3.2.1.4.3.5.5v-4.3h1.5v13.2h-1.4zm0-7c0-.5-.1-.9-.4-1.1-.2-.2-.5-.3-.8-.3-.3 0-.6.1-.8.4-.4.5-.4 1.5-.4 3.2 0 1.7 0 2.7.4 3.2.2.3.5.4.8.4.3 0 .6-.1.8-.3.2-.2.4-.6.4-1.1v-4.4zM288.9 65.3l-2.3-6-1.1 2.3v3.7h-1.6V52.1h1.6v6.7l3.2-6.7h1.6l-2.7 5.5 3.1 7.8h-1.8zM295.3 65.3v-.9c-.1.3-.4.5-.6.6-.3.2-.6.4-1.1.4-.7 0-1.2-.2-1.6-.7-.4-.4-.6-1.2-.6-2.2 0-.9.3-1.7.9-2.2.5-.4 1-.6 2-.6h1v-1.5c0-.9-.4-1.4-1.1-1.4-.3 0-.6.1-.7.3-.3.3-.4.6-.4 1.1h-1.5c0-.7.2-1.5.7-2 .4-.4 1.1-.7 1.9-.7.8 0 1.4.2 1.9.7.5.5.8 1.1.8 2.1v7h-1.6zm-.1-4.4h-.9c-.5 0-.8.1-1.1.4-.3.3-.4.8-.4 1.3 0 1 .4 1.6 1.2 1.6.7 0 1.2-.6 1.2-1.5v-1.8zM300.6 56.9v8.4h-1.5v-8.4H298v-1.2h1.1v-.9c0-1 .3-1.7.8-2.1.6-.5 1.3-.6 2.2-.6v1.4c-1 0-1.5.5-1.5 1.4v.9h1.5V57h-1.5zM307 65.3v-.9c-.1.3-.4.5-.6.6-.3.2-.6.4-1.1.4-.7 0-1.2-.2-1.7-.7-.4-.4-.6-1.2-.6-2.2 0-.9.3-1.7.9-2.2.5-.4 1-.6 2-.6h1v-1.5c0-.9-.4-1.4-1.1-1.4-.3 0-.6.1-.7.3-.3.3-.4.6-.4 1.1h-1.5c0-.7.2-1.5.7-2 .4-.4 1.1-.7 1.9-.7.8 0 1.4.2 1.9.7.5.5.8 1.1.8 2.1v7H307zm-.1-4.4h-.9c-.5 0-.8.1-1.1.4-.3.3-.4.8-.4 1.3 0 1 .4 1.6 1.2 1.6.7 0 1.2-.6 1.2-1.5v-1.8zM314.2 65.3v-7.1c0-.9-.5-1.3-1.2-1.3-.6 0-1.1.4-1.1 1.3v7.1h-1.5v-9.6h1.4v.7c.1-.2.4-.5.6-.6.3-.2.6-.3 1-.3.7 0 1.2.2 1.6.7.4.4.6.9.6 2v7.1h-1.4zM318.5 53.9c-.6 0-1-.4-1-1s.4-1 1-1 1 .4 1 1-.4 1-1 1zm-.8 11.4v-9.6h1.5v9.6h-1.5zM324.6 59.7v5.6h-1v-5.6h-.7v-.8h.7v-.6c0-.7.2-1.1.6-1.4.4-.3.9-.4 1.4-.4v.9c-.7 0-1 .3-1 1v.6h1v.8h-1zM327.2 62.4c0 1 0 1.6.3 1.9.1.1.3.3.6.3.2 0 .4-.1.6-.2.1-.2.2-.4.2-.7h1c0 .6-.2 1-.5 1.4-.3.3-.8.5-1.3.5-.6 0-.9-.1-1.3-.5-.5-.5-.6-1.5-.6-2.8 0-1.3.1-2.3.6-2.8.3-.3.8-.5 1.3-.5s.9.1 1.3.5c.5.6.6 1.7.6 3h-2.8zm1.3-2.4c-.1-.1-.3-.3-.6-.3s-.4.1-.6.3c-.2.2-.3.8-.3 1.6h1.6c.2-.9.1-1.4-.1-1.6zM333.3 65.3v-.6c-.1.2-.2.3-.4.4-.2.1-.4.2-.8.2-.5 0-.8-.1-1.1-.5-.2-.3-.4-.8-.4-1.4 0-.6.2-1.1.6-1.4.3-.3.7-.4 1.4-.4h.7v-1c0-.6-.3-.9-.8-.9-.2 0-.4.1-.5.2-.2.2-.2.4-.2.7h-1c0-.5.1-1 .5-1.4.3-.3.7-.5 1.2-.5s1 .1 1.2.4c.3.3.5.8.5 1.4v4.7h-.9zm-.1-2.9h-.6c-.3 0-.5 0-.7.2-.2.2-.3.5-.3.9 0 .7.3 1.1.8 1.1s.8-.4.8-1v-1.2zM336.4 64.9c-.4-.3-.6-.8-.6-1.4v-3.8h-.7v-.8h.7v-1.8h1v1.8h1v.8h-1v3.8c0 .7.4 1 1 1v.9c-.5-.1-1-.1-1.4-.5zM341.3 65.3v-.5l-.4.4c-.2.1-.4.2-.7.2-.5 0-.8-.2-1.1-.5-.3-.3-.4-.6-.4-1.3v-4.7h1v4.7c0 .6.3.9.8.9.4 0 .8-.3.8-.9v-4.7h1v6.4h-1zM345.9 59.8c-.7 0-1.2.4-1.2 1.2v4.4h-1V59h1v.7c.1-.2.3-.3.4-.5.3-.2.6-.3 1.1-.3v1h-.3zM347.6 57.7c-.4 0-.7-.3-.7-.7s.3-.7.7-.7c.4 0 .7.3.7.7s-.4.7-.7.7zm-.5 7.6v-6.4h1v6.4h-1zM352 65.3v-4.7c0-.6-.3-.9-.8-.9-.4 0-.8.3-.8.9v4.7h-1v-6.4h1v.5l.4-.4c.2-.1.4-.2.7-.2.5 0 .8.2 1.1.5.3.3.4.6.4 1.3v4.7h-1zM357.2 67.3c-.3.3-.8.5-1.3.5s-1-.1-1.3-.5c-.4-.4-.5-.8-.5-1.4h1c0 .3 0 .6.2.8.1.1.3.2.5.2s.4-.1.5-.2c.2-.2.2-.5.2-1.1v-1c-.1.1-.2.3-.4.4-.2.1-.4.2-.7.2-.5 0-.8-.1-1.1-.5-.4-.5-.5-1.2-.5-2.7 0-1.5.1-2.2.5-2.7.3-.3.6-.5 1.1-.5.3 0 .5.1.7.2.1.1.3.2.4.4v-.5h1v6.6c.2.9.1 1.4-.3 1.8zm-.5-6.7c0-.3-.1-.6-.2-.7-.1-.1-.3-.2-.5-.2s-.4.1-.5.3c-.2.3-.3.9-.3 2s0 1.7.3 2c.1.2.3.3.5.3s.4-.1.5-.2c.1-.2.2-.4.2-.7v-2.8zM364.8 65.3l-.4-2.1h-2l-.4 2.1h-1.1l2.1-8.8h1l2 8.8h-1.2zm-1.4-7.1l-.8 4.1h1.6l-.8-4.1zM369.2 65.3v-4.7c0-.6-.3-.9-.8-.9-.4 0-.8.3-.8.9v4.7h-1v-8.8h1v2.9c.1-.1.2-.3.4-.4.2-.1.4-.2.7-.2.5 0 .8.2 1.1.5.3.3.4.6.4 1.3v4.7h-1zM376.6 65.3v-4.7c0-.6-.3-.9-.8-.9-.4 0-.8.3-.8.9v4.7h-1v-4.7c0-.6-.3-.9-.8-.9-.4 0-.8.3-.8.9v4.7h-1v-6.4h1v.5l.4-.4c.2-.1.4-.2.7-.2.5 0 1 .3 1.2.7.1-.2.3-.4.5-.5.2-.1.5-.2.7-.2.6 0 .9.2 1.2.5.3.3.4.6.4 1.3v4.7h-.9zM379.8 62.4c0 1 0 1.6.3 1.9.1.1.3.3.6.3.2 0 .4-.1.6-.2.1-.2.2-.4.2-.7h1c0 .6-.2 1-.5 1.4-.3.3-.8.5-1.3.5-.6 0-.9-.1-1.3-.5-.5-.5-.6-1.5-.6-2.8 0-1.3.1-2.3.6-2.8.3-.3.8-.5 1.3-.5s.9.1 1.3.5c.5.6.6 1.7.6 3h-2.8zm1.4-2.4c-.1-.1-.3-.3-.6-.3s-.4.1-.6.3c-.2.2-.3.8-.3 1.6h1.6c.1-.9.1-1.4-.1-1.6zM386 65.3v-.5l-.4.4c-.2.1-.4.2-.7.2-.4 0-.8-.1-1.1-.5-.4-.5-.5-1.3-.5-2.8 0-1.5.1-2.4.5-2.8.3-.3.6-.5 1.1-.5.3 0 .5.1.7.2.1.1.3.2.4.4v-2.8h1v8.8h-1zm0-4.7c0-.3-.1-.6-.3-.7-.1-.1-.3-.2-.5-.2s-.4.1-.5.3c-.2.3-.3 1-.3 2.1 0 1.2 0 1.8.3 2.1.1.2.3.3.5.3s.4 0 .5-.2c.2-.2.3-.4.3-.8v-2.9zM394.3 64.8c-.4.4-.9.5-1.6.5h-1.9v-8.8h1.9c.8 0 1.3.2 1.6.5.4.4.5.9.5 1.8 0 .6-.1 1.1-.5 1.5-.1.1-.3.3-.5.3.2.1.4.2.5.3.5.5.5 1.1.5 1.7 0 1.2-.1 1.8-.5 2.2zm-1.7-7.3h-.8v2.8h.8c.8 0 1.1-.4 1.1-1.4 0-1.1-.4-1.4-1.1-1.4zm0 3.7h-.8v3.2h.8c.8 0 1.2-.4 1.2-1.6 0-1.1-.4-1.6-1.2-1.6zM396.7 57.7c-.4 0-.7-.3-.7-.7s.3-.7.7-.7c.4 0 .7.3.7.7s-.4.7-.7.7zm-.5 7.6v-6.4h1v6.4h-1zM401.1 65.3v-4.7c0-.6-.3-.9-.8-.9-.4 0-.8.3-.8.9v4.7h-1v-6.4h1v.5l.4-.4c.2-.1.4-.2.7-.2.5 0 .8.2 1.1.5.3.3.4.6.4 1.3v4.7h-1zM409.2 64.9c-.3.3-.9.5-1.6.5-.7 0-1.2-.2-1.5-.5-.4-.4-.5-.9-.5-1.9h1.1c0 .6.1.9.3 1.2.1.2.4.3.7.3.4 0 .6-.1.8-.3.2-.3.3-.6.3-1.2 0-1-.1-1.3-.9-1.6l-1-.4c-.9-.4-1.2-.9-1.2-2.2 0-.8.2-1.4.7-1.8.3-.3.8-.5 1.4-.5.6 0 1.1.2 1.5.5.4.4.6 1 .6 1.8h-1.1c0-.5 0-.8-.3-1.1-.1-.2-.4-.3-.7-.3-.3 0-.5.1-.7.3-.2.2-.3.6-.3 1.1 0 .9.1 1.1.8 1.4l1 .4c1 .4 1.2 1 1.2 2.4-.1.9-.2 1.5-.6 1.9zM413.5 65.3v-.5l-.4.4c-.2.1-.4.2-.7.2-.5 0-.8-.2-1.1-.5-.3-.3-.4-.6-.4-1.3v-4.7h1v4.7c0 .6.3.9.8.9.4 0 .8-.3.8-.9v-4.7h1v6.4h-1zM420.9 65.3v-4.7c0-.6-.3-.9-.8-.9-.4 0-.8.3-.8.9v4.7h-1v-4.7c0-.6-.3-.9-.8-.9-.4 0-.8.3-.8.9v4.7h-1v-6.4h1v.5l.4-.4c.2-.1.4-.2.7-.2.5 0 1 .3 1.2.7.1-.2.3-.4.5-.5.2-.1.5-.2.7-.2.6 0 .9.2 1.1.5.3.3.4.6.4 1.3v4.7h-.8zM425.6 65.3v-.6c-.1.2-.2.3-.4.4-.2.1-.4.2-.8.2-.5 0-.8-.1-1.1-.5-.2-.3-.4-.8-.4-1.4 0-.6.2-1.1.6-1.4.3-.3.7-.4 1.4-.4h.7v-1c0-.6-.3-.9-.8-.9-.2 0-.4.1-.5.2-.2.2-.2.4-.2.7h-1c0-.5.1-1 .5-1.4.3-.3.7-.5 1.2-.5s1 .1 1.2.4c.3.3.5.8.5 1.4v4.7h-.9zm-.1-2.9h-.5c-.3 0-.5 0-.7.2-.2.2-.3.5-.3.9 0 .7.3 1.1.8 1.1s.8-.4.8-1v-1.2zM428.4 57.7c-.4 0-.7-.3-.7-.7s.3-.7.7-.7c.4 0 .7.3.7.7s-.3.7-.7.7zm-.5 7.6v-6.4h1v6.4h-1zM431.1 64.9c-.4-.3-.6-.8-.6-1.4v-3.8h-.7v-.8h.7v-1.8h1v1.8h1v.8h-1v3.8c0 .7.4 1 1 1v.9c-.5-.1-1-.1-1.4-.5zM263 89.5c-.5.5-1.2.7-2 .7-1.1 0-1.8-.4-2.3-.9-.9-1-1-2.5-1-5.8s.1-4.8 1-5.8c.5-.6 1.2-.9 2.3-.9.9 0 1.6.3 2.1.8.6.6.9 1.5.9 2.6h-1.6c0-.6-.1-1.2-.4-1.5-.2-.3-.5-.5-1-.5s-.9.2-1.1.5c-.5.6-.6 1.7-.6 4.8 0 3.1.1 4.2.6 4.8.2.3.6.5 1.1.5.5 0 .8-.2 1-.5.3-.4.4-.9.4-1.5h1.6c0 1.1-.4 2.1-1 2.7zM269.5 90v-.7c-.1.2-.4.5-.6.6-.3.2-.6.3-1 .3-.7 0-1.2-.2-1.6-.7-.4-.4-.6-.9-.6-2v-7.1h1.5v7.1c0 .9.5 1.3 1.2 1.3.6 0 1.1-.4 1.1-1.3v-7.1h1.5V90h-1.5zM277.4 90l-1.8-4.5-1 1.7V90H273V76.8h1.5V85l2.7-4.6h1.6l-2.3 3.7 2.6 5.9h-1.7zM284.1 90v-.7c-.1.2-.4.5-.6.6-.3.2-.7.3-1 .3-.7 0-1.2-.2-1.6-.7-.4-.4-.6-.9-.6-2v-7.1h1.5v7.1c0 .9.5 1.3 1.2 1.3.6 0 1.1-.4 1.1-1.3v-7.1h1.5V90h-1.5zM292.4 89.5c-.4.5-.9.7-1.6.7-.4 0-.7-.1-1-.3-.2-.1-.4-.3-.5-.5v4.3h-1.5V80.4h1.4v.7c.1-.2.4-.5.6-.6.3-.2.7-.3 1-.3.7 0 1.2.2 1.6.7.6.7.7 2 .7 4.2 0 2.4-.1 3.7-.7 4.4zm-1.2-7.5c-.2-.3-.5-.4-.8-.4-.3 0-.6.1-.8.3-.2.2-.4.6-.4 1.1v4.4c0 .5.1.9.4 1.1.2.2.5.3.8.3.3 0 .7-.1.8-.4.4-.5.4-1.5.4-3.2 0-1.7-.1-2.7-.4-3.2zM295.6 89.5c-.5-.4-.9-1.1-.9-2.2V76.8h1.5v10.4c0 .9.4 1.4 1.4 1.4V90c-.7 0-1.4-.1-2-.5zM302.6 90v-.9c-.1.3-.4.5-.6.6-.3.2-.6.4-1.1.4-.7 0-1.2-.2-1.7-.7-.4-.4-.6-1.2-.6-2.2 0-.9.3-1.7.9-2.2.5-.4 1-.6 2-.6h1V83c0-.9-.4-1.4-1.1-1.4-.3 0-.6.1-.7.3-.3.3-.4.6-.4 1.1h-1.5c0-.7.2-1.5.7-2 .4-.4 1.1-.7 1.9-.7.8 0 1.4.2 1.9.7.5.5.8 1.1.8 2.1v7h-1.5zm-.1-4.4h-.9c-.5 0-.8.1-1.1.4-.3.3-.4.8-.4 1.3 0 1 .4 1.6 1.2 1.6.7 0 1.2-.6 1.2-1.5v-1.8zM309.8 90v-7c0-.9-.5-1.3-1.2-1.3-.6 0-1.1.4-1.1 1.3v7H306V76.8h1.5v4.3c.1-.2.4-.4.5-.5.3-.2.7-.3 1-.3.7 0 1.2.2 1.6.7.4.4.6.9.6 2v7h-1.4zM322.3 89.2c-.5.6-1.3.8-2.5.8H317V76.8h2.9c1.1 0 1.9.2 2.4.8.6.6.8 1.4.8 2.7 0 .9-.1 1.7-.7 2.3-.2.2-.5.4-.8.5.3.1.6.3.8.5.7.7.8 1.7.8 2.6-.1 1.6-.3 2.4-.9 3zm-2.6-10.9h-1.1v4.2h1.1c1.2 0 1.7-.6 1.7-2.1 0-1.6-.6-2.1-1.7-2.1zm0 5.6h-1.2v4.8h1.2c1.2 0 1.8-.6 1.8-2.4 0-1.7-.6-2.4-1.8-2.4zM328.6 90v-.9c-.1.3-.4.5-.6.6-.3.2-.6.4-1.1.4-.7 0-1.2-.2-1.7-.7-.4-.4-.6-1.2-.6-2.2 0-.9.3-1.7.9-2.2.5-.4 1-.6 2-.6h1V83c0-.9-.4-1.4-1.1-1.4-.3 0-.6.1-.7.3-.3.3-.4.6-.4 1.1h-1.5c0-.7.2-1.5.7-2 .4-.4 1.1-.7 1.9-.7.8 0 1.4.2 1.9.7.5.5.8 1.1.8 2.1v7h-1.5zm-.1-4.4h-.9c-.5 0-.8.1-1.1.4-.3.3-.4.8-.4 1.3 0 1 .4 1.6 1.2 1.6.7 0 1.2-.6 1.2-1.5v-1.8zM336.3 93c-.4.5-1.2.7-1.9.7s-1.4-.2-1.9-.7c-.5-.5-.7-1.2-.7-2.1h1.5c0 .5.1.9.3 1.2.2.2.5.3.8.3.4 0 .6-.1.8-.4.3-.3.4-.8.4-1.7v-1.4c-.1.2-.4.4-.5.6-.3.2-.6.3-1 .3-.7 0-1.2-.2-1.6-.7-.6-.7-.8-1.8-.8-4s.2-3.4.8-4c.4-.5.8-.7 1.6-.7.4 0 .7.1 1 .3.2.1.4.3.5.5v-.7h1.5v9.9c0 1.3-.2 2-.8 2.6zm-.7-10c0-.5-.1-.9-.4-1.1-.2-.2-.5-.3-.8-.3-.4 0-.6.2-.8.4-.4.4-.4 1.4-.4 3s0 2.5.4 3c.2.2.4.4.8.4.3 0 .6-.1.8-.3.2-.2.4-.6.4-1.1v-4zM340 78.6c-.6 0-1-.4-1-1s.4-1 1-1 1 .4 1 1-.5 1-1 1zm-.8 11.4v-9.6h1.5V90h-1.5zM347.2 90l-1.8-4.5-1 1.7V90h-1.5V76.8h1.5V85l2.7-4.6h1.6l-2.3 3.7L349 90h-1.8zM353.9 90v-.7c-.1.2-.4.5-.6.6-.3.2-.6.3-1 .3-.7 0-1.2-.2-1.6-.7-.4-.4-.6-.9-.6-2v-7.1h1.5v7.1c0 .9.5 1.3 1.2 1.3.6 0 1.1-.4 1.1-1.3v-7.1h1.5V90h-1.5zM360.7 84.4V90h-1v-5.6h-.7v-.8h.7V83c0-.7.2-1.1.6-1.4.4-.3.9-.4 1.4-.4v.9c-.7 0-1 .3-1 1v.6h1v.8h-1zM363.3 87.1c0 1 0 1.6.3 1.9.1.1.3.3.6.3.2 0 .4-.1.6-.2.1-.2.2-.4.2-.7h1c0 .6-.2 1-.5 1.4-.3.3-.8.5-1.3.5-.6 0-.9-.1-1.3-.5-.5-.5-.6-1.5-.6-2.8 0-1.3.1-2.3.6-2.8.3-.3.8-.5 1.3-.5s.9.1 1.3.5c.5.6.6 1.7.6 3h-2.8zm1.3-2.4c-.1-.1-.3-.3-.6-.3s-.4.1-.6.3c-.2.2-.3.8-.3 1.6h1.6c.2-.8.1-1.4-.1-1.6zM369.4 90v-.6c-.1.2-.2.3-.4.4-.2.1-.4.2-.8.2-.5 0-.8-.1-1.1-.5-.2-.3-.4-.8-.4-1.4 0-.6.2-1.1.6-1.4.3-.3.7-.4 1.4-.4h.7v-1c0-.6-.3-.9-.8-.9-.2 0-.4.1-.5.2-.2.2-.2.4-.2.7h-1c0-.5.1-1 .5-1.4.3-.3.7-.5 1.2-.5s1 .1 1.2.4c.3.3.5.8.5 1.4V90h-.9zm-.1-2.9h-.6c-.3 0-.5 0-.7.2-.2.2-.3.5-.3.9 0 .7.3 1.1.8 1.1s.8-.4.8-1v-1.2zM372.5 89.7c-.4-.3-.6-.8-.6-1.4v-3.8h-.7v-.8h.7v-1.8h1v1.8h1v.8h-1v3.8c0 .7.4 1 1 1v.7c-.5 0-1 0-1.4-.3zM377.4 90v-.5l-.4.4c-.2.1-.4.2-.7.2-.5 0-.8-.2-1.1-.5-.3-.3-.4-.6-.4-1.3v-4.7h1v4.7c0 .6.3.9.8.9.4 0 .8-.3.8-.9v-4.7h1V90h-1zM382 84.5c-.7 0-1.2.4-1.2 1.2V90h-1v-6.4h1v.7c.1-.2.3-.3.4-.5.3-.2.6-.3 1.1-.3v1h-.3zM383.7 82.4c-.4 0-.7-.3-.7-.7s.3-.7.7-.7.7.3.7.7-.4.7-.7.7zm-.5 7.6v-6.4h1V90h-1zM388.1 90v-4.7c0-.6-.3-.9-.8-.9-.4 0-.8.3-.8.9V90h-1v-6.4h1v.5l.4-.4c.2-.1.4-.2.7-.2.5 0 .8.2 1.1.5.3.3.4.6.4 1.3V90h-1zM393.3 92c-.3.3-.8.5-1.3.5s-1-.1-1.3-.5c-.4-.4-.5-.8-.5-1.4h1c0 .3 0 .6.2.8.1.1.3.2.5.2s.4-.1.5-.2c.2-.2.2-.5.2-1.1v-1c-.1.1-.2.3-.4.4-.2.1-.4.2-.7.2-.5 0-.8-.1-1.1-.5-.4-.5-.5-1.2-.5-2.7 0-1.5.1-2.2.5-2.7.3-.3.6-.5 1.1-.5.3 0 .5.1.7.2.1.1.3.2.4.4v-.5h1v6.6c.2.9.1 1.4-.3 1.8zm-.5-6.6c0-.3-.1-.6-.2-.7-.1-.1-.3-.2-.5-.2s-.4.1-.5.3c-.2.3-.3.9-.3 2s0 1.7.3 2c.1.2.3.3.5.3s.4-.1.5-.2c.1-.2.2-.4.2-.7v-2.8zM397.6 90v-8.8h1.1v7.9h2.3v1h-3.4zM404.3 90v-.6c-.1.2-.2.3-.4.4-.2.1-.4.2-.8.2-.5 0-.8-.1-1.1-.5-.2-.3-.4-.8-.4-1.4 0-.6.2-1.1.6-1.4.3-.3.7-.4 1.4-.4h.7v-1c0-.6-.3-.9-.8-.9-.2 0-.4.1-.5.2-.2.2-.2.4-.2.7h-1c0-.5.1-1 .5-1.4.3-.3.7-.5 1.2-.5s1 .1 1.2.4c.3.3.5.8.5 1.4V90h-.9zm0-2.9h-.6c-.3 0-.5 0-.7.2-.2.2-.3.5-.3.9 0 .7.3 1.1.8 1.1s.8-.4.8-1v-1.2zM409.2 90v-4.7c0-.6-.3-.9-.8-.9-.4 0-.8.3-.8.9V90h-1v-8.8h1v2.9c.1-.1.2-.3.4-.4.2-.1.4-.2.7-.2.5 0 .8.2 1.1.5.3.3.4.6.4 1.3V90h-1zM417.2 90l-.4-2.1h-2l-.4 2.1h-1.1l2.1-8.8h1l2 8.8h-1.2zm-1.4-7l-.8 4.1h1.6l-.8-4.1zM421.6 90v-4.7c0-.6-.3-.9-.8-.9-.4 0-.8.3-.8.9V90h-1v-8.8h1v2.9c.1-.1.2-.3.4-.4.2-.1.4-.2.7-.2.5 0 .8.2 1.1.5.3.3.4.6.4 1.3V90h-1zM429 90v-4.7c0-.6-.3-.9-.8-.9-.4 0-.8.3-.8.9V90h-1v-4.7c0-.6-.3-.9-.8-.9-.4 0-.8.3-.8.9V90h-1v-6.4h1v.5l.4-.4c.2-.1.4-.2.7-.2.5 0 1 .3 1.2.7.1-.2.3-.4.5-.5.2-.1.5-.2.7-.2.6 0 .9.2 1.2.5.3.3.4.6.4 1.3V90h-.9zM433.7 90v-.6c-.1.2-.2.3-.4.4-.2.1-.4.2-.8.2-.5 0-.8-.1-1.1-.5-.2-.3-.4-.8-.4-1.4 0-.6.2-1.1.6-1.4.3-.3.7-.4 1.4-.4h.7v-1c0-.6-.3-.9-.8-.9-.2 0-.4.1-.5.2-.2.2-.2.4-.2.7h-1c0-.5.1-1 .5-1.4.3-.3.7-.5 1.2-.5s1 .1 1.2.4c.3.3.5.8.5 1.4V90h-.9zm-.1-2.9h-.6c-.3 0-.5 0-.7.2-.2.2-.3.5-.3.9 0 .7.3 1.1.8 1.1s.8-.4.8-1v-1.2zM438.4 90v-.5l-.4.4c-.2.1-.4.2-.7.2-.4 0-.8-.1-1.1-.5-.4-.5-.5-1.3-.5-2.8 0-1.5.1-2.4.5-2.8.3-.3.6-.5 1.1-.5.3 0 .5.1.7.2.1.1.3.2.4.4v-2.8h1V90h-1zm0-4.6c0-.3-.1-.6-.3-.7-.1-.1-.3-.2-.5-.2s-.4.1-.5.3c-.2.3-.3 1-.3 2.1 0 1.2 0 1.8.3 2.1.1.2.3.3.5.3s.4 0 .5-.2c.2-.2.3-.4.3-.8v-2.9zM261 109.3h-1.4v5.5H258v-13.2h3c2 0 3.1.9 3.1 3.8 0 2.7-.9 3.9-3.1 3.9zm0-6.3h-1.4v4.9h1.4c1.2 0 1.5-1 1.5-2.4 0-1.5-.3-2.5-1.5-2.5zM266.8 110.3c0 1.5.1 2.4.4 2.8.2.2.4.4.8.4s.6-.1.9-.4c.2-.2.3-.6.3-1.1h1.5c0 .9-.2 1.6-.8 2.1-.5.5-1.2.7-1.9.7-.8 0-1.4-.2-1.9-.7-.7-.8-.9-2.2-.9-4.2s.1-3.5.8-4.2c.5-.5 1.1-.7 1.9-.7.8 0 1.4.2 1.9.7.8.9.8 2.5.8 4.6h-3.8zm2.1-3.5c-.2-.2-.5-.4-.9-.4s-.7.2-.8.4c-.3.4-.4 1.1-.4 2.4h2.4c.1-1.3 0-2.1-.3-2.4zM276.3 114.8v-7.1c0-.9-.5-1.3-1.2-1.3-.6 0-1.1.4-1.1 1.3v7.1h-1.5v-9.6h1.4v.7c.1-.2.4-.5.6-.6.3-.2.7-.3 1-.3.7 0 1.2.2 1.6.7.4.4.6.9.6 2v7.1h-1.4zM284.2 117.7c-.4.5-1.2.7-1.9.7s-1.4-.2-1.9-.7c-.5-.5-.7-1.2-.7-2.1h1.5c0 .5.1.9.3 1.2.2.2.5.3.8.3.4 0 .6-.1.8-.4.3-.3.4-.8.4-1.7v-1.4c-.1.2-.4.4-.5.6-.3.2-.6.3-1 .3-.7 0-1.1-.2-1.6-.7-.6-.7-.8-1.8-.8-4s.2-3.4.8-4c.4-.5.8-.7 1.6-.7.4 0 .7.1 1 .3.2.1.4.3.5.5v-.7h1.5v9.9c-.1 1.3-.3 2-.8 2.6zm-.8-9.9c0-.5-.1-.9-.4-1.1-.2-.2-.5-.3-.8-.3-.4 0-.6.2-.8.4-.4.4-.4 1.4-.4 3s0 2.5.4 3c.2.2.4.4.8.4.3 0 .6-.1.8-.3.2-.2.4-.6.4-1.1v-4zM290.5 114.8v-.9c-.1.3-.4.5-.6.6-.3.2-.6.4-1.1.4-.7 0-1.2-.2-1.7-.7-.4-.4-.6-1.2-.6-2.2 0-.9.3-1.7.9-2.2.5-.4 1-.6 2-.6h1v-1.5c0-.9-.4-1.4-1.1-1.4-.3 0-.6.1-.7.3-.3.3-.4.6-.4 1.1h-1.5c0-.7.2-1.5.7-2 .4-.4 1.1-.7 1.9-.7.8 0 1.4.2 1.9.7.5.5.8 1.1.8 2.1v7h-1.5zm0-4.5h-.9c-.5 0-.8.1-1.1.4-.3.3-.4.8-.4 1.3 0 1 .4 1.6 1.2 1.6.7 0 1.2-.6 1.2-1.5v-1.8zM301.6 114.8v-7.1c0-.9-.5-1.3-1.1-1.3-.6 0-1.1.4-1.1 1.3v7.1h-1.5v-7.1c0-.9-.5-1.3-1.2-1.3-.6 0-1.1.4-1.1 1.3v7.1H294v-9.6h1.4v.7c.1-.2.4-.5.6-.6.3-.2.7-.3 1-.3.7 0 1.4.4 1.8 1 .2-.3.5-.5.8-.7.3-.2.7-.3 1.1-.3.8 0 1.3.2 1.7.7.4.4.6.9.6 2v7.1h-1.4zM309.8 114.2c-.4.5-.9.7-1.6.7-.4 0-.7-.1-1-.3-.2-.1-.4-.3-.5-.5v4.3h-1.5v-13.2h1.4v.7c.1-.2.4-.5.6-.6.3-.2.7-.3 1-.3.7 0 1.2.2 1.6.7.6.7.7 2 .7 4.2 0 2.3-.1 3.6-.7 4.3zm-1.2-7.4c-.2-.3-.5-.4-.8-.4-.3 0-.6.1-.8.3-.2.2-.4.6-.4 1.1v4.4c0 .5.1.9.4 1.1.2.2.5.3.8.3.3 0 .7-.1.8-.4.4-.5.4-1.5.4-3.2 0-1.8-.1-2.8-.4-3.2zM316 114.8v-.8c-.1.2-.4.5-.6.6-.3.2-.6.3-1 .3-.7 0-1.2-.2-1.6-.7-.4-.4-.6-.9-.6-2v-7.1h1.5v7.1c0 .9.5 1.3 1.2 1.3.6 0 1.1-.4 1.1-1.3v-7.1h1.5v9.6H316zM323.4 114.8v-7.1c0-.9-.5-1.3-1.2-1.3-.6 0-1.1.4-1.1 1.3v7.1h-1.5v-9.6h1.4v.7c.1-.2.4-.5.6-.6.3-.2.6-.3 1-.3.7 0 1.2.2 1.6.7.4.4.6.9.6 2v7.1h-1.4zM330.4 114.8v-.9c-.1.3-.4.5-.6.6-.3.2-.6.4-1.1.4-.7 0-1.2-.2-1.7-.7-.4-.4-.6-1.2-.6-2.2 0-.9.3-1.7.9-2.2.5-.4 1-.6 2-.6h1v-1.5c0-.9-.4-1.4-1.1-1.4-.3 0-.6.1-.7.3-.3.3-.4.6-.4 1.1h-1.5c0-.7.2-1.5.7-2 .4-.4 1.1-.7 1.9-.7.8 0 1.4.2 1.9.7.5.5.8 1.1.8 2.1v7h-1.5zm-.1-4.5h-.9c-.5 0-.8.1-1.1.4-.3.3-.4.8-.4 1.3 0 1 .4 1.6 1.2 1.6.7 0 1.2-.6 1.2-1.5v-1.8zM337.7 114.8v-7.1c0-.9-.5-1.3-1.2-1.3-.6 0-1.1.4-1.1 1.3v7.1h-1.5v-9.6h1.4v.7c.1-.2.4-.5.6-.6.3-.2.6-.3 1-.3.7 0 1.2.2 1.6.7.4.4.6.9.6 2v7.1h-1.4zM349.7 114.8l-.6-3.1H346l-.6 3.1h-1.7l3.1-13.2h1.5l3.1 13.2h-1.7zm-2.2-10.7l-1.2 6.1h2.5l-1.3-6.1zM357 117.7c-.4.5-1.1.7-1.9.7-.7 0-1.4-.2-1.9-.7-.5-.5-.7-1.2-.7-2.1h1.5c0 .5.1.9.3 1.2.2.2.5.3.8.3.4 0 .6-.1.8-.4.3-.3.4-.8.4-1.7v-1.4c-.1.2-.4.4-.5.6-.3.2-.6.3-1 .3-.7 0-1.2-.2-1.6-.7-.6-.7-.8-1.8-.8-4s.2-3.4.8-4c.4-.5.8-.7 1.6-.7.4 0 .7.1 1 .3.2.1.4.3.5.5v-.7h1.5v9.9c-.1 1.3-.3 2-.8 2.6zm-.8-9.9c0-.5-.1-.9-.4-1.1-.2-.2-.5-.3-.8-.3-.4 0-.6.2-.8.4-.4.4-.4 1.4-.4 3s0 2.5.4 3c.2.2.4.4.8.4.3 0 .6-.1.8-.3.2-.2.4-.6.4-1.1v-4zM363.6 114.8v-.8c-.1.2-.4.5-.6.6-.3.2-.7.3-1 .3-.7 0-1.2-.2-1.6-.7-.4-.4-.6-.9-.6-2v-7.1h1.5v7.1c0 .9.5 1.3 1.2 1.3.6 0 1.1-.4 1.1-1.3v-7.1h1.5v9.6h-1.5zM371 114.8v-7.1c0-.9-.5-1.3-1.2-1.3-.6 0-1.1.4-1.1 1.3v7.1h-1.5v-9.6h1.4v.7c.1-.2.4-.5.6-.6.3-.2.7-.3 1-.3.7 0 1.2.2 1.6.7.4.4.6.9.6 2v7.1H371zM378.8 117.7c-.4.5-1.2.7-1.9.7s-1.4-.2-1.9-.7c-.5-.5-.7-1.2-.7-2.1h1.5c0 .5.1.9.3 1.2.2.2.5.3.8.3.4 0 .6-.1.8-.4.3-.3.4-.8.4-1.7v-1.4c-.1.2-.4.4-.5.6-.3.2-.6.3-1 .3-.7 0-1.1-.2-1.6-.7-.6-.7-.8-1.8-.8-4s.2-3.4.8-4c.4-.5.8-.7 1.6-.7.4 0 .7.1 1 .3.2.1.4.3.5.5v-.7h1.5v9.9c0 1.3-.3 2-.8 2.6zm-.7-9.9c0-.5-.1-.9-.4-1.1-.2-.2-.5-.3-.8-.3-.4 0-.6.2-.8.4-.4.4-.4 1.4-.4 3s0 2.5.4 3c.2.2.4.4.8.4.3 0 .6-.1.8-.3.2-.2.4-.6.4-1.1v-4zM386.7 114.4c-.3.3-.6.5-1.1.5-.3 0-.5-.1-.7-.2l-.4-.4v.5h-1V106h1v2.8c.1-.1.2-.3.4-.4.2-.1.4-.2.7-.2.5 0 .8.2 1.1.5.4.5.5 1.3.5 2.8 0 1.6 0 2.4-.5 2.9zm-.7-5c-.1-.2-.3-.3-.6-.3-.2 0-.4.1-.5.2-.2.2-.2.4-.2.7v2.9c0 .3.1.6.2.8.1.1.3.2.5.2s.4-.1.6-.3c.2-.3.2-1 .2-2.1s0-1.8-.2-2.1zM390.1 115.8c-.3 1.2-1.1 1.4-2.1 1.4v-.9c.6 0 1-.2 1.2-.7l.2-.8-1.6-6.4h1.1l1 4.8 1-4.8h1.1l-1.9 7.4zM397.1 106.9v7.9H396v-7.9h-1.5v-1h4v1h-1.4zM402.1 114.8v-4.7c0-.6-.3-.9-.8-.9-.4 0-.8.3-.8.9v4.7h-1V106h1v2.9c.1-.1.2-.3.4-.4.2-.1.4-.2.7-.2.5 0 .8.2 1.1.5.3.3.4.6.4 1.3v4.7h-1zM405.2 111.8c0 1 0 1.6.3 1.9.1.1.3.3.6.3.2 0 .4-.1.6-.2.1-.2.2-.4.2-.7h1c0 .6-.2 1-.5 1.4-.3.3-.8.5-1.3.5-.6 0-.9-.1-1.3-.5-.5-.5-.6-1.5-.6-2.8 0-1.3.1-2.3.6-2.8.3-.3.8-.5 1.3-.5s.9.1 1.3.5c.5.6.6 1.7.6 3h-2.8zm1.4-2.4c-.1-.1-.3-.3-.6-.3s-.4.1-.6.3c-.2.2-.3.8-.3 1.6h1.6c.1-.8.1-1.3-.1-1.6zM411.4 114.8V106h1.1v8.8h-1.1zM416.4 117.2v-2.8c-.1.1-.2.3-.4.4-.2.1-.4.2-.7.2-.5 0-.8-.2-1.1-.5-.4-.5-.5-1.3-.5-2.8 0-1.5.1-2.4.5-2.8.3-.3.6-.5 1.1-.5.3 0 .5.1.7.2l.4.4v-.5h1v8.8h-1zm0-7.1c0-.3-.1-.6-.3-.7-.1-.1-.3-.2-.5-.2s-.4.1-.5.3c-.2.3-.3 1-.3 2.1 0 1.2 0 1.8.3 2.1.1.2.3.3.5.3s.4 0 .5-.2c.2-.2.3-.4.3-.8v-2.9zM421.9 114.4c-.3.3-.6.5-1.1.5-.3 0-.5-.1-.7-.2l-.4-.4v.5h-1V106h1v2.8c.1-.1.2-.3.4-.4.2-.1.4-.2.7-.2.5 0 .8.2 1.1.5.4.5.5 1.3.5 2.8-.1 1.6-.1 2.4-.5 2.9zm-.8-5c-.1-.2-.3-.3-.6-.3-.2 0-.4.1-.5.2-.2.2-.2.4-.2.7v2.9c0 .3.1.6.2.8.1.1.3.2.5.2s.4-.1.6-.3c.2-.3.2-1 .2-2.1s0-1.8-.2-2.1zM425.9 114.8v-.6c-.1.2-.2.3-.4.4-.2.1-.4.2-.8.2-.5 0-.8-.1-1.1-.5-.2-.3-.4-.8-.4-1.4 0-.6.2-1.1.6-1.4.3-.3.7-.4 1.4-.4h.7v-1c0-.6-.3-.9-.8-.9-.2 0-.4.1-.5.2-.2.2-.2.4-.2.7h-1c0-.5.1-1 .5-1.4.3-.3.7-.5 1.2-.5s1 .1 1.2.4c.3.3.5.8.5 1.4v4.7h-.9zm-.1-3h-.6c-.3 0-.5 0-.7.2-.2.2-.3.5-.3.9 0 .7.3 1.1.8 1.1s.8-.4.8-1v-1.2zM428.7 114.4c-.3-.3-.6-.7-.6-1.4v-7h1v6.9c0 .6.3 1 1 1v.9c-.6 0-1-.1-1.4-.4zM433 114.8v-.8l2.5-7.1h-2.3v-1h3.4v.8l-2.4 7.1h2.4v1H433zM440 114.8v-.6c-.1.2-.2.3-.4.4-.2.1-.4.2-.8.2-.5 0-.8-.1-1.1-.5-.2-.3-.4-.8-.4-1.4 0-.6.2-1.1.6-1.4.3-.3.7-.4 1.4-.4h.7v-1c0-.6-.3-.9-.8-.9-.2 0-.4.1-.5.2-.2.2-.2.4-.2.7h-1c0-.5.1-1 .5-1.4.3-.3.7-.5 1.2-.5s1 .1 1.2.4c.3.3.5.8.5 1.4v4.7h-.9zm-.1-3h-.6c-.3 0-.5 0-.7.2-.2.2-.3.5-.3.9 0 .7.3 1.1.8 1.1s.8-.4.8-1v-1.2zM442.8 107.2c-.4 0-.7-.3-.7-.7s.3-.7.7-.7c.4 0 .7.3.7.7s-.4.7-.7.7zm-.5 7.6v-6.4h1v6.4h-1zM447.2 114.8v-4.7c0-.6-.3-.9-.8-.9-.4 0-.8.3-.8.9v4.7h-1v-6.4h1v.5l.4-.4c.2-.1.4-.2.7-.2.5 0 .8.2 1.1.5.3.3.4.6.4 1.3v4.7h-1zM264.6 131.4l-.4 2.7h1.3v1.4h-1.6l-.5 4H262l.5-4h-1.9l-.5 4h-1.5l.5-4h-1.3v-1.4h1.5l.4-2.7h-1.3V130h1.6l.5-3.7h1.5l-.5 3.7h1.9l.5-3.7h1.5l-.5 3.7h1.3v1.4h-1.6zm-3.4 0l-.4 2.7h1.9l.4-2.7h-1.9zM268.9 138.9c-.5-.4-.9-1.1-.9-2.2v-10.5h1.5v10.4c0 .9.4 1.4 1.4 1.4v1.4c-.7.1-1.4 0-2-.5zM276.8 138.8c-.5.6-1.2.9-2 .9-.9 0-1.5-.2-2-.9-.6-.8-.7-2.1-.7-4.1s.1-3.3.7-4.1c.5-.6 1.2-.9 2-.9.9 0 1.6.2 2 .9.6.8.7 2.1.7 4.1s-.1 3.3-.7 4.1zm-1.2-7.3c-.2-.3-.5-.4-.9-.4s-.6.1-.8.4c-.4.5-.4 1.5-.4 3.2 0 1.7 0 2.7.4 3.2.2.3.5.4.8.4.4 0 .7-.1.9-.4.4-.5.4-1.5.4-3.2 0-1.7 0-2.7-.4-3.2zM282.2 139.5h-1.6l-2.3-9.6h1.7l1.5 7.2 1.4-7.2h1.7l-2.4 9.6zM286.8 135c0 1.5.1 2.4.4 2.8.2.2.4.4.8.4s.6-.1.9-.4c.2-.2.3-.6.3-1.1h1.5c0 .9-.2 1.6-.8 2.1-.5.5-1.2.7-1.9.7-.8 0-1.4-.2-1.9-.7-.7-.8-.9-2.2-.9-4.2s.1-3.5.8-4.2c.5-.5 1.1-.7 1.9-.7.8 0 1.4.2 1.9.7.8.9.8 2.5.8 4.6h-3.8zm2.1-3.5c-.2-.2-.5-.4-.9-.4s-.7.2-.8.4c-.3.4-.4 1.1-.4 2.4h2.4c.1-1.3 0-2.1-.3-2.4zM296.9 139c-.4.5-1.1.7-1.9.7-.8 0-1.5-.2-2-.9-.6-.8-.7-2.1-.7-4.1s.1-3.3.7-4.1c.5-.6 1.2-.9 2-.9s1.4.1 1.9.6c.6.6.7 1.4.8 2.2h-1.5c0-.4 0-.8-.3-1.1-.2-.2-.5-.4-.8-.4-.4 0-.7.1-.9.4-.4.5-.4 1.5-.4 3.2 0 1.7 0 2.7.4 3.2.2.3.5.4.9.4s.6-.1.8-.4c.3-.3.3-.7.3-1.1h1.5c-.1 1-.3 1.8-.8 2.3zM300 128.1c-.6 0-1-.4-1-1s.4-1 1-1 1 .4 1 1-.4 1-1 1zm-.7 11.4v-9.6h1.5v9.6h-1.5zM306.7 139.5v-7.1c0-.9-.5-1.3-1.2-1.3s-1.1.4-1.1 1.3v7.1h-1.5v-9.6h1.4v.7c.1-.2.4-.5.6-.6.3-.2.6-.3 1-.3.7 0 1.2.2 1.6.7.4.4.6.9.6 2v7.1h-1.4zM311.4 138.9c-.5-.4-.8-1.2-.8-2.2V131h-1.1v-1.2h1.1v-2.6h1.5v2.6h1.5v1.2h-1.5v5.6c0 1 .5 1.4 1.5 1.4v1.4c-.9.1-1.6 0-2.2-.5zM318.5 139.5v-.9c-.1.3-.4.5-.6.6-.3.2-.6.4-1.1.4-.7 0-1.2-.2-1.7-.7-.4-.4-.6-1.2-.6-2.2 0-.9.3-1.7.9-2.2.5-.4 1-.6 2-.6h1v-1.5c0-.9-.4-1.4-1.1-1.4-.3 0-.6.1-.7.3-.3.3-.4.6-.4 1.1h-1.5c0-.7.2-1.5.7-2 .4-.4 1.1-.7 1.9-.7.8 0 1.4.2 1.9.7.5.5.8 1.1.8 2.1v7h-1.5zm-.1-4.5h-.9c-.5 0-.8.1-1.1.4-.3.3-.4.8-.4 1.3 0 1 .4 1.6 1.2 1.6.7 0 1.2-.6 1.2-1.5V135zM329.5 139.5v-7.1c0-.9-.5-1.3-1.1-1.3-.6 0-1.1.4-1.1 1.3v7.1h-1.5v-7.1c0-.9-.5-1.3-1.2-1.3-.6 0-1.1.4-1.1 1.3v7.1H322v-9.6h1.4v.7c.1-.2.4-.5.6-.6.3-.2.7-.3 1-.3.7 0 1.4.4 1.8 1 .2-.3.5-.5.8-.7.3-.2.7-.3 1.1-.3.8 0 1.3.2 1.7.7.4.4.6.9.6 2v7.1h-1.5zM336.6 139.5v-.9c-.1.3-.4.5-.6.6-.3.2-.6.4-1.1.4-.7 0-1.2-.2-1.7-.7-.4-.4-.6-1.2-.6-2.2 0-.9.3-1.7.9-2.2.5-.4 1-.6 2-.6h1v-1.5c0-.9-.4-1.4-1.1-1.4-.3 0-.6.1-.7.3-.3.3-.4.6-.4 1.1h-1.5c0-.7.2-1.5.7-2 .4-.4 1.1-.7 1.9-.7.8 0 1.4.2 1.9.7.5.5.8 1.1.8 2.1v7h-1.5zm-.1-4.5h-.9c-.5 0-.8.1-1.1.4-.3.3-.4.8-.4 1.3 0 1 .4 1.6 1.2 1.6.7 0 1.2-.6 1.2-1.5V135zM343.8 139.5v-7.1c0-.9-.5-1.3-1.2-1.3-.6 0-1.1.4-1.1 1.3v7.1H340v-13.2h1.5v4.3c.1-.2.4-.4.5-.5.3-.2.6-.3 1-.3.7 0 1.2.2 1.6.7.4.4.6.9.6 2v7.1h-1.4zM350.9 139.5v-.9c-.1.3-.4.5-.6.6-.3.2-.6.4-1.1.4-.7 0-1.2-.2-1.7-.7-.4-.4-.6-1.2-.6-2.2 0-.9.3-1.7.9-2.2.5-.4 1-.6 2-.6h1v-1.5c0-.9-.4-1.4-1.1-1.4-.3 0-.6.1-.7.3-.3.3-.4.6-.4 1.1H347c0-.7.2-1.5.7-2 .4-.4 1.1-.7 1.9-.7.8 0 1.4.2 1.9.7.5.5.8 1.1.8 2.1v7h-1.4zm-.1-4.5h-.9c-.5 0-.8.1-1.1.4-.3.3-.4.8-.4 1.3 0 1 .4 1.6 1.2 1.6.7 0 1.2-.6 1.2-1.5V135zM359 138.9c-.4.5-.9.7-1.6.7-.4 0-.7-.1-1-.3-.2-.1-.5-.4-.6-.6v.7h-1.4v-13.2h1.5v4.3c.1-.2.4-.4.5-.5.3-.2.6-.3 1-.3.7 0 1.2.2 1.6.7.6.7.7 2 .7 4.2 0 2.3-.1 3.6-.7 4.3zm-1.2-7.4c-.2-.3-.5-.4-.8-.4-.3 0-.6.1-.8.3-.2.2-.4.6-.4 1.1v4.4c0 .5.1.9.4 1.1.2.2.5.3.8.3.3 0 .6-.1.8-.4.4-.5.4-1.5.4-3.2 0-1.7 0-2.7-.4-3.2zM366.2 138.9c-.4.5-.9.7-1.6.7-.4 0-.7-.1-1-.3-.2-.1-.5-.4-.6-.6v.7h-1.4v-13.2h1.5v4.3c.1-.2.4-.4.5-.5.3-.2.6-.3 1-.3.7 0 1.2.2 1.6.7.6.7.7 2 .7 4.2 0 2.3-.1 3.6-.7 4.3zm-1.2-7.4c-.2-.3-.5-.4-.8-.4-.3 0-.6.1-.8.3-.2.2-.4.6-.4 1.1v4.4c0 .5.1.9.4 1.1.2.2.5.3.8.3.3 0 .7-.1.8-.4.4-.5.4-1.5.4-3.2-.1-1.7-.1-2.7-.4-3.2zM372.2 139.5v-.9c-.1.3-.4.5-.6.6-.3.2-.6.4-1.1.4-.7 0-1.2-.2-1.7-.7-.4-.4-.6-1.2-.6-2.2 0-.9.3-1.7.9-2.2.5-.4 1-.6 2-.6h1v-1.5c0-.9-.4-1.4-1.1-1.4-.3 0-.6.1-.7.3-.3.3-.4.6-.4 1.1h-1.5c0-.7.2-1.5.7-2 .4-.4 1.1-.7 1.9-.7.8 0 1.4.2 1.9.7.5.5.8 1.1.8 2.1v7h-1.5zm-.1-4.5h-.9c-.5 0-.8.1-1.1.4-.3.3-.4.8-.4 1.3 0 1 .4 1.6 1.2 1.6.7 0 1.2-.6 1.2-1.5V135zM379.4 139.5v-7.1c0-.9-.5-1.3-1.2-1.3s-1.1.4-1.1 1.3v7.1h-1.5v-13.2h1.5v4.3c.1-.2.4-.4.5-.5.3-.2.6-.3 1-.3.7 0 1.2.2 1.6.7.4.4.6.9.6 2v7.1h-1.4zM388 139.1c-.3.3-.6.5-1.1.5-.3 0-.5-.1-.7-.2l-.4-.4v.5h-1v-8.8h1v2.8c.1-.1.2-.3.4-.4.2-.1.4-.2.7-.2.5 0 .8.2 1.1.5.4.5.5 1.3.5 2.8 0 1.6-.1 2.4-.5 2.9zm-.8-5c-.1-.2-.3-.3-.6-.3-.2 0-.4.1-.5.2-.2.2-.2.4-.2.7v2.9c0 .3.1.6.2.8.1.1.3.2.5.2s.4-.1.6-.3c.2-.3.2-1 .2-2.1.1-1.1.1-1.7-.2-2.1zM391.4 140.5c-.3 1.2-1.1 1.4-2.1 1.4v-.9c.6 0 1-.2 1.2-.7l.2-.8-1.6-6.4h1.1l1 4.8 1-4.8h1.1l-1.9 7.4zM398.4 131.6v7.9h-1.1v-7.9h-1.5v-1h4v1h-1.4zM403.3 139.5v-4.7c0-.6-.3-.9-.8-.9-.4 0-.8.3-.8.9v4.7h-1v-8.8h1v2.9c.1-.1.2-.3.4-.4.2-.1.4-.2.7-.2.5 0 .8.2 1.1.5.3.3.4.6.4 1.3v4.7h-1zM406.5 136.5c0 1 0 1.6.3 1.9.1.1.3.3.6.3.2 0 .4-.1.6-.2.1-.2.2-.4.2-.7h1c0 .6-.2 1-.5 1.4-.3.3-.8.5-1.3.5-.6 0-.9-.1-1.3-.5-.5-.5-.6-1.5-.6-2.8 0-1.3.1-2.3.6-2.8.3-.3.8-.5 1.3-.5s.9.1 1.3.5c.5.6.6 1.7.6 3h-2.8zm1.4-2.4c-.1-.1-.3-.3-.6-.3s-.4.1-.6.3c-.2.2-.3.8-.3 1.6h1.6c.1-.8.1-1.3-.1-1.6zM412.7 139.5v-8.8h1.1v8.8h-1.1zM417.6 141.9V139c-.1.1-.2.3-.4.4-.2.1-.4.2-.7.2-.5 0-.8-.2-1.1-.5-.4-.5-.5-1.3-.5-2.8 0-1.5.1-2.4.5-2.8.3-.3.6-.5 1.1-.5.3 0 .5.1.7.2l.4.4v-.5h1v8.8h-1zm0-7.1c0-.3-.1-.6-.3-.7-.1-.1-.3-.2-.5-.2s-.4.1-.5.3c-.2.3-.3 1-.3 2.1 0 1.2 0 1.8.3 2.1.1.2.3.3.5.3s.4 0 .5-.2c.2-.2.3-.4.3-.8v-2.9zM423.2 139.1c-.3.3-.6.5-1.1.5-.3 0-.5-.1-.7-.2l-.4-.4v.5h-1v-8.8h1v2.8c.1-.1.2-.3.4-.4.2-.1.4-.2.7-.2.5 0 .8.2 1.1.5.4.5.5 1.3.5 2.8-.1 1.6-.1 2.4-.5 2.9zm-.8-5c-.1-.2-.3-.3-.6-.3-.2 0-.4.1-.5.2-.2.2-.2.4-.2.7v2.9c0 .3.1.6.2.8.1.1.3.2.5.2s.4-.1.6-.3c.2-.3.2-1 .2-2.1s0-1.7-.2-2.1zM427.2 139.5v-.6c-.1.2-.2.3-.4.4-.2.1-.4.2-.8.2-.5 0-.8-.1-1.1-.5-.2-.3-.4-.8-.4-1.4 0-.6.2-1.1.6-1.4.3-.3.7-.4 1.4-.4h.7v-1c0-.6-.3-.9-.8-.9-.2 0-.4.1-.5.2-.2.2-.2.4-.2.7h-1c0-.5.1-1 .5-1.4.3-.3.7-.5 1.2-.5s1 .1 1.2.4c.3.3.5.8.5 1.4v4.7h-.9zm-.1-3h-.6c-.3 0-.5 0-.7.2-.2.2-.3.5-.3.9 0 .7.3 1.1.8 1.1s.8-.4.8-1v-1.2zM430 139.1c-.3-.3-.6-.7-.6-1.4v-7h1v6.9c0 .6.3 1 1 1v.9c-.6 0-1-.1-1.4-.4zM434.3 139.5v-.8l2.5-7.1h-2.3v-1h3.4v.8l-2.4 7.1h2.4v1h-3.6zM441.2 139.5v-.6c-.1.2-.2.3-.4.4-.2.1-.4.2-.8.2-.5 0-.8-.1-1.1-.5-.2-.3-.4-.8-.4-1.4 0-.6.2-1.1.6-1.4.3-.3.7-.4 1.4-.4h.7v-1c0-.6-.3-.9-.8-.9-.2 0-.4.1-.5.2-.2.2-.2.4-.2.7h-1c0-.5.1-1 .5-1.4.3-.3.7-.5 1.2-.5s1 .1 1.2.4c.3.3.5.8.5 1.4v4.7h-.9zm0-3h-.6c-.3 0-.5 0-.7.2-.2.2-.3.5-.3.9 0 .7.3 1.1.8 1.1s.8-.4.8-1v-1.2zM444.1 131.9c-.4 0-.7-.3-.7-.7s.3-.7.7-.7c.4 0 .7.3.7.7s-.4.7-.7.7zm-.6 7.6v-6.4h1v6.4h-1zM448.5 139.5v-4.7c0-.6-.3-.9-.8-.9-.4 0-.8.3-.8.9v4.7h-1v-6.4h1v.5l.4-.4c.2-.1.4-.2.7-.2.5 0 .8.2 1.1.5.3.3.4.6.4 1.3v4.7h-1zM457.4 139.5l-.6-.9c-.5.6-1 1-1.9 1-1.1 0-2-.8-2-2.2 0-1 .5-1.8 1.4-2.7-.7-1-1-1.5-1-2.2 0-1.1.7-1.9 1.7-1.9 1.1 0 1.7.8 1.7 1.8s-.4 1.7-1.2 2.5l1.3 2c.2-.5.4-1.2.5-1.9h.9c-.1 1-.4 2-.8 2.7l1.1 1.7h-1.1zm-2.6-4c-.7.7-1 1.2-1 1.8 0 .8.4 1.4 1.1 1.4.5 0 .9-.3 1.3-.9l-1.4-2.3zm.2-4c-.5 0-.8.5-.8.9s.2.8.7 1.6c.5-.5.8-.9.8-1.6.1-.5-.2-.9-.7-.9zM461.6 139.5v-8.8h3.4v1h-2.3v3h2v1h-2v3h2.3v1h-3.4zM468.4 134c-.7 0-1.2.4-1.2 1.2v4.4h-1v-6.4h1v.7c.1-.2.3-.3.4-.5.3-.2.6-.3 1.1-.3v1h-.3zM474.3 139.5h-1l-.9-4.7-.8 4.7h-1l-1.3-6.4h1.1l.7 4.8.9-4.8h.9l.9 4.8.7-4.8h1.1l-1.3 6.4zM478.7 139.5v-.6c-.1.2-.2.3-.4.4-.2.1-.4.2-.8.2-.5 0-.8-.1-1.1-.5-.2-.3-.4-.8-.4-1.4 0-.6.2-1.1.6-1.4.3-.3.7-.4 1.4-.4h.7v-1c0-.6-.3-.9-.8-.9-.2 0-.4.1-.5.2-.2.2-.2.4-.2.7h-1c0-.5.1-1 .5-1.4.3-.3.7-.5 1.2-.5s1 .1 1.2.4c.3.3.5.8.5 1.4v4.7h-.9zm0-3h-.6c-.3 0-.5 0-.7.2-.2.2-.3.5-.3.9 0 .7.3 1.1.8 1.1s.8-.4.8-1v-1.2zM483.6 139.5v-4.7c0-.6-.3-.9-.8-.9-.4 0-.8.3-.8.9v4.7h-1v-6.4h1v.5l.4-.4c.2-.1.4-.2.7-.2.5 0 .8.2 1.1.5.3.3.4.6.4 1.3v4.7h-1zM492.8 139.5v-6.3l-1.4 4.1h-.7l-1.4-4v6.2h-1.1v-8.8h1l1.8 4.9 1.8-4.9h1v8.8h-1zM497.9 139.5v-.5l-.4.4c-.2.1-.4.2-.7.2-.5 0-.8-.2-1.1-.5-.3-.3-.4-.6-.4-1.3v-4.7h1v4.7c0 .6.3.9.8.9.4 0 .8-.3.8-.9v-4.7h1v6.4h-1zM502.8 139.5v-4.7c0-.6-.3-.9-.8-.9-.4 0-.8.3-.8.9v4.7h-1v-8.8h1v2.9c.1-.1.2-.3.4-.4.2-.1.4-.2.7-.2.5 0 .8.2 1.1.5.3.3.4.6.4 1.3v4.7h-1zM505.7 131.9c-.4 0-.7-.3-.7-.7s.3-.7.7-.7c.4 0 .7.3.7.7s-.4.7-.7.7zm-.6 7.6v-6.4h1v6.4h-1zM510.7 139.1c-.3.3-.6.5-1.1.5-.3 0-.5-.1-.7-.2l-.4-.4v.5h-1v-8.8h1v2.8c.1-.1.2-.3.4-.4.2-.1.4-.2.7-.2.5 0 .8.2 1.1.5.4.5.5 1.3.5 2.8-.1 1.6-.1 2.4-.5 2.9zm-.8-5c-.1-.2-.3-.3-.6-.3-.2 0-.4.1-.5.2-.2.2-.2.4-.2.7v2.9c0 .3.1.6.2.8.1.1.3.2.5.2s.4-.1.6-.3c.2-.3.2-1 .2-2.1s0-1.7-.2-2.1zM515.5 139.1c-.3.3-.6.5-1.1.5-.3 0-.5-.1-.7-.2l-.4-.4v.5h-1v-8.8h1v2.8c.1-.1.2-.3.4-.4.2-.1.4-.2.7-.2.5 0 .8.2 1.1.5.4.5.5 1.3.5 2.8-.1 1.6-.1 2.4-.5 2.9zm-.8-5c-.1-.2-.3-.3-.6-.3-.2 0-.4.1-.5.2-.2.2-.2.4-.2.7v2.9c0 .3.1.6.2.8.1.1.3.2.5.2s.4-.1.6-.3c.2-.3.2-1 .2-2.1s0-1.7-.2-2.1zM519.5 139.5v-.6c-.1.2-.2.3-.4.4-.2.1-.4.2-.8.2-.5 0-.8-.1-1.1-.5-.2-.3-.4-.8-.4-1.4 0-.6.2-1.1.6-1.4.3-.3.7-.4 1.4-.4h.7v-1c0-.6-.3-.9-.8-.9-.2 0-.4.1-.5.2-.2.2-.2.4-.2.7h-1c0-.5.1-1 .5-1.4.3-.3.7-.5 1.2-.5s1 .1 1.2.4c.3.3.5.8.5 1.4v4.7h-.9zm-.1-3h-.6c-.3 0-.5 0-.7.2-.2.2-.3.5-.3.9 0 .7.3 1.1.8 1.1s.8-.4.8-1v-1.2zM522.3 131.9c-.4 0-.7-.3-.7-.7s.3-.7.7-.7c.4 0 .7.3.7.7s-.4.7-.7.7zm-.5 7.6v-6.4h1v6.4h-1zM526.7 139.5v-4.7c0-.6-.3-.9-.8-.9-.4 0-.8.3-.8.9v4.7h-1v-6.4h1v.5l.4-.4c.2-.1.4-.2.7-.2.5 0 .8.2 1.1.5.3.3.4.6.4 1.3v4.7h-1zM263 163.5c-.5.5-1.3.8-2.3.8-1 0-1.8-.3-2.3-.8-.6-.6-.8-1.4-.8-2.8h1.6c0 .9.1 1.4.4 1.7.2.2.6.4 1.1.4.5 0 .9-.2 1.1-.4.4-.4.4-.9.4-1.8 0-1.5-.2-2-1.3-2.4l-1.5-.6c-1.4-.6-1.8-1.3-1.8-3.3 0-1.2.3-2.1 1-2.7.5-.5 1.2-.8 2.1-.8 1 0 1.7.3 2.2.8.7.6.9 1.5.9 2.7h-1.6c0-.7-.1-1.2-.4-1.6-.2-.3-.6-.4-1.1-.4-.5 0-.8.2-1 .4-.3.4-.5.9-.5 1.6 0 1.3.2 1.7 1.3 2.1l1.5.6c1.5.6 1.9 1.5 1.9 3.6-.1 1.4-.3 2.3-.9 2.9zM266.9 159.8c0 1.5.1 2.4.4 2.8.2.2.4.4.8.4s.6-.1.9-.4c.2-.2.3-.6.3-1.1h1.5c0 .9-.2 1.6-.8 2.1-.5.5-1.2.7-1.9.7-.8 0-1.4-.2-1.9-.7-.7-.8-.9-2.2-.9-4.2s.1-3.5.8-4.2c.5-.5 1.1-.7 1.9-.7.8 0 1.4.2 1.9.7.8.9.8 2.5.8 4.6h-3.8zm2-3.6c-.2-.2-.5-.4-.9-.4s-.6.2-.8.4c-.3.4-.4 1.1-.4 2.4h2.5c0-1.3-.1-2-.4-2.4zM273.3 163.6c-.5-.4-.9-1.1-.9-2.2V151h1.5v10.4c0 .9.4 1.4 1.4 1.4v1.4c-.7 0-1.4-.1-2-.6zM280.3 164.2v-.9c-.1.3-.4.5-.6.6-.3.2-.6.4-1.1.4-.7 0-1.2-.2-1.7-.7-.4-.4-.6-1.2-.6-2.2 0-.9.3-1.7.9-2.2.5-.4 1-.6 2-.6h1v-1.5c0-.9-.4-1.4-1.1-1.4-.3 0-.6.1-.7.3-.3.3-.4.6-.4 1.1h-1.5c0-.7.2-1.5.7-2 .4-.4 1.1-.7 1.9-.7.8 0 1.4.2 1.9.7.5.5.8 1.1.8 2.1v7h-1.5zm-.1-4.4h-.9c-.5 0-.8.1-1.1.4-.3.3-.4.8-.4 1.3 0 1 .4 1.6 1.2 1.6.7 0 1.2-.6 1.2-1.5v-1.8zM291.3 164.2v-7.1c0-.9-.5-1.3-1.1-1.3-.6 0-1.1.4-1.1 1.3v7.1h-1.5v-7.1c0-.9-.5-1.3-1.2-1.3-.6 0-1.1.4-1.1 1.3v7.1h-1.5v-9.6h1.4v.7c.1-.2.4-.5.6-.6.3-.2.6-.3 1-.3.7 0 1.4.4 1.8 1 .2-.3.5-.5.8-.7.3-.2.7-.3 1.1-.3.8 0 1.3.2 1.7.7.4.4.6.9.6 2v7.1h-1.5zM298.3 164.2v-.9c-.1.3-.4.5-.6.6-.3.2-.6.4-1.1.4-.7 0-1.2-.2-1.7-.7-.4-.4-.6-1.2-.6-2.2 0-.9.3-1.7.9-2.2.5-.4 1-.6 2-.6h1v-1.5c0-.9-.4-1.4-1.1-1.4-.3 0-.6.1-.7.3-.3.3-.4.6-.4 1.1h-1.5c0-.7.2-1.5.7-2 .4-.4 1.1-.7 1.9-.7.8 0 1.4.2 1.9.7.5.5.8 1.1.8 2.1v7h-1.5zm0-4.4h-.9c-.5 0-.8.1-1.1.4-.3.3-.4.8-.4 1.3 0 1 .4 1.6 1.2 1.6.7 0 1.2-.6 1.2-1.5v-1.8zM303 163.6c-.5-.4-.8-1.2-.8-2.2v-5.7h-1.1v-1.2h1.1V152h1.5v2.6h1.5v1.2h-1.5v5.6c0 1 .5 1.4 1.5 1.4v1.4c-.9 0-1.6-.1-2.2-.6zM315.5 163.3c-.5.5-1.2.9-2.3.9h-3.1V151h3.1c1.1 0 1.8.4 2.3.9.9 1 .9 2.4.9 5.7.1 3.3.1 4.7-.9 5.7zm-1.2-10.4c-.2-.3-.6-.5-1.1-.5h-1.4v10.4h1.4c.5 0 .9-.2 1.1-.5.5-.6.5-1.7.5-4.7.1-3 0-4-.5-4.7zM321.9 164.2v-.9c-.1.3-.4.5-.6.6-.3.2-.6.4-1.1.4-.7 0-1.2-.2-1.7-.7-.4-.4-.6-1.2-.6-2.2 0-.9.3-1.7.9-2.2.5-.4 1-.6 2-.6h1v-1.5c0-.9-.4-1.4-1.1-1.4-.3 0-.6.1-.7.3-.3.3-.4.6-.4 1.1h-1.5c0-.7.2-1.5.7-2 .4-.4 1.1-.7 1.9-.7.8 0 1.4.2 1.9.7.5.5.8 1.1.8 2.1v7h-1.5zm-.1-4.4h-.8c-.5 0-.8.1-1.1.4-.3.3-.4.8-.4 1.3 0 1 .4 1.6 1.2 1.6.7 0 1.2-.6 1.2-1.5v-1.8zM326.5 163.6c-.5-.4-.8-1.2-.8-2.2v-5.7h-1.1v-1.2h1.1V152h1.5v2.6h1.5v1.2h-1.5v5.6c0 1 .5 1.4 1.5 1.4v1.4c-.8 0-1.5-.1-2.2-.6zM333.7 164.2v-.9c-.1.3-.4.5-.6.6-.3.2-.6.4-1.1.4-.7 0-1.2-.2-1.6-.7-.4-.4-.6-1.2-.6-2.2 0-.9.3-1.7.9-2.2.5-.4 1-.6 2-.6h1v-1.5c0-.9-.4-1.4-1.1-1.4-.3 0-.6.1-.7.3-.3.3-.4.6-.4 1.1H330c0-.7.2-1.5.7-2 .4-.4 1.1-.7 1.9-.7.8 0 1.4.2 1.9.7.5.5.8 1.1.8 2.1v7h-1.6zm-.1-4.4h-.9c-.5 0-.8.1-1.1.4-.3.3-.4.8-.4 1.3 0 1 .4 1.6 1.2 1.6.7 0 1.2-.6 1.2-1.5v-1.8zM340.9 164.2v-7.1c0-.9-.5-1.3-1.2-1.3-.6 0-1.1.4-1.1 1.3v7.1h-1.5v-9.6h1.4v.7c.1-.2.4-.5.6-.6.3-.2.6-.3 1-.3.7 0 1.2.2 1.6.7.4.4.6.9.6 2v7.1h-1.4zM348.7 167.2c-.4.5-1.2.7-1.9.7s-1.4-.2-1.9-.7c-.5-.5-.7-1.2-.7-2.1h1.5c0 .5.1.9.3 1.2.2.2.5.3.8.3.4 0 .6-.1.8-.4.3-.3.4-.8.4-1.7v-1.4c-.1.2-.4.4-.5.6-.3.2-.6.3-1 .3-.7 0-1.2-.2-1.6-.7-.6-.7-.8-1.8-.8-4s.2-3.4.8-4c.4-.5.8-.7 1.6-.7.4 0 .7.1 1 .3.2.1.4.3.5.5v-.7h1.5v9.9c0 1.3-.2 2-.8 2.6zm-.7-10c0-.5-.1-.9-.4-1.1-.2-.2-.5-.3-.8-.3-.4 0-.6.2-.8.4-.4.4-.4 1.4-.4 3s0 2.5.4 3c.2.2.4.4.8.4.3 0 .6-.1.8-.3.2-.2.4-.6.4-1.1v-4zM360.3 164.2l-2.3-6-1.2 2.3v3.7h-1.6V151h1.6v6.7l3.2-6.7h1.6l-2.7 5.5 3.1 7.8h-1.7zM364.4 159.8c0 1.5.1 2.4.4 2.8.2.2.4.4.8.4s.6-.1.9-.4c.2-.2.3-.6.3-1.1h1.5c0 .9-.2 1.6-.8 2.1-.5.5-1.2.7-1.9.7-.8 0-1.4-.2-1.9-.7-.7-.8-.9-2.2-.9-4.2s.1-3.5.8-4.2c.5-.5 1.1-.7 1.9-.7.8 0 1.4.2 1.9.7.8.9.8 2.5.8 4.6h-3.8zm2.1-3.6c-.2-.2-.5-.4-.9-.4s-.6.2-.8.4c-.3.4-.4 1.1-.4 2.4h2.4c.1-1.3 0-2-.3-2.4zM378.3 164.2v-6h-2.9v6h-1.6V151h1.6v5.8h2.9V151h1.6v13.2h-1.6zM385.6 164.2v-.9c-.1.3-.4.5-.6.6-.3.2-.6.4-1.1.4-.7 0-1.2-.2-1.7-.7-.4-.4-.6-1.2-.6-2.2 0-.9.3-1.7.9-2.2.5-.4 1-.6 2-.6h1v-1.5c0-.9-.4-1.4-1.1-1.4-.3 0-.6.1-.7.3-.3.3-.4.6-.4 1.1h-1.5c0-.7.2-1.5.7-2 .4-.4 1.1-.7 1.9-.7.8 0 1.4.2 1.9.7.5.5.8 1.1.8 2.1v7h-1.5zm-.1-4.4h-.9c-.5 0-.8.1-1.1.4-.3.3-.4.8-.4 1.3 0 1 .4 1.6 1.2 1.6.7 0 1.2-.6 1.2-1.5v-1.8zM390.3 163.6c-.5-.4-.8-1.2-.8-2.2v-5.7h-1.1v-1.2h1.1V152h1.5v2.6h1.5v1.2H391v5.6c0 1 .5 1.4 1.5 1.4v1.4c-.9 0-1.6-.1-2.2-.6zM394.6 152.8c-.6 0-1-.4-1-1s.4-1 1-1 1 .4 1 1-.4 1-1 1zm-.7 11.4v-9.6h1.5v9.6h-1.5zM401.9 164.2l-1.8-4.5-1 1.7v2.9h-1.5V151h1.5v8.2l2.7-4.6h1.6l-2.3 3.7 2.6 5.9h-1.8zM408.6 164.2v-.7c-.1.2-.4.5-.6.6-.3.2-.6.3-1 .3-.7 0-1.2-.2-1.6-.7-.4-.4-.6-.9-.6-2v-7.1h1.5v7.1c0 .9.5 1.3 1.2 1.3.6 0 1.1-.4 1.1-1.3v-7.1h1.5v9.6h-1.5z"/></g><g fill="#BF2645"><path d="M243.4 15.4c-.4.3-.9.5-1.5.5s-1.1-.2-1.5-.5c-.4-.4-.6-.8-.6-1.6V9.3c0-.8.2-1.2.6-1.6.4-.3.9-.5 1.5-.5s1.1.2 1.5.5c.4.4.6.8.6 1.6v4.5c0 .8-.2 1.2-.6 1.6zm-.6-6.2c0-.7-.4-1-.9-1s-.9.3-.9 1v4.6c0 .7.4 1 .9 1s.9-.3.9-1V9.2zM248.8 15.4c-.3.4-.9.6-1.5.6s-1.1-.2-1.5-.6c-.5-.5-.6-1.1-.6-2.4 0-1.1.1-1.6.3-2 .1-.2.3-.4.6-.6l-.6-.6c-.2-.4-.3-.8-.3-1.7 0-1.1.1-1.7.6-2.2.3-.3.8-.5 1.4-.5.6 0 1.1.2 1.4.5.5.5.6 1.1.6 2.2 0 .8-.1 1.3-.3 1.7-.1.2-.3.4-.6.6.2.2.5.4.6.6.3.4.3.9.3 2 .2 1.3.1 1.8-.4 2.4zm-.9-4.2c-.2-.2-.4-.3-.6-.3-.2 0-.5.1-.6.3-.3.3-.3.8-.3 1.7 0 .9.1 1.4.3 1.7.1.2.4.3.6.3.2 0 .5-.1.6-.3.2-.3.3-.8.3-1.7 0-1 0-1.4-.3-1.7zm0-4.5c-.1-.2-.3-.2-.6-.2-.2 0-.4.1-.6.2-.2.3-.3.7-.3 1.5 0 .7 0 1.2.3 1.5.1.1.3.2.5.2s.4-.1.5-.2c.3-.3.3-.8.3-1.5.2-.7.1-1.2-.1-1.5zM243.4 40.1c-.4.3-.9.5-1.5.5s-1.1-.2-1.5-.5c-.4-.4-.6-.8-.6-1.6V34c0-.8.2-1.2.6-1.6.4-.3.9-.5 1.5-.5s1.1.2 1.5.5c.4.4.6.8.6 1.6v4.5c0 .8-.2 1.3-.6 1.6zm-.6-6.2c0-.7-.4-1-.9-1s-.9.3-.9 1v4.6c0 .7.4 1 .9 1s.9-.3.9-1v-4.6zM249 37.7l-1.7 4.6H246l1.7-4.3c-.2.2-.5.2-.7.2-.5 0-1-.2-1.3-.6-.4-.4-.5-.9-.5-2.6 0-1.5.1-2 .5-2.5s1-.7 1.6-.7c.7 0 1.2.3 1.6.7.4.5.5 1.1.5 2.5 0 1.1-.2 1.9-.4 2.7zm-1.1-4.5c-.2-.2-.4-.3-.6-.3-.3 0-.5.1-.6.3-.3.3-.3 1-.3 1.9 0 .9 0 1.5.3 1.9.2.2.4.3.6.3.2 0 .5-.1.6-.3.3-.3.3-1 .3-1.9 0-.9 0-1.5-.3-1.9zM241.4 65.3v-7.2l-1.5 1.2v-1.4l1.5-1.2h1.2v8.6h-1.2zM247.9 64.9c-.4.3-.9.5-1.5.5s-1.1-.2-1.5-.5c-.4-.4-.6-.8-.6-1.6v-4.5c0-.8.2-1.2.6-1.6.4-.3.9-.5 1.5-.5s1.1.2 1.5.5c.4.4.6.8.6 1.6v4.5c0 .7-.2 1.2-.6 1.6zm-.6-6.2c0-.7-.4-1-.9-1s-.9.3-.9 1v4.6c0 .7.4 1 .9 1s.9-.3.9-1v-4.6zM241.4 90v-7.2l-1.5 1.2v-1.4l1.5-1.2h1.2V90h-1.2zM245.9 90v-7.2l-1.5 1.2v-1.4l1.5-1.2h1.2V90h-1.2zM241.4 114.7v-7.2l-1.5 1.2v-1.4l1.5-1.2h1.2v8.6h-1.2zM244.3 114.7v-1l2.5-3.7c.5-.7.5-1.1.5-1.9 0-.7-.4-1-.9-1s-.9.3-.9 1v.6h-1.2v-.6c0-.7.2-1.2.6-1.6.4-.3.9-.5 1.5-.5s1.1.2 1.4.5c.4.3.6.8.6 1.6 0 1-.2 1.6-.7 2.3l-2.1 3.1h2.9v1.1h-4.2zM241.4 139.5v-7.2l-1.5 1.2v-1.4l1.5-1.2h1.2v8.6h-1.2zM247.8 140.7c-.3.3-.9.5-1.5.5s-1.1-.2-1.5-.5c-.4-.4-.6-.8-.6-1.6v-.7h1.2v.7c0 .7.4 1 .9 1 .3 0 .5-.1.6-.3.2-.3.3-.8.3-1.7 0-1-.1-1.4-.3-1.7-.1-.2-.4-.3-.6-.3h-.5v-1h.5c.2 0 .4-.1.6-.2.2-.3.3-.7.3-1.5 0-.7 0-1.2-.3-1.4-.1-.2-.3-.2-.6-.2-.5 0-.8.3-.8 1v.7h-1.2v-.7c0-.8.2-1.2.6-1.6.4-.3.9-.5 1.4-.5.6 0 1.1.2 1.4.5.4.4.6 1 .6 2.1 0 .9-.1 1.3-.3 1.7-.1.2-.3.4-.6.6.2.2.4.3.6.6.3.5.3.9.3 2 .1 1.3.1 2-.5 2.5zM241.4 164.2V157l-1.5 1.2v-1.4l1.5-1.2h1.2v8.6h-1.2zM248.1 163.8v2.2H247v-2.2h-2.8v-1.1l2.6-7.6h1.1l-2.6 7.6h1.6v-2.3h1.2v2.3h.8v1.1h-.8z"/></g><path stroke="#808184" stroke-width=".25" stroke-miterlimit="10" fill="none" d="M227.3 0v217.5"/></svg>