<svg xmlns="http://www.w3.org/2000/svg" viewBox="0 0 527.7 217.5" enable-background="new 0 0 527.7 217.5"><path d="M10.9 53.5v11.8H9.3V53.5H7.1v-1.4h6v1.4h-2.2zm7.5 11.8v-7.1c0-.9-.5-1.3-1.2-1.3-.6 0-1.1.4-1.1 1.3v7.1h-1.5V52.1h1.5v4.3c.1-.2.4-.4.5-.5.3-.2.6-.3 1-.3.7 0 1.2.2 1.6.7.4.4.6.9.6 2v7.1h-1.4zm4.7-4.5c0 1.5.1 2.4.4 2.8.2.2.4.4.8.4s.6-.1.9-.4c.2-.2.3-.6.3-1.1H27c0 .9-.2 1.6-.8 2.1-.5.5-1.2.7-1.9.7-.8 0-1.4-.2-1.9-.7-.7-.8-.9-2.2-.9-4.2s.1-3.5.8-4.2c.5-.5 1.1-.7 1.9-.7.8 0 1.4.2 1.9.7.8.9.8 2.5.8 4.6h-3.8zm2.1-3.5c-.2-.2-.5-.4-.9-.4s-.6.2-.8.4c-.3.4-.4 1.1-.4 2.4h2.4c.1-1.3 0-2.1-.3-2.4zm6.6 8v-1.2l3.7-10.6H32v-1.4h5.1v1.2l-3.7 10.6h3.7v1.4h-5.3zm7.7-11.4c-.6 0-1-.4-1-1s.4-1 1-1 1 .4 1 1c0 .5-.4 1-1 1zm-.7 11.4v-9.6h1.5v9.6h-1.5zm8 0L45 60.8l-1 1.7v2.9h-1.5V52.1H44v8.2l2.7-4.6h1.6L46 59.4l2.6 5.9h-1.8zm3.7-11.4c-.6 0-1-.4-1-1s.4-1 1-1 1 .4 1 1c-.1.5-.5 1-1 1zm-.8 11.4v-9.6h1.5v9.6h-1.5zm6.9-8.3c-1 0-1.7.7-1.7 1.8v6.6h-1.5v-9.6h1.4v1c.1-.3.4-.5.7-.7.4-.3 1-.5 1.6-.5V57h-.5zm5 2.7v5.6h-1v-5.6h-.7v-.8h.7v-.6c0-.7.2-1.1.6-1.4.4-.3.9-.4 1.4-.4v.9c-.7 0-1 .3-1 1v.6h1v.8h-1zm2.5 2.6c0 1 0 1.6.3 1.9.1.1.3.3.6.3.2 0 .4-.1.6-.2.1-.2.2-.4.2-.7h1c0 .6-.2 1-.5 1.4-.3.3-.8.5-1.3.5-.6 0-.9-.1-1.3-.5-.5-.5-.6-1.5-.6-2.8 0-1.3.1-2.3.6-2.8.3-.3.8-.5 1.3-.5s.9.1 1.3.5c.5.6.6 1.7.6 3h-2.8zm1.4-2.3c-.1-.1-.3-.3-.6-.3s-.4.1-.6.3c-.2.2-.3.8-.3 1.6h1.6c.2-.9.1-1.4-.1-1.6zm4.8 5.3v-.6c-.1.2-.2.3-.4.4-.2.1-.4.2-.8.2-.5 0-.8-.1-1.1-.5-.2-.3-.4-.8-.4-1.4 0-.6.2-1.1.6-1.4.3-.3.7-.4 1.4-.4h.7v-1c0-.6-.3-.9-.8-.9-.2 0-.4.1-.5.2-.2.2-.2.4-.2.7h-1c0-.5.1-1 .5-1.4.3-.3.7-.5 1.2-.5s1 .1 1.2.4c.3.3.5.8.5 1.4v4.7h-.9zm-.1-3h-.6c-.3 0-.5 0-.7.2-.2.2-.3.5-.3.9 0 .7.3 1.1.8 1.1s.8-.4.8-1v-1.2zm3.2 2.6c-.4-.3-.6-.8-.6-1.4v-3.8h-.7v-.8h.7v-1.8h1v1.8h1v.8h-1v3.8c0 .7.4 1 1 1v.9c-.5-.1-1-.2-1.4-.5zm4.9.4v-.5l-.4.4c-.2.1-.4.2-.7.2-.5 0-.8-.2-1.1-.5-.3-.3-.4-.6-.4-1.3v-4.7h1v4.7c0 .6.3.9.8.9.4 0 .8-.3.8-.9v-4.7h1v6.4h-1zm4.6-5.5c-.7 0-1.2.4-1.2 1.2v4.4h-1V59h1v.7c.1-.2.3-.3.4-.5.3-.2.6-.3 1.1-.3v1h-.3zm1.7-2.1c-.4 0-.7-.3-.7-.7 0-.4.3-.7.7-.7s.7.3.7.7c-.1.4-.4.7-.7.7zm-.6 7.6v-6.4h1v6.4h-1zm5 0v-4.7c0-.6-.3-.9-.8-.9-.4 0-.8.3-.8.9v4.7h-1v-6.4h1v.5l.4-.4c.2-.1.4-.2.7-.2.5 0 .8.2 1.1.5.3.3.4.6.4 1.3v4.7h-1zm5.2 2c-.3.3-.8.5-1.3.5s-1-.1-1.3-.5c-.4-.4-.5-.8-.5-1.4h1c0 .3 0 .6.2.8.1.1.3.2.5.2s.4-.1.5-.2c.2-.2.2-.5.2-1.1v-1c-.1.1-.2.3-.4.4-.2.1-.4.2-.7.2-.5 0-.8-.1-1.1-.5-.4-.5-.5-1.2-.5-2.7 0-1.5.1-2.2.5-2.7.3-.3.6-.5 1.1-.5.3 0 .5.1.7.2.1.1.3.2.4.4v-.5h1v6.6c.2.9.1 1.4-.3 1.8zm-.5-6.7c0-.3-.1-.6-.2-.7-.1-.1-.3-.2-.5-.2s-.4.1-.5.3c-.2.3-.3.9-.3 2s0 1.7.3 2c.1.2.3.3.5.3s.4-.1.5-.2c.1-.2.2-.4.2-.7v-2.8zm6.8-3.2v7.9h-1.1v-7.9H98v-1h4v1h-1.5zm5 7.9v-4.7c0-.6-.3-.9-.8-.9-.4 0-.8.3-.8.9v4.7h-1v-8.8h1v2.9c.1-.1.2-.3.4-.4.2-.1.4-.2.7-.2.5 0 .8.2 1.1.5.3.3.4.6.4 1.3v4.7h-1zm3.1-3c0 1 0 1.6.3 1.9.1.1.3.3.6.3.2 0 .4-.1.6-.2.1-.2.2-.4.2-.7h1c0 .6-.2 1-.5 1.4-.3.3-.8.5-1.3.5-.6 0-.9-.1-1.3-.5-.5-.5-.6-1.5-.6-2.8 0-1.3.1-2.3.6-2.8.3-.3.8-.5 1.3-.5s.9.1 1.3.5c.5.6.6 1.7.6 3h-2.8zM110 60c-.1-.1-.3-.3-.6-.3s-.4.1-.6.3c-.2.2-.3.8-.3 1.6h1.6c.2-.9.1-1.4-.1-1.6zm7.9 5.3v-4h-2v4h-1.1v-8.8h1.1v3.8h2v-3.8h1.1v8.8h-1.1zm4.9 0v-.6c-.1.2-.2.3-.4.4-.2.1-.4.2-.8.2-.5 0-.8-.1-1.1-.5-.2-.3-.4-.8-.4-1.4 0-.6.2-1.1.6-1.4.3-.3.7-.4 1.4-.4h.7v-1c0-.6-.3-.9-.8-.9-.2 0-.4.1-.5.2-.2.2-.2.4-.2.7h-1c0-.5.1-1 .5-1.4.3-.3.7-.5 1.2-.5s1 .1 1.2.4c.3.3.5.8.5 1.4v4.7h-.9zm-.1-3h-.6c-.3 0-.5 0-.7.2-.2.2-.3.5-.3.9 0 .7.3 1.1.8 1.1s.8-.4.8-1v-1.2zm5.5 2.6c-.3.3-.6.5-1.1.5-.3 0-.5-.1-.7-.2l-.4-.4v.5h-1v-8.8h1v2.8c.1-.1.2-.3.4-.4.2-.1.4-.2.7-.2.5 0 .8.2 1.1.5.4.5.5 1.3.5 2.8-.1 1.6-.1 2.4-.5 2.9zm-.8-4.9c-.1-.2-.3-.3-.6-.3-.2 0-.4.1-.5.2-.2.2-.2.4-.2.7v2.9c0 .3.1.6.2.8.1.1.3.2.5.2s.4-.1.6-.3c.2-.3.2-1 .2-2.1 0-1.2 0-1.8-.2-2.1zm5.3 4.9c-.3.4-.8.5-1.3.5s-1-.2-1.3-.5c-.4-.4-.5-.8-.5-1.4h1c0 .3.1.6.3.8.1.1.4.2.6.2.3 0 .4-.1.6-.2.1-.1.2-.4.2-.6 0-.2 0-.4-.2-.6-.1-.2-.3-.3-.6-.5l-.8-.4c-.4-.2-.7-.5-.9-.7-.1-.2-.2-.5-.2-.8 0-.6.2-1 .5-1.3.3-.3.8-.5 1.3-.5s.9.1 1.3.5c.3.3.5.8.5 1.4h-1c0-.4-.1-.6-.2-.8-.1-.2-.3-.2-.5-.2s-.4.1-.6.2c-.2.2-.2.4-.2.6 0 .2 0 .3.1.5.1.1.3.3.5.4l.8.4c.4.2.7.4.9.7.2.3.3.6.3 1-.1.5-.3 1-.6 1.3zm3.3 1.4c-.3 1.2-1.1 1.4-2.1 1.4v-.9c.6 0 1-.2 1.2-.7l.2-.8-1.6-6.4h1.1l1 4.8 1-4.8h1.1l-1.9 7.4zm3.1-8.6c-.4 0-.7-.3-.7-.7 0-.4.3-.7.7-.7s.7.3.7.7c-.1.4-.4.7-.7.7zm-.5 7.6v-6.4h1v6.4h-1zm9 0l-.6-.9c-.5.6-1 1-1.9 1-1.1 0-2-.8-2-2.2 0-1 .5-1.8 1.4-2.7-.7-1-1-1.5-1-2.2 0-1.1.7-1.9 1.7-1.9 1.2 0 1.7.8 1.7 1.8s-.4 1.7-1.2 2.5l1.3 2c.2-.5.4-1.2.5-1.9h.9c-.1 1-.4 2-.8 2.7l1.1 1.7h-1.1zm-2.7-4c-.7.7-1 1.2-1 1.8 0 .8.4 1.4 1.1 1.4.5 0 .9-.3 1.3-.9l-1.4-2.3zm.2-4c-.5 0-.8.5-.8.9s.2.8.7 1.6c.5-.5.8-.9.8-1.6.1-.5-.2-.9-.7-.9zm8.7.1v7.9h-1.1v-7.9h-1.5v-1h4v1h-1.4zm4.9 7.9v-4.7c0-.6-.3-.9-.8-.9-.4 0-.8.3-.8.9v4.7h-1v-8.8h1v2.9c.1-.1.2-.3.4-.4.2-.1.4-.2.7-.2.5 0 .8.2 1.1.5.3.3.4.6.4 1.3v4.7h-1zm3.2-3c0 1 0 1.6.3 1.9.1.1.3.3.6.3.2 0 .4-.1.6-.2.1-.2.2-.4.2-.7h1c0 .6-.2 1-.5 1.4-.3.3-.8.5-1.3.5-.6 0-.9-.1-1.3-.5-.5-.5-.6-1.5-.6-2.8 0-1.3.1-2.3.6-2.8.3-.3.8-.5 1.3-.5s.9.1 1.3.5c.5.6.6 1.7.6 3h-2.8zm1.4-2.3c-.1-.1-.3-.3-.6-.3s-.4.1-.6.3c-.2.2-.3.8-.3 1.6h1.6c.1-.9.1-1.4-.1-1.6zm4.8 5.3v-8.8h1.1v7.9h2.3v1h-3.4zm6.9 0v-.5l-.4.4c-.2.1-.4.2-.7.2-.5 0-.8-.2-1.1-.5-.3-.3-.4-.6-.4-1.3v-4.7h1v4.7c0 .6.3.9.8.9.4 0 .8-.3.8-.9v-4.7h1v6.4h-1zm4.8 2.4v-2.8c-.1.1-.2.3-.4.4-.2.1-.4.2-.7.2-.5 0-.8-.2-1.1-.5-.4-.5-.5-1.3-.5-2.8 0-1.5.1-2.4.5-2.8.3-.3.6-.5 1.1-.5.3 0 .5.1.7.2l.4.4V59h1v8.8h-1zm0-7.1c0-.3-.1-.6-.3-.7-.1-.1-.3-.2-.5-.2s-.4.1-.5.3c-.2.3-.3 1-.3 2.1 0 1.2 0 1.8.3 2.1.1.2.3.3.5.3s.4 0 .5-.2c.2-.2.3-.4.3-.8v-2.9zm7.4 4.7v-4.7c0-.6-.3-.9-.8-.9-.4 0-.8.3-.8.9v4.7h-1v-4.7c0-.6-.3-.9-.8-.9-.4 0-.8.3-.8.9v4.7h-1v-6.4h1v.5l.4-.4c.2-.1.4-.2.7-.2.5 0 1 .3 1.2.7.1-.2.3-.4.5-.5.2-.1.5-.2.7-.2.6 0 .9.2 1.2.5.3.3.4.6.4 1.3v4.7h-.9zm4.7 0v-.6c-.1.2-.2.3-.4.4-.2.1-.4.2-.8.2-.5 0-.8-.1-1.1-.5-.2-.3-.4-.8-.4-1.4 0-.6.2-1.1.6-1.4.3-.3.7-.4 1.4-.4h.7v-1c0-.6-.3-.9-.8-.9-.2 0-.4.1-.5.2-.2.2-.2.4-.2.7h-1c0-.5.1-1 .5-1.4.3-.3.7-.5 1.2-.5s1 .1 1.2.4c.3.3.5.8.5 1.4v4.7h-.9zm0-3h-.6c-.3 0-.5 0-.7.2-.2.2-.3.5-.3.9 0 .7.3 1.1.8 1.1s.8-.4.8-1v-1.2zm4.9 3v-4.7c0-.6-.3-.9-.8-.9-.4 0-.8.3-.8.9v4.7h-1v-6.4h1v.5l.4-.4c.2-.1.4-.2.7-.2.5 0 .8.2 1.1.5.3.3.4.6.4 1.3v4.7h-1zM3.8 78.2V90H2.2V78.2H0v-1.4h6v1.4H3.8zM11.3 90v-7c0-.9-.5-1.3-1.2-1.3-.6-.1-1.1.4-1.1 1.3v7H7.5V76.8H9v4.3c.1-.2.4-.4.5-.5.3-.2.6-.3 1-.3.7 0 1.2.2 1.6.7.4.4.6.9.6 2v7h-1.4zm4.7-4.4c0 1.5.1 2.4.4 2.8.2.2.4.4.8.4s.6-.1.9-.4c.2-.2.3-.6.3-1.1h1.5c0 .9-.2 1.6-.8 2.1-.5.5-1.2.7-1.9.7-.8 0-1.4-.2-1.9-.7-.7-.8-.9-2.2-.9-4.2s.1-3.5.8-4.2c.5-.5 1.1-.7 1.9-.7.8 0 1.4.2 1.9.7.8.9.8 2.5.8 4.6H16zm2.1-3.6c-.2-.2-.5-.4-.9-.4s-.6.2-.8.4c-.3.4-.4 1.1-.4 2.4h2.4c0-1.3 0-2-.3-2.4zm10.2 2.5h-1.4V90h-1.6V76.8h3c2 0 3.1.9 3.1 3.8 0 2.8-.9 3.9-3.1 3.9zm0-6.3h-1.4v4.9h1.4c1.2 0 1.5-1 1.5-2.4 0-1.5-.3-2.5-1.5-2.5zm5.8 7.4c0 1.5.1 2.4.4 2.8.2.2.4.4.8.4s.6-.1.9-.4c.2-.2.3-.6.3-1.1H38c0 .9-.2 1.6-.8 2.1-.5.5-1.2.7-1.9.7-.8 0-1.4-.2-1.9-.7-.7-.8-.9-2.2-.9-4.2s.1-3.5.8-4.2c.5-.5 1.1-.7 1.9-.7.8 0 1.4.2 1.9.7.8.9.8 2.5.8 4.6h-3.8zm2.1-3.6c-.2-.2-.5-.4-.9-.4s-.6.2-.8.4c-.3.4-.4 1.1-.4 2.4h2.4c.1-1.3 0-2-.3-2.4zm6.9-.3c-1 0-1.7.7-1.7 1.8V90h-1.5v-9.6h1.4v1c.1-.3.4-.5.7-.7.4-.3 1-.5 1.6-.5v1.4h-.5zm3.6-.1V90h-1.5v-8.4h-1.1v-1.2h1.1v-.9c0-1 .3-1.7.8-2.1.6-.5 1.3-.6 2.2-.6v1.4c-1 0-1.5.5-1.5 1.4v.9h1.5v1.2h-1.5zm3.9 4c0 1.5.1 2.4.4 2.8.2.2.4.4.8.4s.6-.1.9-.4c.2-.2.3-.6.3-1.1h1.5c0 .9-.2 1.6-.8 2.1-.5.5-1.2.7-1.9.7-.8 0-1.4-.2-1.9-.7-.7-.8-.9-2.2-.9-4.2s.1-3.5.8-4.2c.5-.5 1.1-.7 1.9-.7.8 0 1.4.2 1.9.7.8.9.8 2.5.8 4.6h-3.8zm2.1-3.6c-.2-.2-.5-.4-.9-.4s-.6.2-.8.4c-.3.4-.4 1.1-.4 2.4H53c.1-1.3 0-2-.3-2.4zm7.9 7.5c-.4.5-1.1.7-1.9.7-.8 0-1.5-.2-2-.9-.6-.8-.7-2.1-.7-4.1 0-1.9.1-3.3.7-4.1.5-.6 1.2-.9 2-.9s1.4.1 1.9.6c.6.6.7 1.4.8 2.2h-1.5c0-.4 0-.8-.3-1.1-.2-.2-.5-.4-.8-.4-.4 0-.7.1-.9.4-.4.5-.4 1.5-.4 3.2 0 1.7 0 2.7.4 3.2.2.3.5.4.9.4s.6-.1.8-.4c.3-.3.3-.7.3-1.1h1.5c0 1.1-.3 1.8-.8 2.3zm3.6-.1c-.5-.4-.8-1.2-.8-2.2v-5.7h-1.1v-1.2h1.1v-2.6h1.5v2.6h1.5v1.2h-1.5v5.6c0 1 .5 1.4 1.5 1.4V90c-.8 0-1.6-.1-2.2-.6zm4.4-10.8c-.6 0-1-.4-1-1s.4-1 1-1 1 .4 1 1-.4 1-1 1zM67.9 90v-9.6h1.5V90h-1.5zm8-.7c-.5.6-1.2.9-2 .9-.9 0-1.5-.2-2-.9-.6-.8-.7-2.1-.7-4.1 0-1.9.1-3.3.7-4.1.5-.6 1.2-.9 2-.9.9 0 1.6.2 2 .9.6.8.7 2.1.7 4.1 0 2-.1 3.3-.7 4.1zM74.7 82c-.2-.3-.5-.4-.9-.4s-.6.1-.8.4c-.4.5-.4 1.5-.4 3.2 0 1.7 0 2.7.4 3.2.2.3.5.4.8.4.4 0 .7-.1.9-.4.4-.5.4-1.5.4-3.2 0-1.7 0-2.7-.4-3.2zm7.5 8v-7c0-.9-.5-1.3-1.2-1.3-.6 0-1.1.4-1.1 1.3v7h-1.5v-9.6h1.4v.7c.1-.2.4-.5.6-.6.3-.2.6-.3 1-.3.7 0 1.2.2 1.6.7.4.4.6.9.6 2V90h-1.4zm11.5-.7c-.5.6-1.2.9-2 .9-.9 0-1.5-.2-2-.9-.6-.8-.7-2.1-.7-4.1 0-1.9.1-3.3.7-4.1.5-.6 1.2-.9 2-.9.9 0 1.6.2 2 .9.6.8.7 2.1.7 4.1 0 2-.1 3.3-.7 4.1zM92.5 82c-.2-.3-.5-.4-.9-.4s-.6.1-.8.4c-.4.5-.4 1.5-.4 3.2 0 1.7 0 2.7.4 3.2.2.3.5.4.8.4.4 0 .7-.1.9-.4.4-.5.4-1.5.4-3.2 0-1.7-.1-2.7-.4-3.2zm5.5-.4V90h-1.5v-8.4h-1.1v-1.2h1.1v-.9c0-1 .3-1.7.8-2.1.6-.5 1.3-.6 2.2-.6v1.4c-1 0-1.5.5-1.5 1.4v.9h1.5v1.2H98zm6.5 8.4V76.8h1.6v11.8h3.5V90h-5.1zm11-.7c-.5.6-1.2.9-2 .9-.9 0-1.5-.2-2-.9-.6-.8-.7-2.1-.7-4.1 0-1.9.1-3.3.7-4.1.5-.6 1.2-.9 2-.9.9 0 1.6.2 2 .9.6.8.7 2.1.7 4.1 0 2-.1 3.3-.7 4.1zm-1.2-7.3c-.2-.3-.5-.4-.9-.4s-.6.1-.8.4c-.4.5-.4 1.5-.4 3.2 0 1.7 0 2.7.4 3.2.2.3.5.4.8.4.4 0 .7-.1.9-.4.4-.5.4-1.5.4-3.2 0-1.7 0-2.7-.4-3.2zm6.6 8h-1.6l-2.3-9.6h1.7l1.5 7.2 1.4-7.2h1.7l-2.4 9.6zm4.6-4.4c0 1.5.1 2.4.4 2.8.2.2.4.4.8.4s.6-.1.9-.4c.2-.2.3-.6.3-1.1h1.5c0 .9-.2 1.6-.8 2.1-.5.5-1.2.7-1.9.7-.8 0-1.4-.2-1.9-.7-.7-.8-.9-2.2-.9-4.2s.1-3.5.8-4.2c.5-.5 1.1-.7 1.9-.7.8 0 1.4.2 1.9.7.8.9.8 2.5.8 4.6h-3.8zm2.1-3.6c-.2-.2-.5-.4-.9-.4s-.6.2-.8.4c-.3.4-.4 1.1-.4 2.4h2.4c.1-1.3 0-2-.3-2.4zm8.7 7.7c-.3.3-.6.5-1.1.5-.3 0-.5-.1-.7-.2l-.4-.4v.4h-1v-8.8h1V84c.1-.1.2-.3.4-.4.2-.1.4-.2.7-.2.5 0 .8.2 1.1.5.4.5.5 1.3.5 2.8 0 1.6-.1 2.5-.5 3zm-.8-5c-.1-.2-.3-.3-.6-.3-.2 0-.4.1-.5.2-.2.2-.2.4-.2.7v2.9c0 .3.1.6.2.8.1.1.3.2.5.2s.4-.1.6-.3c.2-.3.2-1 .2-2.1s0-1.8-.2-2.1zm4.2 6.3c-.3 1.2-1.1 1.4-2.1 1.4v-.9c.6 0 1-.2 1.2-.7l.2-.8-1.6-6.4h1.1l1 4.8 1-4.8h1.1l-1.9 7.4zm7-8.8V90h-1.1v-7.9h-1.5v-1h4v1h-1.4zm4.9 7.8v-4.7c0-.6-.3-.9-.8-.9-.4 0-.8.3-.8.9V90h-1v-8.8h1v2.9c.1-.1.2-.3.4-.4.2-.1.4-.2.7-.2.5 0 .8.2 1.1.5.3.3.4.6.4 1.3V90h-1zm3.2-2.9c0 1 0 1.6.3 1.9.1.1.3.3.6.3.2 0 .4-.1.6-.2.1-.2.2-.4.2-.7h1c0 .6-.2 1-.5 1.4-.3.3-.8.5-1.3.5-.6 0-.9-.1-1.3-.5-.5-.5-.6-1.5-.6-2.8 0-1.3.1-2.3.6-2.8.3-.3.8-.5 1.3-.5s.9.1 1.3.5c.5.6.6 1.7.6 3h-2.8zm1.4-2.4c-.1-.1-.3-.3-.6-.3s-.4.1-.6.3c-.2.2-.3.8-.3 1.6h1.6c.1-.9.1-1.4-.1-1.6zM161 90v-8.8h1.1V90H161zm4.9 2.4v-2.8c-.1.1-.2.3-.4.4-.2.1-.4.2-.7.2-.5 0-.8-.2-1.1-.5-.4-.5-.5-1.3-.5-2.8 0-1.5.1-2.4.5-2.8.3-.3.6-.5 1.1-.5.3 0 .5.1.7.2l.4.4v-.5h1v8.8h-1zm0-7.1c0-.3-.1-.6-.3-.7-.1-.1-.3-.2-.5-.2s-.4.1-.5.3c-.2.3-.3 1-.3 2.1s0 1.8.3 2.1c.1.2.3.3.5.3s.4 0 .5-.2c.2-.2.3-.4.3-.8v-2.9zm5.5 4.4c-.3.3-.6.5-1.1.5-.3 0-.5-.1-.7-.2l-.4-.4v.4h-1v-8.8h1V84c.1-.1.2-.3.4-.4.2-.1.4-.2.7-.2.5 0 .8.2 1.1.5.4.5.5 1.3.5 2.8 0 1.6 0 2.5-.5 3zm-.7-5c-.1-.2-.3-.3-.6-.3-.2 0-.4.1-.5.2-.2.2-.2.4-.2.7v2.9c0 .3.1.6.2.8.1.1.3.2.5.2s.4-.1.6-.3c.2-.3.2-1 .2-2.1s0-1.8-.2-2.1zm4.7 5.3v-.6c-.1.2-.2.3-.4.4-.2.1-.4.2-.8.2-.5 0-.8-.1-1.1-.5-.2-.3-.4-.8-.4-1.4 0-.6.2-1.1.6-1.4.3-.3.7-.4 1.4-.4h.7v-1c0-.6-.3-.9-.8-.9-.2 0-.4.1-.5.2-.2.2-.2.4-.2.7h-1c0-.5.1-1 .5-1.4.3-.3.7-.5 1.2-.5s1 .1 1.2.4c.3.3.5.8.5 1.4V90h-.9zm0-2.9h-.6c-.3 0-.5 0-.7.2-.2.2-.3.5-.3.9 0 .7.3 1.1.8 1.1s.8-.4.8-1v-1.2zm2.9 2.5c-.3-.3-.6-.7-.6-1.4v-7h1v6.9c0 .6.3 1 1 1v.9c-.6 0-1-.1-1.4-.4zm4.3.4v-.8l2.5-7.1h-2.3v-1h3.4v.9l-2.4 7.1h2.4v1h-3.6zm6.9 0v-.6c-.1.2-.2.3-.4.4-.2.1-.4.2-.8.2-.5 0-.8-.1-1.1-.5-.2-.3-.4-.8-.4-1.4 0-.6.2-1.1.6-1.4.3-.3.7-.4 1.4-.4h.7v-1c0-.6-.3-.9-.8-.9-.2 0-.4.1-.5.2-.2.2-.2.4-.2.7h-1c0-.5.1-1 .5-1.4.3-.3.7-.5 1.2-.5s1 .1 1.2.4c.3.3.5.8.5 1.4V90h-.9zm0-2.9h-.6c-.3 0-.5 0-.7.2-.2.2-.3.5-.3.9 0 .7.3 1.1.8 1.1s.8-.4.8-1v-1.2zm2.8-4.7c-.4 0-.7-.3-.7-.7s.3-.7.7-.7c.4 0 .7.3.7.7s-.3.7-.7.7zm-.5 7.6v-6.4h1V90h-1zm5 0v-4.7c0-.6-.3-.9-.8-.9-.4 0-.8.3-.8.9V90h-1v-6.4h1v.5l.4-.4c.2-.1.4-.2.7-.2.5 0 .8.2 1.1.5.3.3.4.6.4 1.3V90h-1zm-99.3 24.7l-2.3-6L94 111v3.7h-1.6v-13.2H94v6.7l3.2-6.7h1.6l-2.7 5.5 3.1 7.8h-1.7zm6.7 0v-.7c-.1.2-.4.5-.6.6-.3.2-.6.3-1 .3-.7 0-1.2-.2-1.6-.7-.4-.4-.6-.9-.6-2v-7.1h1.5v7.1c0 .9.5 1.3 1.2 1.3.6 0 1.1-.4 1.1-1.3v-7.1h1.5v9.6h-1.5zm7.3 0v-7.1c0-.9-.5-1.3-1.2-1.3-.6 0-1.1.4-1.1 1.3v7.1h-1.5v-9.6h1.4v.7c.1-.2.4-.5.6-.6.3-.2.6-.3 1-.3.7 0 1.2.2 1.6.7.4.4.6.9.6 2v7.1h-1.4zm7.9-.5c-.4.5-1.1.7-1.9.7-.8 0-1.5-.2-2-.9-.6-.8-.7-2.1-.7-4.1 0-1.9.1-3.3.7-4.1.5-.6 1.2-.9 2-.9s1.4.1 1.9.6c.6.6.7 1.4.8 2.2h-1.5c0-.4 0-.8-.3-1.1-.2-.2-.5-.4-.8-.4-.4 0-.7.1-.9.4-.4.5-.4 1.5-.4 3.2 0 1.7 0 2.7.4 3.2.2.3.5.4.9.4s.6-.1.8-.4c.3-.3.3-.7.3-1.1h1.5c-.1 1.1-.3 1.8-.8 2.3zm3.1-10.9c-.6 0-1-.4-1-1s.4-1 1-1 1 .4 1 1-.4 1-1 1zm-.7 11.4v-9.6h1.5v9.6h-1.5zm12.2-.6c-.5.5-1.3.8-2.3.8-1 0-1.8-.3-2.3-.8-.6-.6-.8-1.4-.8-2.8h1.6c0 .9.1 1.4.4 1.7.2.2.6.4 1.1.4.5 0 .9-.2 1.1-.4.4-.4.4-.9.4-1.8 0-1.5-.2-2-1.3-2.4l-1.5-.6c-1.4-.6-1.8-1.3-1.8-3.3 0-1.2.3-2.1 1-2.7.5-.5 1.2-.8 2.1-.8 1 0 1.7.3 2.2.8.7.6.9 1.5.9 2.7h-1.6c0-.7-.1-1.2-.4-1.6-.2-.3-.6-.4-1.1-.4-.5 0-.8.2-1 .4-.3.4-.5.9-.5 1.6 0 1.3.2 1.7 1.3 2.1l1.5.6c1.5.6 1.9 1.5 1.9 3.6-.1 1.4-.3 2.2-.9 2.9zm5.2 2.2c-.4 1.7-1.6 2.1-3.2 2.1V117c.9 0 1.5-.2 1.7-1.1l.3-1.2-2.3-9.6h1.7l1.5 7.2 1.4-7.2h1.7l-2.8 11.2zm7.6-1.6v-.7c-.1.2-.4.5-.6.6-.3.2-.6.3-1 .3-.7 0-1.2-.2-1.6-.7-.4-.4-.6-.9-.6-2v-7.1h1.5v7.1c0 .9.5 1.3 1.2 1.3.6 0 1.1-.4 1.1-1.3v-7.1h1.5v9.6h-1.5zm6.8-8.3c-1 0-1.7.7-1.7 1.8v6.6h-1.5v-9.6h1.4v1c.1-.3.4-.5.7-.7.4-.3 1-.5 1.6-.5v1.4h-.5zm6 11.3c-.4.5-1.2.7-1.9.7s-1.4-.2-1.9-.7c-.5-.5-.7-1.2-.7-2.1h1.5c0 .5.1.9.3 1.2.2.2.5.3.8.3.4 0 .6-.1.8-.4.3-.3.4-.8.4-1.7v-1.4c-.1.2-.4.4-.5.6-.3.2-.6.3-1 .3-.7 0-1.2-.2-1.6-.7-.6-.7-.8-1.8-.8-4s.2-3.4.8-4c.4-.5.8-.7 1.6-.7.4 0 .7.1 1 .3.2.1.4.3.5.5v-.7h1.5v9.9c-.1 1.3-.3 2-.8 2.6zm-.8-10c0-.5-.1-.9-.4-1.1-.2-.2-.5-.3-.8-.3-.4 0-.6.2-.8.4-.4.4-.4 1.4-.4 3s0 2.5.4 3c.2.2.4.4.8.4.3 0 .6-.1.8-.3.2-.2.4-.6.4-1.1v-4zm7.1 7v-.9c-.1.3-.4.5-.6.6-.3.2-.6.4-1.1.4-.7 0-1.2-.2-1.7-.7-.4-.4-.6-1.2-.6-2.2 0-.9.3-1.7.9-2.2.5-.4 1-.6 2-.6h1v-1.5c0-.9-.4-1.4-1.1-1.4-.3 0-.6.1-.7.3-.3.3-.4.6-.4 1.1h-1.5c0-.7.2-1.5.7-2 .4-.4 1.1-.7 1.9-.7.8 0 1.4.2 1.9.7.5.5.8 1.1.8 2.1v7h-1.5zm0-4.4h-.9c-.5 0-.8.1-1.1.4-.3.3-.4.8-.4 1.3 0 1 .4 1.6 1.2 1.6.7 0 1.2-.6 1.2-1.5v-1.8zm6.6 4.4v-1.3l3.2-4.8c.6-.9.7-1.4.7-2.4 0-.9-.5-1.3-1.1-1.3s-1.1.4-1.1 1.3v.8h-1.5v-.8c0-1 .3-1.6.7-2 .5-.4 1.2-.7 1.9-.7s1.4.2 1.9.7c.5.4.8 1.1.8 2.1 0 1.3-.3 2-1 3l-2.7 4h3.7v1.4h-5.5zm11.4-.5c-.5.4-1.2.7-1.9.7s-1.4-.3-1.9-.7c-.5-.5-.7-1.1-.7-2v-5.8c0-1 .3-1.6.7-2 .5-.4 1.2-.7 1.9-.7s1.4.3 1.9.7c.5.5.7 1.1.7 2v5.8c.1.9-.2 1.5-.7 2zm-.7-8c0-.9-.5-1.3-1.2-1.3-.6 0-1.1.4-1.1 1.3v6c0 .9.5 1.3 1.1 1.3.6 0 1.2-.4 1.2-1.3v-6zm5 8.5v-9.3l-1.9 1.6v-1.7l1.9-1.6h1.5v11.1h-1.5zm8.6-.5v2.8h-1.5v-2.8h-3.6v-1.4l3.4-9.8h1.5l-3.3 9.8h2v-3h1.5v3h1v1.4h-1zM25.1 139.5l-2.3-6-1.2 2.3v3.7H20v-13.2h1.6v6.7l3.2-6.7h1.6l-2.7 5.5 3.1 7.8h-1.7zm6.4 0v-.9c-.1.3-.4.5-.6.6-.3.2-.6.4-1.1.4-.7 0-1.2-.2-1.7-.7-.4-.4-.6-1.2-.6-2.2 0-.9.3-1.7.9-2.2.5-.4 1-.6 2-.6h1v-1.5c0-.9-.4-1.4-1.1-1.4-.3 0-.6.1-.7.3-.3.3-.4.6-.4 1.1h-1.5c0-.7.2-1.5.7-2 .4-.4 1.1-.7 1.9-.7.8 0 1.4.2 1.9.7.5.5.8 1.1.8 2.1v7h-1.5zm-.1-4.5h-.9c-.5 0-.8.1-1.1.4-.3.3-.4.8-.4 1.3 0 1 .4 1.6 1.2 1.6.7 0 1.2-.6 1.2-1.5V135zm7.9 4c-.4.5-1.1.7-1.9.7-.8 0-1.5-.2-2-.9-.6-.8-.7-2.1-.7-4.1 0-1.9.1-3.3.7-4.1.5-.6 1.2-.9 2-.9s1.4.1 1.9.6c.6.6.7 1.4.8 2.2h-1.5c0-.4 0-.8-.3-1.1-.2-.2-.5-.4-.8-.4-.4 0-.7.1-.9.4-.4.5-.4 1.5-.4 3.2 0 1.7 0 2.7.4 3.2.2.3.5.4.9.4s.6-.1.8-.4c.3-.3.3-.7.3-1.1H40c0 1-.2 1.7-.7 2.3zm5.9.5v-.9c-.1.3-.4.5-.6.6-.3.2-.6.4-1.1.4-.7 0-1.2-.2-1.7-.7-.4-.4-.6-1.2-.6-2.2 0-.9.3-1.7.9-2.2.5-.4 1-.6 2-.6h1v-1.5c0-.9-.4-1.4-1.1-1.4-.3 0-.6.1-.7.3-.3.3-.4.6-.4 1.1h-1.5c0-.7.2-1.5.7-2 .4-.4 1.1-.7 1.9-.7.8 0 1.4.2 1.9.7.5.5.8 1.1.8 2.1v7h-1.5zm-.1-4.5h-.9c-.5 0-.8.1-1.1.4-.3.3-.4.8-.4 1.3 0 1 .4 1.6 1.2 1.6.7 0 1.2-.6 1.2-1.5V135zm13.9 4.5v-9.4l-2.1 6.2h-1l-2.1-6v9.3h-1.6v-13.2h1.5l2.7 7.3 2.7-7.3h1.5v13.2H59zm7.3 0v-.9c-.1.3-.4.5-.6.6-.3.2-.6.4-1.1.4-.7 0-1.2-.2-1.7-.7-.4-.4-.6-1.2-.6-2.2 0-.9.3-1.7.9-2.2.5-.4 1-.6 2-.6h1v-1.5c0-.9-.4-1.4-1.1-1.4-.3 0-.6.1-.7.3-.3.3-.4.6-.4 1.1h-1.5c0-.7.2-1.5.7-2 .4-.4 1.1-.7 1.9-.7.8 0 1.4.2 1.9.7.5.5.8 1.1.8 2.1v7h-1.5zm-.1-4.5h-.9c-.5 0-.8.1-1.1.4-.3.3-.4.8-.4 1.3 0 1 .4 1.6 1.2 1.6.7 0 1.2-.6 1.2-1.5V135zm4.8 3.9c-.5-.4-.8-1.2-.8-2.2V131H69v-1.2h1.1v-2.6h1.5v2.6h1.5v1.2h-1.5v5.6c0 1 .5 1.4 1.5 1.4v1.4c-.8.1-1.5 0-2.1-.5zm7.1.6v-.9c-.1.3-.4.5-.6.6-.3.2-.6.4-1.1.4-.7 0-1.2-.2-1.7-.7-.4-.4-.6-1.2-.6-2.2 0-.9.3-1.7.9-2.2.5-.4 1-.6 2-.6h1v-1.5c0-.9-.4-1.4-1.1-1.4-.3 0-.6.1-.7.3-.3.3-.4.6-.4 1.1h-1.5c0-.7.2-1.5.7-2 .4-.4 1.1-.7 1.9-.7.8 0 1.4.2 1.9.7.5.5.8 1.1.8 2.1v7h-1.5zM78 135h-.9c-.5 0-.8.1-1.1.4-.3.3-.4.8-.4 1.3 0 1 .4 1.6 1.2 1.6.7 0 1.2-.6 1.2-1.5V135zm12.1 3.9c-.5.5-1.2.7-2 .7-1.1 0-1.8-.4-2.3-.9-.9-1-1-2.5-1-5.8s.1-4.8 1-5.8c.5-.6 1.2-.9 2.3-.9.9 0 1.6.3 2.1.8.6.6.9 1.5.9 2.6h-1.6c0-.6-.1-1.2-.4-1.5-.2-.3-.5-.5-1-.5s-.9.2-1.1.5c-.5.6-.6 1.7-.6 4.8 0 3.1.1 4.2.6 4.8.2.3.6.5 1.1.5.5 0 .8-.2 1-.5.3-.4.4-.9.4-1.5h1.6c0 1.1-.3 2.1-1 2.7zm3.5-10.8c-.6 0-1-.4-1-1s.4-1 1-1 1 .4 1 1-.4 1-1 1zm-.7 11.4v-9.6h1.5v9.6h-1.5zm7.4 0v-7.1c0-.9-.5-1.3-1.2-1.3-.6 0-1.1.4-1.1 1.3v7.1h-1.5v-9.6h1.4v.7c.1-.2.4-.5.6-.6.3-.2.6-.3 1-.3.7 0 1.2.2 1.6.7.4.4.6.9.6 2v7.1h-1.4zm4.7-.6c-.5-.4-.8-1.2-.8-2.2V131h-1.1v-1.2h1.1v-2.6h1.5v2.6h1.5v1.2h-1.5v5.6c0 1 .5 1.4 1.5 1.4v1.4c-.8.1-1.6 0-2.2-.5zm7.1.6v-.9c-.1.3-.4.5-.6.6-.3.2-.6.4-1.1.4-.7 0-1.2-.2-1.7-.7-.4-.4-.6-1.2-.6-2.2 0-.9.3-1.7.9-2.2.5-.4 1-.6 2-.6h1v-1.5c0-.9-.4-1.4-1.1-1.4-.3 0-.6.1-.7.3-.3.3-.4.6-.4 1.1h-1.5c0-.7.2-1.5.7-2 .4-.4 1.1-.7 1.9-.7.8 0 1.4.2 1.9.7.5.5.8 1.1.8 2.1v7h-1.5zm0-4.5h-.9c-.5 0-.8.1-1.1.4-.3.3-.4.8-.4 1.3 0 1 .4 1.6 1.2 1.6.7 0 1.2-.6 1.2-1.5V135zm6.7-1.2v5.6h-1v-5.6h-.7v-.8h.7v-.6c0-.7.2-1.1.6-1.4.4-.3.9-.4 1.4-.4v.9c-.7 0-1 .3-1 1v.6h1v.8h-1zm2.6 2.7c0 1 0 1.6.3 1.9.1.1.3.3.6.3.2 0 .4-.1.6-.2.1-.2.2-.4.2-.7h1c0 .6-.2 1-.5 1.4-.3.3-.8.5-1.3.5-.6 0-.9-.1-1.3-.5-.5-.5-.6-1.5-.6-2.8 0-1.3.1-2.3.6-2.8.3-.3.8-.5 1.3-.5s.9.1 1.3.5c.5.6.6 1.7.6 3h-2.8zm1.4-2.4c-.1-.1-.3-.3-.6-.3s-.4.1-.6.3c-.2.2-.3.8-.3 1.6h1.6c.1-.8.1-1.3-.1-1.6zm4.7 5.4v-.6c-.1.2-.2.3-.4.4-.2.1-.4.2-.8.2-.5 0-.8-.1-1.1-.5-.2-.3-.4-.8-.4-1.4 0-.6.2-1.1.6-1.4.3-.3.7-.4 1.4-.4h.7v-1c0-.6-.3-.9-.8-.9-.2 0-.4.1-.5.2-.2.2-.2.4-.2.7h-1c0-.5.1-1 .5-1.4.3-.3.7-.5 1.2-.5s1 .1 1.2.4c.3.3.5.8.5 1.4v4.7h-.9zm0-3h-.6c-.3 0-.5 0-.7.2-.2.2-.3.5-.3.9 0 .7.3 1.1.8 1.1s.8-.4.8-1v-1.2zm3.1 2.6c-.4-.3-.6-.8-.6-1.4v-3.8h-.7v-.8h.7v-1.8h1v1.8h1v.8h-1v3.8c0 .7.4 1 1 1v.9c-.5-.1-1-.2-1.4-.5zm4.9.4v-.5l-.4.4c-.2.1-.4.2-.7.2-.5 0-.8-.2-1.1-.5-.3-.3-.4-.6-.4-1.3v-4.7h1v4.7c0 .6.3.9.8.9s.8-.3.8-.9v-4.7h1v6.4h-1zm4.6-5.6c-.7 0-1.2.4-1.2 1.2v4.4h-1v-6.4h1v.7c.1-.2.3-.3.4-.5.3-.2.6-.3 1.1-.3v1h-.3zm1.7-2c-.4 0-.7-.3-.7-.7s.3-.7.7-.7c.4 0 .7.3.7.7s-.3.7-.7.7zm-.5 7.6v-6.4h1v6.4h-1zm4.9 0v-4.7c0-.6-.3-.9-.8-.9-.4 0-.8.3-.8.9v4.7h-1v-6.4h1v.5l.4-.4c.2-.1.4-.2.7-.2.5 0 .8.2 1.1.5.3.3.4.6.4 1.3v4.7h-1zm5.2 1.9c-.3.3-.8.5-1.3.5s-1-.1-1.3-.5c-.4-.4-.5-.8-.5-1.4h1c0 .3 0 .6.2.8.1.1.3.2.5.2s.4-.1.5-.2c.2-.2.2-.5.2-1.1v-1c-.1.1-.2.3-.4.4-.2.1-.4.2-.7.2-.5 0-.8-.1-1.1-.5-.4-.5-.5-1.2-.5-2.7 0-1.5.1-2.2.5-2.7.3-.3.6-.5 1.1-.5.3 0 .5.1.7.2.1.1.3.2.4.4v-.5h1v6.6c.3 1 .1 1.5-.3 1.8zm-.4-6.6c0-.3-.1-.6-.2-.7-.1-.1-.3-.2-.5-.2s-.4.1-.5.3c-.2.3-.3.9-.3 2s0 1.7.3 2c.1.2.3.3.5.3s.4-.1.5-.2c.1-.2.2-.4.2-.7v-2.8zm4.3 4.7v-.8l2.5-7.1h-2.3v-1h3.4v.8l-2.4 7.1h2.4v1h-3.6zm7 0v-.6c-.1.2-.2.3-.4.4-.2.1-.4.2-.8.2-.5 0-.8-.1-1.1-.5-.2-.3-.4-.8-.4-1.4 0-.6.2-1.1.6-1.4.3-.3.7-.4 1.4-.4h.7v-1c0-.6-.3-.9-.8-.9-.2 0-.4.1-.5.2-.2.2-.2.4-.2.7h-1c0-.5.1-1 .5-1.4.3-.3.7-.5 1.2-.5s1 .1 1.2.4c.3.3.5.8.5 1.4v4.7h-.9zm0-3h-.6c-.3 0-.5 0-.7.2-.2.2-.3.5-.3.9 0 .7.3 1.1.8 1.1s.8-.4.8-1v-1.2zm2.8-4.6c-.4 0-.7-.3-.7-.7s.3-.7.7-.7c.4 0 .7.3.7.7s-.3.7-.7.7zm-.5 7.6v-6.4h1v6.4h-1zm5 0v-4.7c0-.6-.3-.9-.8-.9-.4 0-.8.3-.8.9v4.7h-1v-6.4h1v.5l.4-.4c.2-.1.4-.2.7-.2.5 0 .8.2 1.1.5.3.3.4.6.4 1.3v4.7h-1zm7.7 0v-4h-2v4h-1.1v-8.8h1.1v3.8h2v-3.8h1.1v8.8h-1.1zm4.9 0v-.6c-.1.2-.2.3-.4.4-.2.1-.4.2-.8.2-.5 0-.8-.1-1.1-.5-.2-.3-.4-.8-.4-1.4 0-.6.2-1.1.6-1.4.3-.3.7-.4 1.4-.4h.7v-1c0-.6-.3-.9-.8-.9-.2 0-.4.1-.5.2-.2.2-.2.4-.2.7h-1c0-.5.1-1 .5-1.4.3-.3.7-.5 1.2-.5s1 .1 1.2.4c.3.3.5.8.5 1.4v4.7h-.9zm0-3h-.6c-.3 0-.5 0-.7.2-.2.2-.3.5-.3.9 0 .7.3 1.1.8 1.1s.8-.4.8-1v-1.2zm7.4 3v-4.7c0-.6-.3-.9-.8-.9-.4 0-.8.3-.8.9v4.7h-1v-4.7c0-.6-.3-.9-.8-.9-.4 0-.8.3-.8.9v4.7h-1v-6.4h1v.5l.4-.4c.2-.1.4-.2.7-.2.5 0 1 .3 1.2.7.1-.2.3-.4.5-.5.2-.1.5-.2.7-.2.6 0 .9.2 1.2.5.3.3.4.6.4 1.3v4.7h-.9zm2.8-7.6c-.4 0-.7-.3-.7-.7s.3-.7.7-.7.7.3.7.7-.3.7-.7.7zm-.5 7.6v-6.4h1v6.4h-1zm4.8 0v-.5l-.4.4c-.2.1-.4.2-.7.2-.4 0-.8-.1-1.1-.5-.4-.5-.5-1.3-.5-2.8 0-1.5.1-2.4.5-2.8.3-.3.6-.5 1.1-.5.3 0 .5.1.7.2.1.1.3.2.4.4v-2.8h1v8.8h-1zm0-4.7c0-.3-.1-.6-.3-.7-.1-.1-.3-.2-.5-.2s-.4.1-.5.3c-.2.3-.3 1-.3 2.1s0 1.8.3 2.1c.1.2.3.3.5.3s.4 0 .5-.2c.2-.2.3-.4.3-.8v-2.9zM35.3 158.7h-1.4v5.5h-1.6V151h3c2 0 3.1.9 3.1 3.8 0 2.7-1 3.9-3.1 3.9zm0-6.3h-1.4v4.9h1.4c1.2 0 1.5-1 1.5-2.4 0-1.5-.3-2.5-1.5-2.5zm5.8 7.3c0 1.5.1 2.4.4 2.8.2.2.4.4.8.4s.6-.1.9-.4c.2-.2.3-.6.3-1.1H45c0 .9-.2 1.6-.8 2.1-.5.5-1.2.7-1.9.7-.8 0-1.4-.2-1.9-.7-.7-.8-.9-2.2-.9-4.2s.1-3.5.8-4.2c.5-.5 1.1-.7 1.9-.7.8 0 1.4.2 1.9.7.8.9.8 2.5.8 4.6h-3.8zm2.1-3.5c-.2-.2-.5-.4-.9-.4s-.6.2-.8.4c-.3.4-.4 1.1-.4 2.4h2.4c.1-1.3 0-2.1-.3-2.4zm7.4 8v-7.1c0-.9-.5-1.3-1.2-1.3-.6 0-1.1.4-1.1 1.3v7.1h-1.5v-9.6h1.4v.7c.1-.2.4-.5.6-.6.3-.2.6-.3 1-.3.7 0 1.2.2 1.6.7.4.4.6.9.6 2v7.1h-1.4zm7.8 2.9c-.4.5-1.2.7-1.9.7s-1.4-.2-1.9-.7c-.5-.5-.7-1.2-.7-2.1h1.5c0 .5.1.9.3 1.2.2.2.5.3.8.3.4 0 .6-.1.8-.4.3-.3.4-.8.4-1.7V163c-.1.2-.4.4-.5.6-.3.2-.6.3-1 .3-.7 0-1.2-.2-1.6-.7-.6-.7-.8-1.8-.8-4s.2-3.4.8-4c.4-.5.8-.7 1.6-.7.4 0 .7.1 1 .3.2.1.4.3.5.5v-.7h1.5v9.9c0 1.3-.2 2.1-.8 2.6zm-.7-9.9c0-.5-.1-.9-.4-1.1-.2-.2-.5-.3-.8-.3-.4 0-.6.2-.8.4-.4.4-.4 1.4-.4 3s0 2.5.4 3c.2.2.4.4.8.4.3 0 .6-.1.8-.3.2-.2.4-.6.4-1.1v-4zm7.1 7v-.9c-.1.3-.4.5-.6.6-.3.2-.6.4-1.1.4-.7 0-1.2-.2-1.7-.7-.4-.4-.6-1.2-.6-2.2 0-.9.3-1.7.9-2.2.5-.4 1-.6 2-.6h1v-1.5c0-.9-.4-1.4-1.1-1.4-.3 0-.6.1-.7.3-.3.3-.4.6-.4 1.1H61c0-.7.2-1.5.7-2 .4-.4 1.1-.7 1.9-.7.8 0 1.4.2 1.9.7.5.5.8 1.1.8 2.1v7h-1.5zm-.1-4.5h-.9c-.5 0-.8.1-1.1.4-.3.3-.4.8-.4 1.3 0 1 .4 1.6 1.2 1.6.7 0 1.2-.6 1.2-1.5v-1.8zm8 4.5l-1.8-4.5-1 1.7v2.9h-1.5V151h1.5v8.2l2.7-4.6h1.6l-2.3 3.7 2.6 5.9h-1.8zm6.7 0v-.7c-.1.2-.4.5-.6.6-.3.2-.6.3-1 .3-.7 0-1.2-.2-1.6-.7-.4-.4-.6-.9-.6-2v-7.1H77v7.1c0 .9.5 1.3 1.2 1.3.6 0 1.1-.4 1.1-1.3v-7.1h1.5v9.6h-1.4zm7 0v-.9c-.1.3-.4.5-.6.6-.3.2-.6.4-1.1.4-.7 0-1.2-.2-1.7-.7-.4-.4-.6-1.2-.6-2.2 0-.9.3-1.7.9-2.2.5-.4 1-.6 2-.6h1v-1.5c0-.9-.4-1.4-1.1-1.4-.3 0-.6.1-.7.3-.3.3-.4.6-.4 1.1h-1.5c0-.7.2-1.5.7-2 .4-.4 1.1-.7 1.9-.7.8 0 1.4.2 1.9.7.5.5.8 1.1.8 2.1v7h-1.5zm-.1-4.5h-.9c-.5 0-.8.1-1.1.4-.3.3-.4.8-.4 1.3 0 1 .4 1.6 1.2 1.6.7 0 1.2-.6 1.2-1.5v-1.8zm7.4 4.5v-7.1c0-.9-.5-1.3-1.2-1.3-.6 0-1.1.4-1.1 1.3v7.1h-1.5v-9.6h1.4v.7c.1-.2.4-.5.6-.6.3-.2.6-.3 1-.3.7 0 1.2.2 1.6.7.4.4.6.9.6 2v7.1h-1.4zm12.1-.6c-.5.5-1.2.7-2 .7-1.1 0-1.8-.4-2.3-.9-.9-1-1-2.5-1-5.8s.1-4.8 1-5.8c.5-.6 1.2-.9 2.3-.9.9 0 1.6.3 2.1.8.6.6.9 1.5.9 2.6h-1.6c0-.6-.1-1.2-.4-1.5-.2-.3-.5-.5-1-.5s-.9.2-1.1.5c-.5.6-.6 1.7-.6 4.8 0 3.1.1 4.2.6 4.8.2.3.6.5 1.1.5.5 0 .8-.2 1-.5.3-.4.4-.9.4-1.5h1.6c0 1.1-.4 2.1-1 2.7zm3.5-10.8c-.6 0-1-.4-1-1s.4-1 1-1 1 .4 1 1c0 .5-.5 1-1 1zm-.8 11.4v-9.6h1.5v9.6h-1.5zm7.4 0v-7.1c0-.9-.5-1.3-1.2-1.3-.6 0-1.1.4-1.1 1.3v7.1h-1.5v-9.6h1.4v.7c.1-.2.4-.5.6-.6.3-.2.6-.3 1-.3.7 0 1.2.2 1.6.7.4.4.6.9.6 2v7.1h-1.4zm4.7-.6c-.5-.4-.8-1.2-.8-2.2v-5.7h-1.1v-1.2h1.1v-2.6h1.5v2.6h1.5v1.2h-1.5v5.6c0 1 .5 1.4 1.5 1.4v1.4c-.8.1-1.5 0-2.2-.5zm7.2.6v-.9c-.1.3-.4.5-.6.6-.3.2-.6.4-1.1.4-.7 0-1.2-.2-1.7-.7-.4-.4-.6-1.2-.6-2.2 0-.9.3-1.7.9-2.2.5-.4 1-.6 2-.6h1v-1.5c0-.9-.4-1.4-1.1-1.4-.3 0-.6.1-.7.3-.3.3-.4.6-.4 1.1H124c0-.7.2-1.5.7-2 .4-.4 1.1-.7 1.9-.7.8 0 1.4.2 1.9.7.5.5.8 1.1.8 2.1v7h-1.5zm-.1-4.5h-.9c-.5 0-.8.1-1.1.4-.3.3-.4.8-.4 1.3 0 1 .4 1.6 1.2 1.6.7 0 1.2-.6 1.2-1.5v-1.8zm8.6 4.1c-.3.3-.6.5-1.1.5-.3 0-.5-.1-.7-.2l-.4-.4v.5h-1v-8.8h1v2.8c.1-.1.2-.3.4-.4.2-.1.4-.2.7-.2.5 0 .8.2 1.1.5.4.5.5 1.3.5 2.8 0 1.6-.1 2.4-.5 2.9zm-.8-5c-.1-.2-.3-.3-.6-.3-.2 0-.4.1-.5.2-.2.2-.2.4-.2.7v2.9c0 .3.1.6.2.8.1.1.3.2.5.2s.4-.1.6-.3c.2-.3.2-1 .2-2.1.1-1.1 0-1.7-.2-2.1zm4.2 6.4c-.3 1.2-1.1 1.4-2.1 1.4v-.9c.6 0 1-.2 1.2-.7l.2-.8-1.6-6.4h1.1l1 4.8 1-4.8h1.1l-1.9 7.4zm7-8.9v7.9h-1.1v-7.9h-1.5v-1h4v1h-1.4zm4.9 7.9v-4.7c0-.6-.3-.9-.8-.9-.4 0-.8.3-.8.9v4.7h-1v-8.8h1v2.9c.1-.1.2-.3.4-.4.2-.1.4-.2.7-.2.5 0 .8.2 1.1.5.3.3.4.6.4 1.3v4.7h-1zm3.2-3c0 1 0 1.6.3 1.9.1.1.3.3.6.3.2 0 .4-.1.6-.2.1-.2.2-.4.2-.7h1c0 .6-.2 1-.5 1.4-.3.3-.8.5-1.3.5-.6 0-.9-.1-1.3-.5-.5-.5-.6-1.5-.6-2.8 0-1.3.1-2.3.6-2.8.3-.3.8-.5 1.3-.5s.9.1 1.3.5c.5.6.6 1.7.6 3h-2.8zm1.4-2.4c-.1-.1-.3-.3-.6-.3s-.4.1-.6.3c-.2.2-.3.8-.3 1.6h1.6c.1-.8.1-1.3-.1-1.6zm4.8 5.4v-8.8h1.1v8.8H161zm4.9 2.4v-2.8c-.1.1-.2.3-.4.4-.2.1-.4.2-.7.2-.5 0-.8-.2-1.1-.5-.4-.5-.5-1.3-.5-2.8 0-1.5.1-2.4.5-2.8.3-.3.6-.5 1.1-.5.3 0 .5.1.7.2l.4.4v-.5h1v8.8h-1zm0-7.1c0-.3-.1-.6-.3-.7-.1-.1-.3-.2-.5-.2s-.4.1-.5.3c-.2.3-.3 1-.3 2.1 0 1.2 0 1.8.3 2.1.1.2.3.3.5.3s.4 0 .5-.2c.2-.2.3-.4.3-.8v-2.9zm5.5 4.3c-.3.3-.6.5-1.1.5-.3 0-.5-.1-.7-.2l-.4-.4v.5h-1v-8.8h1v2.8c.1-.1.2-.3.4-.4.2-.1.4-.2.7-.2.5 0 .8.2 1.1.5.4.5.5 1.3.5 2.8 0 1.6 0 2.4-.5 2.9zm-.7-5c-.1-.2-.3-.3-.6-.3-.2 0-.4.1-.5.2-.2.2-.2.4-.2.7v2.9c0 .3.1.6.2.8.1.1.3.2.5.2s.4-.1.6-.3c.2-.3.2-1 .2-2.1s0-1.7-.2-2.1zm4.7 5.4v-.6c-.1.2-.2.3-.4.4-.2.1-.4.2-.8.2-.5 0-.8-.1-1.1-.5-.2-.3-.4-.8-.4-1.4 0-.6.2-1.1.6-1.4.3-.3.7-.4 1.4-.4h.7v-1c0-.6-.3-.9-.8-.9-.2 0-.4.1-.5.2-.2.2-.2.4-.2.7h-1c0-.5.1-1 .5-1.4.3-.3.7-.5 1.2-.5s1 .1 1.2.4c.3.3.5.8.5 1.4v4.7h-.9zm0-3h-.6c-.3 0-.5 0-.7.2-.2.2-.3.5-.3.9 0 .7.3 1.1.8 1.1s.8-.4.8-1v-1.2zm2.9 2.6c-.3-.3-.6-.7-.6-1.4v-7h1v6.9c0 .6.3 1 1 1v.9c-.6 0-1-.1-1.4-.4zm4.3.4v-.8l2.5-7.1h-2.3v-1h3.4v.8l-2.4 7.1h2.4v1h-3.6zm6.9 0v-.6c-.1.2-.2.3-.4.4-.2.1-.4.2-.8.2-.5 0-.8-.1-1.1-.5-.2-.3-.4-.8-.4-1.4 0-.6.2-1.1.6-1.4.3-.3.7-.4 1.4-.4h.7v-1c0-.6-.3-.9-.8-.9-.2 0-.4.1-.5.2-.2.2-.2.4-.2.7h-1c0-.5.1-1 .5-1.4.3-.3.7-.5 1.2-.5s1 .1 1.2.4c.3.3.5.8.5 1.4v4.7h-.9zm0-3h-.6c-.3 0-.5 0-.7.2-.2.2-.3.5-.3.9 0 .7.3 1.1.8 1.1s.8-.4.8-1v-1.2zm2.8-4.6c-.4 0-.7-.3-.7-.7 0-.4.3-.7.7-.7.4 0 .7.3.7.7 0 .4-.3.7-.7.7zm-.5 7.6v-6.4h1v6.4h-1zm5 0v-4.7c0-.6-.3-.9-.8-.9-.4 0-.8.3-.8.9v4.7h-1v-6.4h1v.5l.4-.4c.2-.1.4-.2.7-.2.5 0 .8.2 1.1.5.3.3.4.6.4 1.3v4.7h-1zm-123.2 24c-.5.5-1.3.8-2.3.8-1 0-1.8-.3-2.3-.8-.6-.6-.8-1.4-.8-2.8h1.6c0 .9.1 1.4.4 1.7.2.2.6.4 1.1.4.5 0 .9-.2 1.1-.4.4-.4.4-.9.4-1.8 0-1.5-.2-2-1.3-2.4l-1.5-.6c-1.4-.6-1.8-1.3-1.8-3.3 0-1.2.3-2.1 1-2.7.5-.5 1.2-.8 2.1-.8 1 0 1.7.3 2.2.8.7.6.9 1.5.9 2.7h-1.6c0-.7-.1-1.2-.4-1.6-.2-.3-.6-.4-1.1-.4-.5 0-.8.2-1 .4-.3.4-.5.9-.5 1.6 0 1.3.2 1.7 1.3 2.1l1.5.6c1.5.6 1.9 1.5 1.9 3.6-.1 1.4-.3 2.3-.9 2.9zm3.8-3.7c0 1.5.1 2.4.4 2.8.2.2.4.4.8.4s.6-.1.9-.4c.2-.2.3-.6.3-1.1h1.5c0 .9-.2 1.6-.8 2.1-.5.5-1.2.7-1.9.7-.8 0-1.4-.2-1.9-.7-.7-.8-.9-2.2-.9-4.2s.1-3.5.8-4.2c.5-.5 1.1-.7 1.9-.7.8 0 1.4.2 1.9.7.8.9.8 2.5.8 4.6h-3.8zm2.1-3.6c-.2-.2-.5-.4-.9-.4s-.6.2-.8.4c-.3.4-.4 1.1-.4 2.4h2.4c.1-1.3 0-2-.3-2.4zm7.9 10.9c-.4.5-1.2.7-1.9.7s-1.4-.2-1.9-.7c-.5-.5-.7-1.2-.7-2.1h1.5c0 .5.1.9.3 1.2.2.2.5.3.8.3.4 0 .6-.1.8-.4.3-.3.4-.8.4-1.7v-1.4c-.1.2-.4.4-.5.6-.3.2-.6.3-1 .3-.7 0-1.2-.2-1.6-.7-.6-.7-.8-1.8-.8-4s.2-3.4.8-4c.4-.5.8-.7 1.6-.7.4 0 .7.1 1 .3.2.1.4.3.5.5v-.7h1.5v9.9c0 1.4-.3 2.1-.8 2.6zm-.7-9.9c0-.5-.1-.9-.4-1.1-.2-.2-.5-.3-.8-.3-.4 0-.6.2-.8.4-.4.4-.4 1.4-.4 3s0 2.5.4 3c.2.2.4.4.8.4.3 0 .6-.1.8-.3.2-.2.4-.6.4-1.1v-4zm7.1 7v-.9c-.1.3-.4.5-.6.6-.3.2-.6.4-1.1.4-.7 0-1.2-.2-1.7-.7-.4-.4-.6-1.2-.6-2.2 0-.9.3-1.7.9-2.2.5-.4 1-.6 2-.6h1v-1.5c0-.9-.4-1.4-1.1-1.4-.3 0-.6.1-.7.3-.3.3-.4.6-.4 1.1H90c0-.7.2-1.5.7-2 .4-.4 1.1-.7 1.9-.7.8 0 1.4.2 1.9.7.5.5.8 1.1.8 2.1v7h-1.5zm-.1-4.4h-.9c-.5 0-.8.1-1.1.4-.3.3-.4.8-.4 1.3 0 1 .4 1.6 1.2 1.6.7 0 1.2-.6 1.2-1.5v-1.8zm4.3 3.8c-.5-.4-.9-1.1-.9-2.2v-10.5h1.5V186c0 .9.4 1.4 1.4 1.4v1.4c-.7.1-1.4 0-2-.5zm7 .6v-.9c-.1.3-.4.5-.6.6-.3.2-.6.4-1.1.4-.7 0-1.2-.2-1.7-.7-.4-.4-.6-1.2-.6-2.2 0-.9.3-1.7.9-2.2.5-.4 1-.6 2-.6h1v-1.5c0-.9-.4-1.4-1.1-1.4-.3 0-.6.1-.7.3-.3.3-.4.6-.4 1.1h-1.5c0-.7.2-1.5.7-2 .4-.4 1.1-.7 1.9-.7.8 0 1.4.2 1.9.7.5.5.8 1.1.8 2.1v7H105zm-.1-4.4h-.9c-.5 0-.8.1-1.1.4-.3.3-.4.8-.4 1.3 0 1 .4 1.6 1.2 1.6.7 0 1.2-.6 1.2-1.5v-1.8zm7.3 4.4v-7.1c0-.9-.5-1.3-1.2-1.3-.6 0-1.1.4-1.1 1.3v7.1h-1.5v-9.6h1.4v.7c.1-.2.4-.5.6-.6.3-.2.6-.3 1-.3.7 0 1.2.2 1.6.7.4.4.6.9.6 2v7.1h-1.4zm6.1 1.6c-.4 1.7-1.6 2.1-3.2 2.1v-1.3c.9 0 1.5-.2 1.7-1.1l.3-1.2-2.3-9.6h1.7l1.5 7.2 1.4-7.2h1.7l-2.8 11.1zm7.4-1.6v-.9c-.1.3-.4.5-.6.6-.3.2-.6.4-1.1.4-.7 0-1.2-.2-1.7-.7-.4-.4-.6-1.2-.6-2.2 0-.9.3-1.7.9-2.2.5-.4 1-.6 2-.6h1v-1.5c0-.9-.4-1.4-1.1-1.4-.3 0-.6.1-.7.3-.3.3-.4.6-.4 1.1h-1.5c0-.7.2-1.5.7-2 .4-.4 1.1-.7 1.9-.7.8 0 1.4.2 1.9.7.5.5.8 1.1.8 2.1v7h-1.5zm-.1-4.4h-.9c-.5 0-.8.1-1.1.4-.3.3-.4.8-.4 1.3 0 1 .4 1.6 1.2 1.6.7 0 1.2-.6 1.2-1.5v-1.8zm12.2 4.4l-2.3-6-1.2 2.3v3.7h-1.6v-13.2h1.6v6.7l3.2-6.7h1.6l-2.7 5.5 3.1 7.8h-1.7zm4.1-4.4c0 1.5.1 2.4.4 2.8.2.2.4.4.8.4s.6-.1.9-.4c.2-.2.3-.6.3-1.1h1.5c0 .9-.2 1.6-.8 2.1-.5.5-1.2.7-1.9.7-.8 0-1.4-.2-1.9-.7-.7-.8-.9-2.2-.9-4.2s.1-3.5.8-4.2c.5-.5 1.1-.7 1.9-.7.8 0 1.4.2 1.9.7.8.9.8 2.5.8 4.6h-3.8zm2.1-3.6c-.2-.2-.5-.4-.9-.4s-.6.2-.8.4c-.3.4-.4 1.1-.4 2.4h2.4c.1-1.3 0-2-.3-2.4zm8.3 7.5c-.4.5-.9.7-1.6.7-.4 0-.7-.1-1-.3-.2-.1-.4-.3-.5-.5v4.3h-1.5v-13.2h1.4v.7c.1-.2.4-.5.6-.6.3-.2.6-.3 1-.3.6 0 1.2.2 1.6.7.6.7.7 2 .7 4.2s-.1 3.5-.7 4.3zm-1.2-7.5c-.2-.3-.5-.4-.8-.4-.3 0-.6.1-.8.3-.2.2-.4.6-.4 1.1v4.4c0 .5.1.9.4 1.1.2.2.5.3.8.3.3 0 .6-.1.8-.4.4-.5.4-1.5.4-3.2 0-1.7 0-2.7-.4-3.2zm7.2 8v-.9c-.1.3-.4.5-.6.6-.3.2-.6.4-1.1.4-.7 0-1.2-.2-1.7-.7-.4-.4-.6-1.2-.6-2.2 0-.9.3-1.7.9-2.2.5-.4 1-.6 2-.6h1v-1.5c0-.9-.4-1.4-1.1-1.4-.3 0-.6.1-.7.3-.3.3-.4.6-.4 1.1h-1.5c0-.7.2-1.5.7-2 .4-.4 1.1-.7 1.9-.7.8 0 1.4.2 1.9.7.5.5.8 1.1.8 2.1v7h-1.5zm-.1-4.4h-.9c-.5 0-.8.1-1.1.4-.3.3-.4.8-.4 1.3 0 1 .4 1.6 1.2 1.6.7 0 1.2-.6 1.2-1.5v-1.8zm7.2 4.4v-.7c-.1.2-.4.5-.6.6-.3.2-.6.3-1 .3-.6 0-1.2-.2-1.6-.7-.6-.7-.7-2-.7-4.3 0-2.2.1-3.5.7-4.2.4-.5.9-.7 1.6-.7.4 0 .7.1 1 .3.2.1.4.3.5.5v-4.3h1.5v13.2h-1.4zm-.1-7c0-.5-.1-.9-.4-1.1-.2-.2-.5-.3-.8-.3-.3 0-.6.1-.8.4-.4.5-.4 1.5-.4 3.2 0 1.7 0 2.7.4 3.2.2.3.5.4.8.4.3 0 .6-.1.8-.3.2-.2.4-.6.4-1.1v-4.4zm7.1 7v-.9c-.1.3-.4.5-.6.6-.3.2-.6.4-1.1.4-.7 0-1.2-.2-1.7-.7-.4-.4-.6-1.2-.6-2.2 0-.9.3-1.7.9-2.2.5-.4 1-.6 2-.6h1v-1.5c0-.9-.4-1.4-1.1-1.4-.3 0-.6.1-.7.3-.3.3-.4.6-.4 1.1h-1.5c0-.7.2-1.5.7-2 .4-.4 1.1-.7 1.9-.7.8 0 1.4.2 1.9.7.5.5.8 1.1.8 2.1v7h-1.5zm0-4.4h-.9c-.5 0-.8.1-1.1.4-.3.3-.4.8-.4 1.3 0 1 .4 1.6 1.2 1.6.7 0 1.2-.6 1.2-1.5v-1.8zm3.4-.1V183h3.6v1.4h-3.6zm12.5 4.5v-9.4l-2.1 6.2h-1l-2.1-6v9.3h-1.6v-13.2h1.5l2.7 7.3 2.7-7.3h1.5V189h-1.6zm7.6 0v-.7c-.1.2-.4.5-.6.6-.3.2-.6.3-1 .3-.7 0-1.2-.2-1.6-.7-.4-.4-.6-.9-.6-2v-7.1h1.5v7.1c0 .9.5 1.3 1.2 1.3.6 0 1.1-.4 1.1-1.3v-7.1h1.5v9.6h-1.5zm-85 24.7l-1.8-5.7h-1.4v5.7H106v-13.2h3c2 0 3.1.9 3.1 3.8 0 1.8-.4 2.9-1.6 3.5l2 6h-1.6zm-1.9-11.7h-1.4v4.7h1.4c1.2 0 1.5-.9 1.5-2.4 0-1.4-.2-2.3-1.5-2.3zm6.1.3c-.6 0-1-.4-1-1s.4-1 1-1 1 .4 1 1-.4 1-1 1zm-.8 11.4V204h1.5v9.6h-1.5zm7.4 0v-7.1c0-.9-.5-1.3-1.2-1.3-.6 0-1.1.4-1.1 1.3v7.1H118V204h1.4v.7c.1-.2.4-.5.6-.6.3-.2.6-.3 1-.3.7 0 1.2.2 1.6.7.4.4.6.9.6 2v7.1h-1.5zm4.8-.6c-.5-.4-.8-1.2-.8-2.2v-5.7h-1.1V204h1.1v-2.6h1.5v2.6h1.5v1.2h-1.5v5.6c0 1 .5 1.4 1.5 1.4v1.4c-.9 0-1.6 0-2.2-.6zm4.4-10.8c-.6 0-1-.4-1-1s.4-1 1-1 1 .4 1 1-.5 1-1 1zm-.8 11.4V204h1.5v9.6h-1.5zm7.4 0v-7.1c0-.9-.5-1.3-1.2-1.3-.6 0-1.1.4-1.1 1.3v7.1h-1.5v-13.2h1.5v4.3c.1-.2.4-.4.5-.5.3-.2.6-.3 1-.3.7 0 1.2.2 1.6.7.4.4.6.9.6 2v7.1h-1.4zm7 0v-.9c-.1.3-.4.5-.6.6-.3.2-.6.4-1.1.4-.7 0-1.2-.2-1.7-.7-.4-.4-.6-1.2-.6-2.2 0-.9.3-1.7.9-2.2.5-.4 1-.6 2-.6h1v-1.5c0-.9-.4-1.4-1.1-1.4-.3 0-.6.1-.7.3-.3.3-.4.6-.4 1.1h-1.5c0-.7.2-1.5.7-2 .4-.4 1.1-.7 1.9-.7.8 0 1.4.2 1.9.7.5.5.8 1.1.8 2.1v7h-1.5zm0-4.4h-.9c-.5 0-.8.1-1.1.4-.3.3-.4.8-.4 1.3 0 1 .4 1.6 1.2 1.6.7 0 1.2-.6 1.2-1.5v-1.8zm7.3 4.4v-7.1c0-.9-.5-1.3-1.2-1.3-.6 0-1.1.4-1.1 1.3v7.1H148V204h1.4v.7c.1-.2.4-.5.6-.6.3-.2.6-.3 1-.3.7 0 1.2.2 1.6.7.4.4.6.9.6 2v7.1h-1.4zm11.7 0v-6h-2.9v6H159v-13.2h1.6v5.8h2.9v-5.8h1.6v13.2h-1.6zm7.3 0v-.9c-.1.3-.4.5-.6.6-.3.2-.6.4-1.1.4-.7 0-1.2-.2-1.7-.7-.4-.4-.6-1.2-.6-2.2 0-.9.3-1.7.9-2.2.5-.4 1-.6 2-.6h1v-1.5c0-.9-.4-1.4-1.1-1.4-.3 0-.6.1-.7.3-.3.3-.4.6-.4 1.1H167c0-.7.2-1.5.7-2 .4-.4 1.1-.7 1.9-.7.8 0 1.4.2 1.9.7.5.5.8 1.1.8 2.1v7h-1.5zm-.1-4.4h-.9c-.5 0-.8.1-1.1.4-.3.3-.4.8-.4 1.3 0 1 .4 1.6 1.2 1.6.7 0 1.2-.6 1.2-1.5v-1.8zm11.1 4.4v-7.1c0-.9-.5-1.3-1.1-1.3-.6 0-1.1.4-1.1 1.3v7.1H178v-7.1c0-.9-.5-1.3-1.2-1.3-.6 0-1.1.4-1.1 1.3v7.1h-1.5V204h1.4v.7c.1-.2.4-.5.6-.6.3-.2.6-.3 1-.3.7 0 1.4.4 1.8 1 .2-.3.5-.5.8-.7.3-.2.7-.3 1.1-.3.8 0 1.3.2 1.7.7.4.4.6.9.6 2v7.1h-1.4zm8.2-.5c-.4.5-.9.7-1.6.7-.4 0-.7-.1-1-.3-.2-.1-.5-.4-.6-.6v.7h-1.4v-13.2h1.5v4.3c.1-.2.4-.4.5-.5.3-.2.6-.3 1-.3.7 0 1.2.2 1.6.7.6.7.7 2 .7 4.2 0 2.3-.1 3.6-.7 4.3zm-1.2-7.5c-.2-.3-.5-.4-.8-.4-.3 0-.6.1-.8.3-.2.2-.4.6-.4 1.1v4.4c0 .5.1.9.4 1.1.2.2.5.3.8.3.3 0 .6-.1.8-.4.4-.5.4-1.5.4-3.2 0-1.7 0-2.7-.4-3.2zm7.2 8v-.9c-.1.3-.4.5-.6.6-.3.2-.6.4-1.1.4-.7 0-1.2-.2-1.7-.7-.4-.4-.6-1.2-.6-2.2 0-.9.3-1.7.9-2.2.5-.4 1-.6 2-.6h1v-1.5c0-.9-.4-1.4-1.1-1.4-.3 0-.6.1-.7.3-.3.3-.4.6-.4 1.1h-1.5c0-.7.2-1.5.7-2 .4-.4 1.1-.7 1.9-.7.8 0 1.4.2 1.9.7.5.5.8 1.1.8 2.1v7H196zm-.1-4.4h-.9c-.5 0-.8.1-1.1.4-.3.3-.4.8-.4 1.3 0 1 .4 1.6 1.2 1.6.7 0 1.2-.6 1.2-1.5v-1.8z" fill="#808184"/><path d="M210.3 64.8c-.4.3-.9.5-1.5.5s-1.1-.2-1.5-.5c-.4-.4-.6-.8-.6-1.6v-4.5c0-.8.2-1.2.6-1.6.4-.3.9-.5 1.5-.5s1.1.2 1.5.5c.4.4.6.8.6 1.6v4.5c0 .8-.3 1.3-.6 1.6zm-.6-6.2c0-.7-.4-1-.9-1s-.9.3-.9 1v4.6c0 .7.4 1 .9 1s.9-.3.9-1v-4.6zm3.9 6.7V58l-1.5 1.2v-1.4l1.5-1.2h1.2v8.6h-1.2zm-4.1 24.3c-.4.3-.9.5-1.5.5s-1.1-.2-1.5-.5c-.4-.4-.6-.8-.6-1.6v-4.5c0-.8.2-1.2.6-1.6.4-.3.9-.5 1.5-.5s1.1.2 1.5.5c.4.4.6.8.6 1.6V88c0 .7-.3 1.2-.6 1.6zm-.6-6.2c0-.7-.4-1-.9-1s-.9.3-.9 1V88c0 .7.4 1 .9 1s.9-.3.9-1v-4.6zm2.3 6.6v-1l2.5-3.7c.5-.7.5-1.1.5-1.9 0-.7-.4-1-.9-1s-.9.3-.9 1v.6h-1.2v-.6c0-.7.2-1.2.6-1.6.4-.3.9-.5 1.5-.5s1.1.2 1.4.5c.4.3.6.8.6 1.6 0 1-.2 1.6-.7 2.3l-2.1 3.1h2.9V90h-4.2zm-1.7 24.3c-.4.3-.9.5-1.5.5s-1.1-.2-1.5-.5c-.4-.4-.6-.8-.6-1.6v-4.5c0-.8.2-1.2.6-1.6.4-.3.9-.5 1.5-.5s1.1.2 1.5.5c.4.4.6.8.6 1.6v4.5c0 .8-.2 1.2-.6 1.6zm-.6-6.2c0-.7-.4-1-.9-1s-.9.3-.9 1v4.6c0 .7.4 1 .9 1s.9-.3.9-1v-4.6zm5.8 7.9c-.3.3-.9.5-1.5.5s-1.1-.2-1.5-.5c-.4-.4-.6-.8-.6-1.6v-.7h1.2v.7c0 .7.4 1 .9 1 .3 0 .5-.1.6-.3.2-.3.3-.8.3-1.7 0-1-.1-1.4-.3-1.7-.1-.2-.4-.3-.6-.3h-.5v-1h.5c.2 0 .4-.1.6-.2.2-.3.3-.7.3-1.5 0-.7 0-1.2-.3-1.4-.1-.2-.3-.2-.6-.2-.5 0-.8.3-.8 1v.7h-1.2v-.7c0-.8.2-1.2.6-1.6.4-.3.9-.5 1.4-.5.6 0 1.1.2 1.4.5.4.4.6 1 .6 2.1 0 .9-.1 1.3-.3 1.7-.1.2-.3.4-.6.6.2.2.4.3.6.6.3.5.3.9.3 2 .1 1.3.1 1.9-.5 2.5zm-5.6 23c-.4.3-.9.5-1.5.5s-1.1-.2-1.5-.5c-.4-.4-.6-.8-.6-1.6v-4.5c0-.8.2-1.2.6-1.6.4-.3.9-.5 1.5-.5s1.1.2 1.5.5c.4.4.6.8.6 1.6v4.5c0 .8-.2 1.2-.6 1.6zm-.6-6.2c0-.7-.4-1-.9-1s-.9.3-.9 1v4.6c0 .7.4 1 .9 1s.9-.3.9-1v-4.6zm6.2 6.2v2.2h-1.2V139h-2.8v-1l2.6-7.6h1.1l-2.6 7.6h1.6v-2.3h1.2v2.3h.8v1.1h-.7zm-5.3 24.7c-.4.3-.9.5-1.5.5s-1.1-.2-1.5-.5c-.4-.4-.6-.8-.6-1.6v-4.5c0-.8.2-1.2.6-1.6.4-.3.9-.5 1.5-.5s1.1.2 1.5.5c.4.4.6.8.6 1.6v4.5c-.1.8-.3 1.3-.6 1.6zm-.6-6.2c0-.7-.4-1-.9-1s-.9.3-.9 1v4.6c0 .7.4 1 .9 1s.9-.3.9-1v-4.6zm5.9 7.8c-.3.4-.9.6-1.5.6s-1.1-.2-1.5-.5c-.4-.4-.6-.8-.6-1.6v-.6h1.2v.7c0 .7.4 1.1.9 1.1.3 0 .5-.1.6-.3.2-.3.3-1 .3-2.1s0-1.7-.3-2c-.2-.2-.4-.3-.7-.3-.5 0-.9.4-.9 1v.3h-1.1v-6h4v1.1h-2.9v3.2c.1-.2.3-.4.5-.5.2-.1.5-.2.8-.2.6 0 1 .2 1.3.6.4.5.5 1.3.5 2.8.1 1.3 0 2.1-.6 2.7zm-5.3 23.1c-.4.3-.9.5-1.5.5s-1.1-.2-1.5-.5c-.4-.4-.6-.8-.6-1.6v-4.5c0-.8.2-1.2.6-1.6.4-.3.9-.5 1.5-.5s1.1.2 1.5.5c.4.4.6.8.6 1.6v4.5c0 .8-.2 1.3-.6 1.6zm-.6-6.1c0-.7-.4-1-.9-1s-.9.3-.9 1v4.6c0 .7.4 1 .9 1s.9-.3.9-1v-4.6zm6.1 6c-.4.5-1 .7-1.6.7-.7 0-1.2-.3-1.6-.7-.4-.5-.5-1.1-.5-2.5 0-1 .1-1.9.4-2.6l1.7-4.6h1.2l-1.7 4.3c.2-.2.5-.2.7-.2.5 0 1 .2 1.3.6.4.4.5.9.5 2.6.1 1.4-.1 1.9-.4 2.4zm-1-4.4c-.2-.2-.4-.3-.6-.3-.2 0-.5.1-.6.3-.3.3-.3 1-.3 1.9 0 .9 0 1.5.3 1.9.2.2.4.3.6.3.3 0 .5-.1.6-.3.3-.3.3-1 .3-1.9 0-.9 0-1.5-.3-1.9zm-4.4 29.3c-.4.3-.9.5-1.5.5s-1.1-.2-1.5-.5c-.4-.4-.6-.8-.6-1.6V207c0-.8.2-1.2.6-1.6.4-.3.9-.5 1.5-.5s1.1.2 1.5.5c.4.4.6.8.6 1.6v4.5c0 .9-.2 1.3-.6 1.7zm-.6-6.2c0-.7-.4-1-.9-1s-.9.3-.9 1v4.6c0 .7.4 1 .9 1s.9-.3.9-1V207zm3.9 8.3h-1.2l2.7-9.2h-2v1.5h-1.1V205h4.3v1l-2.7 9.3z" fill="#BF2645"/><path d="M263.3 14.9c-.5.5-1.2.9-2.3.9h-3V2.7h3.1c1.1 0 1.8.4 2.3.9.9 1 .9 2.4.9 5.7 0 3.2-.1 4.7-1 5.6zm-1.2-10.3c-.2-.3-.6-.5-1.1-.5h-1.4v10.4h1.4c.5 0 .9-.2 1.1-.5.5-.6.5-1.7.5-4.7.1-3.1 0-4.1-.5-4.7zm5.3 6.8c0 1.5.1 2.4.4 2.8.2.2.4.4.8.4s.6-.1.9-.4c.2-.2.3-.6.3-1.1h1.5c0 .9-.2 1.6-.8 2.1-.5.5-1.1.7-1.9.7-.8 0-1.4-.2-1.9-.7-.7-.8-.9-2.2-.9-4.2s.1-3.5.8-4.2c.5-.5 1.1-.7 1.9-.7.8 0 1.4.2 1.9.7.8.9.8 2.5.8 4.6h-3.8zm2-3.5c-.2-.2-.5-.4-.9-.4s-.6.2-.8.4c-.3.4-.4 1.1-.4 2.4h2.5c0-1.3-.1-2.1-.4-2.4zm7.5 8V8.8c0-.9-.5-1.3-1.2-1.3-.6 0-1.1.4-1.1 1.3v7.1h-1.5V6.3h1.4V7c.1-.2.4-.5.6-.6.3-.2.6-.3 1-.3.7 0 1.2.2 1.6.7.4.4.6.9.6 2v7.1h-1.4zm7.8 2.9c-.4.5-1.1.7-1.9.7-.7 0-1.4-.2-1.9-.7-.5-.5-.7-1.2-.7-2.1h1.5c0 .5.1.9.3 1.2.2.2.5.3.8.3.4 0 .6-.1.8-.4.3-.3.4-.8.4-1.7v-1.4c-.1.2-.4.4-.5.6-.3.2-.6.3-1 .3-.7 0-1.2-.2-1.6-.7-.6-.7-.8-1.8-.8-4s.2-3.4.8-4c.4-.5.8-.7 1.6-.7.4 0 .7.1 1 .3.2.1.4.3.5.5v-.7h1.5v9.9c0 1.3-.3 2.1-.8 2.6zm-.7-9.9c0-.5-.1-.9-.4-1.1-.2-.2-.5-.3-.8-.3-.4 0-.6.2-.8.4-.4.4-.4 1.4-.4 3s0 2.5.4 3c.2.2.4.4.8.4.3 0 .6-.1.8-.3.2-.2.4-.6.4-1.1v-4zm7.1 7V15c-.1.3-.4.5-.6.6-.3.2-.6.4-1.1.4-.7 0-1.2-.2-1.7-.7-.4-.4-.6-1.2-.6-2.2 0-.9.3-1.7.9-2.2.5-.4 1-.6 2-.6h1V8.8c0-.9-.4-1.4-1.1-1.4-.3 0-.6.1-.7.3-.3.3-.4.6-.4 1.1h-1.5c0-.7.2-1.5.7-2 .4-.4 1.1-.7 1.9-.7.8 0 1.4.2 1.9.7.5.5.8 1.1.8 2.1v7h-1.5zm-.1-4.5h-.9c-.5 0-.8.1-1.1.4-.3.3-.4.8-.4 1.3 0 1 .4 1.6 1.2 1.6.7 0 1.2-.6 1.2-1.5v-1.8zm7.3 4.5V8.8c0-.9-.5-1.3-1.2-1.3-.6 0-1.1.4-1.1 1.3v7.1h-1.5V6.3h1.4V7c.1-.2.4-.5.6-.6.3-.2.6-.3 1-.3.7 0 1.2.2 1.6.7.4.4.6.9.6 2v7.1h-1.4zm6.6 0v-1.3l3.2-4.8c.6-.9.7-1.4.7-2.4 0-.9-.5-1.3-1.1-1.3-.6 0-1.1.4-1.1 1.3v.8H305v-.7c0-1 .3-1.6.7-2 .5-.4 1.2-.7 1.9-.7s1.4.2 1.9.7c.5.4.8 1.1.8 2.1 0 1.3-.3 2-1 3l-2.7 4h3.7V16h-5.4zm11.5-.6c-.5.4-1.2.7-1.9.7s-1.4-.3-1.9-.7c-.5-.5-.7-1.1-.7-2V7.4c0-1 .3-1.6.7-2 .5-.4 1.2-.7 1.9-.7s1.4.3 1.9.7c.5.5.7 1.1.7 2v5.8c0 1.1-.3 1.7-.7 2.1zm-.8-7.9c0-.9-.5-1.3-1.2-1.3-.6 0-1.1.4-1.1 1.3v6c0 .9.5 1.3 1.1 1.3.6 0 1.2-.4 1.2-1.3v-6zm5 8.5V6.6l-1.9 1.6V6.4l1.9-1.6h1.5v11.1h-1.5zm8.7-.6v2.8h-1.5v-2.8h-3.6V14l3.4-9.8h1.5l-3.3 9.8h2v-3h1.5v3h1v1.4h-1zm5.8-5.1v5.6h-1v-5.6h-.7v-.7h.7v-.7c0-.7.2-1.1.6-1.4.4-.3.9-.4 1.4-.4v.9c-.7 0-1 .3-1 1v.6h1v.8h-1zm2.6 2.7c0 1 0 1.6.3 1.9.1.1.3.3.6.3.2 0 .4-.1.6-.2.1-.2.2-.4.2-.7h1c0 .6-.2 1-.5 1.4-.3.3-.8.5-1.3.5-.6 0-.9-.1-1.3-.5-.5-.5-.6-1.5-.6-2.8s.1-2.3.6-2.8c.3-.3.8-.5 1.3-.5s.9.1 1.3.5c.5.6.6 1.7.6 3h-2.8zm1.4-2.4c-.1-.1-.3-.3-.6-.3s-.4.1-.6.3c-.2.2-.3.8-.3 1.6h1.6c.2-.8.1-1.3-.1-1.6zm4.8 5.4v-.6c-.1.2-.2.3-.4.4-.2.1-.4.2-.8.2-.5 0-.8-.1-1.1-.5-.2-.3-.4-.8-.4-1.4 0-.6.2-1.1.6-1.4.3-.3.7-.4 1.4-.4h.7v-1c0-.6-.3-.9-.8-.9-.2 0-.4.1-.5.2-.2.2-.2.4-.2.7h-1c0-.5.1-1 .5-1.4.3-.3.7-.5 1.2-.5s1 .1 1.2.4c.3.3.5.8.5 1.4v4.7h-.9zm-.1-3h-.6c-.3 0-.5 0-.7.2-.2.2-.3.5-.3.9 0 .7.3 1.1.8 1.1s.8-.4.8-1v-1.2zm3.2 2.6c-.4-.3-.6-.8-.6-1.4v-3.8h-.7v-.8h.7V7.7h1v1.8h1v.8h-1V14c0 .7.4 1 1 1v.9c-.5 0-1-.1-1.4-.4zm4.9.4v-.5l-.4.4c-.2.1-.4.2-.7.2-.5 0-.8-.2-1.1-.5-.3-.3-.4-.6-.4-1.3V9.5h1v4.7c0 .6.3.9.8.9.4 0 .8-.3.8-.9V9.5h1v6.4h-1zm4.5-5.6c-.7 0-1.2.4-1.2 1.2v4.4h-1V9.5h1v.7c.1-.2.3-.3.4-.5.3-.2.6-.3 1.1-.3v1h-.3zm1.7-2c-.4 0-.7-.3-.7-.7 0-.4.3-.7.7-.7.4 0 .7.3.7.7 0 .4-.3.7-.7.7zm-.5 7.6V9.5h1v6.4h-1zm5 0v-4.7c0-.6-.3-.9-.8-.9-.4 0-.8.3-.8.9v4.7h-1V9.5h1v.5l.4-.4c.2-.1.4-.2.7-.2.5 0 .8.2 1.1.5.3.3.4.6.4 1.3v4.7h-1zm5.2 1.9c-.3.3-.8.5-1.3.5s-1-.1-1.3-.5c-.4-.4-.5-.8-.5-1.4h1c0 .3 0 .6.2.8.1.1.3.2.5.2s.4-.1.5-.2c.2-.2.2-.5.2-1.1v-1c-.1.1-.2.3-.4.4-.2.1-.4.2-.7.2-.5 0-.8-.1-1.1-.5-.4-.5-.5-1.2-.5-2.7 0-1.5.1-2.2.5-2.7.3-.3.6-.5 1.1-.5.3 0 .5.1.7.2.1.1.3.2.4.4v-.4h1V16c.2 1 0 1.5-.3 1.8zm-.5-6.6c0-.3-.1-.6-.2-.7-.1-.1-.3-.2-.5-.2s-.4.1-.5.3c-.2.3-.3.9-.3 2s0 1.7.3 2c.1.2.3.3.5.3s.4-.1.5-.2c.1-.2.2-.4.2-.7v-2.8zm8.4 4.1c-.3.4-.8.6-1.5.6h-2V7.1h2c.7 0 1.2.3 1.5.6.6.7.6 1.6.6 3.8 0 2.1 0 3.1-.6 3.8zm-.9-6.9c-.1-.2-.4-.3-.7-.3h-.9V15h.9c.3 0 .6-.1.7-.3.3-.4.4-1.1.4-3.1s0-2.8-.4-3.2zm4.9 7c-.4.4-.9.6-1.6.6-.7 0-1.2-.2-1.6-.7l.8-.7c.2.2.5.4.8.4.6 0 1.1-.4 1.1-1.2V7.1h1.1v6.7c0 .6-.2 1.2-.6 1.6zm5.5-7.4v3h2v1h-2v3.9h-1.1V7.1h3.4v1h-2.3zm5.6 7.9v-.5l-.4.4c-.2.1-.4.2-.7.2-.5 0-.8-.2-1.1-.5-.3-.3-.4-.6-.4-1.3V9.5h1v4.7c0 .6.3.9.8.9.4 0 .8-.3.8-.9V9.5h1v6.4h-1zm2 0v-.8l2-4.8h-1.9v-.8h3v.8l-2 4.7h2v.9h-3.1zm3.7 0v-.8l2-4.8h-1.9v-.8h3v.8l-2 4.7h2v.9h-3.1zm10.7 0l-.6-.9c-.5.6-1 1-1.9 1-1.1 0-2-.8-2-2.2 0-1 .5-1.8 1.4-2.7-.7-1-1-1.5-1-2.2 0-1.1.7-1.9 1.7-1.9 1.2 0 1.7.8 1.7 1.8s-.4 1.7-1.2 2.5l1.3 2c.2-.5.4-1.2.5-1.9h.9c-.1 1-.4 2-.8 2.7l1.1 1.7h-1.1zm-2.6-4c-.7.7-1 1.2-1 1.8 0 .8.4 1.4 1.1 1.4.5 0 .9-.3 1.3-.9l-1.4-2.3zm.2-4c-.5 0-.8.5-.8.9s.2.8.7 1.6c.5-.5.8-.9.8-1.6.1-.6-.2-.9-.7-.9zm10.2 7.4c-.3.4-.8.6-1.5.6h-2V7.1h2c.7 0 1.2.3 1.5.6.6.7.6 1.6.6 3.8 0 2.1 0 3.1-.6 3.8zm-.8-6.9c-.2-.2-.4-.4-.8-.4h-.9v6.9h.9c.3 0 .6-.1.7-.3.3-.4.4-1.1.4-3.1s0-2.7-.3-3.1zm3.5 4.5c0 1 0 1.6.3 1.9.1.1.3.3.6.3.2 0 .4-.1.6-.2.1-.2.2-.4.2-.7h1c0 .6-.2 1-.5 1.4-.3.3-.8.5-1.3.5-.6 0-.9-.1-1.3-.5-.5-.5-.6-1.5-.6-2.8s.1-2.3.6-2.8c.3-.3.8-.5 1.3-.5s.9.1 1.3.5c.5.6.6 1.7.6 3h-2.8zm1.4-2.4c-.1-.1-.3-.3-.6-.3s-.4.1-.6.3c-.2.2-.3.8-.3 1.6h1.6c.1-.8.1-1.3-.1-1.6zm3.2 2.4c0 1 0 1.6.3 1.9.1.1.3.3.6.3.2 0 .4-.1.6-.2.1-.2.2-.4.2-.7h1c0 .6-.2 1-.5 1.4-.3.3-.8.5-1.3.5-.6 0-.9-.1-1.3-.5-.5-.5-.6-1.5-.6-2.8s.1-2.3.6-2.8c.3-.3.8-.5 1.3-.5s.9.1 1.3.5c.5.6.6 1.7.6 3h-2.8zm1.4-2.4c-.1-.1-.3-.3-.6-.3s-.4.1-.6.3c-.2.2-.3.8-.3 1.6h1.6c.1-.8.1-1.3-.1-1.6zm4.9 5.4v-4.7c0-.6-.3-.9-.8-.9-.4 0-.8.3-.8.9v4.7h-1V9.5h1v.5l.4-.4c.2-.1.4-.2.7-.2.5 0 .8.2 1.1.5.3.3.4.6.4 1.3v4.7h-1zM263 39.9c-.5.5-1.3.8-2.3.8-1 0-1.8-.3-2.3-.8-.6-.6-.8-1.4-.8-2.8h1.6c0 .9.1 1.4.4 1.7.2.2.6.4 1.1.4.5 0 .9-.2 1.1-.4.4-.4.4-.9.4-1.8 0-1.5-.2-2-1.3-2.4l-1.5-.6c-1.4-.6-1.8-1.3-1.8-3.3 0-1.2.3-2.1 1-2.7.5-.5 1.2-.8 2.1-.8 1 0 1.7.3 2.2.8.7.6.9 1.5.9 2.7h-1.6c0-.7-.1-1.2-.4-1.6-.2-.3-.6-.4-1.1-.4-.5 0-.8.2-1 .4-.3.4-.5.9-.5 1.6 0 1.3.2 1.7 1.3 2.1l1.5.6c1.5.6 1.9 1.5 1.9 3.6-.1 1.4-.3 2.3-.9 2.9zm7.1 0c-.5.6-1.2.9-2 .9-.9 0-1.5-.2-2-.9-.6-.8-.7-2.1-.7-4.1 0-1.9.1-3.3.7-4.1.5-.6 1.2-.9 2-.9.9 0 1.6.2 2 .9.6.8.7 2.1.7 4.1 0 1.9-.1 3.3-.7 4.1zm-1.2-7.3c-.2-.3-.5-.4-.9-.4s-.6.1-.8.4c-.4.5-.4 1.5-.4 3.2 0 1.7 0 2.7.4 3.2.2.3.5.4.8.4.4 0 .7-.1.9-.4.4-.5.4-1.5.4-3.2 0-1.7 0-2.7-.4-3.2zm7.2 8v-.9c-.1.3-.4.5-.6.6-.3.2-.6.4-1.1.4-.7 0-1.2-.2-1.7-.7-.4-.4-.6-1.2-.6-2.2 0-.9.3-1.7.9-2.2.5-.4 1-.6 2-.6h1v-1.5c0-.9-.4-1.4-1.1-1.4-.3 0-.6.1-.7.3-.3.3-.4.6-.4 1.1h-1.5c0-.7.2-1.5.7-2 .4-.4 1.1-.7 1.9-.7.8 0 1.4.2 1.9.7.5.5.8 1.1.8 2.1v7h-1.5zm-.1-4.5h-.9c-.5 0-.8.1-1.1.4-.3.3-.4.8-.4 1.3 0 1 .4 1.6 1.2 1.6.7 0 1.2-.6 1.2-1.5v-1.8zm4.3 3.9c-.5-.4-.9-1.1-.9-2.2V27.4h1.5v10.4c0 .9.4 1.4 1.4 1.4v1.4c-.7 0-1.4-.1-2-.6zm10.7-.1c-.6.6-1.4.9-2.3.9-1 0-1.8-.4-2.4-1l1.1-1.1c.3.4.7.6 1.2.6.9 0 1.6-.6 1.6-1.9v-10h1.6v10.1c0 .9-.2 1.8-.8 2.4zm6.4.7v-.9c-.1.3-.4.5-.6.6-.3.2-.6.4-1.1.4-.7 0-1.2-.2-1.7-.7-.4-.4-.6-1.2-.6-2.2 0-.9.3-1.7.9-2.2.5-.4 1-.6 2-.6h1v-1.5c0-.9-.4-1.4-1.1-1.4-.3 0-.6.1-.7.3-.3.3-.4.6-.4 1.1h-1.5c0-.7.2-1.5.7-2 .4-.4 1.1-.7 1.9-.7.8 0 1.4.2 1.9.7.5.5.8 1.1.8 2.1v7h-1.5zm0-4.5h-.9c-.5 0-.8.1-1.1.4-.3.3-.4.8-.4 1.3 0 1 .4 1.6 1.2 1.6.7 0 1.2-.6 1.2-1.5v-1.8zm10.1 4.5H306l-1.3-7-1.3 7h-1.5l-2-9.6h1.7l1.1 7.2L304 31h1.4l1.4 7.2 1.1-7.2h1.7l-2.1 9.6zm6.7 0v-.9c-.1.3-.4.5-.6.6-.3.2-.6.4-1.1.4-.7 0-1.2-.2-1.7-.7-.4-.4-.6-1.2-.6-2.2 0-.9.3-1.7.9-2.2.5-.4 1-.6 2-.6h1v-1.5c0-.9-.4-1.4-1.1-1.4-.3 0-.6.1-.7.3-.3.3-.4.6-.4 1.1h-1.5c0-.7.2-1.5.7-2 .4-.4 1.1-.7 1.9-.7.8 0 1.4.2 1.9.7.5.5.8 1.1.8 2.1v7h-1.5zm-.1-4.5h-.9c-.5 0-.8.1-1.1.4-.3.3-.4.8-.4 1.3 0 1 .4 1.6 1.2 1.6.7 0 1.2-.6 1.2-1.5v-1.8zm8.2 3.9c-.4.5-.9.7-1.6.7-.4 0-.7-.1-1-.3-.2-.1-.5-.4-.6-.6v.7h-1.4V27.4h1.5v4.3c.1-.2.4-.4.5-.5.3-.2.7-.3 1-.3.7 0 1.2.2 1.6.7.6.7.7 2 .7 4.2s-.1 3.5-.7 4.2zm-1.2-7.4c-.2-.3-.5-.4-.8-.4-.3 0-.6.1-.8.3-.2.2-.4.6-.4 1.1V38c0 .5.1.9.4 1.1.2.2.5.3.8.3.3 0 .7-.1.8-.4.4-.5.4-1.5.4-3.2 0-1.7 0-2.7-.4-3.2zm14 8v-9.4l-2.1 6.2h-1l-2.1-6v9.3h-1.6V27.4h1.5l2.7 7.3 2.7-7.3h1.5v13.2h-1.6zm7.4 0v-.9c-.1.3-.4.5-.6.6-.3.2-.6.4-1.1.4-.7 0-1.2-.2-1.7-.7-.4-.4-.6-1.2-.6-2.2 0-.9.3-1.7.9-2.2.5-.4 1-.6 2-.6h1v-1.5c0-.9-.4-1.4-1.1-1.4-.3 0-.6.1-.7.3-.3.3-.4.6-.4 1.1h-1.5c0-.7.2-1.5.7-2 .4-.4 1.1-.7 1.9-.7.8 0 1.4.2 1.9.7.5.5.8 1.1.8 2.1v7h-1.5zm-.1-4.5h-.9c-.5 0-.8.1-1.1.4-.3.3-.4.8-.4 1.3 0 1 .4 1.6 1.2 1.6.7 0 1.2-.6 1.2-1.5v-1.8zm7.3 4.5v-7.1c0-.9-.5-1.3-1.2-1.3-.6 0-1.1.4-1.1 1.3v7.1h-1.5V27.4h1.5v4.3c.1-.2.4-.4.5-.5.3-.2.7-.3 1-.3.7 0 1.2.2 1.6.7.4.4.6.9.6 2v7.1h-1.4zm7 0v-.9c-.1.3-.4.5-.6.6-.3.2-.6.4-1.1.4-.7 0-1.2-.2-1.7-.7-.4-.4-.6-1.2-.6-2.2 0-.9.3-1.7.9-2.2.5-.4 1-.6 2-.6h1v-1.5c0-.9-.4-1.4-1.1-1.4-.3 0-.6.1-.7.3-.3.3-.4.6-.4 1.1h-1.5c0-.7.2-1.5.7-2 .4-.4 1.1-.7 1.9-.7.8 0 1.4.2 1.9.7.5.5.8 1.1.8 2.1v7h-1.5zm0-4.5h-.9c-.5 0-.8.1-1.1.4-.3.3-.4.8-.4 1.3 0 1 .4 1.6 1.2 1.6.7 0 1.2-.6 1.2-1.5v-1.8zm8.2 3.9c-.4.5-.9.7-1.6.7-.4 0-.7-.1-1-.3-.2-.1-.5-.4-.6-.6v.7h-1.4V27.4h1.5v4.3c.1-.2.4-.4.5-.5.3-.2.7-.3 1-.3.7 0 1.2.2 1.6.7.6.7.7 2 .7 4.2s-.1 3.5-.7 4.2zm-1.2-7.4c-.2-.3-.5-.4-.8-.4-.3 0-.6.1-.8.3-.2.2-.4.6-.4 1.1V38c0 .5.1.9.4 1.1.2.2.5.3.8.3.3 0 .6-.1.8-.4.4-.5.4-1.5.4-3.2 0-1.7 0-2.7-.4-3.2zm8.4 7.4c-.4.5-.9.7-1.6.7-.4 0-.7-.1-1-.3-.2-.1-.5-.4-.6-.6v.7h-1.4V27.4h1.5v4.3c.1-.2.4-.4.5-.5.3-.2.7-.3 1-.3.7 0 1.2.2 1.6.7.6.7.7 2 .7 4.2s-.1 3.5-.7 4.2zm-1.2-7.4c-.2-.3-.5-.4-.8-.4-.3 0-.6.1-.8.3-.2.2-.4.6-.4 1.1V38c0 .5.1.9.4 1.1.2.2.5.3.8.3.3 0 .6-.1.8-.4.4-.5.4-1.5.4-3.2-.1-1.7-.1-2.7-.4-3.2zm7.2 8v-.9c-.1.3-.4.5-.6.6-.3.2-.6.4-1.1.4-.7 0-1.2-.2-1.7-.7-.4-.4-.6-1.2-.6-2.2 0-.9.3-1.7.9-2.2.5-.4 1-.6 2-.6h1v-1.5c0-.9-.4-1.4-1.1-1.4-.3 0-.6.1-.7.3-.3.3-.4.6-.4 1.1h-1.5c0-.7.2-1.5.7-2 .4-.4 1.1-.7 1.9-.7.8 0 1.4.2 1.9.7.5.5.8 1.1.8 2.1v7h-1.5zm-.1-4.5h-.9c-.5 0-.8.1-1.1.4-.3.3-.4.8-.4 1.3 0 1 .4 1.6 1.2 1.6.7 0 1.2-.6 1.2-1.5v-1.8zm7.3 4.5v-7.1c0-.9-.5-1.3-1.2-1.3-.6 0-1.1.4-1.1 1.3v7.1h-1.5V27.4h1.5v4.3c.1-.2.4-.4.5-.5.3-.2.7-.3 1-.3.7 0 1.2.2 1.6.7.4.4.6.9.6 2v7.1h-1.4zm8.6-.4c-.3.3-.6.5-1.1.5-.3 0-.5-.1-.7-.2l-.4-.4v.5h-1v-8.8h1v2.8c.1-.1.2-.3.4-.4.2-.1.4-.2.7-.2.5 0 .8.2 1.1.5.4.5.5 1.3.5 2.8 0 1.6-.1 2.4-.5 2.9zm-.8-4.9c-.1-.2-.3-.3-.6-.3-.2 0-.4.1-.5.2-.2.2-.2.4-.2.7v2.9c0 .3.1.6.2.8.1.1.3.2.5.2s.4-.1.6-.3c.2-.3.2-1 .2-2.1.1-1.2.1-1.8-.2-2.1zm4.2 6.3c-.3 1.2-1.1 1.4-2.1 1.4v-.9c.6 0 1-.2 1.2-.7l.2-.8-1.6-6.4h1.1l1 4.8 1-4.8h1.1l-1.9 7.4zm7-8.9v7.9h-1.1v-7.9h-1.5v-1h4v1h-1.4zm4.9 7.9v-4.7c0-.6-.3-.9-.8-.9-.4 0-.8.3-.8.9v4.7h-1v-8.8h1v2.9c.1-.1.2-.3.4-.4.2-.1.4-.2.7-.2.5 0 .8.2 1.1.5.3.3.4.6.4 1.3v4.7h-1zm3.2-3c0 1 0 1.6.3 1.9.1.1.3.3.6.3.2 0 .4-.1.6-.2.1-.2.2-.4.2-.7h1c0 .6-.2 1-.5 1.4-.3.3-.8.5-1.3.5-.6 0-.9-.1-1.3-.5-.5-.5-.6-1.5-.6-2.8 0-1.3.1-2.3.6-2.8.3-.3.8-.5 1.3-.5s.9.1 1.3.5c.5.6.6 1.7.6 3h-2.8zm1.4-2.3c-.1-.1-.3-.3-.6-.3s-.4.1-.6.3c-.2.2-.3.8-.3 1.6h1.6c.1-.9.1-1.4-.1-1.6zm4.8 5.3v-8.8h1.1v8.8h-1.1zm4.9 2.4v-2.8c-.1.1-.2.3-.4.4-.2.1-.4.2-.7.2-.5 0-.8-.2-1.1-.5-.4-.5-.5-1.3-.5-2.8 0-1.5.1-2.4.5-2.8.3-.3.6-.5 1.1-.5.3 0 .5.1.7.2l.4.4v-.5h1V43h-1zm0-7.1c0-.3-.1-.6-.3-.7-.1-.1-.3-.2-.5-.2s-.4.1-.5.3c-.2.3-.3 1-.3 2.1 0 1.2 0 1.8.3 2.1.1.2.3.3.5.3s.4 0 .5-.2c.2-.2.3-.4.3-.8v-2.9zm5.6 4.3c-.3.3-.6.5-1.1.5-.3 0-.5-.1-.7-.2l-.4-.4v.5h-1v-8.8h1v2.8c.1-.1.2-.3.4-.4.2-.1.4-.2.7-.2.5 0 .8.2 1.1.5.4.5.5 1.3.5 2.8-.1 1.6-.1 2.4-.5 2.9zm-.8-4.9c-.1-.2-.3-.3-.6-.3-.2 0-.4.1-.5.2-.2.2-.2.4-.2.7v2.9c0 .3.1.6.2.8.1.1.3.2.5.2s.4-.1.6-.3c.2-.3.2-1 .2-2.1 0-1.2 0-1.8-.2-2.1zm4.8 5.3V40c-.1.2-.2.3-.4.4-.2.1-.4.2-.8.2-.5 0-.8-.1-1.1-.5-.2-.3-.4-.8-.4-1.4 0-.6.2-1.1.6-1.4.3-.3.7-.4 1.4-.4h.7v-1c0-.6-.3-.9-.8-.9-.2 0-.4.1-.5.2-.2.2-.2.4-.2.7h-1c0-.5.1-1 .5-1.4.3-.3.7-.5 1.2-.5s1 .1 1.3.4c.3.3.5.8.5 1.4v4.7h-1zm-.1-3h-.6c-.3 0-.5 0-.7.2-.2.2-.3.5-.3.9 0 .7.3 1.1.8 1.1s.8-.4.8-1v-1.2zm2.9 2.6c-.3-.3-.6-.7-.6-1.4v-7h1v6.9c0 .6.3 1 1 1v.9c-.6 0-1-.1-1.4-.4zm4.3.4v-.8l2.5-7.1h-2.3v-1h3.4v.8l-2.4 7.1h2.4v1h-3.6zm6.9 0V40c-.1.2-.2.3-.4.4-.2.1-.4.2-.8.2-.5 0-.8-.1-1.1-.5-.2-.3-.4-.8-.4-1.4 0-.6.2-1.1.6-1.4.3-.3.7-.4 1.4-.4h.7v-1c0-.6-.3-.9-.8-.9-.2 0-.4.1-.5.2-.2.2-.2.4-.2.7h-1c0-.5.1-1 .5-1.4.3-.3.7-.5 1.2-.5s1 .1 1.3.4c.3.3.5.8.5 1.4v4.7h-1zm0-3h-.6c-.3 0-.5 0-.7.2-.2.2-.3.5-.3.9 0 .7.3 1.1.8 1.1s.8-.4.8-1v-1.2zM450 33c-.4 0-.7-.3-.7-.7 0-.4.3-.7.7-.7s.7.3.7.7c-.1.4-.4.7-.7.7zm-.6 7.6v-6.4h1v6.4h-1zm5 0v-4.7c0-.6-.3-.9-.8-.9-.4 0-.8.3-.8.9v4.7h-1v-6.4h1v.5l.4-.4c.2-.1.4-.2.7-.2.5 0 .8.2 1.1.5.3.3.4.6.4 1.3v4.7h-1zM263.9 65.8l-1.1-.9c-.5.4-1.1.6-1.9.6-1.1 0-1.8-.4-2.3-.9-.9-1-1-2.5-1-5.8s.1-4.8 1-5.8c.5-.6 1.2-.9 2.3-.9 1.1 0 1.8.4 2.3.9.9 1 .9 2.5.9 5.8 0 2.8 0 4.3-.6 5.3l1.1.9-.7.8zM262 53.9c-.2-.3-.6-.5-1.1-.5-.5 0-.9.2-1.1.5-.5.6-.6 1.7-.6 4.8 0 3.1.1 4.2.6 4.8.2.3.6.5 1.1.5.3 0 .5-.1.7-.2l-.9-.7.8-.9.8.6c.2-.7.3-1.7.3-4.2 0-3-.1-4.1-.6-4.7zm7.6 11.4v-.9c-.1.3-.4.5-.6.6-.3.2-.6.4-1.1.4-.7 0-1.2-.2-1.7-.7-.4-.4-.6-1.2-.6-2.2 0-.9.3-1.7.9-2.2.5-.4 1-.6 2-.6h1v-1.5c0-.9-.4-1.4-1.1-1.4-.3 0-.6.1-.7.3-.3.3-.4.6-.4 1.1h-1.5c0-.7.2-1.5.7-2 .4-.4 1.1-.7 1.9-.7.8 0 1.4.2 1.9.7.5.5.8 1.1.8 2.1v7h-1.5zm-.1-4.4h-.9c-.5 0-.8.1-1.1.4-.3.3-.4.8-.4 1.3 0 1 .4 1.6 1.2 1.6.7 0 1.2-.6 1.2-1.5v-1.8zm7.1 4.4v-.7c-.1.2-.4.5-.6.6-.3.2-.7.3-1 .3-.6 0-1.2-.2-1.6-.7-.6-.7-.7-2-.7-4.3 0-2.2.1-3.5.7-4.2.4-.5.9-.7 1.6-.7.4 0 .7.1 1 .3.2.1.4.3.5.5v-4.3h1.5v13.2h-1.4zm0-7c0-.5-.1-.9-.4-1.1-.2-.2-.5-.3-.8-.3-.3 0-.6.1-.8.4-.4.5-.4 1.5-.4 3.2 0 1.7 0 2.7.4 3.2.2.3.5.4.8.4.3 0 .6-.1.8-.3.2-.2.4-.6.4-1.1v-4.4zm12.3 7l-2.3-6-1.1 2.3v3.7h-1.6V52.1h1.6v6.7l3.2-6.7h1.6l-2.7 5.5 3.1 7.8h-1.8zm6.4 0v-.9c-.1.3-.4.5-.6.6-.3.2-.6.4-1.1.4-.7 0-1.2-.2-1.6-.7-.4-.4-.6-1.2-.6-2.2 0-.9.3-1.7.9-2.2.5-.4 1-.6 2-.6h1v-1.5c0-.9-.4-1.4-1.1-1.4-.3 0-.6.1-.7.3-.3.3-.4.6-.4 1.1h-1.5c0-.7.2-1.5.7-2 .4-.4 1.1-.7 1.9-.7.8 0 1.4.2 1.9.7.5.5.8 1.1.8 2.1v7h-1.6zm-.1-4.4h-.9c-.5 0-.8.1-1.1.4-.3.3-.4.8-.4 1.3 0 1 .4 1.6 1.2 1.6.7 0 1.2-.6 1.2-1.5v-1.8zm5.4-4v8.4h-1.5v-8.4H298v-1.2h1.1v-.9c0-1 .3-1.7.8-2.1.6-.5 1.3-.6 2.2-.6v1.4c-1 0-1.5.5-1.5 1.4v.9h1.5V57h-1.5zm6.4 8.4v-.9c-.1.3-.4.5-.6.6-.3.2-.6.4-1.1.4-.7 0-1.2-.2-1.7-.7-.4-.4-.6-1.2-.6-2.2 0-.9.3-1.7.9-2.2.5-.4 1-.6 2-.6h1v-1.5c0-.9-.4-1.4-1.1-1.4-.3 0-.6.1-.7.3-.3.3-.4.6-.4 1.1h-1.5c0-.7.2-1.5.7-2 .4-.4 1.1-.7 1.9-.7.8 0 1.4.2 1.9.7.5.5.8 1.1.8 2.1v7H307zm-.1-4.4h-.9c-.5 0-.8.1-1.1.4-.3.3-.4.8-.4 1.3 0 1 .4 1.6 1.2 1.6.7 0 1.2-.6 1.2-1.5v-1.8zm7.3 4.4v-7.1c0-.9-.5-1.3-1.2-1.3-.6 0-1.1.4-1.1 1.3v7.1h-1.5v-9.6h1.4v.7c.1-.2.4-.5.6-.6.3-.2.6-.3 1-.3.7 0 1.2.2 1.6.7.4.4.6.9.6 2v7.1h-1.4zm4.3-11.4c-.6 0-1-.4-1-1s.4-1 1-1 1 .4 1 1-.4 1-1 1zm-.8 11.4v-9.6h1.5v9.6h-1.5zm6.9-5.6v5.6h-1v-5.6h-.7v-.8h.7v-.6c0-.7.2-1.1.6-1.4.4-.3.9-.4 1.4-.4v.9c-.7 0-1 .3-1 1v.6h1v.8h-1zm2.6 2.7c0 1 0 1.6.3 1.9.1.1.3.3.6.3.2 0 .4-.1.6-.2.1-.2.2-.4.2-.7h1c0 .6-.2 1-.5 1.4-.3.3-.8.5-1.3.5-.6 0-.9-.1-1.3-.5-.5-.5-.6-1.5-.6-2.8 0-1.3.1-2.3.6-2.8.3-.3.8-.5 1.3-.5s.9.1 1.3.5c.5.6.6 1.7.6 3h-2.8zm1.3-2.4c-.1-.1-.3-.3-.6-.3s-.4.1-.6.3c-.2.2-.3.8-.3 1.6h1.6c.2-.9.1-1.4-.1-1.6zm4.8 5.3v-.6c-.1.2-.2.3-.4.4-.2.1-.4.2-.8.2-.5 0-.8-.1-1.1-.5-.2-.3-.4-.8-.4-1.4 0-.6.2-1.1.6-1.4.3-.3.7-.4 1.4-.4h.7v-1c0-.6-.3-.9-.8-.9-.2 0-.4.1-.5.2-.2.2-.2.4-.2.7h-1c0-.5.1-1 .5-1.4.3-.3.7-.5 1.2-.5s1 .1 1.2.4c.3.3.5.8.5 1.4v4.7h-.9zm-.1-2.9h-.6c-.3 0-.5 0-.7.2-.2.2-.3.5-.3.9 0 .7.3 1.1.8 1.1s.8-.4.8-1v-1.2zm3.2 2.5c-.4-.3-.6-.8-.6-1.4v-3.8h-.7v-.8h.7v-1.8h1v1.8h1v.8h-1v3.8c0 .7.4 1 1 1v.9c-.5-.1-1-.1-1.4-.5zm4.9.4v-.5l-.4.4c-.2.1-.4.2-.7.2-.5 0-.8-.2-1.1-.5-.3-.3-.4-.6-.4-1.3v-4.7h1v4.7c0 .6.3.9.8.9.4 0 .8-.3.8-.9v-4.7h1v6.4h-1zm4.6-5.5c-.7 0-1.2.4-1.2 1.2v4.4h-1V59h1v.7c.1-.2.3-.3.4-.5.3-.2.6-.3 1.1-.3v1h-.3zm1.7-2.1c-.4 0-.7-.3-.7-.7s.3-.7.7-.7c.4 0 .7.3.7.7s-.4.7-.7.7zm-.5 7.6v-6.4h1v6.4h-1zm4.9 0v-4.7c0-.6-.3-.9-.8-.9-.4 0-.8.3-.8.9v4.7h-1v-6.4h1v.5l.4-.4c.2-.1.4-.2.7-.2.5 0 .8.2 1.1.5.3.3.4.6.4 1.3v4.7h-1zm5.2 2c-.3.3-.8.5-1.3.5s-1-.1-1.3-.5c-.4-.4-.5-.8-.5-1.4h1c0 .3 0 .6.2.8.1.1.3.2.5.2s.4-.1.5-.2c.2-.2.2-.5.2-1.1v-1c-.1.1-.2.3-.4.4-.2.1-.4.2-.7.2-.5 0-.8-.1-1.1-.5-.4-.5-.5-1.2-.5-2.7 0-1.5.1-2.2.5-2.7.3-.3.6-.5 1.1-.5.3 0 .5.1.7.2.1.1.3.2.4.4v-.5h1v6.6c.2.9.1 1.4-.3 1.8zm-.5-6.7c0-.3-.1-.6-.2-.7-.1-.1-.3-.2-.5-.2s-.4.1-.5.3c-.2.3-.3.9-.3 2s0 1.7.3 2c.1.2.3.3.5.3s.4-.1.5-.2c.1-.2.2-.4.2-.7v-2.8zm8.1 4.7l-.4-2.1h-2l-.4 2.1h-1.1l2.1-8.8h1l2 8.8h-1.2zm-1.4-7.1l-.8 4.1h1.6l-.8-4.1zm5.8 7.1v-4.7c0-.6-.3-.9-.8-.9-.4 0-.8.3-.8.9v4.7h-1v-8.8h1v2.9c.1-.1.2-.3.4-.4.2-.1.4-.2.7-.2.5 0 .8.2 1.1.5.3.3.4.6.4 1.3v4.7h-1zm7.4 0v-4.7c0-.6-.3-.9-.8-.9-.4 0-.8.3-.8.9v4.7h-1v-4.7c0-.6-.3-.9-.8-.9-.4 0-.8.3-.8.9v4.7h-1v-6.4h1v.5l.4-.4c.2-.1.4-.2.7-.2.5 0 1 .3 1.2.7.1-.2.3-.4.5-.5.2-.1.5-.2.7-.2.6 0 .9.2 1.2.5.3.3.4.6.4 1.3v4.7h-.9zm3.2-2.9c0 1 0 1.6.3 1.9.1.1.3.3.6.3.2 0 .4-.1.6-.2.1-.2.2-.4.2-.7h1c0 .6-.2 1-.5 1.4-.3.3-.8.5-1.3.5-.6 0-.9-.1-1.3-.5-.5-.5-.6-1.5-.6-2.8 0-1.3.1-2.3.6-2.8.3-.3.8-.5 1.3-.5s.9.1 1.3.5c.5.6.6 1.7.6 3h-2.8zm1.4-2.4c-.1-.1-.3-.3-.6-.3s-.4.1-.6.3c-.2.2-.3.8-.3 1.6h1.6c.1-.9.1-1.4-.1-1.6zm4.8 5.3v-.5l-.4.4c-.2.1-.4.2-.7.2-.4 0-.8-.1-1.1-.5-.4-.5-.5-1.3-.5-2.8 0-1.5.1-2.4.5-2.8.3-.3.6-.5 1.1-.5.3 0 .5.1.7.2.1.1.3.2.4.4v-2.8h1v8.8h-1zm0-4.7c0-.3-.1-.6-.3-.7-.1-.1-.3-.2-.5-.2s-.4.1-.5.3c-.2.3-.3 1-.3 2.1 0 1.2 0 1.8.3 2.1.1.2.3.3.5.3s.4 0 .5-.2c.2-.2.3-.4.3-.8v-2.9zm8.3 4.2c-.4.4-.9.5-1.6.5h-1.9v-8.8h1.9c.8 0 1.3.2 1.6.5.4.4.5.9.5 1.8 0 .6-.1 1.1-.5 1.5-.1.1-.3.3-.5.3.2.1.4.2.5.3.5.5.5 1.1.5 1.7 0 1.2-.1 1.8-.5 2.2zm-1.7-7.3h-.8v2.8h.8c.8 0 1.1-.4 1.1-1.4 0-1.1-.4-1.4-1.1-1.4zm0 3.7h-.8v3.2h.8c.8 0 1.2-.4 1.2-1.6 0-1.1-.4-1.6-1.2-1.6zm4.1-3.5c-.4 0-.7-.3-.7-.7s.3-.7.7-.7c.4 0 .7.3.7.7s-.4.7-.7.7zm-.5 7.6v-6.4h1v6.4h-1zm4.9 0v-4.7c0-.6-.3-.9-.8-.9-.4 0-.8.3-.8.9v4.7h-1v-6.4h1v.5l.4-.4c.2-.1.4-.2.7-.2.5 0 .8.2 1.1.5.3.3.4.6.4 1.3v4.7h-1zm8.1-.4c-.3.3-.9.5-1.6.5-.7 0-1.2-.2-1.5-.5-.4-.4-.5-.9-.5-1.9h1.1c0 .6.1.9.3 1.2.1.2.4.3.7.3.4 0 .6-.1.8-.3.2-.3.3-.6.3-1.2 0-1-.1-1.3-.9-1.6l-1-.4c-.9-.4-1.2-.9-1.2-2.2 0-.8.2-1.4.7-1.8.3-.3.8-.5 1.4-.5.6 0 1.1.2 1.5.5.4.4.6 1 .6 1.8h-1.1c0-.5 0-.8-.3-1.1-.1-.2-.4-.3-.7-.3-.3 0-.5.1-.7.3-.2.2-.3.6-.3 1.1 0 .9.1 1.1.8 1.4l1 .4c1 .4 1.2 1 1.2 2.4-.1.9-.2 1.5-.6 1.9zm4.3.4v-.5l-.4.4c-.2.1-.4.2-.7.2-.5 0-.8-.2-1.1-.5-.3-.3-.4-.6-.4-1.3v-4.7h1v4.7c0 .6.3.9.8.9.4 0 .8-.3.8-.9v-4.7h1v6.4h-1zm7.4 0v-4.7c0-.6-.3-.9-.8-.9-.4 0-.8.3-.8.9v4.7h-1v-4.7c0-.6-.3-.9-.8-.9-.4 0-.8.3-.8.9v4.7h-1v-6.4h1v.5l.4-.4c.2-.1.4-.2.7-.2.5 0 1 .3 1.2.7.1-.2.3-.4.5-.5.2-.1.5-.2.7-.2.6 0 .9.2 1.1.5.3.3.4.6.4 1.3v4.7h-.8zm4.7 0v-.6c-.1.2-.2.3-.4.4-.2.1-.4.2-.8.2-.5 0-.8-.1-1.1-.5-.2-.3-.4-.8-.4-1.4 0-.6.2-1.1.6-1.4.3-.3.7-.4 1.4-.4h.7v-1c0-.6-.3-.9-.8-.9-.2 0-.4.1-.5.2-.2.2-.2.4-.2.7h-1c0-.5.1-1 .5-1.4.3-.3.7-.5 1.2-.5s1 .1 1.2.4c.3.3.5.8.5 1.4v4.7h-.9zm-.1-2.9h-.5c-.3 0-.5 0-.7.2-.2.2-.3.5-.3.9 0 .7.3 1.1.8 1.1s.8-.4.8-1v-1.2zm2.9-4.7c-.4 0-.7-.3-.7-.7s.3-.7.7-.7c.4 0 .7.3.7.7s-.3.7-.7.7zm-.5 7.6v-6.4h1v6.4h-1zm3.2-.4c-.4-.3-.6-.8-.6-1.4v-3.8h-.7v-.8h.7v-1.8h1v1.8h1v.8h-1v3.8c0 .7.4 1 1 1v.9c-.5-.1-1-.1-1.4-.5zM263 89.5c-.5.5-1.2.7-2 .7-1.1 0-1.8-.4-2.3-.9-.9-1-1-2.5-1-5.8s.1-4.8 1-5.8c.5-.6 1.2-.9 2.3-.9.9 0 1.6.3 2.1.8.6.6.9 1.5.9 2.6h-1.6c0-.6-.1-1.2-.4-1.5-.2-.3-.5-.5-1-.5s-.9.2-1.1.5c-.5.6-.6 1.7-.6 4.8 0 3.1.1 4.2.6 4.8.2.3.6.5 1.1.5.5 0 .8-.2 1-.5.3-.4.4-.9.4-1.5h1.6c0 1.1-.4 2.1-1 2.7zm6.5.5v-.7c-.1.2-.4.5-.6.6-.3.2-.6.3-1 .3-.7 0-1.2-.2-1.6-.7-.4-.4-.6-.9-.6-2v-7.1h1.5v7.1c0 .9.5 1.3 1.2 1.3.6 0 1.1-.4 1.1-1.3v-7.1h1.5V90h-1.5zm7.9 0l-1.8-4.5-1 1.7V90H273V76.8h1.5V85l2.7-4.6h1.6l-2.3 3.7 2.6 5.9h-1.7zm6.7 0v-.7c-.1.2-.4.5-.6.6-.3.2-.7.3-1 .3-.7 0-1.2-.2-1.6-.7-.4-.4-.6-.9-.6-2v-7.1h1.5v7.1c0 .9.5 1.3 1.2 1.3.6 0 1.1-.4 1.1-1.3v-7.1h1.5V90h-1.5zm8.3-.5c-.4.5-.9.7-1.6.7-.4 0-.7-.1-1-.3-.2-.1-.4-.3-.5-.5v4.3h-1.5V80.4h1.4v.7c.1-.2.4-.5.6-.6.3-.2.7-.3 1-.3.7 0 1.2.2 1.6.7.6.7.7 2 .7 4.2 0 2.4-.1 3.7-.7 4.4zm-1.2-7.5c-.2-.3-.5-.4-.8-.4-.3 0-.6.1-.8.3-.2.2-.4.6-.4 1.1v4.4c0 .5.1.9.4 1.1.2.2.5.3.8.3.3 0 .7-.1.8-.4.4-.5.4-1.5.4-3.2 0-1.7-.1-2.7-.4-3.2zm4.4 7.5c-.5-.4-.9-1.1-.9-2.2V76.8h1.5v10.4c0 .9.4 1.4 1.4 1.4V90c-.7 0-1.4-.1-2-.5zm7 .5v-.9c-.1.3-.4.5-.6.6-.3.2-.6.4-1.1.4-.7 0-1.2-.2-1.7-.7-.4-.4-.6-1.2-.6-2.2 0-.9.3-1.7.9-2.2.5-.4 1-.6 2-.6h1V83c0-.9-.4-1.4-1.1-1.4-.3 0-.6.1-.7.3-.3.3-.4.6-.4 1.1h-1.5c0-.7.2-1.5.7-2 .4-.4 1.1-.7 1.9-.7.8 0 1.4.2 1.9.7.5.5.8 1.1.8 2.1v7h-1.5zm-.1-4.4h-.9c-.5 0-.8.1-1.1.4-.3.3-.4.8-.4 1.3 0 1 .4 1.6 1.2 1.6.7 0 1.2-.6 1.2-1.5v-1.8zm7.3 4.4v-7c0-.9-.5-1.3-1.2-1.3-.6 0-1.1.4-1.1 1.3v7H306V76.8h1.5v4.3c.1-.2.4-.4.5-.5.3-.2.7-.3 1-.3.7 0 1.2.2 1.6.7.4.4.6.9.6 2v7h-1.4zm12.5-.8c-.5.6-1.3.8-2.5.8H317V76.8h2.9c1.1 0 1.9.2 2.4.8.6.6.8 1.4.8 2.7 0 .9-.1 1.7-.7 2.3-.2.2-.5.4-.8.5.3.1.6.3.8.5.7.7.8 1.7.8 2.6-.1 1.6-.3 2.4-.9 3zm-2.6-10.9h-1.1v4.2h1.1c1.2 0 1.7-.6 1.7-2.1 0-1.6-.6-2.1-1.7-2.1zm0 5.6h-1.2v4.8h1.2c1.2 0 1.8-.6 1.8-2.4 0-1.7-.6-2.4-1.8-2.4zm8.9 6.1v-.9c-.1.3-.4.5-.6.6-.3.2-.6.4-1.1.4-.7 0-1.2-.2-1.7-.7-.4-.4-.6-1.2-.6-2.2 0-.9.3-1.7.9-2.2.5-.4 1-.6 2-.6h1V83c0-.9-.4-1.4-1.1-1.4-.3 0-.6.1-.7.3-.3.3-.4.6-.4 1.1h-1.5c0-.7.2-1.5.7-2 .4-.4 1.1-.7 1.9-.7.8 0 1.4.2 1.9.7.5.5.8 1.1.8 2.1v7h-1.5zm-.1-4.4h-.9c-.5 0-.8.1-1.1.4-.3.3-.4.8-.4 1.3 0 1 .4 1.6 1.2 1.6.7 0 1.2-.6 1.2-1.5v-1.8zm7.8 7.4c-.4.5-1.2.7-1.9.7s-1.4-.2-1.9-.7c-.5-.5-.7-1.2-.7-2.1h1.5c0 .5.1.9.3 1.2.2.2.5.3.8.3.4 0 .6-.1.8-.4.3-.3.4-.8.4-1.7v-1.4c-.1.2-.4.4-.5.6-.3.2-.6.3-1 .3-.7 0-1.2-.2-1.6-.7-.6-.7-.8-1.8-.8-4s.2-3.4.8-4c.4-.5.8-.7 1.6-.7.4 0 .7.1 1 .3.2.1.4.3.5.5v-.7h1.5v9.9c0 1.3-.2 2-.8 2.6zm-.7-10c0-.5-.1-.9-.4-1.1-.2-.2-.5-.3-.8-.3-.4 0-.6.2-.8.4-.4.4-.4 1.4-.4 3s0 2.5.4 3c.2.2.4.4.8.4.3 0 .6-.1.8-.3.2-.2.4-.6.4-1.1v-4zm4.4-4.4c-.6 0-1-.4-1-1s.4-1 1-1 1 .4 1 1-.5 1-1 1zm-.8 11.4v-9.6h1.5V90h-1.5zm8 0l-1.8-4.5-1 1.7V90h-1.5V76.8h1.5V85l2.7-4.6h1.6l-2.3 3.7L349 90h-1.8zm6.7 0v-.7c-.1.2-.4.5-.6.6-.3.2-.6.3-1 .3-.7 0-1.2-.2-1.6-.7-.4-.4-.6-.9-.6-2v-7.1h1.5v7.1c0 .9.5 1.3 1.2 1.3.6 0 1.1-.4 1.1-1.3v-7.1h1.5V90h-1.5zm6.8-5.6V90h-1v-5.6h-.7v-.8h.7V83c0-.7.2-1.1.6-1.4.4-.3.9-.4 1.4-.4v.9c-.7 0-1 .3-1 1v.6h1v.8h-1zm2.6 2.7c0 1 0 1.6.3 1.9.1.1.3.3.6.3.2 0 .4-.1.6-.2.1-.2.2-.4.2-.7h1c0 .6-.2 1-.5 1.4-.3.3-.8.5-1.3.5-.6 0-.9-.1-1.3-.5-.5-.5-.6-1.5-.6-2.8 0-1.3.1-2.3.6-2.8.3-.3.8-.5 1.3-.5s.9.1 1.3.5c.5.6.6 1.7.6 3h-2.8zm1.3-2.4c-.1-.1-.3-.3-.6-.3s-.4.1-.6.3c-.2.2-.3.8-.3 1.6h1.6c.2-.8.1-1.4-.1-1.6zm4.8 5.3v-.6c-.1.2-.2.3-.4.4-.2.1-.4.2-.8.2-.5 0-.8-.1-1.1-.5-.2-.3-.4-.8-.4-1.4 0-.6.2-1.1.6-1.4.3-.3.7-.4 1.4-.4h.7v-1c0-.6-.3-.9-.8-.9-.2 0-.4.1-.5.2-.2.2-.2.4-.2.7h-1c0-.5.1-1 .5-1.4.3-.3.7-.5 1.2-.5s1 .1 1.2.4c.3.3.5.8.5 1.4V90h-.9zm-.1-2.9h-.6c-.3 0-.5 0-.7.2-.2.2-.3.5-.3.9 0 .7.3 1.1.8 1.1s.8-.4.8-1v-1.2zm3.2 2.6c-.4-.3-.6-.8-.6-1.4v-3.8h-.7v-.8h.7v-1.8h1v1.8h1v.8h-1v3.8c0 .7.4 1 1 1v.7c-.5 0-1 0-1.4-.3zm4.9.3v-.5l-.4.4c-.2.1-.4.2-.7.2-.5 0-.8-.2-1.1-.5-.3-.3-.4-.6-.4-1.3v-4.7h1v4.7c0 .6.3.9.8.9.4 0 .8-.3.8-.9v-4.7h1V90h-1zm4.6-5.5c-.7 0-1.2.4-1.2 1.2V90h-1v-6.4h1v.7c.1-.2.3-.3.4-.5.3-.2.6-.3 1.1-.3v1h-.3zm1.7-2.1c-.4 0-.7-.3-.7-.7s.3-.7.7-.7.7.3.7.7-.4.7-.7.7zm-.5 7.6v-6.4h1V90h-1zm4.9 0v-4.7c0-.6-.3-.9-.8-.9-.4 0-.8.3-.8.9V90h-1v-6.4h1v.5l.4-.4c.2-.1.4-.2.7-.2.5 0 .8.2 1.1.5.3.3.4.6.4 1.3V90h-1zm5.2 2c-.3.3-.8.5-1.3.5s-1-.1-1.3-.5c-.4-.4-.5-.8-.5-1.4h1c0 .3 0 .6.2.8.1.1.3.2.5.2s.4-.1.5-.2c.2-.2.2-.5.2-1.1v-1c-.1.1-.2.3-.4.4-.2.1-.4.2-.7.2-.5 0-.8-.1-1.1-.5-.4-.5-.5-1.2-.5-2.7 0-1.5.1-2.2.5-2.7.3-.3.6-.5 1.1-.5.3 0 .5.1.7.2.1.1.3.2.4.4v-.5h1v6.6c.2.9.1 1.4-.3 1.8zm-.5-6.6c0-.3-.1-.6-.2-.7-.1-.1-.3-.2-.5-.2s-.4.1-.5.3c-.2.3-.3.9-.3 2s0 1.7.3 2c.1.2.3.3.5.3s.4-.1.5-.2c.1-.2.2-.4.2-.7v-2.8zm4.8 4.6v-8.8h1.1v7.9h2.3v1h-3.4zm6.7 0v-.6c-.1.2-.2.3-.4.4-.2.1-.4.2-.8.2-.5 0-.8-.1-1.1-.5-.2-.3-.4-.8-.4-1.4 0-.6.2-1.1.6-1.4.3-.3.7-.4 1.4-.4h.7v-1c0-.6-.3-.9-.8-.9-.2 0-.4.1-.5.2-.2.2-.2.4-.2.7h-1c0-.5.1-1 .5-1.4.3-.3.7-.5 1.2-.5s1 .1 1.2.4c.3.3.5.8.5 1.4V90h-.9zm0-2.9h-.6c-.3 0-.5 0-.7.2-.2.2-.3.5-.3.9 0 .7.3 1.1.8 1.1s.8-.4.8-1v-1.2zm4.9 2.9v-4.7c0-.6-.3-.9-.8-.9-.4 0-.8.3-.8.9V90h-1v-8.8h1v2.9c.1-.1.2-.3.4-.4.2-.1.4-.2.7-.2.5 0 .8.2 1.1.5.3.3.4.6.4 1.3V90h-1zm8 0l-.4-2.1h-2l-.4 2.1h-1.1l2.1-8.8h1l2 8.8h-1.2zm-1.4-7l-.8 4.1h1.6l-.8-4.1zm5.8 7v-4.7c0-.6-.3-.9-.8-.9-.4 0-.8.3-.8.9V90h-1v-8.8h1v2.9c.1-.1.2-.3.4-.4.2-.1.4-.2.7-.2.5 0 .8.2 1.1.5.3.3.4.6.4 1.3V90h-1zm7.4 0v-4.7c0-.6-.3-.9-.8-.9-.4 0-.8.3-.8.9V90h-1v-4.7c0-.6-.3-.9-.8-.9-.4 0-.8.3-.8.9V90h-1v-6.4h1v.5l.4-.4c.2-.1.4-.2.7-.2.5 0 1 .3 1.2.7.1-.2.3-.4.5-.5.2-.1.5-.2.7-.2.6 0 .9.2 1.2.5.3.3.4.6.4 1.3V90h-.9zm4.7 0v-.6c-.1.2-.2.3-.4.4-.2.1-.4.2-.8.2-.5 0-.8-.1-1.1-.5-.2-.3-.4-.8-.4-1.4 0-.6.2-1.1.6-1.4.3-.3.7-.4 1.4-.4h.7v-1c0-.6-.3-.9-.8-.9-.2 0-.4.1-.5.2-.2.2-.2.4-.2.7h-1c0-.5.1-1 .5-1.4.3-.3.7-.5 1.2-.5s1 .1 1.2.4c.3.3.5.8.5 1.4V90h-.9zm-.1-2.9h-.6c-.3 0-.5 0-.7.2-.2.2-.3.5-.3.9 0 .7.3 1.1.8 1.1s.8-.4.8-1v-1.2zm4.8 2.9v-.5l-.4.4c-.2.1-.4.2-.7.2-.4 0-.8-.1-1.1-.5-.4-.5-.5-1.3-.5-2.8 0-1.5.1-2.4.5-2.8.3-.3.6-.5 1.1-.5.3 0 .5.1.7.2.1.1.3.2.4.4v-2.8h1V90h-1zm0-4.6c0-.3-.1-.6-.3-.7-.1-.1-.3-.2-.5-.2s-.4.1-.5.3c-.2.3-.3 1-.3 2.1 0 1.2 0 1.8.3 2.1.1.2.3.3.5.3s.4 0 .5-.2c.2-.2.3-.4.3-.8v-2.9zM261 109.3h-1.4v5.5H258v-13.2h3c2 0 3.1.9 3.1 3.8 0 2.7-.9 3.9-3.1 3.9zm0-6.3h-1.4v4.9h1.4c1.2 0 1.5-1 1.5-2.4 0-1.5-.3-2.5-1.5-2.5zm5.8 7.3c0 1.5.1 2.4.4 2.8.2.2.4.4.8.4s.6-.1.9-.4c.2-.2.3-.6.3-1.1h1.5c0 .9-.2 1.6-.8 2.1-.5.5-1.2.7-1.9.7-.8 0-1.4-.2-1.9-.7-.7-.8-.9-2.2-.9-4.2s.1-3.5.8-4.2c.5-.5 1.1-.7 1.9-.7.8 0 1.4.2 1.9.7.8.9.8 2.5.8 4.6h-3.8zm2.1-3.5c-.2-.2-.5-.4-.9-.4s-.7.2-.8.4c-.3.4-.4 1.1-.4 2.4h2.4c.1-1.3 0-2.1-.3-2.4zm7.4 8v-7.1c0-.9-.5-1.3-1.2-1.3-.6 0-1.1.4-1.1 1.3v7.1h-1.5v-9.6h1.4v.7c.1-.2.4-.5.6-.6.3-.2.7-.3 1-.3.7 0 1.2.2 1.6.7.4.4.6.9.6 2v7.1h-1.4zm7.9 2.9c-.4.5-1.2.7-1.9.7s-1.4-.2-1.9-.7c-.5-.5-.7-1.2-.7-2.1h1.5c0 .5.1.9.3 1.2.2.2.5.3.8.3.4 0 .6-.1.8-.4.3-.3.4-.8.4-1.7v-1.4c-.1.2-.4.4-.5.6-.3.2-.6.3-1 .3-.7 0-1.1-.2-1.6-.7-.6-.7-.8-1.8-.8-4s.2-3.4.8-4c.4-.5.8-.7 1.6-.7.4 0 .7.1 1 .3.2.1.4.3.5.5v-.7h1.5v9.9c-.1 1.3-.3 2-.8 2.6zm-.8-9.9c0-.5-.1-.9-.4-1.1-.2-.2-.5-.3-.8-.3-.4 0-.6.2-.8.4-.4.4-.4 1.4-.4 3s0 2.5.4 3c.2.2.4.4.8.4.3 0 .6-.1.8-.3.2-.2.4-.6.4-1.1v-4zm7.1 7v-.9c-.1.3-.4.5-.6.6-.3.2-.6.4-1.1.4-.7 0-1.2-.2-1.7-.7-.4-.4-.6-1.2-.6-2.2 0-.9.3-1.7.9-2.2.5-.4 1-.6 2-.6h1v-1.5c0-.9-.4-1.4-1.1-1.4-.3 0-.6.1-.7.3-.3.3-.4.6-.4 1.1h-1.5c0-.7.2-1.5.7-2 .4-.4 1.1-.7 1.9-.7.8 0 1.4.2 1.9.7.5.5.8 1.1.8 2.1v7h-1.5zm0-4.5h-.9c-.5 0-.8.1-1.1.4-.3.3-.4.8-.4 1.3 0 1 .4 1.6 1.2 1.6.7 0 1.2-.6 1.2-1.5v-1.8zm11.1 4.5v-7.1c0-.9-.5-1.3-1.1-1.3-.6 0-1.1.4-1.1 1.3v7.1h-1.5v-7.1c0-.9-.5-1.3-1.2-1.3-.6 0-1.1.4-1.1 1.3v7.1H294v-9.6h1.4v.7c.1-.2.4-.5.6-.6.3-.2.7-.3 1-.3.7 0 1.4.4 1.8 1 .2-.3.5-.5.8-.7.3-.2.7-.3 1.1-.3.8 0 1.3.2 1.7.7.4.4.6.9.6 2v7.1h-1.4zm8.2-.6c-.4.5-.9.7-1.6.7-.4 0-.7-.1-1-.3-.2-.1-.4-.3-.5-.5v4.3h-1.5v-13.2h1.4v.7c.1-.2.4-.5.6-.6.3-.2.7-.3 1-.3.7 0 1.2.2 1.6.7.6.7.7 2 .7 4.2 0 2.3-.1 3.6-.7 4.3zm-1.2-7.4c-.2-.3-.5-.4-.8-.4-.3 0-.6.1-.8.3-.2.2-.4.6-.4 1.1v4.4c0 .5.1.9.4 1.1.2.2.5.3.8.3.3 0 .7-.1.8-.4.4-.5.4-1.5.4-3.2 0-1.8-.1-2.8-.4-3.2zm7.4 8v-.8c-.1.2-.4.5-.6.6-.3.2-.6.3-1 .3-.7 0-1.2-.2-1.6-.7-.4-.4-.6-.9-.6-2v-7.1h1.5v7.1c0 .9.5 1.3 1.2 1.3.6 0 1.1-.4 1.1-1.3v-7.1h1.5v9.6H316zm7.4 0v-7.1c0-.9-.5-1.3-1.2-1.3-.6 0-1.1.4-1.1 1.3v7.1h-1.5v-9.6h1.4v.7c.1-.2.4-.5.6-.6.3-.2.6-.3 1-.3.7 0 1.2.2 1.6.7.4.4.6.9.6 2v7.1h-1.4zm7 0v-.9c-.1.3-.4.5-.6.6-.3.2-.6.4-1.1.4-.7 0-1.2-.2-1.7-.7-.4-.4-.6-1.2-.6-2.2 0-.9.3-1.7.9-2.2.5-.4 1-.6 2-.6h1v-1.5c0-.9-.4-1.4-1.1-1.4-.3 0-.6.1-.7.3-.3.3-.4.6-.4 1.1h-1.5c0-.7.2-1.5.7-2 .4-.4 1.1-.7 1.9-.7.8 0 1.4.2 1.9.7.5.5.8 1.1.8 2.1v7h-1.5zm-.1-4.5h-.9c-.5 0-.8.1-1.1.4-.3.3-.4.8-.4 1.3 0 1 .4 1.6 1.2 1.6.7 0 1.2-.6 1.2-1.5v-1.8zm7.4 4.5v-7.1c0-.9-.5-1.3-1.2-1.3-.6 0-1.1.4-1.1 1.3v7.1h-1.5v-9.6h1.4v.7c.1-.2.4-.5.6-.6.3-.2.6-.3 1-.3.7 0 1.2.2 1.6.7.4.4.6.9.6 2v7.1h-1.4zm12 0l-.6-3.1H346l-.6 3.1h-1.7l3.1-13.2h1.5l3.1 13.2h-1.7zm-2.2-10.7l-1.2 6.1h2.5l-1.3-6.1zm9.5 13.6c-.4.5-1.1.7-1.9.7-.7 0-1.4-.2-1.9-.7-.5-.5-.7-1.2-.7-2.1h1.5c0 .5.1.9.3 1.2.2.2.5.3.8.3.4 0 .6-.1.8-.4.3-.3.4-.8.4-1.7v-1.4c-.1.2-.4.4-.5.6-.3.2-.6.3-1 .3-.7 0-1.2-.2-1.6-.7-.6-.7-.8-1.8-.8-4s.2-3.4.8-4c.4-.5.8-.7 1.6-.7.4 0 .7.1 1 .3.2.1.4.3.5.5v-.7h1.5v9.9c-.1 1.3-.3 2-.8 2.6zm-.8-9.9c0-.5-.1-.9-.4-1.1-.2-.2-.5-.3-.8-.3-.4 0-.6.2-.8.4-.4.4-.4 1.4-.4 3s0 2.5.4 3c.2.2.4.4.8.4.3 0 .6-.1.8-.3.2-.2.4-.6.4-1.1v-4zm7.4 7v-.8c-.1.2-.4.5-.6.6-.3.2-.7.3-1 .3-.7 0-1.2-.2-1.6-.7-.4-.4-.6-.9-.6-2v-7.1h1.5v7.1c0 .9.5 1.3 1.2 1.3.6 0 1.1-.4 1.1-1.3v-7.1h1.5v9.6h-1.5zm7.4 0v-7.1c0-.9-.5-1.3-1.2-1.3-.6 0-1.1.4-1.1 1.3v7.1h-1.5v-9.6h1.4v.7c.1-.2.4-.5.6-.6.3-.2.7-.3 1-.3.7 0 1.2.2 1.6.7.4.4.6.9.6 2v7.1H371zm7.8 2.9c-.4.5-1.2.7-1.9.7s-1.4-.2-1.9-.7c-.5-.5-.7-1.2-.7-2.1h1.5c0 .5.1.9.3 1.2.2.2.5.3.8.3.4 0 .6-.1.8-.4.3-.3.4-.8.4-1.7v-1.4c-.1.2-.4.4-.5.6-.3.2-.6.3-1 .3-.7 0-1.1-.2-1.6-.7-.6-.7-.8-1.8-.8-4s.2-3.4.8-4c.4-.5.8-.7 1.6-.7.4 0 .7.1 1 .3.2.1.4.3.5.5v-.7h1.5v9.9c0 1.3-.3 2-.8 2.6zm-.7-9.9c0-.5-.1-.9-.4-1.1-.2-.2-.5-.3-.8-.3-.4 0-.6.2-.8.4-.4.4-.4 1.4-.4 3s0 2.5.4 3c.2.2.4.4.8.4.3 0 .6-.1.8-.3.2-.2.4-.6.4-1.1v-4zm8.6 6.6c-.3.3-.6.5-1.1.5-.3 0-.5-.1-.7-.2l-.4-.4v.5h-1V106h1v2.8c.1-.1.2-.3.4-.4.2-.1.4-.2.7-.2.5 0 .8.2 1.1.5.4.5.5 1.3.5 2.8 0 1.6 0 2.4-.5 2.9zm-.7-5c-.1-.2-.3-.3-.6-.3-.2 0-.4.1-.5.2-.2.2-.2.4-.2.7v2.9c0 .3.1.6.2.8.1.1.3.2.5.2s.4-.1.6-.3c.2-.3.2-1 .2-2.1s0-1.8-.2-2.1zm4.1 6.4c-.3 1.2-1.1 1.4-2.1 1.4v-.9c.6 0 1-.2 1.2-.7l.2-.8-1.6-6.4h1.1l1 4.8 1-4.8h1.1l-1.9 7.4zm7-8.9v7.9H396v-7.9h-1.5v-1h4v1h-1.4zm5 7.9v-4.7c0-.6-.3-.9-.8-.9-.4 0-.8.3-.8.9v4.7h-1V106h1v2.9c.1-.1.2-.3.4-.4.2-.1.4-.2.7-.2.5 0 .8.2 1.1.5.3.3.4.6.4 1.3v4.7h-1zm3.1-3c0 1 0 1.6.3 1.9.1.1.3.3.6.3.2 0 .4-.1.6-.2.1-.2.2-.4.2-.7h1c0 .6-.2 1-.5 1.4-.3.3-.8.5-1.3.5-.6 0-.9-.1-1.3-.5-.5-.5-.6-1.5-.6-2.8 0-1.3.1-2.3.6-2.8.3-.3.8-.5 1.3-.5s.9.1 1.3.5c.5.6.6 1.7.6 3h-2.8zm1.4-2.4c-.1-.1-.3-.3-.6-.3s-.4.1-.6.3c-.2.2-.3.8-.3 1.6h1.6c.1-.8.1-1.3-.1-1.6zm4.8 5.4V106h1.1v8.8h-1.1zm5 2.4v-2.8c-.1.1-.2.3-.4.4-.2.1-.4.2-.7.2-.5 0-.8-.2-1.1-.5-.4-.5-.5-1.3-.5-2.8 0-1.5.1-2.4.5-2.8.3-.3.6-.5 1.1-.5.3 0 .5.1.7.2l.4.4v-.5h1v8.8h-1zm0-7.1c0-.3-.1-.6-.3-.7-.1-.1-.3-.2-.5-.2s-.4.1-.5.3c-.2.3-.3 1-.3 2.1 0 1.2 0 1.8.3 2.1.1.2.3.3.5.3s.4 0 .5-.2c.2-.2.3-.4.3-.8v-2.9zm5.5 4.3c-.3.3-.6.5-1.1.5-.3 0-.5-.1-.7-.2l-.4-.4v.5h-1V106h1v2.8c.1-.1.2-.3.4-.4.2-.1.4-.2.7-.2.5 0 .8.2 1.1.5.4.5.5 1.3.5 2.8-.1 1.6-.1 2.4-.5 2.9zm-.8-5c-.1-.2-.3-.3-.6-.3-.2 0-.4.1-.5.2-.2.2-.2.4-.2.7v2.9c0 .3.1.6.2.8.1.1.3.2.5.2s.4-.1.6-.3c.2-.3.2-1 .2-2.1s0-1.8-.2-2.1zm4.8 5.4v-.6c-.1.2-.2.3-.4.4-.2.1-.4.2-.8.2-.5 0-.8-.1-1.1-.5-.2-.3-.4-.8-.4-1.4 0-.6.2-1.1.6-1.4.3-.3.7-.4 1.4-.4h.7v-1c0-.6-.3-.9-.8-.9-.2 0-.4.1-.5.2-.2.2-.2.4-.2.7h-1c0-.5.1-1 .5-1.4.3-.3.7-.5 1.2-.5s1 .1 1.2.4c.3.3.5.8.5 1.4v4.7h-.9zm-.1-3h-.6c-.3 0-.5 0-.7.2-.2.2-.3.5-.3.9 0 .7.3 1.1.8 1.1s.8-.4.8-1v-1.2zm2.9 2.6c-.3-.3-.6-.7-.6-1.4v-7h1v6.9c0 .6.3 1 1 1v.9c-.6 0-1-.1-1.4-.4zm4.3.4v-.8l2.5-7.1h-2.3v-1h3.4v.8l-2.4 7.1h2.4v1H433zm7 0v-.6c-.1.2-.2.3-.4.4-.2.1-.4.2-.8.2-.5 0-.8-.1-1.1-.5-.2-.3-.4-.8-.4-1.4 0-.6.2-1.1.6-1.4.3-.3.7-.4 1.4-.4h.7v-1c0-.6-.3-.9-.8-.9-.2 0-.4.1-.5.2-.2.2-.2.4-.2.7h-1c0-.5.1-1 .5-1.4.3-.3.7-.5 1.2-.5s1 .1 1.2.4c.3.3.5.8.5 1.4v4.7h-.9zm-.1-3h-.6c-.3 0-.5 0-.7.2-.2.2-.3.5-.3.9 0 .7.3 1.1.8 1.1s.8-.4.8-1v-1.2zm2.9-4.6c-.4 0-.7-.3-.7-.7s.3-.7.7-.7c.4 0 .7.3.7.7s-.4.7-.7.7zm-.5 7.6v-6.4h1v6.4h-1zm4.9 0v-4.7c0-.6-.3-.9-.8-.9-.4 0-.8.3-.8.9v4.7h-1v-6.4h1v.5l.4-.4c.2-.1.4-.2.7-.2.5 0 .8.2 1.1.5.3.3.4.6.4 1.3v4.7h-1zm-182.6 16.6l-.4 2.7h1.3v1.4h-1.6l-.5 4H262l.5-4h-1.9l-.5 4h-1.5l.5-4h-1.3v-1.4h1.5l.4-2.7h-1.3V130h1.6l.5-3.7h1.5l-.5 3.7h1.9l.5-3.7h1.5l-.5 3.7h1.3v1.4h-1.6zm-3.4 0l-.4 2.7h1.9l.4-2.7h-1.9zm7.7 7.5c-.5-.4-.9-1.1-.9-2.2v-10.5h1.5v10.4c0 .9.4 1.4 1.4 1.4v1.4c-.7.1-1.4 0-2-.5zm7.9-.1c-.5.6-1.2.9-2 .9-.9 0-1.5-.2-2-.9-.6-.8-.7-2.1-.7-4.1s.1-3.3.7-4.1c.5-.6 1.2-.9 2-.9.9 0 1.6.2 2 .9.6.8.7 2.1.7 4.1s-.1 3.3-.7 4.1zm-1.2-7.3c-.2-.3-.5-.4-.9-.4s-.6.1-.8.4c-.4.5-.4 1.5-.4 3.2 0 1.7 0 2.7.4 3.2.2.3.5.4.8.4.4 0 .7-.1.9-.4.4-.5.4-1.5.4-3.2 0-1.7 0-2.7-.4-3.2zm6.6 8h-1.6l-2.3-9.6h1.7l1.5 7.2 1.4-7.2h1.7l-2.4 9.6zm4.6-4.5c0 1.5.1 2.4.4 2.8.2.2.4.4.8.4s.6-.1.9-.4c.2-.2.3-.6.3-1.1h1.5c0 .9-.2 1.6-.8 2.1-.5.5-1.2.7-1.9.7-.8 0-1.4-.2-1.9-.7-.7-.8-.9-2.2-.9-4.2s.1-3.5.8-4.2c.5-.5 1.1-.7 1.9-.7.8 0 1.4.2 1.9.7.8.9.8 2.5.8 4.6h-3.8zm2.1-3.5c-.2-.2-.5-.4-.9-.4s-.7.2-.8.4c-.3.4-.4 1.1-.4 2.4h2.4c.1-1.3 0-2.1-.3-2.4zm8 7.5c-.4.5-1.1.7-1.9.7-.8 0-1.5-.2-2-.9-.6-.8-.7-2.1-.7-4.1s.1-3.3.7-4.1c.5-.6 1.2-.9 2-.9s1.4.1 1.9.6c.6.6.7 1.4.8 2.2h-1.5c0-.4 0-.8-.3-1.1-.2-.2-.5-.4-.8-.4-.4 0-.7.1-.9.4-.4.5-.4 1.5-.4 3.2 0 1.7 0 2.7.4 3.2.2.3.5.4.9.4s.6-.1.8-.4c.3-.3.3-.7.3-1.1h1.5c-.1 1-.3 1.8-.8 2.3zm3.1-10.9c-.6 0-1-.4-1-1s.4-1 1-1 1 .4 1 1-.4 1-1 1zm-.7 11.4v-9.6h1.5v9.6h-1.5zm7.4 0v-7.1c0-.9-.5-1.3-1.2-1.3s-1.1.4-1.1 1.3v7.1h-1.5v-9.6h1.4v.7c.1-.2.4-.5.6-.6.3-.2.6-.3 1-.3.7 0 1.2.2 1.6.7.4.4.6.9.6 2v7.1h-1.4zm4.7-.6c-.5-.4-.8-1.2-.8-2.2V131h-1.1v-1.2h1.1v-2.6h1.5v2.6h1.5v1.2h-1.5v5.6c0 1 .5 1.4 1.5 1.4v1.4c-.9.1-1.6 0-2.2-.5zm7.1.6v-.9c-.1.3-.4.5-.6.6-.3.2-.6.4-1.1.4-.7 0-1.2-.2-1.7-.7-.4-.4-.6-1.2-.6-2.2 0-.9.3-1.7.9-2.2.5-.4 1-.6 2-.6h1v-1.5c0-.9-.4-1.4-1.1-1.4-.3 0-.6.1-.7.3-.3.3-.4.6-.4 1.1h-1.5c0-.7.2-1.5.7-2 .4-.4 1.1-.7 1.9-.7.8 0 1.4.2 1.9.7.5.5.8 1.1.8 2.1v7h-1.5zm-.1-4.5h-.9c-.5 0-.8.1-1.1.4-.3.3-.4.8-.4 1.3 0 1 .4 1.6 1.2 1.6.7 0 1.2-.6 1.2-1.5V135zm11.1 4.5v-7.1c0-.9-.5-1.3-1.1-1.3-.6 0-1.1.4-1.1 1.3v7.1h-1.5v-7.1c0-.9-.5-1.3-1.2-1.3-.6 0-1.1.4-1.1 1.3v7.1H322v-9.6h1.4v.7c.1-.2.4-.5.6-.6.3-.2.7-.3 1-.3.7 0 1.4.4 1.8 1 .2-.3.5-.5.8-.7.3-.2.7-.3 1.1-.3.8 0 1.3.2 1.7.7.4.4.6.9.6 2v7.1h-1.5zm7.1 0v-.9c-.1.3-.4.5-.6.6-.3.2-.6.4-1.1.4-.7 0-1.2-.2-1.7-.7-.4-.4-.6-1.2-.6-2.2 0-.9.3-1.7.9-2.2.5-.4 1-.6 2-.6h1v-1.5c0-.9-.4-1.4-1.1-1.4-.3 0-.6.1-.7.3-.3.3-.4.6-.4 1.1h-1.5c0-.7.2-1.5.7-2 .4-.4 1.1-.7 1.9-.7.8 0 1.4.2 1.9.7.5.5.8 1.1.8 2.1v7h-1.5zm-.1-4.5h-.9c-.5 0-.8.1-1.1.4-.3.3-.4.8-.4 1.3 0 1 .4 1.6 1.2 1.6.7 0 1.2-.6 1.2-1.5V135zm7.3 4.5v-7.1c0-.9-.5-1.3-1.2-1.3-.6 0-1.1.4-1.1 1.3v7.1H340v-13.2h1.5v4.3c.1-.2.4-.4.5-.5.3-.2.6-.3 1-.3.7 0 1.2.2 1.6.7.4.4.6.9.6 2v7.1h-1.4zm7.1 0v-.9c-.1.3-.4.5-.6.6-.3.2-.6.4-1.1.4-.7 0-1.2-.2-1.7-.7-.4-.4-.6-1.2-.6-2.2 0-.9.3-1.7.9-2.2.5-.4 1-.6 2-.6h1v-1.5c0-.9-.4-1.4-1.1-1.4-.3 0-.6.1-.7.3-.3.3-.4.6-.4 1.1H347c0-.7.2-1.5.7-2 .4-.4 1.1-.7 1.9-.7.8 0 1.4.2 1.9.7.5.5.8 1.1.8 2.1v7h-1.4zm-.1-4.5h-.9c-.5 0-.8.1-1.1.4-.3.3-.4.8-.4 1.3 0 1 .4 1.6 1.2 1.6.7 0 1.2-.6 1.2-1.5V135zm8.2 3.9c-.4.5-.9.7-1.6.7-.4 0-.7-.1-1-.3-.2-.1-.5-.4-.6-.6v.7h-1.4v-13.2h1.5v4.3c.1-.2.4-.4.5-.5.3-.2.6-.3 1-.3.7 0 1.2.2 1.6.7.6.7.7 2 .7 4.2 0 2.3-.1 3.6-.7 4.3zm-1.2-7.4c-.2-.3-.5-.4-.8-.4-.3 0-.6.1-.8.3-.2.2-.4.6-.4 1.1v4.4c0 .5.1.9.4 1.1.2.2.5.3.8.3.3 0 .6-.1.8-.4.4-.5.4-1.5.4-3.2 0-1.7 0-2.7-.4-3.2zm8.4 7.4c-.4.5-.9.7-1.6.7-.4 0-.7-.1-1-.3-.2-.1-.5-.4-.6-.6v.7h-1.4v-13.2h1.5v4.3c.1-.2.4-.4.5-.5.3-.2.6-.3 1-.3.7 0 1.2.2 1.6.7.6.7.7 2 .7 4.2 0 2.3-.1 3.6-.7 4.3zm-1.2-7.4c-.2-.3-.5-.4-.8-.4-.3 0-.6.1-.8.3-.2.2-.4.6-.4 1.1v4.4c0 .5.1.9.4 1.1.2.2.5.3.8.3.3 0 .7-.1.8-.4.4-.5.4-1.5.4-3.2-.1-1.7-.1-2.7-.4-3.2zm7.2 8v-.9c-.1.3-.4.5-.6.6-.3.2-.6.4-1.1.4-.7 0-1.2-.2-1.7-.7-.4-.4-.6-1.2-.6-2.2 0-.9.3-1.7.9-2.2.5-.4 1-.6 2-.6h1v-1.5c0-.9-.4-1.4-1.1-1.4-.3 0-.6.1-.7.3-.3.3-.4.6-.4 1.1h-1.5c0-.7.2-1.5.7-2 .4-.4 1.1-.7 1.9-.7.8 0 1.4.2 1.9.7.5.5.8 1.1.8 2.1v7h-1.5zm-.1-4.5h-.9c-.5 0-.8.1-1.1.4-.3.3-.4.8-.4 1.3 0 1 .4 1.6 1.2 1.6.7 0 1.2-.6 1.2-1.5V135zm7.3 4.5v-7.1c0-.9-.5-1.3-1.2-1.3s-1.1.4-1.1 1.3v7.1h-1.5v-13.2h1.5v4.3c.1-.2.4-.4.5-.5.3-.2.6-.3 1-.3.7 0 1.2.2 1.6.7.4.4.6.9.6 2v7.1h-1.4zm8.6-.4c-.3.3-.6.5-1.1.5-.3 0-.5-.1-.7-.2l-.4-.4v.5h-1v-8.8h1v2.8c.1-.1.2-.3.4-.4.2-.1.4-.2.7-.2.5 0 .8.2 1.1.5.4.5.5 1.3.5 2.8 0 1.6-.1 2.4-.5 2.9zm-.8-5c-.1-.2-.3-.3-.6-.3-.2 0-.4.1-.5.2-.2.2-.2.4-.2.7v2.9c0 .3.1.6.2.8.1.1.3.2.5.2s.4-.1.6-.3c.2-.3.2-1 .2-2.1.1-1.1.1-1.7-.2-2.1zm4.2 6.4c-.3 1.2-1.1 1.4-2.1 1.4v-.9c.6 0 1-.2 1.2-.7l.2-.8-1.6-6.4h1.1l1 4.8 1-4.8h1.1l-1.9 7.4zm7-8.9v7.9h-1.1v-7.9h-1.5v-1h4v1h-1.4zm4.9 7.9v-4.7c0-.6-.3-.9-.8-.9-.4 0-.8.3-.8.9v4.7h-1v-8.8h1v2.9c.1-.1.2-.3.4-.4.2-.1.4-.2.7-.2.5 0 .8.2 1.1.5.3.3.4.6.4 1.3v4.7h-1zm3.2-3c0 1 0 1.6.3 1.9.1.1.3.3.6.3.2 0 .4-.1.6-.2.1-.2.2-.4.2-.7h1c0 .6-.2 1-.5 1.4-.3.3-.8.5-1.3.5-.6 0-.9-.1-1.3-.5-.5-.5-.6-1.5-.6-2.8 0-1.3.1-2.3.6-2.8.3-.3.8-.5 1.3-.5s.9.1 1.3.5c.5.6.6 1.7.6 3h-2.8zm1.4-2.4c-.1-.1-.3-.3-.6-.3s-.4.1-.6.3c-.2.2-.3.8-.3 1.6h1.6c.1-.8.1-1.3-.1-1.6zm4.8 5.4v-8.8h1.1v8.8h-1.1zm4.9 2.4V139c-.1.1-.2.3-.4.4-.2.1-.4.2-.7.2-.5 0-.8-.2-1.1-.5-.4-.5-.5-1.3-.5-2.8 0-1.5.1-2.4.5-2.8.3-.3.6-.5 1.1-.5.3 0 .5.1.7.2l.4.4v-.5h1v8.8h-1zm0-7.1c0-.3-.1-.6-.3-.7-.1-.1-.3-.2-.5-.2s-.4.1-.5.3c-.2.3-.3 1-.3 2.1 0 1.2 0 1.8.3 2.1.1.2.3.3.5.3s.4 0 .5-.2c.2-.2.3-.4.3-.8v-2.9zm5.6 4.3c-.3.3-.6.5-1.1.5-.3 0-.5-.1-.7-.2l-.4-.4v.5h-1v-8.8h1v2.8c.1-.1.2-.3.4-.4.2-.1.4-.2.7-.2.5 0 .8.2 1.1.5.4.5.5 1.3.5 2.8-.1 1.6-.1 2.4-.5 2.9zm-.8-5c-.1-.2-.3-.3-.6-.3-.2 0-.4.1-.5.2-.2.2-.2.4-.2.7v2.9c0 .3.1.6.2.8.1.1.3.2.5.2s.4-.1.6-.3c.2-.3.2-1 .2-2.1s0-1.7-.2-2.1zm4.8 5.4v-.6c-.1.2-.2.3-.4.4-.2.1-.4.2-.8.2-.5 0-.8-.1-1.1-.5-.2-.3-.4-.8-.4-1.4 0-.6.2-1.1.6-1.4.3-.3.7-.4 1.4-.4h.7v-1c0-.6-.3-.9-.8-.9-.2 0-.4.1-.5.2-.2.2-.2.4-.2.7h-1c0-.5.1-1 .5-1.4.3-.3.7-.5 1.2-.5s1 .1 1.2.4c.3.3.5.8.5 1.4v4.7h-.9zm-.1-3h-.6c-.3 0-.5 0-.7.2-.2.2-.3.5-.3.9 0 .7.3 1.1.8 1.1s.8-.4.8-1v-1.2zm2.9 2.6c-.3-.3-.6-.7-.6-1.4v-7h1v6.9c0 .6.3 1 1 1v.9c-.6 0-1-.1-1.4-.4zm4.3.4v-.8l2.5-7.1h-2.3v-1h3.4v.8l-2.4 7.1h2.4v1h-3.6zm6.9 0v-.6c-.1.2-.2.3-.4.4-.2.1-.4.2-.8.2-.5 0-.8-.1-1.1-.5-.2-.3-.4-.8-.4-1.4 0-.6.2-1.1.6-1.4.3-.3.7-.4 1.4-.4h.7v-1c0-.6-.3-.9-.8-.9-.2 0-.4.1-.5.2-.2.2-.2.4-.2.7h-1c0-.5.1-1 .5-1.4.3-.3.7-.5 1.2-.5s1 .1 1.2.4c.3.3.5.8.5 1.4v4.7h-.9zm0-3h-.6c-.3 0-.5 0-.7.2-.2.2-.3.5-.3.9 0 .7.3 1.1.8 1.1s.8-.4.8-1v-1.2zm2.9-4.6c-.4 0-.7-.3-.7-.7s.3-.7.7-.7c.4 0 .7.3.7.7s-.4.7-.7.7zm-.6 7.6v-6.4h1v6.4h-1zm5 0v-4.7c0-.6-.3-.9-.8-.9-.4 0-.8.3-.8.9v4.7h-1v-6.4h1v.5l.4-.4c.2-.1.4-.2.7-.2.5 0 .8.2 1.1.5.3.3.4.6.4 1.3v4.7h-1zm8.9 0l-.6-.9c-.5.6-1 1-1.9 1-1.1 0-2-.8-2-2.2 0-1 .5-1.8 1.4-2.7-.7-1-1-1.5-1-2.2 0-1.1.7-1.9 1.7-1.9 1.1 0 1.7.8 1.7 1.8s-.4 1.7-1.2 2.5l1.3 2c.2-.5.4-1.2.5-1.9h.9c-.1 1-.4 2-.8 2.7l1.1 1.7h-1.1zm-2.6-4c-.7.7-1 1.2-1 1.8 0 .8.4 1.4 1.1 1.4.5 0 .9-.3 1.3-.9l-1.4-2.3zm.2-4c-.5 0-.8.5-.8.9s.2.8.7 1.6c.5-.5.8-.9.8-1.6.1-.5-.2-.9-.7-.9zm6.6 8v-8.8h3.4v1h-2.3v3h2v1h-2v3h2.3v1h-3.4zm6.8-5.5c-.7 0-1.2.4-1.2 1.2v4.4h-1v-6.4h1v.7c.1-.2.3-.3.4-.5.3-.2.6-.3 1.1-.3v1h-.3zm5.9 5.5h-1l-.9-4.7-.8 4.7h-1l-1.3-6.4h1.1l.7 4.8.9-4.8h.9l.9 4.8.7-4.8h1.1l-1.3 6.4zm4.4 0v-.6c-.1.2-.2.3-.4.4-.2.1-.4.2-.8.2-.5 0-.8-.1-1.1-.5-.2-.3-.4-.8-.4-1.4 0-.6.2-1.1.6-1.4.3-.3.7-.4 1.4-.4h.7v-1c0-.6-.3-.9-.8-.9-.2 0-.4.1-.5.2-.2.2-.2.4-.2.7h-1c0-.5.1-1 .5-1.4.3-.3.7-.5 1.2-.5s1 .1 1.2.4c.3.3.5.8.5 1.4v4.7h-.9zm0-3h-.6c-.3 0-.5 0-.7.2-.2.2-.3.5-.3.9 0 .7.3 1.1.8 1.1s.8-.4.8-1v-1.2zm4.9 3v-4.7c0-.6-.3-.9-.8-.9-.4 0-.8.3-.8.9v4.7h-1v-6.4h1v.5l.4-.4c.2-.1.4-.2.7-.2.5 0 .8.2 1.1.5.3.3.4.6.4 1.3v4.7h-1zm9.2 0v-6.3l-1.4 4.1h-.7l-1.4-4v6.2h-1.1v-8.8h1l1.8 4.9 1.8-4.9h1v8.8h-1zm5.1 0v-.5l-.4.4c-.2.1-.4.2-.7.2-.5 0-.8-.2-1.1-.5-.3-.3-.4-.6-.4-1.3v-4.7h1v4.7c0 .6.3.9.8.9.4 0 .8-.3.8-.9v-4.7h1v6.4h-1zm4.9 0v-4.7c0-.6-.3-.9-.8-.9-.4 0-.8.3-.8.9v4.7h-1v-8.8h1v2.9c.1-.1.2-.3.4-.4.2-.1.4-.2.7-.2.5 0 .8.2 1.1.5.3.3.4.6.4 1.3v4.7h-1zm2.9-7.6c-.4 0-.7-.3-.7-.7s.3-.7.7-.7c.4 0 .7.3.7.7s-.4.7-.7.7zm-.6 7.6v-6.4h1v6.4h-1zm5.6-.4c-.3.3-.6.5-1.1.5-.3 0-.5-.1-.7-.2l-.4-.4v.5h-1v-8.8h1v2.8c.1-.1.2-.3.4-.4.2-.1.4-.2.7-.2.5 0 .8.2 1.1.5.4.5.5 1.3.5 2.8-.1 1.6-.1 2.4-.5 2.9zm-.8-5c-.1-.2-.3-.3-.6-.3-.2 0-.4.1-.5.2-.2.2-.2.4-.2.7v2.9c0 .3.1.6.2.8.1.1.3.2.5.2s.4-.1.6-.3c.2-.3.2-1 .2-2.1s0-1.7-.2-2.1zm5.6 5c-.3.3-.6.5-1.1.5-.3 0-.5-.1-.7-.2l-.4-.4v.5h-1v-8.8h1v2.8c.1-.1.2-.3.4-.4.2-.1.4-.2.7-.2.5 0 .8.2 1.1.5.4.5.5 1.3.5 2.8-.1 1.6-.1 2.4-.5 2.9zm-.8-5c-.1-.2-.3-.3-.6-.3-.2 0-.4.1-.5.2-.2.2-.2.4-.2.7v2.9c0 .3.1.6.2.8.1.1.3.2.5.2s.4-.1.6-.3c.2-.3.2-1 .2-2.1s0-1.7-.2-2.1zm4.8 5.4v-.6c-.1.2-.2.3-.4.4-.2.1-.4.2-.8.2-.5 0-.8-.1-1.1-.5-.2-.3-.4-.8-.4-1.4 0-.6.2-1.1.6-1.4.3-.3.7-.4 1.4-.4h.7v-1c0-.6-.3-.9-.8-.9-.2 0-.4.1-.5.2-.2.2-.2.4-.2.7h-1c0-.5.1-1 .5-1.4.3-.3.7-.5 1.2-.5s1 .1 1.2.4c.3.3.5.8.5 1.4v4.7h-.9zm-.1-3h-.6c-.3 0-.5 0-.7.2-.2.2-.3.5-.3.9 0 .7.3 1.1.8 1.1s.8-.4.8-1v-1.2zm2.9-4.6c-.4 0-.7-.3-.7-.7s.3-.7.7-.7c.4 0 .7.3.7.7s-.4.7-.7.7zm-.5 7.6v-6.4h1v6.4h-1zm4.9 0v-4.7c0-.6-.3-.9-.8-.9-.4 0-.8.3-.8.9v4.7h-1v-6.4h1v.5l.4-.4c.2-.1.4-.2.7-.2.5 0 .8.2 1.1.5.3.3.4.6.4 1.3v4.7h-1zm-263.7 24c-.5.5-1.3.8-2.3.8-1 0-1.8-.3-2.3-.8-.6-.6-.8-1.4-.8-2.8h1.6c0 .9.1 1.4.4 1.7.2.2.6.4 1.1.4.5 0 .9-.2 1.1-.4.4-.4.4-.9.4-1.8 0-1.5-.2-2-1.3-2.4l-1.5-.6c-1.4-.6-1.8-1.3-1.8-3.3 0-1.2.3-2.1 1-2.7.5-.5 1.2-.8 2.1-.8 1 0 1.7.3 2.2.8.7.6.9 1.5.9 2.7h-1.6c0-.7-.1-1.2-.4-1.6-.2-.3-.6-.4-1.1-.4-.5 0-.8.2-1 .4-.3.4-.5.9-.5 1.6 0 1.3.2 1.7 1.3 2.1l1.5.6c1.5.6 1.9 1.5 1.9 3.6-.1 1.4-.3 2.3-.9 2.9zm3.9-3.7c0 1.5.1 2.4.4 2.8.2.2.4.4.8.4s.6-.1.9-.4c.2-.2.3-.6.3-1.1h1.5c0 .9-.2 1.6-.8 2.1-.5.5-1.2.7-1.9.7-.8 0-1.4-.2-1.9-.7-.7-.8-.9-2.2-.9-4.2s.1-3.5.8-4.2c.5-.5 1.1-.7 1.9-.7.8 0 1.4.2 1.9.7.8.9.8 2.5.8 4.6h-3.8zm2-3.6c-.2-.2-.5-.4-.9-.4s-.6.2-.8.4c-.3.4-.4 1.1-.4 2.4h2.5c0-1.3-.1-2-.4-2.4zm4.4 7.4c-.5-.4-.9-1.1-.9-2.2V151h1.5v10.4c0 .9.4 1.4 1.4 1.4v1.4c-.7 0-1.4-.1-2-.6zm7 .6v-.9c-.1.3-.4.5-.6.6-.3.2-.6.4-1.1.4-.7 0-1.2-.2-1.7-.7-.4-.4-.6-1.2-.6-2.2 0-.9.3-1.7.9-2.2.5-.4 1-.6 2-.6h1v-1.5c0-.9-.4-1.4-1.1-1.4-.3 0-.6.1-.7.3-.3.3-.4.6-.4 1.1h-1.5c0-.7.2-1.5.7-2 .4-.4 1.1-.7 1.9-.7.8 0 1.4.2 1.9.7.5.5.8 1.1.8 2.1v7h-1.5zm-.1-4.4h-.9c-.5 0-.8.1-1.1.4-.3.3-.4.8-.4 1.3 0 1 .4 1.6 1.2 1.6.7 0 1.2-.6 1.2-1.5v-1.8zm11.1 4.4v-7.1c0-.9-.5-1.3-1.1-1.3-.6 0-1.1.4-1.1 1.3v7.1h-1.5v-7.1c0-.9-.5-1.3-1.2-1.3-.6 0-1.1.4-1.1 1.3v7.1h-1.5v-9.6h1.4v.7c.1-.2.4-.5.6-.6.3-.2.6-.3 1-.3.7 0 1.4.4 1.8 1 .2-.3.5-.5.8-.7.3-.2.7-.3 1.1-.3.8 0 1.3.2 1.7.7.4.4.6.9.6 2v7.1h-1.5zm7 0v-.9c-.1.3-.4.5-.6.6-.3.2-.6.4-1.1.4-.7 0-1.2-.2-1.7-.7-.4-.4-.6-1.2-.6-2.2 0-.9.3-1.7.9-2.2.5-.4 1-.6 2-.6h1v-1.5c0-.9-.4-1.4-1.1-1.4-.3 0-.6.1-.7.3-.3.3-.4.6-.4 1.1h-1.5c0-.7.2-1.5.7-2 .4-.4 1.1-.7 1.9-.7.8 0 1.4.2 1.9.7.5.5.8 1.1.8 2.1v7h-1.5zm0-4.4h-.9c-.5 0-.8.1-1.1.4-.3.3-.4.8-.4 1.3 0 1 .4 1.6 1.2 1.6.7 0 1.2-.6 1.2-1.5v-1.8zm4.7 3.8c-.5-.4-.8-1.2-.8-2.2v-5.7h-1.1v-1.2h1.1V152h1.5v2.6h1.5v1.2h-1.5v5.6c0 1 .5 1.4 1.5 1.4v1.4c-.9 0-1.6-.1-2.2-.6zm12.5-.3c-.5.5-1.2.9-2.3.9h-3.1V151h3.1c1.1 0 1.8.4 2.3.9.9 1 .9 2.4.9 5.7.1 3.3.1 4.7-.9 5.7zm-1.2-10.4c-.2-.3-.6-.5-1.1-.5h-1.4v10.4h1.4c.5 0 .9-.2 1.1-.5.5-.6.5-1.7.5-4.7.1-3 0-4-.5-4.7zm7.6 11.3v-.9c-.1.3-.4.5-.6.6-.3.2-.6.4-1.1.4-.7 0-1.2-.2-1.7-.7-.4-.4-.6-1.2-.6-2.2 0-.9.3-1.7.9-2.2.5-.4 1-.6 2-.6h1v-1.5c0-.9-.4-1.4-1.1-1.4-.3 0-.6.1-.7.3-.3.3-.4.6-.4 1.1h-1.5c0-.7.2-1.5.7-2 .4-.4 1.1-.7 1.9-.7.8 0 1.4.2 1.9.7.5.5.8 1.1.8 2.1v7h-1.5zm-.1-4.4h-.8c-.5 0-.8.1-1.1.4-.3.3-.4.8-.4 1.3 0 1 .4 1.6 1.2 1.6.7 0 1.2-.6 1.2-1.5v-1.8zm4.7 3.8c-.5-.4-.8-1.2-.8-2.2v-5.7h-1.1v-1.2h1.1V152h1.5v2.6h1.5v1.2h-1.5v5.6c0 1 .5 1.4 1.5 1.4v1.4c-.8 0-1.5-.1-2.2-.6zm7.2.6v-.9c-.1.3-.4.5-.6.6-.3.2-.6.4-1.1.4-.7 0-1.2-.2-1.6-.7-.4-.4-.6-1.2-.6-2.2 0-.9.3-1.7.9-2.2.5-.4 1-.6 2-.6h1v-1.5c0-.9-.4-1.4-1.1-1.4-.3 0-.6.1-.7.3-.3.3-.4.6-.4 1.1H330c0-.7.2-1.5.7-2 .4-.4 1.1-.7 1.9-.7.8 0 1.4.2 1.9.7.5.5.8 1.1.8 2.1v7h-1.6zm-.1-4.4h-.9c-.5 0-.8.1-1.1.4-.3.3-.4.8-.4 1.3 0 1 .4 1.6 1.2 1.6.7 0 1.2-.6 1.2-1.5v-1.8zm7.3 4.4v-7.1c0-.9-.5-1.3-1.2-1.3-.6 0-1.1.4-1.1 1.3v7.1h-1.5v-9.6h1.4v.7c.1-.2.4-.5.6-.6.3-.2.6-.3 1-.3.7 0 1.2.2 1.6.7.4.4.6.9.6 2v7.1h-1.4zm7.8 3c-.4.5-1.2.7-1.9.7s-1.4-.2-1.9-.7c-.5-.5-.7-1.2-.7-2.1h1.5c0 .5.1.9.3 1.2.2.2.5.3.8.3.4 0 .6-.1.8-.4.3-.3.4-.8.4-1.7v-1.4c-.1.2-.4.4-.5.6-.3.2-.6.3-1 .3-.7 0-1.2-.2-1.6-.7-.6-.7-.8-1.8-.8-4s.2-3.4.8-4c.4-.5.8-.7 1.6-.7.4 0 .7.1 1 .3.2.1.4.3.5.5v-.7h1.5v9.9c0 1.3-.2 2-.8 2.6zm-.7-10c0-.5-.1-.9-.4-1.1-.2-.2-.5-.3-.8-.3-.4 0-.6.2-.8.4-.4.4-.4 1.4-.4 3s0 2.5.4 3c.2.2.4.4.8.4.3 0 .6-.1.8-.3.2-.2.4-.6.4-1.1v-4zm12.3 7l-2.3-6-1.2 2.3v3.7h-1.6V151h1.6v6.7l3.2-6.7h1.6l-2.7 5.5 3.1 7.8h-1.7zm4.1-4.4c0 1.5.1 2.4.4 2.8.2.2.4.4.8.4s.6-.1.9-.4c.2-.2.3-.6.3-1.1h1.5c0 .9-.2 1.6-.8 2.1-.5.5-1.2.7-1.9.7-.8 0-1.4-.2-1.9-.7-.7-.8-.9-2.2-.9-4.2s.1-3.5.8-4.2c.5-.5 1.1-.7 1.9-.7.8 0 1.4.2 1.9.7.8.9.8 2.5.8 4.6h-3.8zm2.1-3.6c-.2-.2-.5-.4-.9-.4s-.6.2-.8.4c-.3.4-.4 1.1-.4 2.4h2.4c.1-1.3 0-2-.3-2.4zm11.8 8v-6h-2.9v6h-1.6V151h1.6v5.8h2.9V151h1.6v13.2h-1.6zm7.3 0v-.9c-.1.3-.4.5-.6.6-.3.2-.6.4-1.1.4-.7 0-1.2-.2-1.7-.7-.4-.4-.6-1.2-.6-2.2 0-.9.3-1.7.9-2.2.5-.4 1-.6 2-.6h1v-1.5c0-.9-.4-1.4-1.1-1.4-.3 0-.6.1-.7.3-.3.3-.4.6-.4 1.1h-1.5c0-.7.2-1.5.7-2 .4-.4 1.1-.7 1.9-.7.8 0 1.4.2 1.9.7.5.5.8 1.1.8 2.1v7h-1.5zm-.1-4.4h-.9c-.5 0-.8.1-1.1.4-.3.3-.4.8-.4 1.3 0 1 .4 1.6 1.2 1.6.7 0 1.2-.6 1.2-1.5v-1.8zm4.8 3.8c-.5-.4-.8-1.2-.8-2.2v-5.7h-1.1v-1.2h1.1V152h1.5v2.6h1.5v1.2H391v5.6c0 1 .5 1.4 1.5 1.4v1.4c-.9 0-1.6-.1-2.2-.6zm4.3-10.8c-.6 0-1-.4-1-1s.4-1 1-1 1 .4 1 1-.4 1-1 1zm-.7 11.4v-9.6h1.5v9.6h-1.5zm8 0l-1.8-4.5-1 1.7v2.9h-1.5V151h1.5v8.2l2.7-4.6h1.6l-2.3 3.7 2.6 5.9h-1.8zm6.7 0v-.7c-.1.2-.4.5-.6.6-.3.2-.6.3-1 .3-.7 0-1.2-.2-1.6-.7-.4-.4-.6-.9-.6-2v-7.1h1.5v7.1c0 .9.5 1.3 1.2 1.3.6 0 1.1-.4 1.1-1.3v-7.1h1.5v9.6h-1.5z" fill="#808184"/><path d="M243.4 15.4c-.4.3-.9.5-1.5.5s-1.1-.2-1.5-.5c-.4-.4-.6-.8-.6-1.6V9.3c0-.8.2-1.2.6-1.6.4-.3.9-.5 1.5-.5s1.1.2 1.5.5c.4.4.6.8.6 1.6v4.5c0 .8-.2 1.2-.6 1.6zm-.6-6.2c0-.7-.4-1-.9-1s-.9.3-.9 1v4.6c0 .7.4 1 .9 1s.9-.3.9-1V9.2zm6 6.2c-.3.4-.9.6-1.5.6s-1.1-.2-1.5-.6c-.5-.5-.6-1.1-.6-2.4 0-1.1.1-1.6.3-2 .1-.2.3-.4.6-.6l-.6-.6c-.2-.4-.3-.8-.3-1.7 0-1.1.1-1.7.6-2.2.3-.3.8-.5 1.4-.5.6 0 1.1.2 1.4.5.5.5.6 1.1.6 2.2 0 .8-.1 1.3-.3 1.7-.1.2-.3.4-.6.6.2.2.5.4.6.6.3.4.3.9.3 2 .2 1.3.1 1.8-.4 2.4zm-.9-4.2c-.2-.2-.4-.3-.6-.3-.2 0-.5.1-.6.3-.3.3-.3.8-.3 1.7 0 .9.1 1.4.3 1.7.1.2.4.3.6.3.2 0 .5-.1.6-.3.2-.3.3-.8.3-1.7 0-1 0-1.4-.3-1.7zm0-4.5c-.1-.2-.3-.2-.6-.2-.2 0-.4.1-.6.2-.2.3-.3.7-.3 1.5 0 .7 0 1.2.3 1.5.1.1.3.2.5.2s.4-.1.5-.2c.3-.3.3-.8.3-1.5.2-.7.1-1.2-.1-1.5zm-4.5 33.4c-.4.3-.9.5-1.5.5s-1.1-.2-1.5-.5c-.4-.4-.6-.8-.6-1.6V34c0-.8.2-1.2.6-1.6.4-.3.9-.5 1.5-.5s1.1.2 1.5.5c.4.4.6.8.6 1.6v4.5c0 .8-.2 1.3-.6 1.6zm-.6-6.2c0-.7-.4-1-.9-1s-.9.3-.9 1v4.6c0 .7.4 1 .9 1s.9-.3.9-1v-4.6zm6.2 3.8l-1.7 4.6H246l1.7-4.3c-.2.2-.5.2-.7.2-.5 0-1-.2-1.3-.6-.4-.4-.5-.9-.5-2.6 0-1.5.1-2 .5-2.5s1-.7 1.6-.7c.7 0 1.2.3 1.6.7.4.5.5 1.1.5 2.5 0 1.1-.2 1.9-.4 2.7zm-1.1-4.5c-.2-.2-.4-.3-.6-.3-.3 0-.5.1-.6.3-.3.3-.3 1-.3 1.9 0 .9 0 1.5.3 1.9.2.2.4.3.6.3.2 0 .5-.1.6-.3.3-.3.3-1 .3-1.9 0-.9 0-1.5-.3-1.9zm-6.5 32.1v-7.2l-1.5 1.2v-1.4l1.5-1.2h1.2v8.6h-1.2zm6.5-.4c-.4.3-.9.5-1.5.5s-1.1-.2-1.5-.5c-.4-.4-.6-.8-.6-1.6v-4.5c0-.8.2-1.2.6-1.6.4-.3.9-.5 1.5-.5s1.1.2 1.5.5c.4.4.6.8.6 1.6v4.5c0 .7-.2 1.2-.6 1.6zm-.6-6.2c0-.7-.4-1-.9-1s-.9.3-.9 1v4.6c0 .7.4 1 .9 1s.9-.3.9-1v-4.6zM241.4 90v-7.2l-1.5 1.2v-1.4l1.5-1.2h1.2V90h-1.2zm4.5 0v-7.2l-1.5 1.2v-1.4l1.5-1.2h1.2V90h-1.2zm-4.5 24.7v-7.2l-1.5 1.2v-1.4l1.5-1.2h1.2v8.6h-1.2zm2.9 0v-1l2.5-3.7c.5-.7.5-1.1.5-1.9 0-.7-.4-1-.9-1s-.9.3-.9 1v.6h-1.2v-.6c0-.7.2-1.2.6-1.6.4-.3.9-.5 1.5-.5s1.1.2 1.4.5c.4.3.6.8.6 1.6 0 1-.2 1.6-.7 2.3l-2.1 3.1h2.9v1.1h-4.2zm-2.9 24.8v-7.2l-1.5 1.2v-1.4l1.5-1.2h1.2v8.6h-1.2zm6.4 1.2c-.3.3-.9.5-1.5.5s-1.1-.2-1.5-.5c-.4-.4-.6-.8-.6-1.6v-.7h1.2v.7c0 .7.4 1 .9 1 .3 0 .5-.1.6-.3.2-.3.3-.8.3-1.7 0-1-.1-1.4-.3-1.7-.1-.2-.4-.3-.6-.3h-.5v-1h.5c.2 0 .4-.1.6-.2.2-.3.3-.7.3-1.5 0-.7 0-1.2-.3-1.4-.1-.2-.3-.2-.6-.2-.5 0-.8.3-.8 1v.7h-1.2v-.7c0-.8.2-1.2.6-1.6.4-.3.9-.5 1.4-.5.6 0 1.1.2 1.4.5.4.4.6 1 .6 2.1 0 .9-.1 1.3-.3 1.7-.1.2-.3.4-.6.6.2.2.4.3.6.6.3.5.3.9.3 2 .1 1.3.1 2-.5 2.5zm-6.4 23.5V157l-1.5 1.2v-1.4l1.5-1.2h1.2v8.6h-1.2zm6.7-.4v2.2H247v-2.2h-2.8v-1.1l2.6-7.6h1.1l-2.6 7.6h1.6v-2.3h1.2v2.3h.8v1.1h-.8z" fill="#BF2645"/><path stroke="#808184" stroke-width=".25" stroke-miterlimit="10" d="M227.3 0v217.5" fill="none"/></svg>