<?xml version="1.0" encoding="utf-8"?>
<!-- Generator: Adobe Illustrator 17.1.0, SVG Export Plug-In . SVG Version: 6.00 Build 0)  -->
<!DOCTYPE svg PUBLIC "-//W3C//DTD SVG 1.1//EN" "http://www.w3.org/Graphics/SVG/1.1/DTD/svg11.dtd">
<svg version="1.1" id="Layer_1" xmlns="http://www.w3.org/2000/svg" xmlns:xlink="http://www.w3.org/1999/xlink" x="0px" y="0px"
	 viewBox="0 0 300.4 105.2" enable-background="new 0 0 300.4 105.2" xml:space="preserve">
<g>
	<g>
		<rect x="0" y="0" fill="#FFFFFF" width="15" height="15"/>
		<rect x="0" y="20" fill="#FFFFFF" width="15" height="55.1"/>
		<path fill="#FFFFFF" d="M72.6,75.1h-15V37.5c0,0,0-5-5-5c-5,0-17.5,0-17.5,0v42.5H20V20h37.5c15,0,15,15.1,15,15.1V75.1z"/>
		<path fill="#FFFFFF" d="M105.2,75.1H92.6c-15,0-15-15-15-15V0h15v20h15l-7.5,12.6h-7.5v25c0,0,0,5,5,5h7.5V75.1z"/>
		<path fill="#FFFFFF" d="M110.1,20h37.5c15,0,15,15.1,15,15.1v17.5h-37.5v5c0,0,0.1,5,5,5h25l7.5,12.5h-37.5c-15,0-15-15-15-15V20z
			 M125.2,32.6v7.5h22.5v-2.5c0-5-5-5-5-5H125.2z"/>
		<path fill="#FFFFFF" d="M220.3,75.1h-37.5c-15.1,0-15.1-15-15.1-15v-20h37.6v-2.5c0,0-0.1-5-5-5h-25.1L167.7,20h37.6
			c15,0,15,15.1,15,15.1V75.1z M205.3,62.6v-10h-22.5v5c0,5,5,5,5,5H205.3z"/>
		<path fill="#FFFFFF" d="M300.4,75.1h-15V37.5c0,0,0-5-5-5c-2.5,0-10,0-10,0v42.5h-15V32.6h-15v42.5h-15V20h60.1
			c15,0,15,15.1,15,15.1V75.1z"/>
	</g>
	<g>
		<path fill="#FFFFFF" d="M151.2,104.8h-3.6c-0.1,0-0.3-0.1-0.3-0.2l-3.1-9c0-0.2-0.2-0.2-0.3-0.2h-3.1c-0.2,0-0.3,0.1-0.3,0.4v8.7
			c0,0.3-0.1,0.4-0.3,0.4h-3.4c-0.2,0-0.4-0.1-0.4-0.4V82.9c0-0.2,0.1-0.3,0.4-0.3h8c4,0,6.6,2.6,6.6,6.5v0.4c0,1.8-1.5,3.8-2.9,4.8
			c-0.1,0.1-0.1,0.1-0.1,0.3c0,0.1,0.1,0.3,0.2,0.6l3,8.8c0.1,0.3,0.2,0.5,0.2,0.5C151.5,104.7,151.4,104.8,151.2,104.8z
			 M147.1,88.8c0-1.4-1.2-2.5-2.5-2.5h-3.9c-0.2,0-0.3,0.1-0.3,0.4v4.7c0,0.3,0.1,0.4,0.3,0.4h3.9c1.4,0,2.5-1.2,2.5-2.6V88.8z"/>
		<path fill="#FFFFFF" d="M174.7,104.8h-12.4c-0.2,0-0.4-0.1-0.4-0.4V82.9c0-0.2,0.2-0.3,0.4-0.3h12.4c0.3,0,0.4,0.1,0.4,0.3v3
			c0,0.2-0.1,0.3-0.4,0.3h-8.4c-0.3,0-0.4,0.1-0.4,0.4v4.7c0,0.3,0.1,0.4,0.4,0.4h6.9c0.2,0,0.4,0.1,0.4,0.3v3
			c0,0.2-0.1,0.3-0.4,0.3h-6.9c-0.3,0-0.4,0.1-0.4,0.4v5c0,0.2,0.1,0.3,0.4,0.3h8.4c0.3,0,0.4,0.1,0.4,0.4v3
			C175.1,104.7,175,104.8,174.7,104.8z"/>
		<path fill="#FFFFFF" d="M199.3,102.3c-1.1,1.7-2.6,2.9-5.6,2.9H192c-4,0-6.6-2.6-6.6-6.3V88.5c0-3.7,2.5-6.3,6.6-6.3h1.7
			c2.9,0,4.5,1.2,5.6,2.9c0.3,0.5,0.7,1.1,0.7,1.3c0,0.1-0.1,0.2-0.2,0.3l-2.8,1.4c-0.1,0-0.3,0.2-0.4,0.2c-0.1,0-0.2-0.1-0.2-0.3
			c-0.7-1.5-1.5-2-2.5-2H192c-1.4,0-2.6,1.2-2.6,2.5v10.5c0,1.4,1.2,2.5,2.6,2.5h1.7c1,0,1.9-0.6,2.5-2.1c0.1-0.2,0.2-0.2,0.2-0.2
			c0.2,0,0.3,0.1,0.4,0.2l2.8,1.5c0.1,0.1,0.2,0.1,0.2,0.2C199.9,101.2,199.6,101.8,199.3,102.3z"/>
		<path fill="#FFFFFF" d="M217.9,105.2h-1.7c-4,0-6.5-2.6-6.5-6.3V88.5c0-3.7,2.5-6.3,6.5-6.3h1.7c4,0,6.6,2.6,6.6,6.3v10.5
			C224.4,102.6,221.8,105.2,217.9,105.2z M220.4,88.5c0-1.4-1.1-2.5-2.5-2.5h-1.7c-1.4,0-2.5,1.2-2.5,2.5v10.5
			c0,1.4,1.1,2.5,2.5,2.5h1.7c1.4,0,2.5-1.1,2.5-2.5V88.5z"/>
		<path fill="#FFFFFF" d="M250.4,104.8h-3.6c-0.1,0-0.3-0.1-0.3-0.2l-3.1-9c0-0.2-0.1-0.2-0.3-0.2h-3.2c-0.2,0-0.4,0.1-0.4,0.4v8.7
			c0,0.3-0.1,0.4-0.3,0.4h-3.3c-0.3,0-0.4-0.1-0.4-0.4V82.9c0-0.2,0.1-0.3,0.4-0.3h7.9c4,0,6.6,2.6,6.6,6.5v0.4
			c0,1.8-1.5,3.8-2.9,4.8c-0.1,0.1-0.1,0.1-0.1,0.3c0,0.1,0.1,0.3,0.2,0.6l3,8.8c0.1,0.3,0.2,0.5,0.2,0.5
			C250.8,104.7,250.7,104.8,250.4,104.8z M246.3,88.8c0-1.4-1.2-2.5-2.5-2.5h-3.9c-0.2,0-0.4,0.1-0.4,0.4v4.7c0,0.3,0.1,0.4,0.4,0.4
			h3.9c1.4,0,2.5-1.2,2.5-2.6V88.8z"/>
		<path fill="#FFFFFF" d="M269.4,104.8h-7.9c-0.3,0-0.4-0.1-0.4-0.4V82.9c0-0.2,0.1-0.3,0.4-0.3h7.9c4,0,6.6,2.6,6.6,6.5v9.1
			C276.1,102.3,273.5,104.8,269.4,104.8z M272,88.8c0-1.4-1.1-2.5-2.6-2.5h-3.8c-0.2,0-0.3,0.1-0.3,0.4v14.1c0,0.2,0.1,0.3,0.3,0.3
			h3.8c1.4,0,2.6-1.1,2.6-2.5V88.8z"/>
		<path fill="#FFFFFF" d="M293.9,105.2h-1.4c-2.9,0-4.5-1.2-5.6-2.9c-0.3-0.5-0.6-1.1-0.6-1.3c0-0.1,0-0.1,0.2-0.2l2.8-1.5
			c0.1-0.1,0.3-0.2,0.4-0.2c0,0,0.2,0.1,0.3,0.2c0.6,1.5,1.5,2.1,2.5,2.1h1.4c1.4,0,2.5-1.1,2.5-2.5c0-1.9-1.9-2.6-3.8-3.5
			c-2.8-1.4-5.8-2.8-5.8-7c0-3.7,2.6-6.3,6.6-6.3h0.6c2.9,0,4.5,1.2,5.6,2.9c0.3,0.5,0.7,1.1,0.7,1.3c0,0.1-0.1,0.2-0.2,0.3
			l-2.8,1.4c-0.1,0-0.3,0.2-0.4,0.2c-0.1,0-0.2-0.1-0.3-0.3c-0.7-1.5-1.5-2-2.5-2h-0.6c-1.3,0-2.5,1.2-2.5,2.5
			c0,1.8,2.1,2.3,4.1,3.3c2.6,1.2,5.5,2.9,5.5,7.2C300.4,102.6,297.9,105.2,293.9,105.2z"/>
	</g>
</g>
</svg>
