<svg xmlns="http://www.w3.org/2000/svg" viewBox="0 0 80 131.2" enable-background="new 0 0 80 131.2"><g fill-rule="evenodd" clip-rule="evenodd"><path d="M34 4.1c.1 11.2.7 21.9.8 33.1-8.7-.3-17.6-.3-26.3-.5-1.4-8.4-2.6-17-4-25.5 1.8.5 3.3.2 5.2.8 1 .4 2 1.7 2.9 1.8.8.1 2.9-.5 3.9-.7 3.7-.7 7.6-1.5 11.4-2.2.3-.6.5-1.4.6-2.2 1-1.1 2.6-3 3.6-4.2.3-.4.8-.5 1.9-.4zm.4 0h.1c1.6-.2 3 1.9 4 3.1 1.8 1.9 3.6 3.1 4.3 5.7 3.5.4 8.1 1 12.1 1.4 1.5.1 3 .6 4 .4 1.5-.2 2.3-1.7 3.5-2.2 1.5-.1 3.6-.2 4.7-.1-1.4 8.3-3 16.4-4.3 24.8-9.4-.1-18.5.1-27.7.1-.3-10.9-.7-21.8-1-32.7.1-.2.1-.4.3-.5zM9.5 37.3c17.1 0 35 .5 52.8.3-1.1.3-2.2.6-3.3.8.6 1 2.5 1.5 2.8 2.4-4.5.1-9 .4-13.4.6-4.5.2-8.9.6-13.2.6-2.1 0-4.4-.3-6.6-.4-6.3-.4-12.8-.9-19.3-1.2 1-.9 2.3-1.6 3.3-2.5-1.2-.2-2-.6-3.1-.6zm49.1 6.1c1.2.2 2.2.6 3.5.7-4.3.5-8.8.5-13.2.7-4.4.2-8.8.6-13.2.5-8.8-.1-17.5-1.3-26-1.7 1-.4 2.2-.6 3.2-1-1.1-.7-2.3-1.4-3.5-2.1 4.5 0 9.1.6 13.8.8 4.6.3 9.3.8 13.9.6 8.3-.4 16.5-.5 24.8-1-1 1.1-2.4 1.5-3.3 2.5zm3.6 1.3c-1.7 12.2-.7 26.8-.7 40.4 0 .8.2 2.2 0 2.9-.2.9-.7 1-1.5 1.4V46.5c-8 .1-16.2 1.2-24.4 1.4-4 .1-8-.4-12-.7-4.1-.3-8.1-.4-12.1-.8.8 14.3 1.5 28.6 2.3 42.8-.9-.1-1.5-.5-2.4-.7-.6-14.8-1.5-30-1.9-44.4 6.5.4 13 .8 19.6 1.2 10.6.8 22-.5 33.1-.6zm-29.1 3.4v49.8c-1.3-.7-2.8-1.2-4-1.9-.3-4.3-1.1-9.4-3.9-11.7-.5-.4-1.5-1.1-2.2-1.2-2.3-.6-4.8.2-5.7 1.9-.7 1.3-.7 3.1-.6 5-.8.2-1.8-.5-2.6-.7-.6-14.1-1.5-28-2.1-42.2-.3 0 0-.5.1-.4 7 .5 14 1 21 1.4zm-7.9 7.1c-.3-2-2.4-2.8-4.2-2-.9.6-1.2 1.6-1.3 2.8-.3 4 1.3 9.7 2.1 12.7.8-2.8 4.1-9.1 3.4-13.5zm-8.1 6.3c-2.7-2.2-3.7 3.9-2.6 5.4.9 1.3 2.5.8 3.8 1.1.6.1 1.5 1 1.7.6-.7-2.1-1.4-5.9-2.9-7.1zm13.4 2.9c-1.9-1.8-4.4.7-5.4 1.9-.9 1.1-2 2.2-2.1 3.1 3.3-1.2 3.5 2.9 7 2.5 1.8-1.2 2-6.1.5-7.5zm-8.2 14.5c.4.8 1.9 2 3.2 1.7 2.3-.5 1.3-5.5.1-6.7-1.8-1.8-6.7-1.7-8.1-.3-1.3 1.4-1.2 6.4 2 5.8.5-.1.7-.5 1.1-1 .3-.3.4-1.1 1.1-1.1.5.5.3 1.1.6 1.6zm37-32.2c.5.5.3 1.6.3 2.5 0 13.1-.1 27.2.1 40.2-1.9 1.5-6.2 2.8-9 1.2.3-2.3.1-4.9-.6-6.5 3.9.1 5.6 2.5 5.4 6.8.5-.4.4-1.7.3-2.5-.4-2.6-2.6-5-6-4.6-2.1.2-4.3 2.2-5.4 4-1.3 2.2-1.7 4.7-1.9 7.4-1.8.8-3.3 1.9-5.3 2.5V48c7.4-.3 14.8-.7 22.1-1.3zM46.9 55c-.8 4.5 2.4 11.1 3.5 13.8.6-3.3 2-7.9 1.9-11.8 0-1.4-.3-2.9-1.3-3.8-2.2-.6-3.8.1-4.1 1.8zm11 11.4c.7-1.9-.2-5.4-1.9-5.3-2.3.1-3.5 6.4-3.8 7.8 1.6-1.5 4.9-.3 5.7-2.5zm-16.1 5.8c2.7.4 3.5-4 6.7-2.8-1.9-2.2-2.8-5.3-7-5.3-2.2 1.3-2.4 7.8.3 8.1zm9.2 6.3c.5.5.6.9 1.2 1 3.1.5 3.1-4.2 2.1-5.6-1.3-1.8-5.9-1.7-7.8-.4-1.4 1-2.8 5.8-.7 7 1.5.8 3-.8 3.5-1.5.3-.4.2-1.1.7-1.5.7-.2.5.7 1 1zM33.6 48.1c1 .3 2.6 0 3.3.1v49.7h-3.5V48.5c0-.1 0-.3.2-.4zm27.8 18.8c.1-6 .4-11.8.5-17.7 0-.2.1-.4.3-.4 5.9-.1 10.7.4 12.4 4.3 2.4 5.5.6 14.3-5.8 14.9-2.2.2-4.2-.5-6.1-1.4-.7-.2-1 .6-1.3.3zM22.7 83.4c0 1.9-.4 3.4-.4 5.2-1.8.4-3.4 1-5.3 1.4-.3-4.5 1-7.2 5.7-6.6z"/><path fill="#00ADEE" d="M43.6 9.7c3.7.3 6.9.9 10.4 1.4 1.1.1 2.5.6 3.5.4 1.2-.2 2.6-2 3.8-2.4.8-.2 2.1-.1 3-.1 2.2 0 4.2 0 6.4-.1-1.5 10.3-3.5 20.1-5 30.4-.7 0-1.1-.2-1.7-.3-.1.5 1.3.7 1.4 1.4-1.3.5-2.2 1.5-3.5 2.1.9.5 2.2.6 3.3.8 0 1-.3 1.6-.4 2.5 5.1.2 10.5.1 13 3.3 2 2.6 2.4 7.4 2.1 11.4-.4 6-3.6 11.6-9.6 11.1-2.1-.1-4-1.1-6-1.4-.5.8-.3 1.9-.3 2.8 0 5.9.4 12.4.4 18.4-3.8 2-10.6 5.3-15.5 2.4.2-1.9.3-4.8-.3-6.3-1.9 3.3-3.2 7.2-4.2 11.4-3.5 1.1-7.1 3.8-12.3 2.9-1-.2-2-1-2.9-1.5-1-.5-2-.9-2.8-1.5.1-4.5-.2-8.6-1.5-11.7-.6 1.2-.4 3.2-.7 4.6-2.5.4-5.1.9-7.8 1.4-.9.1-1.9.4-2.6.4-1.1 0-2.1-.7-3.1-1-1-.3-2.1-.5-3.1-1-.4-16.3-1.4-32.4-2-48.8 1-.2 1.8-.6 2.9-.7-1.2-.9-2.6-1.5-3.9-2.4 1.1-.8 2.2-1.7 3.5-2.4-.9-.5-2.4-.4-3.5-.7C3.2 26.8 1.5 17.3 0 7.6c3.3.4 6.5.8 9.9 1 1 .3 2.1 1.8 3.2 2 .8.1 2.2-.4 3.3-.7 2.9-.7 6.9-1.6 9.7-2.2.2-2.2 1.3-3.2 2.6-4.7.9-1.1 1.7-2.1 2.6-2.8 1.1.3 2.4-.3 3.6 0 1 .3 3 2.9 3.9 3.8 2.1 1.8 4.1 3 4.8 5.7zm19.7 30.4c-.8-.5-1.7-1-2.4-1.7 1.2-.4 2.3-1.2 3.8-.5 1.4-9.4 3.2-18.4 4.6-27.7-2.8.5-4.9-.5-7.5.1-1.3.3-2.8 2.3-4 2.5-1.1.1-2.4-.4-3.6-.6-4.1-.5-7.4-.9-11.4-1.4-.3-1-.8-1.6-1-2.6-1.1-.9-2.2-2.2-3.5-3.5-.7-.7-2.7-3.1-3.6-3.3-.9-.3-1.8.2-2.8 0-1.2 1.6-3.2 2.8-4 4.7-.3.8-.3 1.6-.7 2.5-3.6.9-6.9 1.5-10.6 2.4-1.1.3-2.6 1-3.6.8-1.1-.1-2.3-1.6-3.5-1.9-1.3-.4-2.7-.3-3.9-.5C4.3 9.3 3 9.2 1.5 9c1.3 9 2.8 17.7 4.2 26.6.8 0 1.4.2 2.1.3.2.9.7 1.6 1.5 1.8-.7.8-1.8 1.1-2.5 1.9 1.7.8 3.3 1.7 4.7 2.8-1.7.3-3 .9-4.7 1.1.7 15.8 1.4 31.6 2.2 47.2 1.7.3 3.1 1.4 4.9 1.5 1.4.1 3.1-.5 4.6-.8 1.6-.3 3.2-.5 4.7-.7.3-2 .4-4.2.7-6.3 3.7 2.1 3.7 8 3.9 13.6.7.5 1.5.9 2.4 1.4.8.4 1.7 1.1 2.5 1.3 4.4.8 7.6-1.8 10.7-2.6 1.5-4.5 2.5-9.6 5.4-12.7 1.5 1.5 1.8 4.9 1.4 7.8 4.8 1.6 9.6-.9 12.9-2.5-.1-7-.4-13.8-.4-20.9.7-.3 1.1-.8 1.8-1.1 3.5 1.9 8 2.5 10.7.1 1.9-1.7 3-5 3.3-8.5.4-3.6-.1-7.9-1.5-10.2-2-3.3-9.2-3.3-13.8-3.2.2-.9.5-1.8.6-2.8-1.1-.3-2.6-.6-3.6-.8-.4-.1-1 0-1.1-.4h.3c1.2-1 2.8-1.7 3.9-2.8z"/></g><path fill="#231F20" d="M13.4 118.3v-5c0-1-.7-1.1-1-1.1-.3 0-1 .2-1 1.1v5H8.8v-5c0-1-.7-1.1-1-1.1-.3 0-1 .2-1 1.1v5H4.2V110h2.5v.7c.5-.5 1.3-.8 1.9-.8.8 0 1.5.3 2 .9.7-.6 1.4-.9 2.3-.9.8 0 1.6.3 2 .7.7.7.9 1.5.9 2.4v5.3h-2.4zm8.3 0v-.7c-.5.5-1 .8-1.8.8s-1.5-.3-2-.7c-.5-.5-.7-1.2-.7-1.9 0-1.2.8-2.4 2.8-2.4h1.7v-.4c0-.8-.4-1-1.3-1-.6 0-.9.2-1.3.6l-1.6-1.6c.8-.9 1.6-1.1 3-1.1 2.4 0 3.7 1 3.7 3v5.4h-2.5zm0-3.4h-1.3c-.5 0-.8.3-.8.7 0 .4.3.7.8.7s.7 0 1-.3c.2-.2.3-.4.3-.8v-.3zm10.7 2.7c-.5.5-1.2.8-2 .8-.9 0-1.4-.3-1.9-.8v.7H26v-11h2.5v3.3c.5-.5 1-.7 1.9-.7.8 0 1.5.3 2 .8.8.8.8 2.3.8 3.5-.1 1.1 0 2.6-.8 3.4zm-2.8-5.5c-.9 0-1.1.8-1.1 2s.1 2 1.1 2 1.1-.8 1.1-2-.2-2-1.1-2zm9.9 6.2l-1.7-3-.5.5v2.5h-2.5v-11h2.5v5.6l2.2-2.9h3.1l-3.1 3.5 3.1 4.9h-3.1zm8.6 0v-5c0-.9-.7-1.1-1-1.1s-1 .2-1 1.1v5h-2.5v-11h2.5v3.4c.5-.5 1.2-.8 1.8-.8 1.8 0 2.7 1.3 2.7 3v5.4h-2.5zm10.3-1c-.5.5-1.3 1.1-2.7 1.1-1.3 0-2.2-.5-2.7-1.1-.7-.8-.9-1.5-.9-3.2 0-1.6.2-2.4.9-3.2.5-.5 1.3-1.1 2.7-1.1 1.3 0 2.2.5 2.7 1.1.7.8.9 1.6.9 3.2 0 1.7-.2 2.4-.9 3.2zm-2-4.9c-.2-.1-.4-.2-.7-.2s-.5.1-.7.2c-.3.3-.4.9-.4 1.7 0 .8 0 1.4.4 1.7.2.1.4.2.7.2s.5-.1.7-.2c.3-.3.4-.9.4-1.7 0-.8-.1-1.4-.4-1.7zm10.5 4.9c-.5.5-1.3 1.1-2.7 1.1-1.3 0-2.2-.5-2.7-1.1-.7-.8-.9-1.5-.9-3.2 0-1.6.2-2.4.9-3.2.5-.5 1.3-1.1 2.7-1.1 1.3 0 2.2.5 2.7 1.1.7.8.9 1.6.9 3.2 0 1.7-.2 2.4-.9 3.2zm-2-4.9c-.2-.1-.4-.2-.7-.2-.3 0-.5.1-.7.2-.3.3-.4.9-.4 1.7 0 .8 0 1.4.4 1.7.1.1.4.2.7.2.3 0 .5-.1.7-.2.3-.3.4-.9.4-1.7 0-.8-.1-1.4-.4-1.7zm9 .2c-.2-.2-.5-.4-.9-.4-.3 0-1 .2-1 1.1v5h-2.5V110H72v.7c.4-.4 1.1-.8 2-.8.8 0 1.4.2 1.9.8l-2 1.9z"/><path fill="#00ADEE" d="M28.6 131.1v-5c0-1-.7-1.1-1-1.1-.3 0-1 .2-1 1.1v5h-2.5v-5c0-1-.7-1.1-1-1.1-.3 0-1 .2-1 1.1v5h-2.5v-8.3H22v.7c.5-.5 1.3-.8 1.9-.8.8 0 1.5.3 2 .9.7-.6 1.4-.9 2.3-.9.8 0 1.5.3 2 .7.7.7.9 1.5.9 2.4v5.3h-2.5zm8.9 0v-.7c-.5.5-1.3.8-1.9.8-.8 0-1.4-.3-1.9-.7-.7-.7-.8-1.5-.8-2.4v-5.3h2.5v5c0 1 .7 1.1 1 1.1.3 0 1-.2 1-1.1v-5H40v8.3h-2.5zm7.2.1c-1.2 0-2.5-.1-3.6-1.2l1.6-1.6c.7.7 1.6.7 2 .7.4 0 1.1-.1 1.1-.5 0-.2-.1-.5-.6-.5l-1.3-.1c-1.4-.1-2.4-.8-2.4-2.4 0-1.8 1.7-2.8 3.3-2.8 1.4 0 2.5.2 3.3 1l-1.6 1.6c-.4-.4-1.1-.5-1.8-.5-.6 0-.8.3-.8.5 0 .1 0 .4.5.5l1.3.1c1.7.2 2.5 1.2 2.5 2.5.1 1.9-1.5 2.7-3.5 2.7zm5-9.2v-2h2.5v1.9h-2.5zm0 9.1v-8h2.5v8h-2.5zm7.8.1c-1.4 0-3.7-.6-3.7-4.3 0-3.6 2.3-4.2 3.7-4.2 1.2 0 2.1.4 2.7 1.1l-1.7 1.7c-.3-.3-.6-.5-1-.5-.3 0-.6.1-.8.3-.3.3-.4.8-.4 1.6s.1 1.3.4 1.6c.2.2.4.3.8.3s.7-.2 1-.5l1.7 1.7c-.6.8-1.5 1.2-2.7 1.2z"/></svg>