<?xml version="1.0" encoding="utf-8"?>
<!-- Generator: Adobe Illustrator 17.1.0, SVG Export Plug-In . SVG Version: 6.00 Build 0)  -->
<!DOCTYPE svg PUBLIC "-//W3C//DTD SVG 1.1//EN" "http://www.w3.org/Graphics/SVG/1.1/DTD/svg11.dtd">
<svg version="1.1" id="Layer_1" xmlns="http://www.w3.org/2000/svg" xmlns:xlink="http://www.w3.org/1999/xlink" x="0px" y="0px"
	 viewBox="0 0 319.5 64.2" enable-background="new 0 0 319.5 64.2" xml:space="preserve">
<g>
	<g>
		<path fill="#FFFFFF" d="M49.1,24.3c-5,0-9.6-1.5-12.7-4.3c-2.3-2.1-3.5-5-3.5-7.9c0-2.9,1.2-5.8,3.5-7.9C39.2,1.7,44.3,0,49.1,0
			c5.3,0,9.5,1.3,12.7,4.3c2.3,2.1,3.4,4.9,3.4,7.9c0,2.8-1.2,5.8-3.4,7.9C58.8,22.8,54.1,24.3,49.1,24.3v-3.2
			c2.7,0,5.1-0.9,6.8-2.6c1.7-1.7,2.5-3.8,2.5-6.3c0-2.5-0.8-4.7-2.5-6.3c-1.7-1.7-4.2-2.6-6.8-2.6c-2.6,0-5.1,0.9-6.8,2.6
			c-1.6,1.6-2.5,3.9-2.5,6.3c0,2.4,0.9,4.7,2.5,6.3c1.7,1.7,4.2,2.6,6.8,2.6V24.3z M12.6,0C9.9,0,6.9,0.5,4.3,1.7C2,2.7,0,4.5,0,7.3
			c0,2.6,1.6,4.1,1.6,4c0.7,0.6,1.8,1.7,4.7,2.4c1.3,0.3,4.1,0.7,6.9,1c2.8,0.3,5.5,0.6,6.6,0.8c0.9,0.2,2.3,0.6,2.3,2.2
			c0,1.6-1.5,2.2-1.8,2.2c-0.3,0.1-2.1,1-5.5,1c-2.5,0-5.4-0.7-6.5-1.1c-1.2-0.5-2.6-1-3.8-2.6c-0.3-0.3-0.8-1.4-0.8-2.4H0.7v8.5H4
			c0,0,0-0.9,0-1.2c0-0.1,0.2-0.6,0.7-0.4c0.7,0.3,2.8,1.1,4.9,1.6c1.8,0.4,2.9,0.6,5.1,0.6c3.6,0,5.5-0.6,6.8-0.9
			c1.3-0.4,2.8-1,4.1-2c0.7-0.5,2.2-1.9,2.2-4.5c0-2.4-1.3-3.9-1.7-4.4c-0.6-0.6-1.4-1.1-2.2-1.5c-0.7-0.3-1.8-0.7-2.7-0.9
			c-1.7-0.4-5.6-1-7.5-1.2c-2-0.2-5.4-0.5-6.7-0.9C6.6,7.6,5.8,7.2,5.8,6.3c0-0.7,0.4-1.3,1.1-1.8c1.2-0.7,3.7-1.2,6.2-1.2
			c3,0,5.5,0.6,7.2,1.4c0.5,0.3,1.2,0.6,1.7,1c0.6,0.5,1.4,1.5,1.7,2.8h2.7V1.1h-3V2c0,0.3-0.3,0.6-0.8,0.3
			C21.2,1.6,17.3,0.1,12.6,0z M68.6,1.4v2.7h2.3c1.7,0,1.8,0.9,1.8,1.8v12.6c0,0.8,0,1.8-1,1.8c-1.7,0-2.9,0-2.9,0V23h12.4v-2.7
			c0,0-1.3,0-3,0c-1.2,0-1.3-0.5-1.3-1.7V7.7L94,23h4.3L98.1,5.7c0-1.2,0.1-1.7,1.4-1.7c1.7,0,2.7,0,2.7,0V1.4H89.5v2.7
			c0,0,1.1,0,2.8,0c1.3,0,1.5,0.5,1.5,1.7l0.2,9L79.1,1.4H68.6z M114,20.2V23h14.8v-2.7c0,0-2.2,0-2.8,0l-0.7,0
			c-0.3-0.1-0.5-0.3-0.6-0.5l-0.1-0.6c0-0.4,0-4.1,0-4.2l0.1-0.4c0.2-0.2,7.9-8.9,8.2-9.3c0.7-0.8,1.1-1,2.1-1c0.9,0,2.7,0,2.7,0
			V1.4h-12.2v2.7c0,0,1.5,0,1.8,0c0.5,0,0.7,0.6,0.4,0.8l-5.2,6.1l-0.1,0l-5-6c-0.4-0.4-0.1-0.8,0.3-0.8c0.4,0,1.8,0,1.8,0V1.4
			h-14.9v2.7c0,0,1.7,0,2.6,0c1.2,0,1.9,0.7,2.3,1.2c0.4,0.4,7.9,9,8.1,9.2c0.2,0.2,0.2,0.3,0.2,0.4v4.2l0,0.6
			c-0.1,0.2-0.3,0.4-0.6,0.5l-0.8,0H114z"/>
	</g>
	<path fill="#FFFFFF" d="M316.4,15.3c-0.5,1.7-2.2,3.6-3.8,4.3c-1.5,0.7-3.4,1.5-6.5,1.4c0,0-0.5,0-0.7,0c-0.5,0-1-0.1-1.5-0.2
		c-1.8-0.4-3.4-1.2-4.7-2.4c-1.6-1.6-2.5-3.9-2.5-6.3c0-2.5,0.9-4.7,2.5-6.3c1.7-1.6,4.1-2.5,6.6-2.5c0,0,0.1,0,0.1,0
		c0.1,0,0.3,0,0.4,0c2.8,0,4.4,0.4,6.6,1.5c1.3,0.7,3.2,2.6,3.6,4.6h2.9v-8h-3v0.9c0,0.1-0.1,0.3-0.2,0.4c-0.1,0.1-0.3,0.1-0.6,0
		c-1.3-0.7-4.8-2.5-9.5-2.5c-0.2,0-0.3,0-0.5,0h0l0,0c-4.6,0.1-9.4,1.8-12.1,4.2c-0.6,0.6-1.2,1.3-1.7,2c-1.2,1.8-1.7,3.8-1.7,5.9
		c0,0.2,0,0.4,0,0.6c0.2,2.7,1.3,5.3,3.4,7.2c2.6,2.3,6.3,3.8,10.3,4.2c3.9,0.4,7.9-0.2,10.6-1.8c2.7-1.5,4.6-4.1,5.2-6.9
		c0,0,0-0.1,0-0.2H316.4z M180.6,1.4l-6.4,14.1l-6.4-14.1h-6.2h-0.2l0,0h-7.4v2.7h2.4c1.7,0,1.8,0.9,1.8,1.8v12.6
		c0,0.8,0.1,1.8-1,1.8c-1.7,0-2.9,0-2.9,0V23h11.7v-2.7c0,0-0.6,0-2.3,0c-1.2,0-1.3-0.5-1.3-1.7l0-13.7h0.1l8.2,18.2h4.6l8.1-18.2
		h0.1l0.1,13.7c0,1.2-0.1,1.7-1.3,1.7c-1.7,0-2.3,0-2.3,0V23h14.2v-2.7c0,0-1.2,0-2.9,0c-1.1,0-1-1-1-1.8L190,5.9
		c0-0.8,0.1-1.8,1.8-1.8h2.4V1.4h-9.8H180.6z M219.6,4.1c0,0,0.8,0,2.5,0c1.2,0,1.5,0.5,1.5,1.5l0,10.9c0,2.5-0.9,5.3-7.8,5.3
		c-6.5,0-6.2-4.5-6.2-5.2V5.6c0-1.1,0.2-1.5,1.4-1.5c1.7,0,2.6,0,2.6,0V1.4h-15.3v2.7c0,0,0.9,0,2.6,0c1.3,0,1.5,0.5,1.5,1.7l0,0
		v10.4c0,6.9,7.2,8.1,13.3,8.1c6.3,0,12.3-1.3,12.3-7.9l0-11.2c0.1-0.8,0.3-1.1,1.3-1.1c1.7,0,2.7,0,2.7,0V1.4h-12.5V4.1z
		 M281.9,20.2c-0.3-0.1-0.5-0.3-0.6-0.5l-0.1-0.6l0-13.9l0.1-0.6c0.1-0.2,0.3-0.4,0.6-0.5l0.7,0c0.5,0,2.8,0,2.8,0V1.4h-15v2.7h2.7
		l0.7,0c0.3,0.1,0.5,0.3,0.6,0.5l0.1,0.6l-0.1,13.9l0,0.6c-0.1,0.2-0.3,0.4-0.6,0.5l-0.7,0h-2.7V23h15.1v-2.7c0,0-2.3,0-2.8,0
		L281.9,20.2z M262.8,12.3c-0.6-0.6-1.4-1.1-2.2-1.5c-0.7-0.3-1.7-0.6-2.6-0.8c-1.7-0.4-5.7-1-7.6-1.2c-1.9-0.2-5.4-0.6-6.7-1
		c-0.4-0.1-1.3-0.7-1.3-1.6c0-0.7,0.4-1.3,1.1-1.8c1.2-0.7,3.7-1.2,6.2-1.2c3,0,5.6,0.6,7.2,1.4c0.6,0.3,1.2,0.6,1.7,1
		c0.6,0.5,1.4,1.5,1.7,2.8h2.7V1.1h-3V2c0,0.3-0.3,0.6-0.8,0.3c-1.4-0.7-5.2-2.2-9.9-2.3c-2.7,0-5.7,0.5-8.3,1.7
		c-2.4,1-4.3,2.8-4.3,5.6c0,2.6,1.6,4,1.6,4c0.7,0.6,1.8,1.7,4.7,2.3c1.3,0.3,4.1,0.7,6.9,1c2.7,0.3,5.4,0.7,6.5,0.9
		c0.9,0.2,2.3,0.6,2.3,2.2c0,1.6-1.5,2.2-1.8,2.2c-0.3,0.1-2.1,1-5.5,1c-2.5,0-5.4-0.7-6.5-1.1c-1.3-0.5-2.6-1-3.8-2.6
		c-0.3-0.3-0.8-1.4-0.8-2.4h-3.1v8.5h3.4c0,0,0-0.9,0-1.2c0-0.1,0.2-0.6,0.7-0.4c0.7,0.3,2.8,1.1,4.9,1.6c1.8,0.4,2.9,0.6,5.1,0.6
		c3.6,0,5.5-0.6,6.9-0.9c1.3-0.4,2.8-1,4.1-2c0.7-0.5,2.2-1.9,2.2-4.5C264.6,14.2,263.3,12.8,262.8,12.3z"/>
</g>
<g>
	<g>
		<g>
			<g>
				<path fill="#FFFFFF" d="M17.1,40.4h3v3c1.2-2.4,3.6-3.5,6.2-3.5c3,0,5.7,1.3,7.5,3.5c0.2,0.3,0.4,0.6,0.6,0.9
					c0.1-0.3,0.3-0.6,0.5-0.9c1.6-2.2,4.6-3.5,7.4-3.5c2.5,0,4.9,1.2,7.2,3.5c1.9,1.8,2.2,4.2,2.2,7v13.3h-3.2v-13
					c0-1.7-0.1-3.6-1.2-5c-1.2-1.8-3.1-2.8-5.2-2.8c-2,0-4,1-5.2,2.6c-1,1.4-1,3.4-1,5.1v13h-3.1V50.4c0-1.8-0.1-3.1-1.1-4.6
					c-1.2-1.7-3.1-2.8-5.2-2.8c-2,0-3.9,0.8-5.1,2.5c-1.1,1.5-1.1,3.2-1.1,5v13.3h-3.1V40.4z"/>
				<path fill="#FFFFFF" d="M80.3,63.7h-3v-4.4c-1.8,3.3-5.3,4.9-9,4.9c-3.5,0-7.3-1.5-10.2-4.9c-0.9-0.9-2.3-3.9-2.3-7.4
					c0-3.1,1.6-6.3,2.4-7.1c3.5-3.8,6.8-4.9,10-4.9c3.7,0,7.3,1.6,9.1,4.9v-4.4h3V63.7z M58.9,52.1c0,5.1,4.4,9.1,9.4,9.1
					c4.8,0,9-4.2,9-9c0-5.1-3.9-9.3-9.1-9.3C63.1,42.9,58.9,47,58.9,52.1z"/>
				<path fill="#FFFFFF" d="M86.6,32.3h3.1v22l10.7-13.9h4l-9,11.7l9.6,11.6h-4l-7.6-9.2l-3.7,4.7v4.5h-3.1V32.3z"/>
				<path fill="#FFFFFF" d="M108.9,53.2c0.2,4.4,4.5,8.1,8.8,8.1c3.4,0,6.9-1.9,8.3-5.1h3.3c-1.6,4.7-6.4,8.1-11.3,8.1
					c-6.8,0-12.2-5.4-12.2-12.1c0-6.8,5.3-12.2,12.1-12.2c3.6,0,7,1.7,9.3,4.5c2.1,2.7,2.6,5.4,2.7,8.8H108.9z M126.8,50.3
					c-0.8-4.1-4.5-7.4-8.9-7.4c-4.4,0-8.3,3.1-9,7.4H126.8z"/>
			</g>
		</g>
		<g>
			<g>
				<path fill="#FFFFFF" d="M154.2,32.3h3.1v12.5c1.5-3.2,5.4-4.8,8.8-4.8c6.7,0,12.6,5.2,12.6,12c0,3.3-1.5,6.3-2.8,7.7
					c-3.2,3.7-6.1,4.6-9.5,4.6c-3.4,0-7.4-1.5-9.3-4.6v4h-3V32.3z M159.6,45.7c-1.9,1.9-2.5,4-2.5,6.5c0,5.2,4.2,9,9.3,9
					c5,0,9.1-4.2,9.1-9.2c0-5.3-4.2-9.1-9.4-9.1C163.7,42.9,161.3,43.9,159.6,45.7z"/>
				<path fill="#FFFFFF" d="M185.6,53.2c0.2,4.4,4.5,8.1,8.8,8.1c3.4,0,6.9-1.9,8.3-5.1h3.3c-1.6,4.7-6.4,8.1-11.3,8.1
					c-6.8,0-12.2-5.4-12.2-12.1c0-6.8,5.3-12.2,12.1-12.2c3.7,0,7,1.7,9.4,4.5c2.2,2.7,2.6,5.4,2.7,8.8H185.6z M203.4,50.3
					c-0.8-4.1-4.6-7.4-8.9-7.4c-4.4,0-8.3,3.1-9,7.4H203.4z"/>
				<path fill="#FFFFFF" d="M211.8,32.3h3.1v31.4h-3.1V32.3z"/>
				<path fill="#FFFFFF" d="M221,32.3h3.1v5.4H221V32.3z M221,40.4h3.1v23.3H221V40.4z"/>
				<path fill="#FFFFFF" d="M232.4,53.2c0.2,4.4,4.5,8.1,8.8,8.1c3.4,0,6.9-1.9,8.3-5.1h3.3c-1.6,4.7-6.4,8.1-11.3,8.1
					c-6.8,0-12.2-5.4-12.2-12.1c0-6.8,5.3-12.2,12.1-12.2c3.6,0,7,1.7,9.4,4.5c2.1,2.7,2.6,5.4,2.7,8.8H232.4z M250.4,50.3
					c-0.8-4.1-4.6-7.4-8.9-7.4c-4.4,0-8.3,3.1-9,7.4H250.4z"/>
				<path fill="#FFFFFF" d="M254.5,40.4h3.4l8,19.3l8.1-19.3h3.4l-9.8,23.3h-3.3L254.5,40.4z"/>
				<path fill="#FFFFFF" d="M281.5,53.2c0.2,4.4,4.5,8.1,8.8,8.1c3.4,0,6.9-1.9,8.3-5.1h3.3c-1.6,4.7-6.4,8.1-11.3,8.1
					c-6.8,0-12.2-5.4-12.2-12.1c0-6.8,5.3-12.2,12.1-12.2c3.6,0,7,1.7,9.3,4.5c2.2,2.7,2.7,5.4,2.7,8.8H281.5z M299.3,50.3
					c-0.8-4.1-4.6-7.4-8.9-7.4c-4.4,0-8.3,3.1-9,7.4H299.3z"/>
			</g>
		</g>
		<path fill="#FFFFFF" d="M145.7,59.5c0,2.5-2,4.5-4.5,4.5c-2.5,0-4.5-2-4.5-4.5c0-2.5,2-4.5,4.5-4.5
			C143.7,54.9,145.7,56.9,145.7,59.5z"/>
	</g>
</g>
</svg>
