<svg xmlns="http://www.w3.org/2000/svg" viewBox="0 0 300.4 105.2" enable-background="new 0 0 300.4 105.2"><g fill="#fff"><path d="M0 0h15v15H0zM0 20h15v55.1H0zM72.6 75.1h-15V37.5s0-5-5-5H35.1V75H20V20h37.5c15 0 15 15.1 15 15.1v40zM105.2 75.1H92.6c-15 0-15-15-15-15V0h15v20h15l-7.5 12.6h-7.5v25s0 5 5 5h7.5v12.5zM110.1 20h37.5c15 0 15 15.1 15 15.1v17.5h-37.5v5s.1 5 5 5h25l7.5 12.5h-37.5c-15 0-15-15-15-15V20zm15.1 12.6v7.5h22.5v-2.5c0-5-5-5-5-5h-17.5zM220.3 75.1h-37.5c-15.1 0-15.1-15-15.1-15v-20h37.6v-2.5s-.1-5-5-5h-25.1L167.7 20h37.6c15 0 15 15.1 15 15.1v40zm-15-12.5v-10h-22.5v5c0 5 5 5 5 5h17.5zM300.4 75.1h-15V37.5s0-5-5-5h-10V75h-15V32.6h-15v42.5h-15V20h60.1c15 0 15 15.1 15 15.1v40zM151.2 104.8h-3.6c-.1 0-.3-.1-.3-.2l-3.1-9c0-.2-.2-.2-.3-.2h-3.1c-.2 0-.3.1-.3.4v8.7c0 .3-.1.4-.3.4h-3.4c-.2 0-.4-.1-.4-.4V82.9c0-.2.1-.3.4-.3h8c4 0 6.6 2.6 6.6 6.5v.4c0 1.8-1.5 3.8-2.9 4.8-.1.1-.1.1-.1.3 0 .1.1.3.2.6l3 8.8c.1.3.2.5.2.5-.3.2-.4.3-.6.3zm-4.1-16c0-1.4-1.2-2.5-2.5-2.5h-3.9c-.2 0-.3.1-.3.4v4.7c0 .3.1.4.3.4h3.9c1.4 0 2.5-1.2 2.5-2.6v-.4zM174.7 104.8h-12.4c-.2 0-.4-.1-.4-.4V82.9c0-.2.2-.3.4-.3h12.4c.3 0 .4.1.4.3v3c0 .2-.1.3-.4.3h-8.4c-.3 0-.4.1-.4.4v4.7c0 .3.1.4.4.4h6.9c.2 0 .4.1.4.3v3c0 .2-.1.3-.4.3h-6.9c-.3 0-.4.1-.4.4v5c0 .2.1.3.4.3h8.4c.3 0 .4.1.4.4v3c0 .3-.1.4-.4.4zM199.3 102.3c-1.1 1.7-2.6 2.9-5.6 2.9H192c-4 0-6.6-2.6-6.6-6.3V88.5c0-3.7 2.5-6.3 6.6-6.3h1.7c2.9 0 4.5 1.2 5.6 2.9.3.5.7 1.1.7 1.3 0 .1-.1.2-.2.3l-2.8 1.4c-.1 0-.3.2-.4.2-.1 0-.2-.1-.2-.3-.7-1.5-1.5-2-2.5-2H192c-1.4 0-2.6 1.2-2.6 2.5V99c0 1.4 1.2 2.5 2.6 2.5h1.7c1 0 1.9-.6 2.5-2.1.1-.2.2-.2.2-.2.2 0 .3.1.4.2l2.8 1.5c.1.1.2.1.2.2.1.1-.2.7-.5 1.2zM217.9 105.2h-1.7c-4 0-6.5-2.6-6.5-6.3V88.5c0-3.7 2.5-6.3 6.5-6.3h1.7c4 0 6.6 2.6 6.6 6.3V99c-.1 3.6-2.7 6.2-6.6 6.2zm2.5-16.7c0-1.4-1.1-2.5-2.5-2.5h-1.7c-1.4 0-2.5 1.2-2.5 2.5V99c0 1.4 1.1 2.5 2.5 2.5h1.7c1.4 0 2.5-1.1 2.5-2.5V88.5zM250.4 104.8h-3.6c-.1 0-.3-.1-.3-.2l-3.1-9c0-.2-.1-.2-.3-.2h-3.2c-.2 0-.4.1-.4.4v8.7c0 .3-.1.4-.3.4h-3.3c-.3 0-.4-.1-.4-.4V82.9c0-.2.1-.3.4-.3h7.9c4 0 6.6 2.6 6.6 6.5v.4c0 1.8-1.5 3.8-2.9 4.8-.1.1-.1.1-.1.3 0 .1.1.3.2.6l3 8.8c.1.3.2.5.2.5 0 .2-.1.3-.4.3zm-4.1-16c0-1.4-1.2-2.5-2.5-2.5h-3.9c-.2 0-.4.1-.4.4v4.7c0 .3.1.4.4.4h3.9c1.4 0 2.5-1.2 2.5-2.6v-.4zM269.4 104.8h-7.9c-.3 0-.4-.1-.4-.4V82.9c0-.2.1-.3.4-.3h7.9c4 0 6.6 2.6 6.6 6.5v9.1c.1 4.1-2.5 6.6-6.6 6.6zm2.6-16c0-1.4-1.1-2.5-2.6-2.5h-3.8c-.2 0-.3.1-.3.4v14.1c0 .2.1.3.3.3h3.8c1.4 0 2.6-1.1 2.6-2.5v-9.8zM293.9 105.2h-1.4c-2.9 0-4.5-1.2-5.6-2.9-.3-.5-.6-1.1-.6-1.3 0-.1 0-.1.2-.2l2.8-1.5c.1-.1.3-.2.4-.2 0 0 .2.1.3.2.6 1.5 1.5 2.1 2.5 2.1h1.4c1.4 0 2.5-1.1 2.5-2.5 0-1.9-1.9-2.6-3.8-3.5-2.8-1.4-5.8-2.8-5.8-7 0-3.7 2.6-6.3 6.6-6.3h.6c2.9 0 4.5 1.2 5.6 2.9.3.5.7 1.1.7 1.3 0 .1-.1.2-.2.3l-2.8 1.4c-.1 0-.3.2-.4.2-.1 0-.2-.1-.3-.3-.7-1.5-1.5-2-2.5-2h-.6c-1.3 0-2.5 1.2-2.5 2.5 0 1.8 2.1 2.3 4.1 3.3 2.6 1.2 5.5 2.9 5.5 7.2-.2 3.7-2.7 6.3-6.7 6.3z"/></g></svg>