<svg xmlns="http://www.w3.org/2000/svg" viewBox="0 0 319.5 64.2" enable-background="new 0 0 319.5 64.2"><path fill="#fff" d="M49.1 24.3c-5 0-9.6-1.5-12.7-4.3-2.3-2.1-3.5-5-3.5-7.9 0-2.9 1.2-5.8 3.5-7.9C39.2 1.7 44.3 0 49.1 0c5.3 0 9.5 1.3 12.7 4.3 2.3 2.1 3.4 4.9 3.4 7.9 0 2.8-1.2 5.8-3.4 7.9-3 2.7-7.7 4.2-12.7 4.2v-3.2c2.7 0 5.1-.9 6.8-2.6 1.7-1.7 2.5-3.8 2.5-6.3s-.8-4.7-2.5-6.3c-1.7-1.7-4.2-2.6-6.8-2.6-2.6 0-5.1.9-6.8 2.6-1.6 1.6-2.5 3.9-2.5 6.3s.9 4.7 2.5 6.3c1.7 1.7 4.2 2.6 6.8 2.6v3.2zM12.6 0C9.9 0 6.9.5 4.3 1.7 2 2.7 0 4.5 0 7.3c0 2.6 1.6 4.1 1.6 4 .7.6 1.8 1.7 4.7 2.4 1.3.3 4.1.7 6.9 1 2.8.3 5.5.6 6.6.8.9.2 2.3.6 2.3 2.2s-1.5 2.2-1.8 2.2c-.3.1-2.1 1-5.5 1-2.5 0-5.4-.7-6.5-1.1-1.2-.5-2.6-1-3.8-2.6-.3-.3-.8-1.4-.8-2.4h-3v8.5H4v-1.2c0-.1.2-.6.7-.4.7.3 2.8 1.1 4.9 1.6 1.8.4 2.9.6 5.1.6 3.6 0 5.5-.6 6.8-.9 1.3-.4 2.8-1 4.1-2 .7-.5 2.2-1.9 2.2-4.5 0-2.4-1.3-3.9-1.7-4.4-.6-.6-1.4-1.1-2.2-1.5-.7-.3-1.8-.7-2.7-.9-1.7-.4-5.6-1-7.5-1.2-2-.2-5.4-.5-6.7-.9-.4 0-1.2-.4-1.2-1.3 0-.7.4-1.3 1.1-1.8 1.2-.7 3.7-1.2 6.2-1.2 3 0 5.5.6 7.2 1.4.5.3 1.2.6 1.7 1 .6.5 1.4 1.5 1.7 2.8h2.7V1.1h-3V2c0 .3-.3.6-.8.3-1.4-.7-5.3-2.2-10-2.3zm56 1.4v2.7h2.3c1.7 0 1.8.9 1.8 1.8v12.6c0 .8 0 1.8-1 1.8h-2.9V23h12.4v-2.7h-3c-1.2 0-1.3-.5-1.3-1.7V7.7L94 23h4.3l-.2-17.3c0-1.2.1-1.7 1.4-1.7h2.7V1.4H89.5v2.7h2.8c1.3 0 1.5.5 1.5 1.7l.2 9L79.1 1.4H68.6zM114 20.2V23h14.8v-2.7h-3.5c-.3-.1-.5-.3-.6-.5l-.1-.6V15l.1-.4c.2-.2 7.9-8.9 8.2-9.3.7-.8 1.1-1 2.1-1h2.7V1.4h-12.2v2.7h1.8c.5 0 .7.6.4.8l-5.2 6.1h-.1l-5-6c-.4-.4-.1-.8.3-.8h1.8V1.4h-14.9v2.7h2.6c1.2 0 1.9.7 2.3 1.2.4.4 7.9 9 8.1 9.2.2.2.2.3.2.4v4.8c-.1.2-.3.4-.6.5H114zM316.4 15.3c-.5 1.7-2.2 3.6-3.8 4.3-1.5.7-3.4 1.5-6.5 1.4h-.7c-.5 0-1-.1-1.5-.2-1.8-.4-3.4-1.2-4.7-2.4-1.6-1.6-2.5-3.9-2.5-6.3 0-2.5.9-4.7 2.5-6.3 1.7-1.6 4.1-2.5 6.6-2.5h.5c2.8 0 4.4.4 6.6 1.5 1.3.7 3.2 2.6 3.6 4.6h2.9v-8h-3v.9c0 .1-.1.3-.2.4-.1.1-.3.1-.6 0-1.3-.7-4.8-2.5-9.5-2.5h-.5c-4.6.1-9.4 1.8-12.1 4.2-.6.6-1.2 1.3-1.7 2-1.2 1.8-1.7 3.8-1.7 5.9v.6c.2 2.7 1.3 5.3 3.4 7.2 2.6 2.3 6.3 3.8 10.3 4.2 3.9.4 7.9-.2 10.6-1.8 2.7-1.5 4.6-4.1 5.2-6.9v-.2h-3.2zM180.6 1.4l-6.4 14.1-6.4-14.1H154v2.7h2.4c1.7 0 1.8.9 1.8 1.8v12.6c0 .8.1 1.8-1 1.8h-2.9V23H166v-2.7h-2.3c-1.2 0-1.3-.5-1.3-1.7V4.9h.1l8.2 18.2h4.6l8.1-18.2h.1l.1 13.7c0 1.2-.1 1.7-1.3 1.7H180V23h14.2v-2.7h-2.9c-1.1 0-1-1-1-1.8L190 5.9c0-.8.1-1.8 1.8-1.8h2.4V1.4H180.6zm39 2.7h2.5c1.2 0 1.5.5 1.5 1.5v10.9c0 2.5-.9 5.3-7.8 5.3-6.5 0-6.2-4.5-6.2-5.2v-11c0-1.1.2-1.5 1.4-1.5h2.6V1.4h-15.3v2.7h2.6c1.3 0 1.5.5 1.5 1.7v10.4c0 6.9 7.2 8.1 13.3 8.1 6.3 0 12.3-1.3 12.3-7.9V5.2c.1-.8.3-1.1 1.3-1.1h2.7V1.4h-12.5v2.7zm62.3 16.1c-.3-.1-.5-.3-.6-.5l-.1-.6V5.2l.1-.6c.1-.2.3-.4.6-.5h3.5V1.4h-15v2.7H273.8c.3.1.5.3.6.5l.1.6-.1 13.9v.6c-.1.2-.3.4-.6.5H270.4V23h15.1v-2.7h-2.8l-.8-.1zm-19.1-7.9c-.6-.6-1.4-1.1-2.2-1.5-.7-.3-1.7-.6-2.6-.8-1.7-.4-5.7-1-7.6-1.2-1.9-.2-5.4-.6-6.7-1-.4-.1-1.3-.7-1.3-1.6 0-.7.4-1.3 1.1-1.8 1.2-.7 3.7-1.2 6.2-1.2 3 0 5.6.6 7.2 1.4.6.3 1.2.6 1.7 1 .6.5 1.4 1.5 1.7 2.8h2.7V1.1h-3V2c0 .3-.3.6-.8.3-1.4-.7-5.2-2.2-9.9-2.3-2.7 0-5.7.5-8.3 1.7-2.4 1-4.3 2.8-4.3 5.6 0 2.6 1.6 4 1.6 4 .7.6 1.8 1.7 4.7 2.3 1.3.3 4.1.7 6.9 1 2.7.3 5.4.7 6.5.9.9.2 2.3.6 2.3 2.2s-1.5 2.2-1.8 2.2c-.3.1-2.1 1-5.5 1-2.5 0-5.4-.7-6.5-1.1-1.3-.5-2.6-1-3.8-2.6-.3-.3-.8-1.4-.8-2.4h-3.1v8.5h3.4v-1.2c0-.1.2-.6.7-.4.7.3 2.8 1.1 4.9 1.6 1.8.4 2.9.6 5.1.6 3.6 0 5.5-.6 6.9-.9 1.3-.4 2.8-1 4.1-2 .7-.5 2.2-1.9 2.2-4.5.1-2.3-1.2-3.7-1.7-4.2z"/><g fill="#fff"><path d="M17.1 40.4h3v3c1.2-2.4 3.6-3.5 6.2-3.5 3 0 5.7 1.3 7.5 3.5l.6.9c.1-.3.3-.6.5-.9 1.6-2.2 4.6-3.5 7.4-3.5 2.5 0 4.9 1.2 7.2 3.5 1.9 1.8 2.2 4.2 2.2 7v13.3h-3.2v-13c0-1.7-.1-3.6-1.2-5-1.2-1.8-3.1-2.8-5.2-2.8-2 0-4 1-5.2 2.6-1 1.4-1 3.4-1 5.1v13h-3.1V50.4c0-1.8-.1-3.1-1.1-4.6-1.2-1.7-3.1-2.8-5.2-2.8-2 0-3.9.8-5.1 2.5-1.1 1.5-1.1 3.2-1.1 5v13.3h-3.1V40.4zM80.3 63.7h-3v-4.4c-1.8 3.3-5.3 4.9-9 4.9-3.5 0-7.3-1.5-10.2-4.9-.9-.9-2.3-3.9-2.3-7.4 0-3.1 1.6-6.3 2.4-7.1 3.5-3.8 6.8-4.9 10-4.9 3.7 0 7.3 1.6 9.1 4.9v-4.4h3v23.3zM58.9 52.1c0 5.1 4.4 9.1 9.4 9.1 4.8 0 9-4.2 9-9 0-5.1-3.9-9.3-9.1-9.3-5.1 0-9.3 4.1-9.3 9.2zM86.6 32.3h3.1v22l10.7-13.9h4l-9 11.7 9.6 11.6h-4l-7.6-9.2-3.7 4.7v4.5h-3.1V32.3zM108.9 53.2c.2 4.4 4.5 8.1 8.8 8.1 3.4 0 6.9-1.9 8.3-5.1h3.3c-1.6 4.7-6.4 8.1-11.3 8.1-6.8 0-12.2-5.4-12.2-12.1 0-6.8 5.3-12.2 12.1-12.2 3.6 0 7 1.7 9.3 4.5 2.1 2.7 2.6 5.4 2.7 8.8h-21zm17.9-2.9c-.8-4.1-4.5-7.4-8.9-7.4s-8.3 3.1-9 7.4h17.9z"/></g><g fill="#fff"><path d="M154.2 32.3h3.1v12.5c1.5-3.2 5.4-4.8 8.8-4.8 6.7 0 12.6 5.2 12.6 12 0 3.3-1.5 6.3-2.8 7.7-3.2 3.7-6.1 4.6-9.5 4.6-3.4 0-7.4-1.5-9.3-4.6v4h-3V32.3zm5.4 13.4c-1.9 1.9-2.5 4-2.5 6.5 0 5.2 4.2 9 9.3 9 5 0 9.1-4.2 9.1-9.2 0-5.3-4.2-9.1-9.4-9.1-2.4 0-4.8 1-6.5 2.8zM185.6 53.2c.2 4.4 4.5 8.1 8.8 8.1 3.4 0 6.9-1.9 8.3-5.1h3.3c-1.6 4.7-6.4 8.1-11.3 8.1-6.8 0-12.2-5.4-12.2-12.1 0-6.8 5.3-12.2 12.1-12.2 3.7 0 7 1.7 9.4 4.5 2.2 2.7 2.6 5.4 2.7 8.8h-21.1zm17.8-2.9c-.8-4.1-4.6-7.4-8.9-7.4-4.4 0-8.3 3.1-9 7.4h17.9zM211.8 32.3h3.1v31.4h-3.1V32.3zM221 32.3h3.1v5.4H221v-5.4zm0 8.1h3.1v23.3H221V40.4zM232.4 53.2c.2 4.4 4.5 8.1 8.8 8.1 3.4 0 6.9-1.9 8.3-5.1h3.3c-1.6 4.7-6.4 8.1-11.3 8.1-6.8 0-12.2-5.4-12.2-12.1 0-6.8 5.3-12.2 12.1-12.2 3.6 0 7 1.7 9.4 4.5 2.1 2.7 2.6 5.4 2.7 8.8h-21.1zm18-2.9c-.8-4.1-4.6-7.4-8.9-7.4-4.4 0-8.3 3.1-9 7.4h17.9zM254.5 40.4h3.4l8 19.3 8.1-19.3h3.4l-9.8 23.3h-3.3l-9.8-23.3zM281.5 53.2c.2 4.4 4.5 8.1 8.8 8.1 3.4 0 6.9-1.9 8.3-5.1h3.3c-1.6 4.7-6.4 8.1-11.3 8.1-6.8 0-12.2-5.4-12.2-12.1 0-6.8 5.3-12.2 12.1-12.2 3.6 0 7 1.7 9.3 4.5 2.2 2.7 2.7 5.4 2.7 8.8h-21zm17.8-2.9c-.8-4.1-4.6-7.4-8.9-7.4-4.4 0-8.3 3.1-9 7.4h17.9z"/></g><path fill="#fff" d="M145.7 59.5c0 2.5-2 4.5-4.5 4.5s-4.5-2-4.5-4.5 2-4.5 4.5-4.5c2.5-.1 4.5 1.9 4.5 4.5z"/></svg>