<svg xmlns="http://www.w3.org/2000/svg" viewBox="0 0 400 30.4" enable-background="new 0 0 400 30.4"><g fill="#fff"><path d="M13 11.5l-.8 6.8h3v2.1h-3.4L10.6 30H8.3l1.2-9.6H5.3L4.1 30H1.8L3 20.5H0v-2.1h3.3l.9-6.8h-3V9.4h3.3L5.7.3H8L6.7 9.4H11L12.2.3h2.3l-1.2 9.1h3v2.1H13zm-6.6 0l-.9 6.8h4.3l.9-6.8H6.4zM25.8 30.1V.3h1.7v28.2h7.9V30h-9.6zM52.5 28.9c-.9 1-2.3 1.5-4 1.5-1.6 0-3.1-.5-4-1.5-1.8-1.8-2.1-3.5-2.1-13.7 0-10.3.3-11.9 2.1-13.7.9-1 2.3-1.5 4-1.5 1.6 0 3 .5 4 1.5 1.8 1.8 2.1 3.5 2.1 13.7 0 10.3-.3 12-2.1 13.7zM51.4 2.5c-.6-.7-1.6-1.1-2.8-1.1-1.2 0-2.2.4-2.8 1.1-1.3 1.5-1.6 2.8-1.6 12.7 0 9.9.2 11.2 1.6 12.7.6.7 1.6 1.1 2.8 1.1 1.2 0 2.2-.4 2.8-1.1 1.3-1.5 1.6-2.8 1.6-12.7 0-9.9-.3-11.2-1.6-12.7zM69.4 30.1h-1.6L61.5.3h1.8l5.2 26.3L73.7.3h1.8l-6.1 29.8zM83 30.1V.3h9.6v1.5h-7.9v12.6h6.9V16h-6.9v12.6h7.9v1.5H83zM112.7 28.8c-1.2 1.1-2.6 1.6-4.6 1.6-2.4 0-4-.9-5.1-2.1-2-2.3-2.2-5.6-2.2-13.1 0-7.4.1-10.8 2.2-13.1 1.1-1.3 2.7-2.1 5.1-2.1 2 0 3.5.6 4.7 1.8 1.4 1.3 2.1 3.5 2.1 5.9h-3.6c0-1.3-.3-2.6-.9-3.4-.5-.6-1.2-1-2.3-1-1.2 0-1.9.5-2.4 1.1-1 1.4-1.2 3.8-1.2 10.9 0 7.1.2 9.4 1.2 10.9.5.7 1.3 1.1 2.4 1.1 1.1 0 1.8-.5 2.3-1.1.7-.8 1-2.1 1-3.4h3.6c0 2.4-.8 4.6-2.3 6zM123.4 30.1V.3h3.6V30h-3.6zM147.8 30.1l-7.7-20.3v20.3h-3.6V.3h3.3l7.6 20.3V.3h3.6V30h-3.2zM167.4 3.6v26.5h-3.6V3.6h-5V.3h13.6v3.2h-5zM189.3 30.1l-1.4-7H181l-1.4 7h-3.8L182.7.4h3.5l6.9 29.7h-3.8zm-4.8-24l-2.8 13.7h5.6l-2.8-13.7zM215.2 30.1V14.6L212 24.8h-3.1l-3.2-10.2v15.5h-5.9V.3h5.2l5.4 14.6L215.8.3h5.3V30h-5.9zM242.8 30.1l-1-4.6H235l-1 4.6h-6.2L235.4.4h5.9l7.6 29.7h-6.1zm-4.4-21l-2.3 11h4.6l-2.3-11zM266.6 30.1V17.6h-4.9V30h-5.9V.3h5.9v11.9h4.9V.3h5.9V30h-5.9zM294.2 30.1l-1-4.6h-6.9l-1 4.6h-6.2L286.7.4h5.9l7.6 29.7h-6zm-4.4-21l-2.3 11h4.6l-2.3-11zM321.8 28.1c-1.3 1.3-3.2 2-6.2 2H307V.3h8.6c3 0 4.9.7 6.2 1.9 1.4 1.4 2 3.5 2 6.4 0 1.9-.2 3.5-1.4 4.8-.4.4-.8.7-1.4 1 .5.3 1 .7 1.3 1.1 1.4 1.5 1.5 3.8 1.5 5.4 0 3.2-.5 5.7-2 7.2zm-7-22.4H313V12h1.8c2.3 0 3.1-1 3.1-3.2s-.7-3.1-3.1-3.1zm.1 11.3H313v7.7h1.9c2.4 0 3-1.1 3-3.8 0-2.7-.7-3.9-3-3.9zM347 28.1c-1.3 1.3-3.2 2-6.2 2h-8.6V.3h8.6c3 0 4.9.7 6.2 1.9 1.4 1.4 2 3.5 2 6.4 0 1.9-.2 3.5-1.4 4.8-.4.4-.8.7-1.4 1 .6.3 1 .7 1.3 1.1 1.4 1.5 1.5 3.8 1.5 5.4 0 3.2-.5 5.7-2 7.2zm-7-22.4h-1.8V12h1.8c2.3 0 3.1-1 3.1-3.2s-.8-3.1-3.1-3.1zm0 11.3h-1.9v7.7h1.9c2.4 0 3-1.1 3-3.8.1-2.7-.7-3.9-3-3.9zM370.3 30.1l-1-4.6h-6.8l-1 4.6h-6.2L363 .3h5.9l7.6 29.7h-6.2zm-4.4-21l-2.3 11h4.6l-2.3-11zM394.1 30.1V17.6h-4.9V30h-5.9V.3h5.9v11.9h4.9V.3h5.9V30h-5.9z"/></g></svg>