<?xml version="1.0" encoding="utf-8"?>
<!-- Generator: Adobe Illustrator 17.1.0, SVG Export Plug-In . SVG Version: 6.00 Build 0)  -->
<!DOCTYPE svg PUBLIC "-//W3C//DTD SVG 1.1//EN" "http://www.w3.org/Graphics/SVG/1.1/DTD/svg11.dtd">
<svg version="1.1" id="Layer_1" xmlns="http://www.w3.org/2000/svg" xmlns:xlink="http://www.w3.org/1999/xlink" x="0px" y="0px"
	 viewBox="0 99.5 960 360" enable-background="new 0 99.5 960 360" xml:space="preserve">
<g>
	<path fill="#FFFFFF" d="M960,264.9v3.6l-0.5,3.8l-0.5,3.6l-1,3.8l-1.4,3.6l-1.4,3.6l-1.9,3.4l-1.9,3.1c-1.7,2.2-3.4,4.1-4.8,6
		c-1.7,1.7-3.4,3.4-5.5,5.3c-1.9,1.7-3.8,3.1-5.8,4.6s-4.1,2.9-6,4.1c-3.8,2.4-8.2,4.6-12.7,6.7c-2.2,1-4.3,1.9-6.5,2.9
		c-2.2,1-4.3,1.9-6.5,2.6c-4.3,1.9-8.9,3.6-13.2,5c-4.6,1.4-8.9,2.9-13.4,4.1c-20.4,5.8-42.7,10.8-66.7,15.1s-49.2,8.2-75.4,11.5
		c-26.2,3.4-53.3,6.5-80.9,9.4c-27.8,2.6-55.7,5.5-83.8,8.2c-28.1,2.6-55.7,5.5-83.3,8.4c-27.6,2.9-54,6.2-79.9,9.6
		c-25.7,3.6-50.2,7.7-73.4,12.2c-23.3,4.6-44.6,9.8-64.1,15.8c-2.2,0.7-4.3,1.2-6.5,1.7c-2.2,0.5-4.3,1-6.2,1.7l-3.1,0.7l-3.1,1
		l-6.2,1.7c-2.2,0.5-4.3,1.2-6.5,1.9c-2.2,0.7-4.1,1.4-6.2,1.9s-4.1,1.2-6.2,1.9c-1.9,0.7-4.1,1.4-6.2,1.9c-2.2,0.7-4.1,1.4-6.2,2.2
		c-1.9,0.7-4.1,1.4-6,2.2l-2.9,1l-2.9,1l-3.1,1l-2.9,1.2c-1.9,0.7-3.8,1.4-5.8,2.2c-1.9,0.7-3.8,1.4-5.5,2.4
		c-3.8,1.7-7.4,3.1-11,4.6l-5.3,2.6c-0.7-13.7-3.8-26.6-9.4-38.6s-12.7-22.3-21.6-31.2s-19.2-16.1-31.2-21.1
		c-11.8-5-24.2-7.7-37.7-7.7c-7.4,0-14.6,0.7-21.6,2.4s-13.7,4.1-19.9,7l5.3-4.3l5.3-3.8c3.6-2.6,7.4-5,11.3-7.2
		c3.6-2.2,7.2-4.1,10.6-5.8c3.4-1.7,6.7-3.1,10.1-4.6c3.4-1.2,6.5-2.4,9.6-3.6c3.1-1.2,6.2-2.2,9.1-3.1c3.1-1,6-1.7,8.9-2.6
		c2.9-0.7,5.8-1.4,8.6-2.2s5.8-1.2,8.4-1.9c2.6-0.5,5.5-1,8.2-1.7c2.6-0.5,5.5-1,8.2-1.4c2.6-0.5,5.3-0.7,7.9-1.2
		c2.6-0.2,5.3-0.7,7.7-1c2.6-0.2,5-0.7,7.9-1c5.3-0.7,10.3-1.2,15.4-1.4l3.8-0.2l3.8-0.5l3.8-0.2l3.6-0.2c2.6-0.2,5-0.5,7.4-0.5
		c2.4,0,4.8-0.2,7.2-0.5c2.6-0.2,5-0.2,7.4-0.2c2.4,0,4.8-0.2,7.2-0.2l14.6-0.5h7.2l7.2-0.2c2.4,0,4.8,0,7.2,0c2.4,0,4.8,0,7.2,0
		c2.4,0,9.1,0,20.4,0c11.3,0,26.6,0,46.3,0.2c19.7,0,43.2,0.2,70.6,0.5c27.6,0.2,58.6,0.5,93.4,0.7c34.8,0.2,73.2,0.7,115,1.2
		c41.8,0.5,86.9,1.2,135.1,1.9c9.1-0.2,18.2-0.5,27.4-0.7c9.1-0.2,18.2-0.5,27.4-1c9.1-0.2,18-1,27.1-1.7c4.6-0.2,8.9-0.5,13.4-1
		c4.6-0.5,9.1-1,13.4-1.4c4.3-0.5,8.9-1,13.2-1.7c4.6-0.5,8.9-1.2,13.2-2.2c4.3-0.7,8.6-1.7,13.2-2.4c4.3-1,8.6-1.9,13-3.1
		c2.2-0.5,4.3-1.2,6.5-1.9c2.2-0.7,4.1-1.2,6.2-1.9c1.9-0.7,3.8-1.7,6-2.4c1.9-0.7,4.1-1.7,6-2.6c4.1-2.2,7.7-4.3,10.8-6.5l4.8-3.8
		l4.3-4.6l3.6-4.8c1-1.7,1.9-3.6,2.6-5.5l1-2.9v-0.5v-0.2l0.2-0.2v-0.2v-0.2l0.2-0.7l0.2-1l0.5-2.9l0.2-3.1c0.2-4.3,0-8.4-1.2-12.2
		l-1-2.9l-1.4-2.6l-1.9-2.4l-1.9-2.2l-2.4-1.7l-2.6-1.7c-1.7-0.7-3.6-1.4-5.8-1.7l-3.1-0.5h-3.1c-1.9,0-4.1,0.5-6,1.4
		c-4.1,1.4-7.4,3.6-10.3,6.7l-1,1.2l-1,1.2l-1,1.4l-0.7,1.2l-0.7,1.4l-0.7,1.4l-0.7,1.7v0.2v0.5l-0.2,0.2l-0.2,0.2l-3.4,1.4
		l-1.2-1.2v-1.9l0.2-0.5l0.2-0.2l0.2-1l0.2-0.7l0.2-0.7l1-1.7l1-1.7l1-1.7l1-1.4l1.2-1.7l1.2-1.4c3.1-3.6,7.4-6.2,12.2-8.2l3.4-1.2
		l3.6-0.7c2.6-0.2,5-0.2,7.7,0c2.4,0.2,4.8,1,7.2,1.9l3.6,1.7l3.1,2.2c2.2,1.7,3.8,3.6,5.3,5.5l1.9,3.1l1.7,3.6
		c1,2.4,1.7,4.8,2.2,7.2C959.8,259.6,960,262.2,960,264.9z"/>
	<path fill="#FFFFFF" d="M960,264.9v3.6l-0.5,3.8l-0.5,3.6l-1,3.8l-1.4,3.6l-1.4,3.6l-1.9,3.4l-1.9,3.1c-1.7,2.2-3.4,4.1-4.8,6
		c-1.7,1.7-3.4,3.4-5.5,5.3c-1.9,1.7-3.8,3.1-5.8,4.6s-4.1,2.9-6,4.1c-3.8,2.4-8.2,4.6-12.7,6.7c-2.2,1-4.3,1.9-6.5,2.9
		c-2.2,1-4.3,1.9-6.5,2.6c-4.3,1.9-8.9,3.6-13.2,5c-4.6,1.4-8.9,2.9-13.4,4.1c-20.4,5.8-42.7,10.8-66.7,15.1s-49.2,8.2-75.4,11.5
		c-26.2,3.4-53.3,6.5-80.9,9.4c-27.8,2.6-55.7,5.5-83.8,8.2c-28.1,2.6-55.7,5.5-83.3,8.4c-27.6,2.9-54,6.2-79.9,9.6
		c-25.7,3.6-50.2,7.7-73.4,12.2c-23.3,4.6-44.6,9.8-64.1,15.8c-2.2,0.7-4.3,1.2-6.5,1.7c-2.2,0.5-4.3,1-6.2,1.7l-3.1,0.7l-3.1,1
		l-6.2,1.7c-2.2,0.5-4.3,1.2-6.5,1.9c-2.2,0.7-4.1,1.4-6.2,1.9s-4.1,1.2-6.2,1.9c-1.9,0.7-4.1,1.4-6.2,1.9c-2.2,0.7-4.1,1.4-6.2,2.2
		c-1.9,0.7-4.1,1.4-6,2.2l-2.9,1l-2.9,1l-3.1,1l-2.9,1.2c-1.9,0.7-3.8,1.4-5.8,2.2c-1.9,0.7-3.8,1.4-5.5,2.4
		c-3.8,1.7-7.4,3.1-11,4.6l-5.3,2.6c-0.7-13.7-3.8-26.6-9.4-38.6s-12.7-22.3-21.6-31.2s-19.2-16.1-31.2-21.1
		c-11.8-5-24.2-7.7-37.7-7.7c-7.4,0-14.6,0.7-21.6,2.4s-13.7,4.1-19.9,7l5.3-4.3l5.3-3.8c3.6-2.6,7.4-5,11.3-7.2
		c3.6-2.2,7.2-4.1,10.6-5.8c3.4-1.7,6.7-3.1,10.1-4.6c3.4-1.2,6.5-2.4,9.6-3.6c3.1-1.2,6.2-2.2,9.1-3.1c3.1-1,6-1.7,8.9-2.6
		c2.9-0.7,5.8-1.4,8.6-2.2s5.8-1.2,8.4-1.9c2.6-0.5,5.5-1,8.2-1.7c2.6-0.5,5.5-1,8.2-1.4c2.6-0.5,5.3-0.7,7.9-1.2
		c2.6-0.2,5.3-0.7,7.7-1c2.6-0.2,5-0.7,7.9-1c5.3-0.7,10.3-1.2,15.4-1.4l3.8-0.2l3.8-0.5l3.8-0.2l3.6-0.2c2.6-0.2,5-0.5,7.4-0.5
		c2.4,0,4.8-0.2,7.2-0.5c2.6-0.2,5-0.2,7.4-0.2c2.4,0,4.8-0.2,7.2-0.2l14.6-0.5h7.2l7.2-0.2c2.4,0,4.8,0,7.2,0c2.4,0,4.8,0,7.2,0
		c2.4,0,9.1,0,20.4,0c11.3,0,26.6,0,46.3,0.2c19.7,0,43.2,0.2,70.6,0.5c27.6,0.2,58.6,0.5,93.4,0.7c34.8,0.2,73.2,0.7,115,1.2
		c41.8,0.5,86.9,1.2,135.1,1.9c9.1-0.2,18.2-0.5,27.4-0.7c9.1-0.2,18.2-0.5,27.4-1c9.1-0.2,18-1,27.1-1.7c4.6-0.2,8.9-0.5,13.4-1
		c4.6-0.5,9.1-1,13.4-1.4c4.3-0.5,8.9-1,13.2-1.7c4.6-0.5,8.9-1.2,13.2-2.2c4.3-0.7,8.6-1.7,13.2-2.4c4.3-1,8.6-1.9,13-3.1
		c2.2-0.5,4.3-1.2,6.5-1.9c2.2-0.7,4.1-1.2,6.2-1.9c1.9-0.7,3.8-1.7,6-2.4c1.9-0.7,4.1-1.7,6-2.6c4.1-2.2,7.7-4.3,10.8-6.5l4.8-3.8
		l4.3-4.6l3.6-4.8c1-1.7,1.9-3.6,2.6-5.5l1-2.9v-0.5v-0.2l0.2-0.2v-0.2v-0.2l0.2-0.7l0.2-1l0.5-2.9l0.2-3.1c0.2-4.3,0-8.4-1.2-12.2
		l-1-2.9l-1.4-2.6l-1.9-2.4l-1.9-2.2l-2.4-1.7l-2.6-1.7c-1.7-0.7-3.6-1.4-5.8-1.7l-3.1-0.5h-3.1c-1.9,0-4.1,0.5-6,1.4
		c-4.1,1.4-7.4,3.6-10.3,6.7l-1,1.2l-1,1.2l-1,1.4l-0.7,1.2l-0.7,1.4l-0.7,1.4l-0.7,1.7v0.2v0.5l-0.2,0.2l-0.2,0.2l-3.4,1.4
		l-1.2-1.2v-1.9l0.2-0.5l0.2-0.2l0.2-1l0.2-0.7l0.2-0.7l1-1.7l1-1.7l1-1.7l1-1.4l1.2-1.7l1.2-1.4c3.1-3.6,7.4-6.2,12.2-8.2l3.4-1.2
		l3.6-0.7c2.6-0.2,5-0.2,7.7,0c2.4,0.2,4.8,1,7.2,1.9l3.6,1.7l3.1,2.2c2.2,1.7,3.8,3.6,5.3,5.5l1.9,3.1l1.7,3.6
		c1,2.4,1.7,4.8,2.2,7.2C959.8,259.6,960,262.2,960,264.9z"/>
	<path fill="#FFFFFF" d="M206.2,260.1c-15.1,16.3-29,24.5-41.5,24.5c-7.7,0-13.4-3.6-17.3-11c-4.1-7.4-6-17-6-29.3
		c0-9.6,1.9-22.6,5.8-39.1c3.8-16.6,8.9-30.5,15.1-41.8l5.8-10.6c-7.9,8.4-14.6,17.5-19.7,27.6c-5,10.1-11.3,24-18.5,41.8
		c-7.2,18-12.5,30.2-16.3,36.7c-3.6,6.5-7.2,11.8-10.6,15.8c-3.4,4.1-6.2,6.7-8.9,7.9c-2.6,1.2-7.2,1.7-13.7,1.7
		c-2.4,0-3.8-0.7-3.8-1.9c0-0.2,0.5-2.2,1.4-6.5c1-4.1,1.9-10.8,2.6-19.9c1-9.1,1.7-24.5,1.9-46.3c0.5-21.8,3.6-40.6,9.6-56.2
		c-6.5,7.2-13,24-19.4,50.6l-2.6,9.8c-7,27.6-14.9,46.1-24,55.7s-17.8,14.4-26.6,14.4c-5.3,0-10.1-1.7-14.2-5
		c-3.1-2.9-5.3-6.7-5.3-11c0-3.4,2.4-7.2,7.4-11.3c4.8-4.1,7.9-6.2,9.1-6.2l2.9,1.4c0.5,1,1,3.8,1.9,8.4c0.7,4.6,1.9,7.7,3.4,8.9
		c1.4,1.4,3.4,2.2,5.8,2.2c5.3,0,11-5.3,17.3-15.8C54,245,59.8,228.9,65,207l2.9-12.2c2.4-10.1,4.8-18,7-24c2.4-6,5.3-12,9.1-18
		c5.5-8.4,8.9-13,10.1-13.7c1.2-0.5,3.6-1,7-1.4c3.4-0.5,7-0.5,10.3-0.5l1.9,2.4c0,0.7-0.2,2.4-0.7,4.6c-1.4,9.4-1.9,19-1.9,28.6
		l0.2,27.1c0.2,23.5-1.7,42.7-5.8,57.4c3.6-4.3,8.9-15.4,15.6-33.6c9.8-25.4,19-44.6,26.9-57.4c3.8-6.2,8.4-12,13.9-17.8
		c5.5-5.5,9.1-8.6,11.3-9.1c7.2-1.4,13.2-1.9,18.2-1.9l2.6,1.4c0,1.4-1.2,4.6-3.4,9.6c-5.3,12-10.1,28.1-14.6,48.2
		c-4.6,20.4-7,36.5-7,48.5c0,13.7,4.1,20.4,12.5,20.4c6.7,0,14.9-5.8,24.2-17.3L206.2,260.1z"/>
	<path fill="#FFFFFF" d="M314.6,260.1c-8.9,8.4-16.3,14.6-22.3,18.7c-6,4.1-11.5,6-16.3,6c-5.3,0-9.4-2.2-12.2-6.5
		c-2.9-4.3-4.3-10.1-4.3-17.3c-7.4,8.2-14.2,14.2-19.9,18.2c-5.8,3.8-11.5,5.8-17.3,5.8c-5,0-9.4-2.2-12.5-6.5
		c-3.1-4.3-4.6-10.1-4.8-17.3c0-14.2,4.8-33.8,14.2-59.5l27.1-5.5c-11,32.4-16.8,53.3-16.8,62.4c0,6.5,2.4,9.8,7.2,9.8
		c3.6,0,7.9-2.9,13.2-8.6c5.3-5.8,8.4-10.8,9.8-14.9l13.2-43.2l27.6-5.5c-6.5,20.4-10.8,34.8-13.2,43c-2.4,8.4-3.6,14.2-3.6,17.3
		c0,6.2,2.2,9.6,6.5,9.6c3.6,0,8.6-3.1,15.6-9.6l8.6-7.9v11.5H314.6z"/>
	<path fill="#FFFFFF" d="M414,260.1c-16.1,16.6-29.3,25-39.6,25c-4.6,0-8.4-1.7-11.5-4.8c-2.9-3.1-4.6-7.2-4.6-12
		c0-8.2,3.1-19.4,9.4-34.3c3.4-7.9,5-13.2,5-15.6c0-2.9-1.4-4.1-3.8-4.1c-2.6,0-6.7,1.9-11.8,5.5c-5,3.6-10.6,8.6-16.3,15.1
		c-2.4,12.5-3.6,27.4-3.6,44.9l-22.6,5.3c-1-7.2-1.2-14.9-1.4-23.3c0-20.2,2.9-38.9,8.4-56.4c5.5-17.3,14.2-35.8,26.2-55.4
		c8.9-3.6,16.6-6.5,23.3-8.9c6.5-2.2,10.3-3.4,11.3-3.4c1.7,0,3.4,1.4,4.6,4.3s1.9,6.5,1.9,10.8c0,7.2-2.2,15.1-6.5,23.8
		S371,195.8,361.7,208c9.1-5.3,14.9-8.4,18-9.8c2.9-1.4,6-2.2,9.1-1.9c3.4,0,6.2,1.2,8.4,3.6c2.2,2.4,3.1,5.8,3.1,9.8
		c0,6-2.4,15.6-7.2,28.3c-4.8,12.7-7.2,20.9-7.2,24l1.4,3.8l3.1,1.7c4.3,0,12.2-6.5,24-19.7v12.2H414z M343.7,218.6
		c24.2-28.1,36.2-48.7,36.2-62.2c0-4.1-1.2-6-3.4-6c-3.6,0-9.1,6.7-15.8,19.9C353.8,183.8,348.2,199.8,343.7,218.6z"/>
	<path fill="#FFFFFF" d="M463.9,260.1c-15.8,16.6-27.6,25-35.5,25c-4.3,0-7.9-2.2-11-6.7c-2.9-4.3-4.6-10.1-4.6-16.8
		c0-14.4,4.8-34.3,14.6-59.8l25.7-5.5h1.2l-10.1,31.7c-4.1,13.2-6.2,22.6-6.2,28.1c0,2.2,0.5,4.1,1.4,5.5l3.6,2.2
		c2.6,0,5.3-1,7.9-2.9c2.6-1.9,7-6.2,12.7-12.5L463.9,260.1z M462,156.9c0,16.3-6,24.5-18,24.5c-5.8,0-10.8-1.7-14.9-5.3
		c3.8-6,7-12.7,9.1-20.2c5.3,3.4,9.6,5,13,5C454.8,160.7,458.4,159.5,462,156.9z"/>
	<path fill="#FFFFFF" d="M555.1,260.1c-4.6,5-10.3,7.4-17,7.4c-5.3,0-10.8-2.4-16.8-7.4c-7.2,8.4-13.7,14.4-19.2,18.5
		c-5.5,4.1-11.8,6-18.2,6c-5.8,0-10.8-2.4-14.9-7.2c-4.1-4.8-6-11-6-18.2c0-14.2,4.1-33.1,12.5-57.1c8.2-24,16.3-42.2,24.2-54.5
		c8.9-2.9,16.8-5,23.5-7c6.7-1.7,10.8-2.6,11.8-2.6c1.9,0,3.6,1.2,5,3.8s2.2,5.8,2.2,9.4c0,7.7-3.1,16.6-9.4,26.6
		s-14.4,20.2-24.5,30.2l-13.2,13.2c-4.1,14.6-6.2,25.7-6.2,32.6c0,3.8,1,7,2.6,9.1c1.7,2.4,4.1,3.4,7,3.6c3.4,0,6.2-1,8.9-3.1
		c2.6-2.2,5.8-5.3,8.9-9.8c-3.4-5.8-5-11.8-5-17.8c0-9.8,2.6-19,7.9-27.1c5.3-8.4,11-12.5,17-12.5c2.4,0,4.3,1,5.8,3.1
		s2.4,4.8,2.4,8.4c0,11-6.2,26.2-18.7,45.6c3.6,4.6,7.9,7,12.7,7c3.1,0,5.5-0.7,7.7-2.2s5.3-4.6,9.1-9.6L555.1,260.1z M500.2,205.8
		c11-10.8,19.2-20.6,25-29.8c5.8-9.1,8.4-16.1,8.4-20.6c0-1.9-0.5-3.4-1.2-4.6l-3.1-1.9C521.3,149,511.4,167.9,500.2,205.8z"/>
	<path fill="#FFFFFF" d="M646.1,260.1c-4.6,5-10.3,7.4-17,7.4c-5.3,0-10.8-2.4-16.8-7.4c-7.2,8.4-13.7,14.4-19.2,18.5
		c-5.5,4.1-11.8,6-18.2,6c-6,0-10.8-2.4-14.9-7.2c-4.1-4.8-6-11-6-18.2c0-14.2,4.1-33.4,12.5-57.1c8.2-24,16.3-42.2,24.2-54.5
		c8.9-2.9,16.8-5,23.5-7c6.7-1.7,10.8-2.6,11.8-2.6c1.9,0,3.6,1.2,5,3.8c1.4,2.6,2.2,5.8,2.2,9.4c0,7.7-3.1,16.6-9.4,26.6
		c-6.2,10.1-14.4,20.4-24.5,30.2l-13.4,13.2c-4.1,14.9-6.2,25.7-6.2,32.6c0,3.8,1,7,2.6,9.4c1.7,2.4,4.1,3.4,7,3.4
		c3.4,0,6.2-1,8.9-3.1c2.6-2.2,5.8-5.3,8.9-9.6c-3.4-5.8-5-11.8-5-18c0-9.8,2.6-19,7.9-27.1c5.3-8.4,11-12.5,17-12.5
		c2.4,0,4.3,1,5.8,3.1s2.4,4.8,2.2,8.4c0,11-6.2,26.2-18.7,45.4c3.8,4.6,7.9,7,12.7,7c2.9,0,5.5-0.7,7.7-2.2
		c2.2-1.4,5.3-4.6,9.1-9.6L646.1,260.1z M591.1,205.8c11-10.8,19.2-20.6,25-29.8s8.4-16.1,8.4-20.6c0-1.9-0.5-3.4-1.2-4.6l-3.1-1.9
		C612.2,149,602.6,167.9,591.1,205.8z"/>
	<path fill="#FFFFFF" d="M754.3,260.1c-10.8,10.3-18.5,17-23.3,20.2c-4.6,3.1-9.1,4.6-13.4,4.6c-10.8,0-15.8-9.4-15.1-28.3
		c-6.7,9.6-13,16.8-18.7,21.4c-5.8,4.6-11.5,7-17.8,7c-6,0-11-2.9-15.1-8.4c-4.1-5.5-6.2-12.5-6.2-20.6c0-10.1,2.9-19.9,8.4-29
		c5.5-9.1,12.7-16.6,21.4-22.3s16.6-8.6,23.3-8.6c8.4,0,14.4,3.8,17.8,11.8l20.6-11.5h5.8l-8.9,29.8c-4.6,14.9-7,25.2-7,30.7
		c0,5.8,1.9,8.6,6.2,8.6c2.6,0,5.5-1.4,8.6-4.3c3.1-2.9,7.7-7,13.4-12.7L754.3,260.1z M680.2,265.8c6.7,0,13.2-5.8,19.2-17.3
		c6-11.5,8.9-22.3,8.9-31.9c0-3.8-1-6.7-2.6-8.9c-1.7-2.2-3.8-3.1-6.7-3.1c-6.7,0-13.2,5.8-19.2,17.3c-6,11.5-9.1,22.1-9.1,31.7
		c0,3.6,1,6.5,2.6,8.9C675.1,264.6,677.3,265.8,680.2,265.8z"/>
	<path fill="#FFFFFF" d="M804.2,260.1c-15.8,16.6-27.6,25-35.5,25c-4.3,0-7.9-2.2-11-6.7c-2.9-4.6-4.6-10.1-4.6-16.8
		c0-14.4,4.8-34.3,14.6-59.8l25.7-5.3h1.2l-9.8,31.9c-4.3,13.2-6.2,22.6-6.2,28.1c0,2.2,0.5,4.1,1.4,5.5l3.6,2.2
		c2.6,0,5.3-1,7.9-2.9c2.6-1.9,7-6,12.7-12.5L804.2,260.1z M802.3,156.9c0,16.3-6,24.2-18,24.2c-5.8,0-10.8-1.7-14.9-5.3
		c3.8-6,7-12.7,9.1-20.2c5.3,3.4,9.6,5,13,5C795.1,160.7,798.7,159.5,802.3,156.9z"/>
	<path fill="#FFFFFF" d="M904.8,254.3c-15.6,16.6-30,30.5-41,30.5c-4.6,0-8.2-1.7-11-4.8c-2.9-3.1-4.1-7.4-4.1-12.7
		c0-7.2,2.9-18.2,8.9-33.1c3.1-7.9,4.8-13,4.8-15.1s-0.7-3.4-2.6-3.4l-3.8,1.4c-1.4,1-3.1,2.4-5,4.1c-1.7,1.7-3.6,3.4-5.8,5.8
		c-1.9,1.9-3.8,4.1-6,6.5l-5.8,6.5c-2.4,3.1-4.1,6.2-4.6,9.6c-1,5.8-1.7,11-2.2,15.8c-0.2,3.6-0.2,8.4-0.2,14.6l-22.6,5.3
		c-0.7-9.1-1.2-15.8-1.2-20.4c0-10.8,1.2-21.1,3.8-31s6.7-20.6,12.2-32.9l24.7-4.8c-5.3,13.9-8.6,25-10.3,33.1
		c11-12.5,19.9-20.9,26.4-25.7c6.5-4.8,12.2-7.2,17.3-7.2c3.4,0,6.2,1.4,8.6,3.8c2.4,2.6,3.4,6,3.4,9.8c0,6.5-2.9,17-8.6,32.2
		c-4.1,10.1-6,16.8-6,19.9c0,4.1,1.7,6,5,6c5,0,13-6.5,24-19.7L904.8,254.3z"/>
	<path fill="#FFFFFF" d="M256.1,126.9c-4.6,0-9.6,0.2-15.6,0.7c-6.5,12.7-15.8,31.9-15.8,40.1c0,2.2,0.7,3.1,2.6,3.1
		c3.8,0,10.6-4.1,15.4-14.2l0.2-0.2l1,0.5l0.2,0.2c0,0-3.8,18.5-18,18.7c-3.4,0-8.9-1.9-8.9-10.1c0-9.6,5.8-25.4,10.6-37
		c-2.2,1-4.3,1-6,1c-6.5,0-10.8-3.6-10.8-7.7c0-2.6,1.7-4.8,5-6.7c1.9,0,2.9,1,2.9,1.4l-0.5,0.5l-1.4-0.5c-1.2,0-2.9,0.7-2.9,3.4
		c0,2.2,1.4,3.4,4.6,3.4c3.1,0,6.7-1.2,13-2.6c2.6-6,6.7-17,6.7-17c1.9,0,9.4,4.3,9.4,8.9c0,1.9-0.7,3.1-1.9,5.3
		c8.4-1.4,15.4-1.9,21.4-1.9c8.2,0,13.4,1,15.4,1.4l3.1,1.9c1.4,1.4,3.4,3.4,3.1,6.7l-1.2,4.8c-1.4,0-3.6-2.6-16.8-3.6
		C266.9,126.9,262.1,126.9,256.1,126.9z"/>
	<path fill="#FFFFFF" d="M283.2,154.2c0,1.4-6.7,19.4-16.1,19.2c-5.3,0-9.4-6-9.4-13.4c0-4.1,0.5-6.7,1.7-10.6
		c-4.8,8.9-11.8,21.8-13,26.9c-0.7,2.6-3.1,4.3-5.8,4.3s-5.5-1.9-5.5-7.9c0-16.8,17-58.6,19.2-63.8l1.2-3.8c0.7-1.9,1.4-4.3,1.4-5.5
		c0.5,0.5,9.6,3.1,9.6,8.2l-1,4.3c-3.4,7.2-23.3,47.8-23.3,59.8l0.2-0.2c19-34.3,27.1-39.6,25.7-42.5c0.5,0,7.9,4.6,7.9,8.4
		l-0.5,2.4c-2.6,7.2-9.6,14.9-9.6,23.5c0,2.6,0.2,5,2.6,5c3.1,0,8.4-4.3,13-14.6l1-0.2L283.2,154.2z"/>
	<path fill="#FFFFFF" d="M316.8,158.6c-1.7,3.1-3.8,6-6,8.4c-3.8,4.1-9.8,8.2-17.8,8.2c-11.8,0-15.8-11.3-15.8-18.2
		c0-15.4,11-30,22.8-30c7.2,0,11.3,4.8,11.3,9.6c0,9.6-8.9,17.8-19.4,17.8c-3.6,0-6-1-7.2-1.9c-0.7,1.9-1,4.1-1,6
		c0,6.2,4.3,12.2,10.8,12.5c4.8,0,10.6-3.6,13.7-5.5c6.7-5,6.7-7.2,7.7-7.2l0.7,0.2L316.8,158.6z M285.4,149.7l2.2,0.2
		c6.7,0,13-7.2,13-11l-2.4-2.2c-2.2,0-5.5,1.4-8.6,5.5C288.2,144.4,286.6,147,285.4,149.7z"/>
</g>
</svg>
