<svg xmlns="http://www.w3.org/2000/svg" viewBox="0 0 500.1 37.8" enable-background="new 0 0 500.1 37.8"><path fill="#C02646" d="M19.2 14.7l-1 7.5H22v3.9h-4.3l-1.5 11.2H12l1.5-11.2H7.9L6.4 37.4H2.1l1.5-11.2H0v-3.9h4.2l1-7.5H1.5l-.1-3.9h4.3L7.2.4h4.3l-1.4 10.4h5.4L16.9.4h4.2l-1.4 10.4h3.7l.1 3.9h-4.3zm-9.7 0l-1 7.5H14l1.1-7.5H9.5z"/><path fill="#fff" d="M35.1 37.4V.4h2.1v35.1H47v1.8l-11.9.1zm33.2-1.5c-1.2 1.2-2.9 1.8-4.9 1.8-2 0-3.8-.6-4.9-1.8-2.2-2.2-2.6-4.2-2.6-17s.4-14.8 2.6-17C59.6.7 61.3 0 63.4 0c2 0 3.8.6 4.9 1.8 2.2 2.2 2.6 4.3 2.6 17s-.4 14.9-2.6 17.1zM66.8 3.2c-.8-.9-1.9-1.3-3.5-1.3s-2.7.5-3.5 1.3C58.3 5 58 6.6 58 18.9c0 12.3.3 13.9 1.9 15.7.8.9 1.9 1.3 3.5 1.3s2.7-.5 3.5-1.3c1.6-1.8 1.9-3.5 1.9-15.7 0-12.4-.3-13.9-2-15.7zm22.5 34.2h-1.9L79.5.4h2.3l6.5 32.7L94.8.4H97l-7.7 37zm16.8 0V.4H118v1.8h-9.8v15.7h8.5v1.8h-8.5v15.7h9.8v1.8l-11.9.2zm36.9-1.7c-1.4 1.3-3.2 2-5.7 2-3 0-4.9-1.1-6.4-2.6-2.5-2.8-2.7-7-2.7-16.3s.2-13.5 2.7-16.3c1.4-1.5 3.4-2.6 6.4-2.6 2.5 0 4.4.8 5.9 2.2 1.7 1.6 2.6 4.3 2.6 7.4h-4.4c0-1.6-.3-3.2-1.2-4.2-.6-.8-1.5-1.3-2.9-1.3s-2.4.6-3 1.4c-1.3 1.7-1.5 4.7-1.5 13.5s.3 11.7 1.5 13.5c.6.9 1.5 1.4 3 1.4s2.3-.6 2.9-1.3c.9-1.1 1.2-2.6 1.2-4.2h4.4c0 3-1 5.8-2.8 7.4zm13.3 1.7V.4h4.4v37h-4.4zm30.3 0l-9.5-25.2v25.2h-4.4V.4h4.1l9.5 25.2-.1-25.2h4.4v37h-4zm24.5-33v32.9h-4.4V4.4h-6.3v-4h16.9v3.9l-6.2.1zm27.2 33l-1.7-8.8H228l-1.7 8.8h-4.7l8.6-37h4.3l8.6 37h-4.8zm-6.1-29.8l-3.5 17h6.9l-3.4-17zm38.2 29.8V18.1l-4 12.7h-3.8l-3.9-12.6v19.2h-7.4V.4h6.5l6.7 18.1L271.2.4h6.5v37h-7.3zm34.3 0l-1.2-5.8H295l-1.2 5.8h-7.7l9.4-37h7.2l9.5 37h-7.5zm-5.5-26.1L296.3 25h5.7c0-.1-2.8-13.7-2.8-13.7zm35 26.1V21.9H328v15.5h-7.3V.4h7.4v14.8h6.2V.4h7.4v37h-7.5zm34.3 0l-1.2-5.8h-8.5l-1.2 5.8h-7.7l9.5-37h7.2l9.5 37h-7.6zm-5.4-26.1L360.2 25h5.7l-2.8-13.7zM402.9 35c-1.5 1.6-4 2.4-7.7 2.4h-10.7V.4h10.7c3.7 0 6.2.9 7.7 2.4 1.7 1.7 2.4 4.4 2.4 7.9 0 2.4-.2 4.4-1.7 6-.5.5-1 .9-1.7 1.3.7.4 1.3.9 1.6 1.3 1.7 1.9 1.8 4.6 1.8 6.7.1 4-.5 7-2.4 9zm-8.7-28H392v7.9h2.2c2.9 0 3.9-1.2 3.9-3.9s-1-4-3.9-4zm.1 14.2H392v9.5h2.3c3 0 3.8-1.4 3.8-4.8s-1-4.7-3.8-4.7zM434.2 35c-1.5 1.6-3.9 2.4-7.7 2.4h-10.7V.4h10.7c3.7 0 6.2.9 7.7 2.4 1.7 1.7 2.4 4.4 2.4 7.9 0 2.4-.2 4.4-1.7 6-.5.5-1 .9-1.7 1.3.7.4 1.3.9 1.6 1.3 1.7 1.9 1.8 4.6 1.8 6.7 0 4-.5 7-2.4 9zm-8.8-28h-2.2v7.9h2.2c2.9 0 3.9-1.2 3.9-3.9 0-2.8-.9-4-3.9-4zm.2 14.2h-2.3v9.5h2.3c3 0 3.8-1.4 3.8-4.8s-1-4.7-3.8-4.7zm37.5 16.2l-1.2-5.8h-8.5l-1.2 5.8h-7.7l9.5-37h7.2l9.5 37h-7.6zm-5.4-26.1L454.8 25h5.7c0-.1-2.8-13.7-2.8-13.7zm35 26.1V21.9h-6.2v15.5h-7.4V.4h7.4v14.8h6.2V.4h7.4v37h-7.4z"/></svg>