<svg xmlns="http://www.w3.org/2000/svg" xmlns:xlink="http://www.w3.org/1999/xlink" viewBox="0 0 561.2 63.5" enable-background="new 0 0 561.2 63.5"><g fill="#fff"><path d="M409.8 15.4h4.4v4.4h-4.4zM409.8 21.2h4.4v16.1h-4.4zM431 37.3h-4.4v-11s0-1.4-1.5-1.4H420v12.4h-4.4V21.2h11c4.4 0 4.4 4.4 4.4 4.4v11.7zM440.5 37.3h-3.7c-4.4 0-4.4-4.4-4.4-4.4V15.4h4.4v5.8h4.4l-2.2 3.7h-2.2v7.3s0 1.5 1.5 1.5h2.2v3.6zM442 21.2h11c4.4 0 4.4 4.4 4.4 4.4v5.1h-11v1.5s0 1.5 1.5 1.5h7.3l2.2 3.7h-11c-4.4 0-4.4-4.4-4.4-4.4V21.2zm4.4 3.7v2.2h6.6v-.7c0-1.4-1.5-1.4-1.5-1.4h-5.1zM474.2 37.3h-11c-4.4 0-4.4-4.4-4.4-4.4v-5.8h11v-.7s0-1.4-1.5-1.4H461l-2.2-3.7h11c4.4 0 4.4 4.4 4.4 4.4v11.6zm-4.4-3.7v-2.9h-6.6v1.5c0 1.5 1.5 1.5 1.5 1.5h5.1zM497.5 37.3h-4.4v-11s0-1.4-1.5-1.4h-2.9v12.4h-4.4V24.9H480v12.4h-4.4V21.2h17.5c4.4 0 4.4 4.4 4.4 4.4v11.7zM454 46h-1.1s-.1 0-.1-.1l-.9-2.6s0-.1-.1-.1h-.9c-.1 0-.1 0-.1.1v2.5c0 .1 0 .1-.1.1h-1c-.1 0-.1 0-.1-.1v-6.3c0-.1 0-.1.1-.1h2.3c1.2 0 1.9.8 1.9 1.9v.1c0 .5-.4 1.1-.8 1.4v.1s0 .1.1.2l.9 2.6c0 .1.1.1.1.2-.1 0-.2.1-.2.1zm-1.2-4.7c0-.4-.3-.7-.7-.7H451c-.1 0-.1 0-.1.1V42c0 .1 0 .1.1.1h1.1c.3 0 .7-.3.7-.8zM460.9 46h-3.6c-.1 0-.1 0-.1-.1v-6.3c0-.1 0-.1.1-.1h3.6c.1 0 .1 0 .1.1v.9c0 .1 0 .1-.1.1h-2.4c-.1 0-.1 0-.1.1V42c0 .1 0 .1.1.1h2c.1 0 .1 0 .1.1v.9c0 .1 0 .1-.1.1h-2c-.1 0-.1 0-.1.1v1.5c0 .1 0 .1.1.1h2.4c.1 0 .1 0 .1.1v.9l-.1.1zM468 45.2c-.3.5-.8.8-1.6.8h-.5c-1.2 0-1.9-.8-1.9-1.8v-3.1c0-1.1.7-1.8 1.9-1.8h.5c.9 0 1.3.4 1.6.9.1.2.2.3.2.4 0 0 0 .1-.1.1l-.8.4-.1.1s-.1 0-.1-.1c-.2-.4-.4-.6-.7-.6h-.5c-.4 0-.7.3-.7.7v3.1c0 .4.3.7.7.7h.5c.3 0 .5-.2.7-.6 0 0 0-.1.1-.1 0 0 .1 0 .1.1l.8.4s.1 0 .1.1c0 0-.1.2-.2.3zM473.4 46.1h-.5c-1.2 0-1.9-.8-1.9-1.8v-3.1c0-1.1.7-1.8 1.9-1.8h.5c1.2 0 1.9.8 1.9 1.8v3.1c.1 1-.7 1.8-1.9 1.8zm.8-4.9c0-.4-.3-.7-.7-.7h-.5c-.4 0-.7.3-.7.7v3.1c0 .4.3.7.7.7h.5c.4 0 .7-.3.7-.7v-3.1zM482.9 46h-1.1s-.1 0-.1-.1l-.9-2.6s0-.1-.1-.1h-.9c-.1 0-.1 0-.1.1v2.5c0 .1 0 .1-.1.1h-1c-.1 0-.1 0-.1-.1v-6.3c0-.1 0-.1.1-.1h2.3c1.2 0 1.9.8 1.9 1.9v.1c0 .5-.4 1.1-.8 1.4v.1s0 .1.1.2l.9 2.6c0 .1.1.1.1.2 0 0-.1.1-.2.1zm-1.1-4.7c0-.4-.3-.7-.7-.7H480c-.1 0-.1 0-.1.1V42c0 .1 0 .1.1.1h1.1c.3 0 .7-.3.7-.8zM488.5 46h-2.3c-.1 0-.1 0-.1-.1v-6.3c0-.1 0-.1.1-.1h2.3c1.2 0 1.9.8 1.9 1.9V44c0 1.2-.7 2-1.9 2zm.8-4.7c0-.4-.3-.7-.7-.7h-1.1c-.1 0-.1 0-.1.1v4.1c0 .1 0 .1.1.1h1.1c.4 0 .7-.3.7-.7v-2.9zM495.6 46.1h-.4c-.9 0-1.3-.4-1.6-.8-.1-.1-.2-.3-.2-.4l.1-.1.8-.4.1-.1s.1 0 .1.1c.2.4.4.6.7.6h.4c.4 0 .7-.3.7-.7 0-.6-.5-.8-1.1-1-.8-.4-1.7-.8-1.7-2 0-1.1.7-1.8 1.9-1.8h.2c.9 0 1.3.4 1.6.9.1.2.2.3.2.4 0 0 0 .1-.1.1l-.8.4-.1.1s-.1 0-.1-.1c-.2-.4-.4-.6-.7-.6h-.2c-.4 0-.7.3-.7.7 0 .5.6.7 1.2 1 .8.4 1.6.8 1.6 2.1 0 .8-.7 1.6-1.9 1.6z"/></g><path fill="#fff" d="M518.3 55.1c-.8 0-1.5-.2-2-.7-.4-.3-.6-.8-.6-1.2 0-.5.2-.9.6-1.2.5-.4 1.3-.7 2-.7.8 0 1.5.2 2 .7.4.3.5.8.5 1.2 0 .4-.2.9-.5 1.2-.4.5-1.2.7-2 .7v-.5c.4 0 .8-.1 1.1-.4.3-.3.4-.6.4-1s-.1-.8-.4-1c-.3-.3-.7-.4-1.1-.4-.4 0-.8.1-1.1.4-.3.3-.4.6-.4 1s.1.7.4 1c.3.3.7.4 1.1.4v.5zm-5.8-3.9c-.4 0-.9.1-1.3.3-.4.2-.7.4-.7.9 0 .4.3.6.3.6.1.1.3.3.7.4.2 0 .6.1 1.1.2.4 0 .9.1 1 .1.1 0 .4.1.4.3 0 .3-.2.3-.3.4 0 0-.3.2-.9.2-.4 0-.9-.1-1-.2-.2-.1-.4-.2-.6-.4 0-.1-.1-.2-.1-.4h-.5V55h.5v-.2s0-.1.1-.1.4.2.8.3c.3.1.5.1.8.1.6 0 .9-.1 1.1-.1l.6-.3c.1-.1.3-.3.3-.7 0-.4-.2-.6-.3-.7-.1-.1-.2-.2-.3-.2-.1 0-.3-.1-.4-.1-.3-.1-.9-.2-1.2-.2-.3 0-.9-.1-1.1-.1-.1 0-.2-.1-.2-.2s.1-.2.2-.3c.2-.1.6-.2 1-.2.5 0 .9.1 1.1.2.1 0 .2.1.3.2.1.1.2.2.3.4h.4v-1.2h-.5v.1s0 .1-.1.1c-.1-.3-.7-.5-1.5-.6zm8.9.3v.4h.4c.3 0 .3.1.3.3v2c0 .1 0 .3-.2.3h-.5v.4h2v-.4h-.5c-.2 0-.2-.1-.2-.3v-1.7l2.7 2.4h.7v-2.7c0-.2 0-.3.2-.3h.4v-.4h-2v.4h.4c.2 0 .2.1.2.3v1.4l-2.3-2.1h-1.6zm7.2 3v.4h2.3v-.4h-.5s-.1 0-.1-.1V53.5s1.2-1.4 1.3-1.5c.1-.1.2-.2.3-.2h.4v-.4h-1.9v.4h.3c.1 0 .1.1.1.1l-.8 1-.8-1c-.1-.1 0-.1.1-.1h.3v-.4h-2.4v.4h.4c.2 0 .3.1.4.2.1.1 1.3 1.4 1.3 1.5V54.4s0 .1-.1.1h-.6zM560.7 53.7c-.1.3-.3.6-.6.7-.2.1-.5.2-1 .2H558.8c-.3-.1-.5-.2-.7-.4-.3-.3-.4-.6-.4-1s.1-.7.4-1c.3-.3.7-.4 1.1-.4h.1c.4 0 .7.1 1 .2.2.1.5.4.6.7h.5v-1.3h-.5v.2h-.1c-.2-.1-.8-.4-1.5-.4h-.1c-.7 0-1.5.3-1.9.7l-.3.3c-.2.3-.3.6-.3.9v.1c0 .4.2.8.5 1.1.4.4 1 .6 1.6.7.6.1 1.2 0 1.7-.3.4-.2.7-.6.8-1.1h-.6zm-21.5-2.2l-1 2.2-1-2.2H535v.4h.4c.3 0 .3.1.3.3v2c0 .1 0 .3-.2.3h-.5v.4h1.9v-.4h-.4c-.2 0-.2-.1-.2-.3V52l1.3 2.9h.7l1.3-2.9v2.2c0 .2 0 .3-.2.3h-.4v.4h2.3v-.4h-.5c-.2 0-.2-.2-.2-.3v-2c0-.1 0-.3.3-.3h.4v-.4h-2.1zm6.2.4h.4c.2 0 .2.1.2.2v1.7c0 .4-.1.8-1.2.8-1 0-1-.7-1-.8v-1.7c0-.2 0-.2.2-.2h.4v-.4H542v.4h.4c.2 0 .2.1.2.3v1.7c0 1.1 1.1 1.3 2.1 1.3s2-.2 2-1.3v-1.8c0-.1 0-.2.2-.2h.4v-.4h-2v.4zm9.8 2.5s-.1 0 0 0l-.1-.2V51.9s0-.1.1-.1h.5v-.4h-2.4v.4h.5s.1 0 .1.1V54.3s0 .1-.1.1h-.5v.4h2.4v-.4h-.5zm-3-1.2c-.1-.1-.2-.2-.3-.2-.1-.1-.3-.1-.4-.1-.3-.1-.9-.2-1.2-.2-.3 0-.9-.1-1.1-.2-.1 0-.2-.1-.2-.3 0-.1.1-.2.2-.3.2-.1.6-.2 1-.2.5 0 .9.1 1.1.2.1 0 .2.1.3.2.1.1.2.2.3.4h.4v-1.2h-.5v.1s0 .1-.1.1c-.2-.1-.8-.4-1.6-.4-.4 0-.9.1-1.3.3-.4.2-.7.4-.7.9 0 .4.3.6.2.6.1.1.3.3.8.4.2.1.7.1 1.1.2.4 0 .9.1 1 .1.1 0 .4.1.4.4 0 .3-.2.3-.3.4 0 0-.3.2-.9.2-.4 0-.9-.1-1-.2-.2-.1-.4-.2-.6-.4-.1-.1-.1-.2-.1-.4h-.5V55h.5v-.2s0-.1.1-.1.4.2.8.3c.3.1.5.1.8.1.6 0 .9-.1 1.1-.1l.6-.3c.1-.1.3-.3.3-.7.1-.5-.1-.7-.2-.8z"/><g fill="#fff"><path d="M513.2 57.7h.5v.5c.2-.4.6-.6 1-.6.5 0 .9.2 1.2.6l.1.1s0-.1.1-.1c.3-.4.7-.6 1.2-.6.4 0 .8.2 1.1.6.3.3.3.7.3 1.1v2.1h-.5v-2.1c0-.3 0-.6-.2-.8-.2-.3-.5-.4-.8-.4-.3 0-.6.2-.8.4-.2.2-.2.5-.2.8v2.1h-.5v-2.1c0-.3 0-.5-.2-.7-.2-.3-.5-.4-.8-.4-.3 0-.6.1-.8.4-.2.2-.2.5-.2.8v2.1h-.5v-3.8zM523.3 61.3h-.5v-.7c-.3.5-.8.8-1.4.8-.6 0-1.2-.2-1.6-.8-.1-.1-.4-.6-.4-1.2 0-.5.2-1 .4-1.1.6-.6 1.1-.8 1.6-.8.6 0 1.2.3 1.4.8v-.7h.5v3.7zm-3.4-1.8c0 .8.7 1.4 1.5 1.4s1.4-.7 1.4-1.4c0-.8-.6-1.5-1.4-1.5-.9 0-1.5.7-1.5 1.5zM524.3 56.4h.5v3.5l1.7-2.2h.6l-1.4 1.9 1.5 1.8h-.6l-1.2-1.5-.6.8v.7h-.5v-5zM527.8 59.7c0 .7.7 1.3 1.4 1.3.5 0 1.1-.3 1.3-.8h.5c-.3.7-1 1.3-1.8 1.3-1.1 0-1.9-.9-1.9-1.9 0-1.1.8-1.9 1.9-1.9.6 0 1.1.3 1.5.7.3.4.4.9.4 1.4h-3.3zm2.8-.5c-.1-.7-.7-1.2-1.4-1.2s-1.3.5-1.4 1.2h2.8z"/></g><g fill="#fff"><path d="M535 56.4h.5v2c.2-.5.9-.8 1.4-.8 1.1 0 2 .8 2 1.9 0 .5-.2 1-.4 1.2-.5.6-1 .7-1.5.7s-1.2-.2-1.5-.7v.6h-.5v-4.9zm.8 2.1c-.3.3-.4.6-.4 1 0 .8.7 1.4 1.5 1.4s1.4-.7 1.4-1.5-.7-1.4-1.5-1.4c-.3 0-.7.2-1 .5zM540 59.7c0 .7.7 1.3 1.4 1.3.5 0 1.1-.3 1.3-.8h.5c-.3.7-1 1.3-1.8 1.3-1.1 0-1.9-.9-1.9-1.9 0-1.1.8-1.9 1.9-1.9.6 0 1.1.3 1.5.7.3.4.4.9.4 1.4H540zm2.8-.5c-.1-.7-.7-1.2-1.4-1.2s-1.3.5-1.4 1.2h2.8zM544.1 56.4h.5v5h-.5v-5zM545.6 56.4h.5v.9h-.5v-.9zm0 1.3h.5v3.7h-.5v-3.7zM547.4 59.7c0 .7.7 1.3 1.4 1.3.5 0 1.1-.3 1.3-.8h.5c-.3.7-1 1.3-1.8 1.3-1.1 0-1.9-.9-1.9-1.9 0-1.1.8-1.9 1.9-1.9.6 0 1.1.3 1.5.7.3.4.4.9.4 1.4h-3.3zm2.8-.5c-.1-.7-.7-1.2-1.4-1.2s-1.3.5-1.4 1.2h2.8zM550.9 57.7h.5l1.3 3.1 1.3-3.1h.5l-1.6 3.7h-.5l-1.5-3.7zM555.2 59.7c0 .7.7 1.3 1.4 1.3.5 0 1.1-.3 1.3-.8h.5c-.3.7-1 1.3-1.8 1.3-1.1 0-1.9-.9-1.9-1.9 0-1.1.8-1.9 1.9-1.9.6 0 1.1.3 1.5.7.3.4.4.9.4 1.4h-3.3zm2.8-.5c-.1-.7-.7-1.2-1.4-1.2s-1.3.5-1.4 1.2h2.8z"/></g><path fill="#fff" d="M533.6 60.7c0 .4-.3.7-.7.7-.4 0-.7-.3-.7-.7 0-.4.3-.7.7-.7.4 0 .7.3.7.7z"/><g><defs><path id="a" d="M550.5 34.8c.3.1 0 .2-.1.3-.4-.1.1-.2.1-.3zm-6.1 4.1c0-.1 0 0 0 0zm-1 .4c.3-.1.7-.3 1-.4-.7.6-1.5 1.1-2.3 1.5-.5-.2 1-.9 1.1-1m-2.7 1.4c.3.1-.3.3-.3.4-.2-.1-.5 0-.6.2h-.4c.2-.3.9-.3 1.3-.6m-6.8-.6c.1 0 .1 0 0 0 .2.1-.6.4-.7.5-.1 0-.5.1-.5.2s.2.2.1.3c-.3.2-.7 0-1.1.1-.2.1-.2.1-.2.3 0 .1-.4.2-.6.3-.3.2-.6.1-1 .2-.2.1-.5.1-.7.2l-1.5.3c-.4.1-1.5.4-1.8.2 0 0 .1-.2.1-.3-.5 0-1.2.1-1.7.1.1-.2 2.2-.7 2.3-.6.3.1.6-.1.8-.1.5-.2 1 0 1.5-.1.2-.1.4-.1.6 0 .1-.1.4-.1.5-.2.3-.1.8-.3 1.2-.3.3 0 .3-.1.3-.2.1-.2.5-.1.7-.2.7-.3 1.2-.5 1.7-.7m-9.5.2c.1.3-1.1.4-1.3.3.2-.2-.2-.2-.2-.2-.1-.1.2-.2.5-.1.5-.2 1-.2 1 0m-3.4-1.2c-.2-.1.1-.3.4-.2.3-.1.9-.2 1.1-.1-.4.2-.9.3-1.5.3zm-.9 0c0 .3-.9.1-.9.1-.1 0 .6-.1.9-.1M559.2 19c.1-.3.1-.7-.1-.9.1.3-.2.8.1.9zm0-1.5c0-.2 0-.4-.1-.5-.1.2-.1.4.1.5zm-.4 0c0-.2 0-.3-.1-.5-.1-.3-.1-.6-.2-.9-.1-.6-.2-1.1-.3-1.7-.1-.2-.1-.5-.2-.7-.1-.3-.1-.6-.2-.9-.2-.3-.2-.9-.6-1.4 0 .3.6.9.2 1.2-.1 0-.2 0-.5-1-.1-.3-.4-.6-.5-.9-.3-.1-.3-.5-.5-.6-.1-.1-.3-.2-.3-.4 0 0 .2 0 .1-.1-.2 0-.4.1-.3-.3.1-.2-.8-.3-.5-.6.1-.1.2.1.2 0-.2-.2-.4-.2-.5-.4-.2-.2-.1-.3-.3-.4-.1-.1-.3 0-.2-.2-.1-.1-.4-.5-.2-.4.6.3 1.1 1 1.5 1.4.2.2.1.2.3.4.2.1.3.3.4.5.1.2.3.7.5.6 0 0 0-.1-.1-.2-.1.1-.2-.5-.5-.7-.5-.3-.6-.9-1.1-1.1-.2-.4-.6-.8-.9-1.1-.2-.2-.5-.5-.7-.6.1-.2.1-.2-.1-.2 0 .2-.4-.1-.4-.2-.1 0 .1-.4-.2-.3-.2 0-.3-.4-.5-.5-.2-.1-.7.1-.8-.3-.1-.4.4.1.5-.2-.2-.1-.4-.2-.6-.4-.2-.3-.2-.4-.6-.5-.2-.1-.3-.2-.5-.4s-.4-.3-.6-.4c-.2-.1-.3-.2-.5-.3-.1 0-.1.4-.3.1-.2-.3-.2-.3-.5-.5-.2-.1-.4-.3-.6-.3.2.3.6.3.8.7-.2 0-.4-.1-.4.1-.2-.2-.5-.3-.8-.3-.2-.3-.1-.2-.4-.1-.3-.3-.5-.9-.9-.5-.1-.2-.2-.2-.3-.1 0-.2-.2-.2-.3-.3 0 .1.2.3 0 .4-.1 0-.2 0-.3-.2-.1-.2-.1-.7-.4-.7.1.1.1.2-.1.2-.2.1-.1.1-.1.3 0 .2-.3.1-.3 0 0-.2.1-.3 0-.5.4 0 .3-.3-.1-.3.1 0-.3.2-.3.1.1 0 .1 0 .1.1-.2.1 0 .2 0 .3-.1-.1-.4-.1-.4-.3 0 0 .2-.8 0-.5 0 .1-.1.1-.1.2 0 .2-.1 0-.2.2s0 .3 0 .5c-.2-.1-.4-.2-.6-.1 0 .2-.1.2-.2.1-.1 0-.4 0-.4-.2.1 0 .4 0 .5-.1.2-.2-.1-.2-.2-.2-.3.1-.6.3-.8 0 .3 0 .1-.1.3-.3.1-.2.3.1.3-.1 0-.1-.3 0-.3-.1s.2 0 .2-.1c.2-.2-.4-.1-.4-.1v.1c-.3.2-.7-.6-1.1-.3.2 0 .5.1.5.3-.2 0-.6-.2-.7.1.4.1.9 0 1.2.3-.2.2-.6 0-.8.1 0 .1.1.2.1.2-.5 0-.7.2-1.2.1s-1-.2-1.5-.2c-.1.3 1.1.2 1.2.4-.2.1-.4 0-.6-.1 0 .3.4.3.5.5-.2 0-.4 0-.6-.1-.3 0-.8-.3-1.2-.2.3.1.6.3 1 .4-.4-.1-1-.1-1.4-.3-.2-.1-.3-.2-.5-.1-.1 0-.4-.1-.4 0 0 0 1 .3 1.2.3.3.1 1.3.1 1.1.5.2 0 .5.1.7.1-.2.3.7.2.9.2.4.1.8.2 1.2.4-.3 0-.2.2-.5.1s-.2-.1-.4 0c0 0-.6-.2-.7-.2-.3 0-.6-.1-.8 0 .2.1.7 0 .8.3h-.5c.2.3-.2.1-.3.3 0 0 .2 0 .1.1-.2 0-.5 0-.7.1 0-.1-.3-.3-.4-.3-.1.1-.9.1-1 0-.3-.3-.2.1-.3.2-.2.2-.3.2-.5.1-.3-.1-.6.1-.9 0-.4 0-.7-.2-1.1-.1.4.2.9.3 1.3.4-.2.2-.4-.1-.6 0-.2.2.3.2.3.3 0 0-.9-.1-1.1-.1-.3-.1-.6-.5-1-.3 0 .2.7.3.9.5-.1 0-.3-.2-.3 0 .4.1.8.2 1.1.4-.2 0-.3-.1-.5-.1-.1.4 1.5.2 1.4.7-.2 0-1.4-.1-1.4-.2 0 .1.4 0 .5.2-.1 0-.1 0-.1.1.1 0 .6.5.6.4 0 0-.8-.1-.9-.1-.2-.1-.2 0-.4-.1-.1-.1-.4-.2-.6-.1.3 0 .3.3.6.3.3.1.6.2.8.4-.1 0-.3 0-.3.1.1 0 .6.2.5.3-.2-.2-.2.1-.1.1-.4 0-.7-.2-1-.2-.4 0-.8-.5-1.3-.4.1 0 .2.1.2.2 0 0-.9-.2-1.1-.1.2.2.6.3.8.5-.3 0-.9-.4-1.1-.2.2 0 .4.1.8.2.6.1 1.2.3 1.2.6-.3 0-.7-.3-1-.1.6.3 1.6.4 1.3.5-.1.1-.4 0-.5 0-.4-.1 0 .2-.4.2-.1 0-.7-.3-.7 0-.2 0-.6-.3-.7-.1.1 0 .2 0 .2.1s-1.3-.2-.5.3c.4.3 1.1.3 1.2.5-.6 0-1.1-.5-1.7-.3 0 .2.3.2.3.4-.2 0-.6-.3-.8-.1.3.2.5.3.8.4-.4 0 .6.5.7.5 0 .3-.5 0-.6.2-.1.4 1.8.4 1 1 .2 0 .3 0 .4.1-.6-.1-1.2-.4-1.9-.4.2.2.5.2.6.4-.1 0-.4-.1-.3.1.2.1.5.2.7.3-.1 0-.3-.1-.3.1.2.1.6.2.8.4-.2.1-.5-.2-.6 0 .2.2.5.1.7.3-.1.1-.2.1-.1.3h-.2l-.2.2c.4.1.7.4 1.1.4.4.1.7.4 1.1.5.7.2 1.4.3 2.1.5.3.1.5.3.7.4.4.2.9.3 1.3.4.2.1.5.2.7.3.3 0 .4 0 .7.1.4.2.9.4 1.3.6.4.2.7.4 1.1.6 1.2.5 2.2 1.7 2.5 2.9.2.8.2 1.8-.1 2.6-.3.7-.8 1.4-1.1 2-.2.3-.4.5-.6.8-.2.2-.3.7-.5.8-.1 0-.3.4-.4.4-.3.2-.6.6-.9.8-.2.2-.5.4-.8.6-.2.1-.3.1-.5.3l-.4.4c-.7.5-1.5.9-2.3 1.3-1 .5-2.2.8-3.3 1 0 .2-.3 0-.5.1-.3 0-.5 0-.8.1-1 0-2 .1-3 .1h-1.3c-.4.2-1-.2-1.4.1.4 0 .9.1 1.3.2.6.1 1.2 0 1.8 0 .5 0 1 0 1.5.1.3 0 .8-.2 1 .1-.2 0-.3.1-.4.2-.2.1-.4.1-.6.1-.5 0-.9 0-1.4.1-.9.1-1.8.2-2.7.2-.8 0-1.6.1-2.4.1-.4 0-1.8-.2-2.1 0 .2 0 .6-.1.8.1-.6 0-1.2.1-1.8.3.5.2.3.3-.2.4-.2 0-1.5.3-1.6.2.1.1.6 0 .8 0 .3-.1.6.1.9 0 0 .4.8.2 1 .3l-.7.2c.5.4 1.4-.3 1.7.1-.3.2-.7-.1-1 .1 1.4.1 2.7.1 4.1.1.3 0 .4-.1.6.1.1.1.4.1.5 0 .1-.1.3-.1.4-.1.4 0 .6-.2.6.2.1 0 .4-.2.5.1-.4.1-.9.1-1.3.1-.1 0-.1 0-.1.1h.6c.3 0 .7-.1 1-.1.3 0 .1.1.2.1 1.2 0 2.6-.4 3.9-.2-.3.7-2 .5-2.6.5-.3 0-.6.1-.9.1-.2 0-.4-.1-.6-.1-.2 0-.4.2-.6.2-.2 0-.6-.1-.7.1.4-.2.3.1 1.3 0 .4-.2.9 0 1.3.1-.5.2-.9.5-1.5.6-.5.1-1 .3-1.5.4-1.1.2-4.1.6-3.6.2.2-.1.2-.1.3-.1-.5.1-1.1.2-1.6.2-.2.2-.7 0-1 .1-.5.2-1.9.1-2.3.2 0 .1.5 0 .5.1-.6.1-1.1 0-1.7.1-.7.1.2.1 0 .3-.1 0-.9 0-.9.1.7-.1 1.4-.1 2 .1-.1.1-.3.1-.5.2-.3.1 0 .3-.2.3s-.5.2-.7.3c-.2 0-.4 0-.6.1.2.1-.2.1-.2.2.1 0 .5-.1.5.1 0 0-.1.1-.2.1.1.2-.3.1-.5.2 0 .3-.5 0-.5.3.3.1.6-.2.9 0 .3.2-.4.2-.4.3.6.1-.1.1 0 .4.1 0 .3-.2.4 0-.1.1-.3 0-.4.2.1 0 .2 0 .2.1-.2 0-.5 0-.5.2 1.1-.1 2.2-.1 3.3-.2 1-.1 2.1-.3 3.1-.3.1 0 .2 0 .1.1.3.1-.9 0-1.2.3.3 0 .7-.2 1 0-.4.1-.7.4-1.1.3-.5-.1-1-.1-1.5 0s-1 0-1.5.1-1.1.1-1.6.1c.1.4.5 0 .7.2l-.6.3c.5 0 1-.3 1.5-.1-.2.4-.8.2-1 .5.2 0 .5-.1.7 0 0 .2-.3.1-.4.3.3.1.6 0 .2.3.3.1 1.3-.3 1.4.2-.2-.1-.5 0-.7 0-.4 0-.2.1 0 .1s.1.2-.1.2c-.2.1-.6 0-.7.2.2 0 .2-.1.4-.1-.1.2-.1.3.2.2h.6c.5 0 1 .1 1.5.1.8 0 1.5-.1 2.3-.1.7 0 1.5 0 2.3-.1.3 0 1.8-.4 1.9.2-.1.1-.4-.1-.5.1-.2.2-.6.1-.9 0-.2 0-1.5.1-1.5.4.7-.1 1.3 0 2-.2.4-.1.1.1.4.1.3 0 .5-.1.8-.2.3-.1.6-.1 1-.1.2 0 .7-.3.9-.1h.4c.4 0 .9-.1 1-.2-.3-.2-.6.1-1 0-.3.1-.4.4-.6.1 0 0-.1-.2 0-.2.2 0 .3 0 .4-.2.1-.4.2 0 .5 0 0-.1 0-.4.3-.2.3-.1.8-.1 1-.3.2-.1.5 0 .7-.2.3-.2.7-.2 1-.3.3-.1.5-.3.8-.3.4 0 .5-.3 1-.3.7.1 1-.5 1.6-.7.3-.2 1.1-.4 1.6-.5.7-.2 1.2-.6 1.9-.8.3-.1.4-.1.6-.3.1-.2.3-.2.5-.3.1-.1.3-.2.5-.2s.7-.3.9-.2c-.3.4-.8.6-1.2.8-.6.3-1.1.7-1.7.9-.4.1-.8.4-1.1.6-.5.3-1.1.5-1.7.6 0-.1.4-.4.2-.4-.2.2-.4.3-.7.4-.6.2-1.2.3-1.8.6-.2.1-.5.2-.7.3-.1.1-.2.1-.3.2-.2.2-.4.1-.6.2-.2.1-.4.1-.7.1-.2.1-.8.2-1 .3.3 0 .6-.1 1-.1h.8c.4-.1 1.2-.5 1.5-.2-.2.9-1.2.9-1.2 1.3.4-.2.9-.2 1.3-.4.3 0 1-.4 1.2-.3.2.1.6-.3 1.3-.3.4 0 1-.5 1.3-.3-.1 0-.5.3-.5.3-.1.2.9-.3 1-.3.4-.1 1.1-.5 1.3-.4 0 .2-.2.1-.3.3.6-.2 1.1-.6 1.6-.9.5-.3 1.1-.5 1.6-.7.5-.3.9-.6 1.4-.9.2-.1 1.3-.8 1.6-.7-.1.3-.5.6-.8.7-.2.1-.5.3-.7.5-.1.1-1.2.6-1.1.8.1-.2.3-.2.5-.3.2-.1.4-.3.6-.4.5-.2 1.1-.6 1.6-.9.8-.5 1.5-1.2 2.1-1.8.1-.1.3-.2.4-.4l1.1-1.1c.3-.3.4-.4.5-.7.1-.2.4 0 .3.1-.1.2-.2.2-.2.4-.2.1-1 .7-.7 1 .1-.5.5-.7.8-1 .1-.2.3-.3.4-.4 0-.2 0-.5.2-.5.4 0 .4 0 .3-.2 0 0-.1 0 0-.1.1-.2.5-.4.4-.6-.1 0-.1.1-.2.1-.4-.1.1-.2.1-.3.2-.1.2-.1.2-.4 0-.3.5-.7.5-1 .1 0 .2.1.2.2 0-.1 0-.3.1-.3.4-.7.7-1.2 1.1-1.8.1-.2.3-.5.4-.6 0-.1.1-.2.2-.2v-.3c0-.1.3-.8.4-.6.3.5-.5 1.6-.7 2-.1.2-1.1 1.6-1 1.7 0-.1 0-.1.1 0-.1.1-.7.3-.6.6 0 .1-.6.6-.2.6 0-.2.4-.4.3-.6.4-.3.6-.6.9-1 .2-.3.3-.8.6-1.2.1-.1.1-.2.1-.3.2-.4.5-.9.7-1.3 0 .2-.2.7 0 .8.2-.3.2-.9.6-1.1.1-.4.6-.9.6-1.3 0 .1 0 .2-.1.2-.2 0-.1-.4 0-.4.2-.4.2-.8.6-1 0-.4.3-.5.4-.8.2-.4.5-.6.5-1.1.1 0 .3-.5.3-.1s-.2 1-.4 1.4c-.2.4-.3.7-.5 1.1-.2.4-.6.8-.4 1.3 0-.3.2-.9.5-1.1.1-.1.1 0 .2 0 0 .1-.2.3-.1.4.3-.5.2-1 .6-1.3.1-.5.2-1.1.5-1.5-.2 0-.3 1.1-.6.9.1-.7.3-1.5.6-2.2 0-.1 0-.3.1-.4-.1-.2 0-.4 0-.6.1-.4.3-.8.3-1.2-.1.1-.1.3-.3.3 0-.3.2-.7.1-1.1 0-.1-.1-.6.3-.6 0 .1 0 .1.1.1.1-1 .3-1.6.2-2.4m0-2.4c0-.4 0-.5-.1-.6-.2.2-.1.4.1.6zm-.2-1.1c0-.2-.1-.5-.2-.7-.1-.3 0-.4-.2-.7.1.4.2 1.2.4 1.4m-9.9 23.8c-.1-.2.2-.2.3-.4-.2 0-.9.7-.9.9 0 .3-1 .7-1.1 1l.1-.1s-.3.5-.4.4c-.1 0-.4.1-.6.4-.2.1-.3.1-.3.2.2 0 .3-.1.4-.2.2-.1.1-.2.2-.2 0 0 .3-.1.4-.2.3-.3.5-.3.7-.6.1-.1.4-.3.4-.4.2-.4.5-.6.8-.8M547.4 2c-.3 0-.5-.3-.7-.2.3 0 .5.4.7.2zm-4.8 39c.2-.1.4-.1.5-.3-.4.1-.9.3-1.2.6.3 0 .5-.2.7-.3m-1.1.7c0-.1.1-.1.1-.3-.1 0-.3.2-.1.3zm-1.6-41c-.2 0-.7-.3-.8 0 .4 0 .5.2.8 0zm-1 2.4c-.2 0-.3 0-.3.1.1.1.3.1.3-.1zM538 .7c.4-.1.6.2.8-.1-.3 0-.7-.1-.8.1zm.5 2.6c0-.2-.4-.3-.5-.1.2 0 .2.2.5.1zm-1-2.8s-.4 0-.4.1c.1-.1.4 0 .4-.1m-1.1 2.7c.3 0 .9.3 1 .1-.1-.1-.5-.3-.8-.2-.3-.1-.5-.1-.5.1h.3m.7 37.8c0-.1.1-.1.1-.2-.1 0-.2 0-.2.2h.1m-.6 1.9c.2-.2.7 0 .8-.3-.3 0-.9.1-.8.3zm-.3-39.6c-.1 0-.3-.2-.3 0 0 .1.3.2.3 0zm-.6 39.9c.1-.2.6 0 .5-.3-.2.1-.7.2-.5.3zm-2.8.2c-.2 0-.3 0-.3.1.2 0 .3 0 .3-.1zm-.1-39.5c-.2 0-.3-.2-.4.1.1-.1.4 0 .4-.1zm-.5 39.6c-.3.1-.7 0-.8.3.2 0 .8-.1.8-.3zm-.7-36.7c-.2 0-.4-.2-.5.1.2 0 .4.2.5-.1zm-.6 36.4c-.2 0-.5.1-.3.2 0-.1.2-.1.3-.2zm-.5-31.4c0 .2.4.4.5.2-.2 0-.6-.5-1.1-.4.2.1.4.2.6.2m-3.3 23c-.1-.1-.1-.2-.4-.2-.1 0-.2-.1-.3-.1-.1 0-.2 0-.3.1-.2 0-.4.1-.5.1.3 0 .5.1.7 0 .4 0 .7-.1.8.1m-2.2 0c.2-.1.6.1.5-.1-.2-.1-.4 0-.5.1zm-3.7-1c0-.5-.7-.1-.6-.1 0 .1.5.1.6.1m-1.4-1.1h-1.5c-.2.2.6.2.6.2.3-.1.8 0 .9-.2m-2.7 4.4c.3.1.8-.1.2-.1.1-.1-.1 0-.2.1z"/></defs><clipPath id="b"><use xlink:href="#a" overflow="visible"/></clipPath><g clip-path="url(#b)"><image overflow="visible" width="426" height="415" xlink:href="99775256C9372BA1.png" transform="matrix(.12 0 0 .12 508.533 -4.655)"/></g><path clip-path="url(#b)" fill="#EE4036" d="M508.7-4.6h50.8V45h-50.8z"/></g><g fill="#fff"><path d="M151.5 32.7v.6l-.1.6-.1.6-.1.6-.2.6-.2.5-.3.5-.3.5c-.3.3-.5.6-.8.9-.3.3-.5.5-.9.8-.3.3-.6.5-.9.7-.3.2-.6.4-1 .6-.6.4-1.3.7-2 1.1-.3.2-.7.3-1 .5-.3.1-.7.3-1 .4-.7.3-1.4.6-2.1.8-.7.2-1.4.5-2.1.7-3.2.9-6.7 1.7-10.5 2.4s-7.8 1.3-11.9 1.8c-4.1.5-8.4 1-12.8 1.5-4.4.4-8.8.9-13.2 1.3-4.4.4-8.8.9-13.1 1.3-4.3.5-8.5 1-12.6 1.5-4.1.6-7.9 1.2-11.6 1.9-3.7.7-7 1.6-10.1 2.5-.3.1-.7.2-1 .3-.3.1-.7.2-1 .3l-.6.2-.5.2-1 .3c-.3.1-.7.2-1 .3-.3.1-.7.2-1 .3-.3.1-.6.2-1 .3-.3.1-.6.2-1 .3-.3.1-.7.2-1 .3l-.9.3-.5.2-.5.2-.5.2-.5.2-.9.3c-.3.1-.6.2-.9.4-.6.3-1.2.5-1.7.7l-.8.4c-.1-2.2-.6-4.2-1.5-6.1-.9-1.9-2-3.5-3.4-4.9-1.4-1.4-3-2.5-4.9-3.3-1.9-.8-3.8-1.2-5.9-1.2-1.2 0-2.3.1-3.4.4-1.1.3-2.2.6-3.2 1.1l.8-.7.8-.6c.6-.4 1.2-.8 1.8-1.1.6-.3 1.1-.7 1.7-.9.5-.3 1.1-.5 1.6-.7l1.5-.6c.5-.2 1-.3 1.4-.5.5-.1.9-.3 1.4-.4.5-.1.9-.2 1.4-.3.5-.1.9-.2 1.3-.3.4-.1.9-.2 1.3-.3.4-.1.9-.2 1.3-.2.4-.1.8-.1 1.3-.2.4-.1.8-.1 1.2-.2.4 0 .8-.1 1.2-.1.8-.1 1.6-.2 2.4-.2h.6l.6-.1h1.2c.4 0 .8-.1 1.2-.1.4 0 .8 0 1.1-.1h2.3l2.3-.1h14.9c3.1 0 6.8 0 11.1.1 4.3 0 9.3.1 14.7.1 5.5 0 11.5.1 18.1.2 6.6.1 13.7.2 21.3.3 1.4 0 2.9-.1 4.3-.1s2.9-.1 4.3-.1c1.4-.1 2.8-.1 4.3-.2.7 0 1.4-.1 2.1-.2.7-.1 1.4-.1 2.1-.2.7-.1 1.4-.2 2.1-.2l2.1-.3c.7-.1 1.4-.3 2.1-.4.7-.1 1.4-.3 2-.5.3-.1.7-.2 1-.3.3-.1.7-.2 1-.3.3-.1.6-.3.9-.4.3-.1.6-.3.9-.4.6-.3 1.2-.7 1.7-1l.8-.6.7-.7.6-.7c.2-.3.3-.6.4-.9l.1-.4v-.5l.1-.5.1-.5c.1-.7 0-1.3-.2-1.9l-.2-.4-.2-.4-.3-.4-.3-.3-.4-.3-.4-.2-.9-.3-.5-.1h-.5c-.3 0-.6.1-1 .2-.6.2-1.2.6-1.6 1.1l-.2.2-.2.2-.1.2-.1.2-.1.2-.1.2-.1.2V31.9l-.5.2-.2-.2v-.5l.1-.1.1-.1.1-.1.1-.3.1-.3.2-.2.2-.2.2-.2.2-.2c.5-.6 1.2-1 1.9-1.3l.5-.2.6-.1c.4-.1.8-.1 1.2 0 .4.1.8.2 1.1.3l.6.3.5.4c.3.3.6.6.8.9l.3.5.3.6c.2.4.3.8.3 1.1.6-.3.7.1.7.5zM151.5 32.7v.6l-.1.6-.1.6-.1.6-.2.6-.2.5-.3.5-.3.5c-.3.3-.5.6-.8.9-.3.3-.5.5-.9.8-.3.3-.6.5-.9.7-.3.2-.6.4-1 .6-.6.4-1.3.7-2 1.1-.3.2-.7.3-1 .5-.3.1-.7.3-1 .4-.7.3-1.4.6-2.1.8-.7.2-1.4.5-2.1.7-3.2.9-6.7 1.7-10.5 2.4s-7.8 1.3-11.9 1.8c-4.1.5-8.4 1-12.8 1.5-4.4.4-8.8.9-13.2 1.3-4.4.4-8.8.9-13.1 1.3-4.3.5-8.5 1-12.6 1.5-4.1.6-7.9 1.2-11.6 1.9-3.7.7-7 1.6-10.1 2.5-.3.1-.7.2-1 .3-.3.1-.7.2-1 .3l-.6.2-.5.2-1 .3c-.3.1-.7.2-1 .3-.3.1-.7.2-1 .3-.3.1-.6.2-1 .3-.3.1-.6.2-1 .3-.3.1-.7.2-1 .3l-.9.3-.5.2-.5.2-.5.2-.5.2-.9.3c-.3.1-.6.2-.9.4-.6.3-1.2.5-1.7.7l-.8.4c-.1-2.2-.6-4.2-1.5-6.1-.9-1.9-2-3.5-3.4-4.9-1.4-1.4-3-2.5-4.9-3.3-1.9-.8-3.8-1.2-5.9-1.2-1.2 0-2.3.1-3.4.4-1.1.3-2.2.6-3.2 1.1l.8-.7.8-.6c.6-.4 1.2-.8 1.8-1.1.6-.3 1.1-.7 1.7-.9.5-.3 1.1-.5 1.6-.7l1.5-.6c.5-.2 1-.3 1.4-.5.5-.1.9-.3 1.4-.4.5-.1.9-.2 1.4-.3.5-.1.9-.2 1.3-.3.4-.1.9-.2 1.3-.3.4-.1.9-.2 1.3-.2.4-.1.8-.1 1.3-.2.4-.1.8-.1 1.2-.2.4 0 .8-.1 1.2-.1.8-.1 1.6-.2 2.4-.2h.6l.6-.1h1.2c.4 0 .8-.1 1.2-.1.4 0 .8 0 1.1-.1h2.3l2.3-.1h14.9c3.1 0 6.8 0 11.1.1 4.3 0 9.3.1 14.7.1 5.5 0 11.5.1 18.1.2 6.6.1 13.7.2 21.3.3 1.4 0 2.9-.1 4.3-.1s2.9-.1 4.3-.1c1.4-.1 2.8-.1 4.3-.2.7 0 1.4-.1 2.1-.2.7-.1 1.4-.1 2.1-.2.7-.1 1.4-.2 2.1-.2l2.1-.3c.7-.1 1.4-.3 2.1-.4.7-.1 1.4-.3 2-.5.3-.1.7-.2 1-.3.3-.1.7-.2 1-.3.3-.1.6-.3.9-.4.3-.1.6-.3.9-.4.6-.3 1.2-.7 1.7-1l.8-.6.7-.7.6-.7c.2-.3.3-.6.4-.9l.1-.4v-.5l.1-.5.1-.5c.1-.7 0-1.3-.2-1.9l-.2-.4-.2-.4-.3-.4-.3-.3-.4-.3-.4-.2-.9-.3-.5-.1h-.5c-.3 0-.6.1-1 .2-.6.2-1.2.6-1.6 1.1l-.2.2-.2.2-.1.2-.1.2-.1.2-.1.2-.1.2V31.9l-.5.2-.2-.2v-.5l.1-.1.1-.1.1-.1.1-.3.1-.3.2-.2.2-.2.2-.2.2-.2c.5-.6 1.2-1 1.9-1.3l.5-.2.6-.1c.4-.1.8-.1 1.2 0 .4.1.8.2 1.1.3l.6.3.5.4c.3.3.6.6.8.9l.3.5.3.6c.2.4.3.8.3 1.1.6-.3.7.1.7.5zM32.5 32c-2.4 2.6-4.6 3.9-6.5 3.9-1.2 0-2.1-.6-2.7-1.7-.6-1.2-.9-2.7-.9-4.6 0-1.5.3-3.5.9-6.2.6-2.6 1.4-4.8 2.4-6.6l.9-1.7c-1.3 1.3-2.3 2.8-3.1 4.3-.8 1.6-1.8 3.8-2.9 6.6-1.1 2.8-2 4.8-2.6 5.8-.6 1-1.1 1.9-1.7 2.5-.5.6-1 1.1-1.4 1.3-.4.2-1.1.3-2.2.3-.4 0-.6-.1-.6-.3 0 0 .1-.4.2-1 .1-.7.3-1.7.4-3.1.1-1.4.3-3.9.3-7.3.1-3.4.6-6.4 1.5-8.8-1 1.1-2 3.8-3.1 8L11 25c-1.1 4.3-2.4 7.3-3.8 8.8-1.4 1.5-2.8 2.3-4.2 2.3-.8 0-1.6-.3-2.2-.8-.6-.5-1-1.1-1-1.8 0-.5.4-1.1 1.2-1.8.8-.7 1.3-1 1.5-1l.5.2c.1.2.2.6.3 1.3.1.7.3 1.2.5 1.4.2.2.5.3.9.3.8 0 1.7-.8 2.7-2.5 1-1.6 1.9-4.2 2.7-7.6l.5-1.9c.4-1.6.7-2.8 1.1-3.8.4-.9.8-1.9 1.4-2.8.9-1.3 1.4-2.1 1.6-2.2.2-.1.6-.2 1.1-.2.5-.1 1.1-.1 1.6-.1l.3.4c0 .1 0 .4-.1.7-.2 1.5-.3 3-.3 4.5v4.3c0 3.7-.3 6.7-.9 9 .6-.7 1.4-2.4 2.5-5.3 1.6-4 3-7 4.3-9.1.6-1 1.3-1.9 2.2-2.8.9-.9 1.5-1.4 1.8-1.4 1.1-.2 2.1-.3 2.9-.3l.4.2c0 .2-.2.7-.5 1.5-.8 1.9-1.6 4.4-2.3 7.6-.7 3.2-1.1 5.8-1.1 7.7 0 2.2.7 3.2 2 3.2 1.1 0 2.3-.9 3.8-2.7l.1 1.7zM49.6 32c-1.4 1.3-2.6 2.3-3.5 3-1 .6-1.8.9-2.6.9s-1.5-.3-1.9-1c-.5-.7-.7-1.6-.7-2.7-1.2 1.3-2.2 2.2-3.2 2.9-.9.6-1.8.9-2.7.9-.8 0-1.5-.3-2-1s-.7-1.6-.7-2.7c0-2.2.8-5.4 2.2-9.4l4.3-.9c-1.8 5.1-2.6 8.4-2.6 9.9 0 1 .4 1.5 1.2 1.5.6 0 1.2-.4 2.1-1.4.8-.9 1.3-1.7 1.5-2.4l2.1-6.8 4.4-.9c-1 3.2-1.7 5.5-2.1 6.8-.4 1.3-.6 2.2-.6 2.7 0 1 .3 1.5 1 1.5.6 0 1.4-.5 2.5-1.5l1.3-1.3V32zM65.3 32c-2.5 2.6-4.6 3.9-6.2 3.9-.7 0-1.3-.3-1.8-.7-.5-.5-.7-1.1-.7-1.9 0-1.3.5-3.1 1.5-5.4.5-1.3.8-2.1.8-2.5 0-.4-.2-.7-.6-.7-.4 0-1 .3-1.9.9-.8.6-1.7 1.4-2.6 2.4-.4 2-.6 4.3-.6 7.1l-3.6.8c-.1-1.1-.2-2.3-.2-3.7 0-3.2.4-6.1 1.3-8.9.9-2.7 2.3-5.7 4.1-8.7 1.4-.6 2.6-1 3.7-1.4 1-.4 1.6-.5 1.8-.5.3 0 .5.2.7.7.2.5.3 1 .3 1.7 0 1.1-.3 2.4-1 3.8s-1.8 3-3.3 5c1.4-.8 2.4-1.3 2.8-1.6.5-.2.9-.3 1.4-.3.5 0 1 .2 1.3.6.3.4.5.9.5 1.5 0 1-.4 2.4-1.1 4.5-.8 2-1.1 3.3-1.1 3.8l.2.6.5.3c.7 0 1.9-1 3.8-3.1V32zm-11.1-6.6c3.8-4.4 5.7-7.7 5.7-9.8 0-.6-.2-1-.5-1-.6 0-1.4 1.1-2.5 3.2s-2 4.6-2.7 7.6zM73.2 32c-2.5 2.6-4.4 3.9-5.6 3.9-.7 0-1.3-.3-1.7-1.1-.5-.7-.7-1.6-.7-2.6 0-2.3.8-5.4 2.3-9.4l4.1-.9h.2l-1.6 5c-.7 2.1-1 3.6-1 4.4 0 .4.1.6.2.9l.6.3c.4 0 .8-.2 1.3-.5.4-.3 1.1-1 2-2l-.1 2zm-.3-16.4c0 2.6-.9 3.8-2.8 3.8-.9 0-1.7-.3-2.4-.8.6-.9 1.1-2 1.4-3.2.8.5 1.5.8 2 .8.7.1 1.2-.1 1.8-.6zM87.6 32c-.7.8-1.6 1.2-2.7 1.2-.8 0-1.7-.4-2.7-1.2-1.1 1.3-2.2 2.3-3 2.9-.9.6-1.8.9-2.9.9-.9 0-1.7-.4-2.3-1.2-.6-.8-.9-1.7-.9-2.9 0-2.2.7-5.2 2-9s2.6-6.7 3.8-8.6c1.4-.4 2.7-.8 3.7-1.1 1.1-.3 1.7-.4 1.8-.4.3 0 .6.2.8.6.2.4.3.9.3 1.5 0 1.2-.5 2.6-1.5 4.2s-2.3 3.2-3.9 4.8L78 25.8c-.7 2.3-1 4-1 5.1 0 .6.1 1.1.4 1.5.3.4.6.5 1.1.5.5 0 1-.2 1.4-.5.4-.3.9-.8 1.4-1.5-.5-.9-.8-1.9-.8-2.8 0-1.5.4-3 1.3-4.3.8-1.3 1.7-2 2.7-2 .4 0 .7.2.9.5.2.3.4.8.4 1.3 0 1.8-1 4.1-2.9 7.2.6.7 1.3 1.1 2 1.1.5 0 .9-.1 1.2-.3.3-.2.8-.7 1.4-1.5l.1 1.9zm-8.7-8.6c1.7-1.7 3-3.3 3.9-4.7.9-1.4 1.3-2.5 1.3-3.3 0-.3-.1-.5-.2-.7l-.5-.3c-1.2 0-2.7 3-4.5 9zM102 32c-.7.8-1.6 1.2-2.7 1.2-.8 0-1.7-.4-2.7-1.2-1.1 1.3-2.2 2.3-3 2.9-.9.6-1.8.9-2.9.9-.9 0-1.7-.4-2.3-1.2-.6-.8-.9-1.7-.9-2.9 0-2.2.7-5.2 2-9s2.6-6.6 3.8-8.6c1.4-.5 2.6-.8 3.7-1.1 1.1-.3 1.7-.4 1.9-.4.3 0 .6.2.8.6.2.4.3.9.3 1.5 0 1.2-.5 2.6-1.5 4.2s-2.3 3.2-3.9 4.8l-2.1 2.1c-.7 2.3-1 4-1 5.1 0 .6.1 1.1.4 1.5.3.4.6.5 1.1.5.5 0 1-.2 1.4-.5.4-.3.9-.8 1.4-1.5-.5-.9-.8-1.8-.8-2.8 0-1.5.4-3 1.3-4.3.8-1.3 1.7-2 2.7-2 .4 0 .7.2.9.5.2.3.4.8.4 1.3 0 1.7-1 4.1-2.9 7.2.6.7 1.3 1.1 2 1.1.5 0 .9-.1 1.2-.3.3-.2.8-.7 1.4-1.5V32zm-8.7-8.6c1.7-1.7 3-3.3 3.9-4.7.9-1.4 1.3-2.5 1.3-3.3 0-.3-.1-.5-.2-.7l-.5-.3c-1.2 0-2.7 3-4.5 9zM119 32c-1.7 1.6-2.9 2.7-3.7 3.2-.7.5-1.4.7-2.1.7-1.7 0-2.5-1.5-2.4-4.5-1.1 1.5-2 2.7-3 3.4-.9.7-1.8 1.1-2.8 1.1-.9 0-1.7-.4-2.4-1.3s-1-2-1-3.2c0-1.6.4-3.1 1.3-4.6.9-1.4 2-2.6 3.4-3.5 1.4-.9 2.6-1.3 3.7-1.3 1.3 0 2.3.6 2.8 1.8l3.3-1.8h.9l-1.4 4.7c-.7 2.4-1.1 4-1.1 4.9 0 .9.3 1.4 1 1.4.4 0 .9-.2 1.4-.7.5-.4 1.2-1.1 2.1-2V32zm-11.7.8c1.1 0 2.1-.9 3-2.7.9-1.8 1.4-3.5 1.4-5 0-.6-.1-1.1-.4-1.4-.3-.3-.6-.5-1.1-.5-1.1 0-2.1.9-3 2.7-1 1.8-1.4 3.5-1.4 5 0 .6.1 1 .4 1.4.3.4.7.5 1.1.5zM126.9 32c-2.5 2.6-4.4 3.9-5.6 3.9-.7 0-1.3-.4-1.7-1.1-.5-.7-.7-1.6-.7-2.6 0-2.3.8-5.4 2.3-9.4l4.1-.8h.2l-1.6 5c-.7 2.1-1 3.5-1 4.4 0 .3.1.6.2.9l.6.3c.4 0 .8-.1 1.3-.5.4-.3 1.1-1 2-2l-.1 1.9zm-.3-16.3c0 2.6-.9 3.8-2.8 3.8-.9 0-1.7-.3-2.4-.8.6-.9 1.1-2 1.4-3.2.8.5 1.5.8 2 .8.7 0 1.2-.2 1.8-.6zM142.6 32c-2.5 2.6-4.6 3.9-6.3 3.9-.7 0-1.3-.3-1.7-.8-.4-.5-.7-1.2-.7-2 0-1.1.5-2.9 1.4-5.2.5-1.3.8-2.1.8-2.4 0-.3-.1-.5-.4-.5l-.6.2c-.2.1-.5.4-.8.6-.3.3-.6.5-.9.9-.3.3-.6.6-.9 1l-.9 1c-.4.5-.6 1-.7 1.5-.2.9-.3 1.7-.3 2.5V35l-3.5.8c-.1-1.4-.2-2.5-.2-3.2 0-1.7.2-3.4.6-4.9.4-1.5 1-3.3 1.9-5.2l3.9-.8c-.8 2.2-1.4 3.9-1.6 5.2 1.7-2 3.1-3.3 4.2-4.1 1-.8 1.9-1.1 2.7-1.1.5 0 1 .2 1.4.6.4.4.5.9.5 1.5 0 1-.5 2.7-1.4 5.1-.6 1.6-.9 2.7-.9 3.1 0 .6.3 1 .8 1 .8 0 2-1 3.8-3.1l-.2 2.1zM40.4 10.9c-.7 0-1.5.1-2.5.1-1 2-2.5 5-2.5 6.3 0 .3.1.5.4.5.6 0 1.7-.6 2.4-2.3h.1l.2.1.1.1s-.6 2.9-2.8 2.9c-.5 0-1.4-.3-1.4-1.6 0-1.5.9-4 1.7-5.8-.3.1-.7.2-1 .2-1 0-1.7-.6-1.7-1.2 0-.4.3-.7.8-1 .3 0 .5.1.5.2l-.1.1-.2-.1c-.2 0-.5.1-.5.5 0 .3.2.5.7.5.5 0 1.1-.2 2-.4.4-.9 1.1-2.7 1-2.7.3 0 1.5.7 1.5 1.4 0 .3-.1.5-.3.8 1.3-.2 2.4-.3 3.4-.3 1.3 0 2.1.2 2.4.2l.4.4c.2.2.5.5.5 1.1l-.2.8c-.2 0-.6-.4-2.6-.6-.6-.2-1.3-.2-2.3-.2zM44.7 15.2c0 .2-1 3.1-2.5 3-.8 0-1.5-1-1.5-2.1 0-.6.1-1 .3-1.7-.8 1.4-1.8 3.5-2.1 4.3-.1.4-.5.7-.9.7s-.9-.3-.9-1.2c0-2.6 2.7-9.2 3-10.1l.2-.6c.1-.3.2-.7.2-.9.1.2 1.5.6 1.5 1.4l-.1.7c-.5 1-3.6 7.4-3.6 9.3 3-5.4 4.3-6.2 4.1-6.7.1 0 1.2.7 1.2 1.3l-.1.4c-.4 1.2-1.5 2.3-1.5 3.7 0 .4.1.8.4.8.5 0 1.3-.7 2-2.3H44.7zM50 15.9c-.3.5-.6.9-.9 1.3-.6.6-1.5 1.3-2.8 1.3-1.9 0-2.5-1.8-2.5-2.9 0-2.4 1.7-4.7 3.6-4.7 1.1 0 1.8.8 1.8 1.5 0 1.5-1.4 2.8-3.1 2.8-.6 0-1-.1-1.1-.3-.1.3-.2.6-.2 1 0 1 .7 1.9 1.7 2 .8 0 1.7-.6 2.1-.9 1.1-.8 1.1-1.1 1.2-1.2h.1l.1.1zm-5-1.4h.3c1.1 0 2.1-1.2 2.1-1.7l-.4-.3c-.3 0-.9.2-1.4.9-.1.3-.4.7-.6 1.1z"/></g><g fill="#fff"><path d="M179.6 27.2l-.5 3.7h1.7v1.2H179l-.7 5.2H177l.7-5.2h-2.3l-.7 5.2h-1.2l.7-5.2h-1.6v-1.2h1.8l.5-3.7h-1.7v-1.1h1.8l.6-4.9h1.2l-.6 4.9h2.3l.6-4.9h1.2l-.6 4.9h1.6v1.1h-1.7zm-3.6 0l-.5 3.7h2.3l.5-3.7H176zM186.5 37.3V21.2h.9v15.3h4.3v.8h-5.2zM201.1 36.7c-.5.5-1.3.8-2.2.8-.9 0-1.7-.3-2.2-.8-1-1-1.1-1.9-1.1-7.5s.2-6.5 1.1-7.5c.5-.5 1.3-.8 2.2-.8.9 0 1.7.3 2.2.8 1 1 1.1 1.9 1.1 7.5s-.2 6.5-1.1 7.5zm-.7-14.3c-.3-.4-.9-.6-1.5-.6-.7 0-1.2.2-1.5.6-.7.8-.9 1.5-.9 6.9s.1 6.1.9 6.9c.3.4.9.6 1.5.6.7 0 1.2-.2 1.5-.6.7-.8.9-1.5.9-6.9s-.1-6.1-.9-6.9zM210.2 37.3h-.9L206 21.2h1l2.8 14.3 2.8-14.3h1l-3.4 16.1zM217.6 37.3V21.2h5.2v.8h-4.3v6.8h3.7v.8h-3.7v6.8h4.3v.8h-5.2zM233.7 36.6c-.6.6-1.4.9-2.5.9-1.3 0-2.2-.5-2.8-1.2-1.1-1.2-1.2-3.1-1.2-7.1 0-4 .1-5.9 1.2-7.1.6-.7 1.5-1.2 2.8-1.2 1.1 0 1.9.3 2.6 1 .8.7 1.1 1.9 1.2 3.2h-2c0-.7-.1-1.4-.5-1.9-.3-.3-.7-.6-1.3-.6-.6 0-1 .2-1.3.6-.6.8-.7 2.1-.7 5.9 0 3.8.1 5.1.7 5.9.3.4.7.6 1.3.6.6 0 1-.2 1.3-.6.4-.5.5-1.1.5-1.8h1.9c.1 1.5-.4 2.7-1.2 3.4zM239.5 37.3V21.2h2v16.2h-2zM252.8 37.3l-4.2-11v11h-1.9V21.2h1.8l4.2 11v-11h1.9v16.2h-1.8zM263.5 22.9v14.4h-2V22.9h-2.7v-1.7h7.4v1.7h-2.7zM275.3 37.3l-.8-3.8h-3.7l-.8 3.8h-2l3.8-16.2h1.9l3.7 16.2h-2.1zm-2.6-13l-1.5 7.4h3l-1.5-7.4zM289.4 37.3v-8.4l-1.8 5.5H286l-1.7-5.5v8.4H281V21.2h2.8l2.9 7.9 2.9-7.9h2.9v16.2h-3.1zM304.4 37.3l-.5-2.5h-3.7l-.5 2.5h-3.4l4.2-16.2h3.2l4.2 16.2h-3.5zM302 25.9l-1.3 6h2.5l-1.2-6zM317.3 37.3v-6.8h-2.7v6.8h-3.2V21.2h3.2v6.5h2.7v-6.5h3.2v16.2h-3.2zM332.3 37.3l-.5-2.5H328l-.5 2.5h-3.4l4.2-16.2h3.2l4.1 16.2h-3.3zm-2.4-11.4l-1.3 6h2.5l-1.2-6zM347.3 36.3c-.7.7-1.7 1.1-3.4 1.1h-4.7V21.2h4.7c1.6 0 2.7.4 3.4 1 .8.8 1.1 1.9 1.1 3.5 0 1-.1 1.9-.8 2.6-.2.2-.4.4-.7.5.3.2.5.4.7.6.7.8.8 2 .8 2.9 0 1.8-.3 3.1-1.1 4zm-3.8-12.2h-1v3.4h1c1.3 0 1.7-.5 1.7-1.7s-.4-1.7-1.7-1.7zm0 6.1h-1v4.2h1c1.3 0 1.7-.6 1.7-2.1 0-1.4-.4-2.1-1.7-2.1zM361 36.3c-.7.7-1.7 1.1-3.4 1.1H353V21.2h4.7c1.6 0 2.7.4 3.4 1 .8.8 1.1 1.9 1.1 3.5 0 1-.1 1.9-.8 2.6-.2.2-.4.4-.8.5.3.2.5.4.7.6.7.8.8 2 .8 2.9 0 1.8-.3 3.1-1.1 4zm-3.8-12.2h-1v3.4h1c1.3 0 1.7-.5 1.7-1.7s-.5-1.7-1.7-1.7zm0 6.1h-1v4.2h1c1.3 0 1.7-.6 1.7-2.1 0-1.4-.5-2.1-1.7-2.1zM373.6 37.3l-.5-2.5h-3.7l-.5 2.5h-3.4l4.2-16.2h3.2l4.2 16.2h-3.5zm-2.3-11.4l-1.2 6h2.5l-1.3-6zM386.5 37.3v-6.8h-2.7v6.8h-3.2V21.2h3.2v6.5h2.7v-6.5h3.2v16.2h-3.2z"/></g></svg>