<?xml version="1.0" encoding="utf-8"?>
<!-- Generator: Adobe Illustrator 17.1.0, SVG Export Plug-In . SVG Version: 6.00 Build 0)  -->
<!DOCTYPE svg PUBLIC "-//W3C//DTD SVG 1.1//EN" "http://www.w3.org/Graphics/SVG/1.1/DTD/svg11.dtd">
<svg version="1.1" id="Layer_1" xmlns="http://www.w3.org/2000/svg" xmlns:xlink="http://www.w3.org/1999/xlink" x="0px" y="0px"
	 viewBox="0 0 561.2 63.5" enable-background="new 0 0 561.2 63.5" xml:space="preserve">
<g>
	<g>
		<g>
			<g>
				<rect x="409.8" y="15.4" fill="#FFFFFF" width="4.4" height="4.4"/>
				<rect x="409.8" y="21.2" fill="#FFFFFF" width="4.4" height="16.1"/>
				<path fill="#FFFFFF" d="M431,37.3h-4.4v-11c0,0,0-1.4-1.5-1.4c-1.5,0-5.1,0-5.1,0v12.4h-4.4V21.2h11c4.4,0,4.4,4.4,4.4,4.4V37.3
					z"/>
				<path fill="#FFFFFF" d="M440.5,37.3h-3.7c-4.4,0-4.4-4.4-4.4-4.4V15.4h4.4v5.8h4.4l-2.2,3.7h-2.2v7.3c0,0,0,1.5,1.5,1.5h2.2
					V37.3z"/>
				<path fill="#FFFFFF" d="M442,21.2h11c4.4,0,4.4,4.4,4.4,4.4v5.1h-11v1.5c0,0,0,1.5,1.5,1.5h7.3l2.2,3.7h-11
					c-4.4,0-4.4-4.4-4.4-4.4V21.2z M446.4,24.9v2.2h6.6v-0.7c0-1.4-1.5-1.4-1.5-1.4H446.4z"/>
				<path fill="#FFFFFF" d="M474.2,37.3h-11c-4.4,0-4.4-4.4-4.4-4.4v-5.8h11v-0.7c0,0,0-1.4-1.5-1.4H461l-2.2-3.7h11
					c4.4,0,4.4,4.4,4.4,4.4V37.3z M469.8,33.6v-2.9h-6.6v1.5c0,1.5,1.5,1.5,1.5,1.5H469.8z"/>
				<path fill="#FFFFFF" d="M497.5,37.3h-4.4v-11c0,0,0-1.4-1.5-1.4c-0.7,0-2.9,0-2.9,0v12.4h-4.4V24.9H480v12.4h-4.4V21.2h17.5
					c4.4,0,4.4,4.4,4.4,4.4V37.3z"/>
			</g>
			<g>
				<path fill="#FFFFFF" d="M454,46h-1.1c0,0-0.1,0-0.1-0.1l-0.9-2.6c0,0,0-0.1-0.1-0.1h-0.9c-0.1,0-0.1,0-0.1,0.1v2.5
					c0,0.1,0,0.1-0.1,0.1h-1c-0.1,0-0.1,0-0.1-0.1v-6.3c0-0.1,0-0.1,0.1-0.1h2.3c1.2,0,1.9,0.8,1.9,1.9v0.1c0,0.5-0.4,1.1-0.8,1.4
					c0,0,0,0,0,0.1c0,0,0,0.1,0.1,0.2l0.9,2.6c0,0.1,0.1,0.1,0.1,0.2C454.1,45.9,454,46,454,46z M452.8,41.3c0-0.4-0.3-0.7-0.7-0.7
					h-1.1c-0.1,0-0.1,0-0.1,0.1V42c0,0.1,0,0.1,0.1,0.1h1.1C452.4,42.1,452.8,41.8,452.8,41.3L452.8,41.3z"/>
				<path fill="#FFFFFF" d="M460.9,46h-3.6c-0.1,0-0.1,0-0.1-0.1v-6.3c0-0.1,0-0.1,0.1-0.1h3.6c0.1,0,0.1,0,0.1,0.1v0.9
					c0,0.1,0,0.1-0.1,0.1h-2.4c-0.1,0-0.1,0-0.1,0.1V42c0,0.1,0,0.1,0.1,0.1h2c0.1,0,0.1,0,0.1,0.1v0.9c0,0.1,0,0.1-0.1,0.1h-2
					c-0.1,0-0.1,0-0.1,0.1v1.5c0,0.1,0,0.1,0.1,0.1h2.4c0.1,0,0.1,0,0.1,0.1v0.9C461,45.9,460.9,46,460.9,46z"/>
				<path fill="#FFFFFF" d="M468,45.2c-0.3,0.5-0.8,0.8-1.6,0.8h-0.5c-1.2,0-1.9-0.8-1.9-1.8v-3.1c0-1.1,0.7-1.8,1.9-1.8h0.5
					c0.9,0,1.3,0.4,1.6,0.9c0.1,0.2,0.2,0.3,0.2,0.4c0,0,0,0.1-0.1,0.1l-0.8,0.4c0,0-0.1,0.1-0.1,0.1c0,0-0.1,0-0.1-0.1
					c-0.2-0.4-0.4-0.6-0.7-0.6h-0.5c-0.4,0-0.7,0.3-0.7,0.7v3.1c0,0.4,0.3,0.7,0.7,0.7h0.5c0.3,0,0.5-0.2,0.7-0.6c0,0,0-0.1,0.1-0.1
					c0,0,0.1,0,0.1,0.1l0.8,0.4c0,0,0.1,0,0.1,0.1C468.2,44.9,468.1,45.1,468,45.2z"/>
				<path fill="#FFFFFF" d="M473.4,46.1h-0.5c-1.2,0-1.9-0.8-1.9-1.8v-3.1c0-1.1,0.7-1.8,1.9-1.8h0.5c1.2,0,1.9,0.8,1.9,1.8v3.1
					C475.4,45.3,474.6,46.1,473.4,46.1z M474.2,41.2c0-0.4-0.3-0.7-0.7-0.7h-0.5c-0.4,0-0.7,0.3-0.7,0.7v3.1c0,0.4,0.3,0.7,0.7,0.7
					h0.5c0.4,0,0.7-0.3,0.7-0.7V41.2z"/>
				<path fill="#FFFFFF" d="M482.9,46h-1.1c0,0-0.1,0-0.1-0.1l-0.9-2.6c0,0,0-0.1-0.1-0.1h-0.9c-0.1,0-0.1,0-0.1,0.1v2.5
					c0,0.1,0,0.1-0.1,0.1h-1c-0.1,0-0.1,0-0.1-0.1v-6.3c0-0.1,0-0.1,0.1-0.1h2.3c1.2,0,1.9,0.8,1.9,1.9v0.1c0,0.5-0.4,1.1-0.8,1.4
					c0,0,0,0,0,0.1c0,0,0,0.1,0.1,0.2l0.9,2.6c0,0.1,0.1,0.1,0.1,0.2C483.1,45.9,483,46,482.9,46z M481.8,41.3
					c0-0.4-0.3-0.7-0.7-0.7h-1.1c-0.1,0-0.1,0-0.1,0.1V42c0,0.1,0,0.1,0.1,0.1h1.1C481.4,42.1,481.8,41.8,481.8,41.3L481.8,41.3z"/>
				<path fill="#FFFFFF" d="M488.5,46h-2.3c-0.1,0-0.1,0-0.1-0.1v-6.3c0-0.1,0-0.1,0.1-0.1h2.3c1.2,0,1.9,0.8,1.9,1.9V44
					C490.4,45.2,489.7,46,488.5,46z M489.3,41.3c0-0.4-0.3-0.7-0.7-0.7h-1.1c-0.1,0-0.1,0-0.1,0.1v4.1c0,0.1,0,0.1,0.1,0.1h1.1
					c0.4,0,0.7-0.3,0.7-0.7V41.3z"/>
				<path fill="#FFFFFF" d="M495.6,46.1h-0.4c-0.9,0-1.3-0.4-1.6-0.8c-0.1-0.1-0.2-0.3-0.2-0.4c0,0,0,0,0.1-0.1l0.8-0.4
					c0,0,0.1-0.1,0.1-0.1c0,0,0.1,0,0.1,0.1c0.2,0.4,0.4,0.6,0.7,0.6h0.4c0.4,0,0.7-0.3,0.7-0.7c0-0.6-0.5-0.8-1.1-1
					c-0.8-0.4-1.7-0.8-1.7-2c0-1.1,0.7-1.8,1.9-1.8h0.2c0.9,0,1.3,0.4,1.6,0.9c0.1,0.2,0.2,0.3,0.2,0.4c0,0,0,0.1-0.1,0.1l-0.8,0.4
					c0,0-0.1,0.1-0.1,0.1c0,0-0.1,0-0.1-0.1c-0.2-0.4-0.4-0.6-0.7-0.6h-0.2c-0.4,0-0.7,0.3-0.7,0.7c0,0.5,0.6,0.7,1.2,1
					c0.8,0.4,1.6,0.8,1.6,2.1C497.5,45.3,496.8,46.1,495.6,46.1z"/>
			</g>
		</g>
		<g>
			<g>
				<g>
					<path fill="#FFFFFF" d="M518.3,55.1c-0.8,0-1.5-0.2-2-0.7c-0.4-0.3-0.6-0.8-0.6-1.2c0-0.5,0.2-0.9,0.6-1.2
						c0.5-0.4,1.3-0.7,2-0.7c0.8,0,1.5,0.2,2,0.7c0.4,0.3,0.5,0.8,0.5,1.2c0,0.4-0.2,0.9-0.5,1.2C519.9,54.9,519.1,55.1,518.3,55.1
						v-0.5c0.4,0,0.8-0.1,1.1-0.4c0.3-0.3,0.4-0.6,0.4-1c0-0.4-0.1-0.8-0.4-1c-0.3-0.3-0.7-0.4-1.1-0.4c-0.4,0-0.8,0.1-1.1,0.4
						c-0.3,0.3-0.4,0.6-0.4,1c0,0.4,0.1,0.7,0.4,1c0.3,0.3,0.7,0.4,1.1,0.4V55.1z M512.5,51.2c-0.4,0-0.9,0.1-1.3,0.3
						c-0.4,0.2-0.7,0.4-0.7,0.9c0,0.4,0.3,0.6,0.3,0.6c0.1,0.1,0.3,0.3,0.7,0.4c0.2,0,0.6,0.1,1.1,0.2c0.4,0,0.9,0.1,1,0.1
						c0.1,0,0.4,0.1,0.4,0.3c0,0.3-0.2,0.3-0.3,0.4c0,0-0.3,0.2-0.9,0.2c-0.4,0-0.9-0.1-1-0.2c-0.2-0.1-0.4-0.2-0.6-0.4
						c0-0.1-0.1-0.2-0.1-0.4h-0.5V55h0.5c0,0,0-0.1,0-0.2c0,0,0-0.1,0.1-0.1c0.1,0,0.4,0.2,0.8,0.3c0.3,0.1,0.5,0.1,0.8,0.1
						c0.6,0,0.9-0.1,1.1-0.1c0.2-0.1,0.4-0.2,0.6-0.3c0.1-0.1,0.3-0.3,0.3-0.7c0-0.4-0.2-0.6-0.3-0.7c-0.1-0.1-0.2-0.2-0.3-0.2
						c-0.1,0-0.3-0.1-0.4-0.1c-0.3-0.1-0.9-0.2-1.2-0.2c-0.3,0-0.9-0.1-1.1-0.1c-0.1,0-0.2-0.1-0.2-0.2c0-0.1,0.1-0.2,0.2-0.3
						c0.2-0.1,0.6-0.2,1-0.2c0.5,0,0.9,0.1,1.1,0.2c0.1,0,0.2,0.1,0.3,0.2c0.1,0.1,0.2,0.2,0.3,0.4h0.4v-1.2h-0.5v0.1
						c0,0,0,0.1-0.1,0.1C513.9,51.5,513.3,51.3,512.5,51.2z M521.4,51.5v0.4h0.4c0.3,0,0.3,0.1,0.3,0.3v2c0,0.1,0,0.3-0.2,0.3
						c-0.3,0-0.5,0-0.5,0v0.4h2v-0.4c0,0-0.2,0-0.5,0c-0.2,0-0.2-0.1-0.2-0.3v-1.7l2.7,2.4h0.7l0-2.7c0-0.2,0-0.3,0.2-0.3
						c0.3,0,0.4,0,0.4,0v-0.4h-2v0.4c0,0,0.2,0,0.4,0c0.2,0,0.2,0.1,0.2,0.3l0,1.4l-2.3-2.1H521.4z M528.6,54.5v0.4h2.3v-0.4
						c0,0-0.4,0-0.4,0l-0.1,0c0,0-0.1,0-0.1-0.1l0-0.1c0-0.1,0-0.6,0-0.7l0-0.1c0,0,1.2-1.4,1.3-1.5c0.1-0.1,0.2-0.2,0.3-0.2
						c0.1,0,0.4,0,0.4,0v-0.4h-1.9v0.4c0,0,0.2,0,0.3,0c0.1,0,0.1,0.1,0.1,0.1l-0.8,1l0,0l-0.8-1c-0.1-0.1,0-0.1,0.1-0.1
						c0.1,0,0.3,0,0.3,0v-0.4h-2.4v0.4c0,0,0.3,0,0.4,0c0.2,0,0.3,0.1,0.4,0.2c0.1,0.1,1.3,1.4,1.3,1.5c0,0,0,0,0,0.1v0.7l0,0.1
						c0,0,0,0.1-0.1,0.1l-0.1,0H528.6z"/>
				</g>
				<path fill="#FFFFFF" d="M560.7,53.7c-0.1,0.3-0.3,0.6-0.6,0.7c-0.2,0.1-0.5,0.2-1,0.2c0,0-0.1,0-0.1,0c-0.1,0-0.2,0-0.2,0
					c-0.3-0.1-0.5-0.2-0.7-0.4c-0.3-0.3-0.4-0.6-0.4-1c0-0.4,0.1-0.7,0.4-1c0.3-0.3,0.7-0.4,1.1-0.4c0,0,0,0,0,0c0,0,0,0,0.1,0
					c0.4,0,0.7,0.1,1,0.2c0.2,0.1,0.5,0.4,0.6,0.7h0.5v-1.3h-0.5v0.1c0,0,0,0,0,0.1c0,0-0.1,0-0.1,0c-0.2-0.1-0.8-0.4-1.5-0.4
					c0,0-0.1,0-0.1,0h0l0,0c-0.7,0-1.5,0.3-1.9,0.7c-0.1,0.1-0.2,0.2-0.3,0.3c-0.2,0.3-0.3,0.6-0.3,0.9c0,0,0,0.1,0,0.1
					c0,0.4,0.2,0.8,0.5,1.1c0.4,0.4,1,0.6,1.6,0.7c0.6,0.1,1.2,0,1.7-0.3c0.4-0.2,0.7-0.6,0.8-1.1c0,0,0,0,0,0H560.7z M539.2,51.5
					l-1,2.2l-1-2.2h-1h0l0,0h-1.2v0.4h0.4c0.3,0,0.3,0.1,0.3,0.3v2c0,0.1,0,0.3-0.2,0.3c-0.3,0-0.5,0-0.5,0v0.4h1.9v-0.4
					c0,0-0.1,0-0.4,0c-0.2,0-0.2-0.1-0.2-0.3l0-2.2h0l1.3,2.9h0.7l1.3-2.9h0l0,2.2c0,0.2,0,0.3-0.2,0.3c-0.3,0-0.4,0-0.4,0v0.4h2.3
					v-0.4c0,0-0.2,0-0.5,0c-0.2,0-0.2-0.2-0.2-0.3l0-2c0-0.1,0-0.3,0.3-0.3h0.4v-0.4h-1.6H539.2z M545.4,51.9c0,0,0.1,0,0.4,0
					c0.2,0,0.2,0.1,0.2,0.2l0,1.7c0,0.4-0.1,0.8-1.2,0.8c-1,0-1-0.7-1-0.8v-1.7c0-0.2,0-0.2,0.2-0.2c0.3,0,0.4,0,0.4,0v-0.4H542v0.4
					c0,0,0.1,0,0.4,0c0.2,0,0.2,0.1,0.2,0.3l0,0v1.7c0,1.1,1.1,1.3,2.1,1.3c1,0,2-0.2,2-1.3l0-1.8c0-0.1,0-0.2,0.2-0.2
					c0.3,0,0.4,0,0.4,0v-0.4h-2V51.9z M555.2,54.4C555.2,54.4,555.1,54.4,555.2,54.4l-0.1-0.2l0-2.2l0-0.1c0,0,0-0.1,0.1-0.1l0.1,0
					c0.1,0,0.4,0,0.4,0v-0.4h-2.4v0.4h0.4l0.1,0c0,0,0.1,0,0.1,0.1l0,0.1l0,2.2l0,0.1c0,0,0,0.1-0.1,0.1l-0.1,0h-0.4v0.4h2.4v-0.4
					c0,0-0.4,0-0.4,0L555.2,54.4z M552.2,53.2c-0.1-0.1-0.2-0.2-0.3-0.2c-0.1-0.1-0.3-0.1-0.4-0.1c-0.3-0.1-0.9-0.2-1.2-0.2
					c-0.3,0-0.9-0.1-1.1-0.2c-0.1,0-0.2-0.1-0.2-0.3c0-0.1,0.1-0.2,0.2-0.3c0.2-0.1,0.6-0.2,1-0.2c0.5,0,0.9,0.1,1.1,0.2
					c0.1,0,0.2,0.1,0.3,0.2c0.1,0.1,0.2,0.2,0.3,0.4h0.4v-1.2h-0.5v0.1c0,0,0,0.1-0.1,0.1c-0.2-0.1-0.8-0.4-1.6-0.4
					c-0.4,0-0.9,0.1-1.3,0.3c-0.4,0.2-0.7,0.4-0.7,0.9c0,0.4,0.3,0.6,0.2,0.6c0.1,0.1,0.3,0.3,0.8,0.4c0.2,0.1,0.7,0.1,1.1,0.2
					c0.4,0,0.9,0.1,1,0.1c0.1,0,0.4,0.1,0.4,0.4c0,0.3-0.2,0.3-0.3,0.4c0,0-0.3,0.2-0.9,0.2c-0.4,0-0.9-0.1-1-0.2
					c-0.2-0.1-0.4-0.2-0.6-0.4c-0.1-0.1-0.1-0.2-0.1-0.4h-0.5V55h0.5c0,0,0-0.1,0-0.2c0,0,0-0.1,0.1-0.1c0.1,0,0.4,0.2,0.8,0.3
					c0.3,0.1,0.5,0.1,0.8,0.1c0.6,0,0.9-0.1,1.1-0.1c0.2-0.1,0.4-0.2,0.6-0.3c0.1-0.1,0.3-0.3,0.3-0.7
					C552.5,53.5,552.3,53.3,552.2,53.2z"/>
			</g>
			<g>
				<g>
					<g>
						<g>
							<path fill="#FFFFFF" d="M513.2,57.7h0.5v0.5c0.2-0.4,0.6-0.6,1-0.6c0.5,0,0.9,0.2,1.2,0.6c0,0,0.1,0.1,0.1,0.1
								c0,0,0-0.1,0.1-0.1c0.3-0.4,0.7-0.6,1.2-0.6c0.4,0,0.8,0.2,1.1,0.6c0.3,0.3,0.3,0.7,0.3,1.1v2.1h-0.5v-2.1
								c0-0.3,0-0.6-0.2-0.8c-0.2-0.3-0.5-0.4-0.8-0.4c-0.3,0-0.6,0.2-0.8,0.4c-0.2,0.2-0.2,0.5-0.2,0.8v2.1h-0.5v-2.1
								c0-0.3,0-0.5-0.2-0.7c-0.2-0.3-0.5-0.4-0.8-0.4c-0.3,0-0.6,0.1-0.8,0.4c-0.2,0.2-0.2,0.5-0.2,0.8v2.1h-0.5V57.7z"/>
							<path fill="#FFFFFF" d="M523.3,61.3h-0.5v-0.7c-0.3,0.5-0.8,0.8-1.4,0.8c-0.6,0-1.2-0.2-1.6-0.8c-0.1-0.1-0.4-0.6-0.4-1.2
								c0-0.5,0.2-1,0.4-1.1c0.6-0.6,1.1-0.8,1.6-0.8c0.6,0,1.2,0.3,1.4,0.8v-0.7h0.5V61.3z M519.9,59.5c0,0.8,0.7,1.4,1.5,1.4
								c0.8,0,1.4-0.7,1.4-1.4c0-0.8-0.6-1.5-1.4-1.5C520.5,58,519.9,58.7,519.9,59.5z"/>
							<path fill="#FFFFFF" d="M524.3,56.4h0.5v3.5l1.7-2.2h0.6l-1.4,1.9l1.5,1.8h-0.6l-1.2-1.5l-0.6,0.8v0.7h-0.5V56.4z"/>
							<path fill="#FFFFFF" d="M527.8,59.7c0,0.7,0.7,1.3,1.4,1.3c0.5,0,1.1-0.3,1.3-0.8h0.5c-0.3,0.7-1,1.3-1.8,1.3
								c-1.1,0-1.9-0.9-1.9-1.9c0-1.1,0.8-1.9,1.9-1.9c0.6,0,1.1,0.3,1.5,0.7c0.3,0.4,0.4,0.9,0.4,1.4H527.8z M530.6,59.2
								c-0.1-0.7-0.7-1.2-1.4-1.2c-0.7,0-1.3,0.5-1.4,1.2H530.6z"/>
						</g>
					</g>
					<g>
						<g>
							<path fill="#FFFFFF" d="M535,56.4h0.5v2c0.2-0.5,0.9-0.8,1.4-0.8c1.1,0,2,0.8,2,1.9c0,0.5-0.2,1-0.4,1.2
								c-0.5,0.6-1,0.7-1.5,0.7c-0.5,0-1.2-0.2-1.5-0.7v0.6H535V56.4z M535.8,58.5c-0.3,0.3-0.4,0.6-0.4,1c0,0.8,0.7,1.4,1.5,1.4
								c0.8,0,1.4-0.7,1.4-1.5c0-0.8-0.7-1.4-1.5-1.4C536.5,58,536.1,58.2,535.8,58.5z"/>
							<path fill="#FFFFFF" d="M540,59.7c0,0.7,0.7,1.3,1.4,1.3c0.5,0,1.1-0.3,1.3-0.8h0.5c-0.3,0.7-1,1.3-1.8,1.3
								c-1.1,0-1.9-0.9-1.9-1.9c0-1.1,0.8-1.9,1.9-1.9c0.6,0,1.1,0.3,1.5,0.7c0.3,0.4,0.4,0.9,0.4,1.4H540z M542.8,59.2
								c-0.1-0.7-0.7-1.2-1.4-1.2c-0.7,0-1.3,0.5-1.4,1.2H542.8z"/>
							<path fill="#FFFFFF" d="M544.1,56.4h0.5v5h-0.5V56.4z"/>
							<path fill="#FFFFFF" d="M545.6,56.4h0.5v0.9h-0.5V56.4z M545.6,57.7h0.5v3.7h-0.5V57.7z"/>
							<path fill="#FFFFFF" d="M547.4,59.7c0,0.7,0.7,1.3,1.4,1.3c0.5,0,1.1-0.3,1.3-0.8h0.5c-0.3,0.7-1,1.3-1.8,1.3
								c-1.1,0-1.9-0.9-1.9-1.9c0-1.1,0.8-1.9,1.9-1.9c0.6,0,1.1,0.3,1.5,0.7c0.3,0.4,0.4,0.9,0.4,1.4H547.4z M550.2,59.2
								c-0.1-0.7-0.7-1.2-1.4-1.2c-0.7,0-1.3,0.5-1.4,1.2H550.2z"/>
							<path fill="#FFFFFF" d="M550.9,57.7h0.5l1.3,3.1l1.3-3.1h0.5l-1.6,3.7h-0.5L550.9,57.7z"/>
							<path fill="#FFFFFF" d="M555.2,59.7c0,0.7,0.7,1.3,1.4,1.3c0.5,0,1.1-0.3,1.3-0.8h0.5c-0.3,0.7-1,1.3-1.8,1.3
								c-1.1,0-1.9-0.9-1.9-1.9c0-1.1,0.8-1.9,1.9-1.9c0.6,0,1.1,0.3,1.5,0.7c0.3,0.4,0.4,0.9,0.4,1.4H555.2z M558,59.2
								c-0.1-0.7-0.7-1.2-1.4-1.2c-0.7,0-1.3,0.5-1.4,1.2H558z"/>
						</g>
					</g>
					<path fill="#FFFFFF" d="M533.6,60.7c0,0.4-0.3,0.7-0.7,0.7c-0.4,0-0.7-0.3-0.7-0.7c0-0.4,0.3-0.7,0.7-0.7
						C533.3,60,533.6,60.3,533.6,60.7z"/>
				</g>
			</g>
			<g id="XMLID_1_">
				<defs>
					<path id="SVGID_1_" d="M550.5,34.8c0.3,0.1,0,0.2-0.1,0.3C550,35,550.5,34.9,550.5,34.8z M544.4,38.9
						C544.4,38.8,544.4,38.9,544.4,38.9L544.4,38.9z M543.4,39.3c0.3-0.1,0.7-0.3,1-0.4c-0.7,0.6-1.5,1.1-2.3,1.5
						c-0.5-0.2,1-0.9,1.1-1 M540.5,40.8c0.3,0.1-0.3,0.3-0.3,0.4c-0.2-0.1-0.5,0-0.6,0.2c-0.1,0-0.3,0-0.4,0
						C539.4,41.1,540.1,41.1,540.5,40.8 M533.7,40.2C533.8,40.2,533.8,40.2,533.7,40.2c0.2,0.1-0.6,0.4-0.7,0.5
						c-0.1,0-0.5,0.1-0.5,0.2c0,0.1,0.2,0.2,0.1,0.3c-0.3,0.2-0.7,0-1.1,0.1c-0.2,0.1-0.2,0.1-0.2,0.3c0,0.1-0.4,0.2-0.6,0.3
						c-0.3,0.2-0.6,0.1-1,0.2c-0.2,0.1-0.5,0.1-0.7,0.2c-0.5,0.1-1,0.2-1.5,0.3c-0.4,0.1-1.5,0.4-1.8,0.2c0,0,0.1-0.2,0.1-0.3
						c-0.5,0-1.2,0.1-1.7,0.1c0.1-0.2,2.2-0.7,2.3-0.6c0.3,0.1,0.6-0.1,0.8-0.1c0.5-0.2,1,0,1.5-0.1c0.2-0.1,0.4-0.1,0.6,0
						c0.1-0.1,0.4-0.1,0.5-0.2c0.3-0.1,0.8-0.3,1.2-0.3c0.3,0,0.3-0.1,0.3-0.2c0.1-0.2,0.5-0.1,0.7-0.2
						C532.7,40.6,533.2,40.4,533.7,40.2 M524.2,40.4c0.1,0.3-1.1,0.4-1.3,0.3c0.2-0.2-0.2-0.2-0.2-0.2c-0.1-0.1,0.2-0.2,0.5-0.1
						C523.7,40.2,524.2,40.2,524.2,40.4 M520.8,39.2c-0.2-0.1,0.1-0.3,0.4-0.2c0.3-0.1,0.9-0.2,1.1-0.1
						C521.9,39.1,521.4,39.2,520.8,39.2z M519.9,39.2c0,0.3-0.9,0.1-0.9,0.1C518.9,39.3,519.6,39.2,519.9,39.2 M559.2,19
						c0.1-0.3,0.1-0.7-0.1-0.9C559.2,18.4,558.9,18.9,559.2,19z M559.2,17.5c0-0.2,0-0.4-0.1-0.5C559,17.2,559,17.4,559.2,17.5z
						 M558.8,17.5c0-0.2,0-0.3-0.1-0.5c-0.1-0.3-0.1-0.6-0.2-0.9c-0.1-0.6-0.2-1.1-0.3-1.7c-0.1-0.2-0.1-0.5-0.2-0.7
						c-0.1-0.3-0.1-0.6-0.2-0.9c-0.2-0.3-0.2-0.9-0.6-1.4c0,0.3,0.6,0.9,0.2,1.2c-0.1,0-0.2,0-0.5-1c-0.1-0.3-0.4-0.6-0.5-0.9
						c-0.3-0.1-0.3-0.5-0.5-0.6c-0.1-0.1-0.3-0.2-0.3-0.4c0,0,0.2,0,0.1-0.1c-0.2,0-0.4,0.1-0.3-0.3c0.1-0.2-0.8-0.3-0.5-0.6
						c0.1-0.1,0.2,0.1,0.2,0c-0.2-0.2-0.4-0.2-0.5-0.4c-0.2-0.2-0.1-0.3-0.3-0.4c-0.1-0.1-0.3,0-0.2-0.2c-0.1-0.1-0.4-0.5-0.2-0.4
						c0.6,0.3,1.1,1,1.5,1.4c0.2,0.2,0.1,0.2,0.3,0.4c0.2,0.1,0.3,0.3,0.4,0.5c0.1,0.2,0.3,0.7,0.5,0.6c0,0,0-0.1-0.1-0.2
						c-0.1,0.1-0.2-0.5-0.5-0.7c-0.5-0.3-0.6-0.9-1.1-1.1c-0.2-0.4-0.6-0.8-0.9-1.1c-0.2-0.2-0.5-0.5-0.7-0.6
						c0.1-0.2,0.1-0.2-0.1-0.2c0,0.2-0.4-0.1-0.4-0.2c-0.1,0,0.1-0.4-0.2-0.3c-0.2,0-0.3-0.4-0.5-0.5c-0.2-0.1-0.7,0.1-0.8-0.3
						c-0.1-0.4,0.4,0.1,0.5-0.2c-0.2-0.1-0.4-0.2-0.6-0.4C551,4.1,551,4,550.6,3.9c-0.2-0.1-0.3-0.2-0.5-0.4
						c-0.2-0.2-0.4-0.3-0.6-0.4c-0.2-0.1-0.3-0.2-0.5-0.3c-0.1,0-0.1,0.4-0.3,0.1c-0.2-0.3-0.2-0.3-0.5-0.5
						c-0.2-0.1-0.4-0.3-0.6-0.3c0.2,0.3,0.6,0.3,0.8,0.7c-0.2,0-0.4-0.1-0.4,0.1c-0.2-0.2-0.5-0.3-0.8-0.3c-0.2-0.3-0.1-0.2-0.4-0.1
						c-0.3-0.3-0.5-0.9-0.9-0.5c-0.1-0.2-0.2-0.2-0.3-0.1c0-0.2-0.2-0.2-0.3-0.3c0,0.1,0.2,0.3,0,0.4c-0.1,0-0.2,0-0.3-0.2
						c-0.1-0.2-0.1-0.7-0.4-0.7c0.1,0.1,0.1,0.2-0.1,0.2c-0.2,0.1-0.1,0.1-0.1,0.3c0,0.2-0.3,0.1-0.3,0c0-0.2,0.1-0.3,0-0.5
						c0.4,0,0.3-0.3-0.1-0.3c0.1,0-0.3,0.2-0.3,0.1c0.1,0,0.1,0,0.1,0.1c-0.2,0.1,0,0.2,0,0.3c-0.1-0.1-0.4-0.1-0.4-0.3
						c0,0,0.2-0.8,0-0.5c0,0.1-0.1,0.1-0.1,0.2c0,0.2-0.1,0-0.2,0.2c-0.1,0.2,0,0.3,0,0.5c-0.2-0.1-0.4-0.2-0.6-0.1
						c0,0.2-0.1,0.2-0.2,0.1c-0.1,0-0.4,0-0.4-0.2c0.1,0,0.4,0,0.5-0.1c0.2-0.2-0.1-0.2-0.2-0.2c-0.3,0.1-0.6,0.3-0.8,0
						c0.3,0,0.1-0.1,0.3-0.3c0.1-0.2,0.3,0.1,0.3-0.1c0-0.1-0.3,0-0.3-0.1c0-0.1,0.2,0,0.2-0.1c0.2-0.2-0.4-0.1-0.4-0.1
						c0,0,0,0.1,0,0.1c-0.3,0.2-0.7-0.6-1.1-0.3c0.2,0,0.5,0.1,0.5,0.3c-0.2,0-0.6-0.2-0.7,0.1c0.4,0.1,0.9,0,1.2,0.3
						c-0.2,0.2-0.6,0-0.8,0.1c0,0.1,0.1,0.2,0.1,0.2c-0.5,0-0.7,0.2-1.2,0.1c-0.5-0.1-1-0.2-1.5-0.2c-0.1,0.3,1.1,0.2,1.2,0.4
						c-0.2,0.1-0.4,0-0.6-0.1c0,0.3,0.4,0.3,0.5,0.5c-0.2,0-0.4,0-0.6-0.1c-0.3,0-0.8-0.3-1.2-0.2c0.3,0.1,0.6,0.3,1,0.4
						c-0.4-0.1-1-0.1-1.4-0.3c-0.2-0.1-0.3-0.2-0.5-0.1c-0.1,0-0.4-0.1-0.4,0c0,0,1,0.3,1.2,0.3c0.3,0.1,1.3,0.1,1.1,0.5
						c0.2,0,0.5,0.1,0.7,0.1c-0.2,0.3,0.7,0.2,0.9,0.2c0.4,0.1,0.8,0.2,1.2,0.4c-0.3,0-0.2,0.2-0.5,0.1c-0.3-0.1-0.2-0.1-0.4,0
						c0,0-0.6-0.2-0.7-0.2c-0.3,0-0.6-0.1-0.8,0c0.2,0.1,0.7,0,0.8,0.3c-0.2,0-0.3,0-0.5,0c0.2,0.3-0.2,0.1-0.3,0.3
						c0,0,0.2,0,0.1,0.1c-0.2,0-0.5,0-0.7,0.1c0-0.1-0.3-0.3-0.4-0.3c-0.1,0.1-0.9,0.1-1,0c-0.3-0.3-0.2,0.1-0.3,0.2
						c-0.2,0.2-0.3,0.2-0.5,0.1c-0.3-0.1-0.6,0.1-0.9,0c-0.4,0-0.7-0.2-1.1-0.1c0.4,0.2,0.9,0.3,1.3,0.4c-0.2,0.2-0.4-0.1-0.6,0
						c-0.2,0.2,0.3,0.2,0.3,0.3c0,0-0.9-0.1-1.1-0.1c-0.3-0.1-0.6-0.5-1-0.3c0,0.2,0.7,0.3,0.9,0.5c-0.1,0-0.3-0.2-0.3,0
						c0.4,0.1,0.8,0.2,1.1,0.4c-0.2,0-0.3-0.1-0.5-0.1c-0.1,0.4,1.5,0.2,1.4,0.7c-0.2,0-1.4-0.1-1.4-0.2c0,0.1,0.4,0,0.5,0.2
						c-0.1,0-0.1,0-0.1,0.1c0.1,0,0.6,0.5,0.6,0.4c0,0-0.8-0.1-0.9-0.1c-0.2-0.1-0.2,0-0.4-0.1c-0.1-0.1-0.4-0.2-0.6-0.1
						c0.3,0,0.3,0.3,0.6,0.3c0.3,0.1,0.6,0.2,0.8,0.4c-0.1,0-0.3,0-0.3,0.1c0.1,0,0.6,0.2,0.5,0.3c-0.2-0.2-0.2,0.1-0.1,0.1
						c-0.4,0-0.7-0.2-1-0.2c-0.4,0-0.8-0.5-1.3-0.4c0.1,0,0.2,0.1,0.2,0.2c0,0-0.9-0.2-1.1-0.1c0.2,0.2,0.6,0.3,0.8,0.5
						c-0.3,0-0.9-0.4-1.1-0.2c0.2,0,0.4,0.1,0.8,0.2c0.6,0.1,1.2,0.3,1.2,0.6c-0.3,0-0.7-0.3-1-0.1c0.6,0.3,1.6,0.4,1.3,0.5
						c-0.1,0.1-0.4,0-0.5,0c-0.4-0.1,0,0.2-0.4,0.2c-0.1,0-0.7-0.3-0.7,0c-0.2,0-0.6-0.3-0.7-0.1c0.1,0,0.2,0,0.2,0.1
						c0,0.1-1.3-0.2-0.5,0.3c0.4,0.3,1.1,0.3,1.2,0.5c-0.6,0-1.1-0.5-1.7-0.3c0,0.2,0.3,0.2,0.3,0.4c-0.2,0-0.6-0.3-0.8-0.1
						c0.3,0.2,0.5,0.3,0.8,0.4c-0.4,0,0.6,0.5,0.7,0.5c0,0.3-0.5,0-0.6,0.2c-0.1,0.4,1.8,0.4,1,1c0.2,0,0.3,0,0.4,0.1
						c-0.6-0.1-1.2-0.4-1.9-0.4c0.2,0.2,0.5,0.2,0.6,0.4c-0.1,0-0.4-0.1-0.3,0.1c0.2,0.1,0.5,0.2,0.7,0.3c-0.1,0-0.3-0.1-0.3,0.1
						c0.2,0.1,0.6,0.2,0.8,0.4c-0.2,0.1-0.5-0.2-0.6,0c0.2,0.2,0.5,0.1,0.7,0.3c-0.1,0.1-0.2,0.1-0.1,0.3c-0.1,0-0.1,0-0.2,0
						c0.1-0.1-0.2,0.2-0.2,0.2c0.4,0.1,0.7,0.4,1.1,0.4c0.4,0.1,0.7,0.4,1.1,0.5c0.7,0.2,1.4,0.3,2.1,0.5c0.3,0.1,0.5,0.3,0.7,0.4
						c0.4,0.2,0.9,0.3,1.3,0.4c0.2,0.1,0.5,0.2,0.7,0.3c0.3,0,0.4,0,0.7,0.1c0.4,0.2,0.9,0.4,1.3,0.6c0.4,0.2,0.7,0.4,1.1,0.6
						c1.2,0.5,2.2,1.7,2.5,2.9c0.2,0.8,0.2,1.8-0.1,2.6c-0.3,0.7-0.8,1.4-1.1,2c-0.2,0.3-0.4,0.5-0.6,0.8c-0.2,0.2-0.3,0.7-0.5,0.8
						c-0.1,0-0.3,0.4-0.4,0.4c-0.3,0.2-0.6,0.6-0.9,0.8c-0.2,0.2-0.5,0.4-0.8,0.6c-0.2,0.1-0.3,0.1-0.5,0.3
						c-0.1,0.1-0.3,0.3-0.4,0.4c-0.7,0.5-1.5,0.9-2.3,1.3c-1,0.5-2.2,0.8-3.3,1c0,0.2-0.3,0-0.5,0.1c-0.3,0-0.5,0-0.8,0.1
						c-1,0-2,0.1-3,0.1c-0.4,0-0.9,0-1.3,0c-0.4,0.2-1-0.2-1.4,0.1c0.4,0,0.9,0.1,1.3,0.2c0.6,0.1,1.2,0,1.8,0c0.5,0,1,0,1.5,0.1
						c0.3,0,0.8-0.2,1,0.1c-0.2,0-0.3,0.1-0.4,0.2c-0.2,0.1-0.4,0.1-0.6,0.1c-0.5,0-0.9,0-1.4,0.1c-0.9,0.1-1.8,0.2-2.7,0.2
						c-0.8,0-1.6,0.1-2.4,0.1c-0.4,0-1.8-0.2-2.1,0c0.2,0,0.6-0.1,0.8,0.1c-0.6,0-1.2,0.1-1.8,0.3c0.5,0.2,0.3,0.3-0.2,0.4
						c-0.2,0-1.5,0.3-1.6,0.2c0.1,0.1,0.6,0,0.8,0c0.3-0.1,0.6,0.1,0.9,0c0,0.4,0.8,0.2,1,0.3c0,0-0.7,0.2-0.7,0.2
						c0.5,0.4,1.4-0.3,1.7,0.1c-0.3,0.2-0.7-0.1-1,0.1c1.4,0.1,2.7,0.1,4.1,0.1c0.3,0,0.4-0.1,0.6,0.1c0.1,0.1,0.4,0.1,0.5,0
						c0.1-0.1,0.3-0.1,0.4-0.1c0.4,0,0.6-0.2,0.6,0.2c0.1,0,0.4-0.2,0.5,0.1c-0.4,0.1-0.9,0.1-1.3,0.1c-0.1,0-0.1,0-0.1,0.1
						c0.2,0,0.4,0,0.6,0c0.3,0,0.7-0.1,1-0.1c0.3,0,0.1,0.1,0.2,0.1c1.2,0,2.6-0.4,3.9-0.2c-0.3,0.7-2,0.5-2.6,0.5
						c-0.3,0-0.6,0.1-0.9,0.1c-0.2,0-0.4-0.1-0.6-0.1c-0.2,0-0.4,0.2-0.6,0.2c-0.2,0-0.6-0.1-0.7,0.1c0.4-0.2,0.3,0.1,1.3,0
						c0.4-0.2,0.9,0,1.3,0.1c-0.5,0.2-0.9,0.5-1.5,0.6c-0.5,0.1-1,0.3-1.5,0.4c-1.1,0.2-4.1,0.6-3.6,0.2c0.2-0.1,0.2-0.1,0.3-0.1
						c-0.5,0.1-1.1,0.2-1.6,0.2c-0.2,0.2-0.7,0-1,0.1c-0.5,0.2-1.9,0.1-2.3,0.2c0,0.1,0.5,0,0.5,0.1c-0.6,0.1-1.1,0-1.7,0.1
						c-0.7,0.1,0.2,0.1,0,0.3c-0.1,0-0.9,0-0.9,0.1c0.7-0.1,1.4-0.1,2,0.1c-0.1,0.1-0.3,0.1-0.5,0.2c-0.3,0.1,0,0.3-0.2,0.3
						c-0.2,0-0.5,0.2-0.7,0.3c-0.2,0-0.4,0-0.6,0.1c0.2,0.1-0.2,0.1-0.2,0.2c0.1,0,0.5-0.1,0.5,0.1c0,0-0.1,0.1-0.2,0.1
						c0.1,0.2-0.3,0.1-0.5,0.2c0,0.3-0.5,0-0.5,0.3c0.3,0.1,0.6-0.2,0.9,0c0.3,0.2-0.4,0.2-0.4,0.3c0.6,0.1-0.1,0.1,0,0.4
						c0.1,0,0.3-0.2,0.4,0c-0.1,0.1-0.3,0-0.4,0.2c0.1,0,0.2,0,0.2,0.1c-0.2,0-0.5,0-0.5,0.2c1.1-0.1,2.2-0.1,3.3-0.2
						c1-0.1,2.1-0.3,3.1-0.3c0.1,0,0.2,0,0.1,0.1c0.3,0.1-0.9,0-1.2,0.3c0.3,0,0.7-0.2,1,0c-0.4,0.1-0.7,0.4-1.1,0.3
						c-0.5-0.1-1-0.1-1.5,0c-0.5,0.1-1,0-1.5,0.1c-0.5,0.1-1.1,0.1-1.6,0.1c0.1,0.4,0.5,0,0.7,0.2c-0.2,0.1-0.4,0.2-0.6,0.3
						c0.5,0,1-0.3,1.5-0.1c-0.2,0.4-0.8,0.2-1,0.5c0.2,0,0.5-0.1,0.7,0c0,0.2-0.3,0.1-0.4,0.3c0.3,0.1,0.6,0,0.2,0.3
						c0.3,0.1,1.3-0.3,1.4,0.2c-0.2-0.1-0.5,0-0.7,0c-0.4,0-0.2,0.1,0,0.1c0.2,0,0.1,0.2-0.1,0.2c-0.2,0.1-0.6,0-0.7,0.2
						c0.2,0,0.2-0.1,0.4-0.1c-0.1,0.2-0.1,0.3,0.2,0.2c0.2,0,0.4,0,0.6,0c0.5,0,1,0.1,1.5,0.1c0.8,0,1.5-0.1,2.3-0.1
						c0.7,0,1.5,0,2.3-0.1c0.3,0,1.8-0.4,1.9,0.2c-0.1,0.1-0.4-0.1-0.5,0.1c-0.2,0.2-0.6,0.1-0.9,0c-0.2,0-1.5,0.1-1.5,0.4
						c0.7-0.1,1.3,0,2-0.2c0.4-0.1,0.1,0.1,0.4,0.1c0.3,0,0.5-0.1,0.8-0.2c0.3-0.1,0.6-0.1,1-0.1c0.2,0,0.7-0.3,0.9-0.1
						c0,0,0.2,0,0.4,0c0.4,0,0.9-0.1,1-0.2c-0.3-0.2-0.6,0.1-1,0c-0.3,0.1-0.4,0.4-0.6,0.1c0,0-0.1-0.2,0-0.2c0.2,0,0.3,0,0.4-0.2
						c0.1-0.4,0.2,0,0.5,0c0-0.1,0-0.4,0.3-0.2c0.3-0.1,0.8-0.1,1-0.3c0.2-0.1,0.5,0,0.7-0.2c0.3-0.2,0.7-0.2,1-0.3
						c0.3-0.1,0.5-0.3,0.8-0.3c0.4,0,0.5-0.3,1-0.3c0.7,0.1,1-0.5,1.6-0.7c0.3-0.2,1.1-0.4,1.6-0.5c0.7-0.2,1.2-0.6,1.9-0.8
						c0.3-0.1,0.4-0.1,0.6-0.3c0.1-0.2,0.3-0.2,0.5-0.3c0.1-0.1,0.3-0.2,0.5-0.2c0.2,0,0.7-0.3,0.9-0.2c-0.3,0.4-0.8,0.6-1.2,0.8
						c-0.6,0.3-1.1,0.7-1.7,0.9c-0.4,0.1-0.8,0.4-1.1,0.6c-0.5,0.3-1.1,0.5-1.7,0.6c0-0.1,0.4-0.4,0.2-0.4c-0.2,0.2-0.4,0.3-0.7,0.4
						c-0.6,0.2-1.2,0.3-1.8,0.6c-0.2,0.1-0.5,0.2-0.7,0.3c-0.1,0.1-0.2,0.1-0.3,0.2c-0.2,0.2-0.4,0.1-0.6,0.2
						c-0.2,0.1-0.4,0.1-0.7,0.1c-0.2,0.1-0.8,0.2-1,0.3c0.3,0,0.6-0.1,1-0.1c0.3,0,0.6,0,0.8,0c0.4-0.1,1.2-0.5,1.5-0.2
						C534,43,533,43,533,43.4c0.4-0.2,0.9-0.2,1.3-0.4c0.3,0,1-0.4,1.2-0.3c0.2,0.1,0.6-0.3,1.3-0.3c0.4,0,1-0.5,1.3-0.3
						c-0.1,0-0.5,0.3-0.5,0.3c-0.1,0.2,0.9-0.3,1-0.3c0.4-0.1,1.1-0.5,1.3-0.4c0,0.2-0.2,0.1-0.3,0.3c0.6-0.2,1.1-0.6,1.6-0.9
						c0.5-0.3,1.1-0.5,1.6-0.7c0.5-0.3,0.9-0.6,1.4-0.9c0.2-0.1,1.3-0.8,1.6-0.7c-0.1,0.3-0.5,0.6-0.8,0.7c-0.2,0.1-0.5,0.3-0.7,0.5
						c-0.1,0.1-1.2,0.6-1.1,0.8c0.1-0.2,0.3-0.2,0.5-0.3c0.2-0.1,0.4-0.3,0.6-0.4c0.5-0.2,1.1-0.6,1.6-0.9c0.8-0.5,1.5-1.2,2.1-1.8
						c0.1-0.1,0.3-0.2,0.4-0.4c0.3-0.3,0.7-0.7,1.1-1.1c0.3-0.3,0.4-0.4,0.5-0.7c0.1-0.2,0.4,0,0.3,0.1c-0.1,0.2-0.2,0.2-0.2,0.4
						c-0.2,0.1-1,0.7-0.7,1c0.1-0.5,0.5-0.7,0.8-1c0.1-0.2,0.3-0.3,0.4-0.4c0-0.2,0-0.5,0.2-0.5c0.4,0,0.4,0,0.3-0.2
						c0,0-0.1,0,0-0.1c0.1-0.2,0.5-0.4,0.4-0.6c-0.1,0-0.1,0.1-0.2,0.1c-0.4-0.1,0.1-0.2,0.1-0.3c0.2-0.1,0.2-0.1,0.2-0.4
						c0-0.3,0.5-0.7,0.5-1c0.1,0,0.2,0.1,0.2,0.2c0-0.1,0-0.3,0.1-0.3c0.4-0.7,0.7-1.2,1.1-1.8c0.1-0.2,0.3-0.5,0.4-0.6
						c0-0.1,0.1-0.2,0.2-0.2c0-0.2,0-0.2,0-0.3c0-0.1,0.3-0.8,0.4-0.6c0.3,0.5-0.5,1.6-0.7,2c-0.1,0.2-1.1,1.6-1,1.7
						c0-0.1,0-0.1,0.1,0c-0.1,0.1-0.7,0.3-0.6,0.6c0,0.1-0.6,0.6-0.2,0.6c0-0.2,0.4-0.4,0.3-0.6c0.4-0.3,0.6-0.6,0.9-1
						c0.2-0.3,0.3-0.8,0.6-1.2c0.1-0.1,0.1-0.2,0.1-0.3c0.2-0.4,0.5-0.9,0.7-1.3c0,0.2-0.2,0.7,0,0.8c0.2-0.3,0.2-0.9,0.6-1.1
						c0.1-0.4,0.6-0.9,0.6-1.3c0,0.1,0,0.2-0.1,0.2c-0.2,0-0.1-0.4,0-0.4c0.2-0.4,0.2-0.8,0.6-1c0-0.4,0.3-0.5,0.4-0.8
						c0.2-0.4,0.5-0.6,0.5-1.1c0.1,0,0.3-0.5,0.3-0.1c0,0.4-0.2,1-0.4,1.4c-0.2,0.4-0.3,0.7-0.5,1.1c-0.2,0.4-0.6,0.8-0.4,1.3
						c0-0.3,0.2-0.9,0.5-1.1c0.1-0.1,0.1,0,0.2,0c0,0.1-0.2,0.3-0.1,0.4c0.3-0.5,0.2-1,0.6-1.3c0.1-0.5,0.2-1.1,0.5-1.5
						c-0.2,0-0.3,1.1-0.6,0.9c0.1-0.7,0.3-1.5,0.6-2.2c0-0.1,0-0.3,0.1-0.4c-0.1-0.2,0-0.4,0-0.6c0.1-0.4,0.3-0.8,0.3-1.2
						c-0.1,0.1-0.1,0.3-0.3,0.3c0-0.3,0.2-0.7,0.1-1.1c0-0.1-0.1-0.6,0.3-0.6c0,0.1,0,0.1,0.1,0.1C558.7,18.9,558.9,18.3,558.8,17.5
						 M558.8,15.1c0-0.4,0-0.5-0.1-0.6C558.5,14.7,558.6,14.9,558.8,15.1z M558.6,14c0-0.2-0.1-0.5-0.2-0.7c-0.1-0.3,0-0.4-0.2-0.7
						C558.3,13,558.4,13.8,558.6,14 M548.7,37.8c-0.1-0.2,0.2-0.2,0.3-0.4c-0.2,0-0.9,0.7-0.9,0.9c0,0.3-1,0.7-1.1,1
						c0,0,0.1-0.1,0.1-0.1c0,0-0.3,0.5-0.4,0.4c-0.1,0-0.4,0.1-0.6,0.4c-0.2,0.1-0.3,0.1-0.3,0.2c0.2,0,0.3-0.1,0.4-0.2
						c0.2-0.1,0.1-0.2,0.2-0.2c0,0,0.3-0.1,0.4-0.2c0.3-0.3,0.5-0.3,0.7-0.6c0.1-0.1,0.4-0.3,0.4-0.4
						C548.1,38.2,548.4,38,548.7,37.8 M547.4,2c-0.3,0-0.5-0.3-0.7-0.2C547,1.8,547.2,2.2,547.4,2z M542.6,41
						c0.2-0.1,0.4-0.1,0.5-0.3c-0.4,0.1-0.9,0.3-1.2,0.6C542.2,41.3,542.4,41.1,542.6,41 M541.5,41.7c0-0.1,0.1-0.1,0.1-0.3
						C541.5,41.4,541.3,41.6,541.5,41.7z M539.9,0.7c-0.2,0-0.7-0.3-0.8,0C539.5,0.7,539.6,0.9,539.9,0.7z M538.9,3.1
						c-0.2,0-0.3,0-0.3,0.1C538.7,3.3,538.9,3.3,538.9,3.1z M538,0.7c0.4-0.1,0.6,0.2,0.8-0.1C538.5,0.6,538.1,0.5,538,0.7z
						 M538.5,3.3c0-0.2-0.4-0.3-0.5-0.1C538.2,3.2,538.2,3.4,538.5,3.3z M537.5,0.5c0,0-0.4,0-0.4,0.1
						C537.2,0.5,537.5,0.6,537.5,0.5 M536.4,3.2c0.3,0,0.9,0.3,1,0.1c-0.1-0.1-0.5-0.3-0.8-0.2c-0.3-0.1-0.5-0.1-0.5,0.1
						C536.3,3.2,536.4,3.2,536.4,3.2 M537.1,41c0-0.1,0.1-0.1,0.1-0.2c-0.1,0-0.2,0-0.2,0.2C537,41,537.1,41,537.1,41 M536.5,42.9
						c0.2-0.2,0.7,0,0.8-0.3C537,42.6,536.4,42.7,536.5,42.9z M536.2,3.3c-0.1,0-0.3-0.2-0.3,0C535.9,3.4,536.2,3.5,536.2,3.3z
						 M535.6,43.2c0.1-0.2,0.6,0,0.5-0.3C535.9,43,535.4,43.1,535.6,43.2z M532.8,43.4c-0.2,0-0.3,0-0.3,0.1
						C532.7,43.5,532.8,43.5,532.8,43.4z M532.7,3.9c-0.2,0-0.3-0.2-0.4,0.1C532.4,3.9,532.7,4,532.7,3.9z M532.2,43.5
						c-0.3,0.1-0.7,0-0.8,0.3C531.6,43.8,532.2,43.7,532.2,43.5z M531.5,6.8c-0.2,0-0.4-0.2-0.5,0.1C531.2,6.9,531.4,7.1,531.5,6.8z
						 M530.9,43.2c-0.2,0-0.5,0.1-0.3,0.2C530.6,43.3,530.8,43.3,530.9,43.2z M530.4,11.8c0,0.2,0.4,0.4,0.5,0.2
						c-0.2,0-0.6-0.5-1.1-0.4C530,11.7,530.2,11.8,530.4,11.8 M527.1,34.8c-0.1-0.1-0.1-0.2-0.4-0.2c-0.1,0-0.2-0.1-0.3-0.1
						c-0.1,0-0.2,0-0.3,0.1c-0.2,0-0.4,0.1-0.5,0.1c0.3,0,0.5,0.1,0.7,0C526.7,34.7,527,34.6,527.1,34.8 M524.9,34.8
						c0.2-0.1,0.6,0.1,0.5-0.1C525.2,34.6,525,34.7,524.9,34.8z M521.2,33.8c0-0.5-0.7-0.1-0.6-0.1
						C520.6,33.8,521.1,33.8,521.2,33.8 M519.8,32.7c-0.3,0-0.6,0-1,0c0,0-0.5,0-0.5,0c-0.2,0.2,0.6,0.2,0.6,0.2
						C519.2,32.8,519.7,32.9,519.8,32.7 M517.1,37.1c0.3,0.1,0.8-0.1,0.2-0.1C517.4,36.9,517.2,37,517.1,37.1z"/>
				</defs>
				<clipPath id="SVGID_2_">
					<use xlink:href="#SVGID_1_"  overflow="visible"/>
				</clipPath>
				<g transform="matrix(1 0 0 1 3.051758e-05 0)" clip-path="url(#SVGID_2_)">
					
						<image overflow="visible" width="426" height="415" xlink:href="99775256C9372BA1.png"  transform="matrix(0.1202 0 0 0.1202 508.5331 -4.6549)">
					</image>
				</g>
				<rect x="508.7" y="-4.6" clip-path="url(#SVGID_2_)" fill="#EE4036" width="50.8" height="49.6"/>
			</g>
		</g>
	</g>
	<g>
		<path fill="#FFFFFF" d="M151.5,32.7l0,0.6l-0.1,0.6l-0.1,0.6l-0.1,0.6l-0.2,0.6l-0.2,0.5l-0.3,0.5l-0.3,0.5
			c-0.3,0.3-0.5,0.6-0.8,0.9c-0.3,0.3-0.5,0.5-0.9,0.8c-0.3,0.3-0.6,0.5-0.9,0.7c-0.3,0.2-0.6,0.4-1,0.6c-0.6,0.4-1.3,0.7-2,1.1
			c-0.3,0.2-0.7,0.3-1,0.5c-0.3,0.1-0.7,0.3-1,0.4c-0.7,0.3-1.4,0.6-2.1,0.8c-0.7,0.2-1.4,0.5-2.1,0.7c-3.2,0.9-6.7,1.7-10.5,2.4
			c-3.8,0.7-7.8,1.3-11.9,1.8c-4.1,0.5-8.4,1-12.8,1.5c-4.4,0.4-8.8,0.9-13.2,1.3c-4.4,0.4-8.8,0.9-13.1,1.3
			c-4.3,0.5-8.5,1-12.6,1.5c-4.1,0.6-7.9,1.2-11.6,1.9c-3.7,0.7-7,1.6-10.1,2.5c-0.3,0.1-0.7,0.2-1,0.3c-0.3,0.1-0.7,0.2-1,0.3
			L40,58.7l-0.5,0.2l-1,0.3c-0.3,0.1-0.7,0.2-1,0.3c-0.3,0.1-0.7,0.2-1,0.3c-0.3,0.1-0.6,0.2-1,0.3c-0.3,0.1-0.6,0.2-1,0.3
			c-0.3,0.1-0.7,0.2-1,0.3c-0.3,0.1-0.6,0.2-0.9,0.3l-0.5,0.2l-0.5,0.2l-0.5,0.2l-0.5,0.2c-0.3,0.1-0.6,0.2-0.9,0.3
			c-0.3,0.1-0.6,0.2-0.9,0.4c-0.6,0.3-1.2,0.5-1.7,0.7l-0.8,0.4c-0.1-2.2-0.6-4.2-1.5-6.1c-0.9-1.9-2-3.5-3.4-4.9
			c-1.4-1.4-3-2.5-4.9-3.3c-1.9-0.8-3.8-1.2-5.9-1.2c-1.2,0-2.3,0.1-3.4,0.4c-1.1,0.3-2.2,0.6-3.2,1.1l0.8-0.7l0.8-0.6
			c0.6-0.4,1.2-0.8,1.8-1.1c0.6-0.3,1.1-0.7,1.7-0.9c0.5-0.3,1.1-0.5,1.6-0.7c0.5-0.2,1-0.4,1.5-0.6c0.5-0.2,1-0.3,1.4-0.5
			c0.5-0.1,0.9-0.3,1.4-0.4c0.5-0.1,0.9-0.2,1.4-0.3c0.5-0.1,0.9-0.2,1.3-0.3c0.4-0.1,0.9-0.2,1.3-0.3c0.4-0.1,0.9-0.2,1.3-0.2
			c0.4-0.1,0.8-0.1,1.3-0.2c0.4-0.1,0.8-0.1,1.2-0.2c0.4,0,0.8-0.1,1.2-0.1c0.8-0.1,1.6-0.2,2.4-0.2l0.6,0l0.6-0.1l0.6,0l0.6,0
			c0.4,0,0.8-0.1,1.2-0.1c0.4,0,0.8,0,1.1-0.1c0.4,0,0.8,0,1.2,0c0.4,0,0.8,0,1.1,0l2.3-0.1h1.1l1.1,0c0.4,0,0.8,0,1.1,0
			c0.4,0,0.7,0,1.1,0c0.4,0,1.4,0,3.2,0c1.8,0,4.2,0,7.3,0c3.1,0,6.8,0,11.1,0.1c4.3,0,9.3,0.1,14.7,0.1c5.5,0,11.5,0.1,18.1,0.2
			c6.6,0.1,13.7,0.2,21.3,0.3c1.4,0,2.9-0.1,4.3-0.1c1.4,0,2.9-0.1,4.3-0.1c1.4-0.1,2.8-0.1,4.3-0.2c0.7,0,1.4-0.1,2.1-0.2
			c0.7-0.1,1.4-0.1,2.1-0.2c0.7-0.1,1.4-0.2,2.1-0.2c0.7-0.1,1.4-0.2,2.1-0.3c0.7-0.1,1.4-0.3,2.1-0.4c0.7-0.1,1.4-0.3,2-0.5
			c0.3-0.1,0.7-0.2,1-0.3c0.3-0.1,0.7-0.2,1-0.3c0.3-0.1,0.6-0.3,0.9-0.4c0.3-0.1,0.6-0.3,0.9-0.4c0.6-0.3,1.2-0.7,1.7-1l0.8-0.6
			l0.7-0.7l0.6-0.7c0.2-0.3,0.3-0.6,0.4-0.9l0.1-0.4l0-0.1l0,0l0-0.1l0-0.1l0,0l0-0.1l0-0.1l0.1-0.5l0.1-0.5c0.1-0.7,0-1.3-0.2-1.9
			l-0.2-0.4l-0.2-0.4l-0.3-0.4l-0.3-0.3l-0.4-0.3l-0.4-0.2c-0.3-0.1-0.6-0.2-0.9-0.3l-0.5-0.1l-0.5,0c-0.3,0-0.6,0.1-1,0.2
			c-0.6,0.2-1.2,0.6-1.6,1.1l-0.2,0.2l-0.2,0.2l-0.1,0.2l-0.1,0.2l-0.1,0.2l-0.1,0.2l-0.1,0.2l0,0l0,0.1l0,0.1l0,0.1l-0.5,0.2
			l-0.2-0.2l0-0.3l0-0.1l0-0.1l0.1-0.1l0.1-0.1l0.1-0.1l0.1-0.3l0.1-0.3l0.2-0.2l0.2-0.2l0.2-0.2l0.2-0.2c0.5-0.6,1.2-1,1.9-1.3
			l0.5-0.2l0.6-0.1c0.4-0.1,0.8-0.1,1.2,0c0.4,0.1,0.8,0.2,1.1,0.3l0.6,0.3l0.5,0.4c0.3,0.3,0.6,0.6,0.8,0.9l0.3,0.5l0.3,0.6
			c0.2,0.4,0.3,0.8,0.3,1.1C151.4,31.9,151.5,32.3,151.5,32.7z"/>
		<path fill="#FFFFFF" d="M151.5,32.7l0,0.6l-0.1,0.6l-0.1,0.6l-0.1,0.6l-0.2,0.6l-0.2,0.5l-0.3,0.5l-0.3,0.5
			c-0.3,0.3-0.5,0.6-0.8,0.9c-0.3,0.3-0.5,0.5-0.9,0.8c-0.3,0.3-0.6,0.5-0.9,0.7c-0.3,0.2-0.6,0.4-1,0.6c-0.6,0.4-1.3,0.7-2,1.1
			c-0.3,0.2-0.7,0.3-1,0.5c-0.3,0.1-0.7,0.3-1,0.4c-0.7,0.3-1.4,0.6-2.1,0.8c-0.7,0.2-1.4,0.5-2.1,0.7c-3.2,0.9-6.7,1.7-10.5,2.4
			c-3.8,0.7-7.8,1.3-11.9,1.8c-4.1,0.5-8.4,1-12.8,1.5c-4.4,0.4-8.8,0.9-13.2,1.3c-4.4,0.4-8.8,0.9-13.1,1.3
			c-4.3,0.5-8.5,1-12.6,1.5c-4.1,0.6-7.9,1.2-11.6,1.9c-3.7,0.7-7,1.6-10.1,2.5c-0.3,0.1-0.7,0.2-1,0.3c-0.3,0.1-0.7,0.2-1,0.3
			L40,58.7l-0.5,0.2l-1,0.3c-0.3,0.1-0.7,0.2-1,0.3c-0.3,0.1-0.7,0.2-1,0.3c-0.3,0.1-0.6,0.2-1,0.3c-0.3,0.1-0.6,0.2-1,0.3
			c-0.3,0.1-0.7,0.2-1,0.3c-0.3,0.1-0.6,0.2-0.9,0.3l-0.5,0.2l-0.5,0.2l-0.5,0.2l-0.5,0.2c-0.3,0.1-0.6,0.2-0.9,0.3
			c-0.3,0.1-0.6,0.2-0.9,0.4c-0.6,0.3-1.2,0.5-1.7,0.7l-0.8,0.4c-0.1-2.2-0.6-4.2-1.5-6.1c-0.9-1.9-2-3.5-3.4-4.9
			c-1.4-1.4-3-2.5-4.9-3.3c-1.9-0.8-3.8-1.2-5.9-1.2c-1.2,0-2.3,0.1-3.4,0.4c-1.1,0.3-2.2,0.6-3.2,1.1l0.8-0.7l0.8-0.6
			c0.6-0.4,1.2-0.8,1.8-1.1c0.6-0.3,1.1-0.7,1.7-0.9c0.5-0.3,1.1-0.5,1.6-0.7c0.5-0.2,1-0.4,1.5-0.6c0.5-0.2,1-0.3,1.4-0.5
			c0.5-0.1,0.9-0.3,1.4-0.4c0.5-0.1,0.9-0.2,1.4-0.3c0.5-0.1,0.9-0.2,1.3-0.3c0.4-0.1,0.9-0.2,1.3-0.3c0.4-0.1,0.9-0.2,1.3-0.2
			c0.4-0.1,0.8-0.1,1.3-0.2c0.4-0.1,0.8-0.1,1.2-0.2c0.4,0,0.8-0.1,1.2-0.1c0.8-0.1,1.6-0.2,2.4-0.2l0.6,0l0.6-0.1l0.6,0l0.6,0
			c0.4,0,0.8-0.1,1.2-0.1c0.4,0,0.8,0,1.1-0.1c0.4,0,0.8,0,1.2,0c0.4,0,0.8,0,1.1,0l2.3-0.1h1.1l1.1,0c0.4,0,0.8,0,1.1,0
			c0.4,0,0.7,0,1.1,0c0.4,0,1.4,0,3.2,0c1.8,0,4.2,0,7.3,0c3.1,0,6.8,0,11.1,0.1c4.3,0,9.3,0.1,14.7,0.1c5.5,0,11.5,0.1,18.1,0.2
			c6.6,0.1,13.7,0.2,21.3,0.3c1.4,0,2.9-0.1,4.3-0.1c1.4,0,2.9-0.1,4.3-0.1c1.4-0.1,2.8-0.1,4.3-0.2c0.7,0,1.4-0.1,2.1-0.2
			c0.7-0.1,1.4-0.1,2.1-0.2c0.7-0.1,1.4-0.2,2.1-0.2c0.7-0.1,1.4-0.2,2.1-0.3c0.7-0.1,1.4-0.3,2.1-0.4c0.7-0.1,1.4-0.3,2-0.5
			c0.3-0.1,0.7-0.2,1-0.3c0.3-0.1,0.7-0.2,1-0.3c0.3-0.1,0.6-0.3,0.9-0.4c0.3-0.1,0.6-0.3,0.9-0.4c0.6-0.3,1.2-0.7,1.7-1l0.8-0.6
			l0.7-0.7l0.6-0.7c0.2-0.3,0.3-0.6,0.4-0.9l0.1-0.4l0-0.1l0,0l0-0.1l0-0.1l0,0l0-0.1l0-0.1l0.1-0.5l0.1-0.5c0.1-0.7,0-1.3-0.2-1.9
			l-0.2-0.4l-0.2-0.4l-0.3-0.4l-0.3-0.3l-0.4-0.3l-0.4-0.2c-0.3-0.1-0.6-0.2-0.9-0.3l-0.5-0.1l-0.5,0c-0.3,0-0.6,0.1-1,0.2
			c-0.6,0.2-1.2,0.6-1.6,1.1l-0.2,0.2l-0.2,0.2l-0.1,0.2l-0.1,0.2l-0.1,0.2l-0.1,0.2l-0.1,0.2l0,0l0,0.1l0,0.1l0,0.1l-0.5,0.2
			l-0.2-0.2l0-0.3l0-0.1l0-0.1l0.1-0.1l0.1-0.1l0.1-0.1l0.1-0.3l0.1-0.3l0.2-0.2l0.2-0.2l0.2-0.2l0.2-0.2c0.5-0.6,1.2-1,1.9-1.3
			l0.5-0.2l0.6-0.1c0.4-0.1,0.8-0.1,1.2,0c0.4,0.1,0.8,0.2,1.1,0.3l0.6,0.3l0.5,0.4c0.3,0.3,0.6,0.6,0.8,0.9l0.3,0.5l0.3,0.6
			c0.2,0.4,0.3,0.8,0.3,1.1C151.4,31.9,151.5,32.3,151.5,32.7z"/>
		<path fill="#FFFFFF" d="M32.5,32c-2.4,2.6-4.6,3.9-6.5,3.9c-1.2,0-2.1-0.6-2.7-1.7c-0.6-1.2-0.9-2.7-0.9-4.6
			c0-1.5,0.3-3.5,0.9-6.2c0.6-2.6,1.4-4.8,2.4-6.6l0.9-1.7c-1.3,1.3-2.3,2.8-3.1,4.3c-0.8,1.6-1.8,3.8-2.9,6.6
			c-1.1,2.8-2,4.8-2.6,5.8c-0.6,1-1.1,1.9-1.7,2.5c-0.5,0.6-1,1.1-1.4,1.3c-0.4,0.2-1.1,0.3-2.2,0.3c-0.4,0-0.6-0.1-0.6-0.3
			c0,0,0.1-0.4,0.2-1c0.1-0.7,0.3-1.7,0.4-3.1c0.1-1.4,0.3-3.9,0.3-7.3c0.1-3.4,0.6-6.4,1.5-8.8c-1,1.1-2,3.8-3.1,8l-0.4,1.6
			c-1.1,4.3-2.4,7.3-3.8,8.8c-1.4,1.5-2.8,2.3-4.2,2.3c-0.8,0-1.6-0.3-2.2-0.8c-0.6-0.5-1-1.1-1-1.8c0-0.5,0.4-1.1,1.2-1.8
			c0.8-0.7,1.3-1,1.5-1l0.5,0.2c0.1,0.2,0.2,0.6,0.3,1.3c0.1,0.7,0.3,1.2,0.5,1.4c0.2,0.2,0.5,0.3,0.9,0.3c0.8,0,1.7-0.8,2.7-2.5
			c1-1.6,1.9-4.2,2.7-7.6l0.5-1.9c0.4-1.6,0.7-2.8,1.1-3.8c0.4-0.9,0.8-1.9,1.4-2.8c0.9-1.3,1.4-2.1,1.6-2.2
			c0.2-0.1,0.6-0.2,1.1-0.2c0.5-0.1,1.1-0.1,1.6-0.1l0.3,0.4c0,0.1,0,0.4-0.1,0.7c-0.2,1.5-0.3,3-0.3,4.5l0,4.3c0,3.7-0.3,6.7-0.9,9
			c0.6-0.7,1.4-2.4,2.5-5.3c1.6-4,3-7,4.3-9.1c0.6-1,1.3-1.9,2.2-2.8c0.9-0.9,1.5-1.4,1.8-1.4c1.1-0.2,2.1-0.3,2.9-0.3l0.4,0.2
			c0,0.2-0.2,0.7-0.5,1.5c-0.8,1.9-1.6,4.4-2.3,7.6c-0.7,3.2-1.1,5.8-1.1,7.7c0,2.2,0.7,3.2,2,3.2c1.1,0,2.3-0.9,3.8-2.7L32.5,32z"
			/>
		<path fill="#FFFFFF" d="M49.6,32c-1.4,1.3-2.6,2.3-3.5,3c-1,0.6-1.8,0.9-2.6,0.9c-0.8,0-1.5-0.3-1.9-1c-0.5-0.7-0.7-1.6-0.7-2.7
			c-1.2,1.3-2.2,2.2-3.2,2.9c-0.9,0.6-1.8,0.9-2.7,0.9c-0.8,0-1.5-0.3-2-1c-0.5-0.7-0.7-1.6-0.7-2.7c0-2.2,0.8-5.4,2.2-9.4l4.3-0.9
			c-1.8,5.1-2.6,8.4-2.6,9.9c0,1,0.4,1.5,1.2,1.5c0.6,0,1.2-0.4,2.1-1.4c0.8-0.9,1.3-1.7,1.5-2.4l2.1-6.8l4.4-0.9
			c-1,3.2-1.7,5.5-2.1,6.8c-0.4,1.3-0.6,2.2-0.6,2.7c0,1,0.3,1.5,1,1.5c0.6,0,1.4-0.5,2.5-1.5l1.3-1.3V32z"/>
		<path fill="#FFFFFF" d="M65.3,32c-2.5,2.6-4.6,3.9-6.2,3.9c-0.7,0-1.3-0.3-1.8-0.7c-0.5-0.5-0.7-1.1-0.7-1.9
			c0-1.3,0.5-3.1,1.5-5.4c0.5-1.3,0.8-2.1,0.8-2.5c0-0.4-0.2-0.7-0.6-0.7c-0.4,0-1,0.3-1.9,0.9c-0.8,0.6-1.7,1.4-2.6,2.4
			c-0.4,2-0.6,4.3-0.6,7.1l-3.6,0.8c-0.1-1.1-0.2-2.3-0.2-3.7c0-3.2,0.4-6.1,1.3-8.9c0.9-2.7,2.3-5.7,4.1-8.7c1.4-0.6,2.6-1,3.7-1.4
			c1-0.4,1.6-0.5,1.8-0.5c0.3,0,0.5,0.2,0.7,0.7c0.2,0.5,0.3,1,0.3,1.7c0,1.1-0.3,2.4-1,3.8c-0.7,1.4-1.8,3-3.3,5
			c1.4-0.8,2.4-1.3,2.8-1.6c0.5-0.2,0.9-0.3,1.4-0.3c0.5,0,1,0.2,1.3,0.6c0.3,0.4,0.5,0.9,0.5,1.5c0,1-0.4,2.4-1.1,4.5
			c-0.8,2-1.1,3.3-1.1,3.8l0.2,0.6l0.5,0.3c0.7,0,1.9-1,3.8-3.1V32z M54.2,25.4c3.8-4.4,5.7-7.7,5.7-9.8c0-0.6-0.2-1-0.5-1
			c-0.6,0-1.4,1.1-2.5,3.2C55.8,19.9,54.9,22.4,54.2,25.4z"/>
		<path fill="#FFFFFF" d="M73.2,32c-2.5,2.6-4.4,3.9-5.6,3.9c-0.7,0-1.3-0.3-1.7-1.1c-0.5-0.7-0.7-1.6-0.7-2.6
			c0-2.3,0.8-5.4,2.3-9.4l4.1-0.9h0.2l-1.6,5c-0.7,2.1-1,3.6-1,4.4c0,0.4,0.1,0.6,0.2,0.9l0.6,0.3c0.4,0,0.8-0.2,1.3-0.5
			c0.4-0.3,1.1-1,2-2L73.2,32z M72.9,15.6c0,2.6-0.9,3.8-2.8,3.8c-0.9,0-1.7-0.3-2.4-0.8c0.6-0.9,1.1-2,1.4-3.2
			c0.8,0.5,1.5,0.8,2,0.8C71.8,16.3,72.3,16.1,72.9,15.6z"/>
		<path fill="#FFFFFF" d="M87.6,32c-0.7,0.8-1.6,1.2-2.7,1.2c-0.8,0-1.7-0.4-2.7-1.2c-1.1,1.3-2.2,2.3-3,2.9
			c-0.9,0.6-1.8,0.9-2.9,0.9c-0.9,0-1.7-0.4-2.3-1.2c-0.6-0.8-0.9-1.7-0.9-2.9c0-2.2,0.7-5.2,2-9c1.3-3.8,2.6-6.7,3.8-8.6
			c1.4-0.4,2.7-0.8,3.7-1.1c1.1-0.3,1.7-0.4,1.8-0.4c0.3,0,0.6,0.2,0.8,0.6c0.2,0.4,0.3,0.9,0.3,1.5c0,1.2-0.5,2.6-1.5,4.2
			c-1,1.6-2.3,3.2-3.9,4.8l-2.1,2.1c-0.7,2.3-1,4-1,5.1c0,0.6,0.1,1.1,0.4,1.5c0.3,0.4,0.6,0.5,1.1,0.5c0.5,0,1-0.2,1.4-0.5
			c0.4-0.3,0.9-0.8,1.4-1.5c-0.5-0.9-0.8-1.9-0.8-2.8c0-1.5,0.4-3,1.3-4.3c0.8-1.3,1.7-2,2.7-2c0.4,0,0.7,0.2,0.9,0.5
			c0.2,0.3,0.4,0.8,0.4,1.3c0,1.8-1,4.1-2.9,7.2c0.6,0.7,1.3,1.1,2,1.1c0.5,0,0.9-0.1,1.2-0.3c0.3-0.2,0.8-0.7,1.4-1.5L87.6,32z
			 M78.9,23.4c1.7-1.7,3-3.3,3.9-4.7c0.9-1.4,1.3-2.5,1.3-3.3c0-0.3-0.1-0.5-0.2-0.7l-0.5-0.3C82.2,14.4,80.7,17.4,78.9,23.4z"/>
		<path fill="#FFFFFF" d="M102,32c-0.7,0.8-1.6,1.2-2.7,1.2c-0.8,0-1.7-0.4-2.7-1.2c-1.1,1.3-2.2,2.3-3,2.9
			c-0.9,0.6-1.8,0.9-2.9,0.9c-0.9,0-1.7-0.4-2.3-1.2c-0.6-0.8-0.9-1.7-0.9-2.9c0-2.2,0.7-5.2,2-9c1.3-3.8,2.6-6.6,3.8-8.6
			c1.4-0.5,2.6-0.8,3.7-1.1c1.1-0.3,1.7-0.4,1.9-0.4c0.3,0,0.6,0.2,0.8,0.6c0.2,0.4,0.3,0.9,0.3,1.5c0,1.2-0.5,2.6-1.5,4.2
			c-1,1.6-2.3,3.2-3.9,4.8l-2.1,2.1c-0.7,2.3-1,4-1,5.1c0,0.6,0.1,1.1,0.4,1.5c0.3,0.4,0.6,0.5,1.1,0.5c0.5,0,1-0.2,1.4-0.5
			c0.4-0.3,0.9-0.8,1.4-1.5C95.3,30,95,29.1,95,28.1c0-1.5,0.4-3,1.3-4.3c0.8-1.3,1.7-2,2.7-2c0.4,0,0.7,0.2,0.9,0.5
			c0.2,0.3,0.4,0.8,0.4,1.3c0,1.7-1,4.1-2.9,7.2c0.6,0.7,1.3,1.1,2,1.1c0.5,0,0.9-0.1,1.2-0.3c0.3-0.2,0.8-0.7,1.4-1.5L102,32z
			 M93.3,23.4c1.7-1.7,3-3.3,3.9-4.7c0.9-1.4,1.3-2.5,1.3-3.3c0-0.3-0.1-0.5-0.2-0.7l-0.5-0.3C96.6,14.4,95.1,17.4,93.3,23.4z"/>
		<path fill="#FFFFFF" d="M119,32c-1.7,1.6-2.9,2.7-3.7,3.2c-0.7,0.5-1.4,0.7-2.1,0.7c-1.7,0-2.5-1.5-2.4-4.5c-1.1,1.5-2,2.7-3,3.4
			c-0.9,0.7-1.8,1.1-2.8,1.1c-0.9,0-1.7-0.4-2.4-1.3c-0.7-0.9-1-2-1-3.2c0-1.6,0.4-3.1,1.3-4.6c0.9-1.4,2-2.6,3.4-3.5
			c1.4-0.9,2.6-1.3,3.7-1.3c1.3,0,2.3,0.6,2.8,1.8l3.3-1.8l0.9,0l-1.4,4.7c-0.7,2.4-1.1,4-1.1,4.9c0,0.9,0.3,1.4,1,1.4
			c0.4,0,0.9-0.2,1.4-0.7c0.5-0.4,1.2-1.1,2.1-2L119,32z M107.3,32.8c1.1,0,2.1-0.9,3-2.7c0.9-1.8,1.4-3.5,1.4-5
			c0-0.6-0.1-1.1-0.4-1.4c-0.3-0.3-0.6-0.5-1.1-0.5c-1.1,0-2.1,0.9-3,2.7c-1,1.8-1.4,3.5-1.4,5c0,0.6,0.1,1,0.4,1.4
			C106.5,32.7,106.9,32.8,107.3,32.8z"/>
		<path fill="#FFFFFF" d="M126.9,32c-2.5,2.6-4.4,3.9-5.6,3.9c-0.7,0-1.3-0.4-1.7-1.1c-0.5-0.7-0.7-1.6-0.7-2.6
			c0-2.3,0.8-5.4,2.3-9.4l4.1-0.8h0.2l-1.6,5c-0.7,2.1-1,3.5-1,4.4c0,0.3,0.1,0.6,0.2,0.9l0.6,0.3c0.4,0,0.8-0.1,1.3-0.5
			c0.4-0.3,1.1-1,2-2L126.9,32z M126.6,15.7c0,2.6-0.9,3.8-2.8,3.8c-0.9,0-1.7-0.3-2.4-0.8c0.6-0.9,1.1-2,1.4-3.2
			c0.8,0.5,1.5,0.8,2,0.8C125.5,16.3,126,16.1,126.6,15.7z"/>
		<path fill="#FFFFFF" d="M142.6,32c-2.5,2.6-4.6,3.9-6.3,3.9c-0.7,0-1.3-0.3-1.7-0.8c-0.4-0.5-0.7-1.2-0.7-2c0-1.1,0.5-2.9,1.4-5.2
			c0.5-1.3,0.8-2.1,0.8-2.4c0-0.3-0.1-0.5-0.4-0.5l-0.6,0.2c-0.2,0.1-0.5,0.4-0.8,0.6c-0.3,0.3-0.6,0.5-0.9,0.9
			c-0.3,0.3-0.6,0.6-0.9,1l-0.9,1c-0.4,0.5-0.6,1-0.7,1.5c-0.2,0.9-0.3,1.7-0.3,2.5c0,0.6,0,1.3,0,2.3l-3.5,0.8
			c-0.1-1.4-0.2-2.5-0.2-3.2c0-1.7,0.2-3.4,0.6-4.9c0.4-1.5,1-3.3,1.9-5.2l3.9-0.8c-0.8,2.2-1.4,3.9-1.6,5.2c1.7-2,3.1-3.3,4.2-4.1
			c1-0.8,1.9-1.1,2.7-1.1c0.5,0,1,0.2,1.4,0.6c0.4,0.4,0.5,0.9,0.5,1.5c0,1-0.5,2.7-1.4,5.1c-0.6,1.6-0.9,2.7-0.9,3.1
			c0,0.6,0.3,1,0.8,1c0.8,0,2-1,3.8-3.1L142.6,32z"/>
		<path fill="#FFFFFF" d="M40.4,10.9c-0.7,0-1.5,0.1-2.5,0.1c-1,2-2.5,5-2.5,6.3c0,0.3,0.1,0.5,0.4,0.5c0.6,0,1.7-0.6,2.4-2.3l0.1,0
			l0.2,0.1l0.1,0.1c0,0-0.6,2.9-2.8,2.9c-0.5,0-1.4-0.3-1.4-1.6c0-1.5,0.9-4,1.7-5.8c-0.3,0.1-0.7,0.2-1,0.2c-1,0-1.7-0.6-1.7-1.2
			c0-0.4,0.3-0.7,0.8-1c0.3,0,0.5,0.1,0.5,0.2l-0.1,0.1l-0.2-0.1c-0.2,0-0.5,0.1-0.5,0.5c0,0.3,0.2,0.5,0.7,0.5c0.5,0,1.1-0.2,2-0.4
			c0.4-0.9,1.1-2.7,1-2.7c0.3,0,1.5,0.7,1.5,1.4c0,0.3-0.1,0.5-0.3,0.8c1.3-0.2,2.4-0.3,3.4-0.3c1.3,0,2.1,0.2,2.4,0.2L45,9.8
			c0.2,0.2,0.5,0.5,0.5,1.1l-0.2,0.8c-0.2,0-0.6-0.4-2.6-0.6C42.1,10.9,41.4,10.9,40.4,10.9z"/>
		<path fill="#FFFFFF" d="M44.7,15.2c0,0.2-1,3.1-2.5,3c-0.8,0-1.5-1-1.5-2.1c0-0.6,0.1-1,0.3-1.7c-0.8,1.4-1.8,3.5-2.1,4.3
			c-0.1,0.4-0.5,0.7-0.9,0.7c-0.4,0-0.9-0.3-0.9-1.2c0-2.6,2.7-9.2,3-10.1l0.2-0.6c0.1-0.3,0.2-0.7,0.2-0.9C40.6,6.8,42,7.2,42,8
			l-0.1,0.7c-0.5,1-3.6,7.4-3.6,9.3l0,0c3-5.4,4.3-6.2,4.1-6.7c0.1,0,1.2,0.7,1.2,1.3L43.5,13c-0.4,1.2-1.5,2.3-1.5,3.7
			c0,0.4,0.1,0.8,0.4,0.8c0.5,0,1.3-0.7,2-2.3l0.2,0L44.7,15.2z"/>
		<path fill="#FFFFFF" d="M50,15.9c-0.3,0.5-0.6,0.9-0.9,1.3c-0.6,0.6-1.5,1.3-2.8,1.3c-1.9,0-2.5-1.8-2.5-2.9
			c0-2.4,1.7-4.7,3.6-4.7c1.1,0,1.8,0.8,1.8,1.5c0,1.5-1.4,2.8-3.1,2.8c-0.6,0-1-0.1-1.1-0.3c-0.1,0.3-0.2,0.6-0.2,1
			c0,1,0.7,1.9,1.7,2c0.8,0,1.7-0.6,2.1-0.9c1.1-0.8,1.1-1.1,1.2-1.2l0.1,0L50,15.9z M45,14.5l0.3,0c1.1,0,2.1-1.2,2.1-1.7l-0.4-0.3
			c-0.3,0-0.9,0.2-1.4,0.9C45.5,13.7,45.2,14.1,45,14.5z"/>
	</g>
	<g>
		<path fill="#FFFFFF" d="M179.6,27.2l-0.5,3.7h1.7v1.2h-1.8l-0.7,5.2H177l0.7-5.2h-2.3l-0.7,5.2h-1.2l0.7-5.2h-1.6v-1.2h1.8
			l0.5-3.7h-1.7v-1.1h1.8l0.6-4.9h1.2l-0.6,4.9h2.3l0.6-4.9h1.2l-0.6,4.9h1.6l0,1.1H179.6z M176,27.2l-0.5,3.7h2.3l0.5-3.7H176z"/>
		<path fill="#FFFFFF" d="M186.5,37.3V21.2h0.9v15.3h4.3v0.8H186.5z"/>
		<path fill="#FFFFFF" d="M201.1,36.7c-0.5,0.5-1.3,0.8-2.2,0.8c-0.9,0-1.7-0.3-2.2-0.8c-1-1-1.1-1.9-1.1-7.5c0-5.6,0.2-6.5,1.1-7.5
			c0.5-0.5,1.3-0.8,2.2-0.8c0.9,0,1.7,0.3,2.2,0.8c1,1,1.1,1.9,1.1,7.5C202.2,34.8,202,35.7,201.1,36.7z M200.4,22.4
			c-0.3-0.4-0.9-0.6-1.5-0.6c-0.7,0-1.2,0.2-1.5,0.6c-0.7,0.8-0.9,1.5-0.9,6.9c0,5.4,0.1,6.1,0.9,6.9c0.3,0.4,0.9,0.6,1.5,0.6
			c0.7,0,1.2-0.2,1.5-0.6c0.7-0.8,0.9-1.5,0.9-6.9C201.3,23.9,201.2,23.2,200.4,22.4z"/>
		<path fill="#FFFFFF" d="M210.2,37.3h-0.9L206,21.2h1l2.8,14.3l2.8-14.3h1L210.2,37.3z"/>
		<path fill="#FFFFFF" d="M217.6,37.3V21.2h5.2V22h-4.3v6.8h3.7v0.8h-3.7v6.8h4.3v0.8H217.6z"/>
		<path fill="#FFFFFF" d="M233.7,36.6c-0.6,0.6-1.4,0.9-2.5,0.9c-1.3,0-2.2-0.5-2.8-1.2c-1.1-1.2-1.2-3.1-1.2-7.1
			c0-4,0.1-5.9,1.2-7.1c0.6-0.7,1.5-1.2,2.8-1.2c1.1,0,1.9,0.3,2.6,1c0.8,0.7,1.1,1.9,1.2,3.2H233c0-0.7-0.1-1.4-0.5-1.9
			c-0.3-0.3-0.7-0.6-1.3-0.6c-0.6,0-1,0.2-1.3,0.6c-0.6,0.8-0.7,2.1-0.7,5.9c0,3.8,0.1,5.1,0.7,5.9c0.3,0.4,0.7,0.6,1.3,0.6
			c0.6,0,1-0.2,1.3-0.6c0.4-0.5,0.5-1.1,0.5-1.8h1.9C235,34.7,234.5,35.9,233.7,36.6z"/>
		<path fill="#FFFFFF" d="M239.5,37.3V21.2h2v16.2H239.5z"/>
		<path fill="#FFFFFF" d="M252.8,37.3l-4.2-11v11h-1.9V21.2h1.8l4.2,11l0-11h1.9v16.2H252.8z"/>
		<path fill="#FFFFFF" d="M263.5,22.9v14.4h-2V22.9h-2.7v-1.7h7.4v1.7H263.5z"/>
		<path fill="#FFFFFF" d="M275.3,37.3l-0.8-3.8h-3.7l-0.8,3.8h-2l3.8-16.2h1.9l3.7,16.2H275.3z M272.7,24.3l-1.5,7.4h3L272.7,24.3z"
			/>
		<path fill="#FFFFFF" d="M289.4,37.3v-8.4l-1.8,5.5H286l-1.7-5.5v8.4H281V21.2h2.8l2.9,7.9l2.9-7.9h2.9v16.2H289.4z"/>
		<path fill="#FFFFFF" d="M304.4,37.3l-0.5-2.5h-3.7l-0.5,2.5h-3.4l4.2-16.2h3.2l4.2,16.2H304.4z M302,25.9l-1.3,6h2.5L302,25.9z"/>
		<path fill="#FFFFFF" d="M317.3,37.3v-6.8h-2.7v6.8h-3.2V21.2h3.2v6.5h2.7v-6.5h3.2v16.2H317.3z"/>
		<path fill="#FFFFFF" d="M332.3,37.3l-0.5-2.5H328l-0.5,2.5h-3.4l4.2-16.2h3.2l4.1,16.2H332.3z M329.9,25.9l-1.3,6h2.5L329.9,25.9z
			"/>
		<path fill="#FFFFFF" d="M347.3,36.3c-0.7,0.7-1.7,1.1-3.4,1.1h-4.7V21.2h4.7c1.6,0,2.7,0.4,3.4,1c0.8,0.8,1.1,1.9,1.1,3.5
			c0,1-0.1,1.9-0.8,2.6c-0.2,0.2-0.4,0.4-0.7,0.5c0.3,0.2,0.5,0.4,0.7,0.6c0.7,0.8,0.8,2,0.8,2.9C348.4,34.1,348.1,35.4,347.3,36.3z
			 M343.5,24.1h-1v3.4h1c1.3,0,1.7-0.5,1.7-1.7C345.2,24.6,344.8,24.1,343.5,24.1z M343.5,30.2h-1v4.2h1c1.3,0,1.7-0.6,1.7-2.1
			C345.2,30.9,344.8,30.2,343.5,30.2z"/>
		<path fill="#FFFFFF" d="M361,36.3c-0.7,0.7-1.7,1.1-3.4,1.1H353V21.2h4.7c1.6,0,2.7,0.4,3.4,1c0.8,0.8,1.1,1.9,1.1,3.5
			c0,1-0.1,1.9-0.8,2.6c-0.2,0.2-0.4,0.4-0.8,0.5c0.3,0.2,0.5,0.4,0.7,0.6c0.7,0.8,0.8,2,0.8,2.9C362.1,34.1,361.8,35.4,361,36.3z
			 M357.2,24.1h-1v3.4h1c1.3,0,1.7-0.5,1.7-1.7C358.9,24.6,358.4,24.1,357.2,24.1z M357.2,30.2h-1v4.2h1c1.3,0,1.7-0.6,1.7-2.1
			C358.9,30.9,358.4,30.2,357.2,30.2z"/>
		<path fill="#FFFFFF" d="M373.6,37.3l-0.5-2.5h-3.7l-0.5,2.5h-3.4l4.2-16.2h3.2l4.2,16.2H373.6z M371.3,25.9l-1.2,6h2.5L371.3,25.9
			z"/>
		<path fill="#FFFFFF" d="M386.5,37.3v-6.8h-2.7v6.8h-3.2V21.2h3.2v6.5h2.7v-6.5h3.2v16.2H386.5z"/>
	</g>
</g>
</svg>
