<?xml version="1.0" encoding="utf-8"?>
<!-- Generator: Adobe Illustrator 17.1.0, SVG Export Plug-In . SVG Version: 6.00 Build 0)  -->
<!DOCTYPE svg PUBLIC "-//W3C//DTD SVG 1.1//EN" "http://www.w3.org/Graphics/SVG/1.1/DTD/svg11.dtd">
<svg version="1.1" id="Layer_1" xmlns="http://www.w3.org/2000/svg" xmlns:xlink="http://www.w3.org/1999/xlink" x="0px" y="0px"
	 viewBox="0 0 80 131.2" enable-background="new 0 0 80 131.2" xml:space="preserve">
<g>
	<g>
		<path fill-rule="evenodd" clip-rule="evenodd" d="M34,4.1c0.1,11.2,0.7,21.9,0.8,33.1c-8.7-0.3-17.6-0.3-26.3-0.5
			c-1.4-8.4-2.6-17-4-25.5c1.8,0.5,3.3,0.2,5.2,0.8c1,0.4,2,1.7,2.9,1.8c0.8,0.1,2.9-0.5,3.9-0.7c3.7-0.7,7.6-1.5,11.4-2.2
			c0.3-0.6,0.5-1.4,0.6-2.2c1-1.1,2.6-3,3.6-4.2C32.4,4.1,32.9,4,34,4.1z"/>
		<path fill-rule="evenodd" clip-rule="evenodd" d="M34.4,4.1c0.1,0,0.1,0,0.1,0c1.6-0.2,3,1.9,4,3.1c1.8,1.9,3.6,3.1,4.3,5.7
			c3.5,0.4,8.1,1,12.1,1.4c1.5,0.1,3,0.6,4,0.4c1.5-0.2,2.3-1.7,3.5-2.2c1.5-0.1,3.6-0.2,4.7-0.1c-1.4,8.3-3,16.4-4.3,24.8
			c-9.4-0.1-18.5,0.1-27.7,0.1c-0.3-10.9-0.7-21.8-1-32.7C34.2,4.4,34.2,4.2,34.4,4.1z"/>
		<path fill-rule="evenodd" clip-rule="evenodd" d="M9.5,37.3c17.1,0,35,0.5,52.8,0.3c-1.1,0.3-2.2,0.6-3.3,0.8
			c0.6,1,2.5,1.5,2.8,2.4c-4.5,0.1-9,0.4-13.4,0.6c-4.5,0.2-8.9,0.6-13.2,0.6c-2.1,0-4.4-0.3-6.6-0.4c-6.3-0.4-12.8-0.9-19.3-1.2
			c1-0.9,2.3-1.6,3.3-2.5C11.4,37.7,10.6,37.3,9.5,37.3z"/>
		<path fill-rule="evenodd" clip-rule="evenodd" d="M58.6,43.4c1.2,0.2,2.2,0.6,3.5,0.7c-4.3,0.5-8.8,0.5-13.2,0.7
			c-4.4,0.2-8.8,0.6-13.2,0.5c-8.8-0.1-17.5-1.3-26-1.7c1-0.4,2.2-0.6,3.2-1c-1.1-0.7-2.3-1.4-3.5-2.1c4.5,0,9.1,0.6,13.8,0.8
			c4.6,0.3,9.3,0.8,13.9,0.6c8.3-0.4,16.5-0.5,24.8-1C60.9,42,59.5,42.4,58.6,43.4z"/>
		<path fill-rule="evenodd" clip-rule="evenodd" d="M62.2,44.7c-1.7,12.2-0.7,26.8-0.7,40.4c0,0.8,0.2,2.2,0,2.9
			c-0.2,0.9-0.7,1-1.5,1.4c0-14.3,0-28.6,0-42.9c-8,0.1-16.2,1.2-24.4,1.4c-4,0.1-8-0.4-12-0.7c-4.1-0.3-8.1-0.4-12.1-0.8
			C12.3,60.7,13,75,13.8,89.2c-0.9-0.1-1.5-0.5-2.4-0.7c-0.6-14.8-1.5-30-1.9-44.4c6.5,0.4,13,0.8,19.6,1.2
			C39.7,46.1,51.1,44.8,62.2,44.7z"/>
		<path fill-rule="evenodd" clip-rule="evenodd" d="M33.1,48.1c0,16.6,0,33.2,0,49.8c-1.3-0.7-2.8-1.2-4-1.9
			c-0.3-4.3-1.1-9.4-3.9-11.7c-0.5-0.4-1.5-1.1-2.2-1.2c-2.3-0.6-4.8,0.2-5.7,1.9c-0.7,1.3-0.7,3.1-0.6,5c-0.8,0.2-1.8-0.5-2.6-0.7
			c-0.6-14.1-1.5-28-2.1-42.2c-0.3,0,0-0.5,0.1-0.4C19.1,47.2,26.1,47.7,33.1,48.1z M25.2,55.2c-0.3-2-2.4-2.8-4.2-2
			c-0.9,0.6-1.2,1.6-1.3,2.8c-0.3,4,1.3,9.7,2.1,12.7C22.6,65.9,25.9,59.6,25.2,55.2z M17.1,61.5c-2.7-2.2-3.7,3.9-2.6,5.4
			c0.9,1.3,2.5,0.8,3.8,1.1c0.6,0.1,1.5,1,1.7,0.6C19.3,66.5,18.6,62.7,17.1,61.5z M30.5,64.4c-1.9-1.8-4.4,0.7-5.4,1.9
			c-0.9,1.1-2,2.2-2.1,3.1c3.3-1.2,3.5,2.9,7,2.5C31.8,70.7,32,65.8,30.5,64.4z M22.3,78.9c0.4,0.8,1.9,2,3.2,1.7
			c2.3-0.5,1.3-5.5,0.1-6.7c-1.8-1.8-6.7-1.7-8.1-0.3c-1.3,1.4-1.2,6.4,2,5.8c0.5-0.1,0.7-0.5,1.1-1c0.3-0.3,0.4-1.1,1.1-1.1
			C22.2,77.8,22,78.4,22.3,78.9z"/>
		<path fill-rule="evenodd" clip-rule="evenodd" d="M59.3,46.7c0.5,0.5,0.3,1.6,0.3,2.5c0,13.1-0.1,27.2,0.1,40.2
			c-1.9,1.5-6.2,2.8-9,1.2c0.3-2.3,0.1-4.9-0.6-6.5c3.9,0.1,5.6,2.5,5.4,6.8c0.5-0.4,0.4-1.7,0.3-2.5c-0.4-2.6-2.6-5-6-4.6
			c-2.1,0.2-4.3,2.2-5.4,4c-1.3,2.2-1.7,4.7-1.9,7.4c-1.8,0.8-3.3,1.9-5.3,2.5c0-16.6,0-33.1,0-49.7C44.6,47.7,52,47.3,59.3,46.7z
			 M46.9,55c-0.8,4.5,2.4,11.1,3.5,13.8c0.6-3.3,2-7.9,1.9-11.8c0-1.4-0.3-2.9-1.3-3.8C48.8,52.6,47.2,53.3,46.9,55z M57.9,66.4
			c0.7-1.9-0.2-5.4-1.9-5.3c-2.3,0.1-3.5,6.4-3.8,7.8C53.8,67.4,57.1,68.6,57.9,66.4z M41.8,72.2c2.7,0.4,3.5-4,6.7-2.8
			c-1.9-2.2-2.8-5.3-7-5.3C39.3,65.4,39.1,71.9,41.8,72.2z M51,78.5c0.5,0.5,0.6,0.9,1.2,1c3.1,0.5,3.1-4.2,2.1-5.6
			c-1.3-1.8-5.9-1.7-7.8-0.4c-1.4,1-2.8,5.8-0.7,7c1.5,0.8,3-0.8,3.5-1.5c0.3-0.4,0.2-1.1,0.7-1.5C50.7,77.3,50.5,78.2,51,78.5z"/>
		<path fill-rule="evenodd" clip-rule="evenodd" d="M33.6,48.1c1,0.3,2.6,0,3.3,0.1c0,16.6,0,33.1,0,49.7c-1.2,0-2.3,0-3.5,0
			c0-16.5,0-32.9,0-49.4C33.4,48.4,33.4,48.2,33.6,48.1z"/>
		<path fill-rule="evenodd" clip-rule="evenodd" d="M61.4,66.9c0.1-6,0.4-11.8,0.5-17.7c0-0.2,0.1-0.4,0.3-0.4
			c5.9-0.1,10.7,0.4,12.4,4.3c2.4,5.5,0.6,14.3-5.8,14.9c-2.2,0.2-4.2-0.5-6.1-1.4C62,66.4,61.7,67.2,61.4,66.9z"/>
		<path fill-rule="evenodd" clip-rule="evenodd" d="M22.7,83.4c0,1.9-0.4,3.4-0.4,5.2c-1.8,0.4-3.4,1-5.3,1.4
			C16.7,85.5,18,82.8,22.7,83.4z"/>
		<path fill-rule="evenodd" clip-rule="evenodd" fill="#00ADEE" d="M43.6,9.7c3.7,0.3,6.9,0.9,10.4,1.4c1.1,0.1,2.5,0.6,3.5,0.4
			c1.2-0.2,2.6-2,3.8-2.4C62.1,8.9,63.4,9,64.3,9C66.5,9,68.5,9,70.7,8.9c-1.5,10.3-3.5,20.1-5,30.4c-0.7,0-1.1-0.2-1.7-0.3
			c-0.1,0.5,1.3,0.7,1.4,1.4c-1.3,0.5-2.2,1.5-3.5,2.1c0.9,0.5,2.2,0.6,3.3,0.8c0,1-0.3,1.6-0.4,2.5c5.1,0.2,10.5,0.1,13,3.3
			c2,2.6,2.4,7.4,2.1,11.4c-0.4,6-3.6,11.6-9.6,11.1c-2.1-0.1-4-1.1-6-1.4c-0.5,0.8-0.3,1.9-0.3,2.8c0,5.9,0.4,12.4,0.4,18.4
			c-3.8,2-10.6,5.3-15.5,2.4c0.2-1.9,0.3-4.8-0.3-6.3c-1.9,3.3-3.2,7.2-4.2,11.4c-3.5,1.1-7.1,3.8-12.3,2.9c-1-0.2-2-1-2.9-1.5
			c-1-0.5-2-0.9-2.8-1.5c0.1-4.5-0.2-8.6-1.5-11.7c-0.6,1.2-0.4,3.2-0.7,4.6c-2.5,0.4-5.1,0.9-7.8,1.4c-0.9,0.1-1.9,0.4-2.6,0.4
			c-1.1,0-2.1-0.7-3.1-1c-1-0.3-2.1-0.5-3.1-1C7.2,75.2,6.2,59.1,5.6,42.7c1-0.2,1.8-0.6,2.9-0.7c-1.2-0.9-2.6-1.5-3.9-2.4
			c1.1-0.8,2.2-1.7,3.5-2.4c-0.9-0.5-2.4-0.4-3.5-0.7C3.2,26.8,1.5,17.3,0,7.6c3.3,0.4,6.5,0.8,9.9,1c1,0.3,2.1,1.8,3.2,2
			c0.8,0.1,2.2-0.4,3.3-0.7c2.9-0.7,6.9-1.6,9.7-2.2c0.2-2.2,1.3-3.2,2.6-4.7c0.9-1.1,1.7-2.1,2.6-2.8c1.1,0.3,2.4-0.3,3.6,0
			c1,0.3,3,2.9,3.9,3.8C40.9,5.8,42.9,7,43.6,9.7z M63.3,40.1c-0.8-0.5-1.7-1-2.4-1.7c1.2-0.4,2.3-1.2,3.8-0.5
			c1.4-9.4,3.2-18.4,4.6-27.7c-2.8,0.5-4.9-0.5-7.5,0.1c-1.3,0.3-2.8,2.3-4,2.5c-1.1,0.1-2.4-0.4-3.6-0.6c-4.1-0.5-7.4-0.9-11.4-1.4
			c-0.3-1-0.8-1.6-1-2.6c-1.1-0.9-2.2-2.2-3.5-3.5c-0.7-0.7-2.7-3.1-3.6-3.3c-0.9-0.3-1.8,0.2-2.8,0c-1.2,1.6-3.2,2.8-4,4.7
			c-0.3,0.8-0.3,1.6-0.7,2.5c-3.6,0.9-6.9,1.5-10.6,2.4c-1.1,0.3-2.6,1-3.6,0.8c-1.1-0.1-2.3-1.6-3.5-1.9C8.2,9.5,6.8,9.6,5.6,9.4
			C4.3,9.3,3,9.2,1.5,9c1.3,9,2.8,17.7,4.2,26.6c0.8,0,1.4,0.2,2.1,0.3c0.2,0.9,0.7,1.6,1.5,1.8c-0.7,0.8-1.8,1.1-2.5,1.9
			c1.7,0.8,3.3,1.7,4.7,2.8c-1.7,0.3-3,0.9-4.7,1.1C7.5,59.3,8.2,75.1,9,90.7c1.7,0.3,3.1,1.4,4.9,1.5c1.4,0.1,3.1-0.5,4.6-0.8
			c1.6-0.3,3.2-0.5,4.7-0.7c0.3-2,0.4-4.2,0.7-6.3c3.7,2.1,3.7,8,3.9,13.6c0.7,0.5,1.5,0.9,2.4,1.4c0.8,0.4,1.7,1.1,2.5,1.3
			c4.4,0.8,7.6-1.8,10.7-2.6c1.5-4.5,2.5-9.6,5.4-12.7c1.5,1.5,1.8,4.9,1.4,7.8c4.8,1.6,9.6-0.9,12.9-2.5c-0.1-7-0.4-13.8-0.4-20.9
			c0.7-0.3,1.1-0.8,1.8-1.1c3.5,1.9,8,2.5,10.7,0.1c1.9-1.7,3-5,3.3-8.5c0.4-3.6-0.1-7.9-1.5-10.2c-2-3.3-9.2-3.3-13.8-3.2
			c0.2-0.9,0.5-1.8,0.6-2.8c-1.1-0.3-2.6-0.6-3.6-0.8c-0.4-0.1-1,0-1.1-0.4c0.1,0,0.2,0,0.3,0C60.6,41.9,62.2,41.2,63.3,40.1z"/>
	</g>
	<g>
		<path fill="#231F20" d="M13.4,118.3v-5c0-1-0.7-1.1-1-1.1c-0.3,0-1,0.2-1,1.1v5H8.8v-5c0-1-0.7-1.1-1-1.1c-0.3,0-1,0.2-1,1.1v5
			H4.2v-8.3h2.5v0.7c0.5-0.5,1.3-0.8,1.9-0.8c0.8,0,1.5,0.3,2,0.9c0.7-0.6,1.4-0.9,2.3-0.9c0.8,0,1.6,0.3,2,0.7
			c0.7,0.7,0.9,1.5,0.9,2.4v5.3H13.4z"/>
		<path fill="#231F20" d="M21.7,118.3v-0.7c-0.5,0.5-1,0.8-1.8,0.8c-0.8,0-1.5-0.3-2-0.7c-0.5-0.5-0.7-1.2-0.7-1.9
			c0-1.2,0.8-2.4,2.8-2.4h1.7V113c0-0.8-0.4-1-1.3-1c-0.6,0-0.9,0.2-1.3,0.6l-1.6-1.6c0.8-0.9,1.6-1.1,3-1.1c2.4,0,3.7,1,3.7,3v5.4
			H21.7z M21.7,114.9h-1.3c-0.5,0-0.8,0.3-0.8,0.7c0,0.4,0.3,0.7,0.8,0.7c0.5,0,0.7,0,1-0.3c0.2-0.2,0.3-0.4,0.3-0.8V114.9z"/>
		<path fill="#231F20" d="M32.4,117.6c-0.5,0.5-1.2,0.8-2,0.8c-0.9,0-1.4-0.3-1.9-0.8v0.7H26v-11h2.5v3.3c0.5-0.5,1-0.7,1.9-0.7
			c0.8,0,1.5,0.3,2,0.8c0.8,0.8,0.8,2.3,0.8,3.5C33.1,115.3,33.2,116.8,32.4,117.6z M29.6,112.1c-0.9,0-1.1,0.8-1.1,2s0.1,2,1.1,2
			s1.1-0.8,1.1-2S30.5,112.1,29.6,112.1z"/>
		<path fill="#231F20" d="M39.5,118.3l-1.7-3l-0.5,0.5v2.5h-2.5v-11h2.5v5.6l2.2-2.9h3.1l-3.1,3.5l3.1,4.9H39.5z"/>
		<path fill="#231F20" d="M48.1,118.3v-5c0-0.9-0.7-1.1-1-1.1s-1,0.2-1,1.1v5h-2.5v-11h2.5v3.4c0.5-0.5,1.2-0.8,1.8-0.8
			c1.8,0,2.7,1.3,2.7,3v5.4H48.1z"/>
		<path fill="#231F20" d="M58.4,117.3c-0.5,0.5-1.3,1.1-2.7,1.1c-1.3,0-2.2-0.5-2.7-1.1c-0.7-0.8-0.9-1.5-0.9-3.2
			c0-1.6,0.2-2.4,0.9-3.2c0.5-0.5,1.3-1.1,2.7-1.1c1.3,0,2.2,0.5,2.7,1.1c0.7,0.8,0.9,1.6,0.9,3.2C59.3,115.8,59.1,116.5,58.4,117.3
			z M56.4,112.4c-0.2-0.1-0.4-0.2-0.7-0.2s-0.5,0.1-0.7,0.2c-0.3,0.3-0.4,0.9-0.4,1.7c0,0.8,0,1.4,0.4,1.7c0.2,0.1,0.4,0.2,0.7,0.2
			s0.5-0.1,0.7-0.2c0.3-0.3,0.4-0.9,0.4-1.7C56.8,113.3,56.7,112.7,56.4,112.4z"/>
		<path fill="#231F20" d="M66.9,117.3c-0.5,0.5-1.3,1.1-2.7,1.1c-1.3,0-2.2-0.5-2.7-1.1c-0.7-0.8-0.9-1.5-0.9-3.2
			c0-1.6,0.2-2.4,0.9-3.2c0.5-0.5,1.3-1.1,2.7-1.1c1.3,0,2.2,0.5,2.7,1.1c0.7,0.8,0.9,1.6,0.9,3.2C67.8,115.8,67.6,116.5,66.9,117.3
			z M64.9,112.4c-0.2-0.1-0.4-0.2-0.7-0.2c-0.3,0-0.5,0.1-0.7,0.2c-0.3,0.3-0.4,0.9-0.4,1.7c0,0.8,0,1.4,0.4,1.7
			c0.1,0.1,0.4,0.2,0.7,0.2c0.3,0,0.5-0.1,0.7-0.2c0.3-0.3,0.4-0.9,0.4-1.7C65.3,113.3,65.2,112.7,64.9,112.4z"/>
		<path fill="#231F20" d="M73.9,112.6c-0.2-0.2-0.5-0.4-0.9-0.4c-0.3,0-1,0.2-1,1.1v5h-2.5v-8.3h2.5v0.7c0.4-0.4,1.1-0.8,2-0.8
			c0.8,0,1.4,0.2,1.9,0.8L73.9,112.6z"/>
		<path fill="#00ADEE" d="M28.6,131.1v-5c0-1-0.7-1.1-1-1.1c-0.3,0-1,0.2-1,1.1v5h-2.5v-5c0-1-0.7-1.1-1-1.1c-0.3,0-1,0.2-1,1.1v5
			h-2.5v-8.3H22v0.7c0.5-0.5,1.3-0.8,1.9-0.8c0.8,0,1.5,0.3,2,0.9c0.7-0.6,1.4-0.9,2.3-0.9c0.8,0,1.5,0.3,2,0.7
			c0.7,0.7,0.9,1.5,0.9,2.4v5.3H28.6z"/>
		<path fill="#00ADEE" d="M37.5,131.1v-0.7c-0.5,0.5-1.3,0.8-1.9,0.8c-0.8,0-1.4-0.3-1.9-0.7c-0.7-0.7-0.8-1.5-0.8-2.4v-5.3h2.5v5
			c0,1,0.7,1.1,1,1.1c0.3,0,1-0.2,1-1.1v-5H40v8.3H37.5z"/>
		<path fill="#00ADEE" d="M44.7,131.2c-1.2,0-2.5-0.1-3.6-1.2l1.6-1.6c0.7,0.7,1.6,0.7,2,0.7c0.4,0,1.1-0.1,1.1-0.5
			c0-0.2-0.1-0.5-0.6-0.5l-1.3-0.1c-1.4-0.1-2.4-0.8-2.4-2.4c0-1.8,1.7-2.8,3.3-2.8c1.4,0,2.5,0.2,3.3,1l-1.6,1.6
			c-0.4-0.4-1.1-0.5-1.8-0.5c-0.6,0-0.8,0.3-0.8,0.5c0,0.1,0,0.4,0.5,0.5l1.3,0.1c1.7,0.2,2.5,1.2,2.5,2.5
			C48.3,130.4,46.7,131.2,44.7,131.2z"/>
		<path fill="#00ADEE" d="M49.7,122V120h2.5v1.9H49.7z M49.7,131.1v-8h2.5v8H49.7z"/>
		<path fill="#00ADEE" d="M57.5,131.2c-1.4,0-3.7-0.6-3.7-4.3c0-3.6,2.3-4.2,3.7-4.2c1.2,0,2.1,0.4,2.7,1.1l-1.7,1.7
			c-0.3-0.3-0.6-0.5-1-0.5c-0.3,0-0.6,0.1-0.8,0.3c-0.3,0.3-0.4,0.8-0.4,1.6c0,0.8,0.1,1.3,0.4,1.6c0.2,0.2,0.4,0.3,0.8,0.3
			c0.4,0,0.7-0.2,1-0.5l1.7,1.7C59.6,130.8,58.7,131.2,57.5,131.2z"/>
	</g>
</g>
</svg>
