<svg xmlns="http://www.w3.org/2000/svg" viewBox="0 0 519.2 39.2" enable-background="new 0 0 519.2 39.2"><path fill="#C02646" d="M19.9 15.3l-1 7.8h3.9v4.1h-4.5l-1.6 11.6h-4.4l1.6-11.6H8.2L6.6 38.8H2.2l1.6-11.6H0v-4.1h4.4l1-7.8H1.6l-.1-4.1H6L7.5.4H12l-1.5 10.8h5.6L17.6.4H22l-1.5 10.8h3.8l.1 4.1h-4.5zm-10 0l-1 7.8h5.6l1.1-7.8H9.9z"/><path fill="#808285" d="M36.4 38.8V.4h2.2v36.4h10.2v1.9H36.4zm34.5-1.5c-1.2 1.2-3 1.9-5.1 1.9-2.1 0-3.9-.6-5.1-1.9C58.4 35 58 32.9 58 19.6s.4-15.4 2.7-17.7C61.9.7 63.7 0 65.8 0c2.1 0 3.9.6 5.1 1.9 2.3 2.3 2.7 4.5 2.7 17.7s-.4 15.4-2.7 17.7zm-1.5-34c-.8-.9-2-1.3-3.6-1.3s-2.8.5-3.6 1.3c-1.7 1.9-2 3.6-2 16.3 0 12.8.3 14.4 2 16.3.8.9 2 1.3 3.6 1.3s2.8-.5 3.6-1.3c1.7-1.9 2-3.6 2-16.3 0-12.8-.3-14.4-2-16.3zm23.3 35.5h-2L82.5.4h2.4l6.7 34 6.7-34h2.4l-8 38.4zm17.5 0V.4h12.4v1.9h-10.2v16.3h8.8v1.9h-8.8v16.3h10.2v1.9h-12.4zm38.3-1.7c-1.5 1.4-3.3 2.1-5.9 2.1-3.1 0-5.1-1.1-6.6-2.7-2.6-2.9-2.8-7.3-2.8-16.9 0-9.6.2-14 2.8-16.9 1.5-1.6 3.5-2.7 6.6-2.7 2.6 0 4.6.8 6.1 2.3 1.8 1.7 2.7 4.5 2.7 7.7h-4.6c0-1.7-.3-3.3-1.2-4.4-.6-.8-1.6-1.3-3-1.3-1.5 0-2.5.6-3.1 1.5-1.3 1.8-1.6 4.9-1.6 14s.3 12.2 1.6 14c.6.9 1.6 1.5 3.1 1.5s2.4-.6 3-1.4c.9-1.1 1.2-2.7 1.2-4.4h4.6c0 3-1 5.9-2.9 7.6zm13.8 1.7V.4h4.6v38.4h-4.6zm31.5 0l-9.9-26.2v26.2h-4.6V.4h4.3l9.9 26.2-.1-26.2h4.6v38.4h-4.2zm25.4-34.2v34.2h-4.6V4.6h-6.5V.4h17.5v4.1h-6.4zm28.2 34.2l-1.8-9.1h-8.9l-1.8 9.1H230L238.9.4h4.5l8.9 38.4h-4.9zm-6.3-30.9l-3.6 17.7h7.2l-3.6-17.7zm39.7 30.9v-20L276.6 32h-3.9l-4.1-13.1v19.9h-7.7V.4h6.7l7 18.8 7-18.8h6.8v38.4h-7.6zm35.6 0l-1.2-6h-8.8l-1.2 6h-8L307 .4h7.5l9.9 38.4h-8zm-5.7-27.1l-3 14.2h5.9l-2.9-14.2zM347 38.8V22.7h-6.4v16.1H333V.4h7.7v15.4h6.4V.4h7.7v38.4H347zm35.7 0l-1.2-6h-8.8l-1.2 6h-8L373.4.4h7.5l9.9 38.4h-8.1zM377 11.7l-3 14.2h5.9L377 11.7zm41.4 24.6c-1.6 1.7-4.2 2.5-8 2.5h-11.1V.4h11.1c3.8 0 6.4.9 8 2.5 1.8 1.8 2.5 4.6 2.5 8.2 0 2.5-.2 4.6-1.8 6.2-.5.5-1 .9-1.8 1.3.7.4 1.3.9 1.7 1.3 1.8 2 1.9 4.8 1.9 7 .1 4.3-.6 7.4-2.5 9.4zm-9.1-29H407v8.2h2.3c3 0 4-1.2 4-4.1 0-2.9-1-4.1-4-4.1zm.1 14.7H407v9.9h2.4c3.1 0 3.9-1.5 3.9-5s-1-4.9-3.9-4.9zm41.5 14.3c-1.6 1.7-4.1 2.5-8 2.5h-11.1V.4h11.1c3.8 0 6.4.9 8 2.5 1.8 1.8 2.5 4.6 2.5 8.2 0 2.5-.2 4.6-1.8 6.2-.5.5-1 .9-1.8 1.3.7.4 1.3.9 1.7 1.3 1.8 2 1.9 4.8 1.9 7 0 4.3-.6 7.4-2.5 9.4zm-9.2-29h-2.3v8.2h2.3c3 0 4-1.2 4-4.1.1-2.9-.9-4.1-4-4.1zm.2 14.7h-2.4v9.9h2.4c3.1 0 3.9-1.5 3.9-5s-1-4.9-3.9-4.9zm39 16.8l-1.2-6h-8.8l-1.2 6h-8L471.6.4h7.5l9.9 38.4h-8.1zm-5.6-27.1l-3 14.2h5.9l-2.9-14.2zm36.3 27.1V22.7h-6.4v16.1h-7.7V.4h7.7v15.4h6.4V.4h7.7v38.4h-7.7z"/></svg>