<?xml version="1.0" encoding="utf-8"?>
<!-- Generator: Adobe Illustrator 17.1.0, SVG Export Plug-In . SVG Version: 6.00 Build 0)  -->
<!DOCTYPE svg PUBLIC "-//W3C//DTD SVG 1.1//EN" "http://www.w3.org/Graphics/SVG/1.1/DTD/svg11.dtd">
<svg version="1.1" id="Layer_1" xmlns="http://www.w3.org/2000/svg" xmlns:xlink="http://www.w3.org/1999/xlink" x="0px" y="0px"
	 viewBox="0 0 400 30.4" enable-background="new 0 0 400 30.4" xml:space="preserve">
<g>
	<path fill="#FFFFFF" d="M13,11.5l-0.8,6.8h3v2.1h-3.4l-1.2,9.6H8.3l1.2-9.6H5.3l-1.2,9.6H1.8L3,20.5H0v-2.1h3.3l0.9-6.8h-3V9.4h3.3
		l1.2-9.1h2.3L6.7,9.4H11l1.2-9.1h2.3l-1.2,9.1h3l0,2.1H13z M6.4,11.5l-0.9,6.8h4.3l0.9-6.8H6.4z"/>
	<path fill="#FFFFFF" d="M25.8,30.1V0.3h1.7v28.2h7.9v1.5H25.8z"/>
	<path fill="#FFFFFF" d="M52.5,28.9c-0.9,1-2.3,1.5-4,1.5c-1.6,0-3.1-0.5-4-1.5c-1.8-1.8-2.1-3.5-2.1-13.7c0-10.3,0.3-11.9,2.1-13.7
		c0.9-1,2.3-1.5,4-1.5c1.6,0,3,0.5,4,1.5c1.8,1.8,2.1,3.5,2.1,13.7C54.6,25.5,54.3,27.2,52.5,28.9z M51.4,2.5
		c-0.6-0.7-1.6-1.1-2.8-1.1c-1.2,0-2.2,0.4-2.8,1.1c-1.3,1.5-1.6,2.8-1.6,12.7c0,9.9,0.2,11.2,1.6,12.7c0.6,0.7,1.6,1.1,2.8,1.1
		c1.2,0,2.2-0.4,2.8-1.1c1.3-1.5,1.6-2.8,1.6-12.7C53,5.3,52.7,4,51.4,2.5z"/>
	<path fill="#FFFFFF" d="M69.4,30.1h-1.6L61.5,0.3h1.8l5.2,26.3l5.2-26.3h1.8L69.4,30.1z"/>
	<path fill="#FFFFFF" d="M83,30.1V0.3h9.6v1.5h-7.9v12.6h6.9V16h-6.9v12.6h7.9v1.5H83z"/>
	<path fill="#FFFFFF" d="M112.7,28.8c-1.2,1.1-2.6,1.6-4.6,1.6c-2.4,0-4-0.9-5.1-2.1c-2-2.3-2.2-5.6-2.2-13.1
		c0-7.4,0.1-10.8,2.2-13.1c1.1-1.3,2.7-2.1,5.1-2.1c2,0,3.5,0.6,4.7,1.8c1.4,1.3,2.1,3.5,2.1,5.9h-3.6c0-1.3-0.3-2.6-0.9-3.4
		c-0.5-0.6-1.2-1-2.3-1c-1.2,0-1.9,0.5-2.4,1.1c-1,1.4-1.2,3.8-1.2,10.9c0,7.1,0.2,9.4,1.2,10.9c0.5,0.7,1.3,1.1,2.4,1.1
		c1.1,0,1.8-0.5,2.3-1.1c0.7-0.8,1-2.1,1-3.4h3.6C115,25.2,114.2,27.4,112.7,28.8z"/>
	<path fill="#FFFFFF" d="M123.4,30.1V0.3h3.6v29.7H123.4z"/>
	<path fill="#FFFFFF" d="M147.8,30.1l-7.7-20.3v20.3h-3.6V0.3h3.3l7.6,20.3l0-20.3h3.6v29.7H147.8z"/>
	<path fill="#FFFFFF" d="M167.4,3.6v26.5h-3.6V3.6h-5V0.3h13.6v3.2H167.4z"/>
	<path fill="#FFFFFF" d="M189.3,30.1l-1.4-7H181l-1.4,7h-3.8l6.9-29.7h3.5l6.9,29.7H189.3z M184.5,6.1l-2.8,13.7h5.6L184.5,6.1z"/>
	<path fill="#FFFFFF" d="M215.2,30.1V14.6L212,24.8h-3.1l-3.2-10.2v15.5h-5.9V0.3h5.2l5.4,14.6l5.4-14.6h5.3v29.7H215.2z"/>
	<path fill="#FFFFFF" d="M242.8,30.1l-1-4.6H235l-1,4.6h-6.2l7.6-29.7h5.9l7.6,29.7H242.8z M238.4,9.1l-2.3,11h4.6L238.4,9.1z"/>
	<path fill="#FFFFFF" d="M266.6,30.1V17.6h-4.9v12.4h-5.9V0.3h5.9v11.9h4.9V0.3h5.9v29.7H266.6z"/>
	<path fill="#FFFFFF" d="M294.2,30.1l-1-4.6h-6.9l-1,4.6h-6.2l7.6-29.7h5.9l7.6,29.7H294.2z M289.8,9.1l-2.3,11h4.6L289.8,9.1z"/>
	<path fill="#FFFFFF" d="M321.8,28.1c-1.3,1.3-3.2,2-6.2,2h-8.6V0.3h8.6c3,0,4.9,0.7,6.2,1.9c1.4,1.4,2,3.5,2,6.4
		c0,1.9-0.2,3.5-1.4,4.8c-0.4,0.4-0.8,0.7-1.4,1c0.5,0.3,1,0.7,1.3,1.1c1.4,1.5,1.5,3.8,1.5,5.4C323.8,24.1,323.3,26.6,321.8,28.1z
		 M314.8,5.7H313V12h1.8c2.3,0,3.1-1,3.1-3.2C317.9,6.6,317.2,5.7,314.8,5.7z M314.9,17H313v7.7h1.9c2.4,0,3-1.1,3-3.8
		C317.9,18.2,317.2,17,314.9,17z"/>
	<path fill="#FFFFFF" d="M347,28.1c-1.3,1.3-3.2,2-6.2,2h-8.6V0.3h8.6c3,0,4.9,0.7,6.2,1.9c1.4,1.4,2,3.5,2,6.4
		c0,1.9-0.2,3.5-1.4,4.8c-0.4,0.4-0.8,0.7-1.4,1c0.6,0.3,1,0.7,1.3,1.1c1.4,1.5,1.5,3.8,1.5,5.4C349,24.1,348.5,26.6,347,28.1z
		 M340,5.7h-1.8V12h1.8c2.3,0,3.1-1,3.1-3.2C343.1,6.6,342.3,5.7,340,5.7z M340,17h-1.9v7.7h1.9c2.4,0,3-1.1,3-3.8
		C343.1,18.2,342.3,17,340,17z"/>
	<path fill="#FFFFFF" d="M370.3,30.1l-1-4.6h-6.8l-1,4.6h-6.2L363,0.3h5.9l7.6,29.7H370.3z M365.9,9.1l-2.3,11h4.6L365.9,9.1z"/>
	<path fill="#FFFFFF" d="M394.1,30.1V17.6h-4.9v12.4h-5.9V0.3h5.9v11.9h4.9V0.3h5.9v29.7H394.1z"/>
</g>
</svg>
