<?xml version="1.0" encoding="utf-8"?>
<!-- Generator: Adobe Illustrator 17.1.0, SVG Export Plug-In . SVG Version: 6.00 Build 0)  -->
<!DOCTYPE svg PUBLIC "-//W3C//DTD SVG 1.1//EN" "http://www.w3.org/Graphics/SVG/1.1/DTD/svg11.dtd">
<svg version="1.1" id="Layer_1" xmlns="http://www.w3.org/2000/svg" xmlns:xlink="http://www.w3.org/1999/xlink" x="0px" y="0px"
	 viewBox="0 0 400 150" enable-background="new 0 0 400 150" xml:space="preserve">
<g>
	<path fill="#FFFFFF" d="M400,68.7l0,1.5l-0.2,1.6l-0.2,1.5l-0.4,1.6l-0.6,1.5l-0.6,1.5l-0.8,1.4l-0.8,1.3c-0.7,0.9-1.4,1.7-2,2.5
		c-0.7,0.7-1.4,1.4-2.3,2.2c-0.8,0.7-1.6,1.3-2.4,1.9c-0.8,0.6-1.7,1.2-2.5,1.7c-1.6,1-3.4,1.9-5.3,2.8c-0.9,0.4-1.8,0.8-2.7,1.2
		c-0.9,0.4-1.8,0.8-2.7,1.1c-1.8,0.8-3.7,1.5-5.5,2.1c-1.9,0.6-3.7,1.2-5.6,1.7c-8.5,2.4-17.8,4.5-27.8,6.3
		c-10,1.8-20.5,3.4-31.4,4.8c-10.9,1.4-22.2,2.7-33.7,3.9c-11.6,1.1-23.2,2.3-34.9,3.4c-11.7,1.1-23.2,2.3-34.7,3.5
		c-11.5,1.2-22.5,2.6-33.3,4c-10.7,1.5-20.9,3.2-30.6,5.1c-9.7,1.9-18.6,4.1-26.7,6.6c-0.9,0.3-1.8,0.5-2.7,0.7
		c-0.9,0.2-1.8,0.4-2.6,0.7l-1.3,0.3l-1.3,0.4l-2.6,0.7c-0.9,0.2-1.8,0.5-2.7,0.8c-0.9,0.3-1.7,0.6-2.6,0.8
		c-0.9,0.2-1.7,0.5-2.6,0.8c-0.8,0.3-1.7,0.6-2.6,0.8c-0.9,0.3-1.7,0.6-2.6,0.9c-0.8,0.3-1.7,0.6-2.5,0.9l-1.2,0.4l-1.2,0.4
		l-1.3,0.4l-1.2,0.5c-0.8,0.3-1.6,0.6-2.4,0.9c-0.8,0.3-1.6,0.6-2.3,1c-1.6,0.7-3.1,1.3-4.6,1.9l-2.2,1.1
		c-0.3-5.7-1.6-11.1-3.9-16.1c-2.3-5-5.3-9.3-9-13c-3.7-3.7-8-6.7-13-8.8c-4.9-2.1-10.1-3.2-15.7-3.2c-3.1,0-6.1,0.3-9,1
		c-2.9,0.7-5.7,1.7-8.3,2.9l2.2-1.8l2.2-1.6c1.5-1.1,3.1-2.1,4.7-3c1.5-0.9,3-1.7,4.4-2.4c1.4-0.7,2.8-1.3,4.2-1.9
		c1.4-0.5,2.7-1,4-1.5c1.3-0.5,2.6-0.9,3.8-1.3c1.3-0.4,2.5-0.7,3.7-1.1c1.2-0.3,2.4-0.6,3.6-0.9c1.2-0.3,2.4-0.5,3.5-0.8
		c1.1-0.2,2.3-0.4,3.4-0.7c1.1-0.2,2.3-0.4,3.4-0.6c1.1-0.2,2.2-0.3,3.3-0.5c1.1-0.1,2.2-0.3,3.2-0.4c1.1-0.1,2.1-0.3,3.3-0.4
		c2.2-0.3,4.3-0.5,6.4-0.6l1.6-0.1l1.6-0.2l1.6-0.1l1.5-0.1c1.1-0.1,2.1-0.2,3.1-0.2c1,0,2-0.1,3-0.2c1.1-0.1,2.1-0.1,3.1-0.1
		c1,0,2-0.1,3-0.1l6.1-0.2h3l3-0.1c1,0,2,0,3,0c1,0,2,0,3,0c1,0,3.8,0,8.5,0c4.7,0,11.1,0,19.3,0.1c8.2,0,18,0.1,29.4,0.2
		c11.5,0.1,24.4,0.2,38.9,0.3c14.5,0.1,30.5,0.3,47.9,0.5c17.4,0.2,36.2,0.5,56.3,0.8c3.8-0.1,7.6-0.2,11.4-0.3
		c3.8-0.1,7.6-0.2,11.4-0.4c3.8-0.1,7.5-0.4,11.3-0.7c1.9-0.1,3.7-0.2,5.6-0.4c1.9-0.2,3.8-0.4,5.6-0.6c1.8-0.2,3.7-0.4,5.5-0.7
		c1.9-0.2,3.7-0.5,5.5-0.9c1.8-0.3,3.6-0.7,5.5-1c1.8-0.4,3.6-0.8,5.4-1.3c0.9-0.2,1.8-0.5,2.7-0.8c0.9-0.3,1.7-0.5,2.6-0.8
		c0.8-0.3,1.6-0.7,2.5-1c0.8-0.3,1.7-0.7,2.5-1.1c1.7-0.9,3.2-1.8,4.5-2.7l2-1.6l1.8-1.9l1.5-2c0.4-0.7,0.8-1.5,1.1-2.3l0.4-1.2
		l0-0.2l0-0.1l0.1-0.1l0-0.1l0-0.1l0.1-0.3l0.1-0.4l0.2-1.2l0.1-1.3c0.1-1.8,0-3.5-0.5-5.1l-0.4-1.2l-0.6-1.1l-0.8-1l-0.8-0.9
		l-1-0.7l-1.1-0.7c-0.7-0.3-1.5-0.6-2.4-0.7l-1.3-0.2l-1.3,0c-0.8,0-1.7,0.2-2.5,0.6c-1.7,0.6-3.1,1.5-4.3,2.8l-0.4,0.5l-0.4,0.5
		l-0.4,0.6l-0.3,0.5l-0.3,0.6l-0.3,0.6l-0.3,0.7l0,0.1l0,0.2l-0.1,0.1l-0.1,0.1l-1.4,0.6l-0.5-0.5l0-0.8l0.1-0.2l0.1-0.1l0.1-0.4
		l0.1-0.3l0.1-0.3l0.4-0.7l0.4-0.7l0.4-0.7l0.4-0.6l0.5-0.7l0.5-0.6c1.3-1.5,3.1-2.6,5.1-3.4l1.4-0.5l1.5-0.3c1.1-0.1,2.1-0.1,3.2,0
		c1,0.1,2,0.4,3,0.8l1.5,0.7l1.3,0.9c0.9,0.7,1.6,1.5,2.2,2.3l0.8,1.3l0.7,1.5c0.4,1,0.7,2,0.9,3C399.9,66.5,400,67.6,400,68.7z"/>
	<path fill="#FFFFFF" d="M400,68.7l0,1.5l-0.2,1.6l-0.2,1.5l-0.4,1.6l-0.6,1.5l-0.6,1.5l-0.8,1.4l-0.8,1.3c-0.7,0.9-1.4,1.7-2,2.5
		c-0.7,0.7-1.4,1.4-2.3,2.2c-0.8,0.7-1.6,1.3-2.4,1.9c-0.8,0.6-1.7,1.2-2.5,1.7c-1.6,1-3.4,1.9-5.3,2.8c-0.9,0.4-1.8,0.8-2.7,1.2
		c-0.9,0.4-1.8,0.8-2.7,1.1c-1.8,0.8-3.7,1.5-5.5,2.1c-1.9,0.6-3.7,1.2-5.6,1.7c-8.5,2.4-17.8,4.5-27.8,6.3
		c-10,1.8-20.5,3.4-31.4,4.8c-10.9,1.4-22.2,2.7-33.7,3.9c-11.6,1.1-23.2,2.3-34.9,3.4c-11.7,1.1-23.2,2.3-34.7,3.5
		c-11.5,1.2-22.5,2.6-33.3,4c-10.7,1.5-20.9,3.2-30.6,5.1c-9.7,1.9-18.6,4.1-26.7,6.6c-0.9,0.3-1.8,0.5-2.7,0.7
		c-0.9,0.2-1.8,0.4-2.6,0.7l-1.3,0.3l-1.3,0.4l-2.6,0.7c-0.9,0.2-1.8,0.5-2.7,0.8c-0.9,0.3-1.7,0.6-2.6,0.8
		c-0.9,0.2-1.7,0.5-2.6,0.8c-0.8,0.3-1.7,0.6-2.6,0.8c-0.9,0.3-1.7,0.6-2.6,0.9c-0.8,0.3-1.7,0.6-2.5,0.9l-1.2,0.4l-1.2,0.4
		l-1.3,0.4l-1.2,0.5c-0.8,0.3-1.6,0.6-2.4,0.9c-0.8,0.3-1.6,0.6-2.3,1c-1.6,0.7-3.1,1.3-4.6,1.9l-2.2,1.1
		c-0.3-5.7-1.6-11.1-3.9-16.1c-2.3-5-5.3-9.3-9-13c-3.7-3.7-8-6.7-13-8.8c-4.9-2.1-10.1-3.2-15.7-3.2c-3.1,0-6.1,0.3-9,1
		c-2.9,0.7-5.7,1.7-8.3,2.9l2.2-1.8l2.2-1.6c1.5-1.1,3.1-2.1,4.7-3c1.5-0.9,3-1.7,4.4-2.4c1.4-0.7,2.8-1.3,4.2-1.9
		c1.4-0.5,2.7-1,4-1.5c1.3-0.5,2.6-0.9,3.8-1.3c1.3-0.4,2.5-0.7,3.7-1.1c1.2-0.3,2.4-0.6,3.6-0.9c1.2-0.3,2.4-0.5,3.5-0.8
		c1.1-0.2,2.3-0.4,3.4-0.7c1.1-0.2,2.3-0.4,3.4-0.6c1.1-0.2,2.2-0.3,3.3-0.5c1.1-0.1,2.2-0.3,3.2-0.4c1.1-0.1,2.1-0.3,3.3-0.4
		c2.2-0.3,4.3-0.5,6.4-0.6l1.6-0.1l1.6-0.2l1.6-0.1l1.5-0.1c1.1-0.1,2.1-0.2,3.1-0.2c1,0,2-0.1,3-0.2c1.1-0.1,2.1-0.1,3.1-0.1
		c1,0,2-0.1,3-0.1l6.1-0.2h3l3-0.1c1,0,2,0,3,0c1,0,2,0,3,0c1,0,3.8,0,8.5,0c4.7,0,11.1,0,19.3,0.1c8.2,0,18,0.1,29.4,0.2
		c11.5,0.1,24.4,0.2,38.9,0.3c14.5,0.1,30.5,0.3,47.9,0.5c17.4,0.2,36.2,0.5,56.3,0.8c3.8-0.1,7.6-0.2,11.4-0.3
		c3.8-0.1,7.6-0.2,11.4-0.4c3.8-0.1,7.5-0.4,11.3-0.7c1.9-0.1,3.7-0.2,5.6-0.4c1.9-0.2,3.8-0.4,5.6-0.6c1.8-0.2,3.7-0.4,5.5-0.7
		c1.9-0.2,3.7-0.5,5.5-0.9c1.8-0.3,3.6-0.7,5.5-1c1.8-0.4,3.6-0.8,5.4-1.3c0.9-0.2,1.8-0.5,2.7-0.8c0.9-0.3,1.7-0.5,2.6-0.8
		c0.8-0.3,1.6-0.7,2.5-1c0.8-0.3,1.7-0.7,2.5-1.1c1.7-0.9,3.2-1.8,4.5-2.7l2-1.6l1.8-1.9l1.5-2c0.4-0.7,0.8-1.5,1.1-2.3l0.4-1.2
		l0-0.2l0-0.1l0.1-0.1l0-0.1l0-0.1l0.1-0.3l0.1-0.4l0.2-1.2l0.1-1.3c0.1-1.8,0-3.5-0.5-5.1l-0.4-1.2l-0.6-1.1l-0.8-1l-0.8-0.9
		l-1-0.7l-1.1-0.7c-0.7-0.3-1.5-0.6-2.4-0.7l-1.3-0.2l-1.3,0c-0.8,0-1.7,0.2-2.5,0.6c-1.7,0.6-3.1,1.5-4.3,2.8l-0.4,0.5l-0.4,0.5
		l-0.4,0.6l-0.3,0.5l-0.3,0.6l-0.3,0.6l-0.3,0.7l0,0.1l0,0.2l-0.1,0.1l-0.1,0.1l-1.4,0.6l-0.5-0.5l0-0.8l0.1-0.2l0.1-0.1l0.1-0.4
		l0.1-0.3l0.1-0.3l0.4-0.7l0.4-0.7l0.4-0.7l0.4-0.6l0.5-0.7l0.5-0.6c1.3-1.5,3.1-2.6,5.1-3.4l1.4-0.5l1.5-0.3c1.1-0.1,2.1-0.1,3.2,0
		c1,0.1,2,0.4,3,0.8l1.5,0.7l1.3,0.9c0.9,0.7,1.6,1.5,2.2,2.3l0.8,1.3l0.7,1.5c0.4,1,0.7,2,0.9,3C399.9,66.5,400,67.6,400,68.7z"/>
	<path fill="#FFFFFF" d="M85.9,66.7c-6.3,6.8-12.1,10.2-17.3,10.2c-3.2,0-5.6-1.5-7.2-4.6c-1.7-3.1-2.5-7.1-2.5-12.2
		c0-4,0.8-9.4,2.4-16.3c1.6-6.9,3.7-12.7,6.3-17.4l2.4-4.4c-3.3,3.5-6.1,7.3-8.2,11.5c-2.1,4.2-4.7,10-7.7,17.4
		c-3,7.5-5.2,12.6-6.8,15.3c-1.5,2.7-3,4.9-4.4,6.6c-1.4,1.7-2.6,2.8-3.7,3.3c-1.1,0.5-3,0.7-5.7,0.7c-1,0-1.6-0.3-1.6-0.8
		c0-0.1,0.2-0.9,0.6-2.7c0.4-1.7,0.8-4.5,1.1-8.3c0.4-3.8,0.7-10.2,0.8-19.3c0.2-9.1,1.5-16.9,4-23.4c-2.7,3-5.4,10-8.1,21.1
		l-1.1,4.1c-2.9,11.5-6.2,19.2-10,23.2c-3.8,4-7.4,6-11.1,6c-2.2,0-4.2-0.7-5.9-2.1C0.9,73.4,0,71.8,0,70c0-1.4,1-3,3.1-4.7
		c2-1.7,3.3-2.6,3.8-2.6l1.2,0.6c0.2,0.4,0.4,1.6,0.8,3.5c0.3,1.9,0.8,3.2,1.4,3.7c0.6,0.6,1.4,0.9,2.4,0.9c2.2,0,4.6-2.2,7.2-6.6
		c2.6-4.4,5-11.1,7.2-20.2l1.2-5.1c1-4.2,2-7.5,2.9-10c1-2.5,2.2-5,3.8-7.5c2.3-3.5,3.7-5.4,4.2-5.7c0.5-0.2,1.5-0.4,2.9-0.6
		c1.4-0.2,2.9-0.2,4.3-0.2l0.8,1c0,0.3-0.1,1-0.3,1.9c-0.6,3.9-0.8,7.9-0.8,11.9l0.1,11.3c0.1,9.8-0.7,17.8-2.4,23.9
		c1.5-1.8,3.7-6.4,6.5-14c4.1-10.6,7.9-18.6,11.2-23.9c1.6-2.6,3.5-5,5.8-7.4c2.3-2.3,3.8-3.6,4.7-3.8c3-0.6,5.5-0.8,7.6-0.8
		l1.1,0.6c0,0.6-0.5,1.9-1.4,4c-2.2,5-4.2,11.7-6.1,20.1c-1.9,8.5-2.9,15.2-2.9,20.2c0,5.7,1.7,8.5,5.2,8.5c2.8,0,6.2-2.4,10.1-7.2
		L85.9,66.7z"/>
	<path fill="#FFFFFF" d="M131.1,66.7c-3.7,3.5-6.8,6.1-9.3,7.8c-2.5,1.7-4.8,2.5-6.8,2.5c-2.2,0-3.9-0.9-5.1-2.7
		c-1.2-1.8-1.8-4.2-1.8-7.2c-3.1,3.4-5.9,5.9-8.3,7.6c-2.4,1.6-4.8,2.4-7.2,2.4c-2.1,0-3.9-0.9-5.2-2.7c-1.3-1.8-1.9-4.2-2-7.2
		c0-5.9,2-14.1,5.9-24.8l11.3-2.3c-4.6,13.5-7,22.2-7,26c0,2.7,1,4.1,3,4.1c1.5,0,3.3-1.2,5.5-3.6c2.2-2.4,3.5-4.5,4.1-6.2l5.5-18
		l11.5-2.3c-2.7,8.5-4.5,14.5-5.5,17.9c-1,3.5-1.5,5.9-1.5,7.2c0,2.6,0.9,4,2.7,4c1.5,0,3.6-1.3,6.5-4l3.6-3.3V66.7z"/>
	<path fill="#FFFFFF" d="M172.5,66.7c-6.7,6.9-12.2,10.4-16.5,10.4c-1.9,0-3.5-0.7-4.8-2c-1.2-1.3-1.9-3-1.9-5
		c0-3.4,1.3-8.1,3.9-14.3c1.4-3.3,2.1-5.5,2.1-6.5c0-1.2-0.6-1.7-1.6-1.7c-1.1,0-2.8,0.8-4.9,2.3c-2.1,1.5-4.4,3.6-6.8,6.3
		c-1,5.2-1.5,11.4-1.5,18.7l-9.4,2.2c-0.4-3-0.5-6.2-0.6-9.7c0-8.4,1.2-16.2,3.5-23.5c2.3-7.2,5.9-14.9,10.9-23.1
		c3.7-1.5,6.9-2.7,9.7-3.7c2.7-0.9,4.3-1.4,4.7-1.4c0.7,0,1.4,0.6,1.9,1.8c0.5,1.2,0.8,2.7,0.8,4.5c0,3-0.9,6.3-2.7,9.9
		c-1.8,3.6-4.7,8-8.6,13.1c3.8-2.2,6.2-3.5,7.5-4.1c1.2-0.6,2.5-0.9,3.8-0.8c1.4,0,2.6,0.5,3.5,1.5c0.9,1,1.3,2.4,1.3,4.1
		c0,2.5-1,6.5-3,11.8c-2,5.3-3,8.7-3,10l0.6,1.6l1.3,0.7c1.8,0,5.1-2.7,10-8.2V66.7z M143.2,49.4c10.1-11.7,15.1-20.3,15.1-25.9
		c0-1.7-0.5-2.5-1.4-2.5c-1.5,0-3.8,2.8-6.6,8.3C147.4,34.9,145.1,41.6,143.2,49.4z"/>
	<path fill="#FFFFFF" d="M193.3,66.7c-6.6,6.9-11.5,10.4-14.8,10.4c-1.8,0-3.3-0.9-4.6-2.8c-1.2-1.8-1.9-4.2-1.9-7
		c0-6,2-14.3,6.1-24.9l10.7-2.3h0.5l-4.2,13.2c-1.7,5.5-2.6,9.4-2.6,11.7c0,0.9,0.2,1.7,0.6,2.3l1.5,0.9c1.1,0,2.2-0.4,3.3-1.2
		c1.1-0.8,2.9-2.6,5.3-5.2L193.3,66.7z M192.5,23.7c0,6.8-2.5,10.2-7.5,10.2c-2.4,0-4.5-0.7-6.2-2.2c1.6-2.5,2.9-5.3,3.8-8.4
		c2.2,1.4,4,2.1,5.4,2.1C189.5,25.3,191,24.8,192.5,23.7z"/>
	<path fill="#FFFFFF" d="M231.3,66.7c-1.9,2.1-4.3,3.1-7.1,3.1c-2.2,0-4.5-1-7-3.1c-3,3.5-5.7,6-8,7.7c-2.3,1.7-4.9,2.5-7.6,2.5
		c-2.4,0-4.5-1-6.2-3c-1.7-2-2.5-4.6-2.5-7.6c0-5.9,1.7-13.8,5.2-23.8c3.4-10,6.8-17.6,10.1-22.7c3.7-1.2,7-2.1,9.8-2.9
		c2.8-0.7,4.5-1.1,4.9-1.1c0.8,0,1.5,0.5,2.1,1.6c0.6,1.1,0.9,2.4,0.9,3.9c0,3.2-1.3,6.9-3.9,11.1c-2.6,4.2-6,8.4-10.2,12.6
		l-5.5,5.5c-1.7,6.1-2.6,10.7-2.6,13.6c0,1.6,0.4,2.9,1.1,3.8c0.7,1,1.7,1.4,2.9,1.5c1.4,0,2.6-0.4,3.7-1.3c1.1-0.9,2.4-2.2,3.7-4.1
		c-1.4-2.4-2.1-4.9-2.1-7.4c0-4.1,1.1-7.9,3.3-11.3c2.2-3.5,4.6-5.2,7.1-5.2c1,0,1.8,0.4,2.4,1.3c0.6,0.9,1,2,1,3.5
		c0,4.6-2.6,10.9-7.8,19c1.5,1.9,3.3,2.9,5.3,2.9c1.3,0,2.3-0.3,3.2-0.9c0.9-0.6,2.2-1.9,3.8-4L231.3,66.7z M208.4,44.1
		c4.6-4.5,8-8.6,10.4-12.4c2.4-3.8,3.5-6.7,3.5-8.6c0-0.8-0.2-1.4-0.5-1.9l-1.3-0.8C217.2,20.4,213.1,28.3,208.4,44.1z"/>
	<path fill="#FFFFFF" d="M269.2,66.7c-1.9,2.1-4.3,3.1-7.1,3.1c-2.2,0-4.5-1-7-3.1c-3,3.5-5.7,6-8,7.7c-2.3,1.7-4.9,2.5-7.6,2.5
		c-2.5,0-4.5-1-6.2-3c-1.7-2-2.5-4.6-2.5-7.6c0-5.9,1.7-13.9,5.2-23.8c3.4-10,6.8-17.6,10.1-22.7c3.7-1.2,7-2.1,9.8-2.9
		c2.8-0.7,4.5-1.1,4.9-1.1c0.8,0,1.5,0.5,2.1,1.6c0.6,1.1,0.9,2.4,0.9,3.9c0,3.2-1.3,6.9-3.9,11.1c-2.6,4.2-6,8.5-10.2,12.6
		l-5.6,5.5c-1.7,6.2-2.6,10.7-2.6,13.6c0,1.6,0.4,2.9,1.1,3.9c0.7,1,1.7,1.4,2.9,1.4c1.4,0,2.6-0.4,3.7-1.3c1.1-0.9,2.4-2.2,3.7-4
		c-1.4-2.4-2.1-4.9-2.1-7.5c0-4.1,1.1-7.9,3.3-11.3c2.2-3.5,4.6-5.2,7.1-5.2c1,0,1.8,0.4,2.4,1.3c0.6,0.9,1,2,0.9,3.5
		c0,4.6-2.6,10.9-7.8,18.9c1.6,1.9,3.3,2.9,5.3,2.9c1.2,0,2.3-0.3,3.2-0.9c0.9-0.6,2.2-1.9,3.8-4L269.2,66.7z M246.3,44.1
		c4.6-4.5,8-8.6,10.4-12.4c2.4-3.8,3.5-6.7,3.5-8.6c0-0.8-0.2-1.4-0.5-1.9l-1.3-0.8C255.1,20.4,251.1,28.3,246.3,44.1z"/>
	<path fill="#FFFFFF" d="M314.3,66.7c-4.5,4.3-7.7,7.1-9.7,8.4c-1.9,1.3-3.8,1.9-5.6,1.9c-4.5,0-6.6-3.9-6.3-11.8
		c-2.8,4-5.4,7-7.8,8.9c-2.4,1.9-4.8,2.9-7.4,2.9c-2.5,0-4.6-1.2-6.3-3.5c-1.7-2.3-2.6-5.2-2.6-8.6c0-4.2,1.2-8.3,3.5-12.1
		c2.3-3.8,5.3-6.9,8.9-9.3c3.6-2.4,6.9-3.6,9.7-3.6c3.5,0,6,1.6,7.4,4.9l8.6-4.8l2.4,0l-3.7,12.4c-1.9,6.2-2.9,10.5-2.9,12.8
		c0,2.4,0.8,3.6,2.6,3.6c1.1,0,2.3-0.6,3.6-1.8c1.3-1.2,3.2-2.9,5.6-5.3L314.3,66.7z M283.4,69.1c2.8,0,5.5-2.4,8-7.2
		c2.5-4.8,3.7-9.3,3.7-13.3c0-1.6-0.4-2.8-1.1-3.7c-0.7-0.9-1.6-1.3-2.8-1.3c-2.8,0-5.5,2.4-8,7.2c-2.5,4.8-3.8,9.2-3.8,13.2
		c0,1.5,0.4,2.7,1.1,3.7C281.3,68.6,282.2,69.1,283.4,69.1z"/>
	<path fill="#FFFFFF" d="M335.1,66.7c-6.6,6.9-11.5,10.4-14.8,10.4c-1.8,0-3.3-0.9-4.6-2.8c-1.2-1.9-1.9-4.2-1.9-7
		c0-6,2-14.3,6.1-24.9l10.7-2.2h0.5L327,53.5c-1.8,5.5-2.6,9.4-2.6,11.7c0,0.9,0.2,1.7,0.6,2.3l1.5,0.9c1.1,0,2.2-0.4,3.3-1.2
		c1.1-0.8,2.9-2.5,5.3-5.2L335.1,66.7z M334.3,23.7c0,6.8-2.5,10.1-7.5,10.1c-2.4,0-4.5-0.7-6.2-2.2c1.6-2.5,2.9-5.3,3.8-8.4
		c2.2,1.4,4,2.1,5.4,2.1C331.3,25.3,332.8,24.8,334.3,23.7z"/>
	<path fill="#FFFFFF" d="M376.6,66.7c-6.5,6.9-12.1,10.3-16.7,10.3c-1.9,0-3.4-0.7-4.6-2c-1.2-1.3-1.7-3.1-1.7-5.3
		c0-3,1.2-7.6,3.7-13.8c1.3-3.3,2-5.4,2-6.3c0-0.9-0.3-1.4-1.1-1.4l-1.6,0.6c-0.6,0.4-1.3,1-2.1,1.7c-0.7,0.7-1.5,1.4-2.4,2.4
		c-0.8,0.8-1.6,1.7-2.5,2.7l-2.4,2.7c-1,1.3-1.7,2.6-1.9,4c-0.4,2.4-0.7,4.6-0.9,6.6c-0.1,1.5-0.1,3.5-0.1,6.1l-9.4,2.2
		c-0.3-3.8-0.5-6.6-0.5-8.5c0-4.5,0.5-8.8,1.6-12.9c1.1-4.1,2.8-8.6,5.1-13.7l10.3-2c-2.2,5.8-3.6,10.4-4.3,13.8
		c4.6-5.2,8.3-8.7,11-10.7c2.7-2,5.1-3,7.2-3c1.4,0,2.6,0.6,3.6,1.6c1,1.1,1.4,2.5,1.4,4.1c0,2.7-1.2,7.1-3.6,13.4
		c-1.7,4.2-2.5,7-2.5,8.3c0,1.7,0.7,2.5,2.1,2.5c2.1,0,5.4-2.7,10-8.2L376.6,66.7z"/>
	<path fill="#FFFFFF" d="M106.7,11.2c-1.9,0-4,0.1-6.5,0.3c-2.7,5.3-6.6,13.3-6.6,16.7c0,0.9,0.3,1.3,1.1,1.3c1.6,0,4.4-1.7,6.4-5.9
		l0.1-0.1l0.4,0.2l0.1,0.1c0,0-1.6,7.7-7.5,7.8c-1.4,0-3.7-0.8-3.7-4.2c0-4,2.4-10.6,4.4-15.4c-0.9,0.4-1.8,0.4-2.5,0.4
		c-2.7,0-4.5-1.5-4.5-3.2c0-1.1,0.7-2,2.1-2.8c0.8,0,1.2,0.4,1.2,0.6l-0.2,0.2l-0.6-0.2c-0.5,0-1.2,0.3-1.2,1.4
		c0,0.9,0.6,1.4,1.9,1.4c1.3,0,2.8-0.5,5.4-1.1c1.1-2.5,2.8-7.1,2.8-7.1c0.8,0,3.9,1.8,3.9,3.7c0,0.8-0.3,1.3-0.8,2.2
		c3.5-0.6,6.4-0.8,8.9-0.8c3.4,0,5.6,0.4,6.4,0.6l1.3,0.8c0.6,0.6,1.4,1.4,1.3,2.8l-0.5,2c-0.6,0-1.5-1.1-7-1.5
		C111.2,11.2,109.2,11.2,106.7,11.2z"/>
	<path fill="#FFFFFF" d="M118,22.6c0,0.6-2.8,8.1-6.7,8c-2.2,0-3.9-2.5-3.9-5.6c0-1.7,0.2-2.8,0.7-4.4c-2,3.7-4.9,9.1-5.4,11.2
		c-0.3,1.1-1.3,1.8-2.4,1.8c-1.1,0-2.3-0.8-2.3-3.3c0-7,7.1-24.4,8-26.6l0.5-1.6c0.3-0.8,0.6-1.8,0.6-2.3c0.2,0.2,4,1.3,4,3.4
		l-0.4,1.8C109.3,8,101,24.9,101,29.9l0.1-0.1c7.9-14.3,11.3-16.5,10.7-17.7c0.2,0,3.3,1.9,3.3,3.5l-0.2,1c-1.1,3-4,6.2-4,9.8
		c0,1.1,0.1,2.1,1.1,2.1c1.3,0,3.5-1.8,5.4-6.1l0.4-0.1L118,22.6z"/>
	<path fill="#FFFFFF" d="M132,24.4c-0.7,1.3-1.6,2.5-2.5,3.5c-1.6,1.7-4.1,3.4-7.4,3.4c-4.9,0-6.6-4.7-6.6-7.6
		c0-6.4,4.6-12.5,9.5-12.5c3,0,4.7,2,4.7,4c0,4-3.7,7.4-8.1,7.4c-1.5,0-2.5-0.4-3-0.8c-0.3,0.8-0.4,1.7-0.4,2.5
		c0,2.6,1.8,5.1,4.5,5.2c2,0,4.4-1.5,5.7-2.3c2.8-2.1,2.8-3,3.2-3l0.3,0.1L132,24.4z M118.9,20.7l0.9,0.1c2.8,0,5.4-3,5.4-4.6
		l-1-0.9c-0.9,0-2.3,0.6-3.6,2.3C120.1,18.5,119.4,19.6,118.9,20.7z"/>
</g>
</svg>
