<?xml version="1.0" encoding="utf-8"?>
<!-- Generator: Adobe Illustrator 17.1.0, SVG Export Plug-In . SVG Version: 6.00 Build 0)  -->
<!DOCTYPE svg PUBLIC "-//W3C//DTD SVG 1.1//EN" "http://www.w3.org/Graphics/SVG/1.1/DTD/svg11.dtd">
<svg version="1.1" id="Layer_1" xmlns="http://www.w3.org/2000/svg" xmlns:xlink="http://www.w3.org/1999/xlink" x="0px" y="0px"
	 viewBox="0 0 519.2 39.2" enable-background="new 0 0 519.2 39.2" xml:space="preserve">
<g>
	<path fill="#C02646" d="M19.9,15.3l-1,7.8h3.9v4.1h-4.5l-1.6,11.6h-4.4l1.6-11.6H8.2L6.6,38.8H2.2l1.6-11.6H0v-4.1h4.4l1-7.8H1.6
		l-0.1-4.1H6L7.5,0.4H12l-1.5,10.8h5.6l1.5-10.8H22l-1.5,10.8h3.8l0.1,4.1H19.9z M9.9,15.3l-1,7.8h5.6l1.1-7.8H9.9z"/>
	<path fill="#808285" d="M36.4,38.8V0.4h2.2v36.4h10.2v1.9H36.4z"/>
	<path fill="#808285" d="M70.9,37.3c-1.2,1.2-3,1.9-5.1,1.9c-2.1,0-3.9-0.6-5.1-1.9C58.4,35,58,32.9,58,19.6s0.4-15.4,2.7-17.7
		c1.2-1.2,3-1.9,5.1-1.9c2.1,0,3.9,0.6,5.1,1.9c2.3,2.3,2.7,4.5,2.7,17.7S73.2,35,70.9,37.3z M69.4,3.3c-0.8-0.9-2-1.3-3.6-1.3
		c-1.6,0-2.8,0.5-3.6,1.3c-1.7,1.9-2,3.6-2,16.3c0,12.8,0.3,14.4,2,16.3c0.8,0.9,2,1.3,3.6,1.3c1.6,0,2.8-0.5,3.6-1.3
		c1.7-1.9,2-3.6,2-16.3C71.4,6.8,71.1,5.2,69.4,3.3z"/>
	<path fill="#808285" d="M92.7,38.8h-2L82.5,0.4h2.4l6.7,34l6.7-34h2.4L92.7,38.8z"/>
	<path fill="#808285" d="M110.2,38.8V0.4h12.4v1.9h-10.2v16.3h8.8v1.9h-8.8v16.3h10.2v1.9H110.2z"/>
	<path fill="#808285" d="M148.5,37.1c-1.5,1.4-3.3,2.1-5.9,2.1c-3.1,0-5.1-1.1-6.6-2.7c-2.6-2.9-2.8-7.3-2.8-16.9
		c0-9.6,0.2-14,2.8-16.9c1.5-1.6,3.5-2.7,6.6-2.7c2.6,0,4.6,0.8,6.1,2.3c1.8,1.7,2.7,4.5,2.7,7.7h-4.6c0-1.7-0.3-3.3-1.2-4.4
		c-0.6-0.8-1.6-1.3-3-1.3c-1.5,0-2.5,0.6-3.1,1.5c-1.3,1.8-1.6,4.9-1.6,14s0.3,12.2,1.6,14c0.6,0.9,1.6,1.5,3.1,1.5
		c1.5,0,2.4-0.6,3-1.4c0.9-1.1,1.2-2.7,1.2-4.4h4.6C151.4,32.5,150.4,35.4,148.5,37.1z"/>
	<path fill="#808285" d="M162.3,38.8V0.4h4.6v38.4H162.3z"/>
	<path fill="#808285" d="M193.8,38.8l-9.9-26.2v26.2h-4.6V0.4h4.3l9.9,26.2l-0.1-26.2h4.6v38.4H193.8z"/>
	<path fill="#808285" d="M219.2,4.6v34.2h-4.6V4.6h-6.5V0.4h17.5v4.1H219.2z"/>
	<path fill="#808285" d="M247.4,38.8l-1.8-9.1h-8.9l-1.8,9.1H230l8.9-38.4h4.5l8.9,38.4H247.4z M241.1,7.9l-3.6,17.7h7.2L241.1,7.9z
		"/>
	<path fill="#808285" d="M280.8,38.8v-20L276.6,32h-3.9l-4.1-13.1v19.9h-7.7V0.4h6.7l7,18.8l7-18.8h6.8v38.4H280.8z"/>
	<path fill="#808285" d="M316.4,38.8l-1.2-6h-8.8l-1.2,6h-8L307,0.4h7.5l9.9,38.4H316.4z M310.7,11.7l-3,14.2h5.9L310.7,11.7z"/>
	<path fill="#808285" d="M347,38.8V22.7h-6.4v16.1H333V0.4h7.7v15.4h6.4V0.4h7.7v38.4H347z"/>
	<path fill="#808285" d="M382.7,38.8l-1.2-6h-8.8l-1.2,6h-8l9.9-38.4h7.5l9.9,38.4H382.7z M377,11.7l-3,14.2h5.9L377,11.7z"/>
	<path fill="#808285" d="M418.4,36.3c-1.6,1.7-4.2,2.5-8,2.5h-11.1V0.4h11.1c3.8,0,6.4,0.9,8,2.5c1.8,1.8,2.5,4.6,2.5,8.2
		c0,2.5-0.2,4.6-1.8,6.2c-0.5,0.5-1,0.9-1.8,1.3c0.7,0.4,1.3,0.9,1.7,1.3c1.8,2,1.9,4.8,1.9,7C421,31.2,420.3,34.3,418.4,36.3z
		 M409.3,7.3h-2.3v8.2h2.3c3,0,4-1.2,4-4.1C413.3,8.5,412.3,7.3,409.3,7.3z M409.4,22h-2.4v9.9h2.4c3.1,0,3.9-1.5,3.9-5
		C413.3,23.4,412.3,22,409.4,22z"/>
	<path fill="#808285" d="M450.9,36.3c-1.6,1.7-4.1,2.5-8,2.5h-11.1V0.4h11.1c3.8,0,6.4,0.9,8,2.5c1.8,1.8,2.5,4.6,2.5,8.2
		c0,2.5-0.2,4.6-1.8,6.2c-0.5,0.5-1,0.9-1.8,1.3c0.7,0.4,1.3,0.9,1.7,1.3c1.8,2,1.9,4.8,1.9,7C453.4,31.2,452.8,34.3,450.9,36.3z
		 M441.7,7.3h-2.3v8.2h2.3c3,0,4-1.2,4-4.1C445.8,8.5,444.8,7.3,441.7,7.3z M441.9,22h-2.4v9.9h2.4c3.1,0,3.9-1.5,3.9-5
		C445.8,23.4,444.8,22,441.9,22z"/>
	<path fill="#808285" d="M480.9,38.8l-1.2-6h-8.8l-1.2,6h-8l9.9-38.4h7.5l9.9,38.4H480.9z M475.3,11.7l-3,14.2h5.9L475.3,11.7z"/>
	<path fill="#808285" d="M511.6,38.8V22.7h-6.4v16.1h-7.7V0.4h7.7v15.4h6.4V0.4h7.7v38.4H511.6z"/>
</g>
</svg>
