<?xml version="1.0" encoding="utf-8"?>
<!-- Generator: Adobe Illustrator 17.1.0, SVG Export Plug-In . SVG Version: 6.00 Build 0)  -->
<!DOCTYPE svg PUBLIC "-//W3C//DTD SVG 1.1//EN" "http://www.w3.org/Graphics/SVG/1.1/DTD/svg11.dtd">
<svg version="1.1" id="Layer_1" xmlns="http://www.w3.org/2000/svg" xmlns:xlink="http://www.w3.org/1999/xlink" x="0px" y="0px"
	 viewBox="0 0 100 147.9" enable-background="new 0 0 100 147.9" xml:space="preserve">
<g>
	<g>
		<path fill-rule="evenodd" clip-rule="evenodd" fill="#009345" d="M99.9,89.8c-14.3,7.4-28.8,14.7-43.5,22.2c-2,1-4.7,3-6.4,3
			c-1.7,0-4.6-2-6.4-3C29.1,104.3,14.4,97.3,0,89.8c1.2-1.5,3-2.5,4.7-3.6c3.2-2.2,6.7-3.9,9.7-6.7c1.4-1.3,3-2.8,3.4-4.7
			c0.9-3.6-0.7-7.6-2.2-10.2c-1.5-2.8-3.5-5.4-5-7.5C7,51.9,4.5,46.3,5.2,37.5c0.4-5.4,3.6-10.2,6.7-13.6c3.3-3.7,7.2-6.6,11-9.2
			C31,8.8,39.3,4.2,48.9,0.2c2-0.8,5,1.3,6.6,2c5.6,2.6,11,5.5,15.8,8.5c6,3.7,12.3,7.8,17.9,14.4c2.6,3.1,4.7,6.5,5.5,10.8
			c0.9,4.7,0.2,10.4-1.3,14.3c-1.4,3.8-3.9,6.9-6.1,10c-2.3,3.2-4.8,6.5-5.2,11c-0.3,3.6,0.7,5.4,2.4,7.2c3.8,4.2,10.6,6.8,15,10.7
			C99.6,89.2,100.2,89.4,99.9,89.8z M81.4,76.3c-1.3-2.9-0.7-7.4,0.5-10.2c1.9-4.6,5.2-7.7,8-12.1c2.6-4.1,4.1-9.9,3.6-16.6
			c-0.8-9.9-11.6-17.9-17.7-22.2c-6.3-4.4-14.6-9-22.4-12.5C52.1,2.1,50.3,1,49,1.6c-9.4,4.1-17.2,8.2-25.2,13.8
			c-3.5,2.4-7.3,5.4-10.5,8.9c-3,3.3-6.3,7.8-6.7,12.8c-0.7,8.5,1.6,14.2,5.2,19.3c1.5,2.2,3.4,4.5,5,7.2c1.5,2.5,2.9,6,2.7,9.7
			c-0.4,5.2-4.9,8-8.3,10.2c-3,1.9-6,3.9-8.6,6c13.7,6.8,27.6,14.4,41.4,21.3c1.4,0.7,5,2.9,6.3,2.8c0.7,0,1.8-0.8,3-1.4
			c15.1-7.6,30-15.3,44.5-22.9C92.8,85.2,84.2,82.5,81.4,76.3z"/>
		<path fill-rule="evenodd" clip-rule="evenodd" d="M90.7,89.6c-11.7,5.6-23.4,11.3-35.4,17.2c-1.4,0.7-4,2.3-5.2,2.4
			c-1.3,0-3.7-1.6-5.3-2.4c-11.7-5.8-23.7-11.6-35.4-17.2c0-0.5,0.6-1,0.9-1.3c1.2-1,2.7-2,4.1-3c4.4-3.1,9.4-5.6,9.6-13.2
			c0.1-5.7-2.7-9.7-5.2-13.3c-3.5-5.3-6.2-10-5.3-19.3c0.4-4.5,3.1-8.4,5.6-11.4c2.7-3.2,5.8-5.8,8.8-8.1
			c6.6-5.1,13.3-9.3,21.3-12.7c1.6-0.7,4.8,1.3,6.7,2.4c5.7,3,11.5,6.4,16.1,10c3,2.4,6.2,5.2,8.9,8.5c2.5,3,5.3,7.3,5.6,11.7
			c0.4,4.5-0.2,9.3-1.6,12.7c-2.1,5.1-6.4,8.6-8.1,13.9c-2.1,6.1-0.1,12,3.3,15C83.3,84.5,88.1,86.4,90.7,89.6z M28.8,21.7
			c-2.8,2.1-6,4.9-8.5,8c-2.6,3.1-4.8,6.9-5,11.6c-0.2,3.5,0.1,6.7,1.1,9.6c2.4,7.1,9.6,12,9.6,21.3c0,4.7-2.3,9.1-5.8,11.9
			c-2.5,2-5,2.8-7.2,5.2c12.5,5.9,24.6,12.1,37.1,18c12.3-6,24.5-12.1,37-18c-2.4-2.5-6.2-3.9-8.8-6.6c-2.4-2.4-4.1-5.9-4.2-10
			c-0.4-11.7,9.7-15.9,10.5-27.1c0.6-8.5-2.1-12.4-6-16.8C71,20,60.5,14.4,50.3,9.1c-0.1,0-0.2,0-0.3,0
			C42.4,12.7,35.4,16.6,28.8,21.7z"/>
		<path fill-rule="evenodd" clip-rule="evenodd" d="M43.5,40.8c2.1,5,4.3,9.9,6.3,15c1-1,1.2-2.5,1.7-3.8c1.5-3.5,3.4-7.4,4.9-11.3
			c5.1,0.1,10.5-0.2,15.3,0.1c-0.1,0.9-1.4,0.5-1.9,1.1c-0.7,11.7-0.2,24.9-0.2,36.8c0.5,0.5,1.7,0.3,2,0.9
			c-0.2,0.8-1.2,0.5-1.7,0.5c-4.7,0.2-10.6,0-15.2-0.2c-0.1-1.1,1.3-0.7,1.9-1.1c0-4.9,0-9.8,0-14.7c-1.6,3.8-3.6,8-5.3,12.2
			c-0.4,1-1,3.8-2,3.8c-1,0-1.6-2.8-2-3.8c-1.7-4.1-3.6-8.2-5.2-12.2c-0.4,4.5-0.1,9.7-0.2,14.4c0.1,0.9,1.9,0.2,1.9,1.2
			c-0.3,0.6-1.2,0.3-1.7,0.3c-4.2,0.1-9.6,0.1-13.8-0.2c-0.1-1.2,1.6-0.6,2-1.2c0-12.2,0-24.4,0-36.7c-0.3-0.7-1.8-0.3-2-1.1
			c0-0.2,0-0.3,0.2-0.3C33.5,40.8,38.5,40.8,43.5,40.8z M32.1,42.2c0,12.2,0,24.4,0,36.7c1.8,1.1,6.3,1.1,8.2,0
			c-0.1-5.6,0.2-11.6-0.2-16.9c-0.6-0.5-1.9-0.3-2-1.3c1.3-0.2,3.9,0.3,5.5-0.2c2.2,5.1,4.1,10.4,6.6,15.2c1.4-3.9,3.4-7.8,4.9-11.4
			c0.5-1.3,0.7-2.7,1.7-3.8c0.7,0.3,1.6,0.2,2.7,0.2c0.9,0,2.2-0.4,2.4,0.3c-0.3,0.7-1.5,0.5-2,0.9c-0.3,5.3-0.3,11.7,0,17.1
			c2,0.8,6.1,0.9,8.1,0C68,71.8,68,64.3,68,56.9c0-5.4,0.4-10.6-0.5-15.2c-2.1-0.5-6.1-0.6-7.8,0.3c-0.3,5.4-0.3,11.7,0,17.1
			c0.6,0.4,2,0.1,2,1.1c-1.5,0.2-3.8,0.2-5.3,0.1c-0.5,0-1.4,0.3-1.6-0.3c0.1-0.9,1.7-0.4,1.9-1.2c-0.1-4.8,0.2-9.9-0.2-14.4
			c-1.9,4.6-3.9,9.7-6,14.4c-0.4,0.9-0.6,1.7-1.4,1.6c-0.6-0.1-0.7-0.9-1.1-1.7C46,53.7,44,48.8,42,44.4c0,4.8,0,9.7,0,14.6
			c0.4,0.7,1.9,0.2,1.9,1.3c-0.7,0.3-1.9,0.1-3,0.1c-1,0-2.5,0.3-2.8-0.5c0.4-0.6,1.7-0.4,2.2-0.9c0-5.6,0-11.2,0-16.8
			C38.9,41.1,33,40.9,32.1,42.2z"/>
	</g>
	<g>
		<path fill="#231F20" d="M21.4,133.3v-5.6c0-1.1-0.8-1.3-1.1-1.3c-0.4,0-1.2,0.2-1.2,1.3v5.6h-2.9v-5.6c0-1.1-0.8-1.3-1.2-1.3
			c-0.4,0-1.1,0.2-1.1,1.3v5.6h-2.9v-9.4h2.8v0.8c0.6-0.6,1.4-0.9,2.2-0.9c0.9,0,1.7,0.3,2.3,1c0.8-0.7,1.6-1,2.6-1
			c0.9,0,1.7,0.3,2.3,0.8c0.8,0.8,1,1.7,1,2.7v6H21.4z"/>
		<path fill="#231F20" d="M30.9,133.3v-0.8c-0.6,0.6-1.1,0.9-2.1,0.9c-0.9,0-1.7-0.3-2.2-0.8c-0.5-0.5-0.8-1.3-0.8-2.2
			c0-1.4,1-2.7,3.2-2.7h1.9v-0.2c0-0.9-0.4-1.2-1.4-1.2c-0.7,0-1,0.2-1.5,0.6l-1.8-1.8c1-1,1.8-1.3,3.4-1.3c2.7,0,4.1,1.1,4.1,3.4
			v6.1H30.9z M30.8,129.5h-1.4c-0.6,0-0.9,0.3-0.9,0.7c0,0.4,0.3,0.8,0.9,0.8c0.6,0,0.8-0.1,1.1-0.4c0.2-0.2,0.3-0.5,0.3-0.9V129.5z
			"/>
		<path fill="#231F20" d="M40.6,133.3v-0.8c-0.6,0.6-1.2,0.9-2.2,0.9c-0.9,0-1.7-0.3-2.3-0.9c-0.9-0.9-0.9-2.6-0.9-3.9
			c0-1.4,0-3,0.9-3.9c0.5-0.5,1.4-0.9,2.3-0.9c0.9,0,1.6,0.3,2.1,0.8v-3.7h2.9v12.4H40.6z M39.3,126.4c-1.1,0-1.2,0.9-1.2,2.2
			s0.1,2.2,1.2,2.2c1.1,0,1.2-0.9,1.2-2.2S40.4,126.4,39.3,126.4z"/>
		<path fill="#231F20" d="M50.5,126.9c-0.3-0.3-0.5-0.5-1-0.5c-0.4,0-1.2,0.2-1.2,1.3v5.6h-2.9v-9.4h2.8v0.8
			c0.4-0.4,1.2-0.9,2.2-0.9c0.9,0,1.5,0.2,2.2,0.9L50.5,126.9z"/>
		<path fill="#231F20" d="M58.1,133.3v-0.8c-0.6,0.6-1.1,0.9-2.1,0.9c-0.9,0-1.7-0.3-2.3-0.8c-0.5-0.5-0.8-1.3-0.8-2.2
			c0-1.4,1-2.7,3.2-2.7h1.9v-0.2c0-0.9-0.4-1.2-1.4-1.2c-0.7,0-1,0.2-1.5,0.6l-1.8-1.8c1-1,1.8-1.3,3.4-1.3c2.7,0,4.1,1.1,4.1,3.4
			v6.1H58.1z M58.1,129.5h-1.4c-0.6,0-0.9,0.3-0.9,0.7c0,0.4,0.3,0.8,0.9,0.8c0.6,0,0.8-0.1,1.1-0.4c0.2-0.2,0.3-0.5,0.3-0.9V129.5z
			"/>
		<path fill="#231F20" d="M66.1,133.4c-1.4,0-2.8-0.1-4.1-1.4l1.8-1.8c0.8,0.8,1.8,0.8,2.3,0.8c0.4,0,1.2-0.1,1.2-0.6
			c0-0.3-0.1-0.5-0.7-0.6l-1.4-0.1c-1.6-0.2-2.7-0.9-2.7-2.7c0-2.1,1.9-3.1,3.7-3.1c1.5,0,2.8,0.2,3.7,1.2l-1.8,1.8
			c-0.5-0.5-1.3-0.5-2-0.5c-0.7,0-0.9,0.3-0.9,0.5c0,0.1,0,0.5,0.6,0.5l1.4,0.1c2,0.2,2.8,1.4,2.8,2.9
			C70.1,132.4,68.3,133.4,66.1,133.4z"/>
		<path fill="#231F20" d="M76.2,133.3v-0.8c-0.6,0.6-1.1,0.9-2.1,0.9c-0.9,0-1.7-0.3-2.2-0.8c-0.5-0.5-0.8-1.3-0.8-2.2
			c0-1.4,1-2.7,3.2-2.7h1.9v-0.2c0-0.9-0.4-1.2-1.4-1.2c-0.7,0-1,0.2-1.5,0.6l-1.8-1.8c1-1,1.8-1.3,3.4-1.3c2.7,0,4.1,1.1,4.1,3.4
			v6.1H76.2z M76.2,129.5h-1.4c-0.6,0-0.9,0.3-0.9,0.7c0,0.4,0.3,0.8,0.9,0.8c0.6,0,0.8-0.1,1.1-0.4c0.2-0.2,0.3-0.5,0.3-0.9V129.5z
			"/>
		<path fill="#231F20" d="M86.1,133.3v-5.7c0-1-0.7-1.2-1.1-1.2c-0.4,0-1.1,0.2-1.1,1.2v5.7H81v-12.4h2.9v3.8
			c0.6-0.6,1.3-0.9,2.1-0.9c2,0,3,1.5,3,3.4v6.1H86.1z"/>
		<path fill="#009345" d="M19.9,147.8v-5.6c0-1.1-0.8-1.3-1.2-1.3c-0.4,0-1.1,0.2-1.1,1.3v5.6h-2.9v-5.6c0-1.1-0.8-1.3-1.1-1.3
			c-0.4,0-1.2,0.2-1.2,1.3v5.6H9.6v-9.4h2.8v0.8c0.6-0.6,1.4-0.9,2.2-0.9c0.9,0,1.7,0.3,2.3,1c0.8-0.7,1.6-1,2.7-1
			c0.9,0,1.7,0.3,2.2,0.8c0.8,0.8,1,1.7,1,2.7v6H19.9z"/>
		<path fill="#009345" d="M29.3,147.8V147c-0.6,0.6-1.1,0.9-2.1,0.9c-1,0-1.7-0.3-2.3-0.8c-0.5-0.5-0.8-1.3-0.8-2.2
			c0-1.4,1-2.7,3.2-2.7h1.9v-0.3c0-0.9-0.4-1.2-1.4-1.2c-0.7,0-1,0.2-1.5,0.6l-1.8-1.8c1-1,1.8-1.2,3.4-1.2c2.7,0,4.1,1.1,4.1,3.4
			v6.1H29.3z M29.3,144h-1.5c-0.6,0-0.9,0.3-0.9,0.8c0,0.4,0.3,0.8,0.9,0.8c0.6,0,0.8-0.1,1.1-0.4c0.2-0.2,0.3-0.5,0.3-0.9V144z"/>
		<path fill="#009345" d="M39.2,147.8v-5.7c0-1-0.7-1.2-1.1-1.2c-0.4,0-1.1,0.2-1.1,1.2v5.7h-2.9v-12.4H37v3.8
			c0.6-0.6,1.3-0.9,2.1-0.9c2,0,3,1.5,3,3.4v6.1H39.2z"/>
		<path fill="#009345" d="M48.6,147.8V147c-0.6,0.6-1.1,0.9-2.1,0.9c-0.9,0-1.7-0.3-2.2-0.8c-0.5-0.5-0.8-1.3-0.8-2.2
			c0-1.4,1-2.7,3.2-2.7h1.9v-0.3c0-0.9-0.4-1.2-1.4-1.2c-0.7,0-1,0.2-1.5,0.6l-1.8-1.8c1-1,1.8-1.2,3.4-1.2c2.7,0,4.1,1.1,4.1,3.4
			v6.1H48.6z M48.6,144h-1.4c-0.6,0-0.9,0.3-0.9,0.8c0,0.4,0.3,0.8,0.9,0.8c0.6,0,0.8-0.1,1.1-0.4c0.2-0.2,0.3-0.5,0.3-0.9V144z"/>
		<path fill="#009345" d="M60.6,147c-0.5,0.5-1.4,0.9-2.3,0.9c-1,0-1.6-0.3-2.2-0.9v0.8h-2.8v-12.4h2.9v3.7c0.5-0.5,1.2-0.8,2.1-0.8
			c0.9,0,1.7,0.3,2.3,0.9c0.9,0.9,0.9,2.6,0.9,3.9C61.5,144.4,61.5,146.1,60.6,147z M57.4,140.9c-1.1,0-1.2,0.9-1.2,2.2
			c0,1.4,0.1,2.2,1.2,2.2c1.1,0,1.2-0.9,1.2-2.2C58.6,141.7,58.5,140.9,57.4,140.9z"/>
		<path fill="#009345" d="M70.5,147c-0.5,0.5-1.4,0.9-2.3,0.9c-1,0-1.6-0.3-2.2-0.9v0.8h-2.8v-12.4h2.9v3.7c0.5-0.5,1.2-0.8,2.1-0.8
			c0.9,0,1.7,0.3,2.3,0.9c0.9,0.9,0.9,2.6,0.9,3.9C71.4,144.4,71.4,146.1,70.5,147z M67.3,140.9c-1.1,0-1.2,0.9-1.2,2.2
			c0,1.4,0.1,2.2,1.2,2.2c1.1,0,1.2-0.9,1.2-2.2C68.5,141.7,68.4,140.9,67.3,140.9z"/>
		<path fill="#009345" d="M77.7,147.8V147c-0.6,0.6-1.1,0.9-2.1,0.9c-0.9,0-1.7-0.3-2.2-0.8c-0.5-0.5-0.8-1.3-0.8-2.2
			c0-1.4,1-2.7,3.2-2.7h1.9v-0.3c0-0.9-0.4-1.2-1.4-1.2c-0.7,0-1,0.2-1.5,0.6l-1.8-1.8c0.9-1,1.8-1.2,3.4-1.2c2.7,0,4.1,1.1,4.1,3.4
			v6.1H77.7z M77.7,144h-1.5c-0.6,0-0.9,0.3-0.9,0.8c0,0.4,0.3,0.8,0.9,0.8c0.6,0,0.8-0.1,1.1-0.4c0.2-0.2,0.3-0.5,0.3-0.9V144z"/>
		<path fill="#009345" d="M87.6,147.8v-5.7c0-1-0.7-1.2-1.1-1.2c-0.4,0-1.1,0.2-1.1,1.2v5.7h-2.9v-12.4h2.9v3.8
			c0.6-0.6,1.3-0.9,2.1-0.9c2,0,3,1.5,3,3.4v6.1H87.6z"/>
	</g>
</g>
</svg>
