<svg xmlns="http://www.w3.org/2000/svg" viewBox="0 0 96 96"><path fill="#00aced" d="M48 0C21.488 0 0 21.49 0 48s21.488 48 48 48c26.51 0 48-21.49 48-48S74.51 0 48 0zm19.52 39.322c.02.406.028.814.028 1.224 0 12.493-9.51 26.9-26.898 26.9a26.749 26.749 0 0 1-14.49-4.25c.738.09 1.49.133 2.254.133 4.43 0 8.506-1.518 11.742-4.05a9.467 9.467 0 0 1-8.832-6.57 9.49 9.49 0 0 0 4.27-.16c-4.325-.87-7.585-4.69-7.585-9.27v-.12a9.38 9.38 0 0 0 4.28 1.184 9.45 9.45 0 0 1-4.21-7.87c0-1.733.466-3.356 1.28-4.753 4.66 5.72 11.63 9.484 19.486 9.88a9.548 9.548 0 0 1-.244-2.155 9.453 9.453 0 0 1 9.453-9.453 9.439 9.439 0 0 1 6.9 2.985 18.89 18.89 0 0 0 6.004-2.295 9.49 9.49 0 0 1-4.156 5.23c1.91-.23 3.73-.736 5.43-1.488a19.224 19.224 0 0 1-4.72 4.892z"/></svg>