<svg xmlns="http://www.w3.org/2000/svg" viewBox="0 90 500 499.9" enable-background="new 0 90 500 499.9"><path fill="#00B26E" d="M396 292c.7-4-.3-7.8-3-11.5-2.7-3.3-6.1-5.3-10.5-6L181 252l-2.5-24.5c-.3-3-1.5-5.7-3.5-8.3-2-2.5-4.3-4.1-7-4.7l-44.5-14c-4-1.3-7.8-1-11.5 1s-6.1 5-7.5 9c-1.3 4-1 7.8 1 11.5s5 6.1 9 7.5l34.5 11 12.5 123-8 44c-.3 2-.2 4.1.2 6.2.5 2.2 1.6 4.1 3.3 5.7 3 3.7 6.9 5.5 11.5 5.5h188c4.3 0 8-1.4 11-4.2 3-2.9 4.5-6.5 4.5-10.8s-1.5-7.9-4.5-10.8c-3-2.9-6.7-4.2-11-4.2h-170l3.5-20h179c3.7 0 6.9-1.1 9.5-3.5 2.7-2.4 4.3-5.3 5-9L396 292zm-67 188.5c6.7 0 12.3-2.3 16.7-6.8s6.8-10 6.8-16.7c0-6.7-2.3-12.3-6.8-16.7s-10-6.8-16.7-6.8c-6.7 0-12.2 2.3-16.5 6.8s-6.5 10-6.5 16.7c0 6.7 2.2 12.3 6.5 16.7s9.8 6.8 16.5 6.8zm-137.5 0c6.7 0 12.3-2.3 16.7-6.8s6.8-10 6.8-16.7c0-6.7-2.3-12.3-6.8-16.7-4.5-4.5-10-6.8-16.7-6.8s-12.3 2.3-16.7 6.8-6.8 10-6.8 16.7c0 6.7 2.3 12.3 6.8 16.7s10 6.8 16.7 6.8zM250 90c34.3 0 66.7 6.6 97.2 19.8s57 31 79.5 53.5 40.4 49 53.5 79.5c13.2 30.5 19.8 62.9 19.8 97.2 0 23-3 45.2-9 66.5-6 21.3-14.4 41.3-25.2 59.7s-23.9 35.3-39 50.5c-15.2 15.2-32 28.2-50.5 39-18.5 10.9-38.4 19.3-59.7 25.2-21.3 6-43.5 9-66.5 9s-45.2-3-66.5-9-41.3-14.4-59.7-25.2-35.3-23.9-50.5-39c-15.2-15.2-28.2-32-39-50.5-10.9-18.5-19.3-38.4-25.2-59.7C3 385.2 0 363 0 340s3-45.2 9-66.5 14.4-41.3 25.2-59.7 23.9-35.3 39-50.5c15.1-15.2 32-28.2 50.5-39s38.4-19.3 59.7-25.2S227 90 250 90z"/></svg>