<svg xmlns="http://www.w3.org/2000/svg" viewBox="0 0 400 400" enable-background="new 0 0 400 400"><path d="M323.112 344.463c-3.532 6.428-10.137 10.03-16.954 10.03-3.18 0-6.358-.705-9.395-2.366-45.28-24.936-96.673-38.146-148.595-38.146-31.082 0-61.81 4.664-91.27 13.777-10.242 3.18-21.19-2.543-24.3-12.82-3.18-10.244 2.543-31.93 12.82-35.11 33.203-10.243 67.746-15.47 102.785-15.47 58.42 0 116.276 14.835 167.244 42.915 9.395 5.123 12.82 27.798 7.594 37.158l.073.035zm35.92-106.457c-4.026 7.77-11.937 20.38-20.132 20.38-3.532 0-7.064-.777-10.384-2.578-56.09-29.14-116.735-43.868-180.277-43.868-34.97 0-69.76 4.592-103.315 13.846-12.15 3.285-24.583-3.815-27.903-15.894-3.18-12.115 3.885-32.707 15.965-36.027 37.44-10.172 76.222-15.365 115.216-15.365 69.935 0 139.41 16.954 201.08 49.025 11.127 5.722 15.47 19.356 9.714 30.482h.035zm15.012-85.23c-3.885 0-7.77-.882-11.515-2.72-66.9-33.377-138.99-50.26-214.223-50.26-39.206 0-78.27 4.768-116.205 14.128C18.222 117.35 4.2 108.91.772 95.028c-3.46-13.846 5.018-30.623 18.9-34.05C61.597 50.56 104.865 45.3 148.24 45.3c83.356 0 163.252 18.72 237.355 55.7 12.857 6.358 18.084 21.9 11.656 34.72-4.52 9.077-13.632 17.06-23.17 17.06h-.035z" fill="#fff"/></svg>