<?xml version="1.0" encoding="utf-8"?>
<!-- Generator: Adobe Illustrator 17.1.0, SVG Export Plug-In . SVG Version: 6.00 Build 0)  -->
<!DOCTYPE svg PUBLIC "-//W3C//DTD SVG 1.1//EN" "http://www.w3.org/Graphics/SVG/1.1/DTD/svg11.dtd">
<svg version="1.1" id="Layer_1" xmlns="http://www.w3.org/2000/svg" xmlns:xlink="http://www.w3.org/1999/xlink" x="0px" y="0px"
	 viewBox="0 0 400 400" enable-background="new 0 0 400 400" xml:space="preserve">
<g>
	<path fill="#FFFFFF" d="M323.112,344.463c-3.532,6.428-10.137,10.031-16.954,10.031c-3.179,0-6.358-0.706-9.395-2.367
		c-45.281-24.936-96.673-38.146-148.595-38.146c-31.082,0-61.811,4.662-91.269,13.775c-10.243,3.179-21.192-2.543-24.301-12.821
		c-3.179-10.243,2.543-31.93,12.821-35.109c33.202-10.243,67.745-15.47,102.784-15.47c58.421,0,116.276,14.835,167.244,42.915
		c9.395,5.122,12.821,27.797,7.594,37.157L323.112,344.463z"/>
	<path fill="#FFFFFF" d="M359.033,238.006c-4.027,7.771-11.938,20.38-20.133,20.38c-3.532,0-7.064-0.777-10.384-2.578
		c-56.089-29.14-116.735-43.868-180.277-43.868c-34.968,0-69.759,4.592-103.313,13.846c-12.15,3.285-24.583-3.815-27.903-15.894
		c-3.179-12.115,3.885-32.707,15.965-36.027c37.44-10.172,76.222-15.365,115.216-15.365c69.935,0,139.411,16.954,201.081,49.025
		c11.126,5.722,15.47,19.356,9.713,30.482H359.033z"/>
	<path fill="#FFFFFF" d="M374.044,152.777c-3.885,0-7.771-0.883-11.515-2.72c-66.898-33.378-138.987-50.261-214.221-50.261
		c-39.206,0-78.271,4.768-116.205,14.128C18.222,117.35,4.2,108.909,0.774,95.028c-3.461-13.846,5.016-30.623,18.897-34.049
		c41.926-10.42,85.194-15.682,128.568-15.682c83.357,0,163.253,18.72,237.356,55.701c12.857,6.358,18.084,21.899,11.656,34.72
		c-4.521,9.077-13.634,17.06-23.17,17.06L374.044,152.777z"/>
</g>
</svg>
