<svg xmlns="http://www.w3.org/2000/svg" viewBox="0 0 16 16" enable-background="new 0 0 16 16"><path fill="#fff" d="M8 0C3.582 0 0 3.582 0 8s3.582 8 8 8 8-3.582 8-8-3.582-8-8-8zm3.695 12.69c-.1.182-.287.284-.48.284-.09 0-.18-.02-.266-.067-1.282-.706-2.737-1.08-4.207-1.08-.88 0-1.75.132-2.584.39-.29.09-.6-.072-.688-.363-.09-.29.072-.904.363-.994.94-.29 1.918-.438 2.91-.438 1.654 0 3.292.42 4.735 1.215.266.145.363.787.215 1.052zm1.017-3.014c-.114.22-.338.577-.57.577-.1 0-.2-.022-.294-.073-1.588-.825-3.305-1.242-5.104-1.242-.99 0-1.975.13-2.925.392-.344.093-.696-.108-.79-.45-.09-.343.11-.926.452-1.02 1.06-.288 2.158-.435 3.262-.435 1.98 0 3.947.48 5.693 1.388.315.162.438.548.275.863zm.425-2.413c-.11 0-.22-.025-.326-.077-1.894-.945-3.935-1.423-6.065-1.423-1.11 0-2.216.135-3.29.4-.393.097-.79-.142-.887-.535-.098-.392.142-.867.535-.964 1.187-.295 2.412-.444 3.64-.444 2.36 0 4.622.53 6.72 1.577.364.18.512.62.33.983-.128.257-.386.483-.656.483z"/></svg>