<svg xmlns="http://www.w3.org/2000/svg" viewBox="0 0 95.7 106.8" enable-background="new 0 0 95.7 106.8"><path fill="#fff" d="M77.3 97.2c-.8 1.5-2.4 2.4-4.1 2.4-.8 0-1.5-.2-2.2-.6-10.8-6-23.1-9.1-35.5-9.1-7.4 0-14.8 1.1-21.8 3.3-2.4.8-5.1-.6-5.8-3.1-.8-2.5.6-7.6 3.1-8.4 7.9-2.4 16.2-3.7 24.6-3.7 14 0 27.8 3.5 40 10.3 2.1 1.2 2.9 6.6 1.7 8.9zm8.6-25.5c-1 1.9-2.9 4.9-4.8 4.9-.8 0-1.7-.2-2.5-.6-13.4-7-27.9-10.5-43.1-10.5-8.4 0-16.7 1.1-24.7 3.3-2.9.8-5.9-.9-6.7-3.8-.8-2.9.9-7.8 3.8-8.6 9-2.4 18.2-3.7 27.6-3.7 16.7 0 33.3 4.1 48.1 11.7 2.6 1.4 3.6 4.6 2.3 7.3zm3.6-20.4c-.9 0-1.9-.2-2.8-.7-16-8-33.2-12-51.2-12-9.4 0-18.7 1.1-27.8 3.4-3.3.8-6.7-1.2-7.5-4.5-.8-3.3 1.2-7.3 4.5-8.1 10-2.5 20.4-3.7 30.7-3.7 19.9 0 39 4.5 56.8 13.3 3.1 1.5 4.3 5.2 2.8 8.3-1.1 2.1-3.3 4-5.5 4z"/></svg>