<svg xmlns="http://www.w3.org/2000/svg" viewBox="0 0 86.3 106.8" enable-background="new 0 0 86.3 106.8"><path fill="#fff" d="M72 56.3c-.1-13.4 11-19.9 11.5-20.2-6.2-9.1-15.9-10.3-19.4-10.5-8.2-.8-16.1 4.9-20.3 4.9-4.2 0-10.6-4.7-17.5-4.6-9 .1-17.3 5.2-21.9 13.3-9.3 16.2-2.4 40.2 6.7 53.3 4.4 6.4 9.8 13.7 16.7 13.4 6.7-.3 9.2-4.3 17.4-4.3 8.1 0 10.4 4.3 17.5 4.2 7.2-.1 11.8-6.6 16.2-13 5.1-7.5 7.2-14.7 7.3-15.1-.1-.1-14-5.4-14.2-21.4zM58.7 16.9c3.7-4.5 6.2-10.7 5.5-16.9-5.3.2-11.8 3.5-15.6 8-3.4 4-6.4 10.3-5.6 16.4 5.9.5 12-3 15.7-7.5z"/></svg>