<svg xmlns="http://www.w3.org/2000/svg" viewBox="0 0 100 100" enable-background="new 0 0 100 100"><path fill="#fff" d="M50 1.125C23.008 1.125 1.125 23.007 1.125 50S23.008 98.875 50 98.875 98.875 76.993 98.875 50 76.992 1.125 50 1.125zM26.8 70.373H13.49V66.34H26.8v4.033zm0-5.242H13.49V61.1H26.8v4.036zm0-5.24H13.49v-4.04H26.8v4.04zm0-5.244H13.49V50.61H26.8v4.033zm0-5.244H13.49V45.37H26.8v4.03zM41.73 70.38H28.415v-4.04H41.73v4.033zm0-5.243H28.415V61.1H41.73v4.035zm0-5.243H28.415v-4.04H41.73v4.04zM56.656 70.38H43.344v-4.04h13.313v4.033zm0-5.242H43.344V61.1h13.313v4.035zm0-5.243H43.344v-4.04h13.313v4.037zm0-5.245H43.344v-4.04h13.313v4.033zm0-5.244H43.344V45.37h13.313v4.03zm0-5.244H43.344v-4.034h13.313v4.034zm0-5.243H43.344v-4.04h13.313v4.033zm14.926 31.46H58.27v-4.04h13.313v4.032zm0-5.244H58.27V61.1h13.313v4.037zm0-5.243H58.27V55.85h13.313v4.037zm0-5.246H58.27V50.61h13.313v4.033zm0-5.244H58.27V45.37h13.313v4.034zm14.928 20.97H73.197V66.34H86.51v4.033zm0-5.243H73.197V61.1H86.51v4.036zm0-5.242H73.197V55.85H86.51v4.034zm0-5.243H73.197V50.61H86.51v4.034zm0-5.244H73.197v-4.04H86.51V49.4zm0-5.245H73.197V40.12H86.51v4.032zm0-5.245H73.197v-4.034H86.51v4.033zm-13.313-5.25v-4.033H86.51v4.034H73.197z"/></svg>