<svg xmlns="http://www.w3.org/2000/svg" viewBox="0 0 126.2 106.8" enable-background="new 0 0 126.2 106.8"><path fill="#fff" d="M23 91.6H0v-7h23v7zm0-9.1H0v-7h23v7zm0-9.1H0v-7h23v7zm0-9H0v-7h23v7zM0 48.3h23v7H0v-7zm48.8 43.3h-23v-7h23v7zm0-9.1h-23v-7h23v7zm0-9.1h-23v-7h23v7zm25.8 18.2h-23v-7h23v7zm0-9.1h-23v-7h23v7zm0-9.1h-23v-7h23v7zm0-9h-23v-7h23v7zm0-9.1h-23v-7h23v7zm0-9.1h-23v-7h23v7zm0-9h-23v-7h23v7zm25.8 54.4h-23v-7h23v7zm0-9.1h-23v-7h23v7zm0-9.1h-23v-7h23v7zm0-9h-23v-7h23v7zm0-9.1h-23v-7h23v7zm25.8 36.3h-23v-7h23v7zm0-9.1h-23v-7h23v7zm0-9.1h-23v-7h23v7zm0-9h-23v-7h23v7zm0-9.1h-23v-7h23v7zm-23-16h23v7h-23v-7zm0-9.1h23v7h-23v-7zm0-2.1v-7h23v7h-23z"/></svg>