<svg xmlns="http://www.w3.org/2000/svg" width="512" height="512" viewBox="0 0 512 512"><path d="M395.75 272.046c-.648-64.84 52.878-95.938 55.27-97.483-30.075-44.01-76.925-50.04-93.62-50.736-39.87-4.037-77.798 23.474-98.033 23.474-20.184 0-51.41-22.87-84.476-22.27-43.452.646-83.523 25.27-105.9 64.19-45.152 78.35-11.563 194.42 32.445 257.963 21.505 31.103 47.147 66.038 80.814 64.79 32.42-1.294 44.68-20.98 83.877-20.98 39.197 0 50.215 20.98 84.525 20.336 34.888-.65 56.99-31.7 78.347-62.9 24.693-36.083 34.86-71.02 35.46-72.81-.775-.355-68.03-26.12-68.705-103.57zM331.28 81.76C349.15 60.083 361.21 30.006 357.92 0c-25.738 1.048-56.937 17.145-75.404 38.775-16.57 19.188-31.074 49.813-27.187 79.218 28.73 2.242 58.06-14.602 75.95-36.232z"/></svg>