<svg xmlns="http://www.w3.org/2000/svg" viewBox="0 0 400 400" enable-background="new 0 0 400 400"><path d="M72.912 311.586H0v-22.093h72.912v22.093zm0-28.716H0v-22.103h72.912v22.11zm0-28.72H0v-22.12h72.912v22.114zm0-28.738H0v-22.087h72.912v22.093zM0 174.592h72.912v22.094H0zm154.697 137.005h-72.94v-22.104h72.94v22.093zm0-28.717h-72.94v-22.1h72.94v22.11zm0-28.72h-72.94v-22.13h72.94v22.114zm81.763 57.442h-72.92v-22.11h72.927v22.094zm0-28.715h-72.92v-22.104h72.927v22.11zm0-28.72h-72.92V232.03h72.927v22.114zm0-28.737h-72.92v-22.105h72.927v22.093zm0-28.728h-72.92V174.61h72.927v22.092zm0-28.732h-72.92v-22.092h72.927v22.098zm0-28.715h-72.92v-22.103h72.927v22.103zm81.765 172.365h-72.922v-22.127h72.928v22.093zm0-28.717h-72.922V260.8h72.928v22.11zm0-28.72h-72.922V232.03h72.928v22.114zm0-28.738h-72.922v-22.12h72.928v22.093zm0-28.725h-72.922v-22.094h72.928v22.093zM400 311.586h-72.928v-22.093H400v22.093zm0-28.716h-72.928v-22.103H400v22.11zm0-28.737h-72.928V232.03H400v22.098zm0-28.72h-72.928v-22.1H400v22.105zm0-28.727h-72.928v-22.12H400v22.11zm-72.928-50.83H400v22.093h-72.928zm0-28.732H400v22.093h-72.928zm0-6.65V88.38H400v22.1h-72.928z" fill="#fff"/></svg>