<svg xmlns="http://www.w3.org/2000/svg" width="16" height="16" viewBox="0 0 16 16"><path d="M8 0C3.582 0 0 3.582 0 8s3.582 8 8 8 8-3.582 8-8-3.582-8-8-8zm3.695 12.69c-.1.182-.287.284-.48.284-.09 0-.18-.02-.266-.067-1.287-.706-2.74-1.08-4.21-1.08-.88 0-1.75.132-2.586.39-.29.09-.6-.072-.688-.363-.09-.29.07-.904.362-.994.94-.29 1.917-.438 2.91-.438 1.653 0 3.29.42 4.734 1.215.266.145.363.787.215 1.052zm1.017-3.014c-.114.22-.338.577-.57.577-.1 0-.2-.022-.294-.073-1.588-.825-3.305-1.242-5.104-1.242-.99 0-1.975.13-2.925.392-.35.093-.7-.108-.79-.45-.09-.343.11-.926.45-1.02 1.06-.288 2.16-.435 3.26-.435 1.98 0 3.946.48 5.692 1.388.315.162.438.548.275.863zm.425-2.413c-.11 0-.22-.025-.326-.077-1.89-.946-3.93-1.423-6.06-1.423-1.11 0-2.215.135-3.29.4-.392.097-.79-.142-.886-.535-.1-.392.14-.867.535-.964 1.186-.295 2.41-.444 3.64-.444 2.36 0 4.62.53 6.72 1.577.363.18.51.62.33.983-.13.257-.387.483-.657.483z"/></svg>