<svg xmlns="http://www.w3.org/2000/svg" viewBox="0 0 26.619 22.29" enable-background="new 0 0 26.619 22.29"><path fill="#fff" d="M.148 17.625c-.1-.077-.148-.148-.148-.215 0-.043.015-.082.048-.115.055-.065.12-.1.197-.1.066 0 .14.024.215.07 1.847 1.046 3.88 1.865 6.11 2.456 2.225.598 4.532.89 6.915.89 1.516 0 3.06-.132 4.635-.402 1.574-.27 3.147-.684 4.715-1.244.11-.043.22-.083.33-.115.11-.036.23-.078.35-.13.11-.048.22-.06.33-.037.11.02.19.07.234.148.03.057.05.118.06.183 0 .13-.066.235-.2.312-.18.13-.364.25-.555.355-.196.105-.38.21-.556.322-1.42.766-2.983 1.34-4.688 1.72-1.704.38-3.356.57-4.96.57-2.537 0-4.914-.413-7.12-1.236-2.21-.82-4.18-1.964-5.92-3.425zM15.62 5.34c0-.323-.003-.656-.016-1-.012-.345-.115-.652-.312-.918-.18-.256-.41-.44-.698-.55-.288-.11-.572-.168-.86-.168h-.215c-.5.044-.95.198-1.35.458-.41.263-.67.655-.79 1.177-.02.11-.07.21-.147.303-.076.095-.176.163-.306.21L8.22 4.51c-.11-.02-.214-.07-.317-.146-.103-.076-.132-.202-.09-.376.154-.72.423-1.327.806-1.816.38-.49.84-.892 1.36-1.202.528-.31 1.1-.54 1.72-.687.618-.145 1.242-.24 1.867-.285h.576c.69 0 1.43.096 2.22.286.79.19 1.475.53 2.056 1.02.34.293.594.614.767.956.17.343.287.703.354 1.078.067.375.1.77.1 1.183v5.46c0 .636.11 1.124.328 1.47.22.345.467.672.73.982.088.107.13.22.13.342 0 .12-.053.223-.16.307-.272.24-.624.52-1.06.84s-.79.6-1.08.843c-.2.126-.442.137-.73.03-.455-.364-.77-.65-.95-.85l-.68-.787c-.453.43-.892.775-1.323 1.033-.43.252-.873.445-1.328.572-.605.126-1.28.19-2.02.19-1.174 0-2.157-.33-2.95-.99-.793-.66-1.19-1.65-1.19-2.97 0-1.087.27-1.997.817-2.727.546-.728 1.273-1.275 2.19-1.643.47-.2.97-.354 1.503-.46.532-.105 1.09-.192 1.666-.26.382-.042.746-.076 1.095-.1.35-.02.68-.055.987-.1v-.36h.002zm0 2.52c-.36 0-.725.01-1.083.03-.357.024-.697.07-1.018.136-.59.177-1.09.455-1.51.833-.42.372-.63.93-.63 1.67 0 .58.153 1.06.463 1.41.31.357.734.535 1.274.535.087 0 .167-.01.23-.025.067-.016.122-.025.167-.025.696-.155 1.218-.55 1.572-1.185.32-.48.487-.94.502-1.384.017-.443.023-.927.023-1.45v-.55zm9.125 13.31c-.115.108-.22.142-.316.098-.097-.044-.12-.132-.078-.263l.315-.758c.12-.31.23-.614.336-.916s.176-.57.206-.82c.032-.246.005-.424-.083-.534-.132-.175-.43-.273-.89-.296h-.282c-.376 0-.75.015-1.125.05-.2.042-.39.064-.58.064-.183 0-.355.023-.51.067-.13 0-.207-.04-.23-.115-.02-.076.033-.16.166-.25.343-.22.728-.4 1.158-.542.385-.084.773-.144 1.158-.18.244-.02.468-.032.68-.032.15 0 .307.007.46.018.366.024.666.06.903.116.236.058.394.118.48.183.02.044.044.102.068.173.025.07.038.162.038.27v.135c0 .22-.042.49-.13.808-.085.317-.2.64-.34.963-.14.327-.33.648-.566.967-.243.32-.52.59-.834.81z"/></svg>