<svg xmlns="http://www.w3.org/2000/svg" viewBox="0 0 224.1 106.8" enable-background="new 0 0 224.1 106.8"><path fill="#fff" d="M0 21.1h11.2v11.2H0V21.1zM0 36h11.2v41.1H0V36zm54.1 41.1H42.9v-28s0-3.7-3.7-3.7h-13V77H14.9V36h28c11.2 0 11.2 11.3 11.2 11.3v29.8zm24.3 0H69c-11.2 0-11.2-11.2-11.2-11.2V21.1H69V36h11.2l-5.6 9.4H69V64s0 3.7 3.7 3.7h5.6l.1 9.4zM82.1 36h28c11.2 0 11.2 11.3 11.2 11.3v13h-28V64s.1 3.7 3.7 3.7h18.6l5.6 9.3h-28C82 77 82 65.8 82 65.8l.1-29.8zm11.2 9.4V51h16.8v-1.9c0-3.7-3.7-3.7-3.7-3.7H93.3zm70.9 31.7h-28C125 77.1 125 65.9 125 65.9V51h28v-1.9s-.1-3.7-3.7-3.7h-18.7L125 36h28c11.2 0 11.2 11.3 11.2 11.3v29.8zm-11.1-9.3v-7.5h-16.8V64c0 3.7 3.7 3.7 3.7 3.7h13.1zm70.9 9.3h-11.2v-28s0-3.7-3.7-3.7h-7.5V77h-11.2V45.4h-11.2v31.7H168V36h44.8C224 36 224 47.3 224 47.3v29.8zM112.7 99.3H110c-.1 0-.2-.1-.2-.1l-2.3-6.7c0-.1-.1-.1-.2-.1H105c-.1 0-.2.1-.2.3V99c0 .2-.1.3-.2.3H102c-.1 0-.3-.1-.3-.3V82.9c0-.1.1-.2.3-.2h6c3 0 4.9 1.9 4.9 4.8v.3c0 1.3-1.1 2.8-2.2 3.6-.1.1-.1.1-.1.2s.1.2.1.4l2.2 6.6c.1.2.1.4.1.4-.1.2-.1.3-.3.3zm-3-12c0-1-.9-1.9-1.9-1.9h-2.9c-.1 0-.2.1-.2.3v3.5c0 .2.1.3.2.3h2.9c1 0 1.9-.9 1.9-1.9v-.3zm20.5 12H121c-.1 0-.3-.1-.3-.3V83c0-.1.1-.2.3-.2h9.2c.2 0 .3.1.3.2v2.2c0 .1-.1.2-.3.2H124c-.2 0-.3.1-.3.3v3.5c0 .2.1.3.3.3h5.1c.1 0 .3.1.3.2v2.2c0 .1-.1.2-.3.2H124c-.2 0-.3.1-.3.3v3.7c0 .1.1.2.3.2h6.3c.2 0 .3.1.3.3V99c-.1.2-.1.3-.4.3zm18.4-1.9c-.8 1.3-1.9 2.2-4.2 2.2h-1.3c-3 0-4.9-1.9-4.9-4.7v-7.8c0-2.8 1.9-4.7 4.9-4.7h1.3c2.2 0 3.4.9 4.2 2.2.2.4.5.8.5 1 0 .1-.1.1-.1.2l-2.1 1c-.1 0-.2.1-.3.1s-.1-.1-.1-.2c-.5-1.1-1.1-1.5-1.9-1.5h-1.4c-1 0-1.9.9-1.9 1.9v7.8c0 1 .9 1.9 1.9 1.9h1.3c.7 0 1.4-.4 1.9-1.6l.1-.1c.1 0 .2.1.3.1l2.1 1.1.1.1c0 .2-.2.6-.4 1zm13.9 2.2h-1.3c-3 0-4.8-1.9-4.8-4.7v-7.8c0-2.8 1.9-4.7 4.8-4.7h1.3c3 0 4.9 1.9 4.9 4.7v7.8c-.1 2.7-2 4.7-4.9 4.7zm1.8-12.5c0-1-.8-1.9-1.9-1.9h-1.3c-1 0-1.9.9-1.9 1.9v7.8c0 1 .8 1.9 1.9 1.9h1.3c1 0 1.9-.8 1.9-1.9v-7.8zm22.4 12.2H184c-.1 0-.2-.1-.2-.1l-2.3-6.7c0-.1-.1-.1-.2-.1h-2.4c-.1 0-.3.1-.3.3V99c0 .2-.1.3-.2.3h-2.5c-.2 0-.3-.1-.3-.3V82.9c0-.1.1-.2.3-.2h5.9c3 0 4.9 1.9 4.9 4.8v.3c0 1.3-1.1 2.8-2.2 3.6-.1.1-.1.1-.1.2s.1.2.1.4l2.2 6.6c.1.2.1.4.1.4.2.2.1.3-.1.3zm-3.1-12c0-1-.9-1.9-1.9-1.9h-2.9c-.1 0-.3.1-.3.3v3.5c0 .2.1.3.3.3h2.9c1 0 1.9-.9 1.9-1.9v-.3zm17.2 12H195c-.2 0-.3-.1-.3-.3V83c0-.1.1-.2.3-.2h5.9c3 0 4.9 1.9 4.9 4.8v6.8c0 3-1.9 4.9-5 4.9zm2-12c0-1-.8-1.9-1.9-1.9H198c-.1 0-.2.1-.2.3v10.5c0 .1.1.2.2.2h2.8c1 0 1.9-.8 1.9-1.9v-7.2zm16.3 12.3h-1c-2.2 0-3.4-.9-4.2-2.2-.2-.4-.4-.8-.4-1 0-.1 0-.1.1-.1l2.1-1.1c.1-.1.2-.1.3-.1 0 0 .1.1.2.1.4 1.1 1.1 1.6 1.9 1.6h1c1 0 1.9-.8 1.9-1.9 0-1.4-1.4-1.9-2.8-2.6-2.1-1-4.3-2.1-4.3-5.2 0-2.8 1.9-4.7 4.9-4.7h.4c2.2 0 3.4.9 4.2 2.2.2.4.5.8.5 1 0 .1-.1.1-.1.2l-2.1 1c-.1 0-.2.1-.3.1-.1 0-.1-.1-.2-.2-.5-1.1-1.1-1.5-1.9-1.5h-.4c-1 0-1.9.9-1.9 1.9 0 1.3 1.6 1.7 3.1 2.5 1.9.9 4.1 2.2 4.1 5.4-.2 2.6-2.1 4.6-5.1 4.6z"/></svg>