<svg xmlns="http://www.w3.org/2000/svg" width="16" height="16" viewBox="0 0 16 16"><path d="M8 0a8 8 0 1 0 0 16A8 8 0 0 0 8 0zm3.695 12.69a.546.546 0 0 1-.746.217 8.773 8.773 0 0 0-6.797-.69.549.549 0 0 1-.688-.363c-.09-.29.07-.904.362-.994a9.852 9.852 0 0 1 7.644.777c.267.145.364.787.216 1.052zm1.017-3.014c-.114.22-.338.577-.57.577a.61.61 0 0 1-.294-.073 10.962 10.962 0 0 0-5.104-1.242c-.99 0-1.975.13-2.925.392a.639.639 0 0 1-.79-.45c-.09-.343.11-.926.45-1.02a12.368 12.368 0 0 1 8.95.953c.316.162.44.548.276.863zm.425-2.413a.735.735 0 0 1-.326-.077 13.42 13.42 0 0 0-6.06-1.423c-1.11 0-2.214.135-3.29.4a.73.73 0 0 1-.885-.535c-.1-.392.14-.867.535-.964a15.089 15.089 0 0 1 3.64-.444c2.36 0 4.62.53 6.72 1.577.363.18.51.62.33.983-.13.257-.387.483-.657.483z"/></svg>