<svg xmlns="http://www.w3.org/2000/svg" viewBox="0 0 191.33 55.327" enable-background="new 0 0 191.33 55.327"><path d="M47.556 40.59c-1.3 2.88-1.922 4.166-3.595 6.71-2.33 3.556-5.62 7.98-9.7 8.02-3.62.032-4.55-2.36-9.47-2.333-4.916.027-5.943 2.373-9.57 2.34-4.08-.037-7.195-4.033-9.53-7.586-6.53-9.93-7.212-21.6-3.185-27.792 2.86-4.407 7.376-6.987 11.62-6.987 4.324 0 7.04 2.37 10.614 2.37 3.466 0 5.58-2.373 10.575-2.373 3.778 0 7.78 2.057 10.632 5.61-9.345 5.12-7.826 18.46 1.614 22.026zM31.52 8.982c1.814-2.33 3.193-5.62 2.693-8.982-2.966.205-6.435 2.092-8.46 4.55-1.838 2.233-3.356 5.544-2.765 8.763 3.237.1 6.588-1.835 8.53-4.33z" fill-rule="evenodd" clip-rule="evenodd"/><path d="M64.13 24.795c0 2.017-1.536 3.65-3.936 3.65-2.304 0-3.84-1.633-3.792-3.65-.048-2.112 1.488-3.696 3.84-3.696s3.84 1.58 3.888 3.69zm-7.536 30.003V31.324h7.297v23.474H56.6zm19.63-26.21h-8.687v-6.145h24.866v6.145H83.57v26.21h-7.345v-26.21zm39.363 18.672c0 3.073.096 5.57.19 7.538h-6.335l-.336-3.312h-.145c-.91 1.44-3.12 3.84-7.34 3.84-4.75 0-8.255-2.976-8.255-10.225V31.33h7.345v12.62c0 3.407 1.103 5.47 3.647 5.47 2.017 0 3.17-1.39 3.648-2.543.193-.432.24-1.008.24-1.584v-13.97h7.346V47.26zm5.853-8.448c0-2.93-.095-5.425-.19-7.488h6.336l.336 3.216h.145c.96-1.488 3.36-3.744 7.248-3.744 4.8 0 8.4 3.168 8.4 10.08V54.8h-7.296V41.79c0-3.023-1.06-5.088-3.7-5.088-2.02 0-3.22 1.393-3.7 2.736-.19.48-.287 1.152-.287 1.824V54.8h-7.298V38.81zm33.745 6.578c.24 3.023 3.217 4.464 6.625 4.464 2.496 0 4.512-.336 6.48-.96l.96 4.944c-2.4.96-5.327 1.488-8.496 1.488-7.97 0-12.53-4.656-12.53-12 0-5.954 3.698-12.53 11.858-12.53 7.585 0 10.465 5.904 10.465 11.713 0 1.24-.144 2.35-.24 2.88h-15.122zm8.594-4.994c0-1.776-.77-4.752-4.13-4.752-3.078 0-4.32 2.784-4.52 4.752h8.643zm11.08 8.017c1.345.816 4.13 1.776 6.29 1.776 2.207 0 3.12-.77 3.12-1.97s-.72-1.78-3.457-2.69c-4.85-1.63-6.72-4.27-6.673-7.01 0-4.418 3.745-7.73 9.554-7.73 2.736 0 5.185.623 6.625 1.343l-1.298 5.04c-1.056-.576-3.072-1.345-5.088-1.345-1.776 0-2.784.72-2.784 1.92 0 1.105.913 1.68 3.793 2.69 4.465 1.535 6.337 3.792 6.385 7.25 0 4.37-3.456 7.632-10.177 7.632-3.07 0-5.81-.72-7.583-1.68l1.294-5.233z"/></svg>