<svg xmlns="http://www.w3.org/2000/svg" viewBox="0 0 104.6 106.8" enable-background="new 0 0 104.6 106.8"><path fill="#fff" d="M.6 88.5c-.4-.3-.6-.6-.6-.8 0-.2.1-.3.2-.5.2-.2.5-.4.8-.4.3 0 .6.1.8.3 7.3 4.1 15.2 7.3 24 9.7 8.7 2.3 17.8 3.5 27.2 3.5 6 0 12-.5 18.2-1.6 6.2-1.1 12.4-2.7 18.5-4.9.4-.2.9-.3 1.3-.5.4-.1.9-.3 1.4-.5.4-.2.9-.2 1.3-.1s.7.3.9.6c.1.2.2.5.2.7 0 .5-.2.9-.8 1.2-.7.5-1.4 1-2.2 1.4-.8.4-1.5.8-2.2 1.3-5.6 3-11.7 5.3-18.4 6.8-6.7 1.5-13.2 2.2-19.5 2.2-10 0-19.3-1.6-28-4.9C15.1 98.8 7.4 94.3.6 88.5zm60.8-48.3c0-1.3 0-2.6-.1-3.9 0-1.4-.5-2.6-1.2-3.6s-1.6-1.7-2.7-2.2c-1.1-.4-2.2-.7-3.4-.7h-.8c-2 .2-3.7.8-5.3 1.8-1.6 1-2.6 2.6-3.1 4.6-.1.4-.3.8-.6 1.2s-.7.6-1.2.8L32.3 37c-.4-.1-.8-.3-1.2-.6-.4-.3-.5-.8-.4-1.5.6-2.8 1.7-5.2 3.2-7.1 1.5-1.9 3.3-3.5 5.4-4.7 2.1-1.2 4.3-2.1 6.8-2.7 2.4-.6 4.9-.9 7.3-1.1h2.3c2.7 0 5.6.4 8.7 1.1 3.1.7 5.8 2.1 8.1 4 1.3 1.2 2.3 2.4 3 3.8.7 1.3 1.1 2.8 1.4 4.2.3 1.5.4 3 .4 4.6v21.4c0 2.5.4 4.4 1.3 5.8.9 1.4 1.8 2.6 2.9 3.9.3.4.5.9.5 1.3 0 .5-.2.9-.6 1.2-1.1.9-2.5 2-4.2 3.3-1.7 1.3-3.1 2.4-4.2 3.3-.8.5-1.7.5-2.9.1-1.8-1.4-3-2.6-3.7-3.3l-2.7-3.1c-1.8 1.7-3.5 3-5.2 4.1-1.7 1-3.4 1.8-5.2 2.3-2.4.5-5 .7-7.9.7-4.6 0-8.5-1.3-11.6-3.9-3.1-2.6-4.7-6.5-4.7-11.7 0-4.3 1.1-7.9 3.2-10.7 2.1-2.9 5-5 8.6-6.5 1.8-.8 3.8-1.4 5.9-1.8 2.1-.4 4.3-.8 6.6-1 1.5-.2 2.9-.3 4.3-.4 1.4-.1 2.7-.2 3.9-.4l-.2-1.4zm0 9.9c-1.4 0-2.8 0-4.3.1-1.4.1-2.7.3-4 .5-2.3.7-4.3 1.8-5.9 3.3-1.6 1.5-2.5 3.7-2.5 6.6 0 2.3.6 4.2 1.8 5.6 1.2 1.4 2.9 2.1 5 2.1.3 0 .7 0 .9-.1.3-.1.5-.1.7-.1 2.7-.6 4.8-2.2 6.2-4.7 1.3-1.9 1.9-3.7 2-5.4.1-1.7.1-3.6.1-5.7v-2.2zm35.8 52.3c-.5.4-.9.6-1.2.4-.4-.2-.5-.5-.3-1l1.2-3c.5-1.2.9-2.4 1.3-3.6s.7-2.3.8-3.2c.1-1 0-1.7-.3-2.1-.5-.7-1.7-1.1-3.5-1.2h-1.1c-1.5 0-2.9.1-4.4.2-.8.2-1.5.3-2.3.3-.7 0-1.4.1-2 .3-.5 0-.8-.2-.9-.5-.1-.3.1-.6.6-1 1.3-.9 2.9-1.6 4.5-2.1 1.5-.3 3-.6 4.5-.7 1-.1 1.8-.1 2.7-.1.6 0 1.2 0 1.8.1 1.4.1 2.6.2 3.5.5.9.2 1.5.5 1.9.7.1.2.2.4.3.7.1.3.1.6.1 1.1v.5c0 .9-.2 1.9-.5 3.2-.3 1.2-.8 2.5-1.3 3.8-.6 1.3-1.3 2.5-2.2 3.8-.8 1-1.9 2.1-3.2 2.9z"/></svg>