<?xml version="1.0" encoding="utf-8"?>
<!-- Generator: Adobe Illustrator 17.1.0, SVG Export Plug-In . SVG Version: 6.00 Build 0)  -->
<!DOCTYPE svg PUBLIC "-//W3C//DTD SVG 1.1//EN" "http://www.w3.org/Graphics/SVG/1.1/DTD/svg11.dtd">
<svg version="1.1" id="Layer_1" xmlns="http://www.w3.org/2000/svg" xmlns:xlink="http://www.w3.org/1999/xlink" x="0px" y="0px"
	 viewBox="0 0 388.5 388.5" enable-background="new 0 0 388.5 388.5" xml:space="preserve">
<g>
	<path fill="#FFFFFF" d="M194.2,0C87,0,0,87,0,194.2c0,107.3,87,194.3,194.2,194.3c107.3,0,194.3-87,194.3-194.3
		C388.5,86.9,301.5,0,194.2,0L194.2,0z M313.6,237.7c-1.3,16.2-13.6,36.9-30.7,39.8c-55,4.2-120.2,3.7-177.2,0
		c-17.7-2.3-29.4-23.7-30.7-39.8c-2.7-33.9-2.7-53.2,0-87.1c1.3-16.2,13.3-37.5,30.7-39.5c56.3-4.7,121.9-3.7,177.2,0
		c19.7,0.8,29.4,21.1,30.7,37.4C316.3,182.3,316.3,203.8,313.6,237.7L313.6,237.7z M313.6,237.7"/>
	<path fill="#FFFFFF" d="M170,242.8l72.8-48.6L170,145.7V242.8z M170,242.8"/>
</g>
</svg>
