<svg xmlns="http://www.w3.org/2000/svg" width="56.693" height="56.693" viewBox="0 0 56.693 56.693" fill="#fff"><path d="M38.512 24.392v-4.537l-.59.002-3.947.014.015 4.536zM28.225 34.868a4.718 4.718 0 0 0 4.713-4.711 4.679 4.679 0 0 0-.893-2.748c-.855-1.186-2.248-1.965-3.82-1.965s-2.963.779-3.82 1.965a4.677 4.677 0 0 0-.891 2.748 4.716 4.716 0 0 0 4.711 4.711z"/><path d="M28.348 5.158c-13.6 0-24.625 11.023-24.625 24.623 0 13.6 11.025 24.625 24.625 24.625 13.598 0 24.623-11.025 24.623-24.625S41.945 5.158 28.348 5.158zm13.263 22.251V38.37a5.18 5.18 0 0 1-5.174 5.172H20.012a5.178 5.178 0 0 1-5.173-5.172V21.945a5.178 5.178 0 0 1 5.173-5.173h16.425a5.18 5.18 0 0 1 5.174 5.173v5.464z"/><path d="M35.545 30.157c0 4.035-3.283 7.32-7.32 7.32s-7.318-3.285-7.318-7.32c0-.973.193-1.898.537-2.748h-3.996V38.37a2.567 2.567 0 0 0 2.564 2.564h16.425a2.567 2.567 0 0 0 2.564-2.564V27.409h-3.998a7.25 7.25 0 0 1 .542 2.748z"/></svg>