<svg xmlns="http://www.w3.org/2000/svg" width="56.693" height="56.693" viewBox="0 0 56.693 56.693" fill="#fff"><path d="M40.952 42.347h-9.32c-6.631 0-7.688-2.934-7.688-5.654 0-1.291.08-3.42.16-6.027h15.572c2.33 0 6.777-.955 6.777-5.218 0-4.26-2.053-7.053-4.803-7.053H24.298c-.018-6.148-.418-12.273-6.423-12.273-2.483 0-4.498 1.02-5.348 3.553-1.115 3.328-.82 7.225-.806 10.69.004.658.007 1.32.009 1.98.008 2.27.054 4.553.064 6.834.006 2.455.009 4.91.009 7.363 0 13.746 12.494 17.641 14.89 17.641s11.783.223 13.479.223 6.562-.449 6.562-5.371-3.452-6.688-5.782-6.688z"/></svg>